M48
;Layer_Color=9474304
;FILE_FORMAT=2:4
INCH
;TYPE=PLATED
T1F00S00C0.0236
T2F00S00C0.0354
T3F00S00C0.0866
%
T01
X020216Y020330
X021404Y020256
X021850Y021063
X021693Y021961
X021260Y021555
X020768Y022047
X021260Y022539
X020277Y022823
X020971Y023694
X022718Y024980
X023622Y025000
X024606Y024606
X025394Y024016
X023827Y021476
X024316Y020670
X023953Y019468
X024871Y019072
X026746Y019294
X022560Y019450
X022434Y020489
T02
X026378Y020835
Y021835
Y022835
Y023835
T03
X021260Y019409
Y024685
M30
