M48
;Layer_Color=9474304
;FILE_FORMAT=2:4
INCH
;TYPE=PLATED
T1F00S00C0.0118
T2F00S00C0.0130
T4F00S00C0.0280
T5F00S00C0.0315
T6F00S00C0.0350
T7F00S00C0.0394
T9F00S00C0.0402
T10F00S00C0.0433
T11F00S00C0.0618
T12F00S00C0.0669
T13F00S00C0.1280
T14F00S00C0.2362
%
T01
X031780Y016640
X032110Y016660
X034940Y017650
X035190Y017660
X035450Y017650
X035730Y017660
X038340Y018060
X039140Y018050
X039950Y018290
X039950Y018484
X040160Y018490
Y018290
X040370
Y018490
X040570Y018830
X041600Y018780
Y018550
Y018300
X041920
Y018550
Y018780
Y019010
X041600
X041100Y019420
X041070Y017810
X042850Y017450
X043510
X043550Y019310
X037620Y020450
X036870Y020440
X034710Y020350
X033500Y020870
X033640Y021660
Y021990
X033310
Y021650
X032950Y021660
Y021990
X033110Y022740
X033340Y023730
X033750Y023750
X034120
X033490Y019440
X031980Y020370
X030505Y016815
X029675Y016845
X027630Y017740
X027430
X027420Y017940
X027620
Y018150
X027420
X027210
Y017940
X027220Y017740
X023708Y017805
X023098Y017303
X021400Y017670
X018760Y019350
Y019590
Y019810
Y020030
Y020270
X018510Y020260
Y020020
Y019800
Y019580
Y019340
X028160Y024680
X028150Y025050
X028240Y025770
X028210Y026520
X028470Y027240
Y027490
Y027720
Y027950
X028790
Y027720
Y027490
Y027240
X029070
Y027490
Y027720
Y027950
X029390
Y027720
Y027490
Y027240
X022140Y033830
X022210Y034660
X021910Y034650
X021620Y034670
Y040650
X021060Y041100
X021050Y042020
X020050Y042310
X020250Y042560
X020260Y042910
X019230Y042930
X019150Y042580
X018220Y042570
X018240Y042910
X017430Y042380
X017400Y041650
X018010Y041720
X018060Y041330
X018190Y040910
X019780Y041230
X019790Y041550
X020100Y041560
X020110Y041220
X019660Y040370
X023810Y040680
Y039920
X024830Y042270
X025300Y042020
X025700Y041520
X024810Y043210
X026250Y044060
X027080Y043700
Y043490
Y043290
X027300
Y043490
Y043700
X027730Y043650
Y043440
Y043240
X027950
Y043440
Y043650
X028421Y043721
X027610Y045030
X027380
X027150
X026900
X026910Y045390
X027160
X027390
X027620
X027260Y046150
X028200Y046100
X029270Y046550
X029486Y045858
X029883Y045867
X030260Y046260
X030180Y046550
X024180Y046050
X017410Y044160
X017390Y043410
X032097Y043020
X032695Y042995
X032737Y043840
X032590Y044280
X032600Y044630
X033130Y045820
X034107Y045919
X034150Y044860
X034873Y044057
X034777Y042840
X033740Y042800
X034590Y041840
X035641Y042441
X036780Y042660
X036770Y042990
X036656Y043479
X037360Y043060
X037930Y042830
X037920Y042240
X037700Y042400
X038430Y042500
X038840Y042650
X038870Y043020
X040305Y043590
X040670Y045270
X041500Y045200
X042240Y045170
X042840Y045120
X042780Y045900
X042460Y046290
X041950Y045920
X041161Y045896
X040730Y046270
X040390Y046432
X040230Y045880
X039700Y045310
X039100Y045890
X038260Y046140
X038340Y046710
X037880Y046810
X037360Y046800
X037400Y045990
X037770Y045950
X037090Y045830
X036306Y044309
X037147Y039480
X037450Y039390
X037727Y039400
X037960Y039481
X038090Y038570
X037690Y038580
X037310Y038560
X036900Y038550
X038670Y038220
X038920Y039290
Y039620
X038860Y040800
X040720Y041340
X041200Y042090
X042450Y042579
X042430Y043629
X043980Y043960
X044920Y044010
X044640Y043330
X045459Y043486
X046070Y043430
X046360Y042830
X045389Y042736
X046520Y041880
X044289Y044656
X043819Y045146
X043330Y044670
X041410Y046630
X040750Y046810
X046410Y046870
X041170Y040310
X041180Y038990
X040710Y038190
X041200Y036980
X039140Y037160
X031790Y041570
X047410Y041640
X047390Y042400
X047820Y043190
X048010Y043710
X048410Y043720
X047180Y043510
X049870Y043620
X049880Y044220
X049550Y043070
X050720Y041930
X051702Y041780
X052020Y042380
X052120Y042730
X052000Y040890
X050080Y040990
X050670Y039690
X051030Y039670
X051400Y039150
X051020Y045300
Y045940
Y046870
X053175Y046342
X053345Y045442
X052725Y045472
X054180Y045640
X054200Y045920
Y046230
Y046550
Y046870
X054170Y045280
X049030Y045530
X047940Y045930
X049030Y047170
X049840Y047780
X049505Y048168
X049560Y048745
X049830Y049000
X050135Y048728
X051040Y048130
X051030Y047490
X052170Y047770
X052295Y047202
X054190Y047170
X054200Y047480
Y047810
X054190Y048130
X052560Y051050
X052125Y051638
X051952Y051902
X051690Y051700
X051780Y052746
X051210Y052550
X050405Y052538
X050080Y052440
X049690Y051960
X049293Y051581
X048920Y051970
X048870Y051170
X048495Y050778
X049090Y050260
X049460Y050230
X049525Y049808
X049660Y051180
X050325Y051226
X050065Y050778
X050165Y053318
X050185Y053718
X051545Y053348
X052730Y053100
X048475Y053488
X048535Y052628
X047820Y052630
X047825Y052278
X048155Y051878
X046890Y051880
Y052110
Y051640
Y051410
X047715Y050368
X047990Y048670
X048305Y048728
X046710Y048260
X046720Y047850
X044990Y048040
X045200Y048820
X044590Y048850
X044360Y049880
X044220Y050910
X042770Y050880
X042550
Y051110
X042770
Y051340
X042550
X042320
Y051110
Y050880
Y050630
X042550
X042770
X042590Y049730
X042630Y049010
X043170Y049140
X041820Y048200
X042350Y047170
X040720Y047140
X039470Y047160
X039100Y047750
X038570Y047660
X038140Y048220
X038940Y048290
X039490Y048500
X039640Y049100
X040750
X039760Y050310
X038580Y050130
X037770Y051050
X037440Y051040
X037216Y050556
X036069Y050981
X035900Y052100
X035160Y052110
X035240Y050210
X034700Y049960
X034620Y050510
X034330Y049630
X033990Y048670
X033650Y048440
X035600Y049452
X035900Y049240
X037920Y051930
X039010Y051940
X039670Y051890
X039660Y052790
X040040
X040660Y052820
X040910
X041140
X041370
Y052500
X041140
X040910
X040660
Y053150
X040910
X041140
X041370
Y053470
X041140
X040910
X039620Y053410
X039250Y053400
X039280Y052770
X037580Y053140
X032990Y052440
X032090Y051960
X031566Y051907
X043250Y052090
X043280Y052230
X043530Y052840
X043520Y053220
X044100Y053010
X044480Y053020
X045150Y053070
X045890Y053080
X046210Y052110
Y051880
X046440
X046660
Y052110
X046440
X046450Y051650
X046660Y051640
Y051410
X046450Y051420
X046220
Y051650
X031130Y052180
X031120Y052540
X030530Y052332
X028460Y052175
X027525Y052015
X027125Y052005
X026700Y052030
X026569Y051091
X026150Y051060
X026340Y050830
X026930Y050890
X027900Y051390
X028666Y051094
X028710Y050697
X028690Y050300
X028680Y049900
X028640Y049072
X028680Y048710
X029160Y048810
X029640Y049500
X029900Y049270
X030140Y049848
X030185Y047691
X030160Y047444
X030180Y046950
X029250Y046930
X029270Y047320
X029280Y047720
X028410Y047240
X027960Y047060
X027440Y048110
X026340Y048560
X026140Y048720
X025475Y048575
X024697Y048489
X024590Y048950
X023730Y049100
X023880Y049770
X024260Y049850
X023190Y049550
X024520Y051230
X025053Y051680
X025540Y051710
X025575Y052605
X025125Y052595
X024634Y052644
X024646Y053044
X025450Y053010
X025700Y053260
X023684Y053044
X023560Y052640
X024680Y047660
X025070Y047670
X025470Y047660
X025880Y047680
X025670Y047040
X024180Y047030
X027840Y049866
T02
X026194Y049556
X026430Y049792
X026666Y049556
X026666Y050028
X026194Y050028
T04
X045950Y050530
T05
X049380Y037200
X050380Y038200
X049380Y039200
T06
X021775Y048544
Y049544
Y050544
Y051544
X022775Y051044
Y050044
Y049044
Y048044
T07
X047225Y019306
X048225
X046225
X052265Y044601
Y048814
X030560Y053400
X029560
X028560
X027560
X026560
T09
X017944Y047304
X017346Y048268
X017944Y051320
X017346Y052284
T10
X050600Y018480
X051600
X031090Y035840
X030090
X030120Y038840
X031120
X031620Y040600
X032620
X033620
X034620
X035620
X052980Y041360
Y042360
Y043360
T11
X020476Y046694
Y052894
T12
X042576Y038976
X044584
X046036Y039016
Y041024
X044584Y040984
X042576
X043580Y039980
X043860Y046210
X045868
X048044Y041024
Y039016
X047040Y040020
X044864Y047214
X045868Y048218
X043860
T13
X019275Y047544
Y052044
T14
X052170Y023440
X042327
Y033283
X052170
M30
