M48
;Layer_Color=9474304
;FILE_FORMAT=2:4
INCH
;TYPE=PLATED
T1F00S00C0.0118
T2F00S00C0.0177
T3F00S00C0.0217
T4F00S00C0.0276
T5F00S00C0.0433
%
T01
X017910Y017620
X018300Y017580
X017980Y019530
X018962Y019380
X019487Y018753
X020079Y018504
X019865Y020073
X017157Y018880
X015945Y019882
X015925Y020846
X015771Y023919
X015855Y025789
X015651Y026260
X016230Y026170
X017020Y026180
X017685Y026226
X017425Y025778
X016820Y025230
X016450Y025260
X016885Y024808
X017913Y024606
X019698Y024732
X019920Y026050
X019687Y026888
X019034Y026656
X019140Y027746
X018954Y028269
X018570Y027497
X017717Y027686
X017478Y027320
X017050Y026960
X016653Y026581
X016280Y026970
X015895Y027628
X015834Y028360
X016634Y028346
X017525Y028348
X020090Y028151
X015225Y027630
Y027300
X014961Y027165
T02
X016650Y022750
X017497
T03
X016641Y022227
X017074Y022050
X017507Y022227
X017307Y023224
X016824Y023210
T04
X016642Y018094
X015642Y019094
X016642Y020094
T05
X020850Y018685
Y019685
X021850
Y018685
Y022622
Y023622
X020850
Y022622
X019240Y022860
Y021860
Y020860
X020850Y025378
X021850
Y026378
Y027378
X020850
Y026378
M30
