M48
;Layer_Color=9474304
;FILE_FORMAT=2:4
INCH
;TYPE=PLATED
T1F00S00C0.0059
T2F00S00C0.0130
T4F00S00C0.0280
T5F00S00C0.0350
T6F00S00C0.0354
T7F00S00C0.0394
T9F00S00C0.0402
T10F00S00C0.0433
T11F00S00C0.0618
T12F00S00C0.1181
T13F00S00C0.1280
T14F00S00C0.2362
%
T01
X046890Y025551
Y026220
X048150
Y025591
X049488Y025551
Y026220
X051023Y025713
X050591Y025236
X051929Y024843
X051481Y024339
X052835Y024173
X052795Y023504
X051963Y030575
X051443Y030957
X052535Y031217
X050906Y029528
X050437Y029970
X049331Y029921
Y029291
X047874
Y029921
X046890
Y029291
X044724
X044706Y029915
X043626Y029912
X043622Y029291
X042362
X042361Y029919
X041220Y029921
Y029291
X039843
X039848Y029941
X038985Y030595
X038465Y030118
X037205Y029961
X036417
X036457Y031102
X037204Y031074
X037762Y029286
X037362Y028701
X038228Y027913
X038701Y028386
X039094Y027047
X039576Y027503
X040315Y026811
X039882Y026299
X041063Y026220
Y025551
X042283
Y026220
X043425
Y025551
X044724Y025591
Y026220
X042300Y019360
X040800Y019380
X040050Y019370
X039134Y016614
X041520Y016990
X042320Y016980
X037230Y017760
X036950Y017750
X036690Y017760
X036440Y017750
X036210Y020450
X035354Y021693
X035056Y021698
X034764Y021693
X034488
Y022023
X034764
X035056Y022028
X035354Y022023
X035200Y023900
X035610Y023920
X035980
X034990Y019540
X033750Y018870
X032120Y018900
X032005Y016915
X033280Y016740
X033610Y016760
X033480Y020470
X030533Y018984
X029320Y019840
X028150Y020312
X025570Y021550
X025320
Y021890
X025570
Y022200
X025320
Y022500
X025570
X025560Y022820
X025310
Y023130
X025560
X025550Y023460
X025300
X025310Y023790
X025560
X024200Y023800
Y023400
Y023000
Y022600
Y022200
Y021800
Y021400
Y021000
X023860
X023580Y020970
X023248Y020953
X022930Y020960
X022640Y020980
X022339Y020990
X022310Y021400
X022317Y021834
X022320Y022240
X022870Y022250
X023200Y022600
Y023000
Y023400
Y023800
X022873Y020692
X023389Y019053
X023960Y019060
X024253Y019090
X023797Y018093
X023465Y018325
X022263Y019053
X031175Y016945
X029660Y024780
X029650Y025150
X029740Y025870
X029710Y026620
X028910Y027150
Y027400
Y027630
Y027860
X028590
Y027630
Y027400
Y027150
X028310
Y027400
Y027630
Y027860
X027990
Y027630
Y027400
Y027150
X028442Y040830
X028883Y040858
X029254Y041307
X029130Y041693
X028729Y041669
X028310Y041670
X027983Y043205
Y043455
Y043705
X027713
Y043455
Y043205
X027330Y043200
Y043450
Y043700
X027060
Y043450
Y043200
X026250Y044060
X026900Y045030
X027150
X027380
X027610
X027620Y045390
X027390
X027160
X026910
X027260Y046150
X028200Y046100
X029270Y046550
X029486Y045858
X029883Y045867
X030260Y046260
X028421Y043721
X024180Y046050
X024242Y041298
X023851Y041094
X020110Y041220
X019780Y041230
X019790Y041550
X020100Y041560
X020050Y042310
X019150Y042580
X019230Y042930
X018240Y042910
X018220Y042570
X017430Y042380
X017400Y041650
X018010Y041720
X018060Y041330
X018190Y040910
X019660Y040370
X016280Y040130
X017390Y043410
X017410Y044160
X032590Y044280
X032600Y044630
X032737Y043840
X032695Y042995
X032097Y043020
X033740Y042800
X034777Y042840
X035641Y042441
X036780Y042660
X036770Y042990
X036656Y043479
X037296Y043480
X037700Y043054
X038373Y042968
X038231Y043504
X037755Y043980
X037246Y044496
X036808Y044941
X036381Y045342
X035945Y044843
X036306Y044309
X036727Y044098
X034873Y044057
X034070Y044770
X033130Y045820
X034635Y046589
X035986Y046741
X037760Y046870
X038425Y046850
X038320Y046070
X037770Y045950
X037400Y045990
X037090Y045830
X039100Y045890
X039488Y046496
X040230Y045880
X041161Y045896
X041950Y045920
X042780Y045900
X043190Y044690
X043819Y045146
X044530Y044400
Y043450
X044190Y042700
X045389Y042736
X045532Y042036
X046272Y042046
X046420Y042700
X046070Y043430
X046592Y041076
X046822
Y040846
X046592
Y040616
Y040386
X046822
Y040616
X042500Y040800
X042182Y040966
X042432Y041576
X042422Y041956
X043002Y041746
X043382Y041756
X043122Y039646
X043262Y038616
X043492Y037586
X044102Y037556
X042072Y037876
X041020Y038000
X041222Y039366
X041452
X041672
Y039616
X041452
Y039846
X041672
Y040076
X041452
X041222
Y039846
Y039616
X040272Y041236
X040042
X039812
X039562
Y041556
X039812
X040042
X040272
Y041886
X040042
X039812
X039562
X039812Y042206
X040042
X040272
X038998Y042215
X039005Y042566
X038379Y042214
X037756Y042273
X037741Y041364
X038393Y041339
X039023Y041353
X038999Y040413
X038379Y040399
X037772Y040410
X036854Y040489
X036874Y039439
X037419Y039558
X037734Y039093
X038389Y039052
X039016Y039055
X039019Y037883
X038393Y037878
X037756Y037913
X037677Y037480
X038276Y037047
X039016Y037087
X038518Y035832
X037734Y036374
X037126Y036890
X037233Y035737
X036496Y035787
Y034764
X037182Y034767
X037913Y034764
X037874Y033661
X037196Y033643
X036496Y033661
Y032559
X037177Y032554
X037847Y032523
X038007Y031548
X032730Y036000
X032460
X032200Y035990
Y036310
X032460Y036320
X032730
X038694Y044273
X039700Y045310
X040670Y045270
X041640Y045290
X047520Y045710
X047528Y046140
X047520Y046660
X048288Y046158
X048050Y045710
X048295Y045430
X048820Y045420
X048830Y045950
X049860Y045990
X049160Y044790
X048032Y044521
X047660Y044520
X048160Y043560
X048560Y043570
X047970Y043040
X047330Y043360
X047390Y042400
X048530Y042440
X048231Y042014
X048710Y041654
Y041390
Y041126
Y040862
X049110
Y041126
Y041390
Y041654
X047701Y041424
X047272Y041076
Y040846
X047042
Y041076
Y040606
Y040376
X047272
Y040606
X048201Y040404
X049981Y040044
X050641
X050681Y041904
X049700Y042920
X050020Y043470
X050030Y044070
X052271Y031786
X052953Y032047
X052977Y031422
X049860Y047630
X049655Y048018
X049560Y048745
X048455Y048578
X048140Y048520
X048780Y046910
X046870Y047700
X046860Y048110
X045591Y049971
X045271Y050211
X045261Y050501
X045581Y050771
X042630Y049010
X040709Y048189
X037770Y051050
X037440Y051040
X037216Y050556
X036280Y050700
X036299Y052008
X035900Y052100
X034940Y052370
X035000Y052770
X034620Y050510
X034700Y049960
X034330Y049630
X033990Y048670
X033650Y048440
X033280Y048070
X033071Y050591
X033543
X035240Y050210
X035600Y049452
X035900Y049240
X032020Y052090
X031566Y051907
X031520Y053150
X031181Y052913
X031120Y052540
X031130Y052180
X030530Y052332
X029080Y052070
X028460Y052175
X027525Y052015
X027125Y052005
X026700Y052030
X026569Y051091
X026150Y051060
X026340Y050830
X026930Y050890
X027900Y051390
X028666Y051094
X028710Y050697
X028690Y050300
X028680Y049900
X029240Y049950
X029640Y049500
X029900Y049270
X029160Y048810
X028680Y048710
X028640Y049072
X027840Y049866
X027440Y048110
X026340Y048560
X026140Y048720
X025475Y048575
X024697Y048489
X024590Y048950
X023730Y049100
X023880Y049770
X024260Y049850
X023190Y049550
X024520Y051230
X025053Y051680
X025540Y051710
X025575Y052605
X025125Y052595
X024634Y052644
X024646Y053044
X025450Y053010
X025700Y053260
X023684Y053044
X023560Y052640
X024680Y047660
X025070Y047670
X025470Y047660
X025880Y047680
X025670Y047040
X024180Y047030
X027960Y047060
X028410Y047240
X029270Y047320
X029250Y046930
X029280Y047720
T02
X026194Y049556
X026430Y049792
X026666Y049556
X026666Y050028
X026194Y050028
T04
X044852Y039266
T05
X021775Y048544
Y049544
Y050544
Y051544
X022775Y051044
Y050044
Y049044
Y048044
T06
X053543Y022835
Y023835
Y024835
Y025835
Y030709
Y031709
Y032709
Y033709
X036000Y053400
X035000
X034000
X033000
T07
X043938Y018676
X044938
X045938
X028730Y037150
X027730
X026730
X024730
X023730
X026560Y053400
X027560
X028560
X029560
X030560
T09
X051790Y040977
Y041977
X052790
Y040977
Y044914
Y045914
X051790
Y044914
Y047670
X052790
Y048670
X051790
Y049670
X052790
X017944Y051320
X017346Y052284
Y048268
X017944Y047304
T10
X048713Y018504
X049713
X021640Y024650
X020640
X018270
X017270
X017590Y037940
X018590
X043890Y035960
X044890
X045890
X047764Y053440
X048764
X049764
X050764
X046764
X045764
X044764
X043764
X042764
X041764
X040764
X039764
X038764
X037764
T11
X020476Y046694
Y052894
T12
X053150Y017323
X016929
X022047Y044094
X053150Y052362
T13
X019275Y047544
Y052044
T14
X049883Y022810
X040040
Y032653
X049883
M30
