G04*
G04 #@! TF.GenerationSoftware,Altium Limited,Altium Designer,22.2.1 (43)*
G04*
G04 Layer_Color=128*
%FSAX24Y24*%
%MOIN*%
G70*
G04*
G04 #@! TF.SameCoordinates,9FECD9A3-9FBE-45D8-96C7-32EA53B7FBE5*
G04*
G04*
G04 #@! TF.FilePolarity,Positive*
G04*
G01*
G75*
%ADD227C,0.0020*%
D227*
X018635Y052044D02*
X019915D01*
X019275Y051404D02*
Y052684D01*
X018635Y047544D02*
X019915D01*
X019275Y046904D02*
Y048184D01*
X020167Y052894D02*
X020785D01*
X020476Y052585D02*
Y053203D01*
X020167Y046694D02*
X020785D01*
X020476Y046385D02*
Y047003D01*
X021600Y051544D02*
X021950D01*
X021775Y051369D02*
Y051719D01*
X022600Y048044D02*
X022950D01*
X022775Y047869D02*
Y048219D01*
X022600Y051044D02*
X022950D01*
X022775Y050869D02*
Y051219D01*
X021600Y048544D02*
X021950D01*
X021775Y048369D02*
Y048719D01*
X021600Y050544D02*
X021950D01*
X021775Y050369D02*
Y050719D01*
X022600Y049044D02*
X022950D01*
X022775Y048869D02*
Y049219D01*
X022600Y050044D02*
X022950D01*
X022775Y049869D02*
Y050219D01*
X021600Y049544D02*
X021950D01*
X021775Y049369D02*
Y049719D01*
X017145Y052284D02*
X017547D01*
X017346Y052083D02*
Y052485D01*
X017744Y047304D02*
X018145D01*
X017944Y047103D02*
Y047505D01*
X017744Y051320D02*
X018145D01*
X017944Y051119D02*
Y051520D01*
X017145Y048268D02*
X017547D01*
X017346Y048068D02*
Y048469D01*
X037547Y053440D02*
X037980D01*
X037764Y053223D02*
Y053656D01*
X038547Y053440D02*
X038980D01*
X038764Y053223D02*
Y053656D01*
X042547Y053440D02*
X042980D01*
X042764Y053223D02*
Y053656D01*
X045547Y053440D02*
X045980D01*
X045764Y053223D02*
Y053656D01*
X047547Y053440D02*
X047980D01*
X047764Y053223D02*
Y053656D01*
X049547Y053440D02*
X049980D01*
X049764Y053223D02*
Y053656D01*
X050547Y053440D02*
X050980D01*
X050764Y053223D02*
Y053656D01*
X048547Y053440D02*
X048980D01*
X048764Y053223D02*
Y053656D01*
X046547Y053440D02*
X046980D01*
X046764Y053223D02*
Y053656D01*
X044547Y053440D02*
X044980D01*
X044764Y053223D02*
Y053656D01*
X043547Y053440D02*
X043980D01*
X043764Y053223D02*
Y053656D01*
X041547Y053440D02*
X041980D01*
X041764Y053223D02*
Y053656D01*
X040547Y053440D02*
X040980D01*
X040764Y053223D02*
Y053656D01*
X039547Y053440D02*
X039980D01*
X039764Y053223D02*
Y053656D01*
X045741Y018676D02*
X046134D01*
X045938Y018479D02*
Y018873D01*
X044741Y018676D02*
X045134D01*
X044938Y018479D02*
Y018873D01*
X043741Y018676D02*
X044134D01*
X043938Y018479D02*
Y018873D01*
X038859Y022810D02*
X041221D01*
X040040Y021629D02*
Y023991D01*
X038859Y032653D02*
X041221D01*
X040040Y031471D02*
Y033834D01*
X048701Y032653D02*
X051064D01*
X049883Y031471D02*
Y033834D01*
X048701Y022810D02*
X051064D01*
X049883Y021629D02*
Y023991D01*
X017373Y037940D02*
X017807D01*
X017590Y037723D02*
Y038157D01*
X018373Y037940D02*
X018807D01*
X018590Y037723D02*
Y038157D01*
X023533Y037150D02*
X023927D01*
X023730Y036953D02*
Y037347D01*
X024533Y037150D02*
X024927D01*
X024730Y036953D02*
Y037347D01*
X026533Y037150D02*
X026927D01*
X026730Y036953D02*
Y037347D01*
X027533Y037150D02*
X027927D01*
X027730Y036953D02*
Y037347D01*
X028533Y037150D02*
X028927D01*
X028730Y036953D02*
Y037347D01*
X045673Y035960D02*
X046107D01*
X045890Y035743D02*
Y036177D01*
X044673Y035960D02*
X045107D01*
X044890Y035743D02*
Y036177D01*
X043673Y035960D02*
X044107D01*
X043890Y035743D02*
Y036177D01*
X021423Y024650D02*
X021857D01*
X021640Y024433D02*
Y024867D01*
X020423Y024650D02*
X020857D01*
X020640Y024433D02*
Y024867D01*
X017053Y024650D02*
X017487D01*
X017270Y024433D02*
Y024867D01*
X018053Y024650D02*
X018487D01*
X018270Y024433D02*
Y024867D01*
X016339Y017323D02*
X017520D01*
X016929Y016732D02*
Y017913D01*
X052559Y017323D02*
X053740D01*
X053150Y016732D02*
Y017913D01*
X052559Y052362D02*
X053740D01*
X053150Y051772D02*
Y052953D01*
X021457Y044094D02*
X022638D01*
X022047Y043504D02*
Y044685D01*
X032823Y053400D02*
X033177D01*
X033000Y053223D02*
Y053577D01*
X033823Y053400D02*
X034177D01*
X034000Y053223D02*
Y053577D01*
X034823Y053400D02*
X035177D01*
X035000Y053223D02*
Y053577D01*
X035823Y053400D02*
X036177D01*
X036000Y053223D02*
Y053577D01*
X053366Y030709D02*
X053720D01*
X053543Y030531D02*
Y030886D01*
X053366Y031709D02*
X053720D01*
X053543Y031532D02*
Y031886D01*
X053366Y032709D02*
X053720D01*
X053543Y032531D02*
Y032886D01*
X053366Y033709D02*
X053720D01*
X053543Y033531D02*
Y033886D01*
X053366Y022835D02*
X053720D01*
X053543Y022657D02*
Y023012D01*
X053366Y023835D02*
X053720D01*
X053543Y023657D02*
Y024012D01*
X053366Y024835D02*
X053720D01*
X053543Y024657D02*
Y025012D01*
X053366Y025835D02*
X053720D01*
X053543Y025657D02*
Y026012D01*
X020565Y022180D02*
X020959D01*
X020762Y021983D02*
Y022377D01*
X019423Y020290D02*
X019817D01*
X019620Y020093D02*
Y020487D01*
X018183Y022180D02*
X018577D01*
X018380Y021983D02*
Y022377D01*
X051589Y045914D02*
X051991D01*
X051790Y045713D02*
Y046115D01*
X052589Y045914D02*
X052991D01*
X052790Y045713D02*
Y046115D01*
X051589Y044914D02*
X051991D01*
X051790Y044713D02*
Y045115D01*
X052589Y044914D02*
X052991D01*
X052790Y044713D02*
Y045115D01*
X051589Y041977D02*
X051991D01*
X051790Y041776D02*
Y042178D01*
X052589Y041977D02*
X052991D01*
X052790Y041776D02*
Y042178D01*
X051589Y040977D02*
X051991D01*
X051790Y040776D02*
Y041178D01*
X052589Y040977D02*
X052991D01*
X052790Y040776D02*
Y041178D01*
X052589Y047670D02*
X052991D01*
X052790Y047469D02*
Y047871D01*
X052589Y048670D02*
X052991D01*
X052790Y048469D02*
Y048871D01*
X051589Y047670D02*
X051991D01*
X051790Y047469D02*
Y047871D01*
X051589Y048670D02*
X051991D01*
X051790Y048469D02*
Y048871D01*
X052589Y049670D02*
X052991D01*
X052790Y049469D02*
Y049871D01*
X051589Y049670D02*
X051991D01*
X051790Y049469D02*
Y049871D01*
X048496Y018504D02*
X048929D01*
X048713Y018287D02*
Y018720D01*
X049496Y018504D02*
X049929D01*
X049713Y018287D02*
Y018720D01*
X029363Y053400D02*
X029757D01*
X029560Y053203D02*
Y053597D01*
X026363Y053400D02*
X026757D01*
X026560Y053203D02*
Y053597D01*
X027363Y053400D02*
X027757D01*
X027560Y053203D02*
Y053597D01*
X028363Y053400D02*
X028757D01*
X028560Y053203D02*
Y053597D01*
X030363Y053400D02*
X030757D01*
X030560Y053203D02*
Y053597D01*
X015857Y044189D02*
X016054D01*
X015955Y044091D02*
Y044287D01*
X015857Y041591D02*
X016054D01*
X015955Y041492D02*
Y041689D01*
X038975Y042566D02*
X039034D01*
X039005Y042536D02*
Y042595D01*
X031152Y052913D02*
X031211D01*
X031181Y052884D02*
Y052943D01*
X031490Y053150D02*
X031550D01*
X031520Y053120D02*
Y053180D01*
X031090Y052540D02*
X031150D01*
X031120Y052510D02*
Y052570D01*
X039104Y016614D02*
X039163D01*
X039134Y016585D02*
Y016644D01*
X040679Y048189D02*
X040738D01*
X040709Y048159D02*
Y048218D01*
X039459Y046496D02*
X039518D01*
X039488Y046467D02*
Y046526D01*
X052766Y023504D02*
X052825D01*
X052795Y023474D02*
Y023533D01*
X052805Y024173D02*
X052864D01*
X052835Y024144D02*
Y024203D01*
X051451Y024339D02*
X051510D01*
X051481Y024310D02*
Y024369D01*
X051900Y024843D02*
X051959D01*
X051929Y024813D02*
Y024872D01*
X050561Y025236D02*
X050620D01*
X050591Y025207D02*
Y025266D01*
X050993Y025713D02*
X051052D01*
X051023Y025683D02*
Y025742D01*
X049459Y025551D02*
X049518D01*
X049488Y025522D02*
Y025581D01*
X049459Y026220D02*
X049518D01*
X049488Y026191D02*
Y026250D01*
X048120Y025591D02*
X048179D01*
X048150Y025561D02*
Y025620D01*
X048120Y026220D02*
X048179D01*
X048150Y026191D02*
Y026250D01*
X046860Y025551D02*
X046919D01*
X046890Y025522D02*
Y025581D01*
X046860Y026220D02*
X046919D01*
X046890Y026191D02*
Y026250D01*
X044695Y025591D02*
X044754D01*
X044724Y025561D02*
Y025620D01*
X044695Y026220D02*
X044754D01*
X044724Y026191D02*
Y026250D01*
X043396Y025551D02*
X043455D01*
X043425Y025522D02*
Y025581D01*
X043396Y026220D02*
X043455D01*
X043425Y026191D02*
Y026250D01*
X042254Y025551D02*
X042313D01*
X042283Y025522D02*
Y025581D01*
X042254Y026220D02*
X042313D01*
X042283Y026191D02*
Y026250D01*
X041033Y025551D02*
X041093D01*
X041063Y025522D02*
Y025581D01*
X041033Y026220D02*
X041093D01*
X041063Y026191D02*
Y026250D01*
X039852Y026299D02*
X039911D01*
X039882Y026270D02*
Y026329D01*
X040285Y026811D02*
X040344D01*
X040315Y026781D02*
Y026841D01*
X039065Y027047D02*
X039124D01*
X039094Y027018D02*
Y027077D01*
X039547Y027503D02*
X039606D01*
X039576Y027473D02*
Y027532D01*
X038199Y027913D02*
X038258D01*
X038228Y027884D02*
Y027943D01*
X038671Y028386D02*
X038730D01*
X038701Y028356D02*
Y028415D01*
X037333Y028701D02*
X037392D01*
X037362Y028671D02*
Y028730D01*
X037732Y029286D02*
X037791D01*
X037762Y029256D02*
Y029315D01*
X036388Y029961D02*
X036447D01*
X036417Y029931D02*
Y029990D01*
X037175Y029961D02*
X037234D01*
X037205Y029931D02*
Y029990D01*
X036427Y031102D02*
X036486D01*
X036457Y031073D02*
Y031132D01*
X036467Y032559D02*
X036526D01*
X036496Y032530D02*
Y032589D01*
X036467Y033661D02*
X036526D01*
X036496Y033632D02*
Y033691D01*
X036467Y034764D02*
X036526D01*
X036496Y034734D02*
Y034793D01*
X036467Y035787D02*
X036526D01*
X036496Y035758D02*
Y035817D01*
X037096Y036890D02*
X037156D01*
X037126Y036860D02*
Y036919D01*
X037648Y037480D02*
X037707D01*
X037677Y037451D02*
Y037510D01*
X037726Y037913D02*
X037785D01*
X037756Y037884D02*
Y037943D01*
X037704Y039093D02*
X037763D01*
X037734Y039064D02*
Y039123D01*
X037742Y040410D02*
X037801D01*
X037772Y040380D02*
Y040439D01*
X037712Y041364D02*
X037771D01*
X037741Y041334D02*
Y041393D01*
X037727Y042273D02*
X037786D01*
X037756Y042243D02*
Y042302D01*
X037670Y043054D02*
X037729D01*
X037700Y043024D02*
Y043083D01*
X037267Y043480D02*
X037326D01*
X037296Y043450D02*
Y043509D01*
X036697Y044098D02*
X036756D01*
X036727Y044069D02*
Y044128D01*
X035915Y044843D02*
X035974D01*
X035945Y044813D02*
Y044872D01*
X038435Y030118D02*
X038494D01*
X038465Y030089D02*
Y030148D01*
X039813Y029291D02*
X039872D01*
X039843Y029262D02*
Y029321D01*
X041191Y029291D02*
X041250D01*
X041220Y029262D02*
Y029321D01*
X042333Y029291D02*
X042392D01*
X042362Y029262D02*
Y029321D01*
X043593Y029291D02*
X043652D01*
X043622Y029262D02*
Y029321D01*
X044695Y029291D02*
X044754D01*
X044724Y029262D02*
Y029321D01*
X046860Y029291D02*
X046919D01*
X046890Y029262D02*
Y029321D01*
X047844Y029291D02*
X047904D01*
X047874Y029262D02*
Y029321D01*
X049301Y029291D02*
X049360D01*
X049331Y029262D02*
Y029321D01*
X050876Y029528D02*
X050935D01*
X050906Y029498D02*
Y029557D01*
X052506Y031217D02*
X052565D01*
X052535Y031188D02*
Y031247D01*
X051934Y030575D02*
X051993D01*
X051963Y030545D02*
Y030604D01*
X052948Y031422D02*
X053007D01*
X052977Y031392D02*
Y031451D01*
X052923Y032047D02*
X052982D01*
X052953Y032018D02*
Y032077D01*
X052242Y031786D02*
X052301D01*
X052271Y031756D02*
Y031815D01*
X051414Y030957D02*
X051473D01*
X051443Y030928D02*
Y030987D01*
X050407Y029970D02*
X050466D01*
X050437Y029940D02*
Y029999D01*
X049301Y029921D02*
X049360D01*
X049331Y029892D02*
Y029951D01*
X047844Y029921D02*
X047904D01*
X047874Y029892D02*
Y029951D01*
X046860Y029921D02*
X046919D01*
X046890Y029892D02*
Y029951D01*
X044676Y029915D02*
X044735D01*
X044706Y029886D02*
Y029945D01*
X043597Y029912D02*
X043656D01*
X043626Y029882D02*
Y029941D01*
X042331Y029919D02*
X042390D01*
X042361Y029890D02*
Y029949D01*
X041191Y029921D02*
X041250D01*
X041220Y029892D02*
Y029951D01*
X039819Y029941D02*
X039878D01*
X039848Y029911D02*
Y029970D01*
X038956Y030595D02*
X039015D01*
X038985Y030566D02*
Y030625D01*
X037977Y031548D02*
X038037D01*
X038007Y031519D02*
Y031578D01*
X037817Y032523D02*
X037876D01*
X037847Y032494D02*
Y032553D01*
X037844Y033661D02*
X037904D01*
X037874Y033632D02*
Y033691D01*
X037884Y034764D02*
X037943D01*
X037913Y034734D02*
Y034793D01*
X038488Y035832D02*
X038547D01*
X038518Y035803D02*
Y035862D01*
X038986Y037087D02*
X039045D01*
X039016Y037057D02*
Y037116D01*
X038989Y037883D02*
X039048D01*
X039019Y037854D02*
Y037913D01*
X038986Y039055D02*
X039045D01*
X039016Y039026D02*
Y039085D01*
X038969Y040413D02*
X039028D01*
X038999Y040384D02*
Y040443D01*
X038993Y041353D02*
X039052D01*
X039023Y041323D02*
Y041383D01*
X038969Y042215D02*
X039028D01*
X038998Y042186D02*
Y042245D01*
X038664Y044273D02*
X038723D01*
X038694Y044243D02*
Y044302D01*
X037175Y031074D02*
X037234D01*
X037204Y031044D02*
Y031103D01*
X037147Y032554D02*
X037206D01*
X037177Y032524D02*
Y032583D01*
X037167Y033643D02*
X037226D01*
X037196Y033614D02*
Y033673D01*
X037152Y034767D02*
X037211D01*
X037182Y034738D02*
Y034797D01*
X037204Y035737D02*
X037263D01*
X037233Y035707D02*
Y035766D01*
X037705Y036374D02*
X037764D01*
X037734Y036344D02*
Y036403D01*
X038247Y037047D02*
X038306D01*
X038276Y037017D02*
Y037076D01*
X038364Y037878D02*
X038423D01*
X038393Y037848D02*
Y037907D01*
X038360Y039052D02*
X038419D01*
X038389Y039023D02*
Y039082D01*
X038349Y040399D02*
X038408D01*
X038379Y040369D02*
Y040428D01*
X038364Y041339D02*
X038423D01*
X038393Y041310D02*
Y041369D01*
X038349Y042214D02*
X038408D01*
X038379Y042184D02*
Y042243D01*
X038344Y042968D02*
X038403D01*
X038373Y042938D02*
Y042997D01*
X038201Y043504D02*
X038260D01*
X038231Y043475D02*
Y043534D01*
X037726Y043980D02*
X037785D01*
X037755Y043950D02*
Y044009D01*
X037216Y044496D02*
X037275D01*
X037246Y044467D02*
Y044526D01*
X036779Y044941D02*
X036838D01*
X036808Y044911D02*
Y044970D01*
X036351Y045342D02*
X036410D01*
X036381Y045313D02*
Y045372D01*
X045552Y050771D02*
X045611D01*
X045581Y050741D02*
Y050800D01*
X036270Y052008D02*
X036329D01*
X036299Y051978D02*
Y052037D01*
X033514Y050591D02*
X033573D01*
X033543Y050561D02*
Y050620D01*
X033041Y050591D02*
X033100D01*
X033071Y050561D02*
Y050620D01*
X035325Y022023D02*
X035384D01*
X035354Y021993D02*
Y022052D01*
X035325Y021693D02*
X035384D01*
X035354Y021663D02*
Y021722D01*
X035027Y022028D02*
X035086D01*
X035056Y021998D02*
Y022057D01*
X035027Y021698D02*
X035086D01*
X035056Y021668D02*
Y021727D01*
X034734Y022023D02*
X034793D01*
X034764Y021993D02*
Y022052D01*
X034734Y021693D02*
X034793D01*
X034764Y021663D02*
Y021722D01*
X034459Y022023D02*
X034518D01*
X034488Y021993D02*
Y022052D01*
X034459Y021693D02*
X034518D01*
X034488Y021663D02*
Y021722D01*
X020020Y042310D02*
X020080D01*
X020050Y042280D02*
Y042340D01*
X017360Y043410D02*
X017420D01*
X017390Y043380D02*
Y043440D01*
X031990Y052090D02*
X032050D01*
X032020Y052060D02*
Y052120D01*
X048500Y042440D02*
X048560D01*
X048530Y042410D02*
Y042470D01*
X048680Y040862D02*
X048740D01*
X048710Y040832D02*
Y040891D01*
X048680Y041654D02*
X048740D01*
X048710Y041625D02*
Y041684D01*
X048680Y041126D02*
X048740D01*
X048710Y041096D02*
Y041155D01*
X048680Y041390D02*
X048740D01*
X048710Y041361D02*
Y041420D01*
X049080Y040862D02*
X049140D01*
X049110Y040832D02*
Y040891D01*
X049080Y041126D02*
X049140D01*
X049110Y041096D02*
Y041155D01*
X049080Y041654D02*
X049140D01*
X049110Y041625D02*
Y041684D01*
X049080Y041390D02*
X049140D01*
X049110Y041361D02*
Y041420D01*
X027954Y043205D02*
X028013D01*
X027983Y043176D02*
Y043235D01*
X027684Y043205D02*
X027743D01*
X027713Y043176D02*
Y043235D01*
X027954Y043455D02*
X028013D01*
X027983Y043426D02*
Y043485D01*
X027684Y043455D02*
X027743D01*
X027713Y043426D02*
Y043485D01*
X027684Y043705D02*
X027743D01*
X027713Y043676D02*
Y043735D01*
X027954Y043705D02*
X028013D01*
X027983Y043676D02*
Y043735D01*
X027300Y043200D02*
X027360D01*
X027330Y043170D02*
Y043230D01*
X027030Y043200D02*
X027090D01*
X027060Y043170D02*
Y043230D01*
X027300Y043450D02*
X027360D01*
X027330Y043420D02*
Y043480D01*
X027030Y043450D02*
X027090D01*
X027060Y043420D02*
Y043480D01*
X027030Y043700D02*
X027090D01*
X027060Y043670D02*
Y043730D01*
X027300Y043700D02*
X027360D01*
X027330Y043670D02*
Y043730D01*
X041193Y040076D02*
X041252D01*
X041222Y040046D02*
Y040105D01*
X041193Y039366D02*
X041252D01*
X041222Y039336D02*
Y039395D01*
X032700Y036320D02*
X032760D01*
X032730Y036290D02*
Y036350D01*
X032700Y036000D02*
X032760D01*
X032730Y035970D02*
Y036030D01*
X032430Y036320D02*
X032490D01*
X032460Y036290D02*
Y036350D01*
X032430Y036000D02*
X032490D01*
X032460Y035970D02*
Y036030D01*
X032170Y036310D02*
X032230D01*
X032200Y036280D02*
Y036340D01*
X032170Y035990D02*
X032230D01*
X032200Y035960D02*
Y036020D01*
X045242Y050211D02*
X045301D01*
X045271Y050181D02*
Y050240D01*
X045232Y050501D02*
X045291D01*
X045261Y050471D02*
Y050530D01*
X045562Y049971D02*
X045621D01*
X045591Y049941D02*
Y050000D01*
X044073Y037556D02*
X044132D01*
X044102Y037526D02*
Y037585D01*
X042043Y037876D02*
X042102D01*
X042072Y037846D02*
Y037905D01*
X040990Y038000D02*
X041050D01*
X041020Y037970D02*
Y038030D01*
X044712Y039266D02*
X044992D01*
X044852Y039126D02*
Y039406D01*
X042470Y040800D02*
X042530D01*
X042500Y040770D02*
Y040830D01*
X046563Y040616D02*
X046622D01*
X046592Y040586D02*
Y040645D01*
X047013Y040606D02*
X047072D01*
X047042Y040576D02*
Y040635D01*
X047243Y040846D02*
X047302D01*
X047272Y040816D02*
Y040875D01*
X046563Y041076D02*
X046622D01*
X046592Y041046D02*
Y041105D01*
X045503Y042036D02*
X045562D01*
X045532Y042006D02*
Y042065D01*
X046793Y041076D02*
X046852D01*
X046822Y041046D02*
Y041105D01*
X046563Y040386D02*
X046622D01*
X046592Y040356D02*
Y040415D01*
X046243Y042046D02*
X046302D01*
X046272Y042016D02*
Y042075D01*
X046793Y040386D02*
X046852D01*
X046822Y040356D02*
Y040415D01*
X047013Y041076D02*
X047072D01*
X047042Y041046D02*
Y041105D01*
X046793Y040846D02*
X046852D01*
X046822Y040816D02*
Y040875D01*
X047013Y040376D02*
X047072D01*
X047042Y040346D02*
Y040405D01*
X047243Y040606D02*
X047302D01*
X047272Y040576D02*
Y040635D01*
X047243Y041076D02*
X047302D01*
X047272Y041046D02*
Y041105D01*
X046563Y040846D02*
X046622D01*
X046592Y040816D02*
Y040875D01*
X047243Y040376D02*
X047302D01*
X047272Y040346D02*
Y040405D01*
X046793Y040616D02*
X046852D01*
X046822Y040586D02*
Y040645D01*
X047013Y040846D02*
X047072D01*
X047042Y040816D02*
Y040875D01*
X046390Y042700D02*
X046450D01*
X046420Y042670D02*
Y042730D01*
X046830Y048110D02*
X046890D01*
X046860Y048080D02*
Y048140D01*
X046840Y047700D02*
X046900D01*
X046870Y047670D02*
Y047730D01*
X048110Y048520D02*
X048170D01*
X048140Y048490D02*
Y048550D01*
X048425Y048578D02*
X048484D01*
X048455Y048549D02*
Y048608D01*
X047498Y046140D02*
X047557D01*
X047528Y046110D02*
Y046170D01*
X048258Y046158D02*
X048317D01*
X048288Y046128D02*
Y046187D01*
X048750Y046910D02*
X048810D01*
X048780Y046880D02*
Y046940D01*
X047490Y045710D02*
X047550D01*
X047520Y045680D02*
Y045740D01*
X047490Y046660D02*
X047550D01*
X047520Y046630D02*
Y046690D01*
X048020Y045710D02*
X048080D01*
X048050Y045680D02*
Y045740D01*
X048266Y045430D02*
X048325D01*
X048295Y045400D02*
Y045460D01*
X048790Y045420D02*
X048850D01*
X048820Y045390D02*
Y045450D01*
X049830Y047630D02*
X049890D01*
X049860Y047600D02*
Y047660D01*
X049625Y048018D02*
X049684D01*
X049655Y047989D02*
Y048048D01*
X049830Y045990D02*
X049890D01*
X049860Y045960D02*
Y046020D01*
X048800Y045950D02*
X048860D01*
X048830Y045920D02*
Y045980D01*
X050000Y044070D02*
X050060D01*
X050030Y044040D02*
Y044100D01*
X047940Y043040D02*
X048000D01*
X047970Y043010D02*
Y043070D01*
X047300Y043360D02*
X047360D01*
X047330Y043330D02*
Y043390D01*
X049990Y043470D02*
X050050D01*
X050020Y043440D02*
Y043500D01*
X048130Y043560D02*
X048190D01*
X048160Y043530D02*
Y043590D01*
X048530Y043570D02*
X048590D01*
X048560Y043540D02*
Y043600D01*
X049670Y042920D02*
X049730D01*
X049700Y042890D02*
Y042950D01*
X048003Y044521D02*
X048062D01*
X048032Y044492D02*
Y044551D01*
X047631Y044520D02*
X047690D01*
X047660Y044490D02*
Y044549D01*
X049130Y044790D02*
X049190D01*
X049160Y044760D02*
Y044820D01*
X034040Y044770D02*
X034100D01*
X034070Y044740D02*
Y044800D01*
X029220Y046930D02*
X029280D01*
X029250Y046900D02*
Y046960D01*
X029240Y047320D02*
X029300D01*
X029270Y047290D02*
Y047350D01*
X029240Y046550D02*
X029300D01*
X029270Y046520D02*
Y046580D01*
X029250Y047720D02*
X029310D01*
X029280Y047690D02*
Y047750D01*
X037389Y039558D02*
X037448D01*
X037419Y039529D02*
Y039588D01*
X028121Y020312D02*
X028180D01*
X028150Y020282D02*
Y020341D01*
X029290Y019840D02*
X029350D01*
X029320Y019810D02*
Y019870D01*
X030503Y018984D02*
X030562D01*
X030533Y018955D02*
Y019014D01*
X032090Y018900D02*
X032150D01*
X032120Y018870D02*
Y018930D01*
X033720Y018870D02*
X033780D01*
X033750Y018840D02*
Y018900D01*
X016250Y040130D02*
X016310D01*
X016280Y040100D02*
Y040160D01*
X029210Y049950D02*
X029270D01*
X029240Y049920D02*
Y049980D01*
X029050Y052070D02*
X029110D01*
X029080Y052040D02*
Y052100D01*
X034910Y052370D02*
X034970D01*
X034940Y052340D02*
Y052400D01*
X034970Y052770D02*
X035030D01*
X035000Y052740D02*
Y052800D01*
X036250Y050700D02*
X036310D01*
X036280Y050670D02*
Y050730D01*
X033250Y048070D02*
X033310D01*
X033280Y048040D02*
Y048100D01*
X034605Y046589D02*
X034664D01*
X034635Y046559D02*
Y046618D01*
X035956Y046741D02*
X036015D01*
X035986Y046712D02*
Y046771D01*
X025540Y021550D02*
X025600D01*
X025570Y021520D02*
Y021580D01*
X025290Y021550D02*
X025350D01*
X025320Y021520D02*
Y021580D01*
X025540Y021890D02*
X025600D01*
X025570Y021860D02*
Y021920D01*
X025290Y021890D02*
X025350D01*
X025320Y021860D02*
Y021920D01*
X025540Y022200D02*
X025600D01*
X025570Y022170D02*
Y022230D01*
X025290Y022200D02*
X025350D01*
X025320Y022170D02*
Y022230D01*
X025540Y022500D02*
X025600D01*
X025570Y022470D02*
Y022530D01*
X025290Y022500D02*
X025350D01*
X025320Y022470D02*
Y022530D01*
X025530Y022820D02*
X025590D01*
X025560Y022790D02*
Y022850D01*
X025280Y022820D02*
X025340D01*
X025310Y022790D02*
Y022850D01*
X025530Y023130D02*
X025590D01*
X025560Y023100D02*
Y023160D01*
X025280Y023130D02*
X025340D01*
X025310Y023100D02*
Y023160D01*
X025520Y023460D02*
X025580D01*
X025550Y023430D02*
Y023490D01*
X025270Y023460D02*
X025330D01*
X025300Y023430D02*
Y023490D01*
X025530Y023790D02*
X025590D01*
X025560Y023760D02*
Y023820D01*
X025280Y023790D02*
X025340D01*
X025310Y023760D02*
Y023820D01*
X042290Y016980D02*
X042350D01*
X042320Y016950D02*
Y017010D01*
X041490Y016990D02*
X041550D01*
X041520Y016960D02*
Y017020D01*
X042270Y019360D02*
X042330D01*
X042300Y019330D02*
Y019390D01*
X022309Y020990D02*
X022368D01*
X022339Y020961D02*
Y021020D01*
X022280Y021400D02*
X022340D01*
X022310Y021370D02*
Y021430D01*
X022287Y021834D02*
X022346D01*
X022317Y021804D02*
Y021863D01*
X022290Y022240D02*
X022350D01*
X022320Y022210D02*
Y022270D01*
X022840Y022250D02*
X022900D01*
X022870Y022220D02*
Y022280D01*
X023170Y022600D02*
X023230D01*
X023200Y022570D02*
Y022630D01*
X023170Y023000D02*
X023230D01*
X023200Y022970D02*
Y023030D01*
X023170Y023400D02*
X023230D01*
X023200Y023370D02*
Y023430D01*
X023170Y023800D02*
X023230D01*
X023200Y023770D02*
Y023830D01*
X023830Y021000D02*
X023890D01*
X023860Y020970D02*
Y021030D01*
X024170Y021000D02*
X024230D01*
X024200Y020970D02*
Y021030D01*
X024170Y021400D02*
X024230D01*
X024200Y021370D02*
Y021430D01*
X024170Y021800D02*
X024230D01*
X024200Y021770D02*
Y021830D01*
X024170Y022200D02*
X024230D01*
X024200Y022170D02*
Y022230D01*
X024170Y022600D02*
X024230D01*
X024200Y022570D02*
Y022630D01*
X024170Y023000D02*
X024230D01*
X024200Y022970D02*
Y023030D01*
X024170Y023400D02*
X024230D01*
X024200Y023370D02*
Y023430D01*
X024170Y023800D02*
X024230D01*
X024200Y023770D02*
Y023830D01*
X023930Y019060D02*
X023990D01*
X023960Y019030D02*
Y019090D01*
X024224Y019090D02*
X024283D01*
X024253Y019061D02*
Y019120D01*
X022843Y020692D02*
X022902D01*
X022873Y020663D02*
Y020722D01*
X022610Y020980D02*
X022670D01*
X022640Y020950D02*
Y021010D01*
X022900Y020960D02*
X022960D01*
X022930Y020930D02*
Y020990D01*
X023218Y020953D02*
X023277D01*
X023248Y020923D02*
Y020982D01*
X023550Y020970D02*
X023610D01*
X023580Y020940D02*
Y021000D01*
X023768Y018093D02*
X023827D01*
X023797Y018063D02*
Y018122D01*
X022234Y019053D02*
X022293D01*
X022263Y019024D02*
Y019083D01*
X023435Y018325D02*
X023494D01*
X023465Y018295D02*
Y018354D01*
X023360Y019053D02*
X023419D01*
X023389Y019024D02*
Y019083D01*
X028413Y040830D02*
X028472D01*
X028442Y040801D02*
Y040860D01*
X028853Y040858D02*
X028912D01*
X028883Y040828D02*
Y040887D01*
X029224Y041307D02*
X029283D01*
X029254Y041277D02*
Y041337D01*
X029100Y041693D02*
X029159D01*
X029130Y041664D02*
Y041723D01*
X028699Y041669D02*
X028758D01*
X028729Y041639D02*
Y041699D01*
X028280Y041670D02*
X028340D01*
X028310Y041640D02*
Y041700D01*
X024212Y041298D02*
X024272D01*
X024242Y041269D02*
Y041328D01*
X023821Y041094D02*
X023880D01*
X023851Y041065D02*
Y041124D01*
X036276Y044309D02*
X036335D01*
X036306Y044279D02*
Y044338D01*
X049530Y048745D02*
X049590D01*
X049560Y048716D02*
Y048775D01*
X043160Y044690D02*
X043220D01*
X043190Y044660D02*
Y044720D01*
X044500Y043450D02*
X044560D01*
X044530Y043420D02*
Y043480D01*
X040020Y019370D02*
X040080D01*
X040050Y019340D02*
Y019400D01*
X040770Y019380D02*
X040830D01*
X040800Y019350D02*
Y019410D01*
X029130Y048810D02*
X029190D01*
X029160Y048780D02*
Y048840D01*
X028391Y043721D02*
X028450D01*
X028421Y043691D02*
Y043750D01*
X028610Y049072D02*
X028669D01*
X028640Y049042D02*
Y049102D01*
X028380Y047240D02*
X028440D01*
X028410Y047210D02*
Y047270D01*
X044160Y042700D02*
X044220D01*
X044190Y042670D02*
Y042730D01*
X047360Y042400D02*
X047420D01*
X047390Y042370D02*
Y042430D01*
X045360Y042736D02*
X045419D01*
X045389Y042706D02*
Y042765D01*
X041610Y045290D02*
X041670D01*
X041640Y045260D02*
Y045320D01*
X040640Y045270D02*
X040700D01*
X040670Y045240D02*
Y045300D01*
X039670Y045310D02*
X039730D01*
X039700Y045280D02*
Y045340D01*
X039070Y045890D02*
X039130D01*
X039100Y045860D02*
Y045920D01*
X038290Y046070D02*
X038350D01*
X038320Y046040D02*
Y046100D01*
X038396Y046850D02*
X038455D01*
X038425Y046821D02*
Y046880D01*
X037730Y046870D02*
X037790D01*
X037760Y046840D02*
Y046900D01*
X046040Y043430D02*
X046100D01*
X046070Y043400D02*
Y043460D01*
X044500Y044400D02*
X044560D01*
X044530Y044370D02*
Y044430D01*
X043790Y045146D02*
X043849D01*
X043819Y045116D02*
Y045175D01*
X042750Y045900D02*
X042810D01*
X042780Y045870D02*
Y045930D01*
X041920Y045920D02*
X041980D01*
X041950Y045890D02*
Y045950D01*
X041132Y045896D02*
X041191D01*
X041161Y045867D02*
Y045926D01*
X040200Y045880D02*
X040260D01*
X040230Y045850D02*
Y045910D01*
X030500Y052332D02*
X030560D01*
X030530Y052302D02*
Y052361D01*
X028430Y052175D02*
X028490D01*
X028460Y052145D02*
Y052205D01*
X037060Y045830D02*
X037120D01*
X037090Y045800D02*
Y045860D01*
X033710Y042800D02*
X033769D01*
X033740Y042771D02*
Y042830D01*
X029457Y045858D02*
X029516D01*
X029486Y045828D02*
Y045887D01*
X030230Y046260D02*
X030290D01*
X030260Y046230D02*
Y046290D01*
X034590Y050510D02*
X034650D01*
X034620Y050480D02*
Y050540D01*
X035210Y050210D02*
X035270D01*
X035240Y050180D02*
Y050240D01*
X032068Y043020D02*
X032127D01*
X032097Y042990D02*
Y043050D01*
X032666Y042995D02*
X032725D01*
X032695Y042966D02*
Y043025D01*
X035612Y042441D02*
X035671D01*
X035641Y042412D02*
Y042471D01*
X032708Y043840D02*
X032767D01*
X032737Y043810D02*
Y043870D01*
X033620Y048440D02*
X033680D01*
X033650Y048410D02*
Y048470D01*
X033960Y048670D02*
X034020D01*
X033990Y048640D02*
Y048700D01*
X034670Y049960D02*
X034730D01*
X034700Y049930D02*
Y049990D01*
X034300Y049630D02*
X034360D01*
X034330Y049600D02*
Y049660D01*
X035870Y049240D02*
X035930D01*
X035900Y049210D02*
Y049270D01*
X029870Y049270D02*
X029930D01*
X029900Y049240D02*
Y049300D01*
X035570Y049452D02*
X035630D01*
X035600Y049422D02*
Y049481D01*
X029610Y049500D02*
X029670D01*
X029640Y049470D02*
Y049530D01*
X027810Y049866D02*
X027870D01*
X027840Y049836D02*
Y049896D01*
X028651Y049900D02*
X028710D01*
X028680Y049871D02*
Y049930D01*
X031100Y052180D02*
X031160D01*
X031130Y052150D02*
Y052210D01*
X035870Y052100D02*
X035930D01*
X035900Y052070D02*
Y052130D01*
X029854Y045867D02*
X029913D01*
X029883Y045837D02*
Y045896D01*
X028680Y050697D02*
X028740D01*
X028710Y050668D02*
Y050727D01*
X028636Y051094D02*
X028696D01*
X028666Y051064D02*
Y051124D01*
X027870Y051390D02*
X027930D01*
X027900Y051360D02*
Y051420D01*
X031536Y051907D02*
X031595D01*
X031566Y051877D02*
Y051936D01*
X037740Y051050D02*
X037800D01*
X037770Y051020D02*
Y051080D01*
X037410Y051040D02*
X037470D01*
X037440Y051010D02*
Y051070D01*
X037187Y050556D02*
X037246D01*
X037216Y050526D02*
Y050585D01*
X037740Y045950D02*
X037800D01*
X037770Y045920D02*
Y045980D01*
X037370Y045990D02*
X037430D01*
X037400Y045960D02*
Y046020D01*
X033100Y045820D02*
X033160D01*
X033130Y045790D02*
Y045850D01*
X032560Y044280D02*
X032620D01*
X032590Y044250D02*
Y044310D01*
X032570Y044630D02*
X032630D01*
X032600Y044600D02*
Y044660D01*
X024560Y048950D02*
X024620D01*
X024590Y048920D02*
Y048980D01*
X023700Y049100D02*
X023760D01*
X023730Y049070D02*
Y049130D01*
X043233Y038616D02*
X043292D01*
X043262Y038586D02*
Y038645D01*
X043463Y037586D02*
X043522D01*
X043492Y037556D02*
Y037615D01*
X042600Y049010D02*
X042660D01*
X042630Y048980D02*
Y049040D01*
X036824Y040489D02*
X036883D01*
X036854Y040460D02*
Y040519D01*
X036844Y039439D02*
X036903D01*
X036874Y039410D02*
Y039469D01*
X025420Y053010D02*
X025480D01*
X025450Y052980D02*
Y053040D01*
X025670Y053260D02*
X025730D01*
X025700Y053230D02*
Y053290D01*
X026670Y052030D02*
X026730D01*
X026700Y052000D02*
Y052060D01*
X025510Y051710D02*
X025570D01*
X025540Y051680D02*
Y051740D01*
X025024Y051680D02*
X025083D01*
X025053Y051650D02*
Y051710D01*
X026540Y051091D02*
X026599D01*
X026569Y051061D02*
Y051120D01*
X026120Y051060D02*
X026180D01*
X026150Y051030D02*
Y051090D01*
X036750Y042660D02*
X036809D01*
X036780Y042631D02*
Y042690D01*
X036740Y042990D02*
X036799D01*
X036770Y042961D02*
Y043020D01*
X034843Y044057D02*
X034902D01*
X034873Y044028D02*
Y044087D01*
X047672Y041424D02*
X047731D01*
X047701Y041395D02*
Y041454D01*
X026129Y049556D02*
X026259D01*
X026194Y049491D02*
Y049621D01*
X026129Y050028D02*
X026259D01*
X026194Y049963D02*
Y050093D01*
X026601Y049556D02*
X026731D01*
X026666Y049491D02*
Y049621D01*
X026601Y050028D02*
X026731D01*
X026666Y049963D02*
Y050093D01*
X026365Y049792D02*
X026495D01*
X026430Y049727D02*
Y049857D01*
X042973Y041746D02*
X043032D01*
X043002Y041716D02*
Y041775D01*
X043353Y041756D02*
X043412D01*
X043382Y041726D02*
Y041785D01*
X034748Y042840D02*
X034807D01*
X034777Y042811D02*
Y042870D01*
X026900Y050890D02*
X026960D01*
X026930Y050860D02*
Y050920D01*
X026310Y050830D02*
X026370D01*
X026340Y050800D02*
Y050860D01*
X042403Y041576D02*
X042462D01*
X042432Y041546D02*
Y041605D01*
X042393Y041956D02*
X042452D01*
X042422Y041926D02*
Y041985D01*
X042153Y040966D02*
X042212D01*
X042182Y040936D02*
Y040995D01*
X041423Y039616D02*
X041482D01*
X041452Y039586D02*
Y039645D01*
X041423Y039366D02*
X041482D01*
X041452Y039336D02*
Y039395D01*
X041643Y039366D02*
X041702D01*
X041672Y039336D02*
Y039395D01*
X040243Y041556D02*
X040302D01*
X040272Y041526D02*
Y041585D01*
X040013Y041556D02*
X040072D01*
X040042Y041526D02*
Y041585D01*
X039783Y041556D02*
X039842D01*
X039812Y041526D02*
Y041585D01*
X039533Y041556D02*
X039592D01*
X039562Y041526D02*
Y041585D01*
X040243Y041236D02*
X040302D01*
X040272Y041206D02*
Y041265D01*
X040013Y041236D02*
X040072D01*
X040042Y041206D02*
Y041265D01*
X039783Y041236D02*
X039842D01*
X039812Y041206D02*
Y041265D01*
X039533Y041236D02*
X039592D01*
X039562Y041206D02*
Y041265D01*
X040243Y042206D02*
X040302D01*
X040272Y042176D02*
Y042235D01*
X040013Y042206D02*
X040072D01*
X040042Y042176D02*
Y042235D01*
X039783Y042206D02*
X039842D01*
X039812Y042176D02*
Y042235D01*
X040243Y041886D02*
X040302D01*
X040272Y041856D02*
Y041915D01*
X040013Y041886D02*
X040072D01*
X040042Y041856D02*
Y041915D01*
X039783Y041886D02*
X039842D01*
X039812Y041856D02*
Y041915D01*
X039533Y041886D02*
X039592D01*
X039562Y041856D02*
Y041915D01*
X027960Y027860D02*
X028020D01*
X027990Y027830D02*
Y027890D01*
X027960Y027630D02*
X028020D01*
X027990Y027600D02*
Y027660D01*
X027960Y027400D02*
X028020D01*
X027990Y027370D02*
Y027430D01*
X027960Y027150D02*
X028020D01*
X027990Y027120D02*
Y027180D01*
X028280Y027860D02*
X028340D01*
X028310Y027830D02*
Y027890D01*
X028280Y027630D02*
X028340D01*
X028310Y027600D02*
Y027660D01*
X028280Y027400D02*
X028340D01*
X028310Y027370D02*
Y027430D01*
X028280Y027150D02*
X028340D01*
X028310Y027120D02*
Y027180D01*
X028560Y027860D02*
X028620D01*
X028590Y027830D02*
Y027890D01*
X028560Y027630D02*
X028620D01*
X028590Y027600D02*
Y027660D01*
X028560Y027400D02*
X028620D01*
X028590Y027370D02*
Y027430D01*
X028560Y027150D02*
X028620D01*
X028590Y027120D02*
Y027180D01*
X028880Y027860D02*
X028940D01*
X028910Y027830D02*
Y027890D01*
X028880Y027630D02*
X028940D01*
X028910Y027600D02*
Y027660D01*
X028880Y027400D02*
X028940D01*
X028910Y027370D02*
Y027430D01*
X028880Y027150D02*
X028940D01*
X028910Y027120D02*
Y027180D01*
X037200Y017760D02*
X037260D01*
X037230Y017730D02*
Y017790D01*
X036920Y017750D02*
X036980D01*
X036950Y017720D02*
Y017780D01*
X036660Y017760D02*
X036720D01*
X036690Y017730D02*
Y017790D01*
X036410Y017750D02*
X036470D01*
X036440Y017720D02*
Y017780D01*
X033250Y016740D02*
X033310D01*
X033280Y016710D02*
Y016770D01*
X033580Y016760D02*
X033640D01*
X033610Y016730D02*
Y016790D01*
X031975Y016915D02*
X032034D01*
X032005Y016886D02*
Y016945D01*
X031146Y016945D02*
X031205D01*
X031175Y016915D02*
Y016974D01*
X041643Y039616D02*
X041702D01*
X041672Y039586D02*
Y039645D01*
X041643Y039846D02*
X041702D01*
X041672Y039816D02*
Y039875D01*
X041643Y040076D02*
X041702D01*
X041672Y040046D02*
Y040105D01*
X041423Y039846D02*
X041482D01*
X041452Y039816D02*
Y039875D01*
X041423Y040076D02*
X041482D01*
X041452Y040046D02*
Y040105D01*
X041193Y039616D02*
X041252D01*
X041222Y039586D02*
Y039645D01*
X041193Y039846D02*
X041252D01*
X041222Y039816D02*
Y039875D01*
X026870Y045030D02*
X026930D01*
X026900Y045000D02*
Y045060D01*
X027120Y045030D02*
X027180D01*
X027150Y045000D02*
Y045060D01*
X027350Y045030D02*
X027410D01*
X027380Y045000D02*
Y045060D01*
X027580Y045030D02*
X027640D01*
X027610Y045000D02*
Y045060D01*
X027590Y045390D02*
X027650D01*
X027620Y045360D02*
Y045420D01*
X027360Y045390D02*
X027420D01*
X027390Y045360D02*
Y045420D01*
X027130Y045390D02*
X027190D01*
X027160Y045360D02*
Y045420D01*
X026880Y045390D02*
X026940D01*
X026910Y045360D02*
Y045420D01*
X027230Y046150D02*
X027290D01*
X027260Y046120D02*
Y046180D01*
X028170Y046100D02*
X028230D01*
X028200Y046070D02*
Y046130D01*
X026220Y044060D02*
X026280D01*
X026250Y044030D02*
Y044090D01*
X027496Y052015D02*
X027555D01*
X027525Y051985D02*
Y052044D01*
X027096Y052005D02*
X027155D01*
X027125Y051976D02*
Y052035D01*
X024150Y046050D02*
X024210D01*
X024180Y046020D02*
Y046080D01*
X024150Y047030D02*
X024210D01*
X024180Y047000D02*
Y047060D01*
X023530Y052640D02*
X023590D01*
X023560Y052610D02*
Y052670D01*
X024604Y052644D02*
X024664D01*
X024634Y052614D02*
Y052674D01*
X024616Y053044D02*
X024676D01*
X024646Y053014D02*
Y053074D01*
X023654Y053044D02*
X023714D01*
X023684Y053014D02*
Y053074D01*
X026310Y048560D02*
X026370D01*
X026340Y048530D02*
Y048590D01*
X026110Y048720D02*
X026170D01*
X026140Y048690D02*
Y048750D01*
X025096Y052595D02*
X025155D01*
X025125Y052565D02*
Y052624D01*
X025546Y052605D02*
X025605D01*
X025575Y052576D02*
Y052635D01*
X025446Y048575D02*
X025505D01*
X025475Y048545D02*
Y048604D01*
X023850Y049770D02*
X023910D01*
X023880Y049740D02*
Y049800D01*
X023160Y049550D02*
X023220D01*
X023190Y049520D02*
Y049580D01*
X029680Y026620D02*
X029740D01*
X029710Y026590D02*
Y026650D01*
X029710Y025870D02*
X029770D01*
X029740Y025840D02*
Y025900D01*
X029620Y025150D02*
X029680D01*
X029650Y025120D02*
Y025180D01*
X029630Y024780D02*
X029690D01*
X029660Y024750D02*
Y024810D01*
X024490Y051230D02*
X024550D01*
X024520Y051200D02*
Y051260D01*
X024668Y048489D02*
X024727D01*
X024697Y048459D02*
Y048518D01*
X024230Y049850D02*
X024290D01*
X024260Y049820D02*
Y049880D01*
X024650Y047660D02*
X024710D01*
X024680Y047630D02*
Y047690D01*
X025040Y047670D02*
X025100D01*
X025070Y047640D02*
Y047700D01*
X025440Y047660D02*
X025500D01*
X025470Y047630D02*
Y047690D01*
X025850Y047680D02*
X025910D01*
X025880Y047650D02*
Y047710D01*
X027930Y047060D02*
X027990D01*
X027960Y047030D02*
Y047090D01*
X025640Y047040D02*
X025700D01*
X025670Y047010D02*
Y047070D01*
X027410Y048110D02*
X027470D01*
X027440Y048080D02*
Y048140D01*
X028650Y048710D02*
X028710D01*
X028680Y048680D02*
Y048740D01*
X028660Y050300D02*
X028720D01*
X028690Y050270D02*
Y050330D01*
X036626Y043479D02*
X036685D01*
X036656Y043449D02*
Y043508D01*
X034960Y019540D02*
X035020D01*
X034990Y019510D02*
Y019570D01*
X033450Y020470D02*
X033510D01*
X033480Y020440D02*
Y020500D01*
X048172Y040404D02*
X048231D01*
X048201Y040375D02*
Y040434D01*
X050612Y040044D02*
X050671D01*
X050641Y040015D02*
Y040074D01*
X049952Y040044D02*
X050011D01*
X049981Y040015D02*
Y040074D01*
X048202Y042014D02*
X048261D01*
X048231Y041985D02*
Y042044D01*
X050652Y041904D02*
X050711D01*
X050681Y041875D02*
Y041934D01*
X036180Y020450D02*
X036240D01*
X036210Y020420D02*
Y020480D01*
X035950Y023920D02*
X036010D01*
X035980Y023890D02*
Y023950D01*
X035580Y023920D02*
X035640D01*
X035610Y023890D02*
Y023950D01*
X035170Y023900D02*
X035230D01*
X035200Y023870D02*
Y023930D01*
X018030Y041330D02*
X018090D01*
X018060Y041300D02*
Y041360D01*
X017980Y041720D02*
X018040D01*
X018010Y041690D02*
Y041750D01*
X018210Y042910D02*
X018270D01*
X018240Y042880D02*
Y042940D01*
X017380Y044160D02*
X017440D01*
X017410Y044130D02*
Y044190D01*
X017370Y041650D02*
X017430D01*
X017400Y041620D02*
Y041680D01*
X017400Y042380D02*
X017460D01*
X017430Y042350D02*
Y042410D01*
X018190Y042570D02*
X018250D01*
X018220Y042540D02*
Y042600D01*
X019200Y042930D02*
X019260D01*
X019230Y042900D02*
Y042960D01*
X019120Y042580D02*
X019180D01*
X019150Y042550D02*
Y042610D01*
X018160Y040910D02*
X018220D01*
X018190Y040880D02*
Y040940D01*
X019760Y041550D02*
X019820D01*
X019790Y041520D02*
Y041580D01*
X020070Y041560D02*
X020130D01*
X020100Y041530D02*
Y041590D01*
X020080Y041220D02*
X020140D01*
X020110Y041190D02*
Y041250D01*
X019750Y041230D02*
X019810D01*
X019780Y041200D02*
Y041260D01*
X019630Y040370D02*
X019690D01*
X019660Y040340D02*
Y040400D01*
X043093Y039646D02*
X043152D01*
X043122Y039616D02*
Y039675D01*
M02*
