G04*
G04 #@! TF.GenerationSoftware,Altium Limited,Altium Designer,22.2.1 (43)*
G04*
G04 Layer_Physical_Order=4*
G04 Layer_Color=16711680*
%FSAX24Y24*%
%MOIN*%
G70*
G04*
G04 #@! TF.SameCoordinates,9FECD9A3-9FBE-45D8-96C7-32EA53B7FBE5*
G04*
G04*
G04 #@! TF.FilePolarity,Positive*
G04*
G01*
G75*
%ADD11C,0.0100*%
%ADD164C,0.0400*%
%ADD165C,0.0200*%
%ADD166C,0.0600*%
%ADD167C,0.0500*%
%ADD178C,0.1680*%
%ADD179C,0.0927*%
%ADD180C,0.0550*%
%ADD181C,0.0602*%
%ADD182C,0.0630*%
%ADD183R,0.0630X0.0630*%
%ADD184C,0.0787*%
%ADD185C,0.3937*%
%ADD186R,0.0594X0.0594*%
%ADD187C,0.0594*%
%ADD188R,0.0669X0.0669*%
%ADD189C,0.0669*%
%ADD190C,0.2362*%
%ADD191C,0.0591*%
%ADD192R,0.0591X0.0591*%
%ADD193R,0.0591X0.0591*%
%ADD194O,0.0709X0.1772*%
%ADD195O,0.1575X0.0709*%
%ADD196O,0.0709X0.1575*%
%ADD197O,0.0630X0.0354*%
%ADD198C,0.0197*%
%ADD199C,0.0500*%
%ADD200C,0.0260*%
%ADD224R,0.0551X0.0374*%
G36*
X051290Y046110D02*
Y037070D01*
X053960Y034400D01*
Y033866D01*
X053910Y033856D01*
X053889Y033908D01*
X053825Y033991D01*
X053743Y034054D01*
X053646Y034094D01*
X053643Y034094D01*
Y033709D01*
Y033323D01*
X053646Y033324D01*
X053743Y033363D01*
X053825Y033427D01*
X053889Y033509D01*
X053910Y033561D01*
X053960Y033551D01*
Y032866D01*
X053910Y032856D01*
X053889Y032908D01*
X053825Y032991D01*
X053743Y033054D01*
X053646Y033094D01*
X053543Y033107D01*
X053440Y033094D01*
X053344Y033054D01*
X053261Y032991D01*
X053198Y032908D01*
X053158Y032812D01*
X053145Y032709D01*
X053158Y032605D01*
X053198Y032509D01*
X053261Y032427D01*
X053344Y032363D01*
X053440Y032324D01*
X053543Y032310D01*
X053646Y032324D01*
X053743Y032363D01*
X053825Y032427D01*
X053889Y032509D01*
X053910Y032561D01*
X053960Y032551D01*
Y031866D01*
X053910Y031856D01*
X053889Y031908D01*
X053825Y031991D01*
X053743Y032054D01*
X053646Y032094D01*
X053543Y032107D01*
X053440Y032094D01*
X053344Y032054D01*
X053261Y031991D01*
X053198Y031908D01*
X053158Y031812D01*
X053145Y031709D01*
X053158Y031605D01*
X053166Y031586D01*
X053122Y031562D01*
X053120Y031565D01*
X053055Y031609D01*
X052977Y031624D01*
X052900Y031609D01*
X052834Y031565D01*
X052790Y031499D01*
X052775Y031422D01*
X052790Y031344D01*
X052834Y031279D01*
X052900Y031235D01*
X052977Y031219D01*
X053055Y031235D01*
X053120Y031279D01*
X053164Y031344D01*
X053179Y031422D01*
X053172Y031462D01*
X053218Y031483D01*
X053261Y031427D01*
X053344Y031363D01*
X053440Y031324D01*
X053543Y031310D01*
X053646Y031324D01*
X053743Y031363D01*
X053825Y031427D01*
X053889Y031509D01*
X053910Y031561D01*
X053960Y031551D01*
Y031145D01*
X053939Y031104D01*
X053910Y031104D01*
X053148D01*
Y030313D01*
X053910D01*
X053939Y030313D01*
X053960Y030272D01*
Y025992D01*
X053910Y025982D01*
X053889Y026034D01*
X053825Y026117D01*
X053743Y026180D01*
X053646Y026220D01*
X053643Y026220D01*
Y025835D01*
Y025449D01*
X053646Y025450D01*
X053743Y025489D01*
X053825Y025553D01*
X053889Y025635D01*
X053910Y025687D01*
X053960Y025677D01*
Y024992D01*
X053910Y024982D01*
X053889Y025034D01*
X053825Y025117D01*
X053743Y025180D01*
X053646Y025220D01*
X053543Y025233D01*
X053440Y025220D01*
X053344Y025180D01*
X053261Y025117D01*
X053198Y025034D01*
X053158Y024938D01*
X053145Y024835D01*
X053158Y024731D01*
X053198Y024635D01*
X053261Y024553D01*
X053344Y024489D01*
X053440Y024450D01*
X053543Y024436D01*
X053646Y024450D01*
X053743Y024489D01*
X053825Y024553D01*
X053889Y024635D01*
X053910Y024687D01*
X053960Y024677D01*
Y023992D01*
X053910Y023982D01*
X053889Y024034D01*
X053825Y024117D01*
X053743Y024180D01*
X053646Y024220D01*
X053543Y024233D01*
X053440Y024220D01*
X053344Y024180D01*
X053261Y024117D01*
X053198Y024034D01*
X053158Y023938D01*
X053145Y023835D01*
X053158Y023731D01*
X053198Y023635D01*
X053261Y023553D01*
X053344Y023489D01*
X053440Y023450D01*
X053543Y023436D01*
X053646Y023450D01*
X053743Y023489D01*
X053825Y023553D01*
X053889Y023635D01*
X053910Y023687D01*
X053960Y023677D01*
Y023271D01*
X053939Y023230D01*
X053910Y023230D01*
X053148D01*
Y022439D01*
X053910D01*
X053939Y022439D01*
X053960Y022398D01*
Y021349D01*
X049944Y017333D01*
X045266D01*
X044342Y018257D01*
Y018393D01*
X044369Y018427D01*
X044411Y018528D01*
X044465D01*
X044506Y018427D01*
X044586Y018324D01*
X044689Y018245D01*
X044809Y018195D01*
X044938Y018178D01*
X045067Y018195D01*
X045187Y018245D01*
X045290Y018324D01*
X045369Y018427D01*
X045411Y018528D01*
X045465D01*
X045506Y018427D01*
X045586Y018324D01*
X045689Y018245D01*
X045809Y018195D01*
X045838Y018191D01*
Y018676D01*
Y019161D01*
X045809Y019157D01*
X045689Y019107D01*
X045586Y019028D01*
X045506Y018925D01*
X045465Y018824D01*
X045411D01*
X045369Y018925D01*
X045290Y019028D01*
X045187Y019107D01*
X045067Y019157D01*
X044938Y019174D01*
X044809Y019157D01*
X044689Y019107D01*
X044586Y019028D01*
X044506Y018925D01*
X044465Y018824D01*
X044411D01*
X044369Y018925D01*
X044290Y019028D01*
X044187Y019107D01*
X044067Y019157D01*
X043938Y019174D01*
X043809Y019157D01*
X043689Y019107D01*
X043586Y019028D01*
X043506Y018925D01*
X043457Y018805D01*
X043440Y018676D01*
X043457Y018547D01*
X043506Y018427D01*
X043586Y018324D01*
X043636Y018285D01*
Y018111D01*
X043648Y018019D01*
X043684Y017934D01*
X043740Y017861D01*
X044870Y016730D01*
X044870Y016730D01*
X044943Y016674D01*
X045029Y016639D01*
X045120Y016627D01*
X045120Y016627D01*
X049262D01*
X049281Y016581D01*
X048490Y015790D01*
X027290D01*
X026350Y016730D01*
Y019220D01*
X024339Y021214D01*
X024343Y021257D01*
X024387Y021323D01*
X024402Y021400D01*
X024387Y021477D01*
X024343Y021543D01*
X024302Y021571D01*
Y021629D01*
X024343Y021657D01*
X024387Y021723D01*
X024402Y021800D01*
X024387Y021877D01*
X024343Y021943D01*
X024302Y021971D01*
Y022029D01*
X024343Y022057D01*
X024387Y022123D01*
X024402Y022200D01*
X024387Y022277D01*
X024343Y022343D01*
X024302Y022371D01*
Y022429D01*
X024343Y022457D01*
X024387Y022523D01*
X024402Y022600D01*
X024387Y022677D01*
X024343Y022743D01*
X024302Y022771D01*
Y022829D01*
X024343Y022857D01*
X024387Y022923D01*
X024402Y023000D01*
X024387Y023077D01*
X024343Y023143D01*
X024302Y023171D01*
Y023229D01*
X024343Y023257D01*
X024387Y023323D01*
X024402Y023400D01*
X024387Y023477D01*
X024343Y023543D01*
X024302Y023571D01*
Y023629D01*
X024343Y023657D01*
X024387Y023723D01*
X024402Y023800D01*
X024387Y023877D01*
X024343Y023943D01*
X024277Y023987D01*
X024200Y024002D01*
X024123Y023987D01*
X024057Y023943D01*
X024013Y023877D01*
X023998Y023800D01*
X024013Y023723D01*
X024057Y023657D01*
X024098Y023629D01*
Y023571D01*
X024057Y023543D01*
X024013Y023477D01*
X023998Y023400D01*
X024013Y023323D01*
X024057Y023257D01*
X024098Y023229D01*
Y023171D01*
X024057Y023143D01*
X024013Y023077D01*
X023998Y023000D01*
X024013Y022923D01*
X024057Y022857D01*
X024098Y022829D01*
Y022771D01*
X024057Y022743D01*
X024013Y022677D01*
X023998Y022600D01*
X024013Y022523D01*
X024057Y022457D01*
X024098Y022429D01*
Y022371D01*
X024057Y022343D01*
X024013Y022277D01*
X023998Y022200D01*
X024013Y022123D01*
X024057Y022057D01*
X024098Y022029D01*
Y021971D01*
X024057Y021943D01*
X024013Y021877D01*
X023998Y021800D01*
X024013Y021723D01*
X024057Y021657D01*
X024098Y021629D01*
Y021571D01*
X024057Y021543D01*
X024012Y021539D01*
X023220Y022324D01*
Y022402D01*
X023277Y022413D01*
X023343Y022457D01*
X023387Y022523D01*
X023402Y022600D01*
X023387Y022677D01*
X023343Y022743D01*
X023302Y022771D01*
Y022829D01*
X023343Y022857D01*
X023387Y022923D01*
X023402Y023000D01*
X023387Y023077D01*
X023343Y023143D01*
X023302Y023171D01*
Y023229D01*
X023343Y023257D01*
X023387Y023323D01*
X023402Y023400D01*
X023387Y023477D01*
X023343Y023543D01*
X023302Y023571D01*
Y023629D01*
X023343Y023657D01*
X023387Y023723D01*
X023402Y023800D01*
X023387Y023877D01*
X023343Y023943D01*
X023277Y023987D01*
X023220Y023998D01*
Y040430D01*
X023728Y040938D01*
X023773Y040908D01*
X023851Y040892D01*
X023928Y040908D01*
X023994Y040951D01*
X024038Y041017D01*
X024053Y041094D01*
X024042Y041151D01*
X024089Y041170D01*
X024099Y041155D01*
X024165Y041112D01*
X024242Y041096D01*
X024319Y041112D01*
X024385Y041155D01*
X024429Y041221D01*
X024444Y041298D01*
X024429Y041376D01*
X024395Y041427D01*
Y041605D01*
X026830Y044040D01*
X027540Y044050D01*
X028010D01*
X028245Y043815D01*
X028234Y043798D01*
X028218Y043721D01*
X028234Y043643D01*
X028277Y043577D01*
X028343Y043534D01*
X028390Y043524D01*
Y041907D01*
X028340Y041866D01*
X028310Y041872D01*
X028233Y041857D01*
X028167Y041813D01*
X028123Y041747D01*
X028108Y041670D01*
X028123Y041593D01*
X028167Y041527D01*
X028233Y041483D01*
X028310Y041468D01*
X028340Y041474D01*
X028390Y041433D01*
Y041022D01*
X028365Y041017D01*
X028299Y040973D01*
X028255Y040908D01*
X028240Y040830D01*
X028255Y040753D01*
X028299Y040687D01*
X028365Y040643D01*
X028390Y040638D01*
X028390Y037359D01*
X028383Y037350D01*
X028343Y037254D01*
X028330Y037150D01*
X028343Y037046D01*
X028383Y036950D01*
X028390Y036941D01*
Y032450D01*
X027890Y031950D01*
Y028032D01*
X027847Y028003D01*
X027803Y027937D01*
X027788Y027860D01*
X027803Y027783D01*
X027828Y027745D01*
X027803Y027707D01*
X027788Y027630D01*
X027803Y027553D01*
X027828Y027515D01*
X027803Y027477D01*
X027788Y027400D01*
X027803Y027323D01*
X027835Y027275D01*
X027803Y027227D01*
X027788Y027150D01*
X027803Y027073D01*
X027847Y027007D01*
X027890Y026978D01*
Y026700D01*
X028970Y025620D01*
X036722D01*
X040982Y029879D01*
X041029Y029865D01*
X041034Y029844D01*
X041077Y029778D01*
X041143Y029734D01*
X041220Y029719D01*
X041298Y029734D01*
X041364Y029778D01*
X041407Y029844D01*
X041423Y029921D01*
X041407Y029999D01*
X041364Y030064D01*
X041298Y030108D01*
X041277Y030112D01*
X041263Y030160D01*
X046230Y035128D01*
Y035525D01*
X046325D01*
Y036395D01*
X046230D01*
Y041813D01*
X046269Y041844D01*
X046272Y041844D01*
X046350Y041859D01*
X046415Y041903D01*
X046459Y041968D01*
X046475Y042046D01*
X046459Y042123D01*
X046415Y042189D01*
X046350Y042233D01*
X046272Y042248D01*
X046269Y042247D01*
X046230Y042279D01*
Y042537D01*
X046264Y042551D01*
X046280Y042555D01*
X046343Y042513D01*
X046420Y042498D01*
X046497Y042513D01*
X046563Y042557D01*
X046607Y042623D01*
X046622Y042700D01*
X046607Y042777D01*
X046563Y042843D01*
X046497Y042887D01*
X046420Y042902D01*
X046343Y042887D01*
X046280Y042845D01*
X046264Y042849D01*
X046230Y042863D01*
Y043312D01*
X046257Y043353D01*
X046272Y043430D01*
X046257Y043507D01*
X046230Y043548D01*
Y048400D01*
X046880Y049020D01*
X048790D01*
X049610Y049840D01*
Y049880D01*
X049770Y050040D01*
X051290D01*
Y046110D01*
D02*
G37*
G36*
X042760Y038330D02*
X042322Y037892D01*
X042268Y037909D01*
X042259Y037953D01*
X042215Y038019D01*
X042150Y038063D01*
X042072Y038078D01*
X041995Y038063D01*
X041929Y038019D01*
X041885Y037953D01*
X041870Y037876D01*
X041885Y037798D01*
X041929Y037733D01*
X041995Y037689D01*
X042039Y037680D01*
X042056Y037626D01*
X038121Y033691D01*
X038067Y033708D01*
X038061Y033739D01*
X038017Y033804D01*
X037951Y033848D01*
X037874Y033864D01*
X037797Y033848D01*
X037731Y033804D01*
X037687Y033739D01*
X037672Y033661D01*
X037687Y033584D01*
X037731Y033518D01*
X037797Y033475D01*
X037828Y033468D01*
X037844Y033414D01*
X037185Y032755D01*
X037177Y032756D01*
X037099Y032741D01*
X037034Y032697D01*
X036990Y032631D01*
X036974Y032554D01*
X036976Y032546D01*
X030790Y026360D01*
X028650Y026360D01*
X028150Y026860D01*
Y031380D01*
X030170Y033400D01*
Y038700D01*
X030950Y039480D01*
X036275Y039505D01*
X038147Y041377D01*
X038194Y041353D01*
X038191Y041339D01*
X038206Y041262D01*
X038250Y041196D01*
X038316Y041152D01*
X038393Y041137D01*
X038471Y041152D01*
X038536Y041196D01*
X038580Y041262D01*
X038595Y041339D01*
X038580Y041417D01*
X038536Y041482D01*
X038471Y041526D01*
X038393Y041542D01*
X038380Y041539D01*
X038355Y041585D01*
X038843Y042073D01*
X038855Y042072D01*
X038921Y042028D01*
X038998Y042013D01*
X039076Y042028D01*
X039141Y042072D01*
X039185Y042138D01*
X039200Y042215D01*
X039185Y042293D01*
X039141Y042358D01*
X039140Y042370D01*
X039300Y042530D01*
X042760D01*
X042760Y038330D01*
D02*
G37*
%LPC*%
G36*
X051066Y049863D02*
X050790D01*
Y049676D01*
X051066D01*
Y049863D01*
D02*
G37*
G36*
X050590D02*
X050314D01*
Y049676D01*
X050590D01*
Y049863D01*
D02*
G37*
G36*
X051066Y049476D02*
X050790D01*
Y049289D01*
X051066D01*
Y049476D01*
D02*
G37*
G36*
X050590D02*
X050314D01*
Y049289D01*
X050590D01*
Y049476D01*
D02*
G37*
G36*
X049560Y048948D02*
X049483Y048932D01*
X049417Y048888D01*
X049373Y048823D01*
X049358Y048745D01*
X049373Y048668D01*
X049417Y048602D01*
X049483Y048558D01*
X049560Y048543D01*
X049637Y048558D01*
X049703Y048602D01*
X049747Y048668D01*
X049762Y048745D01*
X049747Y048823D01*
X049703Y048888D01*
X049637Y048932D01*
X049560Y048948D01*
D02*
G37*
G36*
X048455Y048780D02*
X048377Y048765D01*
X048312Y048721D01*
X048268Y048656D01*
X048252Y048578D01*
X048268Y048501D01*
X048312Y048435D01*
X048377Y048391D01*
X048455Y048376D01*
X048532Y048391D01*
X048598Y048435D01*
X048642Y048501D01*
X048657Y048578D01*
X048642Y048656D01*
X048598Y048721D01*
X048532Y048765D01*
X048455Y048780D01*
D02*
G37*
G36*
X046860Y048312D02*
X046783Y048297D01*
X046717Y048253D01*
X046673Y048187D01*
X046658Y048110D01*
X046673Y048033D01*
X046717Y047967D01*
X046772Y047930D01*
X046776Y047890D01*
X046773Y047874D01*
X046727Y047843D01*
X046683Y047777D01*
X046668Y047700D01*
X046683Y047623D01*
X046727Y047557D01*
X046793Y047513D01*
X046870Y047498D01*
X046947Y047513D01*
X047013Y047557D01*
X047057Y047623D01*
X047072Y047700D01*
X047057Y047777D01*
X047013Y047843D01*
X046958Y047880D01*
X046954Y047920D01*
X046957Y047936D01*
X047003Y047967D01*
X047047Y048033D01*
X047062Y048110D01*
X047047Y048187D01*
X047003Y048253D01*
X046937Y048297D01*
X046860Y048312D01*
D02*
G37*
G36*
X049655Y048221D02*
X049577Y048205D01*
X049512Y048161D01*
X049468Y048096D01*
X049452Y048018D01*
X049468Y047941D01*
X049512Y047875D01*
X049577Y047831D01*
X049655Y047816D01*
X049706Y047826D01*
X049726Y047779D01*
X049717Y047773D01*
X049673Y047707D01*
X049658Y047630D01*
X049673Y047553D01*
X049717Y047487D01*
X049783Y047443D01*
X049860Y047428D01*
X049937Y047443D01*
X050003Y047487D01*
X050047Y047553D01*
X050062Y047630D01*
X050047Y047707D01*
X050003Y047773D01*
X049937Y047817D01*
X049860Y047832D01*
X049808Y047822D01*
X049789Y047869D01*
X049798Y047875D01*
X049842Y047941D01*
X049857Y048018D01*
X049842Y048096D01*
X049798Y048161D01*
X049732Y048205D01*
X049655Y048221D01*
D02*
G37*
G36*
X048780Y047112D02*
X048703Y047097D01*
X048637Y047053D01*
X048593Y046987D01*
X048578Y046910D01*
X048587Y046863D01*
X048551Y046813D01*
X047648D01*
X047597Y046847D01*
X047520Y046862D01*
X047443Y046847D01*
X047377Y046803D01*
X047333Y046737D01*
X047318Y046660D01*
X047333Y046583D01*
X047377Y046517D01*
X047443Y046473D01*
X047520Y046458D01*
X047597Y046473D01*
X047648Y046507D01*
X048711D01*
X048770Y046519D01*
X048820Y046552D01*
X048870Y046602D01*
X048903Y046652D01*
X048914Y046710D01*
Y046761D01*
X048923Y046767D01*
X048967Y046833D01*
X048982Y046910D01*
X048967Y046987D01*
X048923Y047053D01*
X048857Y047097D01*
X048780Y047112D01*
D02*
G37*
G36*
X048288Y046360D02*
X048210Y046345D01*
X048145Y046301D01*
X048139Y046293D01*
X047656D01*
X047605Y046327D01*
X047528Y046342D01*
X047450Y046327D01*
X047385Y046283D01*
X047341Y046217D01*
X047325Y046140D01*
X047341Y046063D01*
X047385Y045997D01*
X047450Y045953D01*
X047460Y045951D01*
Y045900D01*
X047443Y045897D01*
X047377Y045853D01*
X047333Y045787D01*
X047318Y045710D01*
X047333Y045633D01*
X047377Y045567D01*
X047443Y045523D01*
X047520Y045508D01*
X047597Y045523D01*
X047648Y045557D01*
X047922D01*
X047973Y045523D01*
X048050Y045508D01*
X048058Y045509D01*
X048100Y045467D01*
X048093Y045430D01*
X048109Y045353D01*
X048152Y045287D01*
X048218Y045243D01*
X048295Y045228D01*
X048373Y045243D01*
X048438Y045287D01*
X048482Y045353D01*
X048492Y045403D01*
X048581Y045492D01*
X048627Y045467D01*
X048618Y045420D01*
X048633Y045343D01*
X048635Y045340D01*
X048015Y044720D01*
X047955Y044708D01*
X047889Y044664D01*
X047871Y044637D01*
X047821D01*
X047803Y044663D01*
X047738Y044707D01*
X047660Y044722D01*
X047583Y044707D01*
X047517Y044663D01*
X047473Y044597D01*
X047458Y044520D01*
X047473Y044442D01*
X047517Y044377D01*
X047583Y044333D01*
X047643Y044321D01*
X047752Y044212D01*
X047801Y044179D01*
X047860Y044167D01*
X048690D01*
X048749Y044179D01*
X048798Y044212D01*
X049177Y044591D01*
X049237Y044603D01*
X049303Y044647D01*
X049347Y044713D01*
X049362Y044790D01*
X049347Y044867D01*
X049303Y044933D01*
X049237Y044977D01*
X049160Y044992D01*
X049083Y044977D01*
X049017Y044933D01*
X048973Y044867D01*
X048961Y044807D01*
X048627Y044473D01*
X048271D01*
X048250Y044523D01*
X048937Y045210D01*
X048970Y045260D01*
X048978Y045299D01*
X049007Y045343D01*
X049022Y045420D01*
X049007Y045497D01*
X048963Y045563D01*
X048897Y045607D01*
X048820Y045622D01*
X048773Y045613D01*
X048748Y045659D01*
X048838Y045749D01*
X048907Y045763D01*
X048973Y045807D01*
X049017Y045873D01*
X049032Y045950D01*
X049017Y046027D01*
X048973Y046093D01*
X048907Y046137D01*
X048830Y046152D01*
X048753Y046137D01*
X048687Y046093D01*
X048643Y046027D01*
X048633Y045977D01*
X048312Y045656D01*
X048289Y045656D01*
X048251Y045701D01*
X048252Y045710D01*
X048237Y045787D01*
X048193Y045853D01*
X048127Y045897D01*
X048050Y045912D01*
X047973Y045897D01*
X047922Y045863D01*
X047648D01*
X047597Y045897D01*
X047588Y045899D01*
Y045950D01*
X047605Y045953D01*
X047656Y045987D01*
X048186D01*
X048210Y045971D01*
X048288Y045955D01*
X048365Y045971D01*
X048431Y046015D01*
X048475Y046080D01*
X048490Y046158D01*
X048475Y046235D01*
X048431Y046301D01*
X048365Y046345D01*
X048288Y046360D01*
D02*
G37*
G36*
X049860Y046192D02*
X049783Y046177D01*
X049717Y046133D01*
X049673Y046067D01*
X049658Y045990D01*
X049673Y045913D01*
X049717Y045847D01*
X049783Y045803D01*
X049860Y045788D01*
X049937Y045803D01*
X050003Y045847D01*
X050047Y045913D01*
X050062Y045990D01*
X050047Y046067D01*
X050003Y046133D01*
X049937Y046177D01*
X049860Y046192D01*
D02*
G37*
G36*
X050030Y044272D02*
X049953Y044257D01*
X049887Y044213D01*
X049843Y044147D01*
X049828Y044070D01*
X049843Y043993D01*
X049887Y043927D01*
X049953Y043883D01*
X050030Y043868D01*
X050107Y043883D01*
X050173Y043927D01*
X050217Y043993D01*
X050232Y044070D01*
X050217Y044147D01*
X050173Y044213D01*
X050107Y044257D01*
X050030Y044272D01*
D02*
G37*
G36*
X027330Y043902D02*
X027253Y043887D01*
X027195Y043848D01*
X027137Y043887D01*
X027060Y043902D01*
X026983Y043887D01*
X026917Y043843D01*
X026873Y043777D01*
X026858Y043700D01*
X026873Y043623D01*
X026905Y043575D01*
X026873Y043527D01*
X026858Y043450D01*
X026873Y043373D01*
X026905Y043325D01*
X026873Y043277D01*
X026858Y043200D01*
X026873Y043123D01*
X026917Y043057D01*
X026983Y043013D01*
X027060Y042998D01*
X027137Y043013D01*
X027195Y043052D01*
X027253Y043013D01*
X027330Y042998D01*
X027407Y043013D01*
X027473Y043057D01*
X027517Y043123D01*
X027532Y043200D01*
X027517Y043277D01*
X027485Y043325D01*
X027517Y043373D01*
X027532Y043450D01*
X027517Y043527D01*
X027485Y043575D01*
X027517Y043623D01*
X027532Y043700D01*
X027517Y043777D01*
X027473Y043843D01*
X027407Y043887D01*
X027330Y043902D01*
D02*
G37*
G36*
X048560Y043772D02*
X048483Y043757D01*
X048417Y043713D01*
X048387Y043668D01*
X048330Y043664D01*
X048329Y043664D01*
X048303Y043703D01*
X048237Y043747D01*
X048160Y043762D01*
X048083Y043747D01*
X048017Y043703D01*
X047973Y043637D01*
X047958Y043560D01*
X047973Y043483D01*
X048017Y043417D01*
X048083Y043373D01*
X048160Y043358D01*
X048237Y043373D01*
X048303Y043417D01*
X048333Y043462D01*
X048390Y043466D01*
X048391Y043466D01*
X048417Y043427D01*
X048483Y043383D01*
X048560Y043368D01*
X048637Y043383D01*
X048703Y043427D01*
X048747Y043493D01*
X048762Y043570D01*
X048747Y043647D01*
X048703Y043713D01*
X048637Y043757D01*
X048560Y043772D01*
D02*
G37*
G36*
X050020Y043672D02*
X049943Y043657D01*
X049877Y043613D01*
X049833Y043547D01*
X049818Y043470D01*
X049833Y043393D01*
X049877Y043327D01*
X049943Y043283D01*
X050020Y043268D01*
X050097Y043283D01*
X050163Y043327D01*
X050207Y043393D01*
X050222Y043470D01*
X050207Y043547D01*
X050163Y043613D01*
X050097Y043657D01*
X050020Y043672D01*
D02*
G37*
G36*
X047330Y043562D02*
X047253Y043547D01*
X047187Y043503D01*
X047143Y043437D01*
X047128Y043360D01*
X047143Y043283D01*
X047187Y043217D01*
X047253Y043173D01*
X047330Y043158D01*
X047407Y043173D01*
X047473Y043217D01*
X047517Y043283D01*
X047532Y043360D01*
X047517Y043437D01*
X047473Y043503D01*
X047407Y043547D01*
X047330Y043562D01*
D02*
G37*
G36*
X047970Y043242D02*
X047893Y043227D01*
X047827Y043183D01*
X047783Y043117D01*
X047768Y043040D01*
X047783Y042963D01*
X047827Y042897D01*
X047893Y042853D01*
X047970Y042838D01*
X048047Y042853D01*
X048113Y042897D01*
X048157Y042963D01*
X048172Y043040D01*
X048157Y043117D01*
X048113Y043183D01*
X048047Y043227D01*
X047970Y043242D01*
D02*
G37*
G36*
X049700Y043122D02*
X049623Y043107D01*
X049557Y043063D01*
X049513Y042997D01*
X049498Y042920D01*
X049513Y042843D01*
X049557Y042777D01*
X049623Y042733D01*
X049700Y042718D01*
X049777Y042733D01*
X049843Y042777D01*
X049887Y042843D01*
X049902Y042920D01*
X049887Y042997D01*
X049843Y043063D01*
X049777Y043107D01*
X049700Y043122D01*
D02*
G37*
G36*
X048530Y042642D02*
X048453Y042627D01*
X048387Y042583D01*
X048343Y042517D01*
X048328Y042440D01*
X048343Y042363D01*
X048387Y042297D01*
X048453Y042253D01*
X048530Y042238D01*
X048607Y042253D01*
X048673Y042297D01*
X048717Y042363D01*
X048732Y042440D01*
X048717Y042517D01*
X048673Y042583D01*
X048607Y042627D01*
X048530Y042642D01*
D02*
G37*
G36*
X047390Y042602D02*
X047313Y042587D01*
X047247Y042543D01*
X047203Y042477D01*
X047188Y042400D01*
X047203Y042323D01*
X047247Y042257D01*
X047313Y042213D01*
X047390Y042198D01*
X047467Y042213D01*
X047533Y042257D01*
X047577Y042323D01*
X047592Y042400D01*
X047577Y042477D01*
X047533Y042543D01*
X047467Y042587D01*
X047390Y042602D01*
D02*
G37*
G36*
X048231Y042217D02*
X048154Y042201D01*
X048088Y042157D01*
X048044Y042092D01*
X048029Y042014D01*
X048044Y041937D01*
X048088Y041871D01*
X048154Y041827D01*
X048231Y041812D01*
X048309Y041827D01*
X048374Y041871D01*
X048418Y041937D01*
X048433Y042014D01*
X048418Y042092D01*
X048374Y042157D01*
X048309Y042201D01*
X048231Y042217D01*
D02*
G37*
G36*
X049110Y041857D02*
X049033Y041841D01*
X048967Y041797D01*
X048939Y041756D01*
X048881D01*
X048853Y041797D01*
X048787Y041841D01*
X048710Y041857D01*
X048633Y041841D01*
X048567Y041797D01*
X048523Y041732D01*
X048508Y041654D01*
X048523Y041577D01*
X048560Y041522D01*
X048523Y041467D01*
X048508Y041390D01*
X048523Y041313D01*
X048560Y041258D01*
X048523Y041203D01*
X048508Y041126D01*
X048523Y041048D01*
X048560Y040994D01*
X048523Y040939D01*
X048508Y040862D01*
X048523Y040784D01*
X048567Y040718D01*
X048633Y040675D01*
X048710Y040659D01*
X048787Y040675D01*
X048853Y040718D01*
X048881Y040760D01*
X048939D01*
X048967Y040718D01*
X049033Y040675D01*
X049110Y040659D01*
X049187Y040675D01*
X049253Y040718D01*
X049297Y040784D01*
X049312Y040862D01*
X049297Y040939D01*
X049260Y040994D01*
X049297Y041048D01*
X049312Y041126D01*
X049297Y041203D01*
X049260Y041258D01*
X049297Y041313D01*
X049312Y041390D01*
X049297Y041467D01*
X049260Y041522D01*
X049297Y041577D01*
X049312Y041654D01*
X049297Y041732D01*
X049253Y041797D01*
X049187Y041841D01*
X049110Y041857D01*
D02*
G37*
G36*
X050681Y042107D02*
X050604Y042091D01*
X050538Y042047D01*
X050494Y041982D01*
X050479Y041904D01*
X050494Y041827D01*
X050538Y041761D01*
X050604Y041717D01*
X050681Y041702D01*
X050759Y041717D01*
X050824Y041761D01*
X050868Y041827D01*
X050883Y041904D01*
X050868Y041982D01*
X050824Y042047D01*
X050759Y042091D01*
X050681Y042107D01*
D02*
G37*
G36*
X047272Y041278D02*
X047195Y041263D01*
X047157Y041238D01*
X047120Y041263D01*
X047042Y041278D01*
X046965Y041263D01*
X046932Y041241D01*
X046900Y041263D01*
X046822Y041278D01*
X046745Y041263D01*
X046707Y041238D01*
X046670Y041263D01*
X046592Y041278D01*
X046515Y041263D01*
X046449Y041219D01*
X046405Y041153D01*
X046390Y041076D01*
X046405Y040998D01*
X046430Y040961D01*
X046405Y040923D01*
X046390Y040846D01*
X046405Y040768D01*
X046430Y040731D01*
X046405Y040693D01*
X046390Y040616D01*
X046405Y040538D01*
X046430Y040501D01*
X046405Y040463D01*
X046390Y040386D01*
X046405Y040308D01*
X046449Y040243D01*
X046515Y040199D01*
X046592Y040184D01*
X046670Y040199D01*
X046707Y040224D01*
X046745Y040199D01*
X046822Y040184D01*
X046900Y040199D01*
X046925Y040216D01*
X046965Y040189D01*
X047042Y040174D01*
X047120Y040189D01*
X047157Y040214D01*
X047195Y040189D01*
X047272Y040174D01*
X047350Y040189D01*
X047415Y040233D01*
X047459Y040298D01*
X047475Y040376D01*
X047459Y040453D01*
X047434Y040491D01*
X047459Y040528D01*
X047475Y040606D01*
X047459Y040683D01*
X047431Y040726D01*
X047459Y040768D01*
X047475Y040846D01*
X047459Y040923D01*
X047434Y040961D01*
X047459Y040998D01*
X047475Y041076D01*
X047459Y041153D01*
X047415Y041219D01*
X047350Y041263D01*
X047272Y041278D01*
D02*
G37*
G36*
X047701Y041627D02*
X047624Y041611D01*
X047558Y041567D01*
X047514Y041502D01*
X047499Y041424D01*
X047514Y041347D01*
X047558Y041281D01*
X047624Y041237D01*
X047701Y041222D01*
X047779Y041237D01*
X047844Y041281D01*
X047888Y041347D01*
X047903Y041424D01*
X047888Y041502D01*
X047844Y041567D01*
X047779Y041611D01*
X047701Y041627D01*
D02*
G37*
G36*
X048201Y040607D02*
X048124Y040591D01*
X048058Y040547D01*
X048014Y040482D01*
X047999Y040404D01*
X048014Y040327D01*
X048058Y040261D01*
X048124Y040217D01*
X048201Y040202D01*
X048279Y040217D01*
X048344Y040261D01*
X048388Y040327D01*
X048403Y040404D01*
X048388Y040482D01*
X048344Y040547D01*
X048279Y040591D01*
X048201Y040607D01*
D02*
G37*
G36*
X050641Y040247D02*
X050564Y040231D01*
X050498Y040187D01*
X050454Y040122D01*
X050439Y040044D01*
X050454Y039967D01*
X050498Y039901D01*
X050564Y039857D01*
X050641Y039842D01*
X050719Y039857D01*
X050784Y039901D01*
X050828Y039967D01*
X050843Y040044D01*
X050828Y040122D01*
X050784Y040187D01*
X050719Y040231D01*
X050641Y040247D01*
D02*
G37*
G36*
X049981D02*
X049904Y040231D01*
X049838Y040187D01*
X049794Y040122D01*
X049779Y040044D01*
X049794Y039967D01*
X049838Y039901D01*
X049904Y039857D01*
X049981Y039842D01*
X050059Y039857D01*
X050124Y039901D01*
X050168Y039967D01*
X050183Y040044D01*
X050168Y040122D01*
X050124Y040187D01*
X050059Y040231D01*
X049981Y040247D01*
D02*
G37*
G36*
X024127Y037547D02*
X023830D01*
Y037250D01*
X024127D01*
Y037547D01*
D02*
G37*
G36*
X023630D02*
X023333D01*
Y037250D01*
X023630D01*
Y037547D01*
D02*
G37*
G36*
X024127Y037050D02*
X023830D01*
Y036753D01*
X024127D01*
Y037050D01*
D02*
G37*
G36*
X023630D02*
X023333D01*
Y036753D01*
X023630D01*
Y037050D01*
D02*
G37*
G36*
X027730Y037550D02*
X027626Y037537D01*
X027530Y037497D01*
X027447Y037433D01*
X027383Y037350D01*
X027343Y037254D01*
X027330Y037150D01*
X027343Y037046D01*
X027383Y036950D01*
X027447Y036867D01*
X027530Y036803D01*
X027626Y036763D01*
X027730Y036750D01*
X027834Y036763D01*
X027930Y036803D01*
X028013Y036867D01*
X028077Y036950D01*
X028117Y037046D01*
X028130Y037150D01*
X028117Y037254D01*
X028077Y037350D01*
X028013Y037433D01*
X027930Y037497D01*
X027834Y037537D01*
X027730Y037550D01*
D02*
G37*
G36*
X026730D02*
X026626Y037537D01*
X026530Y037497D01*
X026447Y037433D01*
X026383Y037350D01*
X026343Y037254D01*
X026330Y037150D01*
X026343Y037046D01*
X026383Y036950D01*
X026447Y036867D01*
X026530Y036803D01*
X026626Y036763D01*
X026730Y036750D01*
X026834Y036763D01*
X026930Y036803D01*
X027013Y036867D01*
X027077Y036950D01*
X027117Y037046D01*
X027130Y037150D01*
X027117Y037254D01*
X027077Y037350D01*
X027013Y037433D01*
X026930Y037497D01*
X026834Y037537D01*
X026730Y037550D01*
D02*
G37*
G36*
X024730D02*
X024626Y037537D01*
X024530Y037497D01*
X024447Y037433D01*
X024383Y037350D01*
X024343Y037254D01*
X024330Y037150D01*
X024343Y037046D01*
X024383Y036950D01*
X024447Y036867D01*
X024530Y036803D01*
X024626Y036763D01*
X024730Y036750D01*
X024834Y036763D01*
X024930Y036803D01*
X025013Y036867D01*
X025077Y036950D01*
X025117Y037046D01*
X025130Y037150D01*
X025117Y037254D01*
X025077Y037350D01*
X025013Y037433D01*
X024930Y037497D01*
X024834Y037537D01*
X024730Y037550D01*
D02*
G37*
G36*
X053443Y034094D02*
X053440Y034094D01*
X053344Y034054D01*
X053261Y033991D01*
X053198Y033908D01*
X053158Y033812D01*
X053158Y033809D01*
X053443D01*
Y034094D01*
D02*
G37*
G36*
Y033609D02*
X053158D01*
X053158Y033605D01*
X053198Y033509D01*
X053261Y033427D01*
X053344Y033363D01*
X053440Y033324D01*
X053443Y033323D01*
Y033609D01*
D02*
G37*
G36*
X052953Y032250D02*
X052875Y032234D01*
X052810Y032190D01*
X052766Y032125D01*
X052750Y032047D01*
X052766Y031970D01*
X052810Y031904D01*
X052875Y031860D01*
X052953Y031845D01*
X053030Y031860D01*
X053096Y031904D01*
X053140Y031970D01*
X053155Y032047D01*
X053140Y032125D01*
X053096Y032190D01*
X053030Y032234D01*
X052953Y032250D01*
D02*
G37*
G36*
X052271Y031988D02*
X052194Y031973D01*
X052128Y031929D01*
X052085Y031863D01*
X052069Y031786D01*
X052085Y031708D01*
X052128Y031643D01*
X052194Y031599D01*
X052271Y031583D01*
X052349Y031599D01*
X052415Y031643D01*
X052458Y031708D01*
X052474Y031786D01*
X052458Y031863D01*
X052415Y031929D01*
X052349Y031973D01*
X052271Y031988D01*
D02*
G37*
G36*
X052535Y031420D02*
X052458Y031404D01*
X052392Y031361D01*
X052348Y031295D01*
X052333Y031217D01*
X052348Y031140D01*
X052392Y031074D01*
X052458Y031031D01*
X052535Y031015D01*
X052613Y031031D01*
X052678Y031074D01*
X052722Y031140D01*
X052737Y031217D01*
X052722Y031295D01*
X052678Y031361D01*
X052613Y031404D01*
X052535Y031420D01*
D02*
G37*
G36*
X049883Y034725D02*
X049612Y034708D01*
X049346Y034655D01*
X049089Y034568D01*
X048846Y034448D01*
X048621Y034297D01*
X048417Y034118D01*
X048238Y033914D01*
X048087Y033689D01*
X047967Y033446D01*
X047880Y033189D01*
X047827Y032923D01*
X047810Y032653D01*
X047827Y032382D01*
X047880Y032116D01*
X047967Y031859D01*
X048087Y031616D01*
X048238Y031391D01*
X048417Y031187D01*
X048621Y031008D01*
X048846Y030857D01*
X049089Y030737D01*
X049346Y030650D01*
X049612Y030597D01*
X049883Y030580D01*
X050153Y030597D01*
X050419Y030650D01*
X050676Y030737D01*
X050919Y030857D01*
X051144Y031008D01*
X051226Y031079D01*
X051264Y031046D01*
X051256Y031035D01*
X051241Y030957D01*
X051256Y030880D01*
X051300Y030814D01*
X051366Y030771D01*
X051443Y030755D01*
X051521Y030771D01*
X051586Y030814D01*
X051630Y030880D01*
X051646Y030957D01*
X051630Y031035D01*
X051586Y031101D01*
X051521Y031144D01*
X051443Y031160D01*
X051379Y031147D01*
X051357Y031176D01*
X051352Y031190D01*
X051527Y031391D01*
X051678Y031616D01*
X051798Y031859D01*
X051885Y032116D01*
X051938Y032382D01*
X051955Y032653D01*
X051938Y032923D01*
X051885Y033189D01*
X051798Y033446D01*
X051678Y033689D01*
X051527Y033914D01*
X051348Y034118D01*
X051144Y034297D01*
X050919Y034448D01*
X050676Y034568D01*
X050419Y034655D01*
X050153Y034708D01*
X049883Y034725D01*
D02*
G37*
G36*
X051963Y030777D02*
X051886Y030762D01*
X051820Y030718D01*
X051776Y030652D01*
X051761Y030575D01*
X051776Y030498D01*
X051820Y030432D01*
X051886Y030388D01*
X051963Y030373D01*
X052041Y030388D01*
X052106Y030432D01*
X052150Y030498D01*
X052166Y030575D01*
X052150Y030652D01*
X052106Y030718D01*
X052041Y030762D01*
X051963Y030777D01*
D02*
G37*
G36*
X050437Y030172D02*
X050359Y030156D01*
X050294Y030113D01*
X050250Y030047D01*
X050234Y029970D01*
X050250Y029892D01*
X050294Y029826D01*
X050359Y029783D01*
X050437Y029767D01*
X050514Y029783D01*
X050580Y029826D01*
X050624Y029892D01*
X050639Y029970D01*
X050624Y030047D01*
X050580Y030113D01*
X050514Y030156D01*
X050437Y030172D01*
D02*
G37*
G36*
X049331Y030124D02*
X049253Y030108D01*
X049188Y030064D01*
X049144Y029999D01*
X049128Y029921D01*
X049144Y029844D01*
X049188Y029778D01*
X049253Y029734D01*
X049331Y029719D01*
X049408Y029734D01*
X049474Y029778D01*
X049518Y029844D01*
X049533Y029921D01*
X049518Y029999D01*
X049474Y030064D01*
X049408Y030108D01*
X049331Y030124D01*
D02*
G37*
G36*
X047874D02*
X047797Y030108D01*
X047731Y030064D01*
X047687Y029999D01*
X047672Y029921D01*
X047687Y029844D01*
X047731Y029778D01*
X047797Y029734D01*
X047874Y029719D01*
X047951Y029734D01*
X048017Y029778D01*
X048061Y029844D01*
X048076Y029921D01*
X048061Y029999D01*
X048017Y030064D01*
X047951Y030108D01*
X047874Y030124D01*
D02*
G37*
G36*
X046890D02*
X046812Y030108D01*
X046747Y030064D01*
X046703Y029999D01*
X046687Y029921D01*
X046703Y029844D01*
X046747Y029778D01*
X046812Y029734D01*
X046890Y029719D01*
X046967Y029734D01*
X047033Y029778D01*
X047077Y029844D01*
X047092Y029921D01*
X047077Y029999D01*
X047033Y030064D01*
X046967Y030108D01*
X046890Y030124D01*
D02*
G37*
G36*
X042361Y030121D02*
X042283Y030106D01*
X042218Y030062D01*
X042174Y029997D01*
X042159Y029919D01*
X042174Y029842D01*
X042218Y029776D01*
X042283Y029732D01*
X042361Y029717D01*
X042438Y029732D01*
X042504Y029776D01*
X042548Y029842D01*
X042563Y029919D01*
X042548Y029997D01*
X042504Y030062D01*
X042438Y030106D01*
X042361Y030121D01*
D02*
G37*
G36*
X044706Y030118D02*
X044628Y030102D01*
X044563Y030058D01*
X044519Y029993D01*
X044504Y029915D01*
X044519Y029838D01*
X044563Y029772D01*
X044628Y029728D01*
X044706Y029713D01*
X044783Y029728D01*
X044849Y029772D01*
X044893Y029838D01*
X044908Y029915D01*
X044893Y029993D01*
X044849Y030058D01*
X044783Y030102D01*
X044706Y030118D01*
D02*
G37*
G36*
X043626Y030114D02*
X043549Y030099D01*
X043483Y030055D01*
X043440Y029989D01*
X043424Y029912D01*
X043440Y029834D01*
X043483Y029769D01*
X043549Y029725D01*
X043626Y029709D01*
X043704Y029725D01*
X043769Y029769D01*
X043813Y029834D01*
X043829Y029912D01*
X043813Y029989D01*
X043769Y030055D01*
X043704Y030099D01*
X043626Y030114D01*
D02*
G37*
G36*
X050906Y029730D02*
X050828Y029714D01*
X050762Y029671D01*
X050719Y029605D01*
X050703Y029528D01*
X050719Y029450D01*
X050762Y029385D01*
X050828Y029341D01*
X050906Y029325D01*
X050983Y029341D01*
X051049Y029385D01*
X051092Y029450D01*
X051108Y029528D01*
X051092Y029605D01*
X051049Y029671D01*
X050983Y029714D01*
X050906Y029730D01*
D02*
G37*
G36*
X049331Y029494D02*
X049253Y029478D01*
X049188Y029434D01*
X049144Y029369D01*
X049128Y029291D01*
X049144Y029214D01*
X049188Y029148D01*
X049253Y029104D01*
X049331Y029089D01*
X049408Y029104D01*
X049474Y029148D01*
X049518Y029214D01*
X049533Y029291D01*
X049518Y029369D01*
X049474Y029434D01*
X049408Y029478D01*
X049331Y029494D01*
D02*
G37*
G36*
X047874D02*
X047797Y029478D01*
X047731Y029434D01*
X047687Y029369D01*
X047672Y029291D01*
X047687Y029214D01*
X047731Y029148D01*
X047797Y029104D01*
X047874Y029089D01*
X047951Y029104D01*
X048017Y029148D01*
X048061Y029214D01*
X048076Y029291D01*
X048061Y029369D01*
X048017Y029434D01*
X047951Y029478D01*
X047874Y029494D01*
D02*
G37*
G36*
X046890D02*
X046812Y029478D01*
X046747Y029434D01*
X046703Y029369D01*
X046687Y029291D01*
X046703Y029214D01*
X046747Y029148D01*
X046812Y029104D01*
X046890Y029089D01*
X046967Y029104D01*
X047033Y029148D01*
X047077Y029214D01*
X047092Y029291D01*
X047077Y029369D01*
X047033Y029434D01*
X046967Y029478D01*
X046890Y029494D01*
D02*
G37*
G36*
X044724D02*
X044647Y029478D01*
X044581Y029434D01*
X044538Y029369D01*
X044522Y029291D01*
X044538Y029214D01*
X044581Y029148D01*
X044647Y029104D01*
X044724Y029089D01*
X044802Y029104D01*
X044867Y029148D01*
X044911Y029214D01*
X044927Y029291D01*
X044911Y029369D01*
X044867Y029434D01*
X044802Y029478D01*
X044724Y029494D01*
D02*
G37*
G36*
X043622D02*
X043545Y029478D01*
X043479Y029434D01*
X043435Y029369D01*
X043420Y029291D01*
X043435Y029214D01*
X043479Y029148D01*
X043545Y029104D01*
X043622Y029089D01*
X043699Y029104D01*
X043765Y029148D01*
X043809Y029214D01*
X043824Y029291D01*
X043809Y029369D01*
X043765Y029434D01*
X043699Y029478D01*
X043622Y029494D01*
D02*
G37*
G36*
X042362D02*
X042285Y029478D01*
X042219Y029434D01*
X042175Y029369D01*
X042160Y029291D01*
X042175Y029214D01*
X042219Y029148D01*
X042285Y029104D01*
X042362Y029089D01*
X042440Y029104D01*
X042505Y029148D01*
X042549Y029214D01*
X042565Y029291D01*
X042549Y029369D01*
X042505Y029434D01*
X042440Y029478D01*
X042362Y029494D01*
D02*
G37*
G36*
X041220D02*
X041143Y029478D01*
X041077Y029434D01*
X041034Y029369D01*
X041018Y029291D01*
X041034Y029214D01*
X041077Y029148D01*
X041143Y029104D01*
X041220Y029089D01*
X041298Y029104D01*
X041364Y029148D01*
X041407Y029214D01*
X041423Y029291D01*
X041407Y029369D01*
X041364Y029434D01*
X041298Y029478D01*
X041220Y029494D01*
D02*
G37*
G36*
X039576Y027705D02*
X039499Y027690D01*
X039433Y027646D01*
X039390Y027580D01*
X039374Y027503D01*
X039390Y027425D01*
X039433Y027360D01*
X039499Y027316D01*
X039576Y027300D01*
X039654Y027316D01*
X039719Y027360D01*
X039763Y027425D01*
X039779Y027503D01*
X039763Y027580D01*
X039719Y027646D01*
X039654Y027690D01*
X039576Y027705D01*
D02*
G37*
G36*
X039094Y027250D02*
X039017Y027234D01*
X038951Y027190D01*
X038908Y027125D01*
X038892Y027047D01*
X038908Y026970D01*
X038951Y026904D01*
X039017Y026860D01*
X039094Y026845D01*
X039172Y026860D01*
X039238Y026904D01*
X039281Y026970D01*
X039297Y027047D01*
X039281Y027125D01*
X039238Y027190D01*
X039172Y027234D01*
X039094Y027250D01*
D02*
G37*
G36*
X040315Y027013D02*
X040238Y026998D01*
X040172Y026954D01*
X040128Y026888D01*
X040113Y026811D01*
X040128Y026734D01*
X040172Y026668D01*
X040238Y026624D01*
X040315Y026609D01*
X040392Y026624D01*
X040458Y026668D01*
X040502Y026734D01*
X040517Y026811D01*
X040502Y026888D01*
X040458Y026954D01*
X040392Y026998D01*
X040315Y027013D01*
D02*
G37*
G36*
X039882Y026502D02*
X039804Y026486D01*
X039739Y026442D01*
X039695Y026377D01*
X039680Y026299D01*
X039695Y026222D01*
X039739Y026156D01*
X039804Y026112D01*
X039882Y026097D01*
X039959Y026112D01*
X040025Y026156D01*
X040069Y026222D01*
X040084Y026299D01*
X040069Y026377D01*
X040025Y026442D01*
X039959Y026486D01*
X039882Y026502D01*
D02*
G37*
G36*
X049488Y026423D02*
X049411Y026407D01*
X049345Y026364D01*
X049301Y026298D01*
X049286Y026220D01*
X049301Y026143D01*
X049345Y026077D01*
X049411Y026034D01*
X049488Y026018D01*
X049566Y026034D01*
X049631Y026077D01*
X049675Y026143D01*
X049690Y026220D01*
X049675Y026298D01*
X049631Y026364D01*
X049566Y026407D01*
X049488Y026423D01*
D02*
G37*
G36*
X048150D02*
X048072Y026407D01*
X048007Y026364D01*
X047963Y026298D01*
X047947Y026220D01*
X047963Y026143D01*
X048007Y026077D01*
X048072Y026034D01*
X048150Y026018D01*
X048227Y026034D01*
X048293Y026077D01*
X048337Y026143D01*
X048352Y026220D01*
X048337Y026298D01*
X048293Y026364D01*
X048227Y026407D01*
X048150Y026423D01*
D02*
G37*
G36*
X046890D02*
X046812Y026407D01*
X046747Y026364D01*
X046703Y026298D01*
X046687Y026220D01*
X046703Y026143D01*
X046747Y026077D01*
X046812Y026034D01*
X046890Y026018D01*
X046967Y026034D01*
X047033Y026077D01*
X047077Y026143D01*
X047092Y026220D01*
X047077Y026298D01*
X047033Y026364D01*
X046967Y026407D01*
X046890Y026423D01*
D02*
G37*
G36*
X044724D02*
X044647Y026407D01*
X044581Y026364D01*
X044538Y026298D01*
X044522Y026220D01*
X044538Y026143D01*
X044581Y026077D01*
X044647Y026034D01*
X044724Y026018D01*
X044802Y026034D01*
X044867Y026077D01*
X044911Y026143D01*
X044927Y026220D01*
X044911Y026298D01*
X044867Y026364D01*
X044802Y026407D01*
X044724Y026423D01*
D02*
G37*
G36*
X043425D02*
X043348Y026407D01*
X043282Y026364D01*
X043238Y026298D01*
X043223Y026220D01*
X043238Y026143D01*
X043282Y026077D01*
X043348Y026034D01*
X043425Y026018D01*
X043503Y026034D01*
X043568Y026077D01*
X043612Y026143D01*
X043628Y026220D01*
X043612Y026298D01*
X043568Y026364D01*
X043503Y026407D01*
X043425Y026423D01*
D02*
G37*
G36*
X042283D02*
X042206Y026407D01*
X042140Y026364D01*
X042097Y026298D01*
X042081Y026220D01*
X042097Y026143D01*
X042140Y026077D01*
X042206Y026034D01*
X042283Y026018D01*
X042361Y026034D01*
X042427Y026077D01*
X042470Y026143D01*
X042486Y026220D01*
X042470Y026298D01*
X042427Y026364D01*
X042361Y026407D01*
X042283Y026423D01*
D02*
G37*
G36*
X041063D02*
X040986Y026407D01*
X040920Y026364D01*
X040876Y026298D01*
X040861Y026220D01*
X040876Y026143D01*
X040920Y026077D01*
X040986Y026034D01*
X041063Y026018D01*
X041140Y026034D01*
X041206Y026077D01*
X041250Y026143D01*
X041265Y026220D01*
X041250Y026298D01*
X041206Y026364D01*
X041140Y026407D01*
X041063Y026423D01*
D02*
G37*
G36*
X053443Y026220D02*
X053440Y026220D01*
X053344Y026180D01*
X053261Y026117D01*
X053198Y026034D01*
X053158Y025938D01*
X053158Y025935D01*
X053443D01*
Y026220D01*
D02*
G37*
G36*
X051023Y025915D02*
X050945Y025900D01*
X050880Y025856D01*
X050836Y025790D01*
X050820Y025713D01*
X050836Y025635D01*
X050880Y025570D01*
X050945Y025526D01*
X051023Y025510D01*
X051100Y025526D01*
X051166Y025570D01*
X051210Y025635D01*
X051225Y025713D01*
X051210Y025790D01*
X051166Y025856D01*
X051100Y025900D01*
X051023Y025915D01*
D02*
G37*
G36*
X053443Y025735D02*
X053158D01*
X053158Y025731D01*
X053198Y025635D01*
X053261Y025553D01*
X053344Y025489D01*
X053440Y025450D01*
X053443Y025449D01*
Y025735D01*
D02*
G37*
G36*
X048150Y025793D02*
X048072Y025777D01*
X048007Y025734D01*
X047963Y025668D01*
X047947Y025591D01*
X047963Y025513D01*
X048007Y025447D01*
X048072Y025404D01*
X048150Y025388D01*
X048227Y025404D01*
X048293Y025447D01*
X048337Y025513D01*
X048352Y025591D01*
X048337Y025668D01*
X048293Y025734D01*
X048227Y025777D01*
X048150Y025793D01*
D02*
G37*
G36*
X044724D02*
X044647Y025777D01*
X044581Y025734D01*
X044538Y025668D01*
X044522Y025591D01*
X044538Y025513D01*
X044581Y025447D01*
X044647Y025404D01*
X044724Y025388D01*
X044802Y025404D01*
X044867Y025447D01*
X044911Y025513D01*
X044927Y025591D01*
X044911Y025668D01*
X044867Y025734D01*
X044802Y025777D01*
X044724Y025793D01*
D02*
G37*
G36*
X049488Y025753D02*
X049411Y025738D01*
X049345Y025694D01*
X049301Y025629D01*
X049286Y025551D01*
X049301Y025474D01*
X049345Y025408D01*
X049411Y025364D01*
X049488Y025349D01*
X049566Y025364D01*
X049631Y025408D01*
X049675Y025474D01*
X049690Y025551D01*
X049675Y025629D01*
X049631Y025694D01*
X049566Y025738D01*
X049488Y025753D01*
D02*
G37*
G36*
X046890D02*
X046812Y025738D01*
X046747Y025694D01*
X046703Y025629D01*
X046687Y025551D01*
X046703Y025474D01*
X046747Y025408D01*
X046812Y025364D01*
X046890Y025349D01*
X046967Y025364D01*
X047033Y025408D01*
X047077Y025474D01*
X047092Y025551D01*
X047077Y025629D01*
X047033Y025694D01*
X046967Y025738D01*
X046890Y025753D01*
D02*
G37*
G36*
X043425D02*
X043348Y025738D01*
X043282Y025694D01*
X043238Y025629D01*
X043223Y025551D01*
X043238Y025474D01*
X043282Y025408D01*
X043348Y025364D01*
X043425Y025349D01*
X043503Y025364D01*
X043568Y025408D01*
X043612Y025474D01*
X043628Y025551D01*
X043612Y025629D01*
X043568Y025694D01*
X043503Y025738D01*
X043425Y025753D01*
D02*
G37*
G36*
X042283D02*
X042206Y025738D01*
X042140Y025694D01*
X042097Y025629D01*
X042081Y025551D01*
X042097Y025474D01*
X042140Y025408D01*
X042206Y025364D01*
X042283Y025349D01*
X042361Y025364D01*
X042427Y025408D01*
X042470Y025474D01*
X042486Y025551D01*
X042470Y025629D01*
X042427Y025694D01*
X042361Y025738D01*
X042283Y025753D01*
D02*
G37*
G36*
X041063D02*
X040986Y025738D01*
X040920Y025694D01*
X040876Y025629D01*
X040861Y025551D01*
X040876Y025474D01*
X040920Y025408D01*
X040986Y025364D01*
X041063Y025349D01*
X041140Y025364D01*
X041206Y025408D01*
X041250Y025474D01*
X041265Y025551D01*
X041250Y025629D01*
X041206Y025694D01*
X041140Y025738D01*
X041063Y025753D01*
D02*
G37*
G36*
X050591Y025439D02*
X050513Y025423D01*
X050447Y025379D01*
X050404Y025314D01*
X050388Y025236D01*
X050404Y025159D01*
X050447Y025093D01*
X050513Y025049D01*
X050591Y025034D01*
X050668Y025049D01*
X050734Y025093D01*
X050777Y025159D01*
X050793Y025236D01*
X050777Y025314D01*
X050734Y025379D01*
X050668Y025423D01*
X050591Y025439D01*
D02*
G37*
G36*
X051929Y025045D02*
X051852Y025029D01*
X051786Y024986D01*
X051742Y024920D01*
X051727Y024843D01*
X051742Y024765D01*
X051786Y024699D01*
X051852Y024656D01*
X051929Y024640D01*
X052007Y024656D01*
X052072Y024699D01*
X052116Y024765D01*
X052131Y024843D01*
X052116Y024920D01*
X052072Y024986D01*
X052007Y025029D01*
X051929Y025045D01*
D02*
G37*
G36*
X029650Y025352D02*
X029573Y025337D01*
X029507Y025293D01*
X029463Y025227D01*
X029448Y025150D01*
X029463Y025073D01*
X029507Y025007D01*
X029530Y024992D01*
Y024932D01*
X029517Y024923D01*
X029473Y024857D01*
X029458Y024780D01*
X029473Y024703D01*
X029517Y024637D01*
X029583Y024593D01*
X029660Y024578D01*
X029737Y024593D01*
X029803Y024637D01*
X029847Y024703D01*
X029862Y024780D01*
X029847Y024857D01*
X029803Y024923D01*
X029780Y024938D01*
Y024998D01*
X029793Y025007D01*
X029837Y025073D01*
X029852Y025150D01*
X029837Y025227D01*
X029793Y025293D01*
X029727Y025337D01*
X029650Y025352D01*
D02*
G37*
G36*
X035980Y024122D02*
X035903Y024107D01*
X035837Y024063D01*
X035820Y024038D01*
X035770D01*
X035753Y024063D01*
X035687Y024107D01*
X035610Y024122D01*
X035533Y024107D01*
X035467Y024063D01*
X035428Y024005D01*
X035394Y023998D01*
X035372Y023999D01*
X035343Y024043D01*
X035277Y024087D01*
X035200Y024102D01*
X035123Y024087D01*
X035057Y024043D01*
X035013Y023977D01*
X034998Y023900D01*
X035013Y023823D01*
X035057Y023757D01*
X035123Y023713D01*
X035200Y023698D01*
X035277Y023713D01*
X035343Y023757D01*
X035382Y023815D01*
X035416Y023822D01*
X035438Y023821D01*
X035467Y023777D01*
X035533Y023733D01*
X035610Y023718D01*
X035687Y023733D01*
X035753Y023777D01*
X035770Y023802D01*
X035820D01*
X035837Y023777D01*
X035903Y023733D01*
X035980Y023718D01*
X036057Y023733D01*
X036123Y023777D01*
X036167Y023843D01*
X036182Y023920D01*
X036167Y023997D01*
X036123Y024063D01*
X036057Y024107D01*
X035980Y024122D01*
D02*
G37*
G36*
X052835Y024376D02*
X052757Y024360D01*
X052692Y024316D01*
X052648Y024251D01*
X052632Y024173D01*
X052648Y024096D01*
X052692Y024030D01*
X052757Y023986D01*
X052835Y023971D01*
X052912Y023986D01*
X052978Y024030D01*
X053022Y024096D01*
X053037Y024173D01*
X053022Y024251D01*
X052978Y024316D01*
X052912Y024360D01*
X052835Y024376D01*
D02*
G37*
G36*
X052795Y023706D02*
X052718Y023691D01*
X052652Y023647D01*
X052608Y023581D01*
X052593Y023504D01*
X052608Y023427D01*
X052652Y023361D01*
X052718Y023317D01*
X052795Y023302D01*
X052873Y023317D01*
X052938Y023361D01*
X052982Y023427D01*
X052998Y023504D01*
X052982Y023581D01*
X052938Y023647D01*
X052873Y023691D01*
X052795Y023706D01*
D02*
G37*
G36*
X035056Y022230D02*
X034979Y022215D01*
X034913Y022171D01*
X034867Y022192D01*
X034841Y022210D01*
X034764Y022225D01*
X034686Y022210D01*
X034626Y022169D01*
X034566Y022210D01*
X034488Y022225D01*
X034411Y022210D01*
X034345Y022166D01*
X034301Y022100D01*
X034286Y022023D01*
X034301Y021945D01*
X034338Y021891D01*
X034342Y021858D01*
X034338Y021825D01*
X034301Y021770D01*
X034286Y021693D01*
X034301Y021615D01*
X034345Y021550D01*
X034411Y021506D01*
X034488Y021491D01*
X034566Y021506D01*
X034626Y021546D01*
X034686Y021506D01*
X034764Y021491D01*
X034841Y021506D01*
X034907Y021550D01*
X034953Y021528D01*
X034979Y021511D01*
X035056Y021495D01*
X035133Y021511D01*
X035164Y021531D01*
X035211Y021550D01*
X035277Y021506D01*
X035354Y021491D01*
X035432Y021506D01*
X035497Y021550D01*
X035541Y021615D01*
X035557Y021693D01*
X035541Y021770D01*
X035505Y021825D01*
X035500Y021858D01*
X035505Y021891D01*
X035541Y021945D01*
X035557Y022023D01*
X035541Y022100D01*
X035497Y022166D01*
X035432Y022210D01*
X035354Y022225D01*
X035277Y022210D01*
X035247Y022190D01*
X035199Y022171D01*
X035133Y022215D01*
X035056Y022230D01*
D02*
G37*
G36*
X049883Y024883D02*
X049612Y024865D01*
X049346Y024812D01*
X049089Y024725D01*
X048846Y024605D01*
X048621Y024455D01*
X048417Y024276D01*
X048238Y024072D01*
X048087Y023846D01*
X047967Y023603D01*
X047880Y023347D01*
X047827Y023081D01*
X047810Y022810D01*
X047827Y022539D01*
X047880Y022273D01*
X047967Y022017D01*
X048087Y021774D01*
X048238Y021548D01*
X048417Y021344D01*
X048621Y021165D01*
X048846Y021015D01*
X049089Y020895D01*
X049346Y020808D01*
X049612Y020755D01*
X049883Y020737D01*
X050153Y020755D01*
X050419Y020808D01*
X050676Y020895D01*
X050919Y021015D01*
X051144Y021165D01*
X051348Y021344D01*
X051527Y021548D01*
X051678Y021774D01*
X051798Y022017D01*
X051885Y022273D01*
X051938Y022539D01*
X051955Y022810D01*
X051938Y023081D01*
X051885Y023347D01*
X051798Y023603D01*
X051678Y023846D01*
X051527Y024072D01*
X051510Y024092D01*
X051528Y024146D01*
X051558Y024152D01*
X051624Y024196D01*
X051668Y024262D01*
X051683Y024339D01*
X051668Y024416D01*
X051624Y024482D01*
X051558Y024526D01*
X051481Y024541D01*
X051403Y024526D01*
X051338Y024482D01*
X051294Y024416D01*
X051289Y024394D01*
X051235Y024376D01*
X051144Y024455D01*
X050919Y024605D01*
X050676Y024725D01*
X050419Y024812D01*
X050153Y024865D01*
X049883Y024883D01*
D02*
G37*
G36*
X040040D02*
X039769Y024865D01*
X039503Y024812D01*
X039247Y024725D01*
X039004Y024605D01*
X038778Y024455D01*
X038574Y024276D01*
X038395Y024072D01*
X038245Y023846D01*
X038125Y023603D01*
X038038Y023347D01*
X037985Y023081D01*
X037967Y022810D01*
X037985Y022539D01*
X038038Y022273D01*
X038125Y022017D01*
X038245Y021774D01*
X038395Y021548D01*
X038574Y021344D01*
X038778Y021165D01*
X039004Y021015D01*
X039247Y020895D01*
X039503Y020808D01*
X039769Y020755D01*
X040040Y020737D01*
X040311Y020755D01*
X040577Y020808D01*
X040833Y020895D01*
X041076Y021015D01*
X041302Y021165D01*
X041506Y021344D01*
X041685Y021548D01*
X041835Y021774D01*
X041955Y022017D01*
X042042Y022273D01*
X042095Y022539D01*
X042113Y022810D01*
X042095Y023081D01*
X042042Y023347D01*
X041955Y023603D01*
X041835Y023846D01*
X041685Y024072D01*
X041506Y024276D01*
X041302Y024455D01*
X041076Y024605D01*
X040833Y024725D01*
X040577Y024812D01*
X040311Y024865D01*
X040040Y024883D01*
D02*
G37*
G36*
X033480Y020672D02*
X033403Y020657D01*
X033337Y020613D01*
X033293Y020547D01*
X033278Y020470D01*
X033293Y020393D01*
X033337Y020327D01*
X033403Y020283D01*
X033480Y020268D01*
X033557Y020283D01*
X033623Y020327D01*
X033667Y020393D01*
X033682Y020470D01*
X033667Y020547D01*
X033623Y020613D01*
X033557Y020657D01*
X033480Y020672D01*
D02*
G37*
G36*
X036210Y020652D02*
X036133Y020637D01*
X036067Y020593D01*
X036023Y020527D01*
X036008Y020450D01*
X036023Y020373D01*
X036067Y020307D01*
X036133Y020263D01*
X036210Y020248D01*
X036287Y020263D01*
X036353Y020307D01*
X036397Y020373D01*
X036412Y020450D01*
X036397Y020527D01*
X036353Y020593D01*
X036287Y020637D01*
X036210Y020652D01*
D02*
G37*
G36*
X028150Y020514D02*
X028073Y020499D01*
X028007Y020455D01*
X027963Y020389D01*
X027948Y020312D01*
X027963Y020234D01*
X028007Y020169D01*
X028073Y020125D01*
X028150Y020109D01*
X028228Y020125D01*
X028293Y020169D01*
X028337Y020234D01*
X028353Y020312D01*
X028337Y020389D01*
X028293Y020455D01*
X028228Y020499D01*
X028150Y020514D01*
D02*
G37*
G36*
X029320Y020042D02*
X029243Y020027D01*
X029177Y019983D01*
X029133Y019917D01*
X029118Y019840D01*
X029133Y019763D01*
X029177Y019697D01*
X029243Y019653D01*
X029320Y019638D01*
X029397Y019653D01*
X029463Y019697D01*
X029507Y019763D01*
X029522Y019840D01*
X029507Y019917D01*
X029463Y019983D01*
X029397Y020027D01*
X029320Y020042D01*
D02*
G37*
G36*
X034990Y019742D02*
X034913Y019727D01*
X034847Y019683D01*
X034803Y019617D01*
X034788Y019540D01*
X034803Y019463D01*
X034847Y019397D01*
X034913Y019353D01*
X034990Y019338D01*
X035067Y019353D01*
X035133Y019397D01*
X035177Y019463D01*
X035192Y019540D01*
X035177Y019617D01*
X035133Y019683D01*
X035067Y019727D01*
X034990Y019742D01*
D02*
G37*
G36*
X040800Y019582D02*
X040723Y019567D01*
X040657Y019523D01*
X040613Y019457D01*
X040598Y019380D01*
X040613Y019303D01*
X040657Y019237D01*
X040723Y019193D01*
X040800Y019178D01*
X040877Y019193D01*
X040943Y019237D01*
X040987Y019303D01*
X041002Y019380D01*
X040987Y019457D01*
X040943Y019523D01*
X040877Y019567D01*
X040800Y019582D01*
D02*
G37*
G36*
X040050Y019572D02*
X039973Y019557D01*
X039907Y019513D01*
X039863Y019447D01*
X039848Y019370D01*
X039863Y019293D01*
X039907Y019227D01*
X039973Y019183D01*
X040050Y019168D01*
X040127Y019183D01*
X040193Y019227D01*
X040237Y019293D01*
X040252Y019370D01*
X040237Y019447D01*
X040193Y019513D01*
X040127Y019557D01*
X040050Y019572D01*
D02*
G37*
G36*
X042300Y019562D02*
X042223Y019547D01*
X042157Y019503D01*
X042113Y019437D01*
X042098Y019360D01*
X042113Y019283D01*
X042157Y019217D01*
X042223Y019173D01*
X042300Y019158D01*
X042377Y019173D01*
X042443Y019217D01*
X042487Y019283D01*
X042502Y019360D01*
X042487Y019437D01*
X042443Y019503D01*
X042377Y019547D01*
X042300Y019562D01*
D02*
G37*
G36*
X030533Y019186D02*
X030456Y019171D01*
X030390Y019127D01*
X030346Y019062D01*
X030331Y018984D01*
X030346Y018907D01*
X030390Y018841D01*
X030456Y018797D01*
X030533Y018782D01*
X030610Y018797D01*
X030676Y018841D01*
X030720Y018907D01*
X030735Y018984D01*
X030720Y019062D01*
X030676Y019127D01*
X030610Y019171D01*
X030533Y019186D01*
D02*
G37*
G36*
X046038Y019161D02*
Y018776D01*
X046422D01*
X046419Y018805D01*
X046369Y018925D01*
X046290Y019028D01*
X046187Y019107D01*
X046067Y019157D01*
X046038Y019161D01*
D02*
G37*
G36*
X032120Y019102D02*
X032043Y019087D01*
X031977Y019043D01*
X031933Y018977D01*
X031918Y018900D01*
X031933Y018823D01*
X031977Y018757D01*
X032043Y018713D01*
X032120Y018698D01*
X032197Y018713D01*
X032263Y018757D01*
X032307Y018823D01*
X032322Y018900D01*
X032307Y018977D01*
X032263Y019043D01*
X032197Y019087D01*
X032120Y019102D01*
D02*
G37*
G36*
X033750Y019072D02*
X033673Y019057D01*
X033607Y019013D01*
X033563Y018947D01*
X033548Y018870D01*
X033563Y018793D01*
X033607Y018727D01*
X033673Y018683D01*
X033750Y018668D01*
X033827Y018683D01*
X033893Y018727D01*
X033937Y018793D01*
X033952Y018870D01*
X033937Y018947D01*
X033893Y019013D01*
X033827Y019057D01*
X033750Y019072D01*
D02*
G37*
G36*
X046422Y018576D02*
X046038D01*
Y018191D01*
X046067Y018195D01*
X046187Y018245D01*
X046290Y018324D01*
X046369Y018427D01*
X046419Y018547D01*
X046422Y018576D01*
D02*
G37*
G36*
X050128Y018919D02*
X049298D01*
Y018089D01*
X050128D01*
Y018919D01*
D02*
G37*
G36*
X048713Y018922D02*
X048604Y018908D01*
X048503Y018866D01*
X048417Y018800D01*
X048350Y018713D01*
X048308Y018612D01*
X048294Y018504D01*
X048308Y018396D01*
X048350Y018295D01*
X048417Y018208D01*
X048503Y018141D01*
X048604Y018100D01*
X048713Y018085D01*
X048821Y018100D01*
X048922Y018141D01*
X049009Y018208D01*
X049075Y018295D01*
X049117Y018396D01*
X049131Y018504D01*
X049117Y018612D01*
X049075Y018713D01*
X049009Y018800D01*
X048922Y018866D01*
X048821Y018908D01*
X048713Y018922D01*
D02*
G37*
G36*
X037230Y017962D02*
X037153Y017947D01*
X037087Y017903D01*
X037084Y017899D01*
X037027Y017937D01*
X036950Y017952D01*
X036873Y017937D01*
X036827Y017907D01*
X036767Y017947D01*
X036690Y017962D01*
X036613Y017947D01*
X036558Y017910D01*
X036517Y017937D01*
X036440Y017952D01*
X036363Y017937D01*
X036297Y017893D01*
X036253Y017827D01*
X036238Y017750D01*
X036253Y017673D01*
X036297Y017607D01*
X036363Y017563D01*
X036440Y017548D01*
X036517Y017563D01*
X036572Y017600D01*
X036613Y017573D01*
X036690Y017558D01*
X036767Y017573D01*
X036813Y017603D01*
X036873Y017563D01*
X036950Y017548D01*
X037027Y017563D01*
X037093Y017607D01*
X037096Y017611D01*
X037153Y017573D01*
X037230Y017558D01*
X037307Y017573D01*
X037373Y017617D01*
X037417Y017683D01*
X037432Y017760D01*
X037417Y017837D01*
X037373Y017903D01*
X037307Y017947D01*
X037230Y017962D01*
D02*
G37*
G36*
X033610Y016962D02*
X033533Y016947D01*
X033467Y016903D01*
X033466Y016902D01*
X033403Y016897D01*
X033357Y016927D01*
X033280Y016942D01*
X033203Y016927D01*
X033137Y016883D01*
X033093Y016817D01*
X033078Y016740D01*
X033093Y016663D01*
X033137Y016597D01*
X033203Y016553D01*
X033280Y016538D01*
X033357Y016553D01*
X033421Y016596D01*
X033463Y016617D01*
X033467D01*
X033533Y016573D01*
X033610Y016558D01*
X033687Y016573D01*
X033753Y016617D01*
X033797Y016683D01*
X033812Y016760D01*
X033797Y016837D01*
X033753Y016903D01*
X033687Y016947D01*
X033610Y016962D01*
D02*
G37*
G36*
X041520Y017192D02*
X041443Y017177D01*
X041377Y017133D01*
X041333Y017067D01*
X041318Y016990D01*
X041333Y016913D01*
X041377Y016847D01*
X041443Y016803D01*
X041520Y016788D01*
X041597Y016803D01*
X041663Y016847D01*
X041707Y016913D01*
X041722Y016990D01*
X041707Y017067D01*
X041663Y017133D01*
X041597Y017177D01*
X041520Y017192D01*
D02*
G37*
G36*
X042320Y017182D02*
X042243Y017167D01*
X042177Y017123D01*
X042133Y017057D01*
X042118Y016980D01*
X042133Y016903D01*
X042177Y016837D01*
X042243Y016793D01*
X042320Y016778D01*
X042397Y016793D01*
X042463Y016837D01*
X042507Y016903D01*
X042522Y016980D01*
X042507Y017057D01*
X042463Y017123D01*
X042397Y017167D01*
X042320Y017182D01*
D02*
G37*
G36*
X031175Y017147D02*
X031098Y017132D01*
X031032Y017088D01*
X030988Y017022D01*
X030973Y016945D01*
X030988Y016867D01*
X031032Y016802D01*
X031098Y016758D01*
X031175Y016742D01*
X031253Y016758D01*
X031318Y016802D01*
X031362Y016867D01*
X031378Y016945D01*
X031362Y017022D01*
X031318Y017088D01*
X031253Y017132D01*
X031175Y017147D01*
D02*
G37*
G36*
X032005Y017117D02*
X031928Y017102D01*
X031862Y017058D01*
X031818Y016992D01*
X031803Y016915D01*
X031818Y016838D01*
X031862Y016772D01*
X031928Y016728D01*
X032005Y016713D01*
X032082Y016728D01*
X032148Y016772D01*
X032192Y016838D01*
X032207Y016915D01*
X032192Y016992D01*
X032148Y017058D01*
X032082Y017102D01*
X032005Y017117D01*
D02*
G37*
G36*
X039134Y016816D02*
X039056Y016801D01*
X038991Y016757D01*
X038947Y016692D01*
X038932Y016614D01*
X038947Y016537D01*
X038991Y016471D01*
X039056Y016427D01*
X039134Y016412D01*
X039211Y016427D01*
X039277Y016471D01*
X039321Y016537D01*
X039336Y016614D01*
X039321Y016692D01*
X039277Y016757D01*
X039211Y016801D01*
X039134Y016816D01*
D02*
G37*
G36*
X042422Y042158D02*
X042345Y042143D01*
X042279Y042099D01*
X042235Y042033D01*
X042220Y041956D01*
X042235Y041878D01*
X042279Y041813D01*
X042309Y041793D01*
Y041733D01*
X042289Y041719D01*
X042245Y041653D01*
X042230Y041576D01*
X042245Y041498D01*
X042289Y041433D01*
X042355Y041389D01*
X042432Y041374D01*
X042510Y041389D01*
X042575Y041433D01*
X042619Y041498D01*
X042635Y041576D01*
X042619Y041653D01*
X042575Y041719D01*
X042545Y041739D01*
Y041799D01*
X042565Y041813D01*
X042609Y041878D01*
X042625Y041956D01*
X042609Y042033D01*
X042565Y042099D01*
X042500Y042143D01*
X042422Y042158D01*
D02*
G37*
G36*
X039023Y041555D02*
X038945Y041540D01*
X038880Y041496D01*
X038836Y041430D01*
X038821Y041353D01*
X038836Y041276D01*
X038880Y041210D01*
X038945Y041166D01*
X039023Y041151D01*
X039100Y041166D01*
X039166Y041210D01*
X039210Y041276D01*
X039225Y041353D01*
X039210Y041430D01*
X039166Y041496D01*
X039100Y041540D01*
X039023Y041555D01*
D02*
G37*
G36*
X042182Y041168D02*
X042105Y041153D01*
X042039Y041109D01*
X041995Y041043D01*
X041980Y040966D01*
X041995Y040888D01*
X042039Y040823D01*
X042105Y040779D01*
X042182Y040764D01*
X042260Y040779D01*
X042307Y040751D01*
X042313Y040723D01*
X042357Y040657D01*
X042423Y040613D01*
X042500Y040598D01*
X042577Y040613D01*
X042643Y040657D01*
X042687Y040723D01*
X042702Y040800D01*
X042687Y040877D01*
X042643Y040943D01*
X042577Y040987D01*
X042500Y041002D01*
X042423Y040987D01*
X042375Y041015D01*
X042369Y041043D01*
X042325Y041109D01*
X042260Y041153D01*
X042182Y041168D01*
D02*
G37*
G36*
X038999Y040616D02*
X038921Y040600D01*
X038856Y040557D01*
X038812Y040491D01*
X038796Y040413D01*
X038812Y040336D01*
X038856Y040270D01*
X038921Y040227D01*
X038999Y040211D01*
X039076Y040227D01*
X039142Y040270D01*
X039186Y040336D01*
X039201Y040413D01*
X039186Y040491D01*
X039142Y040557D01*
X039076Y040600D01*
X038999Y040616D01*
D02*
G37*
G36*
X037772Y040612D02*
X037694Y040597D01*
X037628Y040553D01*
X037585Y040487D01*
X037569Y040410D01*
X037585Y040332D01*
X037628Y040267D01*
X037694Y040223D01*
X037772Y040207D01*
X037849Y040223D01*
X037915Y040267D01*
X037958Y040332D01*
X037974Y040410D01*
X037958Y040487D01*
X037915Y040553D01*
X037849Y040597D01*
X037772Y040612D01*
D02*
G37*
G36*
X038379Y040601D02*
X038301Y040586D01*
X038235Y040542D01*
X038192Y040476D01*
X038176Y040399D01*
X038192Y040321D01*
X038235Y040256D01*
X038301Y040212D01*
X038379Y040197D01*
X038456Y040212D01*
X038522Y040256D01*
X038565Y040321D01*
X038581Y040399D01*
X038565Y040476D01*
X038522Y040542D01*
X038456Y040586D01*
X038379Y040601D01*
D02*
G37*
G36*
X037419Y039761D02*
X037341Y039745D01*
X037276Y039701D01*
X037232Y039636D01*
X037217Y039558D01*
X037232Y039481D01*
X037276Y039415D01*
X037341Y039371D01*
X037419Y039356D01*
X037496Y039371D01*
X037562Y039415D01*
X037606Y039481D01*
X037621Y039558D01*
X037606Y039636D01*
X037562Y039701D01*
X037496Y039745D01*
X037419Y039761D01*
D02*
G37*
G36*
X036874Y039641D02*
X036796Y039626D01*
X036731Y039582D01*
X036687Y039517D01*
X036671Y039439D01*
X036687Y039362D01*
X036731Y039296D01*
X036796Y039252D01*
X036874Y039237D01*
X036951Y039252D01*
X037017Y039296D01*
X037061Y039362D01*
X037076Y039439D01*
X037061Y039517D01*
X037017Y039582D01*
X036951Y039626D01*
X036874Y039641D01*
D02*
G37*
G36*
X037734Y039296D02*
X037656Y039280D01*
X037591Y039236D01*
X037547Y039171D01*
X037531Y039093D01*
X037547Y039016D01*
X037591Y038950D01*
X037656Y038907D01*
X037734Y038891D01*
X037811Y038907D01*
X037877Y038950D01*
X037921Y039016D01*
X037936Y039093D01*
X037921Y039171D01*
X037877Y039236D01*
X037811Y039280D01*
X037734Y039296D01*
D02*
G37*
G36*
X039016Y039257D02*
X038938Y039242D01*
X038873Y039198D01*
X038829Y039133D01*
X038813Y039055D01*
X038829Y038978D01*
X038873Y038912D01*
X038938Y038868D01*
X039016Y038853D01*
X039093Y038868D01*
X039159Y038912D01*
X039203Y038978D01*
X039218Y039055D01*
X039203Y039133D01*
X039159Y039198D01*
X039093Y039242D01*
X039016Y039257D01*
D02*
G37*
G36*
X038389Y039255D02*
X038312Y039239D01*
X038246Y039195D01*
X038203Y039130D01*
X038187Y039052D01*
X038203Y038975D01*
X038246Y038909D01*
X038312Y038865D01*
X038389Y038850D01*
X038467Y038865D01*
X038533Y038909D01*
X038576Y038975D01*
X038592Y039052D01*
X038576Y039130D01*
X038533Y039195D01*
X038467Y039239D01*
X038389Y039255D01*
D02*
G37*
G36*
X041020Y038202D02*
X040943Y038187D01*
X040877Y038143D01*
X040833Y038077D01*
X040818Y038000D01*
X040833Y037923D01*
X040877Y037857D01*
X040943Y037813D01*
X041020Y037798D01*
X041097Y037813D01*
X041163Y037857D01*
X041207Y037923D01*
X041222Y038000D01*
X041207Y038077D01*
X041163Y038143D01*
X041097Y038187D01*
X041020Y038202D01*
D02*
G37*
G36*
X039019Y038086D02*
X038941Y038070D01*
X038876Y038026D01*
X038832Y037961D01*
X038816Y037883D01*
X038832Y037806D01*
X038876Y037740D01*
X038941Y037696D01*
X039019Y037681D01*
X039096Y037696D01*
X039162Y037740D01*
X039206Y037806D01*
X039221Y037883D01*
X039206Y037961D01*
X039162Y038026D01*
X039096Y038070D01*
X039019Y038086D01*
D02*
G37*
G36*
X038393Y038080D02*
X038316Y038064D01*
X038250Y038021D01*
X038206Y037955D01*
X038191Y037878D01*
X038206Y037800D01*
X038250Y037734D01*
X038316Y037691D01*
X038393Y037675D01*
X038471Y037691D01*
X038536Y037734D01*
X038580Y037800D01*
X038595Y037878D01*
X038580Y037955D01*
X038536Y038021D01*
X038471Y038064D01*
X038393Y038080D01*
D02*
G37*
G36*
X037756Y038116D02*
X037678Y038100D01*
X037613Y038056D01*
X037569Y037991D01*
X037554Y037913D01*
X037569Y037836D01*
X037613Y037770D01*
X037672Y037731D01*
X037671Y037700D01*
X037665Y037680D01*
X037600Y037667D01*
X037534Y037623D01*
X037490Y037558D01*
X037475Y037480D01*
X037490Y037403D01*
X037534Y037337D01*
X037600Y037293D01*
X037677Y037278D01*
X037755Y037293D01*
X037820Y037337D01*
X037864Y037403D01*
X037879Y037480D01*
X037864Y037558D01*
X037820Y037623D01*
X037761Y037663D01*
X037762Y037694D01*
X037768Y037714D01*
X037833Y037726D01*
X037899Y037770D01*
X037943Y037836D01*
X037958Y037913D01*
X037943Y037991D01*
X037899Y038056D01*
X037833Y038100D01*
X037756Y038116D01*
D02*
G37*
G36*
X039016Y037289D02*
X038938Y037274D01*
X038873Y037230D01*
X038829Y037164D01*
X038813Y037087D01*
X038829Y037009D01*
X038873Y036944D01*
X038938Y036900D01*
X039016Y036884D01*
X039093Y036900D01*
X039159Y036944D01*
X039203Y037009D01*
X039218Y037087D01*
X039203Y037164D01*
X039159Y037230D01*
X039093Y037274D01*
X039016Y037289D01*
D02*
G37*
G36*
X038276Y037249D02*
X038199Y037234D01*
X038133Y037190D01*
X038089Y037124D01*
X038074Y037047D01*
X038089Y036969D01*
X038133Y036904D01*
X038199Y036860D01*
X038276Y036845D01*
X038353Y036860D01*
X038419Y036904D01*
X038463Y036969D01*
X038478Y037047D01*
X038463Y037124D01*
X038419Y037190D01*
X038353Y037234D01*
X038276Y037249D01*
D02*
G37*
G36*
X037126Y037092D02*
X037049Y037077D01*
X036983Y037033D01*
X036939Y036967D01*
X036924Y036890D01*
X036939Y036812D01*
X036983Y036747D01*
X037049Y036703D01*
X037126Y036687D01*
X037203Y036703D01*
X037269Y036747D01*
X037313Y036812D01*
X037328Y036890D01*
X037313Y036967D01*
X037269Y037033D01*
X037203Y037077D01*
X037126Y037092D01*
D02*
G37*
G36*
X037734Y036576D02*
X037657Y036560D01*
X037591Y036517D01*
X037548Y036451D01*
X037532Y036374D01*
X037548Y036296D01*
X037591Y036230D01*
X037657Y036187D01*
X037734Y036171D01*
X037812Y036187D01*
X037878Y036230D01*
X037921Y036296D01*
X037937Y036374D01*
X037921Y036451D01*
X037878Y036517D01*
X037812Y036560D01*
X037734Y036576D01*
D02*
G37*
G36*
X038518Y036035D02*
X038440Y036019D01*
X038375Y035976D01*
X038331Y035910D01*
X038316Y035832D01*
X038331Y035755D01*
X038375Y035689D01*
X038440Y035646D01*
X038518Y035630D01*
X038595Y035646D01*
X038661Y035689D01*
X038705Y035755D01*
X038720Y035832D01*
X038705Y035910D01*
X038661Y035976D01*
X038595Y036019D01*
X038518Y036035D01*
D02*
G37*
G36*
X036496Y035990D02*
X036419Y035974D01*
X036353Y035930D01*
X036309Y035865D01*
X036294Y035787D01*
X036309Y035710D01*
X036353Y035644D01*
X036419Y035600D01*
X036496Y035585D01*
X036573Y035600D01*
X036639Y035644D01*
X036683Y035710D01*
X036698Y035787D01*
X036683Y035865D01*
X036639Y035930D01*
X036573Y035974D01*
X036496Y035990D01*
D02*
G37*
G36*
X037233Y035939D02*
X037156Y035924D01*
X037090Y035880D01*
X037046Y035814D01*
X037031Y035737D01*
X037046Y035659D01*
X037090Y035594D01*
X037156Y035550D01*
X037233Y035534D01*
X037311Y035550D01*
X037376Y035594D01*
X037420Y035659D01*
X037435Y035737D01*
X037420Y035814D01*
X037376Y035880D01*
X037311Y035924D01*
X037233Y035939D01*
D02*
G37*
G36*
X037182Y034969D02*
X037104Y034954D01*
X037039Y034910D01*
X036995Y034844D01*
X036980Y034767D01*
X036995Y034690D01*
X037039Y034624D01*
X037104Y034580D01*
X037182Y034565D01*
X037259Y034580D01*
X037325Y034624D01*
X037369Y034690D01*
X037384Y034767D01*
X037369Y034844D01*
X037325Y034910D01*
X037259Y034954D01*
X037182Y034969D01*
D02*
G37*
G36*
X037913Y034966D02*
X037836Y034951D01*
X037770Y034907D01*
X037726Y034841D01*
X037711Y034764D01*
X037726Y034686D01*
X037770Y034621D01*
X037836Y034577D01*
X037913Y034561D01*
X037991Y034577D01*
X038056Y034621D01*
X038100Y034686D01*
X038116Y034764D01*
X038100Y034841D01*
X038056Y034907D01*
X037991Y034951D01*
X037913Y034966D01*
D02*
G37*
G36*
X036496D02*
X036419Y034951D01*
X036353Y034907D01*
X036309Y034841D01*
X036294Y034764D01*
X036309Y034686D01*
X036353Y034621D01*
X036419Y034577D01*
X036496Y034561D01*
X036573Y034577D01*
X036639Y034621D01*
X036683Y034686D01*
X036698Y034764D01*
X036683Y034841D01*
X036639Y034907D01*
X036573Y034951D01*
X036496Y034966D01*
D02*
G37*
G36*
Y033864D02*
X036419Y033848D01*
X036353Y033804D01*
X036309Y033739D01*
X036294Y033661D01*
X036309Y033584D01*
X036353Y033518D01*
X036419Y033475D01*
X036496Y033459D01*
X036573Y033475D01*
X036639Y033518D01*
X036683Y033584D01*
X036698Y033661D01*
X036683Y033739D01*
X036639Y033804D01*
X036573Y033848D01*
X036496Y033864D01*
D02*
G37*
G36*
X037196Y033846D02*
X037119Y033830D01*
X037053Y033786D01*
X037009Y033721D01*
X036994Y033643D01*
X037009Y033566D01*
X037053Y033500D01*
X037119Y033456D01*
X037196Y033441D01*
X037274Y033456D01*
X037339Y033500D01*
X037383Y033566D01*
X037398Y033643D01*
X037383Y033721D01*
X037339Y033786D01*
X037274Y033830D01*
X037196Y033846D01*
D02*
G37*
G36*
X036496Y032761D02*
X036419Y032746D01*
X036353Y032702D01*
X036309Y032636D01*
X036294Y032559D01*
X036309Y032482D01*
X036353Y032416D01*
X036419Y032372D01*
X036496Y032357D01*
X036573Y032372D01*
X036639Y032416D01*
X036683Y032482D01*
X036698Y032559D01*
X036683Y032636D01*
X036639Y032702D01*
X036573Y032746D01*
X036496Y032761D01*
D02*
G37*
G36*
X029710Y026822D02*
X029633Y026807D01*
X029567Y026763D01*
X029523Y026697D01*
X029508Y026620D01*
X029523Y026543D01*
X029567Y026477D01*
X029633Y026433D01*
X029710Y026418D01*
X029787Y026433D01*
X029853Y026477D01*
X029897Y026543D01*
X029912Y026620D01*
X029897Y026697D01*
X029853Y026763D01*
X029787Y026807D01*
X029710Y026822D01*
D02*
G37*
%LPD*%
D11*
X031181Y052899D02*
Y052913D01*
Y052899D02*
X031530Y052550D01*
X032090D01*
X031336Y052105D02*
X032005D01*
X032020Y052090D01*
X032090Y052550D02*
X032530Y052110D01*
X036348Y051024D02*
X037332Y052008D01*
X038332D01*
X039764Y053440D01*
X035984Y051299D02*
X037028Y052343D01*
X037667D01*
X038764Y053440D01*
X033780Y051299D02*
X035984D01*
X030716Y051614D02*
X035906D01*
X030520Y051810D02*
X030716Y051614D01*
X035906D02*
X036299Y052008D01*
X033071Y050591D02*
X033780Y051299D01*
X033976Y051024D02*
X036348D01*
X033543Y050591D02*
X033976Y051024D01*
X033850Y050510D02*
X034620D01*
X033732Y050392D02*
X033850Y050510D01*
X031657Y050392D02*
X033732D01*
X030429Y051620D02*
X031657Y050392D01*
X029894Y050896D02*
X030830Y049960D01*
X028896Y050896D02*
X029894D01*
X034167Y049960D02*
X034493D01*
X029209Y050498D02*
X029998Y049710D01*
X034250D02*
X034330Y049630D01*
X029998Y049710D02*
X034250D01*
X034000Y049500D02*
X034068Y049432D01*
X029640Y049500D02*
X034000D01*
X034068Y049432D02*
X034412D01*
X048295Y045430D02*
X048303D01*
X048823Y045950D02*
X048830D01*
X048303Y045430D02*
X048823Y045950D01*
X048032Y044521D02*
X048829Y045318D01*
X048820Y045420D02*
X048829Y045411D01*
Y045318D02*
Y045411D01*
X048690Y044320D02*
X049160Y044790D01*
X047660Y044520D02*
X047860Y044320D01*
X048690D01*
X047520Y045710D02*
X048050D01*
X048761Y046891D02*
X048780Y046910D01*
X048761Y046710D02*
Y046891D01*
X047520Y046660D02*
X048711D01*
X048761Y046710D01*
X048270Y046140D02*
X048288Y046158D01*
X047528Y046140D02*
X048270D01*
X029052Y046768D02*
X029270Y046550D01*
X032530Y052110D02*
X035160D01*
X023952Y018812D02*
Y019052D01*
X023960Y019060D01*
X022263Y019053D02*
X023389D01*
X023465Y018325D02*
X023952Y018812D01*
X024242Y041298D02*
Y043302D01*
X023851Y041094D02*
Y043311D01*
X029052Y048751D02*
X029075D01*
X029134Y048810D01*
X029160D01*
X029052Y046768D02*
Y048751D01*
X029146Y049590D02*
X030066Y048670D01*
X033990D01*
X027794Y052560D02*
X028544Y051810D01*
X030520D01*
X027510Y052350D02*
X028240Y051620D01*
X030429D01*
X026490Y052350D02*
X027510D01*
X030067Y052514D02*
Y052893D01*
Y052514D02*
X030599Y051982D01*
X029560Y053400D02*
X030067Y052893D01*
X031212Y051982D02*
X031336Y052105D01*
X030599Y051982D02*
X031212D01*
X027560Y053400D02*
X028460Y052500D01*
Y052175D02*
Y052500D01*
X030545Y052347D02*
Y053385D01*
X030560Y053400D01*
X030530Y052332D02*
X030545Y052347D01*
X026400Y052560D02*
X027794D01*
X030306Y051094D02*
X031210Y050190D01*
X035240D01*
X029830Y048430D02*
X033650D01*
X034493Y049960D02*
X034700D01*
X034412Y049432D02*
X034432Y049452D01*
X035600D01*
X030830Y049960D02*
X034167D01*
X035887Y049253D02*
X035900Y049240D01*
X029917Y049253D02*
X035887D01*
X029900Y049270D02*
X029917Y049253D01*
X026569Y050711D02*
X027905Y049375D01*
X028885D01*
X029830Y048430D01*
X028397Y049590D02*
X029146D01*
X027828Y050158D02*
X028397Y049590D01*
X026700Y051760D02*
X027930Y050530D01*
X028597D02*
X028628Y050498D01*
X027930Y050530D02*
X028597D01*
X028628Y050498D02*
X029209D01*
X026569Y050711D02*
Y051091D01*
X026700Y051760D02*
Y052030D01*
X035160Y052110D02*
X035165Y052105D01*
X035895D02*
X035900Y052100D01*
X035165Y052105D02*
X035895D01*
X027642Y050158D02*
X027828D01*
X026930Y050870D02*
X027642Y050158D01*
X028394Y050896D02*
X028896D01*
X027900Y051390D02*
X028394Y050896D01*
X028666Y051094D02*
X030306D01*
X026930Y050870D02*
Y050890D01*
X025940Y049484D02*
Y052650D01*
X024242Y043302D02*
X026810Y045870D01*
Y048614D01*
X025940Y049484D02*
X026810Y048614D01*
X025738Y049442D02*
X026538Y048642D01*
X025738Y049442D02*
Y052002D01*
X026538Y047388D02*
Y048642D01*
X025700Y052890D02*
X025940Y052650D01*
X025700Y052890D02*
Y053260D01*
X023851Y043311D02*
X026530Y045990D01*
Y047380D01*
X026538Y047388D01*
X025377Y052363D02*
X025738Y052002D01*
X025377Y052363D02*
Y052687D01*
X025450Y052761D01*
Y053010D01*
X026348Y050838D02*
Y052208D01*
X026490Y052350D01*
X026150Y051060D02*
Y052310D01*
X026400Y052560D01*
X023200Y053570D02*
X024390Y052380D01*
X025310Y049550D02*
X026140Y048720D01*
X025310Y049550D02*
Y051820D01*
X025053Y048997D02*
Y051680D01*
Y048997D02*
X025475Y048575D01*
X024750Y052380D02*
X025310Y051820D01*
X026340Y050830D02*
X026348Y050838D01*
X020410Y048670D02*
X022040Y047040D01*
X018720Y048670D02*
X020410D01*
X017944Y047894D02*
X018720Y048670D01*
X020530Y048920D02*
X021970Y047480D01*
X017998Y048920D02*
X020530D01*
X017346Y048268D02*
X017998Y048920D01*
X022040Y047040D02*
X024220D01*
X021970Y047480D02*
X023620D01*
X017944Y047304D02*
Y047894D01*
X022080Y052640D02*
X023560D01*
X020350Y050910D02*
X022080Y052640D01*
X024390Y052380D02*
X024750D01*
X018632Y053570D02*
X023200D01*
X018354Y050910D02*
X020350D01*
X017944Y051320D02*
X018354Y050910D01*
X017346Y052284D02*
X018632Y053570D01*
X023620Y047480D02*
X024210Y048070D01*
X025850D01*
X026340Y048560D01*
X023187Y049547D02*
X023190Y049550D01*
X021778Y049547D02*
X023187D01*
X021775Y049544D02*
X021778Y049547D01*
X019150Y041870D02*
Y042580D01*
X018190Y040910D02*
X019150Y041870D01*
D164*
X052790Y049670D02*
Y050140D01*
X052460Y050470D02*
X052790Y050140D01*
X050796Y050470D02*
X052460D01*
X050690Y050364D02*
X050796Y050470D01*
D165*
X017390Y043410D02*
X017740D01*
X018240Y042910D01*
X024260Y048926D02*
X024697Y048489D01*
X024260Y048926D02*
Y049850D01*
Y050970D02*
X024520Y051230D01*
X024260Y049850D02*
Y050970D01*
X018468Y042000D02*
Y042673D01*
X018188Y041720D02*
X018468Y042000D01*
X018010Y041720D02*
X018188D01*
X018240Y042901D02*
X018468Y042673D01*
X018240Y042901D02*
Y042910D01*
D166*
X027850Y042070D02*
Y043560D01*
X027490Y041710D02*
X027850Y042070D01*
D167*
X054374Y021264D02*
Y035636D01*
X050090Y016980D02*
X054374Y021264D01*
X045120Y016980D02*
X050090D01*
X043989Y018111D02*
Y018624D01*
X043938Y018676D02*
X043989Y018624D01*
Y018111D02*
X045120Y016980D01*
X051790Y038220D02*
X054374Y035636D01*
X051790Y038220D02*
Y040977D01*
D178*
X019275Y052044D02*
D03*
Y047544D02*
D03*
D179*
X020476Y052894D02*
D03*
Y046694D02*
D03*
D180*
X021775Y051544D02*
D03*
X022775Y048044D02*
D03*
Y051044D02*
D03*
X021775Y048544D02*
D03*
Y050544D02*
D03*
X022775Y049044D02*
D03*
Y050044D02*
D03*
X021775Y049544D02*
D03*
D181*
X017346Y052284D02*
D03*
X017944Y047304D02*
D03*
Y051320D02*
D03*
X017346Y048268D02*
D03*
D182*
X037764Y053440D02*
D03*
X038764D02*
D03*
X042764D02*
D03*
X045764D02*
D03*
X047764D02*
D03*
X049764D02*
D03*
X048764D02*
D03*
X046764D02*
D03*
X044764D02*
D03*
X043764D02*
D03*
X041764D02*
D03*
X040764D02*
D03*
X039764D02*
D03*
X018590Y037940D02*
D03*
X021640Y024650D02*
D03*
X018270D02*
D03*
X048713Y018504D02*
D03*
D183*
X050764Y053440D02*
D03*
X017590Y037940D02*
D03*
X020640Y024650D02*
D03*
X017270D02*
D03*
X049713Y018504D02*
D03*
D184*
X045938Y018676D02*
D03*
X044938D02*
D03*
X043938D02*
D03*
D185*
X040040Y022810D02*
D03*
Y032653D02*
D03*
X049883D02*
D03*
Y022810D02*
D03*
D186*
X023730Y037150D02*
D03*
D187*
X024730D02*
D03*
X026730D02*
D03*
X027730D02*
D03*
X028730D02*
D03*
D188*
X045890Y035960D02*
D03*
D189*
X044890D02*
D03*
X043890D02*
D03*
X029560Y053400D02*
D03*
X026560D02*
D03*
X027560D02*
D03*
X028560D02*
D03*
X030560D02*
D03*
D190*
X016929Y017323D02*
D03*
X053150D02*
D03*
Y052362D02*
D03*
X022047Y044094D02*
D03*
D191*
X033000Y053400D02*
D03*
X034000D02*
D03*
X035000D02*
D03*
X053543Y031709D02*
D03*
Y032709D02*
D03*
Y033709D02*
D03*
Y023835D02*
D03*
Y024835D02*
D03*
Y025835D02*
D03*
X052790Y045914D02*
D03*
X051790Y044914D02*
D03*
X052790D02*
D03*
Y041977D02*
D03*
X051790Y040977D02*
D03*
X052790D02*
D03*
Y047670D02*
D03*
Y048670D02*
D03*
X051790Y047670D02*
D03*
Y048670D02*
D03*
X052790Y049670D02*
D03*
D192*
X036000Y053400D02*
D03*
D193*
X053543Y030709D02*
D03*
Y022835D02*
D03*
X051790Y045914D02*
D03*
Y041977D02*
D03*
Y049670D02*
D03*
D194*
X020762Y022180D02*
D03*
D195*
X019620Y020290D02*
D03*
D196*
X018380Y022180D02*
D03*
D197*
X015955Y044189D02*
D03*
Y041591D02*
D03*
D198*
X039005Y042566D02*
D03*
X031181Y052913D02*
D03*
X031520Y053150D02*
D03*
X031120Y052540D02*
D03*
X039134Y016614D02*
D03*
X040709Y048189D02*
D03*
X039488Y046496D02*
D03*
X052795Y023504D02*
D03*
X052835Y024173D02*
D03*
X051481Y024339D02*
D03*
X051929Y024843D02*
D03*
X050591Y025236D02*
D03*
X051023Y025713D02*
D03*
X049488Y025551D02*
D03*
Y026220D02*
D03*
X048150Y025591D02*
D03*
Y026220D02*
D03*
X046890Y025551D02*
D03*
Y026220D02*
D03*
X044724Y025591D02*
D03*
Y026220D02*
D03*
X043425Y025551D02*
D03*
Y026220D02*
D03*
X042283Y025551D02*
D03*
Y026220D02*
D03*
X041063Y025551D02*
D03*
Y026220D02*
D03*
X039882Y026299D02*
D03*
X040315Y026811D02*
D03*
X039094Y027047D02*
D03*
X039576Y027503D02*
D03*
X038228Y027913D02*
D03*
X038701Y028386D02*
D03*
X037362Y028701D02*
D03*
X037762Y029286D02*
D03*
X036417Y029961D02*
D03*
X037205D02*
D03*
X036457Y031102D02*
D03*
X036496Y032559D02*
D03*
Y033661D02*
D03*
Y034764D02*
D03*
Y035787D02*
D03*
X037126Y036890D02*
D03*
X037677Y037480D02*
D03*
X037756Y037913D02*
D03*
X037734Y039093D02*
D03*
X037772Y040410D02*
D03*
X037741Y041364D02*
D03*
X037756Y042273D02*
D03*
X037700Y043054D02*
D03*
X037296Y043480D02*
D03*
X036727Y044098D02*
D03*
X035945Y044843D02*
D03*
X038465Y030118D02*
D03*
X039843Y029291D02*
D03*
X041220D02*
D03*
X042362D02*
D03*
X043622D02*
D03*
X044724D02*
D03*
X046890D02*
D03*
X047874D02*
D03*
X049331D02*
D03*
X050906Y029528D02*
D03*
X052535Y031217D02*
D03*
X051963Y030575D02*
D03*
X052977Y031422D02*
D03*
X052953Y032047D02*
D03*
X052271Y031786D02*
D03*
X051443Y030957D02*
D03*
X050437Y029970D02*
D03*
X049331Y029921D02*
D03*
X047874D02*
D03*
X046890D02*
D03*
X044706Y029915D02*
D03*
X043626Y029912D02*
D03*
X042361Y029919D02*
D03*
X041220Y029921D02*
D03*
X039848Y029941D02*
D03*
X038985Y030595D02*
D03*
X038007Y031548D02*
D03*
X037847Y032523D02*
D03*
X037874Y033661D02*
D03*
X037913Y034764D02*
D03*
X038518Y035832D02*
D03*
X039016Y037087D02*
D03*
X039019Y037883D02*
D03*
X039016Y039055D02*
D03*
X038999Y040413D02*
D03*
X039023Y041353D02*
D03*
X038998Y042215D02*
D03*
X038694Y044273D02*
D03*
X037204Y031074D02*
D03*
X037177Y032554D02*
D03*
X037196Y033643D02*
D03*
X037182Y034767D02*
D03*
X037233Y035737D02*
D03*
X037734Y036374D02*
D03*
X038276Y037047D02*
D03*
X038393Y037878D02*
D03*
X038389Y039052D02*
D03*
X038379Y040399D02*
D03*
X038393Y041339D02*
D03*
X038379Y042214D02*
D03*
X038373Y042968D02*
D03*
X038231Y043504D02*
D03*
X037755Y043980D02*
D03*
X037246Y044496D02*
D03*
X036808Y044941D02*
D03*
X036381Y045342D02*
D03*
X045581Y050771D02*
D03*
X036299Y052008D02*
D03*
X033543Y050591D02*
D03*
X033071D02*
D03*
X035354Y022023D02*
D03*
Y021693D02*
D03*
X035056Y022028D02*
D03*
Y021698D02*
D03*
X034764Y022023D02*
D03*
Y021693D02*
D03*
X034488Y022023D02*
D03*
Y021693D02*
D03*
X020050Y042310D02*
D03*
X017390Y043410D02*
D03*
X032020Y052090D02*
D03*
X048530Y042440D02*
D03*
X048710Y040862D02*
D03*
Y041654D02*
D03*
Y041126D02*
D03*
Y041390D02*
D03*
X049110Y040862D02*
D03*
Y041126D02*
D03*
Y041654D02*
D03*
Y041390D02*
D03*
X027983Y043205D02*
D03*
X027713D02*
D03*
X027983Y043455D02*
D03*
X027713D02*
D03*
Y043705D02*
D03*
X027983D02*
D03*
X027330Y043200D02*
D03*
X027060D02*
D03*
X027330Y043450D02*
D03*
X027060D02*
D03*
Y043700D02*
D03*
X027330D02*
D03*
X041222Y040076D02*
D03*
Y039366D02*
D03*
X032730Y036320D02*
D03*
Y036000D02*
D03*
X032460Y036320D02*
D03*
Y036000D02*
D03*
X032200Y036310D02*
D03*
Y035990D02*
D03*
X045271Y050211D02*
D03*
X045261Y050501D02*
D03*
X045591Y049971D02*
D03*
X044102Y037556D02*
D03*
X042072Y037876D02*
D03*
X041020Y038000D02*
D03*
X042500Y040800D02*
D03*
X046592Y040616D02*
D03*
X047042Y040606D02*
D03*
X047272Y040846D02*
D03*
X046592Y041076D02*
D03*
X045532Y042036D02*
D03*
X046822Y041076D02*
D03*
X046592Y040386D02*
D03*
X046272Y042046D02*
D03*
X046822Y040386D02*
D03*
X047042Y041076D02*
D03*
X046822Y040846D02*
D03*
X047042Y040376D02*
D03*
X047272Y040606D02*
D03*
Y041076D02*
D03*
X046592Y040846D02*
D03*
X047272Y040376D02*
D03*
X046822Y040616D02*
D03*
X047042Y040846D02*
D03*
X046420Y042700D02*
D03*
X046860Y048110D02*
D03*
X046870Y047700D02*
D03*
X048140Y048520D02*
D03*
X048455Y048578D02*
D03*
X047528Y046140D02*
D03*
X048288Y046158D02*
D03*
X048780Y046910D02*
D03*
X047520Y045710D02*
D03*
Y046660D02*
D03*
X048050Y045710D02*
D03*
X048295Y045430D02*
D03*
X048820Y045420D02*
D03*
X049860Y047630D02*
D03*
X049655Y048018D02*
D03*
X049860Y045990D02*
D03*
X048830Y045950D02*
D03*
X050030Y044070D02*
D03*
X047970Y043040D02*
D03*
X047330Y043360D02*
D03*
X050020Y043470D02*
D03*
X048160Y043560D02*
D03*
X048560Y043570D02*
D03*
X049700Y042920D02*
D03*
X048032Y044521D02*
D03*
X047660Y044520D02*
D03*
X049160Y044790D02*
D03*
X034070Y044770D02*
D03*
X029250Y046930D02*
D03*
X029270Y047320D02*
D03*
Y046550D02*
D03*
X029280Y047720D02*
D03*
X037419Y039558D02*
D03*
X028150Y020312D02*
D03*
X029320Y019840D02*
D03*
X030533Y018984D02*
D03*
X032120Y018900D02*
D03*
X033750Y018870D02*
D03*
X016280Y040130D02*
D03*
X029240Y049950D02*
D03*
X029080Y052070D02*
D03*
X034940Y052370D02*
D03*
X035000Y052770D02*
D03*
X036280Y050700D02*
D03*
X033280Y048070D02*
D03*
X034635Y046589D02*
D03*
X035986Y046741D02*
D03*
X025570Y021550D02*
D03*
X025320D02*
D03*
X025570Y021890D02*
D03*
X025320D02*
D03*
X025570Y022200D02*
D03*
X025320D02*
D03*
X025570Y022500D02*
D03*
X025320D02*
D03*
X025560Y022820D02*
D03*
X025310D02*
D03*
X025560Y023130D02*
D03*
X025310D02*
D03*
X025550Y023460D02*
D03*
X025300D02*
D03*
X025560Y023790D02*
D03*
X025310D02*
D03*
X042320Y016980D02*
D03*
X041520Y016990D02*
D03*
X042300Y019360D02*
D03*
X022339Y020990D02*
D03*
X022310Y021400D02*
D03*
X022317Y021834D02*
D03*
X022320Y022240D02*
D03*
X022870Y022250D02*
D03*
X023200Y022600D02*
D03*
Y023000D02*
D03*
Y023400D02*
D03*
Y023800D02*
D03*
X023860Y021000D02*
D03*
X024200D02*
D03*
Y021400D02*
D03*
Y021800D02*
D03*
Y022200D02*
D03*
Y022600D02*
D03*
Y023000D02*
D03*
Y023400D02*
D03*
Y023800D02*
D03*
X023960Y019060D02*
D03*
X024253Y019090D02*
D03*
X022873Y020692D02*
D03*
X022640Y020980D02*
D03*
X022930Y020960D02*
D03*
X023248Y020953D02*
D03*
X023580Y020970D02*
D03*
X023797Y018093D02*
D03*
X022263Y019053D02*
D03*
X023465Y018325D02*
D03*
X023389Y019053D02*
D03*
X028442Y040830D02*
D03*
X028883Y040858D02*
D03*
X029254Y041307D02*
D03*
X029130Y041693D02*
D03*
X028729Y041669D02*
D03*
X028310Y041670D02*
D03*
X024242Y041298D02*
D03*
X023851Y041094D02*
D03*
X036306Y044309D02*
D03*
X049560Y048745D02*
D03*
X043190Y044690D02*
D03*
X044530Y043450D02*
D03*
X040050Y019370D02*
D03*
X040800Y019380D02*
D03*
X029160Y048810D02*
D03*
X028421Y043721D02*
D03*
X028640Y049072D02*
D03*
X028410Y047240D02*
D03*
X044190Y042700D02*
D03*
X047390Y042400D02*
D03*
X045389Y042736D02*
D03*
X041640Y045290D02*
D03*
X040670Y045270D02*
D03*
X039700Y045310D02*
D03*
X039100Y045890D02*
D03*
X038320Y046070D02*
D03*
X038425Y046850D02*
D03*
X037760Y046870D02*
D03*
X046070Y043430D02*
D03*
X044530Y044400D02*
D03*
X043819Y045146D02*
D03*
X042780Y045900D02*
D03*
X041950Y045920D02*
D03*
X041161Y045896D02*
D03*
X040230Y045880D02*
D03*
X030530Y052332D02*
D03*
X028460Y052175D02*
D03*
X037090Y045830D02*
D03*
X033740Y042800D02*
D03*
X029486Y045858D02*
D03*
X030260Y046260D02*
D03*
X034620Y050510D02*
D03*
X035240Y050210D02*
D03*
X032097Y043020D02*
D03*
X032695Y042995D02*
D03*
X035641Y042441D02*
D03*
X032737Y043840D02*
D03*
X033650Y048440D02*
D03*
X033990Y048670D02*
D03*
X034700Y049960D02*
D03*
X034330Y049630D02*
D03*
X035900Y049240D02*
D03*
X029900Y049270D02*
D03*
X035600Y049452D02*
D03*
X029640Y049500D02*
D03*
X027840Y049866D02*
D03*
X028680Y049900D02*
D03*
X031130Y052180D02*
D03*
X035900Y052100D02*
D03*
X029883Y045867D02*
D03*
X028710Y050697D02*
D03*
X028666Y051094D02*
D03*
X027900Y051390D02*
D03*
X031566Y051907D02*
D03*
X037770Y051050D02*
D03*
X037440Y051040D02*
D03*
X037216Y050556D02*
D03*
X037770Y045950D02*
D03*
X037400Y045990D02*
D03*
X033130Y045820D02*
D03*
X032590Y044280D02*
D03*
X032600Y044630D02*
D03*
X024590Y048950D02*
D03*
X023730Y049100D02*
D03*
X043262Y038616D02*
D03*
X043492Y037586D02*
D03*
X042630Y049010D02*
D03*
X036854Y040489D02*
D03*
X036874Y039439D02*
D03*
X025450Y053010D02*
D03*
X025700Y053260D02*
D03*
X026700Y052030D02*
D03*
X025540Y051710D02*
D03*
X025053Y051680D02*
D03*
X026569Y051091D02*
D03*
X026150Y051060D02*
D03*
X036780Y042660D02*
D03*
X036770Y042990D02*
D03*
X034873Y044057D02*
D03*
X047701Y041424D02*
D03*
X043002Y041746D02*
D03*
X043382Y041756D02*
D03*
X034777Y042840D02*
D03*
X026930Y050890D02*
D03*
X026340Y050830D02*
D03*
X042432Y041576D02*
D03*
X042422Y041956D02*
D03*
X042182Y040966D02*
D03*
X041452Y039616D02*
D03*
Y039366D02*
D03*
X041672D02*
D03*
X040272Y041556D02*
D03*
X040042D02*
D03*
X039812D02*
D03*
X039562D02*
D03*
X040272Y041236D02*
D03*
X040042D02*
D03*
X039812D02*
D03*
X039562D02*
D03*
X040272Y042206D02*
D03*
X040042D02*
D03*
X039812D02*
D03*
X040272Y041886D02*
D03*
X040042D02*
D03*
X039812D02*
D03*
X039562D02*
D03*
X027990Y027860D02*
D03*
Y027630D02*
D03*
Y027400D02*
D03*
Y027150D02*
D03*
X028310Y027860D02*
D03*
Y027630D02*
D03*
Y027400D02*
D03*
Y027150D02*
D03*
X028590Y027860D02*
D03*
Y027630D02*
D03*
Y027400D02*
D03*
Y027150D02*
D03*
X028910Y027860D02*
D03*
Y027630D02*
D03*
Y027400D02*
D03*
Y027150D02*
D03*
X037230Y017760D02*
D03*
X036950Y017750D02*
D03*
X036690Y017760D02*
D03*
X036440Y017750D02*
D03*
X033280Y016740D02*
D03*
X033610Y016760D02*
D03*
X032005Y016915D02*
D03*
X031175Y016945D02*
D03*
X041672Y039616D02*
D03*
Y039846D02*
D03*
Y040076D02*
D03*
X041452Y039846D02*
D03*
Y040076D02*
D03*
X041222Y039616D02*
D03*
Y039846D02*
D03*
X026900Y045030D02*
D03*
X027150D02*
D03*
X027380D02*
D03*
X027610D02*
D03*
X027620Y045390D02*
D03*
X027390D02*
D03*
X027160D02*
D03*
X026910D02*
D03*
X027260Y046150D02*
D03*
X028200Y046100D02*
D03*
X026250Y044060D02*
D03*
X027525Y052015D02*
D03*
X027125Y052005D02*
D03*
X024180Y046050D02*
D03*
Y047030D02*
D03*
X023560Y052640D02*
D03*
X024634Y052644D02*
D03*
X024646Y053044D02*
D03*
X023684D02*
D03*
X026340Y048560D02*
D03*
X026140Y048720D02*
D03*
X025125Y052595D02*
D03*
X025575Y052605D02*
D03*
X025475Y048575D02*
D03*
X023880Y049770D02*
D03*
X023190Y049550D02*
D03*
X029710Y026620D02*
D03*
X029740Y025870D02*
D03*
X029650Y025150D02*
D03*
X029660Y024780D02*
D03*
X024520Y051230D02*
D03*
X024697Y048489D02*
D03*
X024260Y049850D02*
D03*
X024680Y047660D02*
D03*
X025070Y047670D02*
D03*
X025470Y047660D02*
D03*
X025880Y047680D02*
D03*
X027960Y047060D02*
D03*
X025670Y047040D02*
D03*
X027440Y048110D02*
D03*
X028680Y048710D02*
D03*
X028690Y050300D02*
D03*
X036656Y043479D02*
D03*
X034990Y019540D02*
D03*
X033480Y020470D02*
D03*
X048201Y040404D02*
D03*
X050641Y040044D02*
D03*
X049981D02*
D03*
X048231Y042014D02*
D03*
X050681Y041904D02*
D03*
X036210Y020450D02*
D03*
X035980Y023920D02*
D03*
X035610D02*
D03*
X035200Y023900D02*
D03*
X018060Y041330D02*
D03*
X018010Y041720D02*
D03*
X018240Y042910D02*
D03*
X017410Y044160D02*
D03*
X017400Y041650D02*
D03*
X017430Y042380D02*
D03*
X018220Y042570D02*
D03*
X019230Y042930D02*
D03*
X019150Y042580D02*
D03*
X018190Y040910D02*
D03*
X019790Y041550D02*
D03*
X020100Y041560D02*
D03*
X020110Y041220D02*
D03*
X019780Y041230D02*
D03*
X019660Y040370D02*
D03*
X043122Y039646D02*
D03*
D199*
X044852Y039266D02*
D03*
D200*
X026194Y049556D02*
D03*
Y050028D02*
D03*
X026666Y049556D02*
D03*
X026666Y050028D02*
D03*
X026430Y049792D02*
D03*
D224*
X050690Y049576D02*
D03*
Y050364D02*
D03*
M02*
