G04*
G04 #@! TF.GenerationSoftware,Altium Limited,Altium Designer,22.2.1 (43)*
G04*
G04 Layer_Color=16711935*
%FSAX24Y24*%
%MOIN*%
G70*
G04*
G04 #@! TF.SameCoordinates,9FECD9A3-9FBE-45D8-96C7-32EA53B7FBE5*
G04*
G04*
G04 #@! TF.FilePolarity,Negative*
G04*
G01*
G75*
%ADD143C,0.1760*%
%ADD144C,0.1007*%
%ADD145C,0.0630*%
%ADD146C,0.0682*%
%ADD147C,0.0710*%
%ADD148R,0.0710X0.0710*%
%ADD149C,0.0867*%
%ADD150C,0.4017*%
%ADD151R,0.0674X0.0674*%
%ADD152C,0.0674*%
%ADD153R,0.0749X0.0749*%
%ADD154C,0.0749*%
%ADD155C,0.2442*%
%ADD156C,0.0671*%
%ADD157R,0.0671X0.0671*%
%ADD158R,0.0671X0.0671*%
%ADD159O,0.0789X0.1852*%
%ADD160O,0.1655X0.0789*%
%ADD161O,0.0789X0.1655*%
%ADD162O,0.0710X0.0434*%
%ADD163C,0.0277*%
%ADD225R,0.0631X0.0454*%
D143*
X019275Y052044D02*
D03*
Y047544D02*
D03*
D144*
X020476Y052894D02*
D03*
Y046694D02*
D03*
D145*
X021775Y051544D02*
D03*
X022775Y048044D02*
D03*
Y051044D02*
D03*
X021775Y048544D02*
D03*
Y050544D02*
D03*
X022775Y049044D02*
D03*
Y050044D02*
D03*
X021775Y049544D02*
D03*
D146*
X017346Y052284D02*
D03*
X017944Y047304D02*
D03*
Y051320D02*
D03*
X017346Y048268D02*
D03*
D147*
X037764Y053440D02*
D03*
X038764D02*
D03*
X042764D02*
D03*
X045764D02*
D03*
X047764D02*
D03*
X049764D02*
D03*
X048764D02*
D03*
X046764D02*
D03*
X044764D02*
D03*
X043764D02*
D03*
X041764D02*
D03*
X040764D02*
D03*
X039764D02*
D03*
X018590Y037940D02*
D03*
X021640Y024650D02*
D03*
X018270D02*
D03*
X048713Y018504D02*
D03*
D148*
X050764Y053440D02*
D03*
X017590Y037940D02*
D03*
X020640Y024650D02*
D03*
X017270D02*
D03*
X049713Y018504D02*
D03*
D149*
X045938Y018676D02*
D03*
X044938D02*
D03*
X043938D02*
D03*
D150*
X040040Y022810D02*
D03*
Y032653D02*
D03*
X049883D02*
D03*
Y022810D02*
D03*
D151*
X023730Y037150D02*
D03*
D152*
X024730D02*
D03*
X026730D02*
D03*
X027730D02*
D03*
X028730D02*
D03*
D153*
X045890Y035960D02*
D03*
D154*
X044890D02*
D03*
X043890D02*
D03*
X029560Y053400D02*
D03*
X026560D02*
D03*
X027560D02*
D03*
X028560D02*
D03*
X030560D02*
D03*
D155*
X016929Y017323D02*
D03*
X053150D02*
D03*
Y052362D02*
D03*
X022047Y044094D02*
D03*
D156*
X033000Y053400D02*
D03*
X034000D02*
D03*
X035000D02*
D03*
X053543Y031709D02*
D03*
Y032709D02*
D03*
Y033709D02*
D03*
Y023835D02*
D03*
Y024835D02*
D03*
Y025835D02*
D03*
X052790Y045914D02*
D03*
X051790Y044914D02*
D03*
X052790D02*
D03*
Y041977D02*
D03*
X051790Y040977D02*
D03*
X052790D02*
D03*
Y047670D02*
D03*
Y048670D02*
D03*
X051790Y047670D02*
D03*
Y048670D02*
D03*
X052790Y049670D02*
D03*
D157*
X036000Y053400D02*
D03*
D158*
X053543Y030709D02*
D03*
Y022835D02*
D03*
X051790Y045914D02*
D03*
Y041977D02*
D03*
Y049670D02*
D03*
D159*
X020762Y022180D02*
D03*
D160*
X019620Y020290D02*
D03*
D161*
X018380Y022180D02*
D03*
D162*
X015955Y044189D02*
D03*
Y041591D02*
D03*
D163*
X033543Y050591D02*
D03*
X033071D02*
D03*
X047528Y046140D02*
D03*
X048288Y046158D02*
D03*
X048780Y046910D02*
D03*
X047520Y045710D02*
D03*
Y046660D02*
D03*
X048050Y045710D02*
D03*
X048295Y045430D02*
D03*
X048820Y045420D02*
D03*
X048830Y045950D02*
D03*
X048032Y044521D02*
D03*
X047660Y044520D02*
D03*
X049160Y044790D02*
D03*
D225*
X050690Y049576D02*
D03*
Y050364D02*
D03*
M02*
