G04*
G04 #@! TF.GenerationSoftware,Altium Limited,Altium Designer,22.2.1 (43)*
G04*
G04 Layer_Color=255*
%FSAX24Y24*%
%MOIN*%
G70*
G04*
G04 #@! TF.SameCoordinates,9FECD9A3-9FBE-45D8-96C7-32EA53B7FBE5*
G04*
G04*
G04 #@! TF.FilePolarity,Positive*
G04*
G01*
G75*
%ADD178C,0.1680*%
%ADD179C,0.0927*%
%ADD180C,0.0550*%
%ADD181C,0.0602*%
%ADD182C,0.0630*%
%ADD183R,0.0630X0.0630*%
%ADD184C,0.0787*%
%ADD185C,0.3937*%
%ADD186R,0.0594X0.0594*%
%ADD187C,0.0594*%
%ADD188R,0.0669X0.0669*%
%ADD189C,0.0669*%
%ADD190C,0.2362*%
%ADD191C,0.0591*%
%ADD192R,0.0591X0.0591*%
%ADD193R,0.0591X0.0591*%
%ADD194O,0.0709X0.1772*%
%ADD195O,0.1575X0.0709*%
%ADD196O,0.0709X0.1575*%
%ADD197O,0.0630X0.0354*%
%ADD224R,0.0551X0.0374*%
D178*
X019275Y052044D02*
D03*
Y047544D02*
D03*
D179*
X020476Y052894D02*
D03*
Y046694D02*
D03*
D180*
X021775Y051544D02*
D03*
X022775Y048044D02*
D03*
Y051044D02*
D03*
X021775Y048544D02*
D03*
Y050544D02*
D03*
X022775Y049044D02*
D03*
Y050044D02*
D03*
X021775Y049544D02*
D03*
D181*
X017346Y052284D02*
D03*
X017944Y047304D02*
D03*
Y051320D02*
D03*
X017346Y048268D02*
D03*
D182*
X037764Y053440D02*
D03*
X038764D02*
D03*
X042764D02*
D03*
X045764D02*
D03*
X047764D02*
D03*
X049764D02*
D03*
X048764D02*
D03*
X046764D02*
D03*
X044764D02*
D03*
X043764D02*
D03*
X041764D02*
D03*
X040764D02*
D03*
X039764D02*
D03*
X018590Y037940D02*
D03*
X021640Y024650D02*
D03*
X018270D02*
D03*
X048713Y018504D02*
D03*
D183*
X050764Y053440D02*
D03*
X017590Y037940D02*
D03*
X020640Y024650D02*
D03*
X017270D02*
D03*
X049713Y018504D02*
D03*
D184*
X045938Y018676D02*
D03*
X044938D02*
D03*
X043938D02*
D03*
D185*
X040040Y022810D02*
D03*
Y032653D02*
D03*
X049883D02*
D03*
Y022810D02*
D03*
D186*
X023730Y037150D02*
D03*
D187*
X024730D02*
D03*
X026730D02*
D03*
X027730D02*
D03*
X028730D02*
D03*
D188*
X045890Y035960D02*
D03*
D189*
X044890D02*
D03*
X043890D02*
D03*
X029560Y053400D02*
D03*
X026560D02*
D03*
X027560D02*
D03*
X028560D02*
D03*
X030560D02*
D03*
D190*
X016929Y017323D02*
D03*
X053150D02*
D03*
Y052362D02*
D03*
X022047Y044094D02*
D03*
D191*
X033000Y053400D02*
D03*
X034000D02*
D03*
X035000D02*
D03*
X053543Y031709D02*
D03*
Y032709D02*
D03*
Y033709D02*
D03*
Y023835D02*
D03*
Y024835D02*
D03*
Y025835D02*
D03*
X052790Y045914D02*
D03*
X051790Y044914D02*
D03*
X052790D02*
D03*
Y041977D02*
D03*
X051790Y040977D02*
D03*
X052790D02*
D03*
Y047670D02*
D03*
Y048670D02*
D03*
X051790Y047670D02*
D03*
Y048670D02*
D03*
X052790Y049670D02*
D03*
D192*
X036000Y053400D02*
D03*
D193*
X053543Y030709D02*
D03*
Y022835D02*
D03*
X051790Y045914D02*
D03*
Y041977D02*
D03*
Y049670D02*
D03*
D194*
X020762Y022180D02*
D03*
D195*
X019620Y020290D02*
D03*
D196*
X018380Y022180D02*
D03*
D197*
X015955Y044189D02*
D03*
Y041591D02*
D03*
D224*
X050690Y049576D02*
D03*
Y050364D02*
D03*
M02*
