G04*
G04 #@! TF.GenerationSoftware,Altium Limited,Altium Designer,22.2.1 (43)*
G04*
G04 Layer_Physical_Order=2*
G04 Layer_Color=32768*
%FSAX24Y24*%
%MOIN*%
G70*
G04*
G04 #@! TF.SameCoordinates,9FECD9A3-9FBE-45D8-96C7-32EA53B7FBE5*
G04*
G04*
G04 #@! TF.FilePolarity,Negative*
G04*
G01*
G75*
%ADD164C,0.0400*%
%ADD180C,0.0550*%
%ADD187C,0.0594*%
%ADD201C,0.1480*%
G04:AMPARAMS|DCode=202|XSize=121.811mil|YSize=121.811mil|CornerRadius=0mil|HoleSize=0mil|Usage=FLASHONLY|Rotation=0.000|XOffset=0mil|YOffset=0mil|HoleType=Round|Shape=Relief|Width=20mil|Gap=10mil|Entries=4|*
%AMTHD202*
7,0,0,0.1218,0.1018,0.0200,45*
%
%ADD202THD202*%
G04:AMPARAMS|DCode=203|XSize=95.039mil|YSize=95.039mil|CornerRadius=0mil|HoleSize=0mil|Usage=FLASHONLY|Rotation=0.000|XOffset=0mil|YOffset=0mil|HoleType=Round|Shape=Relief|Width=20mil|Gap=10mil|Entries=4|*
%AMTHD203*
7,0,0,0.0950,0.0750,0.0200,45*
%
%ADD203THD203*%
%ADD204C,0.0602*%
G04:AMPARAMS|DCode=205|XSize=103.307mil|YSize=103.307mil|CornerRadius=0mil|HoleSize=0mil|Usage=FLASHONLY|Rotation=0.000|XOffset=0mil|YOffset=0mil|HoleType=Round|Shape=Relief|Width=20mil|Gap=10mil|Entries=4|*
%AMTHD205*
7,0,0,0.1033,0.0833,0.0200,45*
%
%ADD205THD205*%
%ADD206C,0.0633*%
G04:AMPARAMS|DCode=207|XSize=99.37mil|YSize=99.37mil|CornerRadius=0mil|HoleSize=0mil|Usage=FLASHONLY|Rotation=0.000|XOffset=0mil|YOffset=0mil|HoleType=Round|Shape=Relief|Width=20mil|Gap=10mil|Entries=4|*
%AMTHD207*
7,0,0,0.0994,0.0794,0.0200,45*
%
%ADD207THD207*%
%ADD208C,0.2562*%
G04:AMPARAMS|DCode=209|XSize=178.11mil|YSize=178.11mil|CornerRadius=0mil|HoleSize=0mil|Usage=FLASHONLY|Rotation=0.000|XOffset=0mil|YOffset=0mil|HoleType=Round|Shape=Relief|Width=20mil|Gap=10mil|Entries=4|*
%AMTHD209*
7,0,0,0.1781,0.1581,0.0200,45*
%
%ADD209THD209*%
G04:AMPARAMS|DCode=210|XSize=95.433mil|YSize=95.433mil|CornerRadius=0mil|HoleSize=0mil|Usage=FLASHONLY|Rotation=0.000|XOffset=0mil|YOffset=0mil|HoleType=Round|Shape=Relief|Width=20mil|Gap=10mil|Entries=4|*
%AMTHD210*
7,0,0,0.0954,0.0754,0.0200,45*
%
%ADD210THD210*%
%ADD211C,0.0554*%
%ADD212O,0.0594X0.1460*%
%ADD213O,0.1381X0.0594*%
%AMTHOVALD214*
21,1,0.0856,0.0994,0,0,90.0*
1,1,0.0994,0.0000,-0.0428*
1,1,0.0994,0.0000,0.0428*
21,0,0.0856,0.0794,0,0,90.0*
1,0,0.0794,0.0000,-0.0428*
1,0,0.0794,0.0000,0.0428*
4,0,4,0.0071,-0.0357,0.0422,-0.0709,0.0281,-0.0850,-0.0071,-0.0499,0.0071,-0.0357,0.0*
4,0,4,0.0071,0.0499,-0.0281,0.0850,-0.0422,0.0709,-0.0071,0.0357,0.0071,0.0499,0.0*
4,0,4,0.0071,-0.0499,-0.0281,-0.0850,-0.0422,-0.0709,-0.0071,-0.0357,0.0071,-0.0499,0.0*
4,0,4,0.0071,0.0357,0.0422,0.0709,0.0281,0.0850,-0.0071,0.0499,0.0071,0.0357,0.0*
%
%ADD214THOVALD214*%

G04:AMPARAMS|DCode=215|XSize=100.157mil|YSize=100.157mil|CornerRadius=0mil|HoleSize=0mil|Usage=FLASHONLY|Rotation=0.000|XOffset=0mil|YOffset=0mil|HoleType=Round|Shape=Relief|Width=20mil|Gap=10mil|Entries=4|*
%AMTHD215*
7,0,0,0.1002,0.0802,0.0200,45*
%
%ADD215THD215*%
%AMTHOVALD216*
21,1,0.0276,0.0797,0,0,180.0*
1,1,0.0797,0.0138,0.0000*
1,1,0.0797,-0.0138,0.0000*
21,0,0.0276,0.0597,0,0,180.0*
1,0,0.0597,0.0138,0.0000*
1,0,0.0597,-0.0138,0.0000*
4,0,4,0.0067,0.0071,0.0349,0.0352,0.0490,0.0211,0.0209,-0.0071,0.0067,0.0071,0.0*
4,0,4,-0.0209,0.0071,-0.0490,-0.0211,-0.0349,-0.0352,-0.0067,-0.0071,-0.0209,0.0071,0.0*
4,0,4,0.0209,0.0071,0.0490,-0.0211,0.0349,-0.0352,0.0067,-0.0071,0.0209,0.0071,0.0*
4,0,4,-0.0067,0.0071,-0.0349,0.0352,-0.0490,0.0211,-0.0209,-0.0071,-0.0067,0.0071,0.0*
%
%ADD216THOVALD216*%

%ADD217C,0.0259*%
D164*
X015354Y015354D02*
Y054724D01*
X054724D01*
Y015354D02*
Y054724D01*
X015354Y015354D02*
X054724D01*
D180*
X021775Y051544D02*
D03*
X022775Y051044D02*
D03*
X021775Y048544D02*
D03*
Y050544D02*
D03*
X022775Y049044D02*
D03*
Y050044D02*
D03*
X021775Y049544D02*
D03*
D187*
X045938Y018676D02*
D03*
X043938D02*
D03*
X023730Y037150D02*
D03*
X026730D02*
D03*
X027730D02*
D03*
X028730D02*
D03*
X029560Y053400D02*
D03*
X026560D02*
D03*
X027560D02*
D03*
X030560D02*
D03*
D201*
X019275Y052044D02*
D03*
Y047544D02*
D03*
D202*
X020476Y052894D02*
D03*
Y046694D02*
D03*
D203*
X022775Y048044D02*
D03*
D204*
X017346Y052284D02*
D03*
X017944Y047304D02*
D03*
Y051320D02*
D03*
X017346Y048268D02*
D03*
X051790Y045914D02*
D03*
X052790Y044914D02*
D03*
X051790Y041977D02*
D03*
Y040977D02*
D03*
X052790D02*
D03*
Y047670D02*
D03*
X051790D02*
D03*
X052790Y049670D02*
D03*
X051790D02*
D03*
D205*
X037764Y053440D02*
D03*
X045890Y035960D02*
D03*
X017270Y024650D02*
D03*
X018270D02*
D03*
D206*
X038764Y053440D02*
D03*
X042764D02*
D03*
X045764D02*
D03*
X047764D02*
D03*
X049764D02*
D03*
X050764D02*
D03*
X048764D02*
D03*
X046764D02*
D03*
X044764D02*
D03*
X043764D02*
D03*
X041764D02*
D03*
X040764D02*
D03*
X039764D02*
D03*
X017590Y037940D02*
D03*
X018590D02*
D03*
X044890Y035960D02*
D03*
X043890D02*
D03*
X021640Y024650D02*
D03*
X020640D02*
D03*
X048713Y018504D02*
D03*
X049713D02*
D03*
D207*
X044938Y018676D02*
D03*
X024730Y037150D02*
D03*
X028560Y053400D02*
D03*
D208*
X040040Y022810D02*
D03*
Y032653D02*
D03*
X049883D02*
D03*
Y022810D02*
D03*
D209*
X016929Y017323D02*
D03*
X053150D02*
D03*
Y052362D02*
D03*
X022047Y044094D02*
D03*
D210*
X033000Y053400D02*
D03*
X036000D02*
D03*
X053543Y030709D02*
D03*
Y032709D02*
D03*
Y022835D02*
D03*
Y024835D02*
D03*
D211*
X034000Y053400D02*
D03*
X035000D02*
D03*
X053543Y031709D02*
D03*
Y033709D02*
D03*
Y023835D02*
D03*
Y025835D02*
D03*
D212*
X020762Y022180D02*
D03*
D213*
X019620Y020290D02*
D03*
D214*
X018380Y022180D02*
D03*
D215*
X052790Y045914D02*
D03*
X051790Y044914D02*
D03*
X052790Y041977D02*
D03*
Y048670D02*
D03*
X051790D02*
D03*
D216*
X015955Y044189D02*
D03*
Y041591D02*
D03*
D217*
X031181Y052913D02*
D03*
X039134Y016614D02*
D03*
X045581Y050771D02*
D03*
X036299Y052008D02*
D03*
X033543Y050591D02*
D03*
X033071D02*
D03*
X017390Y043410D02*
D03*
X032020Y052090D02*
D03*
X048710Y040862D02*
D03*
Y041654D02*
D03*
Y041126D02*
D03*
Y041390D02*
D03*
X049110Y040862D02*
D03*
Y041126D02*
D03*
Y041654D02*
D03*
Y041390D02*
D03*
X027983Y043205D02*
D03*
X027713D02*
D03*
X027983Y043455D02*
D03*
X027713D02*
D03*
Y043705D02*
D03*
X027983D02*
D03*
X027330Y043200D02*
D03*
X027060D02*
D03*
X027330Y043450D02*
D03*
X027060D02*
D03*
Y043700D02*
D03*
X027330D02*
D03*
X041222Y040076D02*
D03*
Y039366D02*
D03*
X032730Y036320D02*
D03*
Y036000D02*
D03*
X032460Y036320D02*
D03*
Y036000D02*
D03*
X032200Y036310D02*
D03*
Y035990D02*
D03*
X045271Y050211D02*
D03*
X045261Y050501D02*
D03*
X045591Y049971D02*
D03*
X046592Y040616D02*
D03*
X047042Y040606D02*
D03*
X047272Y040846D02*
D03*
X046592Y041076D02*
D03*
X046822D02*
D03*
X046592Y040386D02*
D03*
X046822D02*
D03*
X047042Y041076D02*
D03*
X046822Y040846D02*
D03*
X047042Y040376D02*
D03*
X047272Y040606D02*
D03*
Y041076D02*
D03*
X046592Y040846D02*
D03*
X047272Y040376D02*
D03*
X046822Y040616D02*
D03*
X047042Y040846D02*
D03*
X048140Y048520D02*
D03*
X047528Y046140D02*
D03*
X048288Y046158D02*
D03*
X048780Y046910D02*
D03*
X047520Y045710D02*
D03*
Y046660D02*
D03*
X048050Y045710D02*
D03*
X048295Y045430D02*
D03*
X048820Y045420D02*
D03*
X049860Y045990D02*
D03*
X048830Y045950D02*
D03*
X048160Y043560D02*
D03*
X049700Y042920D02*
D03*
X048032Y044521D02*
D03*
X047660Y044520D02*
D03*
X049160Y044790D02*
D03*
X029270Y047320D02*
D03*
Y046550D02*
D03*
X029280Y047720D02*
D03*
X016280Y040130D02*
D03*
X025570Y021550D02*
D03*
X025320D02*
D03*
X025570Y021890D02*
D03*
X025320D02*
D03*
X025570Y022200D02*
D03*
X025320D02*
D03*
X025570Y022500D02*
D03*
X025320D02*
D03*
X025560Y022820D02*
D03*
X025310D02*
D03*
X025560Y023130D02*
D03*
X025310D02*
D03*
X025550Y023460D02*
D03*
X025300D02*
D03*
X025560Y023790D02*
D03*
X025310D02*
D03*
X042300Y019360D02*
D03*
X023960Y019060D02*
D03*
X022263Y019053D02*
D03*
X023465Y018325D02*
D03*
X023389Y019053D02*
D03*
X024242Y041298D02*
D03*
X023851Y041094D02*
D03*
X029160Y048810D02*
D03*
X028640Y049072D02*
D03*
X030530Y052332D02*
D03*
X028460Y052175D02*
D03*
X034620Y050510D02*
D03*
X035240Y050210D02*
D03*
X032097Y043020D02*
D03*
X033650Y048440D02*
D03*
X033990Y048670D02*
D03*
X034700Y049960D02*
D03*
X034330Y049630D02*
D03*
X035900Y049240D02*
D03*
X029900Y049270D02*
D03*
X035600Y049452D02*
D03*
X029640Y049500D02*
D03*
X027840Y049866D02*
D03*
X031130Y052180D02*
D03*
X035900Y052100D02*
D03*
X029883Y045867D02*
D03*
X028710Y050697D02*
D03*
X028666Y051094D02*
D03*
X027900Y051390D02*
D03*
X037440Y051040D02*
D03*
X037400Y045990D02*
D03*
X032600Y044630D02*
D03*
X025450Y053010D02*
D03*
X025700Y053260D02*
D03*
X026700Y052030D02*
D03*
X025053Y051680D02*
D03*
X026569Y051091D02*
D03*
X026150Y051060D02*
D03*
X036770Y042990D02*
D03*
X026930Y050890D02*
D03*
X026340Y050830D02*
D03*
X041452Y039616D02*
D03*
Y039366D02*
D03*
X041672D02*
D03*
X040272Y041556D02*
D03*
X040042D02*
D03*
X039812D02*
D03*
X039562D02*
D03*
X040272Y041236D02*
D03*
X040042D02*
D03*
X039812D02*
D03*
X039562D02*
D03*
X040272Y042206D02*
D03*
X040042D02*
D03*
X039812D02*
D03*
X040272Y041886D02*
D03*
X040042D02*
D03*
X039812D02*
D03*
X039562D02*
D03*
X027990Y027860D02*
D03*
Y027630D02*
D03*
Y027400D02*
D03*
Y027150D02*
D03*
X028310Y027860D02*
D03*
Y027630D02*
D03*
Y027400D02*
D03*
Y027150D02*
D03*
X028590Y027860D02*
D03*
Y027630D02*
D03*
Y027400D02*
D03*
Y027150D02*
D03*
X028910Y027860D02*
D03*
Y027630D02*
D03*
Y027400D02*
D03*
Y027150D02*
D03*
X041672Y039616D02*
D03*
Y039846D02*
D03*
Y040076D02*
D03*
X041452Y039846D02*
D03*
Y040076D02*
D03*
X041222Y039616D02*
D03*
Y039846D02*
D03*
X027525Y052015D02*
D03*
X027125Y052005D02*
D03*
X024180Y047030D02*
D03*
X023560Y052640D02*
D03*
X023684Y053044D02*
D03*
X026340Y048560D02*
D03*
X026140Y048720D02*
D03*
X025575Y052605D02*
D03*
X025475Y048575D02*
D03*
X023190Y049550D02*
D03*
X024520Y051230D02*
D03*
X024697Y048489D02*
D03*
X024260Y049850D02*
D03*
X024680Y047660D02*
D03*
X028680Y048710D02*
D03*
X036656Y043479D02*
D03*
X018010Y041720D02*
D03*
X018240Y042910D02*
D03*
X019150Y042580D02*
D03*
X018190Y040910D02*
D03*
M02*
