G04*
G04 #@! TF.GenerationSoftware,Altium Limited,Altium Designer,22.2.1 (43)*
G04*
G04 Layer_Physical_Order=1*
G04 Layer_Color=255*
%FSAX24Y24*%
%MOIN*%
G70*
G04*
G04 #@! TF.SameCoordinates,9FECD9A3-9FBE-45D8-96C7-32EA53B7FBE5*
G04*
G04*
G04 #@! TF.FilePolarity,Positive*
G04*
G01*
G75*
%ADD10C,0.0098*%
%ADD11C,0.0100*%
%ADD16C,0.0050*%
%ADD17C,0.0300*%
%ADD24R,0.0866X0.0433*%
%ADD25R,0.0433X0.0394*%
G04:AMPARAMS|DCode=26|XSize=61mil|YSize=23.6mil|CornerRadius=2mil|HoleSize=0mil|Usage=FLASHONLY|Rotation=180.000|XOffset=0mil|YOffset=0mil|HoleType=Round|Shape=RoundedRectangle|*
%AMROUNDEDRECTD26*
21,1,0.0610,0.0196,0,0,180.0*
21,1,0.0570,0.0236,0,0,180.0*
1,1,0.0040,-0.0285,0.0098*
1,1,0.0040,0.0285,0.0098*
1,1,0.0040,0.0285,-0.0098*
1,1,0.0040,-0.0285,-0.0098*
%
%ADD26ROUNDEDRECTD26*%
%ADD27R,0.0374X0.0551*%
%ADD28R,0.0244X0.0244*%
%ADD29R,0.0413X0.0551*%
%ADD30R,0.0276X0.0098*%
%ADD31R,0.0650X0.0937*%
%ADD32R,0.0394X0.0374*%
%ADD33R,0.0244X0.0244*%
%ADD34R,0.1120X0.0650*%
%ADD35R,0.0120X0.0350*%
G04:AMPARAMS|DCode=36|XSize=17.7mil|YSize=61mil|CornerRadius=1.9mil|HoleSize=0mil|Usage=FLASHONLY|Rotation=180.000|XOffset=0mil|YOffset=0mil|HoleType=Round|Shape=RoundedRectangle|*
%AMROUNDEDRECTD36*
21,1,0.0177,0.0571,0,0,180.0*
21,1,0.0138,0.0610,0,0,180.0*
1,1,0.0039,-0.0069,0.0286*
1,1,0.0039,0.0069,0.0286*
1,1,0.0039,0.0069,-0.0286*
1,1,0.0039,-0.0069,-0.0286*
%
%ADD36ROUNDEDRECTD36*%
%ADD37R,0.0374X0.0394*%
%ADD38R,0.0244X0.0228*%
%ADD39R,0.0236X0.0244*%
%ADD40R,0.0228X0.0244*%
%ADD41R,0.0354X0.0394*%
%ADD42R,0.1122X0.0492*%
%ADD43R,0.2402X0.2185*%
%ADD44R,0.0354X0.0157*%
%ADD45R,0.0827X0.0354*%
%ADD46R,0.0827X0.1260*%
%ADD47R,0.0728X0.0315*%
%ADD48R,0.0354X0.0098*%
%ADD49R,0.0098X0.0354*%
%ADD50R,0.0098X0.0512*%
%ADD51R,0.0098X0.0197*%
%ADD52R,0.0571X0.0748*%
%ADD53R,0.0315X0.0315*%
%ADD54R,0.0248X0.0260*%
%ADD55R,0.0315X0.0157*%
%ADD56R,0.0472X0.0118*%
%ADD57R,0.0118X0.0472*%
G04:AMPARAMS|DCode=58|XSize=21.7mil|YSize=31.5mil|CornerRadius=1.9mil|HoleSize=0mil|Usage=FLASHONLY|Rotation=0.000|XOffset=0mil|YOffset=0mil|HoleType=Round|Shape=RoundedRectangle|*
%AMROUNDEDRECTD58*
21,1,0.0217,0.0276,0,0,0.0*
21,1,0.0178,0.0315,0,0,0.0*
1,1,0.0039,0.0089,-0.0138*
1,1,0.0039,-0.0089,-0.0138*
1,1,0.0039,-0.0089,0.0138*
1,1,0.0039,0.0089,0.0138*
%
%ADD58ROUNDEDRECTD58*%
%ADD59R,0.0709X0.0453*%
%ADD60R,0.0374X0.0374*%
%ADD61R,0.0551X0.0177*%
%ADD62R,0.0689X0.1157*%
%ADD63R,0.0748X0.0571*%
%ADD64R,0.0394X0.0374*%
%ADD65R,0.0453X0.0551*%
%ADD66R,0.0374X0.0394*%
%ADD67R,0.0244X0.0236*%
%ADD68R,0.0272X0.0110*%
%ADD69R,0.0110X0.0272*%
%ADD70R,0.0984X0.0984*%
%ADD71R,0.0177X0.0295*%
%ADD72R,0.0945X0.0630*%
%ADD73R,0.0118X0.0354*%
%ADD74R,0.0354X0.0118*%
%ADD75R,0.0118X0.0118*%
%ADD76R,0.0394X0.0236*%
%ADD77R,0.0394X0.0394*%
%ADD78R,0.0551X0.0630*%
%ADD79R,0.0610X0.0748*%
%ADD80R,0.0531X0.0157*%
%ADD81R,0.0551X0.0413*%
%ADD82R,0.1516X0.0984*%
%ADD83R,0.0425X0.0362*%
%ADD84R,0.1240X0.0630*%
%ADD85R,0.0394X0.0354*%
%ADD86R,0.0315X0.0709*%
%ADD131R,0.0709X0.0709*%
%ADD164C,0.0400*%
%ADD165C,0.0200*%
%ADD166C,0.0600*%
%ADD167C,0.0500*%
%ADD168C,0.0180*%
%ADD169C,0.0080*%
%ADD170C,0.0290*%
%ADD171C,0.0120*%
%ADD172C,0.0150*%
%ADD173R,0.1050X0.0599*%
%ADD174R,0.1330X0.1846*%
%ADD175R,0.1089X0.0380*%
%ADD176R,0.0450X0.0860*%
%ADD177R,0.0450X0.0690*%
%ADD178C,0.1680*%
%ADD179C,0.0927*%
%ADD180C,0.0550*%
%ADD181C,0.0602*%
%ADD182C,0.0630*%
%ADD183R,0.0630X0.0630*%
%ADD184C,0.0787*%
%ADD185C,0.3937*%
%ADD186R,0.0594X0.0594*%
%ADD187C,0.0594*%
%ADD188R,0.0669X0.0669*%
%ADD189C,0.0669*%
%ADD190C,0.2362*%
%ADD191C,0.0591*%
%ADD192R,0.0591X0.0591*%
%ADD193R,0.0591X0.0591*%
%ADD194O,0.0709X0.1772*%
%ADD195O,0.1575X0.0709*%
%ADD196O,0.0709X0.1575*%
%ADD197O,0.0630X0.0354*%
%ADD198C,0.0197*%
%ADD199C,0.0500*%
%ADD200C,0.0260*%
G36*
X033684Y053637D02*
X033655Y053599D01*
X033615Y053503D01*
X033601Y053400D01*
X033615Y053297D01*
X033655Y053201D01*
X033718Y053118D01*
X033801Y053055D01*
X033897Y053015D01*
X034000Y053001D01*
X034103Y053015D01*
X034169Y053042D01*
X034248Y053004D01*
X034269Y052982D01*
Y052647D01*
X034222Y052566D01*
X033667D01*
Y052209D01*
Y051907D01*
X033649Y051894D01*
X033647D01*
X033553Y051986D01*
Y052209D01*
Y052566D01*
X032998D01*
Y052461D01*
X032576D01*
X032576Y052461D01*
X032518Y052449D01*
X032468Y052416D01*
X032297Y052245D01*
X032197Y052286D01*
Y052718D01*
X032197Y052802D01*
X032197Y052902D01*
Y053005D01*
X031603D01*
Y052902D01*
X031603Y052839D01*
X031603Y052818D01*
X031553Y052739D01*
X031424D01*
X031368Y052836D01*
X031369Y052839D01*
X031383Y052913D01*
X031368Y052991D01*
X031324Y053056D01*
X031259Y053100D01*
X031181Y053116D01*
X031104Y053100D01*
X031038Y053056D01*
X030994Y052991D01*
X030982Y052931D01*
X030844Y052793D01*
X026620D01*
X026561Y052781D01*
X026512Y052748D01*
X026072Y052308D01*
X026039Y052259D01*
X026027Y052200D01*
Y051742D01*
X025947Y051693D01*
X025868D01*
X025797Y051764D01*
Y052126D01*
Y052562D01*
X025797D01*
X025769Y052650D01*
X025762Y052683D01*
X025718Y052748D01*
X025653Y052792D01*
X025646Y052800D01*
X025616Y052901D01*
X025637Y052933D01*
X025644Y052967D01*
X025700Y053058D01*
X025777Y053073D01*
X025843Y053117D01*
X025887Y053183D01*
X025902Y053260D01*
X025887Y053337D01*
X025853Y053388D01*
Y053477D01*
X026060Y053683D01*
X026100Y053677D01*
X026109Y053671D01*
X026158Y053566D01*
X026137Y053513D01*
X026122Y053400D01*
X026137Y053287D01*
X026180Y053181D01*
X026250Y053090D01*
X026341Y053020D01*
X026447Y052977D01*
X026560Y052962D01*
X026673Y052977D01*
X026779Y053020D01*
X026870Y053090D01*
X026940Y053181D01*
X026983Y053287D01*
X026998Y053400D01*
X026983Y053513D01*
X026940Y053619D01*
X026926Y053637D01*
X026975Y053737D01*
X027145D01*
X027194Y053637D01*
X027180Y053619D01*
X027137Y053513D01*
X027122Y053400D01*
X027137Y053287D01*
X027180Y053181D01*
X027250Y053090D01*
X027341Y053020D01*
X027447Y052977D01*
X027560Y052962D01*
X027673Y052977D01*
X027779Y053020D01*
X027870Y053090D01*
X027940Y053181D01*
X027983Y053287D01*
X027998Y053400D01*
X027983Y053513D01*
X027940Y053619D01*
X027926Y053637D01*
X027975Y053737D01*
X028145D01*
X028194Y053637D01*
X028180Y053619D01*
X028137Y053513D01*
X028135Y053500D01*
X028985D01*
X028983Y053513D01*
X028940Y053619D01*
X028926Y053637D01*
X028975Y053737D01*
X029145D01*
X029194Y053637D01*
X029180Y053619D01*
X029137Y053513D01*
X029122Y053400D01*
X029137Y053287D01*
X029180Y053181D01*
X029250Y053090D01*
X029341Y053020D01*
X029447Y052977D01*
X029560Y052962D01*
X029673Y052977D01*
X029779Y053020D01*
X029870Y053090D01*
X029940Y053181D01*
X029983Y053287D01*
X029998Y053400D01*
X029983Y053513D01*
X029940Y053619D01*
X029926Y053637D01*
X029975Y053737D01*
X030145D01*
X030194Y053637D01*
X030180Y053619D01*
X030137Y053513D01*
X030122Y053400D01*
X030137Y053287D01*
X030180Y053181D01*
X030250Y053090D01*
X030341Y053020D01*
X030447Y052977D01*
X030560Y052962D01*
X030673Y052977D01*
X030779Y053020D01*
X030870Y053090D01*
X030940Y053181D01*
X030983Y053287D01*
X030998Y053400D01*
X030983Y053513D01*
X030940Y053619D01*
X030926Y053637D01*
X030975Y053737D01*
X032634D01*
X032684Y053637D01*
X032655Y053599D01*
X032615Y053503D01*
X032614Y053500D01*
X033000D01*
X033386D01*
X033385Y053503D01*
X033345Y053599D01*
X033316Y053637D01*
X033366Y053737D01*
X033634D01*
X033684Y053637D01*
D02*
G37*
G36*
X035605Y053500D02*
X036000D01*
Y053300D01*
X035605D01*
Y053005D01*
X035781D01*
X035790Y052905D01*
X035773Y052901D01*
X035724Y052868D01*
X035384Y052528D01*
X035350Y052479D01*
X035339Y052420D01*
Y051817D01*
X034279D01*
X034222Y051894D01*
Y051999D01*
X034265D01*
X034323Y052011D01*
X034373Y052044D01*
X034686Y052357D01*
X034719Y052407D01*
X034731Y052465D01*
Y052982D01*
X034752Y053004D01*
X034831Y053042D01*
X034897Y053015D01*
X035000Y053001D01*
X035103Y053015D01*
X035199Y053055D01*
X035282Y053118D01*
X035345Y053201D01*
X035385Y053297D01*
X035399Y053400D01*
X035385Y053503D01*
X035345Y053599D01*
X035316Y053637D01*
X035366Y053737D01*
X035605D01*
Y053500D01*
D02*
G37*
G36*
X054530Y052425D02*
X054430Y052422D01*
X054419Y052563D01*
X054372Y052759D01*
X054295Y052946D01*
X054189Y053118D01*
X054058Y053271D01*
X053905Y053402D01*
X053733Y053507D01*
X053547Y053584D01*
X053351Y053631D01*
X053250Y053639D01*
Y052362D01*
Y051085D01*
X053351Y051093D01*
X053547Y051140D01*
X053733Y051217D01*
X053905Y051323D01*
X054058Y051454D01*
X054189Y051607D01*
X054295Y051779D01*
X054372Y051965D01*
X054419Y052161D01*
X054430Y052303D01*
X054530Y052299D01*
Y017386D01*
X054430Y017382D01*
X054419Y017524D01*
X054372Y017720D01*
X054295Y017906D01*
X054189Y018078D01*
X054058Y018232D01*
X053905Y018362D01*
X053733Y018468D01*
X053547Y018545D01*
X053351Y018592D01*
X053250Y018600D01*
Y017323D01*
Y016046D01*
X053351Y016054D01*
X053547Y016101D01*
X053733Y016178D01*
X053905Y016283D01*
X054058Y016414D01*
X054189Y016567D01*
X054295Y016739D01*
X054372Y016926D01*
X054419Y017122D01*
X054430Y017264D01*
X054530Y017260D01*
Y015560D01*
X015570D01*
X015560Y015564D01*
Y017117D01*
X015660Y017122D01*
X015707Y016926D01*
X015784Y016739D01*
X015890Y016567D01*
X016020Y016414D01*
X016174Y016283D01*
X016346Y016178D01*
X016532Y016101D01*
X016728Y016054D01*
X016829Y016046D01*
Y017323D01*
Y018600D01*
X016728Y018592D01*
X016532Y018545D01*
X016346Y018468D01*
X016174Y018362D01*
X016020Y018232D01*
X015890Y018078D01*
X015784Y017906D01*
X015707Y017720D01*
X015660Y017524D01*
X015560Y017529D01*
Y021030D01*
Y038906D01*
X015804D01*
Y038983D01*
X016596D01*
X016655Y038995D01*
X016704Y039028D01*
X016873Y039197D01*
X024251D01*
Y039128D01*
X025049D01*
Y039197D01*
X029030D01*
X029089Y039209D01*
X029138Y039242D01*
X030158Y040262D01*
X030191Y040311D01*
X030203Y040370D01*
Y044082D01*
X030191Y044140D01*
X030158Y044190D01*
X029205Y045143D01*
Y045859D01*
X029301Y045868D01*
Y045868D01*
X029423D01*
Y046090D01*
Y046383D01*
X029422Y046384D01*
X029416Y046412D01*
X029457Y046473D01*
X029472Y046550D01*
X029459Y046618D01*
X029462Y046634D01*
X029517Y046718D01*
X030104D01*
Y046790D01*
X030148Y046799D01*
X030198Y046832D01*
X030233Y046867D01*
X030333Y046825D01*
Y046215D01*
X030227D01*
X030221Y046218D01*
X030163Y046230D01*
X030099D01*
Y046312D01*
X029623D01*
Y046090D01*
Y045868D01*
X029680D01*
X029681Y045867D01*
X029696Y045789D01*
X029740Y045724D01*
X029806Y045680D01*
X029883Y045664D01*
X029961Y045680D01*
X030026Y045724D01*
X030070Y045789D01*
X030079Y045834D01*
X030080Y045836D01*
X030155Y045897D01*
X030178Y045909D01*
X030663D01*
X030663Y045909D01*
X031005D01*
Y046106D01*
Y046227D01*
X030669D01*
Y046302D01*
X031005D01*
Y046499D01*
Y046893D01*
Y047293D01*
X031580D01*
X031638Y047304D01*
X031688Y047338D01*
X033651Y049301D01*
X033685Y049351D01*
X033696Y049409D01*
Y050462D01*
X033730Y050513D01*
X033746Y050591D01*
X033740Y050617D01*
X033809Y050717D01*
X034406D01*
X034453Y050617D01*
X034433Y050587D01*
X034418Y050510D01*
X034433Y050433D01*
X034477Y050367D01*
X034543Y050323D01*
X034620Y050308D01*
X034697Y050323D01*
X034748Y050357D01*
X034979D01*
X035000Y050338D01*
X035047Y050257D01*
X035038Y050210D01*
X035053Y050133D01*
X035097Y050067D01*
X035107Y050060D01*
Y047750D01*
X035119Y047691D01*
X035152Y047642D01*
X035850Y046944D01*
X035899Y046911D01*
X035958Y046899D01*
X036056D01*
X036076Y046879D01*
X036123Y046799D01*
X036117Y046770D01*
Y046484D01*
X036077Y046470D01*
X036017Y046468D01*
X035993Y046503D01*
X034853Y047643D01*
Y049832D01*
X034887Y049883D01*
X034902Y049960D01*
X034887Y050037D01*
X034843Y050103D01*
X034777Y050147D01*
X034700Y050162D01*
X034623Y050147D01*
X034557Y050103D01*
X034513Y050037D01*
X034498Y049960D01*
X034513Y049883D01*
X034453Y049793D01*
X034447Y049790D01*
X034407Y049817D01*
X034330Y049832D01*
X034253Y049817D01*
X034187Y049773D01*
X034143Y049707D01*
X034128Y049630D01*
X034143Y049553D01*
X034177Y049502D01*
Y048904D01*
X034077Y048850D01*
X034067Y048857D01*
X033990Y048872D01*
X033913Y048857D01*
X033847Y048813D01*
X033803Y048747D01*
X033794Y048703D01*
X033754Y048657D01*
X033693Y048634D01*
X033650Y048642D01*
X033573Y048627D01*
X033507Y048583D01*
X033463Y048517D01*
X033448Y048440D01*
X033463Y048363D01*
X033497Y048312D01*
Y046840D01*
X033509Y046781D01*
X033542Y046732D01*
X033764Y046510D01*
Y046046D01*
X033755Y046002D01*
Y045837D01*
X033760Y045815D01*
X033705Y045715D01*
X033167D01*
Y045379D01*
X033092D01*
Y045715D01*
X031199D01*
Y045043D01*
X032189D01*
Y044869D01*
X031968D01*
Y044345D01*
X031936Y044298D01*
X031921Y044220D01*
Y044092D01*
X031881D01*
Y043648D01*
X031818Y043617D01*
Y043023D01*
X031893D01*
Y043020D01*
X031909Y042942D01*
X031953Y042876D01*
X032019Y042832D01*
X032097Y042816D01*
X032175Y042832D01*
X032242Y042876D01*
X032286Y042942D01*
X032299Y043007D01*
X032392Y043023D01*
X032408D01*
Y043023D01*
X032595D01*
Y043320D01*
X032795D01*
Y043023D01*
X032865D01*
Y042600D01*
X033341D01*
Y042822D01*
Y043044D01*
X033230D01*
Y043180D01*
X033334D01*
Y043555D01*
X033534D01*
Y043180D01*
X034000D01*
Y043062D01*
X033921D01*
Y042618D01*
X034397D01*
Y042840D01*
Y043062D01*
X034285D01*
Y043180D01*
X034390D01*
Y043729D01*
X034481Y043820D01*
X034481Y043820D01*
X034512Y043866D01*
X034523Y043921D01*
Y044896D01*
X034514Y044943D01*
X034515Y044957D01*
X034542Y045013D01*
X034571Y045043D01*
X034813D01*
X034813Y045042D01*
X034744Y044942D01*
X034651D01*
Y044820D01*
X034873D01*
Y044620D01*
X034651D01*
Y044498D01*
Y044430D01*
X034873D01*
Y044330D01*
X034973D01*
Y044108D01*
X035060D01*
Y043712D01*
X035001D01*
Y043268D01*
X035001Y043268D01*
X035051Y043168D01*
X035045Y043141D01*
Y042865D01*
X035054Y042819D01*
X035081Y042779D01*
X035120Y042753D01*
X035167Y042743D01*
X035345D01*
X035391Y042753D01*
X035431Y042779D01*
X035457Y042819D01*
X035466Y042865D01*
Y043141D01*
X035461Y043168D01*
X035498Y043237D01*
X035524Y043268D01*
X035736D01*
X035776Y043220D01*
X035784Y043208D01*
X035797Y043158D01*
X035793Y043141D01*
Y042865D01*
X035803Y042819D01*
X035829Y042779D01*
X035868Y042753D01*
X035915Y042743D01*
X036093D01*
X036139Y042753D01*
X036168Y042772D01*
X036204Y042766D01*
X036268Y042732D01*
Y042723D01*
X036490D01*
X036728D01*
X036770Y042788D01*
X036847Y042803D01*
X036913Y042847D01*
X036957Y042913D01*
X036972Y042990D01*
X036957Y043068D01*
X036913Y043133D01*
X036847Y043177D01*
X036811Y043184D01*
X036791Y043208D01*
X036800Y043335D01*
X036844Y043401D01*
X036860Y043479D01*
X036844Y043557D01*
X036800Y043623D01*
X036734Y043667D01*
X036656Y043683D01*
X036569D01*
Y043702D01*
X035799D01*
Y043712D01*
X035770D01*
Y043848D01*
X035783Y043868D01*
X035796Y043930D01*
Y044098D01*
X035887D01*
Y044320D01*
Y044542D01*
X035792D01*
Y044717D01*
X035780Y044779D01*
X035744Y044832D01*
X035634Y044943D01*
X035674Y045040D01*
X035677Y045043D01*
X036025D01*
X037947Y043121D01*
Y040230D01*
X037480D01*
Y040161D01*
X037220D01*
Y040316D01*
X036807D01*
Y040490D01*
X036374D01*
Y040273D01*
X036587D01*
Y039765D01*
X036374D01*
Y039548D01*
X036807D01*
Y039722D01*
X037220D01*
Y039855D01*
X037426D01*
X037480Y039795D01*
Y039786D01*
X037491Y039782D01*
Y039660D01*
X037705D01*
Y039560D01*
X037805D01*
Y039338D01*
X037947D01*
Y037443D01*
X036712Y036208D01*
X036679Y036159D01*
X036667Y036100D01*
Y029800D01*
X036679Y029741D01*
X036712Y029692D01*
X040617Y025787D01*
X040666Y025754D01*
X040725Y025742D01*
X050312D01*
X052327Y023726D01*
X052377Y023693D01*
X052435Y023682D01*
X053179D01*
X053198Y023635D01*
X053261Y023553D01*
X053344Y023489D01*
X053440Y023450D01*
X053543Y023436D01*
X053646Y023450D01*
X053743Y023489D01*
X053825Y023553D01*
X053889Y023635D01*
X053928Y023731D01*
X053942Y023835D01*
X053928Y023938D01*
X053889Y024034D01*
X053825Y024117D01*
X053743Y024180D01*
X053646Y024220D01*
X053543Y024233D01*
X053440Y024220D01*
X053344Y024180D01*
X053261Y024117D01*
X053198Y024034D01*
X053179Y023988D01*
X052499D01*
X050483Y026003D01*
X050434Y026036D01*
X050375Y026048D01*
X040788D01*
X036973Y029863D01*
Y036037D01*
X038208Y037272D01*
X038241Y037321D01*
X038253Y037380D01*
Y039338D01*
X038289D01*
Y039782D01*
X038278Y039786D01*
Y040230D01*
X038253D01*
Y043184D01*
X038241Y043242D01*
X038208Y043292D01*
X036241Y045259D01*
Y045715D01*
X036038D01*
Y045983D01*
X036079Y045997D01*
X036138Y046000D01*
X036162Y045964D01*
X038424Y043703D01*
Y043306D01*
X038508D01*
Y036645D01*
X037452Y035588D01*
X037419Y035539D01*
X037407Y035480D01*
Y031520D01*
X037419Y031461D01*
X037452Y031412D01*
X039382Y029482D01*
X039431Y029449D01*
X039490Y029437D01*
X050470D01*
X050529Y029449D01*
X050578Y029482D01*
X052652Y031556D01*
X053179D01*
X053198Y031509D01*
X053261Y031427D01*
X053344Y031363D01*
X053440Y031324D01*
X053543Y031310D01*
X053646Y031324D01*
X053743Y031363D01*
X053825Y031427D01*
X053889Y031509D01*
X053928Y031605D01*
X053942Y031709D01*
X053928Y031812D01*
X053889Y031908D01*
X053825Y031991D01*
X053743Y032054D01*
X053646Y032094D01*
X053543Y032107D01*
X053440Y032094D01*
X053344Y032054D01*
X053261Y031991D01*
X053198Y031908D01*
X053179Y031862D01*
X052589D01*
X052530Y031850D01*
X052481Y031817D01*
X050407Y029743D01*
X039553D01*
X037713Y031583D01*
Y035417D01*
X038770Y036473D01*
X038803Y036523D01*
X038814Y036581D01*
Y042624D01*
X038837Y042715D01*
X039270D01*
Y043032D01*
Y043348D01*
X039057D01*
Y043857D01*
X039270D01*
Y044073D01*
X038837D01*
Y043899D01*
X038660D01*
X036742Y045816D01*
X036781Y045909D01*
X037107D01*
Y045931D01*
X037207Y045941D01*
X037213Y045913D01*
X037257Y045847D01*
X037323Y045803D01*
X037400Y045788D01*
X037477Y045803D01*
X037543Y045847D01*
X037587Y045913D01*
X037602Y045990D01*
X037625Y046018D01*
X037674D01*
Y046240D01*
X037774D01*
Y046340D01*
X037996D01*
Y046387D01*
X038897D01*
X039772Y045512D01*
X039821Y045479D01*
X039880Y045467D01*
X042797D01*
X045412Y042852D01*
X045461Y042819D01*
X045520Y042807D01*
X046966D01*
Y042738D01*
X047764D01*
Y042966D01*
X047817Y043019D01*
X047850Y043068D01*
X047862Y043127D01*
Y043446D01*
X047962Y043485D01*
X047995Y043450D01*
X048017Y043417D01*
X048083Y043373D01*
X048160Y043358D01*
X048237Y043373D01*
X048303Y043417D01*
X048347Y043483D01*
X048362Y043560D01*
X048396Y043601D01*
X048450D01*
Y043815D01*
X048650D01*
Y043601D01*
X048763D01*
Y043133D01*
X048801D01*
Y042698D01*
X049599D01*
Y042716D01*
X049700D01*
X049778Y042732D01*
X049844Y042776D01*
X049888Y042842D01*
X049904Y042920D01*
X049888Y042998D01*
X049865Y043033D01*
X049906Y043129D01*
X049909Y043133D01*
X049967D01*
Y043330D01*
X049680D01*
Y043530D01*
X049967D01*
Y043665D01*
X049967Y043727D01*
X049962Y043825D01*
Y043960D01*
X049675D01*
Y044060D01*
X049575D01*
Y044357D01*
X049432D01*
X049360Y044357D01*
X049288Y044357D01*
X049162D01*
Y044401D01*
X049146Y044479D01*
X049139Y044490D01*
X049145Y044519D01*
X049190Y044594D01*
X049237Y044603D01*
X049303Y044647D01*
X049347Y044713D01*
X049362Y044790D01*
X049356Y044820D01*
X049418Y044912D01*
X049431Y044920D01*
X049508D01*
X049555Y044929D01*
X049595Y044955D01*
X049621Y044995D01*
X049630Y045042D01*
Y045238D01*
X049621Y045285D01*
X049595Y045325D01*
X049580Y045334D01*
X049574Y045357D01*
Y045423D01*
X049580Y045446D01*
X049595Y045455D01*
X049621Y045495D01*
X049630Y045542D01*
Y045738D01*
X049621Y045785D01*
X049612Y045798D01*
X049634Y045857D01*
X049703Y045860D01*
X049710Y045857D01*
X049717Y045847D01*
X049783Y045803D01*
X049860Y045788D01*
X049937Y045803D01*
X050003Y045847D01*
X050035Y045895D01*
X050047Y045913D01*
X050060Y045974D01*
X050082Y046051D01*
X050082Y046143D01*
Y046421D01*
Y046816D01*
Y047186D01*
Y047300D01*
X049638D01*
Y047183D01*
X048926D01*
X048868Y047171D01*
X048826Y047144D01*
X048799Y047142D01*
X048711Y047160D01*
X048699Y047177D01*
X048679Y047191D01*
X048655Y047270D01*
X048653Y047307D01*
X048706Y047360D01*
X048739Y047409D01*
X048751Y047468D01*
Y047483D01*
X049002D01*
Y048077D01*
X049093Y048098D01*
X049559D01*
Y048167D01*
X049717D01*
X050327Y047557D01*
Y046310D01*
X050339Y046251D01*
X050372Y046202D01*
X050768Y045806D01*
X050817Y045773D01*
X050876Y045761D01*
X051395D01*
Y045519D01*
X052185D01*
Y046309D01*
X051395D01*
Y046067D01*
X050939D01*
X050633Y046373D01*
Y047620D01*
X050621Y047679D01*
X050588Y047728D01*
X049888Y048428D01*
X049839Y048461D01*
X049780Y048473D01*
X049559D01*
Y048542D01*
X048761D01*
Y048473D01*
X048510D01*
X048451Y048461D01*
X048432Y048448D01*
X048341Y048502D01*
X048340Y048503D01*
X048344Y048520D01*
X048328Y048598D01*
X048284Y048664D01*
X048218Y048708D01*
X048140Y048724D01*
X048059D01*
Y048742D01*
X047261D01*
Y048332D01*
X047236D01*
Y048110D01*
X047136D01*
Y048010D01*
X046914D01*
Y047922D01*
X046891D01*
Y047800D01*
X047113D01*
Y047700D01*
X047213D01*
Y047478D01*
X047272D01*
X047279Y047445D01*
X047323Y047379D01*
X047561Y047141D01*
Y046896D01*
X047520Y046862D01*
X047443Y046847D01*
X047439Y046844D01*
X047429Y046851D01*
X047382Y046860D01*
X046812D01*
X046765Y046851D01*
X046725Y046825D01*
X046699Y046785D01*
X046690Y046738D01*
Y046542D01*
X046699Y046495D01*
X046725Y046455D01*
X046727Y046354D01*
X046673Y046293D01*
X046642D01*
X046583Y046281D01*
X046534Y046248D01*
X046460Y046174D01*
X046238D01*
Y045746D01*
Y045376D01*
X046238D01*
Y045344D01*
X046238D01*
Y044916D01*
Y044546D01*
X046682D01*
Y044546D01*
X046782Y044547D01*
X047129Y044200D01*
Y043972D01*
X047129D01*
Y043966D01*
X047129D01*
Y043522D01*
X047556D01*
Y043190D01*
X047548Y043182D01*
X046966D01*
Y043113D01*
X045583D01*
X042968Y045728D01*
X042919Y045761D01*
X042860Y045773D01*
X039943D01*
X039068Y046648D01*
X039019Y046681D01*
X038960Y046693D01*
X037420D01*
X037382Y046785D01*
X037569Y046973D01*
X043176D01*
X043235Y046985D01*
X043284Y047018D01*
X043903Y047637D01*
X045800D01*
X045859Y047649D01*
X045908Y047682D01*
X047453Y049227D01*
X049467D01*
X050777Y047917D01*
Y047400D01*
X050789Y047341D01*
X050822Y047292D01*
X051162Y046952D01*
X051211Y046919D01*
X051270Y046907D01*
X052180D01*
X052239Y046919D01*
X052288Y046952D01*
X052640Y047304D01*
X052687Y047285D01*
X052790Y047271D01*
X052893Y047285D01*
X052989Y047325D01*
X053072Y047388D01*
X053135Y047471D01*
X053175Y047567D01*
X053189Y047670D01*
X053175Y047773D01*
X053135Y047869D01*
X053072Y047952D01*
X052989Y048015D01*
X052893Y048055D01*
X052790Y048069D01*
X052687Y048055D01*
X052591Y048015D01*
X052508Y047952D01*
X052445Y047869D01*
X052405Y047773D01*
X052391Y047670D01*
X052405Y047567D01*
X052424Y047520D01*
X052117Y047213D01*
X051981D01*
X051961Y047313D01*
X051989Y047325D01*
X052072Y047388D01*
X052135Y047471D01*
X052175Y047567D01*
X052189Y047670D01*
X052175Y047773D01*
X052156Y047820D01*
X052388Y048052D01*
X052421Y048101D01*
X052433Y048160D01*
Y048325D01*
X052451Y048340D01*
X052533Y048369D01*
X052591Y048325D01*
X052687Y048285D01*
X052690Y048284D01*
Y048670D01*
Y049056D01*
X052687Y049055D01*
X052591Y049015D01*
X052533Y048971D01*
X052451Y049000D01*
X052433Y049015D01*
Y049325D01*
X052451Y049340D01*
X052533Y049369D01*
X052591Y049325D01*
X052687Y049285D01*
X052790Y049271D01*
X052893Y049285D01*
X052989Y049325D01*
X053072Y049388D01*
X053135Y049471D01*
X053175Y049567D01*
X053189Y049670D01*
X053175Y049773D01*
X053135Y049869D01*
X053093Y049925D01*
Y050350D01*
X053082Y050428D01*
X053052Y050501D01*
X053004Y050564D01*
X052344Y051224D01*
X052281Y051272D01*
X052208Y051302D01*
X052130Y051313D01*
X047467D01*
X047388Y051302D01*
X047315Y051272D01*
X047253Y051224D01*
X047253Y051224D01*
X046764Y050735D01*
X046672Y050716D01*
Y050716D01*
X046098D01*
Y050432D01*
X046093Y050419D01*
X046082Y050341D01*
X046093Y050262D01*
X046098Y050250D01*
Y049965D01*
X046672D01*
Y050038D01*
X046797D01*
X046812Y050040D01*
X046859Y049945D01*
X045387Y048473D01*
X043477D01*
X043419Y048461D01*
X043369Y048428D01*
X042934Y047992D01*
X040268D01*
X040230Y048085D01*
X042622Y050477D01*
X044921D01*
X044960Y050485D01*
X045008Y050470D01*
X045071Y050430D01*
X045073Y050423D01*
X045117Y050357D01*
X045125Y050351D01*
X045083Y050289D01*
X045067Y050211D01*
X045083Y050133D01*
X045127Y050067D01*
X045193Y050022D01*
X045271Y050007D01*
X045311D01*
Y049965D01*
X045388D01*
X045403Y049893D01*
X045447Y049827D01*
X045513Y049782D01*
X045591Y049767D01*
X045669Y049782D01*
X045735Y049827D01*
X045780Y049893D01*
X045794Y049965D01*
X045885D01*
Y050716D01*
X045785D01*
Y050771D01*
X045770Y050849D01*
X045725Y050915D01*
X045659Y050959D01*
X045617Y050968D01*
X045578Y051062D01*
X045577Y051070D01*
X046166Y051658D01*
X049135D01*
X049194Y051670D01*
X049243Y051703D01*
X050565Y053025D01*
X051179D01*
Y053854D01*
X050349D01*
Y053241D01*
X049072Y051964D01*
X048646D01*
X048604Y052064D01*
X049599Y053059D01*
X049655Y053035D01*
X049764Y053021D01*
X049872Y053035D01*
X049973Y053077D01*
X050060Y053144D01*
X050126Y053230D01*
X050168Y053331D01*
X050182Y053440D01*
X050168Y053548D01*
X050126Y053649D01*
X050060Y053735D01*
X049973Y053802D01*
X049872Y053844D01*
X049764Y053858D01*
X049655Y053844D01*
X049555Y053802D01*
X049468Y053735D01*
X049401Y053649D01*
X049359Y053548D01*
X049345Y053440D01*
X049359Y053331D01*
X049383Y053275D01*
X048387Y052279D01*
X047961D01*
X047919Y052379D01*
X048599Y053059D01*
X048655Y053035D01*
X048764Y053021D01*
X048872Y053035D01*
X048973Y053077D01*
X049060Y053144D01*
X049126Y053230D01*
X049168Y053331D01*
X049182Y053440D01*
X049168Y053548D01*
X049126Y053649D01*
X049060Y053735D01*
X048973Y053802D01*
X048872Y053844D01*
X048764Y053858D01*
X048655Y053844D01*
X048555Y053802D01*
X048468Y053735D01*
X048401Y053649D01*
X048359Y053548D01*
X048345Y053440D01*
X048359Y053331D01*
X048383Y053275D01*
X047662Y052555D01*
X047226D01*
X047187Y052647D01*
X047599Y053059D01*
X047655Y053035D01*
X047764Y053021D01*
X047872Y053035D01*
X047973Y053077D01*
X048060Y053144D01*
X048126Y053230D01*
X048168Y053331D01*
X048182Y053440D01*
X048168Y053548D01*
X048126Y053649D01*
X048060Y053735D01*
X047973Y053802D01*
X047872Y053844D01*
X047764Y053858D01*
X047655Y053844D01*
X047555Y053802D01*
X047468Y053735D01*
X047401Y053649D01*
X047359Y053548D01*
X047345Y053440D01*
X047359Y053331D01*
X047383Y053275D01*
X046859Y052751D01*
X046433D01*
X046392Y052851D01*
X046599Y053059D01*
X046655Y053035D01*
X046764Y053021D01*
X046872Y053035D01*
X046973Y053077D01*
X047060Y053144D01*
X047126Y053230D01*
X047168Y053331D01*
X047182Y053440D01*
X047168Y053548D01*
X047126Y053649D01*
X047060Y053735D01*
X046973Y053802D01*
X046872Y053844D01*
X046764Y053858D01*
X046655Y053844D01*
X046555Y053802D01*
X046468Y053735D01*
X046401Y053649D01*
X046360Y053548D01*
X046345Y053440D01*
X046360Y053331D01*
X046383Y053275D01*
X046167Y053059D01*
X046122Y053066D01*
X046108Y053083D01*
X046082Y053173D01*
X046126Y053230D01*
X046168Y053331D01*
X046182Y053440D01*
X046168Y053548D01*
X046126Y053649D01*
X046060Y053735D01*
X045973Y053802D01*
X045872Y053844D01*
X045764Y053858D01*
X045655Y053844D01*
X045555Y053802D01*
X045468Y053735D01*
X045401Y053649D01*
X045360Y053548D01*
X045345Y053440D01*
X045360Y053331D01*
X045383Y053275D01*
X044229Y052121D01*
X043803D01*
X043762Y052221D01*
X044599Y053059D01*
X044655Y053035D01*
X044764Y053021D01*
X044872Y053035D01*
X044973Y053077D01*
X045060Y053144D01*
X045126Y053230D01*
X045168Y053331D01*
X045182Y053440D01*
X045168Y053548D01*
X045126Y053649D01*
X045060Y053735D01*
X044973Y053802D01*
X044872Y053844D01*
X044764Y053858D01*
X044655Y053844D01*
X044555Y053802D01*
X044468Y053735D01*
X044401Y053649D01*
X044359Y053548D01*
X044345Y053440D01*
X044359Y053331D01*
X044383Y053275D01*
X043544Y052436D01*
X043118D01*
X043077Y052536D01*
X043599Y053059D01*
X043655Y053035D01*
X043764Y053021D01*
X043872Y053035D01*
X043973Y053077D01*
X044060Y053144D01*
X044126Y053230D01*
X044168Y053331D01*
X044182Y053440D01*
X044168Y053548D01*
X044126Y053649D01*
X044060Y053735D01*
X043973Y053802D01*
X043872Y053844D01*
X043764Y053858D01*
X043655Y053844D01*
X043555Y053802D01*
X043468Y053735D01*
X043401Y053649D01*
X043359Y053548D01*
X043345Y053440D01*
X043359Y053331D01*
X043383Y053275D01*
X042820Y052712D01*
X042394D01*
X042353Y052812D01*
X042599Y053059D01*
X042655Y053035D01*
X042764Y053021D01*
X042872Y053035D01*
X042973Y053077D01*
X043060Y053144D01*
X043126Y053230D01*
X043168Y053331D01*
X043182Y053440D01*
X043168Y053548D01*
X043126Y053649D01*
X043060Y053735D01*
X042973Y053802D01*
X042872Y053844D01*
X042764Y053858D01*
X042655Y053844D01*
X042555Y053802D01*
X042468Y053735D01*
X042401Y053649D01*
X042359Y053548D01*
X042345Y053440D01*
X042359Y053331D01*
X042383Y053275D01*
X042167Y053059D01*
X042122Y053066D01*
X042108Y053083D01*
X042082Y053173D01*
X042126Y053230D01*
X042168Y053331D01*
X042182Y053440D01*
X042168Y053548D01*
X042126Y053649D01*
X042060Y053735D01*
X041973Y053802D01*
X041872Y053844D01*
X041764Y053858D01*
X041655Y053844D01*
X041555Y053802D01*
X041468Y053735D01*
X041401Y053649D01*
X041360Y053548D01*
X041345Y053440D01*
X041360Y053331D01*
X041383Y053275D01*
X041004Y052896D01*
X040912Y052946D01*
X040917Y052969D01*
Y053054D01*
X040973Y053077D01*
X041060Y053144D01*
X041126Y053230D01*
X041168Y053331D01*
X041182Y053440D01*
X041168Y053548D01*
X041126Y053649D01*
X041060Y053735D01*
X040973Y053802D01*
X040872Y053844D01*
X040764Y053858D01*
X040655Y053844D01*
X040555Y053802D01*
X040468Y053735D01*
X040401Y053649D01*
X040360Y053548D01*
X040345Y053440D01*
X040360Y053331D01*
X040401Y053230D01*
X040468Y053144D01*
X040532Y053094D01*
X040552Y053012D01*
X040550Y052971D01*
X037737Y050158D01*
X037107D01*
Y050562D01*
X037201Y050578D01*
Y050578D01*
X037677D01*
Y050800D01*
Y051022D01*
X037657D01*
X037642Y051040D01*
X037627Y051117D01*
X037583Y051183D01*
X037517Y051227D01*
X037440Y051242D01*
X037363Y051227D01*
X037297Y051183D01*
X037253Y051117D01*
X037238Y051040D01*
X037223Y051022D01*
X037201D01*
Y050980D01*
X037107Y050951D01*
Y050951D01*
X037107Y050951D01*
X036435D01*
Y050551D01*
X036115D01*
X035688Y050978D01*
X035639Y051011D01*
X035580Y051023D01*
X032200D01*
X032185Y051045D01*
X032238Y051145D01*
X036241D01*
Y051734D01*
X036317Y051809D01*
X036377Y051821D01*
X036442Y051865D01*
X036486Y051930D01*
X036502Y052008D01*
X036486Y052085D01*
X036442Y052151D01*
X036377Y052195D01*
X036299Y052210D01*
X036222Y052195D01*
X036190Y052173D01*
X036114Y052176D01*
X036070Y052202D01*
X036043Y052243D01*
X036037Y052247D01*
X036067Y052347D01*
X036490D01*
X036549Y052359D01*
X036598Y052392D01*
X037038Y052832D01*
X037071Y052881D01*
X037083Y052940D01*
Y053730D01*
X037071Y053789D01*
X037038Y053838D01*
X036628Y054248D01*
X036579Y054281D01*
X036520Y054293D01*
X025970D01*
X025911Y054281D01*
X025862Y054248D01*
X025342Y053728D01*
X025309Y053679D01*
X025297Y053620D01*
Y053138D01*
X025263Y053087D01*
X025248Y053010D01*
X025263Y052933D01*
X025307Y052867D01*
X025368Y052826D01*
X025369Y052819D01*
X025332Y052726D01*
X025225D01*
Y052439D01*
X025125D01*
Y052339D01*
X024828D01*
Y052152D01*
X024828D01*
Y052136D01*
X024828D01*
Y051562D01*
X024894D01*
X024900Y051552D01*
Y051175D01*
X024912Y051117D01*
X024945Y051067D01*
X025004Y051009D01*
X025053Y050976D01*
X025103Y050966D01*
Y050895D01*
X025551D01*
Y050439D01*
X025446D01*
Y050439D01*
X025370Y050408D01*
X025187Y050590D01*
X025138Y050623D01*
X025080Y050635D01*
X024747D01*
Y051178D01*
X024724D01*
Y051230D01*
X024708Y051308D01*
X024664Y051374D01*
X024598Y051418D01*
X024520Y051434D01*
X024442Y051418D01*
X024376Y051374D01*
X024332Y051308D01*
X024316Y051230D01*
Y051178D01*
X024303D01*
Y050766D01*
X024260Y050735D01*
X024203Y050722D01*
X024161Y050751D01*
X024103Y050762D01*
X023158D01*
X023103Y050855D01*
X023141Y050946D01*
X023154Y051044D01*
X023141Y051142D01*
X023103Y051233D01*
X023043Y051312D01*
X022964Y051372D01*
X022873Y051410D01*
X022775Y051422D01*
X022677Y051410D01*
X022586Y051372D01*
X022508Y051312D01*
X022470Y051262D01*
X022300D01*
X022263Y051255D01*
X022263Y051255D01*
X022230Y051304D01*
X022230Y051304D01*
X022125Y051409D01*
X022141Y051446D01*
X022154Y051544D01*
X022141Y051642D01*
X022103Y051733D01*
X022043Y051812D01*
X021964Y051872D01*
X021873Y051910D01*
X021775Y051922D01*
X021677Y051910D01*
X021586Y051872D01*
X021508Y051812D01*
X021447Y051733D01*
X021410Y051642D01*
X021397Y051544D01*
X021410Y051446D01*
X021447Y051355D01*
X021508Y051276D01*
X021586Y051216D01*
X021677Y051178D01*
X021775Y051166D01*
X021873Y051178D01*
X021892Y051186D01*
X021970Y051123D01*
Y050978D01*
X021873Y050910D01*
X021870Y050910D01*
X021775Y050922D01*
X021677Y050910D01*
X021586Y050872D01*
X021508Y050812D01*
X021447Y050733D01*
X021410Y050642D01*
X021397Y050544D01*
X021410Y050446D01*
X021447Y050355D01*
X021508Y050276D01*
X021586Y050216D01*
X021677Y050178D01*
X021775Y050166D01*
X021873Y050178D01*
X021910Y050194D01*
X022078Y050026D01*
Y049911D01*
X021978Y049861D01*
X021964Y049872D01*
X021873Y049910D01*
X021775Y049922D01*
X021677Y049910D01*
X021586Y049872D01*
X021508Y049812D01*
X021447Y049733D01*
X021410Y049642D01*
X021397Y049544D01*
X021410Y049446D01*
X021447Y049355D01*
X021508Y049276D01*
X021586Y049216D01*
X021677Y049178D01*
X021775Y049166D01*
X021873Y049178D01*
X021964Y049216D01*
X021978Y049227D01*
X022078Y049177D01*
Y048911D01*
X021978Y048861D01*
X021964Y048872D01*
X021873Y048910D01*
X021775Y048922D01*
X021677Y048910D01*
X021586Y048872D01*
X021508Y048812D01*
X021447Y048733D01*
X021410Y048642D01*
X021397Y048544D01*
X021410Y048446D01*
X021447Y048355D01*
X021508Y048276D01*
X021586Y048216D01*
X021677Y048178D01*
X021775Y048166D01*
X021873Y048178D01*
X021964Y048216D01*
X022043Y048276D01*
X022103Y048355D01*
X022130Y048421D01*
X022233Y048459D01*
X022307Y048385D01*
X022357Y048352D01*
X022405Y048342D01*
X022425Y048314D01*
X022453Y048240D01*
X022447Y048233D01*
X022411Y048144D01*
X022775D01*
X023140D01*
X023103Y048233D01*
X023097Y048240D01*
X023147Y048340D01*
X023745D01*
X023803Y048352D01*
X023853Y048385D01*
X024506Y049038D01*
X024703D01*
Y048783D01*
X024553Y048633D01*
X024509Y048567D01*
X024494Y048493D01*
X024453D01*
Y048057D01*
Y047695D01*
X024476D01*
Y047660D01*
X024492Y047582D01*
X024536Y047516D01*
X024602Y047472D01*
X024680Y047456D01*
X024758Y047472D01*
X024824Y047516D01*
X024868Y047582D01*
X024884Y047660D01*
Y047695D01*
X024975D01*
Y047909D01*
X025175D01*
Y047695D01*
X025375D01*
Y047917D01*
X025575D01*
Y047695D01*
X025641D01*
X025703Y047620D01*
Y047176D01*
Y047144D01*
X025925D01*
Y047044D01*
X026025D01*
Y046822D01*
X026147D01*
Y046835D01*
X026360D01*
Y047211D01*
X026560D01*
Y046835D01*
X027417D01*
Y046845D01*
X027525D01*
Y047067D01*
X027625D01*
Y047167D01*
X027847D01*
Y047272D01*
X028302D01*
Y047494D01*
X028502D01*
Y047272D01*
X028557D01*
Y044720D01*
X028569Y044661D01*
X028602Y044612D01*
X029397Y043817D01*
Y041163D01*
X029275Y041042D01*
X029175Y041083D01*
Y041164D01*
X028762D01*
Y040987D01*
X029080D01*
X029121Y040887D01*
X028527Y040293D01*
X025049D01*
Y040362D01*
X024251D01*
Y040293D01*
X016993D01*
X016770Y040516D01*
X016721Y040549D01*
X016662Y040561D01*
X016067D01*
Y040586D01*
X015804D01*
Y040957D01*
X015560D01*
Y041313D01*
X015660Y041362D01*
X015678Y041349D01*
X015745Y041321D01*
X015818Y041311D01*
X015855D01*
Y041591D01*
X015955D01*
Y041691D01*
X016352D01*
X016335Y041730D01*
X016291Y041788D01*
X016233Y041833D01*
X016207Y041843D01*
X016227Y041943D01*
X016361D01*
Y042317D01*
X015955D01*
Y042517D01*
X016361D01*
Y042888D01*
Y043262D01*
X015955D01*
Y043462D01*
X016361D01*
Y043836D01*
X016227D01*
X016207Y043936D01*
X016233Y043947D01*
X016291Y043991D01*
X016335Y044049D01*
X016352Y044089D01*
X015955D01*
Y044189D01*
X015855D01*
Y044469D01*
X015818D01*
X015745Y044459D01*
X015678Y044431D01*
X015660Y044417D01*
X015560Y044467D01*
Y046190D01*
X015560D01*
X015550Y046200D01*
X015560Y054520D01*
X054530D01*
Y052425D01*
D02*
G37*
G36*
X031158Y052543D02*
Y052405D01*
X031130Y052382D01*
X031053Y052367D01*
X030987Y052323D01*
X030943Y052257D01*
X030928Y052180D01*
X030943Y052103D01*
X030987Y052037D01*
X031053Y051993D01*
X031130Y051978D01*
X031158Y051955D01*
Y051941D01*
X031158D01*
X031201Y051851D01*
X031200Y051817D01*
X031199D01*
Y051145D01*
X031517D01*
Y051475D01*
X031518Y051481D01*
X031592D01*
Y051145D01*
X031614D01*
X031619Y051121D01*
X031652Y051071D01*
X031962Y050762D01*
X032011Y050729D01*
X032070Y050717D01*
X032806D01*
X032874Y050617D01*
X032869Y050591D01*
X032884Y050513D01*
X032918Y050462D01*
Y049473D01*
X031241Y047796D01*
X031005D01*
Y048271D01*
Y048665D01*
Y049058D01*
Y049452D01*
Y049846D01*
Y050239D01*
Y050633D01*
Y050951D01*
X030333D01*
Y050951D01*
X030234Y050955D01*
X029749Y051439D01*
X029700Y051473D01*
X029641Y051484D01*
X029367D01*
X028731Y052120D01*
X028772Y052220D01*
X028981D01*
X029026Y052190D01*
X029085Y052179D01*
X030402D01*
X030453Y052145D01*
X030530Y052129D01*
X030607Y052145D01*
X030673Y052189D01*
X030717Y052254D01*
X030732Y052332D01*
X030721Y052387D01*
X030761Y052459D01*
X030785Y052487D01*
X030908D01*
X030966Y052499D01*
X031016Y052532D01*
X031066Y052582D01*
X031158Y052543D01*
D02*
G37*
G36*
X028258Y052175D02*
X028273Y052098D01*
X028317Y052032D01*
X028383Y051988D01*
X028443Y051976D01*
X029196Y051223D01*
X029245Y051190D01*
X029304Y051178D01*
X029578D01*
X030072Y050684D01*
X030122Y050651D01*
X030180Y050639D01*
X030333D01*
Y050436D01*
Y050043D01*
Y049567D01*
X030184D01*
X030126Y049556D01*
X030076Y049522D01*
X029997Y049444D01*
X029977Y049457D01*
X029937Y049465D01*
X029893Y049481D01*
X029830Y049560D01*
X029827Y049577D01*
X029783Y049643D01*
X029717Y049687D01*
X029640Y049702D01*
X029563Y049687D01*
X029507Y049650D01*
X028624D01*
Y049794D01*
X028402D01*
Y049994D01*
X028624D01*
Y050072D01*
Y050194D01*
X028410D01*
Y050394D01*
X028624D01*
Y050493D01*
X028710D01*
X028788Y050509D01*
X028854Y050553D01*
X028898Y050619D01*
X028914Y050697D01*
X028898Y050775D01*
X028854Y050841D01*
X028840Y050851D01*
X028831Y050880D01*
X028824Y050973D01*
X028824Y050973D01*
X028853Y051017D01*
X028868Y051094D01*
X028853Y051171D01*
X028809Y051237D01*
X028743Y051281D01*
X028715Y051287D01*
X028624Y051316D01*
X028624Y051316D01*
X028624Y051316D01*
X028163D01*
X028102Y051390D01*
X028087Y051467D01*
X028043Y051533D01*
X027977Y051577D01*
X027900Y051592D01*
X027847Y051582D01*
X027772Y051624D01*
X027747Y051647D01*
Y051850D01*
X027747Y051943D01*
X027747D01*
X027727Y052021D01*
X027712Y052092D01*
X027693Y052120D01*
X027741Y052220D01*
X028220D01*
X028258Y052175D01*
D02*
G37*
G36*
X023980Y049322D02*
X023995D01*
X024037Y049222D01*
X023617Y048802D01*
X023181D01*
X023123Y048902D01*
X023141Y048946D01*
X023154Y049044D01*
X023141Y049142D01*
X023103Y049233D01*
X023069Y049278D01*
X023084Y049307D01*
X023132Y049359D01*
X023190Y049348D01*
X023203Y049350D01*
X023303Y049322D01*
Y049322D01*
X023780D01*
Y049544D01*
X023980D01*
Y049322D01*
D02*
G37*
G36*
X051395Y049275D02*
X052127D01*
Y049036D01*
X052027Y048986D01*
X051989Y049015D01*
X051893Y049055D01*
X051890Y049056D01*
Y048670D01*
Y048284D01*
X051893Y048285D01*
X051989Y048325D01*
X052020Y048348D01*
X052107Y048307D01*
X052116Y048212D01*
X051940Y048036D01*
X051893Y048055D01*
X051790Y048069D01*
X051687Y048055D01*
X051591Y048015D01*
X051508Y047952D01*
X051445Y047869D01*
X051405Y047773D01*
X051391Y047670D01*
X051405Y047567D01*
X051445Y047471D01*
X051508Y047388D01*
X051591Y047325D01*
X051619Y047313D01*
X051599Y047213D01*
X051333D01*
X051083Y047463D01*
Y047980D01*
X051071Y048039D01*
X051038Y048088D01*
X049709Y049417D01*
X049751Y049517D01*
X051395D01*
Y049275D01*
D02*
G37*
G36*
X035536Y045918D02*
Y045715D01*
X034939D01*
Y045418D01*
X034937Y045410D01*
Y045379D01*
X034863D01*
Y045715D01*
X034463D01*
Y046839D01*
X034461Y046851D01*
X034553Y046900D01*
X035536Y045918D01*
D02*
G37*
%LPC*%
G36*
X032197Y053392D02*
X032000D01*
Y053205D01*
X032197D01*
Y053392D01*
D02*
G37*
G36*
X031800D02*
X031603D01*
Y053205D01*
X031800D01*
Y053392D01*
D02*
G37*
G36*
X033386Y053300D02*
X033100D01*
Y053014D01*
X033103Y053015D01*
X033199Y053055D01*
X033282Y053118D01*
X033345Y053201D01*
X033385Y053297D01*
X033386Y053300D01*
D02*
G37*
G36*
X032900D02*
X032614D01*
X032615Y053297D01*
X032655Y053201D01*
X032718Y053118D01*
X032801Y053055D01*
X032897Y053015D01*
X032900Y053014D01*
Y053300D01*
D02*
G37*
G36*
X028985D02*
X028660D01*
Y052975D01*
X028673Y052977D01*
X028779Y053020D01*
X028870Y053090D01*
X028940Y053181D01*
X028983Y053287D01*
X028985Y053300D01*
D02*
G37*
G36*
X028460D02*
X028135D01*
X028137Y053287D01*
X028180Y053181D01*
X028250Y053090D01*
X028341Y053020D01*
X028447Y052977D01*
X028460Y052975D01*
Y053300D01*
D02*
G37*
G36*
X037864Y053845D02*
Y053540D01*
X038169D01*
X038168Y053548D01*
X038126Y053649D01*
X038060Y053735D01*
X037973Y053802D01*
X037872Y053844D01*
X037864Y053845D01*
D02*
G37*
G36*
X037664D02*
X037655Y053844D01*
X037555Y053802D01*
X037468Y053735D01*
X037401Y053649D01*
X037359Y053548D01*
X037358Y053540D01*
X037664D01*
Y053845D01*
D02*
G37*
G36*
X024574Y053266D02*
X024460D01*
Y053144D01*
X024574D01*
Y053266D01*
D02*
G37*
G36*
X038169Y053340D02*
X037864D01*
Y053034D01*
X037872Y053035D01*
X037973Y053077D01*
X038060Y053144D01*
X038126Y053230D01*
X038168Y053331D01*
X038169Y053340D01*
D02*
G37*
G36*
X037664D02*
X037358D01*
X037359Y053331D01*
X037401Y053230D01*
X037468Y053144D01*
X037555Y053077D01*
X037655Y053035D01*
X037664Y053034D01*
Y053340D01*
D02*
G37*
G36*
X039764Y053858D02*
X039655Y053844D01*
X039555Y053802D01*
X039468Y053735D01*
X039401Y053649D01*
X039360Y053548D01*
X039345Y053440D01*
X039360Y053331D01*
X039401Y053230D01*
X039468Y053144D01*
X039555Y053077D01*
X039655Y053035D01*
X039764Y053021D01*
X039872Y053035D01*
X039973Y053077D01*
X040060Y053144D01*
X040126Y053230D01*
X040168Y053331D01*
X040182Y053440D01*
X040168Y053548D01*
X040126Y053649D01*
X040060Y053735D01*
X039973Y053802D01*
X039872Y053844D01*
X039764Y053858D01*
D02*
G37*
G36*
X038764D02*
X038655Y053844D01*
X038555Y053802D01*
X038468Y053735D01*
X038401Y053649D01*
X038359Y053548D01*
X038345Y053440D01*
X038359Y053331D01*
X038401Y053230D01*
X038468Y053144D01*
X038555Y053077D01*
X038655Y053035D01*
X038764Y053021D01*
X038872Y053035D01*
X038973Y053077D01*
X039060Y053144D01*
X039126Y053230D01*
X039168Y053331D01*
X039182Y053440D01*
X039168Y053548D01*
X039126Y053649D01*
X039060Y053735D01*
X038973Y053802D01*
X038872Y053844D01*
X038764Y053858D01*
D02*
G37*
G36*
X020576Y053450D02*
Y052994D01*
X021031D01*
X021025Y053042D01*
X020968Y053179D01*
X020878Y053296D01*
X020760Y053387D01*
X020623Y053443D01*
X020576Y053450D01*
D02*
G37*
G36*
X020376D02*
X020329Y053443D01*
X020192Y053387D01*
X020074Y053296D01*
X019984Y053179D01*
X019927Y053042D01*
X019908Y052894D01*
X019911Y052867D01*
X019817Y052815D01*
X019800Y052829D01*
X019637Y052916D01*
X019459Y052970D01*
X019275Y052988D01*
X019091Y052970D01*
X018914Y052916D01*
X018751Y052829D01*
X018607Y052712D01*
X018490Y052569D01*
X018403Y052405D01*
X018349Y052228D01*
X018331Y052044D01*
X018349Y051860D01*
X018403Y051683D01*
X018490Y051519D01*
X018607Y051376D01*
X018751Y051259D01*
X018914Y051172D01*
X019091Y051118D01*
X019275Y051100D01*
X019459Y051118D01*
X019637Y051172D01*
X019800Y051259D01*
X019943Y051376D01*
X020060Y051519D01*
X020148Y051683D01*
X020201Y051860D01*
X020220Y052044D01*
X020201Y052228D01*
X020180Y052299D01*
X020262Y052373D01*
X020329Y052345D01*
X020376Y052339D01*
Y052894D01*
Y053450D01*
D02*
G37*
G36*
X025025Y052726D02*
X024828D01*
Y052539D01*
X025025D01*
Y052726D01*
D02*
G37*
G36*
X053050Y053639D02*
X052949Y053631D01*
X052752Y053584D01*
X052566Y053507D01*
X052394Y053402D01*
X052241Y053271D01*
X052110Y053118D01*
X052005Y052946D01*
X051927Y052759D01*
X051880Y052563D01*
X051872Y052462D01*
X053050D01*
Y053639D01*
D02*
G37*
G36*
X024574Y052544D02*
X024460D01*
Y052422D01*
X024574D01*
Y052544D01*
D02*
G37*
G36*
X023776Y053266D02*
X023684Y053246D01*
X023607Y053231D01*
X023541Y053187D01*
X023497Y053121D01*
X023482Y053044D01*
X023497Y052967D01*
X023518Y052936D01*
X023486Y052831D01*
X023483Y052827D01*
X023417Y052783D01*
X023373Y052717D01*
X023358Y052640D01*
X023373Y052563D01*
X023417Y052497D01*
X023483Y052453D01*
X023560Y052438D01*
X023637Y052453D01*
X023676Y052479D01*
X023776Y052447D01*
Y052422D01*
X024260D01*
Y052644D01*
X024360D01*
Y052744D01*
X024574D01*
Y052822D01*
Y052944D01*
X024360D01*
Y053044D01*
X024260D01*
Y053266D01*
X023776D01*
Y053266D01*
D02*
G37*
G36*
X021031Y052794D02*
X020576D01*
Y052339D01*
X020623Y052345D01*
X020760Y052402D01*
X020878Y052492D01*
X020968Y052610D01*
X021025Y052747D01*
X021031Y052794D01*
D02*
G37*
G36*
X017346Y052689D02*
X017241Y052675D01*
X017144Y052635D01*
X017060Y052570D01*
X016996Y052486D01*
X016955Y052389D01*
X016941Y052284D01*
X016955Y052179D01*
X016996Y052082D01*
X017060Y051998D01*
X017144Y051934D01*
X017241Y051893D01*
X017346Y051880D01*
X017451Y051893D01*
X017548Y051934D01*
X017632Y051998D01*
X017696Y052082D01*
X017737Y052179D01*
X017751Y052284D01*
X017737Y052389D01*
X017696Y052486D01*
X017632Y052570D01*
X017548Y052635D01*
X017451Y052675D01*
X017346Y052689D01*
D02*
G37*
G36*
X053050Y052262D02*
X051872D01*
X051880Y052161D01*
X051927Y051965D01*
X052005Y051779D01*
X052110Y051607D01*
X052241Y051454D01*
X052394Y051323D01*
X052566Y051217D01*
X052752Y051140D01*
X052949Y051093D01*
X053050Y051085D01*
Y052262D01*
D02*
G37*
G36*
X017944Y051724D02*
X017840Y051710D01*
X017742Y051670D01*
X017658Y051606D01*
X017594Y051522D01*
X017554Y051424D01*
X017540Y051320D01*
X017554Y051215D01*
X017594Y051117D01*
X017658Y051033D01*
X017742Y050969D01*
X017840Y050929D01*
X017944Y050915D01*
X018049Y050929D01*
X018147Y050969D01*
X018231Y051033D01*
X018295Y051117D01*
X018335Y051215D01*
X018349Y051320D01*
X018335Y051424D01*
X018295Y051522D01*
X018231Y051606D01*
X018147Y051670D01*
X018049Y051710D01*
X017944Y051724D01*
D02*
G37*
G36*
X037999Y051022D02*
X037877D01*
Y050900D01*
X037999D01*
Y051022D01*
D02*
G37*
G36*
Y050700D02*
X037877D01*
Y050578D01*
X037999D01*
Y050700D01*
D02*
G37*
G36*
X052890Y049056D02*
Y048770D01*
X053176D01*
X053175Y048773D01*
X053135Y048869D01*
X053072Y048952D01*
X052989Y049015D01*
X052893Y049055D01*
X052890Y049056D01*
D02*
G37*
G36*
X053176Y048570D02*
X052890D01*
Y048284D01*
X052893Y048285D01*
X052989Y048325D01*
X053072Y048388D01*
X053135Y048471D01*
X053175Y048567D01*
X053176Y048570D01*
D02*
G37*
G36*
X047036Y048332D02*
X046914D01*
Y048210D01*
X047036D01*
Y048332D01*
D02*
G37*
G36*
X017346Y048673D02*
X017241Y048659D01*
X017144Y048619D01*
X017060Y048555D01*
X016996Y048471D01*
X016955Y048373D01*
X016941Y048268D01*
X016955Y048164D01*
X016996Y048066D01*
X017060Y047982D01*
X017144Y047918D01*
X017241Y047878D01*
X017346Y047864D01*
X017451Y047878D01*
X017548Y047918D01*
X017632Y047982D01*
X017696Y048066D01*
X017737Y048164D01*
X017751Y048268D01*
X017737Y048373D01*
X017696Y048471D01*
X017632Y048555D01*
X017548Y048619D01*
X017451Y048659D01*
X017346Y048673D01*
D02*
G37*
G36*
X022675Y047944D02*
X022411D01*
X022447Y047855D01*
X022508Y047776D01*
X022586Y047716D01*
X022675Y047679D01*
Y047944D01*
D02*
G37*
G36*
X023140D02*
X022875D01*
Y047679D01*
X022964Y047716D01*
X023043Y047776D01*
X023103Y047855D01*
X023140Y047944D01*
D02*
G37*
G36*
X019275Y048488D02*
X019091Y048470D01*
X018914Y048416D01*
X018751Y048329D01*
X018607Y048212D01*
X018490Y048069D01*
X018403Y047905D01*
X018349Y047728D01*
X018338Y047615D01*
X018234Y047585D01*
X018231Y047590D01*
X018147Y047654D01*
X018049Y047695D01*
X017944Y047709D01*
X017840Y047695D01*
X017742Y047654D01*
X017658Y047590D01*
X017594Y047506D01*
X017554Y047409D01*
X017540Y047304D01*
X017554Y047199D01*
X017594Y047102D01*
X017658Y047018D01*
X017742Y046953D01*
X017840Y046913D01*
X017944Y046899D01*
X018049Y046913D01*
X018147Y046953D01*
X018231Y047018D01*
X018295Y047102D01*
X018313Y047146D01*
X018314Y047146D01*
X018422Y047147D01*
X018490Y047019D01*
X018607Y046876D01*
X018751Y046759D01*
X018914Y046672D01*
X019091Y046618D01*
X019275Y046600D01*
X019459Y046618D01*
X019637Y046672D01*
X019800Y046759D01*
X019817Y046773D01*
X019911Y046721D01*
X019908Y046694D01*
X019927Y046547D01*
X019984Y046409D01*
X020074Y046292D01*
X020192Y046201D01*
X020329Y046145D01*
X020376Y046138D01*
Y046694D01*
Y047249D01*
X020329Y047243D01*
X020262Y047215D01*
X020180Y047289D01*
X020201Y047360D01*
X020220Y047544D01*
X020201Y047728D01*
X020148Y047905D01*
X020060Y048069D01*
X019943Y048212D01*
X019800Y048329D01*
X019637Y048416D01*
X019459Y048470D01*
X019275Y048488D01*
D02*
G37*
G36*
X050082Y047614D02*
X049960D01*
Y047500D01*
X050082D01*
Y047614D01*
D02*
G37*
G36*
X049760D02*
X049638D01*
Y047500D01*
X049760D01*
Y047614D01*
D02*
G37*
G36*
X047013Y047600D02*
X046891D01*
Y047478D01*
X047013D01*
Y047600D01*
D02*
G37*
G36*
X024180Y047232D02*
X024103Y047217D01*
X024037Y047173D01*
X023993Y047107D01*
X023978Y047031D01*
X023958Y046939D01*
X023958D01*
Y046511D01*
Y046455D01*
X024180D01*
X024402D01*
Y046511D01*
Y046939D01*
X024402D01*
X024382Y047031D01*
X024367Y047107D01*
X024323Y047173D01*
X024257Y047217D01*
X024180Y047232D01*
D02*
G37*
G36*
X027847Y046967D02*
X027725D01*
Y046845D01*
X027847D01*
Y046967D01*
D02*
G37*
G36*
X025825Y046944D02*
X025703D01*
Y046822D01*
X025825D01*
Y046944D01*
D02*
G37*
G36*
X020576Y047249D02*
Y046794D01*
X021031D01*
X021025Y046841D01*
X020968Y046978D01*
X020878Y047096D01*
X020760Y047186D01*
X020623Y047243D01*
X020576Y047249D01*
D02*
G37*
G36*
X024402Y046255D02*
X024280D01*
Y046141D01*
X024402D01*
Y046255D01*
D02*
G37*
G36*
X024080D02*
X023958D01*
Y046141D01*
X024080D01*
Y046255D01*
D02*
G37*
G36*
X021031Y046594D02*
X020576D01*
Y046138D01*
X020623Y046145D01*
X020760Y046201D01*
X020878Y046292D01*
X020968Y046409D01*
X021025Y046547D01*
X021031Y046594D01*
D02*
G37*
G36*
X037996Y046140D02*
X037874D01*
Y046018D01*
X037996D01*
Y046140D01*
D02*
G37*
G36*
X052890Y046300D02*
Y046014D01*
X053176D01*
X053175Y046017D01*
X053135Y046113D01*
X053072Y046196D01*
X052989Y046259D01*
X052893Y046299D01*
X052890Y046300D01*
D02*
G37*
G36*
X052690Y046300D02*
X052687Y046299D01*
X052591Y046259D01*
X052508Y046196D01*
X052445Y046113D01*
X052405Y046017D01*
X052404Y046014D01*
X052690D01*
Y046300D01*
D02*
G37*
G36*
X028422Y046036D02*
X028300D01*
Y045914D01*
X028422D01*
Y046036D01*
D02*
G37*
G36*
X027823Y046058D02*
X027360D01*
Y045811D01*
X027160D01*
Y046058D01*
X026697D01*
Y045635D01*
X026688D01*
Y045320D01*
X027260D01*
Y045120D01*
X026688D01*
Y044805D01*
X026650Y044727D01*
X026631Y044629D01*
X026650Y044532D01*
X026688Y044476D01*
X026664Y044373D01*
X026608Y044357D01*
X026338D01*
Y044160D01*
X026625D01*
Y044060D01*
X026725D01*
Y043763D01*
X026788D01*
X026858Y043700D01*
X026858Y043698D01*
Y043601D01*
X026854Y043597D01*
X026819Y043511D01*
X026807Y043420D01*
Y043275D01*
X026432Y042900D01*
X025905D01*
Y041440D01*
X026931D01*
Y041817D01*
X028662D01*
X028753Y041829D01*
X028839Y041864D01*
X028876Y041893D01*
X029175D01*
Y042447D01*
X028876D01*
X028839Y042476D01*
X028753Y042511D01*
X028662Y042523D01*
X027184D01*
X027146Y042615D01*
X027410Y042879D01*
X027466Y042952D01*
X027475Y042975D01*
X027570Y043025D01*
X027598Y043020D01*
X027610Y043018D01*
X027633D01*
X027752Y042899D01*
X027825Y042843D01*
X027910Y042807D01*
X028002Y042795D01*
X028589D01*
X028612Y042798D01*
X029175D01*
Y043353D01*
X028874D01*
X028839Y043398D01*
X028766Y043454D01*
X028681Y043489D01*
X028589Y043501D01*
X028176D01*
X028170Y043533D01*
X028162Y043545D01*
Y043615D01*
X028170Y043628D01*
X028186Y043705D01*
X028233Y043763D01*
X028321D01*
Y044060D01*
X028421D01*
Y044160D01*
X028708D01*
Y044357D01*
X028510D01*
X028422Y044386D01*
Y044756D01*
Y045184D01*
X028422D01*
Y045238D01*
X028422D01*
Y045592D01*
Y045714D01*
X028200D01*
Y045814D01*
X028100D01*
Y046036D01*
X027978D01*
Y045960D01*
X027885Y045901D01*
X027823Y045936D01*
Y046058D01*
D02*
G37*
G36*
X052690Y045814D02*
X052404D01*
X052405Y045811D01*
X052445Y045715D01*
X052508Y045632D01*
X052591Y045569D01*
X052687Y045529D01*
X052690Y045529D01*
Y045814D01*
D02*
G37*
G36*
X053176D02*
X052890D01*
Y045529D01*
X052893Y045529D01*
X052989Y045569D01*
X053072Y045632D01*
X053135Y045715D01*
X053175Y045811D01*
X053176Y045814D01*
D02*
G37*
G36*
X051890Y045300D02*
Y045014D01*
X052176D01*
X052175Y045017D01*
X052135Y045113D01*
X052072Y045196D01*
X051989Y045259D01*
X051893Y045299D01*
X051890Y045300D01*
D02*
G37*
G36*
X051690Y045300D02*
X051687Y045299D01*
X051591Y045259D01*
X051508Y045196D01*
X051445Y045113D01*
X051405Y045017D01*
X051404Y045014D01*
X051690D01*
Y045300D01*
D02*
G37*
G36*
Y044814D02*
X051404D01*
X051405Y044811D01*
X051445Y044715D01*
X051508Y044632D01*
X051591Y044569D01*
X051687Y044529D01*
X051690Y044529D01*
Y044814D01*
D02*
G37*
G36*
X052176D02*
X051890D01*
Y044529D01*
X051893Y044529D01*
X051989Y044569D01*
X052072Y044632D01*
X052135Y044715D01*
X052175Y044811D01*
X052176Y044814D01*
D02*
G37*
G36*
X052790Y045313D02*
X052687Y045299D01*
X052591Y045259D01*
X052508Y045196D01*
X052445Y045113D01*
X052405Y045017D01*
X052391Y044914D01*
X052405Y044811D01*
X052445Y044715D01*
X052508Y044632D01*
X052591Y044569D01*
X052687Y044529D01*
X052790Y044515D01*
X052893Y044529D01*
X052989Y044569D01*
X053072Y044632D01*
X053135Y044715D01*
X053175Y044811D01*
X053189Y044914D01*
X053175Y045017D01*
X053135Y045113D01*
X053072Y045196D01*
X052989Y045259D01*
X052893Y045299D01*
X052790Y045313D01*
D02*
G37*
G36*
X036209Y044542D02*
X036087D01*
Y044420D01*
X036209D01*
Y044542D01*
D02*
G37*
G36*
X016093Y044469D02*
X016055D01*
Y044289D01*
X016352D01*
X016335Y044329D01*
X016291Y044387D01*
X016233Y044431D01*
X016166Y044459D01*
X016093Y044469D01*
D02*
G37*
G36*
X039903Y044490D02*
X039470D01*
Y044273D01*
X039903D01*
Y044490D01*
D02*
G37*
G36*
X039270D02*
X038837D01*
Y044273D01*
X039270D01*
Y044490D01*
D02*
G37*
G36*
X017296Y044565D02*
X017020D01*
Y044250D01*
X017296D01*
Y044565D01*
D02*
G37*
G36*
X016820D02*
X016544D01*
Y044250D01*
X016820D01*
Y044565D01*
D02*
G37*
G36*
X022147Y045372D02*
Y044194D01*
X023324D01*
X023316Y044296D01*
X023269Y044492D01*
X023192Y044678D01*
X023087Y044850D01*
X022956Y045003D01*
X022803Y045134D01*
X022631Y045239D01*
X022444Y045317D01*
X022248Y045364D01*
X022147Y045372D01*
D02*
G37*
G36*
X021947D02*
X021846Y045364D01*
X021650Y045317D01*
X021464Y045239D01*
X021292Y045134D01*
X021139Y045003D01*
X021008Y044850D01*
X020902Y044678D01*
X020825Y044492D01*
X020778Y044296D01*
X020770Y044194D01*
X021947D01*
Y045372D01*
D02*
G37*
G36*
X049775Y044357D02*
Y044160D01*
X049962D01*
Y044357D01*
X049775D01*
D02*
G37*
G36*
X034773Y044230D02*
X034651D01*
Y044108D01*
X034773D01*
Y044230D01*
D02*
G37*
G36*
X036209Y044220D02*
X036087D01*
Y044098D01*
X036209D01*
Y044220D01*
D02*
G37*
G36*
X039903Y044073D02*
X039470D01*
Y043857D01*
X039903D01*
Y044073D01*
D02*
G37*
G36*
X028708Y043960D02*
X028521D01*
Y043763D01*
X028708D01*
Y043960D01*
D02*
G37*
G36*
X026525D02*
X026338D01*
Y043763D01*
X026525D01*
Y043960D01*
D02*
G37*
G36*
X017296Y044050D02*
X017020D01*
Y043735D01*
X017296D01*
Y044050D01*
D02*
G37*
G36*
X016820D02*
X016544D01*
Y043735D01*
X016820D01*
Y044050D01*
D02*
G37*
G36*
X018513Y044840D02*
X018007D01*
X017948Y044828D01*
X017899Y044795D01*
X017899Y044795D01*
X017622Y044518D01*
X017589Y044469D01*
X017578Y044411D01*
Y043645D01*
X017478Y043592D01*
X017468Y043598D01*
X017390Y043614D01*
X017017D01*
X016939Y043598D01*
X016912Y043580D01*
X016643D01*
Y043223D01*
Y042967D01*
Y042711D01*
Y042455D01*
Y042455D01*
X017009D01*
X017374D01*
Y042455D01*
Y042787D01*
X017592D01*
X017650Y042799D01*
X017699Y042831D01*
X017898Y043030D01*
X017998Y042988D01*
Y042934D01*
X018036D01*
Y042910D01*
X018052Y042832D01*
X018096Y042766D01*
X018162Y042722D01*
X018240Y042706D01*
X018272Y042680D01*
X018500D01*
Y042480D01*
X018278D01*
Y042358D01*
X018281D01*
Y042280D01*
X018503D01*
Y042080D01*
X018281D01*
Y042004D01*
X018281Y041958D01*
X018195Y041923D01*
X018014D01*
X018010Y041924D01*
X017932Y041908D01*
X017866Y041864D01*
X017822Y041798D01*
X017806Y041720D01*
X017822Y041642D01*
X017866Y041576D01*
X017867Y041575D01*
X017933Y041531D01*
X018011Y041515D01*
X018138D01*
Y041443D01*
X018360D01*
Y041243D01*
X018138D01*
Y041121D01*
X018062Y041063D01*
X018047Y041053D01*
X018003Y040987D01*
X017988Y040910D01*
X018003Y040833D01*
X018047Y040767D01*
X018113Y040723D01*
X018190Y040708D01*
X018206Y040711D01*
X018306Y040678D01*
Y040678D01*
X019104D01*
Y040935D01*
X019304D01*
Y040739D01*
X019501D01*
Y040502D01*
X019560D01*
Y040739D01*
X019622D01*
Y040780D01*
X019698D01*
Y040502D01*
X020410D01*
Y040739D01*
X020606D01*
Y040935D01*
X020843D01*
Y040942D01*
X023722D01*
X023773Y040908D01*
X023851Y040892D01*
X023928Y040908D01*
X023994Y040951D01*
X024038Y041017D01*
X024049Y041076D01*
X024111Y041111D01*
X024150Y041122D01*
X024165Y041112D01*
X024242Y041096D01*
X024319Y041112D01*
X024385Y041155D01*
X024429Y041221D01*
X024444Y041298D01*
X024429Y041376D01*
X024385Y041441D01*
X024319Y041485D01*
X024242Y041501D01*
X024165Y041485D01*
X024114Y041451D01*
X020843D01*
Y041844D01*
X020606D01*
Y042041D01*
X020410D01*
Y042277D01*
X019989D01*
Y042477D01*
X020413Y042900D01*
X020446Y042950D01*
X020457Y043008D01*
Y043294D01*
X020762D01*
Y043589D01*
X020862Y043609D01*
X020902Y043511D01*
X021008Y043339D01*
X021139Y043186D01*
X021292Y043055D01*
X021464Y042949D01*
X021650Y042872D01*
X021846Y042825D01*
X021947Y042817D01*
Y043994D01*
X020698D01*
X020672Y043966D01*
X020207D01*
Y043883D01*
X020193Y043873D01*
X020093Y043926D01*
Y043966D01*
X019538D01*
X019497Y044049D01*
Y044118D01*
X019083D01*
X018978Y044223D01*
Y044374D01*
X018967Y044432D01*
X018934Y044482D01*
X018620Y044795D01*
X018571Y044828D01*
X018513Y044840D01*
D02*
G37*
G36*
X039903Y043348D02*
X039470D01*
Y043131D01*
X039903D01*
Y043348D01*
D02*
G37*
G36*
X034719Y043062D02*
X034597D01*
Y042940D01*
X034719D01*
Y043062D01*
D02*
G37*
G36*
X033663Y043044D02*
X033541D01*
Y042922D01*
X033663D01*
Y043044D01*
D02*
G37*
G36*
X023324Y043994D02*
X022147D01*
Y042817D01*
X022248Y042825D01*
X022444Y042872D01*
X022631Y042949D01*
X022803Y043055D01*
X022956Y043186D01*
X023087Y043339D01*
X023192Y043511D01*
X023269Y043697D01*
X023316Y043893D01*
X023324Y043994D01*
D02*
G37*
G36*
X039903Y042931D02*
X039470D01*
Y042715D01*
X039903D01*
Y042931D01*
D02*
G37*
G36*
X034719Y042740D02*
X034597D01*
Y042618D01*
X034719D01*
Y042740D01*
D02*
G37*
G36*
X033663Y042722D02*
X033541D01*
Y042600D01*
X033663D01*
Y042722D01*
D02*
G37*
G36*
X036712Y042523D02*
X036590D01*
Y042401D01*
X036712D01*
Y042523D01*
D02*
G37*
G36*
X036390D02*
X036268D01*
Y042401D01*
X036390D01*
Y042523D01*
D02*
G37*
G36*
X035730Y042395D02*
Y042237D01*
X035840D01*
Y042275D01*
X035831Y042322D01*
X035805Y042361D01*
X035765Y042388D01*
X035730Y042395D01*
D02*
G37*
G36*
X035530D02*
X035494Y042388D01*
X035455Y042361D01*
X035429Y042322D01*
X035419Y042275D01*
Y042237D01*
X035530D01*
Y042395D01*
D02*
G37*
G36*
X017374Y042278D02*
X017109D01*
Y042199D01*
X017374D01*
Y042278D01*
D02*
G37*
G36*
X016909D02*
X016643D01*
Y042199D01*
X016909D01*
Y042278D01*
D02*
G37*
G36*
X048153Y042244D02*
X048031D01*
Y042122D01*
X048153D01*
Y042244D01*
D02*
G37*
G36*
X047831D02*
X047709D01*
Y042122D01*
X047831D01*
Y042244D01*
D02*
G37*
G36*
X052890Y042363D02*
Y042077D01*
X053176D01*
X053175Y042080D01*
X053135Y042176D01*
X053072Y042259D01*
X052989Y042322D01*
X052893Y042362D01*
X052890Y042363D01*
D02*
G37*
G36*
X052690Y042363D02*
X052687Y042362D01*
X052591Y042322D01*
X052508Y042259D01*
X052445Y042176D01*
X052405Y042080D01*
X052404Y042077D01*
X052690D01*
Y042363D01*
D02*
G37*
G36*
X050570Y042136D02*
X050456D01*
Y042014D01*
X050570D01*
Y042136D01*
D02*
G37*
G36*
X035840Y042037D02*
X035730D01*
Y041880D01*
X035765Y041887D01*
X035805Y041913D01*
X035831Y041952D01*
X035840Y041999D01*
Y042037D01*
D02*
G37*
G36*
X035530D02*
X035419D01*
Y041999D01*
X035429Y041952D01*
X035455Y041913D01*
X035494Y041887D01*
X035530Y041880D01*
Y042037D01*
D02*
G37*
G36*
X042349Y042220D02*
X042063D01*
Y041846D01*
X042349D01*
Y042220D01*
D02*
G37*
G36*
X046569Y042018D02*
X046372D01*
Y041831D01*
X046569D01*
Y042018D01*
D02*
G37*
G36*
X045829D02*
X045632D01*
Y041831D01*
X045829D01*
Y042018D01*
D02*
G37*
G36*
X045432D02*
X045235D01*
Y041831D01*
X045432D01*
Y042018D01*
D02*
G37*
G36*
X046172D02*
X045975D01*
Y041831D01*
X046172D01*
Y042018D01*
D02*
G37*
G36*
X017296Y042045D02*
X017020D01*
Y041730D01*
X017296D01*
Y042045D01*
D02*
G37*
G36*
X016820D02*
X016544D01*
Y041730D01*
X016820D01*
Y042045D01*
D02*
G37*
G36*
X052690Y041877D02*
X052404D01*
X052405Y041874D01*
X052445Y041778D01*
X052508Y041695D01*
X052591Y041632D01*
X052687Y041592D01*
X052690Y041592D01*
Y041877D01*
D02*
G37*
G36*
X053176D02*
X052890D01*
Y041592D01*
X052893Y041592D01*
X052989Y041632D01*
X053072Y041695D01*
X053135Y041778D01*
X053175Y041874D01*
X053176Y041877D01*
D02*
G37*
G36*
X052185Y042372D02*
X051395D01*
Y041582D01*
X052185D01*
Y042372D01*
D02*
G37*
G36*
X043656Y041693D02*
X043282D01*
Y041407D01*
X043656D01*
Y041693D01*
D02*
G37*
G36*
X043082D02*
X042708D01*
Y041407D01*
X043082D01*
Y041693D01*
D02*
G37*
G36*
X029175Y041542D02*
X028762D01*
Y041364D01*
X029175D01*
Y041542D01*
D02*
G37*
G36*
X028562D02*
X028149D01*
Y041364D01*
X028562D01*
Y041542D01*
D02*
G37*
G36*
X016352Y041491D02*
X016055D01*
Y041311D01*
X016093D01*
X016166Y041321D01*
X016233Y041349D01*
X016291Y041393D01*
X016335Y041451D01*
X016352Y041491D01*
D02*
G37*
G36*
X017296Y041530D02*
X017020D01*
Y041215D01*
X017296D01*
Y041530D01*
D02*
G37*
G36*
X016820D02*
X016544D01*
Y041215D01*
X016820D01*
Y041530D01*
D02*
G37*
G36*
X028562Y041164D02*
X028149D01*
Y040987D01*
X028562D01*
Y041164D01*
D02*
G37*
G36*
X043656Y041207D02*
X043282D01*
Y040922D01*
X043656D01*
Y041207D01*
D02*
G37*
G36*
X043082D02*
X042708D01*
Y040922D01*
X043082D01*
Y041207D01*
D02*
G37*
G36*
X036807Y040907D02*
X036374D01*
Y040690D01*
X036807D01*
Y040907D01*
D02*
G37*
G36*
X036174D02*
X035741D01*
Y040690D01*
X036174D01*
Y040907D01*
D02*
G37*
G36*
X052790Y041376D02*
X052687Y041362D01*
X052591Y041322D01*
X052508Y041259D01*
X052445Y041176D01*
X052405Y041080D01*
X052391Y040977D01*
X052405Y040874D01*
X052445Y040778D01*
X052508Y040695D01*
X052591Y040632D01*
X052687Y040592D01*
X052790Y040578D01*
X052893Y040592D01*
X052989Y040632D01*
X053072Y040695D01*
X053135Y040778D01*
X053175Y040874D01*
X053189Y040977D01*
X053175Y041080D01*
X053135Y041176D01*
X053072Y041259D01*
X052989Y041322D01*
X052893Y041362D01*
X052790Y041376D01*
D02*
G37*
G36*
X040989Y042508D02*
X039331Y042508D01*
X039292Y042501D01*
X039259Y042479D01*
X039237Y042446D01*
X039229Y042407D01*
X039229Y039788D01*
X039237Y039749D01*
X039259Y039716D01*
X039292Y039694D01*
X039293Y039693D01*
Y039438D01*
X039292Y039438D01*
X039259Y039416D01*
X039237Y039383D01*
X039229Y039344D01*
Y038913D01*
X039237Y038874D01*
X039259Y038841D01*
X039292Y038819D01*
X039331Y038811D01*
X040116Y038811D01*
X040200Y038713D01*
Y038179D01*
X040754D01*
Y038179D01*
X040830D01*
Y038179D01*
X041007D01*
Y038476D01*
X041207D01*
Y038179D01*
X041347D01*
Y035970D01*
X041358Y035892D01*
X041388Y035819D01*
X041436Y035756D01*
X042176Y035016D01*
X042239Y034968D01*
X042312Y034938D01*
X042390Y034927D01*
X044530D01*
X044608Y034938D01*
X044681Y034968D01*
X044744Y035016D01*
X045104Y035376D01*
X045104Y035376D01*
X045152Y035439D01*
X045182Y035512D01*
X045193Y035590D01*
Y035644D01*
X045200Y035650D01*
X045270Y035741D01*
X045313Y035847D01*
X045328Y035960D01*
X045313Y036073D01*
X045270Y036179D01*
X045200Y036270D01*
X045109Y036340D01*
X045003Y036383D01*
X044890Y036398D01*
X044777Y036383D01*
X044671Y036340D01*
X044580Y036270D01*
X044510Y036179D01*
X044467Y036073D01*
X044452Y035960D01*
X044467Y035847D01*
X044510Y035741D01*
X044555Y035683D01*
X044405Y035533D01*
X044211D01*
X044177Y035633D01*
X044200Y035650D01*
X044270Y035741D01*
X044313Y035847D01*
X044328Y035960D01*
X044313Y036073D01*
X044270Y036179D01*
X044200Y036270D01*
X044229Y036361D01*
X045746Y037878D01*
X045794Y037941D01*
X045799Y037953D01*
X045899Y037933D01*
Y037247D01*
X048501D01*
Y039633D01*
X047504D01*
Y039991D01*
X047524Y040082D01*
X047604Y040082D01*
X047721D01*
Y040369D01*
X047821D01*
Y040469D01*
X048118D01*
Y040612D01*
X048118Y040656D01*
X048195Y040712D01*
X048361D01*
X048387Y040718D01*
X048401Y040713D01*
X048487Y040677D01*
X048487Y040677D01*
X048487Y040677D01*
X048628D01*
X048633Y040675D01*
X048710Y040659D01*
X048787Y040675D01*
X048792Y040677D01*
X049028D01*
X049033Y040675D01*
X049110Y040659D01*
X049144Y040666D01*
X049219Y040604D01*
X049229Y040577D01*
X049225Y040560D01*
Y039684D01*
X049157D01*
Y038992D01*
X050479D01*
Y039684D01*
X049735D01*
Y040092D01*
X049871D01*
Y040379D01*
X050071D01*
Y040092D01*
X050238D01*
X050268Y040092D01*
X050268Y040092D01*
X050334Y040102D01*
Y040102D01*
X050531D01*
Y040389D01*
X050631D01*
Y040489D01*
X050928D01*
Y040627D01*
X051603D01*
X051687Y040592D01*
X051790Y040578D01*
X051893Y040592D01*
X051989Y040632D01*
X052072Y040695D01*
X052135Y040778D01*
X052175Y040874D01*
X052189Y040977D01*
X052175Y041080D01*
X052135Y041176D01*
X052072Y041259D01*
X051989Y041322D01*
X051893Y041362D01*
X051790Y041376D01*
X051687Y041362D01*
X051615Y041333D01*
X050651D01*
X050628Y041358D01*
X050587Y041433D01*
X050601Y041504D01*
X050582Y041597D01*
X050570Y041692D01*
X050570Y041692D01*
X050570Y041692D01*
Y041814D01*
X050356D01*
Y041914D01*
X050256D01*
Y042136D01*
X049772D01*
Y041761D01*
X049701Y041690D01*
X049482D01*
X049463Y041694D01*
X049337D01*
Y041814D01*
X049228D01*
X049187Y041841D01*
X049110Y041857D01*
X049033Y041841D01*
X048992Y041814D01*
X048828D01*
X048787Y041841D01*
X048710Y041857D01*
X048633Y041841D01*
X048592Y041814D01*
X048487D01*
Y041690D01*
X048380D01*
X048361Y041694D01*
X048153D01*
Y041922D01*
X047931D01*
X047709D01*
Y041799D01*
Y041445D01*
X047937D01*
X047949Y041433D01*
X047999Y041400D01*
X048017Y041396D01*
X048007Y041296D01*
X047462D01*
X047441Y041310D01*
X047402Y041318D01*
X046640D01*
X046569Y041389D01*
X046569Y041488D01*
Y041631D01*
X046272D01*
X045975D01*
Y041488D01*
X045975Y041416D01*
X045975Y041344D01*
Y041242D01*
X045970Y041216D01*
Y040781D01*
X045970D01*
Y040030D01*
X045970D01*
Y039703D01*
X045970Y039703D01*
X045927Y039687D01*
X045835Y039759D01*
Y040030D01*
X045835D01*
Y040781D01*
X045835D01*
Y041101D01*
X045829Y041145D01*
X045829Y041416D01*
X045829Y041488D01*
Y041631D01*
X045532D01*
X045235D01*
Y041488D01*
X045235Y041416D01*
X045235Y041344D01*
Y041145D01*
X045230Y041101D01*
Y040781D01*
X045222D01*
Y040708D01*
X044846D01*
X044846Y040708D01*
X044768Y040698D01*
X044695Y040668D01*
X044632Y040620D01*
X044505Y040493D01*
X043656D01*
Y040590D01*
X042981D01*
X042942Y040598D01*
X042492D01*
X042453Y040590D01*
X042420Y040568D01*
X042412Y040556D01*
X041929D01*
Y040556D01*
X041832Y040564D01*
Y040679D01*
X042144D01*
Y040876D01*
X041857D01*
Y041076D01*
X042144D01*
Y041272D01*
X042349D01*
Y041646D01*
X041963D01*
Y041746D01*
X041863D01*
Y042220D01*
X041578D01*
Y042092D01*
X041486Y042054D01*
X041365Y042175D01*
X041332Y042197D01*
X041316Y042200D01*
X041288Y042217D01*
X041250Y042249D01*
X041226Y042290D01*
X041223Y042305D01*
X041201Y042338D01*
X041061Y042479D01*
X041028Y042501D01*
X040989Y042508D01*
D02*
G37*
G36*
X036174Y040490D02*
X035741D01*
Y040273D01*
X036174D01*
Y040490D01*
D02*
G37*
G36*
X050928Y040289D02*
X050731D01*
Y040102D01*
X050928D01*
Y040289D01*
D02*
G37*
G36*
X048118Y040269D02*
X047921D01*
Y040082D01*
X048118D01*
Y040269D01*
D02*
G37*
G36*
X036174Y039765D02*
X035741D01*
Y039548D01*
X036174D01*
Y039765D01*
D02*
G37*
G36*
X037605Y039460D02*
X037491D01*
Y039338D01*
X037605D01*
Y039460D01*
D02*
G37*
G36*
X036807Y039348D02*
X036374D01*
Y039132D01*
X036807D01*
Y039348D01*
D02*
G37*
G36*
X036174D02*
X035741D01*
Y039132D01*
X036174D01*
Y039348D01*
D02*
G37*
G36*
X029851Y038486D02*
X029664D01*
Y038210D01*
X029851D01*
Y038486D01*
D02*
G37*
G36*
X029464D02*
X029277D01*
Y038210D01*
X029464D01*
Y038486D01*
D02*
G37*
G36*
X027280Y038476D02*
X027093D01*
Y038200D01*
X027280D01*
Y038476D01*
D02*
G37*
G36*
X026893D02*
X026706D01*
Y038200D01*
X026893D01*
Y038476D01*
D02*
G37*
G36*
X029851Y038010D02*
X029664D01*
Y037734D01*
X029851D01*
Y038010D01*
D02*
G37*
G36*
X029464D02*
X029277D01*
Y037734D01*
X029464D01*
Y038010D01*
D02*
G37*
G36*
X027280Y038000D02*
X027093D01*
Y037724D01*
X027280D01*
Y038000D01*
D02*
G37*
G36*
X026893D02*
X026706D01*
Y037724D01*
X026893D01*
Y038000D01*
D02*
G37*
G36*
X050479Y037888D02*
X049918D01*
Y037642D01*
X050479D01*
Y037888D01*
D02*
G37*
G36*
X049718D02*
X049157D01*
Y037642D01*
X049718D01*
Y037888D01*
D02*
G37*
G36*
X018005Y038355D02*
X017175D01*
Y037525D01*
X018005D01*
Y038355D01*
D02*
G37*
G36*
X018590Y038359D02*
X018482Y038344D01*
X018381Y038302D01*
X018294Y038236D01*
X018228Y038149D01*
X018186Y038048D01*
X018171Y037940D01*
X018186Y037832D01*
X018228Y037731D01*
X018294Y037644D01*
X018381Y037578D01*
X018482Y037536D01*
X018590Y037521D01*
X018698Y037536D01*
X018799Y037578D01*
X018886Y037644D01*
X018952Y037731D01*
X018994Y037832D01*
X019009Y037940D01*
X018994Y038048D01*
X018952Y038149D01*
X018886Y038236D01*
X018799Y038302D01*
X018698Y038344D01*
X018590Y038359D01*
D02*
G37*
G36*
X024830Y037537D02*
Y037250D01*
X025117D01*
X025117Y037254D01*
X025077Y037350D01*
X025013Y037433D01*
X024930Y037497D01*
X024834Y037537D01*
X024830Y037537D01*
D02*
G37*
G36*
X024630D02*
X024626Y037537D01*
X024530Y037497D01*
X024447Y037433D01*
X024383Y037350D01*
X024343Y037254D01*
X024343Y037250D01*
X024630D01*
Y037537D01*
D02*
G37*
G36*
X032022Y037369D02*
X031900D01*
Y037247D01*
X032022D01*
Y037369D01*
D02*
G37*
G36*
X050479Y037442D02*
X049918D01*
Y037196D01*
X050479D01*
Y037442D01*
D02*
G37*
G36*
X049718D02*
X049157D01*
Y037196D01*
X049718D01*
Y037442D01*
D02*
G37*
G36*
X025117Y037050D02*
X024830D01*
Y036763D01*
X024834Y036763D01*
X024930Y036803D01*
X025013Y036867D01*
X025077Y036950D01*
X025117Y037046D01*
X025117Y037050D01*
D02*
G37*
G36*
X024630D02*
X024343D01*
X024343Y037046D01*
X024383Y036950D01*
X024447Y036867D01*
X024530Y036803D01*
X024626Y036763D01*
X024630Y036763D01*
Y037050D01*
D02*
G37*
G36*
X024127Y037547D02*
X023333D01*
Y036753D01*
X024127D01*
Y037547D01*
D02*
G37*
G36*
X028067Y038476D02*
X027493D01*
Y038191D01*
X027488Y038178D01*
X027477Y038100D01*
Y037734D01*
X027468Y037721D01*
X027438Y037648D01*
X027427Y037570D01*
Y037408D01*
X027383Y037350D01*
X027343Y037254D01*
X027330Y037150D01*
X027343Y037046D01*
X027383Y036950D01*
X027447Y036867D01*
X027530Y036803D01*
X027626Y036763D01*
X027730Y036750D01*
X027834Y036763D01*
X027930Y036803D01*
X028013Y036867D01*
X028077Y036950D01*
X028117Y037046D01*
X028130Y037150D01*
X028117Y037254D01*
X028077Y037350D01*
X028033Y037408D01*
Y037456D01*
X028042Y037469D01*
X028072Y037542D01*
X028083Y037620D01*
X028083Y037620D01*
Y038100D01*
X028072Y038178D01*
X028067Y038191D01*
Y038476D01*
D02*
G37*
G36*
X029063Y038486D02*
X028489D01*
Y038243D01*
X028468Y038215D01*
X028438Y038142D01*
X028427Y038064D01*
Y037408D01*
X028383Y037350D01*
X028343Y037254D01*
X028330Y037150D01*
X028343Y037046D01*
X028383Y036950D01*
X028447Y036867D01*
X028530Y036803D01*
X028626Y036763D01*
X028730Y036750D01*
X028834Y036763D01*
X028930Y036803D01*
X029013Y036867D01*
X029067Y036937D01*
X031128D01*
Y036616D01*
X031128Y036581D01*
X031055Y036516D01*
X030739D01*
Y036443D01*
X027585D01*
X027077Y036951D01*
X027117Y037046D01*
X027130Y037150D01*
X027117Y037254D01*
X027077Y037350D01*
X027013Y037433D01*
X026930Y037497D01*
X026834Y037537D01*
X026730Y037550D01*
X026626Y037537D01*
X026530Y037497D01*
X026447Y037433D01*
X026383Y037350D01*
X026343Y037254D01*
X026330Y037150D01*
X026343Y037046D01*
X026383Y036950D01*
X026427Y036892D01*
Y036870D01*
X026438Y036792D01*
X026468Y036719D01*
X026516Y036656D01*
X027246Y035926D01*
X027309Y035878D01*
X027382Y035848D01*
X027460Y035837D01*
X030739D01*
Y035764D01*
X031353D01*
X031353Y036487D01*
X031420Y036532D01*
X031487Y036487D01*
Y035764D01*
X032101D01*
Y035768D01*
X032850D01*
X032889Y035776D01*
X032922Y035798D01*
X032944Y035831D01*
X032952Y035870D01*
Y036469D01*
X032944Y036508D01*
X032922Y036542D01*
X032889Y036564D01*
X032850Y036571D01*
X032022D01*
Y036925D01*
Y037047D01*
X031800D01*
Y037147D01*
X031700D01*
Y037369D01*
X031578D01*
X031572Y037379D01*
X031565D01*
X031502Y037427D01*
X031481Y037454D01*
X031418Y037502D01*
X031345Y037532D01*
X031267Y037543D01*
X029033D01*
Y037734D01*
X029063D01*
Y038019D01*
X029069Y038032D01*
X029079Y038110D01*
X029069Y038188D01*
X029063Y038201D01*
Y038486D01*
D02*
G37*
G36*
X046325Y036395D02*
X045990D01*
Y036060D01*
X046325D01*
Y036395D01*
D02*
G37*
G36*
X045790D02*
X045455D01*
Y036060D01*
X045790D01*
Y036395D01*
D02*
G37*
G36*
X046325Y035860D02*
X045990D01*
Y035525D01*
X046325D01*
Y035860D01*
D02*
G37*
G36*
X045790D02*
X045455D01*
Y035525D01*
X045790D01*
Y035860D01*
D02*
G37*
G36*
X053543Y034107D02*
X053440Y034094D01*
X053344Y034054D01*
X053261Y033991D01*
X053198Y033908D01*
X053158Y033812D01*
X053145Y033709D01*
X053158Y033605D01*
X053198Y033509D01*
X053261Y033427D01*
X053344Y033363D01*
X053440Y033324D01*
X053543Y033310D01*
X053646Y033324D01*
X053743Y033363D01*
X053825Y033427D01*
X053889Y033509D01*
X053928Y033605D01*
X053942Y033709D01*
X053928Y033812D01*
X053889Y033908D01*
X053825Y033991D01*
X053743Y034054D01*
X053646Y034094D01*
X053543Y034107D01*
D02*
G37*
G36*
X053643Y033094D02*
Y032809D01*
X053929D01*
X053928Y032812D01*
X053889Y032908D01*
X053825Y032991D01*
X053743Y033054D01*
X053646Y033094D01*
X053643Y033094D01*
D02*
G37*
G36*
X053443D02*
X053440Y033094D01*
X053344Y033054D01*
X053261Y032991D01*
X053198Y032908D01*
X053158Y032812D01*
X053158Y032809D01*
X053443D01*
Y033094D01*
D02*
G37*
G36*
X053929Y032609D02*
X053643D01*
Y032323D01*
X053646Y032324D01*
X053743Y032363D01*
X053825Y032427D01*
X053889Y032509D01*
X053928Y032605D01*
X053929Y032609D01*
D02*
G37*
G36*
X053443D02*
X053158D01*
X053158Y032605D01*
X053198Y032509D01*
X053261Y032427D01*
X053344Y032363D01*
X053440Y032324D01*
X053443Y032323D01*
Y032609D01*
D02*
G37*
G36*
X053939Y031104D02*
X053643D01*
Y030809D01*
X053939D01*
Y031104D01*
D02*
G37*
G36*
X053443D02*
X053148D01*
Y030809D01*
X053443D01*
Y031104D01*
D02*
G37*
G36*
X049883Y034725D02*
X049612Y034708D01*
X049346Y034655D01*
X049089Y034568D01*
X048846Y034448D01*
X048621Y034297D01*
X048417Y034118D01*
X048238Y033914D01*
X048087Y033689D01*
X047967Y033446D01*
X047880Y033189D01*
X047827Y032923D01*
X047810Y032653D01*
X047827Y032382D01*
X047880Y032116D01*
X047967Y031859D01*
X048087Y031616D01*
X048238Y031391D01*
X048417Y031187D01*
X048621Y031008D01*
X048846Y030857D01*
X049089Y030737D01*
X049346Y030650D01*
X049612Y030597D01*
X049883Y030580D01*
X050153Y030597D01*
X050419Y030650D01*
X050676Y030737D01*
X050919Y030857D01*
X051144Y031008D01*
X051348Y031187D01*
X051527Y031391D01*
X051678Y031616D01*
X051798Y031859D01*
X051885Y032116D01*
X051938Y032382D01*
X051955Y032653D01*
X051938Y032923D01*
X051885Y033189D01*
X051798Y033446D01*
X051678Y033689D01*
X051527Y033914D01*
X051348Y034118D01*
X051144Y034297D01*
X050919Y034448D01*
X050676Y034568D01*
X050419Y034655D01*
X050153Y034708D01*
X049883Y034725D01*
D02*
G37*
G36*
X040040D02*
X039769Y034708D01*
X039503Y034655D01*
X039247Y034568D01*
X039004Y034448D01*
X038778Y034297D01*
X038574Y034118D01*
X038395Y033914D01*
X038245Y033689D01*
X038125Y033446D01*
X038038Y033189D01*
X037985Y032923D01*
X037967Y032653D01*
X037985Y032382D01*
X038038Y032116D01*
X038125Y031859D01*
X038245Y031616D01*
X038395Y031391D01*
X038574Y031187D01*
X038778Y031008D01*
X039004Y030857D01*
X039247Y030737D01*
X039503Y030650D01*
X039769Y030597D01*
X040040Y030580D01*
X040311Y030597D01*
X040577Y030650D01*
X040833Y030737D01*
X041076Y030857D01*
X041302Y031008D01*
X041506Y031187D01*
X041685Y031391D01*
X041835Y031616D01*
X041955Y031859D01*
X042042Y032116D01*
X042095Y032382D01*
X042113Y032653D01*
X042095Y032923D01*
X042042Y033189D01*
X041955Y033446D01*
X041835Y033689D01*
X041685Y033914D01*
X041506Y034118D01*
X041302Y034297D01*
X041076Y034448D01*
X040833Y034568D01*
X040577Y034655D01*
X040311Y034708D01*
X040040Y034725D01*
D02*
G37*
G36*
X053939Y030609D02*
X053643D01*
Y030313D01*
X053939D01*
Y030609D01*
D02*
G37*
G36*
X053443D02*
X053148D01*
Y030313D01*
X053443D01*
Y030609D01*
D02*
G37*
G36*
X029672Y026530D02*
X029485D01*
Y026333D01*
X029672D01*
Y026530D01*
D02*
G37*
G36*
X029360Y028442D02*
X027400D01*
X027361Y028434D01*
X027328Y028412D01*
X027306Y028379D01*
X027298Y028340D01*
X027298Y026485D01*
X027306Y026446D01*
X027328Y026413D01*
X027363Y026378D01*
X027396Y026356D01*
X027435Y026348D01*
X027583Y026348D01*
X027619Y026311D01*
Y026311D01*
X027689D01*
X027736Y026242D01*
X027739Y026211D01*
X027697Y026177D01*
X027619D01*
Y026009D01*
X027605Y025974D01*
X027592Y025870D01*
X027605Y025766D01*
X027619Y025731D01*
Y025563D01*
X027651D01*
Y025005D01*
X027651Y025005D01*
X027665Y024900D01*
X027680Y024863D01*
Y023190D01*
X027275D01*
Y022006D01*
X028991D01*
Y023190D01*
X028487D01*
Y024975D01*
X028487Y024975D01*
X028473Y025080D01*
X028458Y025117D01*
Y025467D01*
X028664D01*
X028740Y025457D01*
X028786Y025417D01*
Y025090D01*
X029171D01*
X029557D01*
Y025337D01*
X031657D01*
X032789Y024205D01*
X032839Y024171D01*
X032868Y024166D01*
Y024019D01*
X033268D01*
Y024016D01*
X033712D01*
Y024442D01*
X035814D01*
X036107Y024149D01*
Y023819D01*
X036090D01*
Y023605D01*
X035890D01*
Y023819D01*
X035700D01*
Y023605D01*
X035500D01*
Y023819D01*
X035310D01*
Y023597D01*
X035210D01*
Y023497D01*
X034988D01*
Y023375D01*
Y023098D01*
X034892Y023012D01*
X034844Y023017D01*
X034834Y023032D01*
X034830Y023066D01*
X034789Y023163D01*
X034725Y023247D01*
X034725Y023247D01*
X034407Y023565D01*
X034323Y023629D01*
X034226Y023670D01*
X034122Y023683D01*
X034122Y023683D01*
X032970D01*
X032866Y023670D01*
X032768Y023629D01*
X032685Y023565D01*
X032685Y023565D01*
X032655Y023535D01*
X032591Y023452D01*
X032585Y023437D01*
X032337Y023190D01*
X032268D01*
X032242Y023194D01*
X032216Y023190D01*
X031192D01*
Y022006D01*
X032908D01*
Y022620D01*
X033165Y022877D01*
X033954D01*
X034046Y022785D01*
X034050Y022756D01*
X034091Y022658D01*
X034101Y022645D01*
Y022404D01*
X034395D01*
X034421Y022404D01*
Y022404D01*
X034495D01*
Y022404D01*
X034788D01*
X034815Y022404D01*
X034888D01*
X034915Y022404D01*
X034948D01*
Y022679D01*
X035085D01*
Y022404D01*
X035799D01*
Y022681D01*
X036098Y022981D01*
X036125Y023021D01*
X036212D01*
Y023097D01*
X036256Y023127D01*
X036368Y023238D01*
X036401Y023288D01*
X036413Y023346D01*
Y024213D01*
X036401Y024271D01*
X036368Y024321D01*
X035986Y024703D01*
X035936Y024736D01*
X035877Y024748D01*
X033712D01*
Y024814D01*
X033312D01*
Y024817D01*
X032868D01*
Y024689D01*
X032776Y024651D01*
X031828Y025598D01*
X031779Y025631D01*
X031720Y025643D01*
X029657D01*
Y025760D01*
X029370D01*
Y025860D01*
X029270D01*
Y026157D01*
X029083D01*
X029083Y026157D01*
X028990Y026175D01*
X028932Y026219D01*
X028899Y026233D01*
X028918Y026333D01*
X029042D01*
Y026333D01*
X029098D01*
Y026333D01*
X029285D01*
Y026630D01*
X029385D01*
Y026730D01*
X029672D01*
Y026878D01*
X029722Y026928D01*
X029744Y026961D01*
X029752Y027000D01*
Y028050D01*
X029744Y028089D01*
X029722Y028122D01*
X029432Y028412D01*
X029399Y028434D01*
X029360Y028442D01*
D02*
G37*
G36*
X029657Y026157D02*
X029470D01*
Y025960D01*
X029657D01*
Y026157D01*
D02*
G37*
G36*
X053543Y026233D02*
X053440Y026220D01*
X053344Y026180D01*
X053261Y026117D01*
X053198Y026034D01*
X053158Y025938D01*
X053145Y025835D01*
X053158Y025731D01*
X053198Y025635D01*
X053261Y025553D01*
X053344Y025489D01*
X053440Y025450D01*
X053543Y025436D01*
X053646Y025450D01*
X053743Y025489D01*
X053825Y025553D01*
X053889Y025635D01*
X053928Y025731D01*
X053942Y025835D01*
X053928Y025938D01*
X053889Y026034D01*
X053825Y026117D01*
X053743Y026180D01*
X053646Y026220D01*
X053543Y026233D01*
D02*
G37*
G36*
X021640Y025069D02*
X021532Y025054D01*
X021431Y025012D01*
X021380Y024973D01*
X021055D01*
Y025065D01*
X020225D01*
Y024235D01*
X020237D01*
Y023355D01*
X020237Y023355D01*
X020250Y023251D01*
X020291Y023153D01*
X020338Y023092D01*
Y022875D01*
X020319Y022830D01*
X020304Y022712D01*
Y021648D01*
X020319Y021530D01*
X020365Y021419D01*
X020438Y021324D01*
X020533Y021252D01*
X020643Y021206D01*
X020762Y021190D01*
X020880Y021206D01*
X020991Y021252D01*
X021086Y021324D01*
X021159Y021419D01*
X021205Y021530D01*
X021220Y021648D01*
Y022712D01*
X021205Y022830D01*
X021159Y022941D01*
X021145Y022959D01*
Y023254D01*
X021145Y023254D01*
X021131Y023358D01*
X021091Y023456D01*
X021043Y023517D01*
Y024167D01*
X021367D01*
Y023264D01*
X021380Y023160D01*
X021394Y023126D01*
Y022957D01*
X021472D01*
X021514Y022923D01*
X021511Y022892D01*
X021464Y022823D01*
X021394D01*
Y022209D01*
X021394D01*
X021381Y022130D01*
X021381Y022130D01*
X021381Y022115D01*
Y021182D01*
X021413D01*
Y020414D01*
X021425Y020322D01*
X021460Y020237D01*
X021517Y020164D01*
X021940Y019740D01*
X022013Y019684D01*
X022035Y019675D01*
Y019317D01*
X022107D01*
Y019177D01*
X022076Y019131D01*
X022061Y019053D01*
X022076Y018976D01*
X022120Y018910D01*
X022186Y018866D01*
X022263Y018851D01*
X022341Y018866D01*
X022406Y018910D01*
X022450Y018976D01*
X022465Y019053D01*
X022450Y019131D01*
X022413Y019186D01*
Y019317D01*
X022479D01*
Y019637D01*
X022950D01*
X022966Y019639D01*
X023041Y019573D01*
Y019519D01*
X023037Y019500D01*
X023038Y019496D01*
Y018909D01*
X022988D01*
Y018481D01*
Y018111D01*
X023339D01*
X023432Y018111D01*
X023432Y018111D01*
X023483Y018119D01*
X023522Y018125D01*
X023558Y018126D01*
X023528Y018126D01*
X023528Y018126D01*
X023526Y018126D01*
X023520Y018125D01*
X023520D01*
X023526Y018126D01*
X023575Y018127D01*
X023575Y018127D01*
X023575Y018127D01*
X023697D01*
Y018341D01*
X023897D01*
Y018127D01*
X024019D01*
Y018133D01*
X024416D01*
Y018138D01*
X024796D01*
Y018207D01*
X025150D01*
X025209Y018219D01*
X025258Y018252D01*
X026688Y019682D01*
X028315Y018055D01*
X028315Y018055D01*
X028398Y017991D01*
X028496Y017950D01*
X028600Y017937D01*
X028600Y017937D01*
X030430D01*
Y016867D01*
X030442Y016809D01*
X030475Y016759D01*
X031032Y016202D01*
X031081Y016169D01*
X031140Y016157D01*
X037650D01*
X037709Y016169D01*
X037758Y016202D01*
X038738Y017182D01*
X039793D01*
Y017078D01*
X040307D01*
Y017593D01*
X039793D01*
Y017488D01*
X038675D01*
X038617Y017476D01*
X038567Y017443D01*
X037587Y016463D01*
X031203D01*
X030736Y016931D01*
Y017937D01*
X031127D01*
Y017535D01*
X031140Y017431D01*
X031181Y017334D01*
X031197Y017313D01*
X031243Y017232D01*
Y017045D01*
X031530D01*
X031817D01*
Y017232D01*
X031863Y017313D01*
X031879Y017334D01*
X031883Y017342D01*
X031991Y017343D01*
X032027Y017295D01*
X032043Y017202D01*
X032043Y017202D01*
X032043Y017202D01*
Y017015D01*
X032340D01*
X032637D01*
Y017202D01*
X032637Y017202D01*
X032653Y017295D01*
X032689Y017343D01*
X032730Y017441D01*
X032743Y017545D01*
Y017882D01*
X034235D01*
Y017855D01*
X035676D01*
Y018685D01*
X034713D01*
Y019450D01*
Y019703D01*
X034768Y019781D01*
X034890D01*
Y020003D01*
X034990D01*
Y020103D01*
X035212D01*
Y020135D01*
Y020579D01*
X035201D01*
Y020746D01*
X035333D01*
Y020257D01*
X035333Y020233D01*
Y020157D01*
X035333Y020133D01*
Y019603D01*
X035927D01*
X035978Y019541D01*
Y019541D01*
X036422D01*
Y019895D01*
Y020017D01*
X036200D01*
Y020117D01*
X036100D01*
Y020339D01*
X036027D01*
X035978Y020339D01*
X035927Y020418D01*
Y020787D01*
X035799D01*
Y021296D01*
X035479D01*
Y021021D01*
X035405D01*
Y021296D01*
X034888D01*
X034888Y021296D01*
X034815D01*
Y021296D01*
X034788Y021296D01*
X034495D01*
X034495Y021296D01*
X034421D01*
Y021296D01*
X034395Y021296D01*
X034101D01*
Y020943D01*
X034096Y020936D01*
X034055Y020839D01*
X034042Y020734D01*
Y020668D01*
X034025Y020652D01*
X033961Y020568D01*
X033920Y020471D01*
X033907Y020366D01*
X033907Y020366D01*
Y019943D01*
X033883Y019925D01*
X033825Y019941D01*
X033783Y019973D01*
Y020050D01*
X033157D01*
Y019869D01*
X033064Y019853D01*
X031077D01*
X029425Y021505D01*
X029342Y021569D01*
X029244Y021610D01*
X029140Y021623D01*
X029140Y021623D01*
X028991D01*
Y021812D01*
X027275D01*
Y020628D01*
X028991D01*
Y020668D01*
X029083Y020706D01*
X030625Y019165D01*
X030708Y019101D01*
X030806Y019060D01*
X030910Y019047D01*
X033907D01*
Y018695D01*
X033026D01*
Y018688D01*
X032552D01*
Y018754D01*
X032037D01*
Y018598D01*
X031937Y018522D01*
X031917Y018525D01*
X031871Y018585D01*
X031871Y018585D01*
X031843Y018613D01*
Y018754D01*
X031328D01*
Y018743D01*
X028767D01*
X027150Y020360D01*
X027150Y020360D01*
X026790Y020721D01*
Y021334D01*
X026776Y021439D01*
X026736Y021536D01*
X026672Y021620D01*
X026363Y021928D01*
X026280Y021993D01*
X026182Y022033D01*
X026078Y022047D01*
X026078Y022047D01*
X025932D01*
Y023890D01*
X025924Y023929D01*
X025902Y023962D01*
X025782Y024082D01*
X025749Y024104D01*
X025710Y024112D01*
X024560D01*
X024521Y024104D01*
X024488Y024082D01*
X024476Y024070D01*
X024393D01*
Y023200D01*
X024393Y023122D01*
X024393Y023122D01*
Y023100D01*
X024393D01*
X024393Y023022D01*
Y022152D01*
X024393Y022152D01*
X024383Y022120D01*
X024383Y022120D01*
X024383Y022056D01*
Y021172D01*
X024398D01*
Y020982D01*
X024256Y020840D01*
X024143Y020840D01*
X024043Y020840D01*
X023636D01*
X023631Y020840D01*
X023536D01*
X023531Y020840D01*
X023487D01*
Y020563D01*
Y020286D01*
X023531D01*
X023536Y020286D01*
X023631D01*
X023636Y020286D01*
X023828D01*
Y020128D01*
X024127Y020128D01*
X024227Y020128D01*
X024485D01*
X024506Y020126D01*
X024527Y020128D01*
X025071D01*
Y020208D01*
X025610D01*
X025649Y020216D01*
X025682Y020238D01*
X025896Y020451D01*
X025941Y020450D01*
X026004Y020431D01*
X026037Y020352D01*
X026101Y020268D01*
X026472Y019898D01*
X025087Y018513D01*
X024796D01*
Y018937D01*
X024352D01*
Y018931D01*
X024224D01*
X024157Y019031D01*
X024162Y019060D01*
X024150Y019123D01*
X024167Y019165D01*
X024210Y019223D01*
X024442D01*
Y019223D01*
X024458D01*
Y019223D01*
X024757D01*
Y019223D01*
X024773D01*
Y019223D01*
X025071D01*
Y019420D01*
Y019935D01*
X024227D01*
X024143Y019935D01*
X024077Y019935D01*
Y019579D01*
X023930D01*
Y019777D01*
X023877D01*
Y019935D01*
X023828D01*
Y019777D01*
X023493D01*
X023408Y019813D01*
Y020112D01*
X023297D01*
X023247Y020199D01*
X023287Y020279D01*
Y020563D01*
Y020563D01*
X023190D01*
Y020463D01*
X023041D01*
Y020407D01*
X022966Y020341D01*
X022950Y020343D01*
X022336D01*
X022119Y020560D01*
Y021182D01*
X022152D01*
Y022112D01*
X022152Y022130D01*
X022152D01*
X022146Y022209D01*
X022146D01*
Y022823D01*
X022076D01*
X022029Y022892D01*
X022026Y022923D01*
X022068Y022957D01*
X022146D01*
Y023126D01*
X022160Y023160D01*
X022173Y023264D01*
Y024512D01*
X022173Y024512D01*
X022160Y024616D01*
X022119Y024714D01*
X022055Y024797D01*
X022055Y024797D01*
X022009Y024843D01*
X022002Y024859D01*
X021936Y024946D01*
X021849Y025012D01*
X021748Y025054D01*
X021640Y025069D01*
D02*
G37*
G36*
X053643Y025220D02*
Y024935D01*
X053929D01*
X053928Y024938D01*
X053889Y025034D01*
X053825Y025117D01*
X053743Y025180D01*
X053646Y025220D01*
X053643Y025220D01*
D02*
G37*
G36*
X053443D02*
X053440Y025220D01*
X053344Y025180D01*
X053261Y025117D01*
X053198Y025034D01*
X053158Y024938D01*
X053158Y024935D01*
X053443D01*
Y025220D01*
D02*
G37*
G36*
X018370Y025055D02*
Y024750D01*
X018675D01*
X018674Y024758D01*
X018632Y024859D01*
X018566Y024946D01*
X018479Y025012D01*
X018378Y025054D01*
X018370Y025055D01*
D02*
G37*
G36*
X018170D02*
X018162Y025054D01*
X018061Y025012D01*
X017974Y024946D01*
X017908Y024859D01*
X017866Y024758D01*
X017865Y024750D01*
X018170D01*
Y025055D01*
D02*
G37*
G36*
X017685Y025065D02*
X017370D01*
Y024750D01*
X017685D01*
Y025065D01*
D02*
G37*
G36*
X017170D02*
X016855D01*
Y024750D01*
X017170D01*
Y025065D01*
D02*
G37*
G36*
X029557Y024890D02*
X029271D01*
Y024516D01*
X029557D01*
Y024890D01*
D02*
G37*
G36*
X029071D02*
X028786D01*
Y024516D01*
X029071D01*
Y024890D01*
D02*
G37*
G36*
X053929Y024735D02*
X053643D01*
Y024449D01*
X053646Y024450D01*
X053743Y024489D01*
X053825Y024553D01*
X053889Y024635D01*
X053928Y024731D01*
X053929Y024735D01*
D02*
G37*
G36*
X053443D02*
X053158D01*
X053158Y024731D01*
X053198Y024635D01*
X053261Y024553D01*
X053344Y024489D01*
X053440Y024450D01*
X053443Y024449D01*
Y024735D01*
D02*
G37*
G36*
X018675Y024550D02*
X018370D01*
Y024245D01*
X018378Y024246D01*
X018479Y024288D01*
X018566Y024354D01*
X018632Y024441D01*
X018674Y024542D01*
X018675Y024550D01*
D02*
G37*
G36*
X018170D02*
X017865D01*
X017866Y024542D01*
X017908Y024441D01*
X017974Y024354D01*
X018061Y024288D01*
X018162Y024246D01*
X018170Y024245D01*
Y024550D01*
D02*
G37*
G36*
X017685D02*
X017370D01*
Y024235D01*
X017685D01*
Y024550D01*
D02*
G37*
G36*
X017170D02*
X016855D01*
Y024235D01*
X017170D01*
Y024550D01*
D02*
G37*
G36*
X035110Y023819D02*
X034988D01*
Y023697D01*
X035110D01*
Y023819D01*
D02*
G37*
G36*
X024062Y024070D02*
X023776D01*
Y023696D01*
X024062D01*
Y024070D01*
D02*
G37*
G36*
X023576D02*
X023291D01*
Y023696D01*
X023576D01*
Y024070D01*
D02*
G37*
G36*
X053939Y023230D02*
X053643D01*
Y022935D01*
X053939D01*
Y023230D01*
D02*
G37*
G36*
X053443D02*
X053148D01*
Y022935D01*
X053443D01*
Y023230D01*
D02*
G37*
G36*
X024062Y023496D02*
X023676D01*
X023291D01*
Y023200D01*
X023291Y023122D01*
X023291Y023022D01*
Y022726D01*
X023676D01*
X024062D01*
Y023022D01*
X024062Y023100D01*
X024062Y023200D01*
Y023496D01*
D02*
G37*
G36*
X053939Y022735D02*
X053643D01*
Y022439D01*
X053939D01*
Y022735D01*
D02*
G37*
G36*
X053443D02*
X053148D01*
Y022439D01*
X053443D01*
Y022735D01*
D02*
G37*
G36*
X018480Y023058D02*
Y022280D01*
X018838D01*
Y022613D01*
X018823Y022732D01*
X018777Y022842D01*
X018704Y022937D01*
X018609Y023010D01*
X018499Y023056D01*
X018480Y023058D01*
D02*
G37*
G36*
X018280D02*
X018261Y023056D01*
X018151Y023010D01*
X018056Y022937D01*
X017983Y022842D01*
X017937Y022732D01*
X017922Y022613D01*
Y022280D01*
X018280D01*
Y023058D01*
D02*
G37*
G36*
X035610Y022275D02*
X035050D01*
Y021950D01*
X035610D01*
Y022275D01*
D02*
G37*
G36*
X034850D02*
X034290D01*
Y021950D01*
X034850D01*
Y022275D01*
D02*
G37*
G36*
X022768Y022130D02*
X022483D01*
Y021756D01*
X022768D01*
Y022130D01*
D02*
G37*
G36*
X035610Y021750D02*
X035050D01*
Y021425D01*
X035610D01*
Y021750D01*
D02*
G37*
G36*
X034850D02*
X034290D01*
Y021425D01*
X034850D01*
Y021750D01*
D02*
G37*
G36*
X018838Y022080D02*
X018480D01*
Y021302D01*
X018499Y021304D01*
X018609Y021350D01*
X018704Y021423D01*
X018777Y021518D01*
X018823Y021628D01*
X018838Y021747D01*
Y022080D01*
D02*
G37*
G36*
X018280D02*
X017922D01*
Y021747D01*
X017937Y021628D01*
X017983Y021518D01*
X018056Y021423D01*
X018151Y021350D01*
X018261Y021304D01*
X018280Y021302D01*
Y022080D01*
D02*
G37*
G36*
X022768Y021556D02*
X022483D01*
Y021182D01*
X022768D01*
Y021556D01*
D02*
G37*
G36*
X024052Y021546D02*
X023766D01*
Y021172D01*
X024052D01*
Y021546D01*
D02*
G37*
G36*
X024062Y022526D02*
X023676D01*
X023291D01*
Y022216D01*
X023291Y022214D01*
X023260Y022144D01*
X023200Y022130D01*
X023185D01*
X022968D01*
Y021656D01*
Y021182D01*
X023185D01*
X023281Y021172D01*
X023350Y021172D01*
X023566D01*
Y021646D01*
X023666D01*
Y021746D01*
X024052D01*
Y022056D01*
X024062Y022152D01*
X024062Y022216D01*
Y022526D01*
D02*
G37*
G36*
X049883Y024883D02*
X049612Y024865D01*
X049346Y024812D01*
X049089Y024725D01*
X048846Y024605D01*
X048621Y024455D01*
X048417Y024276D01*
X048238Y024072D01*
X048087Y023846D01*
X047967Y023603D01*
X047880Y023347D01*
X047827Y023081D01*
X047810Y022810D01*
X047827Y022539D01*
X047880Y022273D01*
X047967Y022017D01*
X048087Y021774D01*
X048238Y021548D01*
X048417Y021344D01*
X048621Y021165D01*
X048846Y021015D01*
X049089Y020895D01*
X049346Y020808D01*
X049612Y020755D01*
X049883Y020737D01*
X050153Y020755D01*
X050419Y020808D01*
X050676Y020895D01*
X050919Y021015D01*
X051144Y021165D01*
X051348Y021344D01*
X051527Y021548D01*
X051678Y021774D01*
X051798Y022017D01*
X051885Y022273D01*
X051938Y022539D01*
X051955Y022810D01*
X051938Y023081D01*
X051885Y023347D01*
X051798Y023603D01*
X051678Y023846D01*
X051527Y024072D01*
X051348Y024276D01*
X051144Y024455D01*
X050919Y024605D01*
X050676Y024725D01*
X050419Y024812D01*
X050153Y024865D01*
X049883Y024883D01*
D02*
G37*
G36*
X040040D02*
X039769Y024865D01*
X039503Y024812D01*
X039247Y024725D01*
X039004Y024605D01*
X038778Y024455D01*
X038574Y024276D01*
X038395Y024072D01*
X038245Y023846D01*
X038125Y023603D01*
X038038Y023347D01*
X037985Y023081D01*
X037967Y022810D01*
X037985Y022539D01*
X038038Y022273D01*
X038125Y022017D01*
X038245Y021774D01*
X038395Y021548D01*
X038574Y021344D01*
X038778Y021165D01*
X039004Y021015D01*
X039247Y020895D01*
X039503Y020808D01*
X039769Y020755D01*
X040040Y020737D01*
X040311Y020755D01*
X040577Y020808D01*
X040833Y020895D01*
X041076Y021015D01*
X041302Y021165D01*
X041506Y021344D01*
X041685Y021548D01*
X041835Y021774D01*
X041955Y022017D01*
X042042Y022273D01*
X042095Y022539D01*
X042113Y022810D01*
X042095Y023081D01*
X042042Y023347D01*
X041955Y023603D01*
X041835Y023846D01*
X041685Y024072D01*
X041506Y024276D01*
X041302Y024455D01*
X041076Y024605D01*
X040833Y024725D01*
X040577Y024812D01*
X040311Y024865D01*
X040040Y024883D01*
D02*
G37*
G36*
X023090Y020840D02*
X023041D01*
Y020663D01*
X023090D01*
Y020840D01*
D02*
G37*
G36*
X033470Y022393D02*
X033366Y022379D01*
X033309Y022356D01*
X033056D01*
Y021813D01*
X032240D01*
X032230Y021812D01*
X031192D01*
Y020628D01*
X032908D01*
Y021006D01*
X033470D01*
X033574Y021020D01*
X033672Y021061D01*
X033755Y021125D01*
X033758Y021129D01*
X033783D01*
Y021160D01*
X033819Y021208D01*
X033860Y021305D01*
X033873Y021410D01*
Y021703D01*
X033964D01*
Y022356D01*
X033631D01*
X033574Y022379D01*
X033470Y022393D01*
D02*
G37*
G36*
X033783Y020431D02*
X033570D01*
Y020250D01*
X033783D01*
Y020431D01*
D02*
G37*
G36*
X033370D02*
X033157D01*
Y020250D01*
X033370D01*
Y020431D01*
D02*
G37*
G36*
X036300Y020339D02*
Y020217D01*
X036422D01*
Y020339D01*
X036300D01*
D02*
G37*
G36*
X020053Y020748D02*
X019187D01*
X019068Y020733D01*
X018958Y020687D01*
X018863Y020614D01*
X018790Y020519D01*
X018744Y020409D01*
X018729Y020290D01*
X018744Y020172D01*
X018790Y020061D01*
X018863Y019966D01*
X018958Y019893D01*
X019068Y019848D01*
X019187Y019832D01*
X020053D01*
X020172Y019848D01*
X020282Y019893D01*
X020377Y019966D01*
X020450Y020061D01*
X020496Y020172D01*
X020511Y020290D01*
X020496Y020409D01*
X020450Y020519D01*
X020377Y020614D01*
X020282Y020687D01*
X020172Y020733D01*
X020053Y020748D01*
D02*
G37*
G36*
X035212Y019903D02*
X035090D01*
Y019781D01*
X035212D01*
Y019903D01*
D02*
G37*
G36*
X041032Y019299D02*
X040910D01*
Y019185D01*
X041032D01*
Y019299D01*
D02*
G37*
G36*
X040710D02*
X040588D01*
Y019185D01*
X040710D01*
Y019299D01*
D02*
G37*
G36*
X040272D02*
X040150D01*
Y019185D01*
X040272D01*
Y019299D01*
D02*
G37*
G36*
X039950D02*
X039828D01*
Y019185D01*
X039950D01*
Y019299D01*
D02*
G37*
G36*
X045938Y019174D02*
X045809Y019157D01*
X045689Y019107D01*
X045586Y019028D01*
X045506Y018925D01*
X045492Y018890D01*
X045384D01*
X045369Y018925D01*
X045290Y019028D01*
X045187Y019107D01*
X045067Y019157D01*
X045038Y019161D01*
Y018676D01*
Y018191D01*
X045067Y018195D01*
X045187Y018245D01*
X045290Y018324D01*
X045369Y018427D01*
X045384Y018462D01*
X045492D01*
X045506Y018427D01*
X045586Y018324D01*
X045689Y018245D01*
X045809Y018195D01*
X045938Y018178D01*
X046067Y018195D01*
X046187Y018245D01*
X046290Y018324D01*
X046369Y018427D01*
X046419Y018547D01*
X046436Y018676D01*
X046419Y018805D01*
X046369Y018925D01*
X046290Y019028D01*
X046187Y019107D01*
X046067Y019157D01*
X045938Y019174D01*
D02*
G37*
G36*
X037605Y018685D02*
X036985D01*
Y018370D01*
X037605D01*
Y018685D01*
D02*
G37*
G36*
X036785D02*
X036164D01*
Y018370D01*
X036785D01*
Y018685D01*
D02*
G37*
G36*
X042844Y019923D02*
X041660D01*
X041601Y019911D01*
X041552Y019878D01*
X041392Y019718D01*
X041359Y019669D01*
X041347Y019610D01*
Y019309D01*
X041278D01*
Y018881D01*
Y018511D01*
X041347D01*
Y018222D01*
X041263D01*
Y017707D01*
X041777D01*
Y018222D01*
X041653D01*
Y018511D01*
X041722D01*
Y018881D01*
Y019309D01*
X041653D01*
Y019547D01*
X041723Y019617D01*
X042148D01*
X042178Y019517D01*
X042157Y019503D01*
X042113Y019437D01*
X042105Y019396D01*
X042104Y019392D01*
X042104Y019392D01*
X042098Y019360D01*
X042088Y019299D01*
X042088Y019299D01*
Y018871D01*
Y018501D01*
X042157D01*
Y018222D01*
X042063D01*
Y017707D01*
X042577D01*
Y018222D01*
X042463D01*
Y018501D01*
X042532D01*
Y018871D01*
Y019299D01*
X042532D01*
X042497Y019385D01*
X042487Y019437D01*
X042443Y019503D01*
X042422Y019517D01*
X042452Y019617D01*
X042780D01*
X043496Y018901D01*
X043457Y018805D01*
X043440Y018676D01*
X043457Y018547D01*
X043506Y018427D01*
X043586Y018324D01*
X043689Y018245D01*
X043809Y018195D01*
X043938Y018178D01*
X044067Y018195D01*
X044187Y018245D01*
X044290Y018324D01*
X044369Y018427D01*
X044384Y018462D01*
X044492D01*
X044506Y018427D01*
X044586Y018324D01*
X044689Y018245D01*
X044809Y018195D01*
X044838Y018191D01*
Y018676D01*
Y019161D01*
X044809Y019157D01*
X044689Y019107D01*
X044586Y019028D01*
X044506Y018925D01*
X044492Y018890D01*
X044384D01*
X044369Y018925D01*
X044290Y019028D01*
X044187Y019107D01*
X044067Y019157D01*
X043938Y019174D01*
X043809Y019157D01*
X043713Y019117D01*
X042952Y019878D01*
X042902Y019911D01*
X042844Y019923D01*
D02*
G37*
G36*
X050128Y018919D02*
X049298D01*
Y018089D01*
X050128D01*
Y018919D01*
D02*
G37*
G36*
X048713Y018922D02*
X048604Y018908D01*
X048503Y018866D01*
X048417Y018800D01*
X048350Y018713D01*
X048308Y018612D01*
X048294Y018504D01*
X048308Y018396D01*
X048350Y018295D01*
X048417Y018208D01*
X048503Y018141D01*
X048604Y018100D01*
X048713Y018085D01*
X048821Y018100D01*
X048922Y018141D01*
X049009Y018208D01*
X049075Y018295D01*
X049117Y018396D01*
X049131Y018504D01*
X049117Y018612D01*
X049075Y018713D01*
X049009Y018800D01*
X048922Y018866D01*
X048821Y018908D01*
X048713Y018922D01*
D02*
G37*
G36*
X037605Y018170D02*
X036985D01*
Y017855D01*
X037605D01*
Y018170D01*
D02*
G37*
G36*
X036785D02*
X036164D01*
Y017855D01*
X036785D01*
Y018170D01*
D02*
G37*
G36*
X041032Y018985D02*
X040588D01*
Y018871D01*
Y018501D01*
X040657D01*
Y018222D01*
X040543D01*
Y017707D01*
X041057D01*
Y018222D01*
X040963D01*
Y018501D01*
X041032D01*
Y018871D01*
Y018985D01*
D02*
G37*
G36*
X040272D02*
X039828D01*
Y018871D01*
Y018501D01*
X039897D01*
Y018222D01*
X039793D01*
Y017707D01*
X040307D01*
Y018222D01*
X040203D01*
Y018501D01*
X040272D01*
Y018871D01*
Y018985D01*
D02*
G37*
G36*
X042577Y017593D02*
X042420D01*
Y017435D01*
X042577D01*
Y017593D01*
D02*
G37*
G36*
X042220D02*
X042063D01*
Y017435D01*
X042220D01*
Y017593D01*
D02*
G37*
G36*
X041777D02*
X041620D01*
Y017435D01*
X041777D01*
Y017593D01*
D02*
G37*
G36*
X041420D02*
X041263D01*
Y017435D01*
X041420D01*
Y017593D01*
D02*
G37*
G36*
X053050Y018600D02*
X052949Y018592D01*
X052752Y018545D01*
X052566Y018468D01*
X052394Y018362D01*
X052241Y018232D01*
X052110Y018078D01*
X052005Y017906D01*
X051927Y017720D01*
X051880Y017524D01*
X051872Y017423D01*
X053050D01*
Y018600D01*
D02*
G37*
G36*
X017029D02*
Y017423D01*
X018206D01*
X018198Y017524D01*
X018151Y017720D01*
X018074Y017906D01*
X017969Y018078D01*
X017838Y018232D01*
X017684Y018362D01*
X017513Y018468D01*
X017326Y018545D01*
X017130Y018592D01*
X017029Y018600D01*
D02*
G37*
G36*
X033974Y017593D02*
X033600D01*
Y017308D01*
X033974D01*
Y017593D01*
D02*
G37*
G36*
X033400D02*
X033026D01*
Y017308D01*
X033400D01*
Y017593D01*
D02*
G37*
G36*
X042577Y017235D02*
X042420D01*
Y017078D01*
X042577D01*
Y017235D01*
D02*
G37*
G36*
X042220D02*
X042063D01*
Y017078D01*
X042220D01*
Y017235D01*
D02*
G37*
G36*
X041777D02*
X041620D01*
Y017078D01*
X041777D01*
Y017235D01*
D02*
G37*
G36*
X041420D02*
X041263D01*
Y017078D01*
X041420D01*
Y017235D01*
D02*
G37*
G36*
X033974Y017108D02*
X033600D01*
Y016822D01*
X033974D01*
Y017108D01*
D02*
G37*
G36*
X033400D02*
X033026D01*
Y016822D01*
X033400D01*
Y017108D01*
D02*
G37*
G36*
X041057Y017593D02*
X040543D01*
Y017078D01*
X040647D01*
Y016966D01*
X040448Y016767D01*
X039262D01*
X039211Y016801D01*
X039134Y016816D01*
X039056Y016801D01*
X038991Y016757D01*
X038947Y016692D01*
X038932Y016614D01*
X038947Y016537D01*
X038991Y016471D01*
X039056Y016427D01*
X039134Y016412D01*
X039211Y016427D01*
X039262Y016461D01*
X040512D01*
X040570Y016473D01*
X040620Y016506D01*
X040908Y016794D01*
X040941Y016844D01*
X040953Y016902D01*
Y017078D01*
X041057D01*
Y017593D01*
D02*
G37*
G36*
X031817Y016845D02*
X031630D01*
Y016658D01*
X031817D01*
Y016845D01*
D02*
G37*
G36*
X031430D02*
X031243D01*
Y016658D01*
X031430D01*
Y016845D01*
D02*
G37*
G36*
X032637Y016815D02*
X032440D01*
Y016628D01*
X032637D01*
Y016815D01*
D02*
G37*
G36*
X032240D02*
X032043D01*
Y016628D01*
X032240D01*
Y016815D01*
D02*
G37*
G36*
X053050Y017223D02*
X051872D01*
X051880Y017122D01*
X051927Y016926D01*
X052005Y016739D01*
X052110Y016567D01*
X052241Y016414D01*
X052394Y016283D01*
X052566Y016178D01*
X052752Y016101D01*
X052949Y016054D01*
X053050Y016046D01*
Y017223D01*
D02*
G37*
G36*
X018206D02*
X017029D01*
Y016046D01*
X017130Y016054D01*
X017326Y016101D01*
X017513Y016178D01*
X017684Y016283D01*
X017838Y016414D01*
X017969Y016567D01*
X018074Y016739D01*
X018151Y016926D01*
X018198Y017122D01*
X018206Y017223D01*
D02*
G37*
%LPD*%
G36*
X018903Y043331D02*
X019200D01*
Y043231D01*
X019300D01*
Y042934D01*
X019497D01*
Y043211D01*
X019538Y043294D01*
X019995D01*
Y043136D01*
X019572Y042713D01*
X019539Y042663D01*
X019528Y042605D01*
Y042277D01*
X019501D01*
Y042091D01*
X019463Y042060D01*
X019229D01*
X019079Y042210D01*
Y042376D01*
X019150D01*
X019228Y042392D01*
X019294Y042436D01*
X019338Y042502D01*
X019354Y042580D01*
X019338Y042658D01*
X019294Y042724D01*
X019228Y042768D01*
X019150Y042784D01*
X019076D01*
Y042802D01*
X018591D01*
X018528Y042902D01*
X018544Y042934D01*
X018591D01*
Y043307D01*
X018635Y043384D01*
X018679Y043399D01*
X018903D01*
Y043331D01*
D02*
G37*
%LPC*%
G36*
X019100Y043131D02*
X018903D01*
Y042934D01*
X019100D01*
Y043131D01*
D02*
G37*
%LPD*%
G36*
X041129Y042266D02*
X041110Y042220D01*
X040961D01*
Y041846D01*
X041247D01*
Y042083D01*
X041293Y042102D01*
X041578Y041817D01*
Y041273D01*
X041570D01*
Y040679D01*
X041730D01*
Y040407D01*
X041538D01*
Y039728D01*
X041338D01*
Y040407D01*
X040994D01*
Y040407D01*
X040948Y040416D01*
Y040556D01*
X040672D01*
Y040368D01*
X040572D01*
Y040268D01*
X040197D01*
Y040212D01*
X040572D01*
Y040012D01*
X040197D01*
Y039956D01*
X040572D01*
Y039789D01*
X040197D01*
Y039736D01*
X040092D01*
Y039788D01*
X039607D01*
Y039566D01*
Y039344D01*
X040092D01*
Y039430D01*
X040197D01*
Y039411D01*
Y039156D01*
Y038913D01*
X039331Y038913D01*
Y039344D01*
X039407D01*
Y039566D01*
Y039788D01*
X039331D01*
X039331Y042407D01*
X040989Y042407D01*
X041129Y042266D01*
D02*
G37*
G36*
X045222Y040030D02*
X045230D01*
Y038218D01*
X043676Y036664D01*
X043628Y036601D01*
X043598Y036528D01*
X043587Y036450D01*
Y036276D01*
X043580Y036270D01*
X043510Y036179D01*
X043467Y036073D01*
X043452Y035960D01*
X043467Y035847D01*
X043510Y035741D01*
X043580Y035650D01*
X043603Y035633D01*
X043569Y035533D01*
X042515D01*
X041953Y036095D01*
Y038896D01*
X042297D01*
X042305Y038894D01*
X042330Y038900D01*
X042680D01*
Y038900D01*
X042778Y038894D01*
Y038890D01*
X042819D01*
Y038789D01*
X042791Y038761D01*
X042579D01*
X042565Y038758D01*
X042155D01*
Y038268D01*
X042155Y038184D01*
X042155Y038084D01*
Y037981D01*
X042442D01*
Y037881D01*
X042542D01*
Y037594D01*
X042729D01*
Y037669D01*
X042778Y037749D01*
X042829Y037749D01*
X043687D01*
Y037749D01*
X043708D01*
Y037749D01*
X044617D01*
Y038401D01*
X043708D01*
Y038401D01*
X043687D01*
Y038401D01*
X042995D01*
X042964Y038496D01*
X042964Y038501D01*
X043080Y038618D01*
X043114Y038667D01*
X043125Y038726D01*
Y038890D01*
X043608D01*
X043687Y038890D01*
X043787Y038890D01*
X044062D01*
Y039217D01*
Y039543D01*
X043787D01*
X043708Y039543D01*
X043608Y039543D01*
X042778D01*
Y039543D01*
X042680Y039548D01*
Y039704D01*
X042942D01*
X042981Y039712D01*
X043014Y039734D01*
X043036Y039767D01*
X043044Y039806D01*
Y039819D01*
X043656D01*
Y039888D01*
X044630D01*
X044709Y039898D01*
X044782Y039928D01*
X044844Y039976D01*
X044971Y040103D01*
X045222D01*
Y040030D01*
D02*
G37*
%LPC*%
G36*
X040761Y042220D02*
X040476D01*
Y041846D01*
X040761D01*
Y042220D01*
D02*
G37*
G36*
X041247Y041646D02*
X040861D01*
X040476D01*
Y041272D01*
X040940D01*
Y041076D01*
X041227D01*
X041514D01*
Y041273D01*
X041247D01*
Y041646D01*
D02*
G37*
G36*
X041514Y040876D02*
X041327D01*
Y040679D01*
X041514D01*
Y040876D01*
D02*
G37*
G36*
X041127D02*
X040940D01*
Y040679D01*
X041127D01*
Y040876D01*
D02*
G37*
G36*
X040472Y040556D02*
X040197D01*
Y040468D01*
X040472D01*
Y040556D01*
D02*
G37*
G36*
X044262Y039543D02*
Y039317D01*
X044617D01*
Y039543D01*
X044262D01*
D02*
G37*
G36*
X044617Y039117D02*
X044262D01*
Y038890D01*
X044617D01*
Y039117D01*
D02*
G37*
G36*
X042342Y037781D02*
X042155D01*
Y037594D01*
X042342D01*
Y037781D01*
D02*
G37*
%LPD*%
G36*
X029650Y028050D02*
Y027000D01*
X029577Y026927D01*
X029098D01*
Y026450D01*
X029042D01*
Y026530D01*
X028755D01*
X028468D01*
Y026450D01*
X028371D01*
Y026518D01*
X027995D01*
Y026618D01*
D01*
Y026518D01*
X027619D01*
Y026450D01*
X027435Y026450D01*
X027400Y026485D01*
X027400Y028340D01*
X029360D01*
X029650Y028050D01*
D02*
G37*
%LPC*%
G36*
X029042Y026927D02*
X028855D01*
Y026730D01*
X029042D01*
Y026927D01*
D02*
G37*
G36*
X028655D02*
X028468D01*
Y026730D01*
X028655D01*
Y026927D01*
D02*
G37*
G36*
X028371Y026925D02*
X028095D01*
Y026718D01*
X028371D01*
Y026925D01*
D02*
G37*
G36*
X027895D02*
X027619D01*
Y026718D01*
X027895D01*
Y026925D01*
D02*
G37*
%LPD*%
G36*
X025830Y023890D02*
Y020530D01*
X025610Y020310D01*
X024340D01*
X024240Y020410D01*
Y020680D01*
X024500Y020940D01*
Y023950D01*
X024560Y024010D01*
X025710D01*
X025830Y023890D01*
D02*
G37*
%LPC*%
G36*
X051690Y049056D02*
X051687Y049055D01*
X051591Y049015D01*
X051508Y048952D01*
X051445Y048869D01*
X051405Y048773D01*
X051404Y048770D01*
X051690D01*
Y049056D01*
D02*
G37*
G36*
Y048570D02*
X051404D01*
X051405Y048567D01*
X051445Y048471D01*
X051508Y048388D01*
X051591Y048325D01*
X051687Y048285D01*
X051690Y048284D01*
Y048570D01*
D02*
G37*
%LPD*%
D10*
X020305Y043008D02*
Y043435D01*
X020343Y043473D01*
X020485D01*
X020148Y043532D02*
X020403Y043787D01*
X020485D01*
X020148Y043073D02*
Y043532D01*
X019680Y042605D02*
X020148Y043073D01*
X019680Y042020D02*
Y042605D01*
X019837Y042540D02*
X020305Y043008D01*
X019837Y042020D02*
Y042540D01*
Y042020D02*
X019857Y042000D01*
X019660D02*
X019680Y042020D01*
X018643Y043551D02*
X019737D01*
X019815Y043473D01*
X019200Y043709D02*
Y043900D01*
Y043709D02*
X019737D01*
X019815Y043787D01*
X018294Y043900D02*
X018643Y043551D01*
X018447Y044530D02*
X018669Y044309D01*
X018072Y044530D02*
X018447D01*
X018669Y044160D02*
Y044309D01*
X018408Y043900D02*
X018669Y044160D01*
X018294Y043900D02*
X018408D01*
X017887Y044346D02*
X018072Y044530D01*
X017887Y043235D02*
Y044346D01*
X017592Y042939D02*
X017887Y043235D01*
X017058Y042939D02*
X017592D01*
X017009Y042890D02*
X017058Y042939D01*
X019086Y043900D02*
X019200D01*
X018007Y044687D02*
X018513D01*
X018826Y044160D02*
Y044374D01*
X018513Y044687D02*
X018826Y044374D01*
Y044160D02*
X019086Y043900D01*
X017730Y044411D02*
X018007Y044687D01*
X017730Y043300D02*
Y044411D01*
X017527Y043097D02*
X017730Y043300D01*
X017058Y043097D02*
X017527D01*
X017009Y043146D02*
X017058Y043097D01*
X025036Y049190D02*
X025163D01*
X025424Y049674D02*
X025662D01*
X025098Y049348D02*
X025424Y049674D01*
X025036Y049348D02*
X025098D01*
X025489Y049516D02*
X025662D01*
X025163Y049190D02*
X025489Y049516D01*
X024925Y049459D02*
X025036Y049348D01*
X025662Y049516D02*
X025682Y049497D01*
X024814Y049190D02*
X024925Y049079D01*
X022230Y048677D02*
Y050089D01*
X024443Y049190D02*
X024814D01*
X021775Y050544D02*
X022230Y050089D01*
X023745Y048493D02*
X024443Y049190D01*
X022415Y048493D02*
X023745D01*
X022230Y048677D02*
X022415Y048493D01*
X025662Y049674D02*
X025682Y049694D01*
X024814Y049348D02*
X024925Y049459D01*
X024378Y049348D02*
X024814D01*
X022539Y049280D02*
X022775Y049044D01*
X022387Y049210D02*
X022457Y049280D01*
X022539D01*
X023680Y048650D02*
X024378Y049348D01*
X022480Y048650D02*
X023680D01*
X022387Y048743D02*
Y049210D01*
Y048743D02*
X022480Y048650D01*
X024925Y049079D02*
X025036Y049190D01*
X022300Y051110D02*
X022709D01*
X022280Y050810D02*
Y051090D01*
X022300Y051110D01*
X022709D02*
X022775Y051044D01*
X022280Y050810D02*
X022480Y050610D01*
X022123Y050745D02*
Y051197D01*
X021775Y051544D02*
X022123Y051197D01*
X025015Y050325D02*
X025230Y050110D01*
X024636Y050325D02*
X025015D01*
X025230Y050085D02*
Y050110D01*
X024414Y050325D02*
X024525Y050214D01*
X024636Y050325D01*
X025662Y049910D02*
X025682Y049890D01*
X025230Y050085D02*
X025405Y049910D01*
X025662D01*
X022123Y050745D02*
X022415Y050453D01*
X024165Y050325D02*
X024414D01*
X022415Y050453D02*
X024038D01*
X024165Y050325D01*
X025080Y050483D02*
X025387Y050175D01*
X024636Y050483D02*
X025080D01*
X025387Y050150D02*
Y050175D01*
X024414Y050483D02*
X024525Y050594D01*
X024636Y050483D01*
X025662Y050068D02*
X025682Y050087D01*
X025387Y050150D02*
X025470Y050068D01*
X025662D01*
X024230Y050483D02*
X024414D01*
X022480Y050610D02*
X024103D01*
X024230Y050483D01*
X033945Y052387D02*
X034023Y052309D01*
X034200D01*
X033945Y052073D02*
X034023Y052151D01*
X034265D01*
X034579Y052465D01*
X034200Y052309D02*
X034421Y052530D01*
X034579Y052465D02*
Y053140D01*
X034421Y052530D02*
Y053140D01*
X034579D02*
X034839Y053400D01*
X035000D01*
X034161D02*
X034421Y053140D01*
X034000Y053400D02*
X034161D01*
X032145Y051481D02*
Y051878D01*
X032342Y051481D02*
Y051852D01*
X032145Y051878D02*
X032576Y052309D01*
X033197D01*
X032342Y051852D02*
X032641Y052151D01*
X033197Y052309D02*
X033275Y052387D01*
X032641Y052151D02*
X033197D01*
X033275Y052073D01*
D11*
X036490Y052500D02*
X036930Y052940D01*
X035892Y052500D02*
X036490D01*
X036930Y052940D02*
Y053730D01*
X038574Y043749D02*
Y043769D01*
X036270Y046073D02*
X038574Y043769D01*
X036270Y046073D02*
Y046770D01*
X038720Y043602D02*
X038740D01*
X038574Y043749D02*
X038720Y043602D01*
X030908Y052640D02*
X031181Y052913D01*
X026620Y052640D02*
X030908D01*
X031520Y053150D02*
X031875D01*
X031900Y053125D01*
X031120Y052540D02*
X031131Y052529D01*
X031369D02*
X031380Y052517D01*
X031131Y052529D02*
X031369D01*
X037650Y016310D02*
X038675Y017335D01*
X040050D01*
X040800Y016902D02*
Y017335D01*
X040512Y016614D02*
X040800Y016902D01*
X039134Y016614D02*
X040512D01*
X043621Y048030D02*
X045590D01*
X043071Y047480D02*
X043621Y048030D01*
X037362Y047480D02*
X043071D01*
X043477Y048320D02*
X045450D01*
X042997Y047839D02*
X043477Y048320D01*
X037299Y047839D02*
X042997D01*
X029890Y047330D02*
X030204D01*
X030320Y047446D01*
X030669D01*
X030090Y046940D02*
X030398Y047249D01*
X029890Y047330D02*
Y047338D01*
Y046940D02*
X030090D01*
X030398Y047249D02*
X030669D01*
X038661Y036581D02*
Y043509D01*
X037560Y035480D02*
X038661Y036581D01*
X042362Y051220D02*
X044803D01*
X045984Y052402D02*
X047726D01*
X044803Y051220D02*
X045984Y052402D01*
X046092Y052126D02*
X048450D01*
X044911Y050945D02*
X046092Y052126D01*
X042441Y050945D02*
X044911D01*
X042205Y051457D02*
X044646D01*
X045787Y052598D02*
X046923D01*
X044646Y051457D02*
X045787Y052598D01*
X042008Y051732D02*
X044528D01*
X045669Y052874D02*
X046198D01*
X044528Y051732D02*
X045669Y052874D01*
X049135Y051811D02*
X050764Y053440D01*
X046102Y051811D02*
X049135D01*
X044921Y050630D02*
X046102Y051811D01*
X042559Y050630D02*
X044921D01*
X039965Y048036D02*
X042559Y050630D01*
X039729Y048233D02*
X042441Y050945D01*
X039572Y048430D02*
X042362Y051220D01*
X039375Y048627D02*
X042205Y051457D01*
X036771Y048036D02*
X039965D01*
X036771Y048430D02*
X039572D01*
X036771Y048233D02*
X039729D01*
X036771Y047839D02*
X037299D01*
X048450Y052126D02*
X049764Y053440D01*
X047726Y052402D02*
X048764Y053440D01*
X036771Y048627D02*
X039375D01*
X036771Y048824D02*
X039099D01*
X042008Y051732D01*
X036771Y049021D02*
X038942D01*
X041890Y051968D01*
X046923Y052598D02*
X047764Y053440D01*
X046198Y052874D02*
X046764Y053440D01*
X037201Y047641D02*
X037362Y047480D01*
X036772Y047641D02*
X037201D01*
X043176Y047126D02*
X043840Y047790D01*
X037047Y046667D02*
X037506Y047126D01*
X043176D01*
X044293Y051968D02*
X045764Y053440D01*
X041890Y051968D02*
X044293D01*
X041772Y052283D02*
X043608D01*
X038706Y049217D02*
X041772Y052283D01*
X043608D02*
X044764Y053440D01*
X041649Y052559D02*
X042883D01*
X043764Y053440D01*
X038504Y049414D02*
X041649Y052559D01*
X042198Y052874D02*
X042764Y053440D01*
X038346Y049611D02*
X041609Y052874D01*
X042198D01*
X036771Y049217D02*
X038706D01*
X036771Y049414D02*
X038504D01*
X036771Y049611D02*
X038346D01*
X038132Y049808D02*
X041764Y053440D01*
X036771Y049808D02*
X038132D01*
X040764Y052969D02*
Y053440D01*
X037800Y050005D02*
X040764Y052969D01*
X036771Y050005D02*
X037800D01*
X036082Y051791D02*
X036299Y052008D01*
X036082Y051481D02*
Y051791D01*
X033543Y049409D02*
Y050591D01*
X031580Y047446D02*
X033543Y049409D01*
X030669Y047446D02*
X031580D01*
X033071Y049409D02*
Y050591D01*
X031304Y047643D02*
X033071Y049409D01*
X030669Y047643D02*
X031304D01*
X030323Y047677D02*
X030357Y047643D01*
X029933Y047677D02*
X030323D01*
X029890Y047720D02*
X029933Y047677D01*
X036148Y023235D02*
X036260Y023346D01*
X033490Y024595D02*
X035877D01*
X033090D02*
X033490D01*
X035877D02*
X036260Y024213D01*
Y023346D02*
Y024213D01*
X035990Y023235D02*
X036148D01*
X035210Y023010D02*
Y023243D01*
Y023010D02*
X035245Y022975D01*
Y022679D02*
Y022975D01*
X035600Y023060D02*
Y023235D01*
X035442Y022902D02*
X035600Y023060D01*
X035442Y022679D02*
Y022902D01*
X035990Y023089D02*
Y023235D01*
X035639Y022738D02*
X035990Y023089D01*
X035639Y022679D02*
Y022738D01*
X035630Y020510D02*
X035639Y020519D01*
Y021021D01*
X034990Y020357D02*
X035048Y020416D01*
Y021021D01*
X038960Y046540D02*
X039880Y045620D01*
X037240Y046540D02*
X038960D01*
X036820Y036100D02*
X038100Y037380D01*
X036082Y045202D02*
X038100Y043184D01*
Y037380D02*
Y043184D01*
X020052Y042002D02*
Y042308D01*
X020050Y042310D02*
Y042350D01*
X020052Y042002D02*
X020054Y042000D01*
X020050Y042310D02*
X020052Y042308D01*
X031948Y052018D02*
X032020Y052090D01*
X031948Y051481D02*
Y052018D01*
X030357Y047643D02*
X030669D01*
X048912Y041246D02*
X049208Y041541D01*
X049016Y041370D02*
X049110D01*
X049208Y041541D02*
X049463D01*
X038074Y039998D02*
X038075Y039997D01*
X038064Y040008D02*
X038074Y039998D01*
X052589Y031709D02*
X053543D01*
X050470Y029590D02*
X052589Y031709D01*
X039490Y029590D02*
X050470D01*
X037560Y031520D02*
X039490Y029590D01*
X037560Y031520D02*
Y035480D01*
X036820Y029800D02*
X040725Y025895D01*
X036820Y029800D02*
Y036100D01*
X040725Y025895D02*
X050375D01*
X036082Y045202D02*
Y045379D01*
X050375Y025895D02*
X052435Y023835D01*
X050876Y045914D02*
X051790D01*
X050480Y046310D02*
X050876Y045914D01*
X050480Y046310D02*
Y047620D01*
X049780Y048320D02*
X050480Y047620D01*
X049345Y048320D02*
X049780D01*
X045520Y042960D02*
X047180D01*
X042860Y045620D02*
X045520Y042960D01*
X048380Y048190D02*
X048510Y048320D01*
X048975D01*
X048032Y046805D02*
Y047716D01*
X048327Y046844D02*
Y047197D01*
X048288Y046805D02*
X048288Y046805D01*
X048651Y047706D02*
X048725Y047780D01*
Y047760D02*
Y047780D01*
X049810Y046980D02*
X049860Y047030D01*
Y047400D02*
Y047630D01*
X048926Y047030D02*
X049788D01*
X048780Y046910D02*
X048806D01*
X048926Y047030D01*
X049788D02*
X049810Y047008D01*
Y046980D02*
Y047008D01*
X049860Y046635D02*
Y047030D01*
X047097Y046640D02*
X047107Y046650D01*
X047510D02*
X047520Y046660D01*
X047107Y046650D02*
X047510D01*
X047097Y046140D02*
X047528D01*
X049860Y045990D02*
Y046265D01*
X048846Y045950D02*
X049036Y046140D01*
X048830Y045950D02*
X048846D01*
X049036Y046140D02*
X049223D01*
X048327Y047197D02*
X048598Y047468D01*
X048031Y047716D02*
X048032Y047716D01*
X048598Y047468D02*
Y047633D01*
X048725Y047760D01*
X048095Y047780D02*
Y047800D01*
X048380Y048085D01*
Y048190D01*
X048288Y044518D02*
Y044975D01*
Y046805D02*
X048327Y046844D01*
X048544Y046805D02*
X048582Y046767D01*
X047709Y043127D02*
Y043744D01*
X047713Y044194D02*
Y044202D01*
X047709Y043744D02*
X047711Y043746D01*
Y044192D01*
X047550Y042960D02*
Y042968D01*
X047345Y043746D02*
X047347Y043744D01*
X047550Y042968D02*
X047709Y043127D01*
X048160Y043560D02*
Y043820D01*
X048555Y043575D02*
Y043810D01*
X048550Y043815D02*
X048555Y043810D01*
X048288Y046158D02*
X048288Y046158D01*
X048292Y045426D02*
X048295Y045430D01*
X048292Y044978D02*
Y045426D01*
X048288Y044975D02*
X048292Y044978D01*
X048920Y044185D02*
X048958Y044147D01*
X048920Y044185D02*
Y044360D01*
X048958Y044147D02*
X049045Y044060D01*
X047343Y044194D02*
X047345Y044192D01*
Y043746D02*
Y044192D01*
X047711Y044192D02*
X047713Y044194D01*
X047738Y044597D02*
Y044936D01*
X046460Y044760D02*
X046785D01*
X048555Y043575D02*
X048560Y043570D01*
X048548Y044188D02*
X048550Y044185D01*
X048162Y044188D02*
X048548D01*
X048160Y044190D02*
X048162Y044188D01*
X048160Y044190D02*
X048180Y044210D01*
X047343Y044194D02*
Y044202D01*
X047660Y044520D02*
X047738Y044597D01*
X047713Y044202D02*
X048032Y044521D01*
X047343Y044202D02*
X047660Y044520D01*
X049160Y045077D02*
X049223Y045140D01*
X048180Y044210D02*
Y044389D01*
X048230Y044460D02*
X048288Y044518D01*
X048032Y044521D02*
Y044975D01*
Y045728D02*
X048050Y045710D01*
X048032Y045728D02*
Y046805D01*
X048180Y044389D02*
X048230Y044439D01*
X049160Y044790D02*
Y045077D01*
X048230Y044439D02*
Y044460D01*
X048288Y046158D02*
Y046805D01*
X048582Y046910D02*
X048780D01*
X048544Y046805D02*
Y046871D01*
X048582Y046910D01*
X049036Y045640D02*
X049223D01*
X048820Y045420D02*
Y045424D01*
X049036Y045640D01*
X046532Y046030D02*
X046642Y046140D01*
X047097Y045640D02*
X047148Y045691D01*
X046460Y045130D02*
Y045590D01*
Y045960D02*
X046468D01*
X046532Y046024D01*
Y046030D01*
X046642Y046140D02*
X047097D01*
X046785Y044760D02*
X047343Y044202D01*
X047148Y045691D02*
X047501D01*
X047520Y045710D01*
X045800Y047790D02*
X047390Y049380D01*
X045590Y048030D02*
X047230Y049670D01*
X034070Y044428D02*
Y044770D01*
X034064Y044422D02*
X034070Y044428D01*
X028882Y044908D02*
X029790Y044000D01*
X028882Y047952D02*
X029557Y048627D01*
X028882Y044908D02*
Y047952D01*
X029052Y047852D02*
X029630Y048430D01*
X029052Y045080D02*
X030050Y044082D01*
X029250Y046930D02*
X029255Y046935D01*
X029052Y045080D02*
Y047852D01*
X029255Y046935D02*
X029515D01*
X029520Y046940D01*
X029275Y047325D02*
X029515D01*
X029280Y047720D02*
X029520D01*
X029515Y047325D02*
X029520Y047330D01*
X028710Y044720D02*
Y048079D01*
X028920Y048289D02*
Y048289D01*
X028710Y048079D02*
X028920Y048289D01*
Y048289D02*
X029454Y048824D01*
X051790Y047670D02*
X052280Y048160D01*
Y050097D01*
X052177Y050200D02*
X052280Y050097D01*
X047330Y050200D02*
X052177D01*
X052180Y047060D02*
X052790Y047670D01*
X051270Y047060D02*
X052180D01*
X050930Y047400D02*
X051270Y047060D01*
X050930Y047400D02*
Y047980D01*
X049530Y049380D02*
X050930Y047980D01*
X047390Y049380D02*
X049530D01*
X037699Y039559D02*
X037700Y039560D01*
X037419Y039558D02*
X037420Y039559D01*
X037699D01*
X025150Y018360D02*
X026865Y020075D01*
X024574Y018360D02*
X025150D01*
X036385Y050595D02*
X036771D01*
X036280Y050700D02*
X036385Y050595D01*
X036280Y050700D02*
X036280D01*
X037378Y050537D02*
X037390Y050526D01*
X037235Y050537D02*
X037378D01*
X037216Y050556D02*
X037235Y050537D01*
X027264Y050289D02*
Y050814D01*
X027525Y051075D01*
X027259Y050284D02*
X027264Y050289D01*
X027178Y050284D02*
X027259D01*
X027402Y050092D02*
X027932Y050622D01*
X027976D01*
X028040Y050686D01*
X027183Y050092D02*
X027402D01*
X027178Y050087D02*
X027183Y050092D01*
X027846Y050226D02*
X027976D01*
X028040Y050290D01*
Y050294D01*
X027516Y049896D02*
X027846Y050226D01*
X027525Y051075D02*
Y051359D01*
X028040Y050686D02*
Y051094D01*
X027183Y049896D02*
X027516D01*
X047230Y049670D02*
X051790D01*
X045450Y048320D02*
X047330Y050200D01*
X024437Y039722D02*
X024465Y039750D01*
X015811Y039722D02*
X024437D01*
X016275Y040135D02*
X016280Y040130D01*
X015815Y040135D02*
X016275D01*
X015810Y040140D02*
X015815Y040135D01*
X015524Y040140D02*
X015810D01*
X016662Y040408D02*
X016930Y040140D01*
X024465D01*
X015810Y040408D02*
X016662D01*
X024194Y018347D02*
X024201Y018354D01*
X024568D01*
X024574Y018360D01*
X041520Y016990D02*
Y017335D01*
X042320Y016980D02*
Y017335D01*
X041660Y019770D02*
X042844D01*
X043938Y018676D01*
X041500Y019610D02*
X041660Y019770D01*
X041500Y019159D02*
Y019610D01*
X041504Y019155D02*
X041560D01*
X041500Y019159D02*
X041504Y019155D01*
X041500Y019095D02*
X041560Y019155D01*
X042300Y019095D02*
X042305Y019100D01*
X042300Y019360D02*
X042305Y019355D01*
Y019100D02*
Y019355D01*
X042300Y019095D02*
X042310Y019085D01*
X031140Y016310D02*
X037650D01*
X043840Y047790D02*
X045800D01*
X035492Y051481D02*
Y052420D01*
X035832Y052760D01*
X036330D01*
X036700Y053130D01*
Y053600D01*
X036410Y053890D02*
X036700Y053600D01*
X026050Y053890D02*
X036410D01*
X035689Y051481D02*
Y052297D01*
X035892Y052500D01*
X036520Y054140D02*
X036930Y053730D01*
X025970Y054140D02*
X036520D01*
X023977Y019374D02*
X024253Y019098D01*
Y019090D02*
Y019098D01*
X023977Y019374D02*
Y019579D01*
X023781Y019239D02*
X023960Y019060D01*
X023797Y018093D02*
Y018341D01*
X022260Y019056D02*
Y019528D01*
Y019056D02*
X022263Y019053D01*
X022257Y019531D02*
X022260Y019528D01*
X023210Y018325D02*
X023465D01*
X023753Y018755D02*
Y018975D01*
X023584Y019145D02*
X023753Y018975D01*
Y018755D02*
X023797Y018711D01*
X023781Y019500D02*
X023781Y019499D01*
Y019239D02*
Y019499D01*
X024196Y018716D02*
X024573D01*
X024194Y018717D02*
X024196Y018716D01*
X024573D02*
X024574Y018714D01*
X024191Y018714D02*
X024194Y018717D01*
X023797Y018711D02*
X023801Y018714D01*
X024191D01*
X023584Y019145D02*
Y019500D01*
X023389Y019051D02*
Y019053D01*
X023388Y019055D02*
X023389Y019053D01*
X023388Y019055D02*
Y019499D01*
X023387Y019500D02*
X023388Y019499D01*
X023190Y019500D02*
X023191Y019499D01*
Y018714D02*
Y019499D01*
Y018714D02*
X023210Y018695D01*
X036904Y040019D02*
X036915Y040008D01*
X037694D01*
X028590Y040140D02*
X029550Y041100D01*
Y043880D01*
X028710Y044720D02*
X029550Y043880D01*
X028720Y039750D02*
X029790Y040820D01*
Y044000D01*
X030050Y040370D02*
Y044082D01*
X029030Y039350D02*
X030050Y040370D01*
X024835Y039350D02*
X029030D01*
X025450Y053620D02*
X025970Y054140D01*
X025700Y053540D02*
X026050Y053890D01*
X036771Y046658D02*
X036780Y046667D01*
X037047D01*
X037162Y046462D02*
X037240Y046540D01*
X036771Y046462D02*
X037162D01*
X036771Y047643D02*
X036772Y047641D01*
X052435Y023835D02*
X053543D01*
X036300Y044314D02*
X036306Y044309D01*
X036270Y046770D02*
X036355Y046855D01*
X036771D01*
X036274Y039448D02*
X036283Y039439D01*
X039880Y045620D02*
X042860D01*
X036283Y039439D02*
X036874D01*
X030583Y016867D02*
X031140Y016310D01*
X030583Y016867D02*
Y018340D01*
X040050Y017965D02*
Y018715D01*
Y019085D02*
Y019370D01*
X040805Y019090D02*
X040810Y019085D01*
X040805Y019090D02*
Y019375D01*
X040800Y019380D02*
X040805Y019375D01*
X040800Y017965D02*
X040810Y017975D01*
Y018715D01*
X041500Y017985D02*
Y018725D01*
Y017985D02*
X041520Y017965D01*
X042310Y017975D02*
Y018715D01*
Y017975D02*
X042320Y017965D01*
X041500Y019095D02*
X041508D01*
X029410Y049060D02*
X029971D01*
X030098Y049188D01*
X029160Y048810D02*
X029410Y049060D01*
X029454Y048824D02*
X030669D01*
X028940Y048567D02*
Y048930D01*
X029280Y049270D01*
X028410Y048294D02*
Y048302D01*
X028474Y048366D01*
X024835Y040140D02*
X028590D01*
X024835Y039750D02*
X028720D01*
X029557Y048627D02*
X030669D01*
X029630Y048430D02*
X030669D01*
X028410Y048294D02*
X028667D01*
X028940Y048567D01*
X029280Y049270D02*
X029900D01*
X015810Y039723D02*
X015811Y039722D01*
X015506Y040511D02*
Y040653D01*
X015504Y040510D02*
X015506Y040511D01*
X015504Y040120D02*
Y040510D01*
Y039542D02*
Y040120D01*
X015524Y040140D01*
X015563Y039484D02*
X015781D01*
X015504Y039542D02*
X015563Y039484D01*
X015781D02*
X015810Y039455D01*
X015506Y040653D02*
X015580Y040727D01*
X016596Y039136D02*
X016810Y039350D01*
X024465D01*
X015580Y039136D02*
X016596D01*
X025450Y053010D02*
Y053620D01*
X025700Y053260D02*
Y053540D01*
X026180Y052200D02*
X026620Y052640D01*
X026430Y052130D02*
X026673Y052373D01*
X029043D01*
X026430Y051256D02*
Y052130D01*
X028460Y052175D02*
X029304Y051331D01*
X029641D02*
X030180Y050792D01*
X029304Y051331D02*
X029641D01*
X029085Y052332D02*
X030530D01*
X029043Y052373D02*
X029085Y052332D01*
X036771Y046068D02*
X036948D01*
X037071Y045849D02*
Y045945D01*
X036948Y046068D02*
X037071Y045945D01*
Y045849D02*
X037090Y045830D01*
X033917Y046010D02*
Y046573D01*
X033908Y045837D02*
Y046002D01*
Y045837D02*
X033917Y045829D01*
Y045379D02*
Y045829D01*
X033908Y046002D02*
X033917Y046010D01*
X029486Y045858D02*
X029505Y045876D01*
Y046072D01*
X029523Y046090D01*
X030260Y046260D02*
X030262Y046262D01*
X030666D01*
X031751Y051812D02*
X031788Y051848D01*
X031751Y051481D02*
Y051812D01*
X031788Y051848D02*
Y052303D01*
X031925Y052440D01*
X031751Y051481D02*
X031761Y051472D01*
Y051179D02*
Y051472D01*
Y051179D02*
X032070Y050870D01*
X035580D01*
X036051Y050399D02*
X036771D01*
X035580Y050870D02*
X036051Y050399D01*
X035320Y050510D02*
X035628Y050202D01*
X034620Y050510D02*
X035320D01*
X035628Y050202D02*
X036771D01*
X035260Y047750D02*
X035958Y047052D01*
X035260Y047750D02*
Y050190D01*
X035240Y050210D02*
X035260Y050190D01*
X036771Y050399D02*
X036780Y050389D01*
X035630Y042137D02*
X035636Y042143D01*
Y042436D01*
X035641Y042441D01*
X032472Y043855D02*
X032722D01*
X032457Y043870D02*
X032472Y043855D01*
X032722D02*
X032737Y043840D01*
X030098Y049188D02*
Y049328D01*
X030184Y049414D01*
X030669D01*
X033650Y046840D02*
Y048440D01*
Y046840D02*
X033917Y046573D01*
X033990Y047160D02*
Y048670D01*
Y047160D02*
X034311Y046839D01*
Y045379D02*
Y046839D01*
X034700Y047580D02*
Y049960D01*
Y047580D02*
X035885Y046395D01*
Y045379D02*
Y046395D01*
X034330Y047340D02*
Y049630D01*
Y047340D02*
X035689Y045981D01*
Y045379D02*
Y045981D01*
X035910Y047820D02*
Y049240D01*
X035610Y047850D02*
Y049452D01*
X029637Y049497D02*
X029640Y049500D01*
X028410Y049494D02*
X028413Y049497D01*
X029637D01*
X027604Y049694D02*
X027776Y049866D01*
X027178Y049694D02*
X027604D01*
X035958Y047052D02*
X036771D01*
X035610Y047850D02*
X036211Y047249D01*
X036771D01*
X035910Y047820D02*
X036284Y047446D01*
X036771D01*
X031371Y052171D02*
X031380Y052163D01*
X031139Y052171D02*
X031371D01*
X031130Y052180D02*
X031139Y052171D01*
X030180Y050792D02*
X030669D01*
X035893Y051488D02*
Y052093D01*
X035885Y051481D02*
X035893Y051488D01*
Y052093D02*
X035900Y052100D01*
X029877Y046090D02*
X029890Y046077D01*
X029880Y045870D02*
Y046087D01*
X029877Y046090D02*
X029880Y046087D01*
Y045870D02*
X029883Y045867D01*
X027776Y049866D02*
X027840D01*
X028410Y051094D02*
X028666D01*
X027541Y051374D02*
X027884D01*
X027525Y051359D02*
X027541Y051374D01*
X027884D02*
X027900Y051390D01*
X032524Y044611D02*
X032581D01*
X032600Y044630D01*
X032198Y044285D02*
X032524Y044611D01*
X032198Y044655D02*
X032342Y044799D01*
X032190Y044655D02*
X032198D01*
X032342Y044799D02*
Y045379D01*
X030163Y046077D02*
X030178Y046062D01*
X030663D01*
X030666Y046262D02*
X030669Y046265D01*
X029890Y046077D02*
X030163D01*
X030663Y046062D02*
X030669Y046068D01*
X031555Y051481D02*
X031560Y051487D01*
Y051901D01*
X031566Y051907D01*
X031367Y051490D02*
Y052150D01*
X031380Y052163D01*
X031358Y051481D02*
X031367Y051490D01*
X037774Y050804D02*
Y051046D01*
Y050804D02*
X037777Y050800D01*
X037770Y051050D02*
X037774Y051046D01*
X037431Y050809D02*
Y051031D01*
X037423Y050800D02*
X037431Y050809D01*
Y051031D02*
X037440Y051040D01*
X037157Y050589D02*
X037190Y050556D01*
X037216D01*
X036771Y050595D02*
X036778Y050589D01*
X037157D01*
X036771Y050792D02*
X036775Y050796D01*
X037419D01*
X037423Y050800D01*
X037770Y045950D02*
X037772Y045952D01*
Y046238D02*
X037774Y046240D01*
X037772Y045952D02*
Y046238D01*
X037410Y046230D02*
X037420Y046240D01*
X037410Y046000D02*
Y046230D01*
X037400Y045990D02*
X037410Y046000D01*
X036771Y046265D02*
X036780Y046256D01*
X037404D01*
X037420Y046240D01*
X033130Y045379D02*
Y045820D01*
X033129Y045379D02*
X033130Y045379D01*
Y045820D02*
X033130Y045820D01*
X032600Y044630D02*
X032604Y044634D01*
X032826D02*
X032830Y044637D01*
X032604Y044634D02*
X032826D01*
X033073Y044880D02*
X033180D01*
X032830Y044637D02*
X033073Y044880D01*
X033180D02*
X033326Y045026D01*
Y045379D01*
X027840Y049866D02*
X028020D01*
X036375Y040489D02*
X036854D01*
X036274Y040590D02*
X036375Y040489D01*
X026180Y051380D02*
Y052200D01*
X026430Y051256D02*
X026569Y051117D01*
Y051091D02*
Y051117D01*
Y050779D02*
Y051091D01*
X026533Y050743D02*
X026569Y050779D01*
X026533Y050545D02*
Y050743D01*
X026528Y050540D02*
X026533Y050545D01*
X026700Y051754D02*
Y052030D01*
Y051754D02*
X026725Y051729D01*
X025725Y051471D02*
Y051525D01*
X025540Y051710D02*
X025725Y051525D01*
X025053Y051175D02*
Y051680D01*
Y051891D01*
X025125Y051963D01*
X025053Y051175D02*
X025112Y051117D01*
X026768Y051008D02*
Y051316D01*
X026725Y051359D02*
X026768Y051316D01*
X026725Y050966D02*
X026768Y051008D01*
X026725Y050540D02*
Y050966D01*
X026140Y051050D02*
X026150Y051060D01*
X025947Y051147D02*
X026180Y051380D01*
X025947Y050550D02*
Y051147D01*
X026140Y050545D02*
Y051050D01*
X036761Y042642D02*
X036780Y042660D01*
X036508Y042642D02*
X036761D01*
X036490Y042623D02*
X036508Y042642D01*
X036763Y042984D02*
X036770Y042990D01*
X036496Y042984D02*
X036763D01*
X036490Y042977D02*
X036496Y042984D01*
X036477Y042990D02*
X036490Y042977D01*
X036017Y042990D02*
X036477D01*
X036004Y043003D02*
X036017Y042990D01*
X034873Y044057D02*
Y044330D01*
Y044720D01*
X034894Y044741D01*
Y045402D01*
X035987Y044320D02*
X035993Y044314D01*
X047701Y041424D02*
X047871D01*
X047950Y041345D01*
X048360D01*
X048361Y041344D01*
X027837Y045713D02*
X028018Y045532D01*
X028128D01*
X028200Y045460D01*
X027673Y045713D02*
X027837D01*
X027673D02*
Y045750D01*
X027634Y045789D02*
X027673Y045750D01*
X027634Y045789D02*
Y045811D01*
Y044629D02*
X027649Y044615D01*
X028185D01*
X028200Y044600D01*
Y044970D02*
Y045460D01*
X026926Y050886D02*
X026930Y050890D01*
X026926Y050544D02*
Y050886D01*
X026922Y050540D02*
X026926Y050544D01*
X026336Y050826D02*
X026340Y050830D01*
X026336Y050544D02*
Y050826D01*
X026332Y050540D02*
X026336Y050544D01*
X026135Y050540D02*
X026140Y050545D01*
X025938Y050540D02*
X025947Y050550D01*
X049829Y041344D02*
X049981Y041496D01*
X049463Y041344D02*
X049829D01*
X049981Y041496D02*
Y041504D01*
X027525Y051729D02*
Y052015D01*
X027125Y051729D02*
Y052005D01*
X026725Y051359D02*
X027125D01*
X027178Y049890D02*
X027183Y049896D01*
X028040Y049094D02*
Y049494D01*
X028039Y049495D02*
X028040Y049494D01*
X027179Y049495D02*
X028039D01*
X027178Y049497D02*
X027179Y049495D01*
X027178Y049095D02*
X027579Y048694D01*
X028040D01*
X027178Y049095D02*
Y049300D01*
X028040Y048294D02*
Y048694D01*
X028048Y047494D02*
Y047894D01*
X027700Y048242D02*
Y048270D01*
Y048242D02*
X028048Y047894D01*
X027410Y048560D02*
X027700Y048270D01*
X027120Y048560D02*
X027410D01*
X026922Y048758D02*
X027120Y048560D01*
X026922Y048758D02*
Y049044D01*
X024180Y046050D02*
Y046355D01*
Y046725D02*
Y047030D01*
X023564Y052644D02*
X023990D01*
X023560Y052640D02*
X023564Y052644D01*
X024360D02*
X024634D01*
X024360Y053044D02*
X024646D01*
X023684D02*
X023990D01*
X026338Y048562D02*
X026340Y048560D01*
X026338Y048562D02*
Y048802D01*
X026337Y048804D02*
X026338Y048802D01*
X026337Y048804D02*
Y049039D01*
X026332Y049044D02*
X026337Y049039D01*
X026140Y048720D02*
Y049039D01*
X026135Y049044D02*
X026140Y049039D01*
X025325Y051471D02*
X025725D01*
X025125Y052325D02*
Y052595D01*
X025575Y052344D02*
Y052605D01*
X025566Y051972D02*
X025575Y051982D01*
X025135Y051972D02*
X025566D01*
X025125Y051963D02*
X025135Y051972D01*
X025112Y051117D02*
X025325D01*
X025725D01*
X025704Y051095D02*
X025725Y051117D01*
X025704Y050289D02*
Y051095D01*
X025698Y050284D02*
X025704Y050289D01*
X025682Y050284D02*
X025698D01*
X025475Y048271D02*
Y048575D01*
X025875Y048271D02*
X025933Y048329D01*
Y049039D01*
X025938Y049044D01*
X025475Y048271D02*
X025875D01*
X025147Y048627D02*
X025615Y049095D01*
Y049295D01*
X025620Y049300D01*
X025682D01*
X025147Y048343D02*
Y048627D01*
X025083Y048279D02*
X025147Y048343D01*
X025075Y048279D02*
X025083D01*
X023190Y049550D02*
X023193Y049547D01*
X023522D01*
X023525Y049544D01*
X023500Y050019D02*
X023525Y049994D01*
X022800Y050019D02*
X023500D01*
X022775Y050044D02*
X022800Y050019D01*
X032897Y024313D02*
X033018D01*
X033090Y024241D01*
X031720Y025490D02*
X032897Y024313D01*
X029100Y025490D02*
X031720D01*
X028740Y025850D02*
X029100Y025490D01*
X028740Y025850D02*
Y025860D01*
X048228Y042018D02*
X048231Y042014D01*
X047935Y042018D02*
X048228D01*
X047931Y042021D02*
X047935Y042018D01*
X047931Y041667D02*
X048057Y041541D01*
X048361D01*
X049981Y041504D02*
X049984Y041507D01*
Y041912D01*
X049986Y041914D01*
X050676Y041909D02*
X050681Y041904D01*
X050361Y041909D02*
X050676D01*
X050356Y041914D02*
X050361Y041909D01*
X036205Y020445D02*
X036210Y020450D01*
X036205Y020122D02*
Y020445D01*
X036200Y020117D02*
X036205Y020122D01*
X035630Y019880D02*
X035747Y019763D01*
X036200D01*
X035980Y023920D02*
X035985Y023915D01*
Y023610D02*
Y023915D01*
Y023610D02*
X035990Y023605D01*
X035605Y023915D02*
X035610Y023920D01*
X035605Y023610D02*
Y023915D01*
X035600Y023605D02*
X035605Y023610D01*
X035200Y023900D02*
X035205Y023895D01*
Y023602D02*
Y023895D01*
Y023602D02*
X035210Y023597D01*
X033485Y024235D02*
X033490Y024230D01*
X033095Y024235D02*
X033485D01*
X033090Y024241D02*
X033095Y024235D01*
X043232Y038075D02*
X044162D01*
X020573Y041298D02*
X024242D01*
X020566Y041094D02*
X023851D01*
X020566Y041291D02*
X020573Y041298D01*
X019058Y041691D02*
X019339D01*
X018776D02*
X019058D01*
X019050Y041684D02*
X019058Y041691D01*
X019050Y041560D02*
Y041684D01*
Y041560D02*
X019113Y041497D01*
X019336D01*
X019345Y041488D01*
X019339Y041691D02*
X019345Y041685D01*
X018770Y041697D02*
X018776Y041691D01*
X018854Y042580D02*
X018856Y042579D01*
X018190Y040910D02*
X018195Y040905D01*
X018515D01*
X018520Y040900D01*
X018954Y041128D02*
X019109Y041282D01*
X018954Y040964D02*
Y041128D01*
X018890Y040900D02*
X018954Y040964D01*
X019109Y041282D02*
X019336D01*
X019345Y041291D01*
X019660Y040370D02*
Y040780D01*
X040477Y039050D02*
X040516Y039088D01*
X040572D01*
X040477Y038476D02*
Y039050D01*
X042972Y038726D02*
Y039040D01*
X043149Y039217D01*
X043232D01*
X042855Y038608D02*
X042972Y038726D01*
X042579Y038608D02*
X042855D01*
X042442Y038471D02*
X042579Y038608D01*
X042305Y039344D02*
X042323Y039326D01*
X043123D01*
X043232Y039217D01*
X039877Y039566D02*
X039894Y039583D01*
X040555D01*
X040572Y039600D01*
X042454Y040368D02*
X042492Y040406D01*
X042305Y040368D02*
X042454D01*
D16*
X027415Y047211D02*
X027625Y047421D01*
X027090Y047211D02*
X027415D01*
X026789Y047562D02*
X027090Y047260D01*
Y047211D02*
Y047260D01*
X026789Y047562D02*
Y048501D01*
X026725Y048565D02*
X026789Y048501D01*
X026725Y048565D02*
Y049044D01*
X026093Y047566D02*
Y047661D01*
X026460Y048028D01*
Y048077D01*
X025925Y047398D02*
X026093Y047566D01*
X026460Y048077D02*
X026528Y048145D01*
Y049044D01*
D17*
X049511Y041044D02*
X049971D01*
X049890Y040970D02*
X049971D01*
X049480Y040560D02*
X049890Y040970D01*
X049480Y039520D02*
Y040560D01*
Y039520D02*
X049662Y039338D01*
X049818D01*
X023676Y022626D02*
Y023596D01*
X023666Y021646D02*
X023671Y021651D01*
Y022621D01*
X023676Y022626D01*
X022873Y021651D02*
X023661D01*
X023666Y021646D01*
X022868Y021656D02*
X022873Y021651D01*
X026886Y044629D02*
X027260D01*
X027215Y044060D02*
X027252Y044097D01*
Y044622D01*
X027634Y044266D02*
X027830Y044070D01*
Y044060D02*
Y044070D01*
X027634Y044266D02*
Y044629D01*
D24*
X039370Y044173D02*
D03*
Y043032D02*
D03*
X036274Y040590D02*
D03*
Y039448D02*
D03*
D25*
X038740Y043602D02*
D03*
X036904Y040019D02*
D03*
D26*
X049223Y045140D02*
D03*
Y045640D02*
D03*
Y046140D02*
D03*
Y046640D02*
D03*
X047097D02*
D03*
Y046140D02*
D03*
Y045640D02*
D03*
Y045140D02*
D03*
D27*
X045598Y050341D02*
D03*
X046385D02*
D03*
X029564Y038110D02*
D03*
X028776D02*
D03*
X026993Y038100D02*
D03*
X027780D02*
D03*
D28*
X031350Y036803D02*
D03*
Y037157D02*
D03*
X031800Y037147D02*
D03*
Y036793D02*
D03*
X034990Y020357D02*
D03*
Y020003D02*
D03*
X024574Y018714D02*
D03*
Y018360D02*
D03*
X032830Y044283D02*
D03*
Y044637D02*
D03*
X031380Y052517D02*
D03*
Y052163D02*
D03*
X036490Y042977D02*
D03*
Y042623D02*
D03*
X025325Y051117D02*
D03*
Y051471D02*
D03*
X025725Y051117D02*
D03*
Y051471D02*
D03*
X025875Y048271D02*
D03*
Y047917D02*
D03*
X025475Y048271D02*
D03*
Y047917D02*
D03*
X025925Y047398D02*
D03*
Y047044D02*
D03*
X027625Y047421D02*
D03*
Y047067D02*
D03*
X028200Y045460D02*
D03*
Y045814D02*
D03*
X018770Y041343D02*
D03*
Y041697D02*
D03*
X018360Y041343D02*
D03*
Y041697D02*
D03*
X047931Y041667D02*
D03*
Y042021D02*
D03*
X035210Y023243D02*
D03*
Y023597D02*
D03*
X033090Y024241D02*
D03*
Y024595D02*
D03*
X036200Y019763D02*
D03*
Y020117D02*
D03*
D29*
X031794Y036140D02*
D03*
X031046D02*
D03*
X046276Y040406D02*
D03*
X045528D02*
D03*
D30*
X049463Y040951D02*
D03*
Y041147D02*
D03*
Y041344D02*
D03*
Y041541D02*
D03*
X048361Y040951D02*
D03*
Y041147D02*
D03*
Y041344D02*
D03*
Y041541D02*
D03*
D31*
X048912Y041246D02*
D03*
D32*
X031900Y053105D02*
D03*
Y052515D02*
D03*
X025125Y052439D02*
D03*
Y051849D02*
D03*
X050631Y040980D02*
D03*
Y040389D02*
D03*
X049971Y040970D02*
D03*
Y040379D02*
D03*
D33*
X047705Y043744D02*
D03*
X047351D02*
D03*
X047136Y048110D02*
D03*
X047490D02*
D03*
X047113Y047700D02*
D03*
X047467D02*
D03*
X032457Y043870D02*
D03*
X032103D02*
D03*
X037774Y046240D02*
D03*
X037420D02*
D03*
X029523Y046090D02*
D03*
X029877D02*
D03*
X037777Y050800D02*
D03*
X037423D02*
D03*
X035633Y044320D02*
D03*
X035987D02*
D03*
X034143Y042840D02*
D03*
X034497D02*
D03*
X033087Y042822D02*
D03*
X033441D02*
D03*
X034873Y044330D02*
D03*
X035227D02*
D03*
X023525Y049994D02*
D03*
X023880D02*
D03*
X023525Y049544D02*
D03*
X023880D02*
D03*
X028048Y049894D02*
D03*
X028402D02*
D03*
X028048Y047894D02*
D03*
X028402D02*
D03*
X028048Y047494D02*
D03*
X028402D02*
D03*
X018854Y042580D02*
D03*
X018500D02*
D03*
X018857Y042180D02*
D03*
X018503D02*
D03*
X034873Y044720D02*
D03*
X035227D02*
D03*
D34*
X034950Y021850D02*
D03*
D35*
X035048Y022679D02*
D03*
X035245D02*
D03*
X035442D02*
D03*
X035639D02*
D03*
Y021021D02*
D03*
X035442D02*
D03*
X035245D02*
D03*
X035048D02*
D03*
X034655Y022679D02*
D03*
Y021021D02*
D03*
X034261Y022679D02*
D03*
Y021021D02*
D03*
D36*
X048544Y046805D02*
D03*
X048288D02*
D03*
X048032D02*
D03*
X047776D02*
D03*
X048544Y044975D02*
D03*
X048288D02*
D03*
X048032D02*
D03*
X047776D02*
D03*
D37*
X049680Y043430D02*
D03*
X049050D02*
D03*
X049675Y044060D02*
D03*
X049045D02*
D03*
X041227Y040976D02*
D03*
X041857D02*
D03*
X028755Y026630D02*
D03*
X029385D02*
D03*
X028740Y025860D02*
D03*
X029370D02*
D03*
D38*
X048550Y043815D02*
D03*
Y044185D02*
D03*
X048160Y043820D02*
D03*
Y044190D02*
D03*
X046460Y044760D02*
D03*
Y045130D02*
D03*
Y045590D02*
D03*
Y045960D02*
D03*
X049860Y046265D02*
D03*
Y046635D02*
D03*
Y047400D02*
D03*
Y047030D02*
D03*
X023210Y018695D02*
D03*
Y018325D02*
D03*
X022257Y019531D02*
D03*
Y019901D02*
D03*
X024194Y018717D02*
D03*
Y018347D02*
D03*
X023797Y018341D02*
D03*
Y018711D02*
D03*
X041500Y019095D02*
D03*
Y018725D02*
D03*
X042310Y019085D02*
D03*
Y018715D02*
D03*
X040810Y019085D02*
D03*
Y018715D02*
D03*
X040050Y019085D02*
D03*
Y018715D02*
D03*
X032190Y044285D02*
D03*
Y044655D02*
D03*
X024525Y050964D02*
D03*
Y050594D02*
D03*
Y049844D02*
D03*
Y050214D02*
D03*
X024925Y049459D02*
D03*
Y049829D02*
D03*
Y049079D02*
D03*
Y048709D02*
D03*
X025075Y047909D02*
D03*
Y048279D02*
D03*
X024180Y046725D02*
D03*
Y046355D02*
D03*
X027525Y051359D02*
D03*
Y051729D02*
D03*
X027125Y051359D02*
D03*
Y051729D02*
D03*
X026725Y051359D02*
D03*
Y051729D02*
D03*
X028200Y044970D02*
D03*
Y044600D02*
D03*
X035600Y023235D02*
D03*
Y023605D02*
D03*
X035990Y023235D02*
D03*
Y023605D02*
D03*
X033490Y024230D02*
D03*
Y024600D02*
D03*
D39*
X049019Y042920D02*
D03*
X049381D02*
D03*
X047479Y048520D02*
D03*
X047841D02*
D03*
X036351Y043480D02*
D03*
X035989D02*
D03*
X035219Y043490D02*
D03*
X035581D02*
D03*
D40*
X047550Y042960D02*
D03*
X047180D02*
D03*
X047713Y044194D02*
D03*
X047343D02*
D03*
X048975Y048320D02*
D03*
X049345D02*
D03*
X024835Y040140D02*
D03*
X024465D02*
D03*
X024835Y039750D02*
D03*
X024465D02*
D03*
X024835Y039350D02*
D03*
X024465D02*
D03*
X029890Y047330D02*
D03*
X029520D02*
D03*
Y046940D02*
D03*
X029890D02*
D03*
X037694Y040008D02*
D03*
X038064D02*
D03*
X038075Y039560D02*
D03*
X037705D02*
D03*
X039877Y039566D02*
D03*
X039507D02*
D03*
X023990Y053044D02*
D03*
X024360D02*
D03*
X023990Y052644D02*
D03*
X024360D02*
D03*
X028040Y051094D02*
D03*
X028410D02*
D03*
Y050694D02*
D03*
X028040D02*
D03*
Y050294D02*
D03*
X028410D02*
D03*
X028040Y049494D02*
D03*
X028410D02*
D03*
Y049094D02*
D03*
X028040D02*
D03*
X028410Y048694D02*
D03*
X028040D02*
D03*
Y048294D02*
D03*
X028410D02*
D03*
X029520Y047720D02*
D03*
X029890D02*
D03*
X018890Y040900D02*
D03*
X018520D02*
D03*
X049986Y041914D02*
D03*
X050356D02*
D03*
X050351Y041504D02*
D03*
X049981D02*
D03*
D41*
X048725Y047780D02*
D03*
X048095D02*
D03*
X040477Y038476D02*
D03*
X041107D02*
D03*
D42*
X049818Y037542D02*
D03*
Y039338D02*
D03*
D43*
X047200Y038440D02*
D03*
D44*
X033275Y052073D02*
D03*
Y052387D02*
D03*
X033945Y052073D02*
D03*
Y052387D02*
D03*
X020485Y043473D02*
D03*
Y043787D02*
D03*
X019815Y043473D02*
D03*
Y043787D02*
D03*
D45*
X028662Y041264D02*
D03*
Y042170D02*
D03*
Y043076D02*
D03*
D46*
X026418Y042170D02*
D03*
D47*
X024607Y020386D02*
D03*
Y019677D02*
D03*
D48*
X023131Y019963D02*
D03*
D49*
X023190Y020563D02*
D03*
X023387D02*
D03*
X023781D02*
D03*
Y019500D02*
D03*
X023584D02*
D03*
X023387D02*
D03*
X023190D02*
D03*
D50*
X023977Y020484D02*
D03*
Y019579D02*
D03*
D51*
X024292Y020642D02*
D03*
X024607D02*
D03*
X024922D02*
D03*
Y019421D02*
D03*
X024607D02*
D03*
X024292D02*
D03*
D52*
X024778Y023596D02*
D03*
X023676D02*
D03*
X024778Y022626D02*
D03*
X023676D02*
D03*
X024769Y021646D02*
D03*
X023666D02*
D03*
X021766Y021656D02*
D03*
X022868D02*
D03*
X041963Y041746D02*
D03*
X040861D02*
D03*
X029171Y024990D02*
D03*
X028069D02*
D03*
D53*
X041520Y017965D02*
D03*
Y017335D02*
D03*
X042320Y017965D02*
D03*
Y017335D02*
D03*
X040800Y017965D02*
D03*
Y017335D02*
D03*
X040050Y017965D02*
D03*
Y017335D02*
D03*
D54*
X015580Y040727D02*
D03*
Y039136D02*
D03*
D55*
X015810Y040408D02*
D03*
Y040140D02*
D03*
Y039723D02*
D03*
Y039455D02*
D03*
D56*
X030669Y046068D02*
D03*
Y046265D02*
D03*
Y046462D02*
D03*
Y046658D02*
D03*
Y046855D02*
D03*
Y047052D02*
D03*
Y047249D02*
D03*
Y047446D02*
D03*
Y047643D02*
D03*
Y047839D02*
D03*
Y048036D02*
D03*
Y048233D02*
D03*
Y048430D02*
D03*
Y048627D02*
D03*
Y048824D02*
D03*
Y049021D02*
D03*
Y049217D02*
D03*
Y049414D02*
D03*
Y049611D02*
D03*
Y049808D02*
D03*
Y050005D02*
D03*
Y050202D02*
D03*
Y050399D02*
D03*
Y050595D02*
D03*
Y050792D02*
D03*
X036771D02*
D03*
Y050595D02*
D03*
Y050399D02*
D03*
Y050202D02*
D03*
Y050005D02*
D03*
Y049808D02*
D03*
Y049611D02*
D03*
Y049414D02*
D03*
Y049217D02*
D03*
Y049021D02*
D03*
Y048824D02*
D03*
Y048627D02*
D03*
Y048430D02*
D03*
Y048233D02*
D03*
Y048036D02*
D03*
Y047839D02*
D03*
Y047643D02*
D03*
Y047446D02*
D03*
Y047249D02*
D03*
Y047052D02*
D03*
Y046855D02*
D03*
Y046658D02*
D03*
Y046462D02*
D03*
Y046265D02*
D03*
Y046068D02*
D03*
D57*
X031358Y051481D02*
D03*
X031555D02*
D03*
X031751D02*
D03*
X031948D02*
D03*
X032145D02*
D03*
X032342D02*
D03*
X032539D02*
D03*
X032736D02*
D03*
X032933D02*
D03*
X033129D02*
D03*
X033326D02*
D03*
X033523D02*
D03*
X033720D02*
D03*
X033917D02*
D03*
X034114D02*
D03*
X034311D02*
D03*
X034507D02*
D03*
X034704D02*
D03*
X034901D02*
D03*
X035098D02*
D03*
X035295D02*
D03*
X035492D02*
D03*
X035689D02*
D03*
X035885D02*
D03*
X036082D02*
D03*
Y045379D02*
D03*
X035885D02*
D03*
X035689D02*
D03*
X035492D02*
D03*
X035295D02*
D03*
X035098D02*
D03*
X034901D02*
D03*
X034704D02*
D03*
X034507D02*
D03*
X034311D02*
D03*
X034114D02*
D03*
X033917D02*
D03*
X033720D02*
D03*
X033523D02*
D03*
X033326D02*
D03*
X033129D02*
D03*
X032933D02*
D03*
X032736D02*
D03*
X032539D02*
D03*
X032342D02*
D03*
X032145D02*
D03*
X031948D02*
D03*
X031751D02*
D03*
X031555D02*
D03*
X031358D02*
D03*
D58*
X035630Y042137D02*
D03*
X035256Y043003D02*
D03*
X036004D02*
D03*
D59*
X044162Y038075D02*
D03*
Y039217D02*
D03*
X043232D02*
D03*
Y038075D02*
D03*
X033510Y022029D02*
D03*
Y023211D02*
D03*
D60*
X042442Y037881D02*
D03*
Y038471D02*
D03*
X031530Y016945D02*
D03*
Y017535D02*
D03*
D61*
X040572Y040368D02*
D03*
Y040112D02*
D03*
Y039856D02*
D03*
Y039600D02*
D03*
Y039344D02*
D03*
Y039088D02*
D03*
X042305D02*
D03*
Y039344D02*
D03*
Y039600D02*
D03*
Y039856D02*
D03*
Y040112D02*
D03*
Y040368D02*
D03*
D62*
X041438Y039728D02*
D03*
D63*
X043182Y041307D02*
D03*
Y040205D02*
D03*
X033500Y017208D02*
D03*
Y018310D02*
D03*
D64*
X045532Y041101D02*
D03*
Y041731D02*
D03*
X046272Y041101D02*
D03*
Y041731D02*
D03*
X047821Y040999D02*
D03*
Y040369D02*
D03*
X032340Y017545D02*
D03*
Y016915D02*
D03*
D65*
X033434Y044422D02*
D03*
Y043555D02*
D03*
X034064D02*
D03*
Y044422D02*
D03*
X026460Y048077D02*
D03*
Y047211D02*
D03*
X027090D02*
D03*
Y048077D02*
D03*
D66*
X032105Y043320D02*
D03*
X032695D02*
D03*
X027830Y044060D02*
D03*
X028421D02*
D03*
X027215D02*
D03*
X026625D02*
D03*
D67*
X025575Y051982D02*
D03*
Y052344D02*
D03*
X024675Y047913D02*
D03*
Y048275D02*
D03*
D68*
X025682Y049497D02*
D03*
Y049694D02*
D03*
X027178Y049300D02*
D03*
Y049497D02*
D03*
Y049694D02*
D03*
Y049890D02*
D03*
Y050087D02*
D03*
Y050284D02*
D03*
X025682D02*
D03*
Y049300D02*
D03*
Y049890D02*
D03*
Y050087D02*
D03*
D69*
X025938Y049044D02*
D03*
X026135D02*
D03*
X026332D02*
D03*
X026528D02*
D03*
X026725D02*
D03*
X026922D02*
D03*
Y050540D02*
D03*
X026725D02*
D03*
X026528D02*
D03*
X026332D02*
D03*
X026135D02*
D03*
X025938D02*
D03*
D70*
X026430Y049792D02*
D03*
D71*
X027634Y045811D02*
D03*
X027260D02*
D03*
X026886D02*
D03*
Y044629D02*
D03*
X027260D02*
D03*
X027634D02*
D03*
D72*
X027260Y045220D02*
D03*
D73*
X020251Y042000D02*
D03*
X020054D02*
D03*
X019857D02*
D03*
X019660D02*
D03*
Y040780D02*
D03*
X019857D02*
D03*
X020054D02*
D03*
X020251D02*
D03*
D74*
X019345Y041685D02*
D03*
Y041488D02*
D03*
Y041291D02*
D03*
Y041094D02*
D03*
X020566D02*
D03*
Y041291D02*
D03*
Y041488D02*
D03*
Y041685D02*
D03*
D75*
X020447Y041882D02*
D03*
Y040898D02*
D03*
X019463Y041882D02*
D03*
Y040898D02*
D03*
D76*
X018294Y043900D02*
D03*
X019200D02*
D03*
X018294Y043152D02*
D03*
D77*
X019200Y043231D02*
D03*
D78*
X016920Y044150D02*
D03*
Y041630D02*
D03*
D79*
X015955Y042417D02*
D03*
Y043362D02*
D03*
D80*
X017009Y042378D02*
D03*
Y042634D02*
D03*
Y043402D02*
D03*
Y043146D02*
D03*
Y042890D02*
D03*
D81*
X021770Y022516D02*
D03*
Y023264D02*
D03*
X027995Y026618D02*
D03*
Y025870D02*
D03*
D82*
X028133Y022598D02*
D03*
Y021220D02*
D03*
X032050D02*
D03*
Y022598D02*
D03*
D83*
X033470Y021410D02*
D03*
Y020150D02*
D03*
D84*
X034955Y018270D02*
D03*
X036885D02*
D03*
D85*
X035630Y019880D02*
D03*
Y020510D02*
D03*
D86*
X032294Y018300D02*
D03*
X031586D02*
D03*
D131*
X019955Y041390D02*
D03*
D164*
X046797Y050341D02*
X047467Y051010D01*
X052130D01*
X052790Y050350D01*
X046385Y050341D02*
X046797D01*
X028820Y037240D02*
X031267D01*
X028730Y037150D02*
X028820Y037240D01*
X027460Y036140D02*
X031046D01*
X026730Y036870D02*
X027460Y036140D01*
X026730Y036870D02*
Y037150D01*
X028730D02*
Y038064D01*
X028776Y038110D01*
X027780Y037620D02*
Y038100D01*
X027730Y037570D02*
X027780Y037620D01*
X027730Y037150D02*
Y037570D01*
X052790Y049670D02*
Y050350D01*
X045532Y038092D02*
Y040410D01*
X043890Y036450D02*
X045532Y038092D01*
X043890Y035960D02*
Y036450D01*
X042390Y035230D02*
X044530D01*
X044890Y035590D02*
Y035960D01*
X044530Y035230D02*
X044890Y035590D01*
X041650Y035970D02*
Y039282D01*
X045528Y040406D02*
X045532Y040410D01*
X043136Y040158D02*
X043182Y040205D01*
X041480Y039452D02*
X041650Y039282D01*
Y035970D02*
X042390Y035230D01*
X044825Y039266D02*
X044852D01*
X044189Y039243D02*
X044802D01*
X044825Y039266D01*
X044846Y040406D02*
X045528D01*
X044630Y040190D02*
X044846Y040406D01*
X043197Y040190D02*
X044630D01*
X028030Y026625D02*
Y027200D01*
X028023Y026618D02*
X028030Y026625D01*
X027995Y026618D02*
X028023D01*
X044162Y039217D02*
X044189Y039243D01*
X043177Y041312D02*
X043182Y041307D01*
X045532Y040410D02*
Y041101D01*
X043182Y040205D02*
X043197Y040190D01*
D165*
X045581Y050430D02*
Y050771D01*
X045261Y050501D02*
X045602D01*
X017017Y043410D02*
X017390D01*
X024918Y049837D02*
X024925Y049829D01*
X024519Y049850D02*
X024525Y049844D01*
X024533Y049837D02*
X024918D01*
X024525Y049844D02*
X024533Y049837D01*
X041186Y040112D02*
X041222Y040076D01*
X040572Y040112D02*
X041186D01*
X031794Y036140D02*
X031800Y036146D01*
Y036793D01*
X031790Y036803D02*
X031800Y036793D01*
X031350Y036803D02*
X031790D01*
X045271Y050211D02*
X045612D01*
X045591Y049971D02*
Y050311D01*
X041020Y038000D02*
X041107Y038087D01*
Y038476D01*
X042072Y037876D02*
X042438D01*
X041212Y039856D02*
X041222Y039846D01*
X040572Y039856D02*
X041212D01*
X040572Y040368D02*
X041342D01*
X046272Y041731D02*
Y042046D01*
X045532Y041731D02*
Y042036D01*
X047841Y048520D02*
X048140D01*
X047467Y047700D02*
X047479Y047711D01*
Y048099D01*
X047490Y048110D01*
Y048511D01*
X047467Y047523D02*
X047765Y047225D01*
Y046817D02*
Y047225D01*
X046870Y047700D02*
X047113D01*
X046860Y048110D02*
X047136D01*
X047467Y047523D02*
Y047700D01*
X047765Y046817D02*
X047776Y046805D01*
X048544Y044781D02*
Y045975D01*
X048555Y044770D02*
X048589D01*
X048544Y044781D02*
X048555Y044770D01*
X048542Y045977D02*
X048544Y045975D01*
X049045Y043457D02*
Y044060D01*
X049675D02*
X049685Y044070D01*
X048958Y044147D02*
Y044401D01*
X049685Y044070D02*
X050030D01*
X049720Y043470D02*
X050020D01*
X048589Y044770D02*
X048958Y044401D01*
X049036Y046640D02*
X049223D01*
X048542Y045977D02*
Y046183D01*
X048687Y046328D02*
X048724D01*
X048542Y046183D02*
X048687Y046328D01*
X048724D02*
X049036Y046640D01*
X047776Y045615D02*
Y046805D01*
X049019Y043430D02*
X049045Y043457D01*
X049019Y042920D02*
Y043430D01*
X049381Y042920D02*
X049700D01*
X049680Y043430D02*
X049720Y043470D01*
X047097Y045140D02*
X047115Y045158D01*
X047302D01*
X047585Y045441D02*
X047602D01*
X047776Y045615D01*
X047302Y045158D02*
X047585Y045441D01*
X035993Y044314D02*
X036300D01*
X028421Y043721D02*
Y044060D01*
X028424Y049072D02*
X028640D01*
X028410Y047240D02*
Y047486D01*
X028402Y047494D02*
X028410Y047486D01*
X033441Y042822D02*
X033463Y042800D01*
X033438Y042825D02*
X033441Y042822D01*
X033463Y042800D02*
X033740D01*
X032104Y043321D02*
Y043869D01*
X032103Y043870D02*
X032104Y043869D01*
Y043321D02*
X032105Y043320D01*
X032193Y044280D02*
X032198Y044285D01*
X032177Y044280D02*
X032193D01*
X032177D02*
X032182Y044285D01*
X032168Y044271D02*
X032177Y044280D01*
X032125Y044220D02*
X032168Y044263D01*
X032125Y043892D02*
Y044220D01*
X032182Y044285D02*
X032190D01*
X032168Y044263D02*
Y044271D01*
X032103Y043870D02*
X032125Y043892D01*
X032097Y043020D02*
Y043313D01*
X032695Y042995D02*
Y043320D01*
X028409Y049900D02*
X028680D01*
X028402Y049894D02*
X028409Y049900D01*
X028410Y049086D02*
Y049094D01*
Y049086D02*
X028424Y049072D01*
X028410Y050694D02*
X028413Y050697D01*
X028710D01*
X032827Y044280D02*
X032830Y044283D01*
X032590Y044280D02*
X032827D01*
X028402Y047494D02*
Y047894D01*
X032097Y043313D02*
X032105Y043320D01*
X043002Y041391D02*
Y041746D01*
X043382Y041401D02*
Y041756D01*
X041828Y040966D02*
X042182D01*
X029324Y026620D02*
X029710D01*
X029354Y025870D02*
X029740D01*
X034497Y042840D02*
X034777D01*
X042078Y041576D02*
X042432D01*
X042068Y041956D02*
X042422D01*
X037230Y017760D02*
Y018115D01*
X036950Y017750D02*
Y018105D01*
X036690Y017760D02*
Y018115D01*
X036440Y017750D02*
Y018105D01*
X033280Y016740D02*
Y017095D01*
X033610Y016760D02*
Y017115D01*
X032005Y016915D02*
X032340D01*
X031175Y016945D02*
X031530D01*
X027260Y045811D02*
Y046150D01*
X028200Y045814D02*
Y046100D01*
X026250Y044060D02*
X026625D01*
X023880Y049544D02*
Y049770D01*
X023880Y049544D02*
X023880Y049544D01*
Y049770D02*
Y049994D01*
X023880Y049994D02*
X023880Y049994D01*
X029264Y025150D02*
X029650D01*
X029274Y024780D02*
X029660D01*
X024697Y048293D02*
Y048489D01*
X024679Y048275D02*
X024697Y048293D01*
X024675Y048275D02*
X024679D01*
X024520Y050969D02*
Y051230D01*
Y050969D02*
X024525Y050964D01*
X024260Y049850D02*
X024519D01*
X024917Y048709D02*
X024925D01*
X024697Y048489D02*
X024917Y048709D01*
X024680Y047660D02*
Y047908D01*
X024675Y047913D02*
X024680Y047908D01*
X025070Y047670D02*
Y047904D01*
X025075Y047909D01*
X025470Y047660D02*
Y047912D01*
X025475Y047917D01*
X025880Y047680D02*
Y047912D01*
X025875Y047917D02*
X025880Y047912D01*
X027632Y047060D02*
X027960D01*
X027625Y047067D02*
X027632Y047060D01*
X025670Y047040D02*
X025921D01*
X025925Y047044D01*
X025947Y047066D01*
X026334D01*
X026460Y047192D01*
Y047211D01*
X027123Y048110D02*
X027440D01*
X027090Y048077D02*
X027123Y048110D01*
X028424Y048710D02*
X028680D01*
X028410Y048696D02*
X028424Y048710D01*
X028410Y048694D02*
Y048696D01*
X028416Y050300D02*
X028690D01*
X028410Y050294D02*
X028416Y050300D01*
X033438Y042825D02*
Y043552D01*
X033434Y043555D02*
X033438Y043552D01*
X036352Y043479D02*
X036656D01*
X036351Y043480D02*
X036352Y043479D01*
X034990Y019540D02*
Y020003D01*
X033480Y020160D02*
Y020470D01*
X033470Y020150D02*
X033480Y020160D01*
X047856Y040404D02*
X048201D01*
X047821Y040369D02*
X047856Y040404D01*
X050641Y040044D02*
Y040379D01*
X050631Y040389D02*
X050641Y040379D01*
X049981Y040044D02*
Y040369D01*
X049971Y040379D02*
X049981Y040369D01*
X018010Y041720D02*
X018011Y041719D01*
X018338D01*
X018360Y041697D01*
X018060Y041330D02*
X018347D01*
X018240Y042910D02*
Y043134D01*
X018258Y043152D01*
X018294D01*
X016930Y044160D02*
X017410D01*
X016920Y044150D02*
X016930Y044160D01*
X016881Y041591D02*
X016920Y041630D01*
X015955Y041591D02*
X016881D01*
Y044189D02*
X016920Y044150D01*
X015955Y044189D02*
X016881D01*
X015955Y041591D02*
Y042417D01*
Y043362D02*
Y044189D01*
X016940Y041650D02*
X017400D01*
X016920Y041630D02*
X016940Y041650D01*
X017011Y042380D02*
X017430D01*
X017009Y042378D02*
X017011Y042380D01*
X018220Y042570D02*
X018490D01*
X018500Y042580D01*
X018501Y042181D02*
X018503Y042180D01*
X018501Y042181D02*
Y042579D01*
X018500Y042580D02*
X018501Y042579D01*
X018347Y041330D02*
X018360Y041343D01*
X018770D01*
X018360Y041697D02*
X018770D01*
X019230Y042930D02*
Y043201D01*
X019200Y043231D02*
X019230Y043201D01*
X018854Y042580D02*
X019150D01*
X018856Y042181D02*
Y042579D01*
X042438Y037876D02*
X042442Y037881D01*
X043076Y039600D02*
X043122Y039646D01*
X042305Y039600D02*
X043076D01*
D166*
X032970Y023280D02*
X033510D01*
X034122D01*
X034440Y022860D02*
Y022962D01*
X034122Y023280D02*
X034440Y022962D01*
X033470Y021410D02*
Y021989D01*
X032371Y018285D02*
X034310D01*
X032340Y018254D02*
X032371Y018285D01*
X034445Y020501D02*
Y020734D01*
X034310Y019450D02*
Y020366D01*
Y018302D02*
Y019450D01*
Y020366D02*
X034445Y020501D01*
X026865Y020075D02*
X028600Y018340D01*
X026387Y020553D02*
X026865Y020075D01*
X025608Y021643D02*
X026078D01*
X026387Y021334D01*
Y020553D02*
Y021334D01*
X021640Y024642D02*
Y024650D01*
Y024642D02*
X021770Y024512D01*
Y023264D02*
Y024512D01*
X020640Y024570D02*
X021640D01*
X020640Y023355D02*
X020741Y023254D01*
Y022201D02*
X020762Y022180D01*
X020741Y022201D02*
Y023254D01*
X020640Y023355D02*
Y024570D01*
X030583Y018340D02*
X031546D01*
X028600D02*
X030583D01*
X032050Y021220D02*
X032240Y021410D01*
X033470D01*
X031546Y018340D02*
X031586Y018300D01*
X031531Y017957D02*
Y018246D01*
X031530Y017955D02*
X031531Y017957D01*
Y018246D02*
X031586Y018300D01*
X031530Y017535D02*
Y017955D01*
X028730Y025870D02*
X028740Y025860D01*
X027995Y025870D02*
X028730D01*
X027995D02*
X028054Y025811D01*
Y025005D02*
Y025811D01*
Y025005D02*
X028069Y024990D01*
X028083Y024975D01*
Y022647D02*
Y024975D01*
Y022647D02*
X028133Y022598D01*
X032940Y023222D02*
Y023250D01*
X032316Y022598D02*
X032940Y023222D01*
X032050Y022598D02*
X032316D01*
X032940Y023250D02*
X032970Y023280D01*
X032050Y022598D02*
X032242Y022790D01*
X030910Y019450D02*
X034310D01*
X029140Y021220D02*
X030910Y019450D01*
X028133Y021220D02*
X029140D01*
X032340Y017545D02*
Y018254D01*
D167*
X026418Y042387D02*
X027160Y043129D01*
Y043420D01*
X050228Y040980D02*
X050631D01*
X051787D01*
X051790Y040977D01*
X051807Y040960D01*
X024506Y020479D02*
X024778Y020751D01*
Y022626D02*
Y023596D01*
Y020751D02*
Y022626D01*
X026418Y042170D02*
Y042387D01*
Y042170D02*
X028662D01*
X027860Y043290D02*
X028002Y043148D01*
X028589D01*
X021768Y021630D02*
Y022514D01*
X021770Y022516D01*
X021766Y021628D02*
X021768Y021630D01*
X022190Y019990D02*
X022950D01*
X021766Y020414D02*
X022190Y019990D01*
X021766Y020414D02*
Y021628D01*
D168*
X041200Y039344D02*
X041222Y039366D01*
X040572Y039344D02*
X041200D01*
X040173Y039346D02*
X040571D01*
X040572Y039344D01*
X041732Y039196D02*
X041839Y039090D01*
X042303D01*
X042305Y039088D01*
D169*
X034380Y043921D02*
Y044896D01*
X034064Y043605D02*
X034380Y043921D01*
X034064Y043555D02*
Y043605D01*
X033810Y044980D02*
X034296D01*
X033720Y045070D02*
Y045379D01*
X034296Y044980D02*
X034380Y044896D01*
X033720Y045070D02*
X033810Y044980D01*
X033523Y044511D02*
Y045379D01*
X033434Y044422D02*
X033523Y044511D01*
X033087Y042822D02*
Y044025D01*
X033434Y044372D01*
Y044422D01*
X034143Y042840D02*
Y043327D01*
D170*
X050290Y041214D02*
Y041443D01*
X050142Y041066D02*
X050290Y041214D01*
Y041443D02*
X050351Y041504D01*
D171*
X035237Y043022D02*
X035256Y043003D01*
X035237Y043022D02*
Y043472D01*
X035219Y043490D02*
X035237Y043472D01*
X035984Y043485D02*
X035989Y043480D01*
X035586Y043485D02*
X035984D01*
X035581Y043490D02*
X035586Y043485D01*
X035581Y043490D02*
X035607Y043516D01*
Y043904D01*
X035633Y043930D01*
Y044320D01*
X035629Y044324D02*
X035633Y044320D01*
X035629Y044324D02*
Y044717D01*
X035626Y044720D02*
X035629Y044717D01*
X035219Y043490D02*
X035223Y043494D01*
Y044326D01*
X035227Y044330D01*
Y044720D01*
X035165Y044782D02*
X035227Y044720D01*
X035165Y044782D02*
Y044955D01*
X035100Y045019D02*
X035165Y044955D01*
X035100Y045019D02*
Y045410D01*
X035297Y045063D02*
X035459Y044901D01*
Y044887D02*
Y044901D01*
Y044887D02*
X035626Y044720D01*
X035297Y045063D02*
Y045410D01*
D172*
X018856Y042181D02*
X018857Y042180D01*
X019155Y041882D01*
X019463D01*
D173*
X032325Y036170D02*
D03*
D174*
X046737Y040293D02*
D03*
D175*
X047817Y041004D02*
D03*
D176*
X027835Y043550D02*
D03*
X027185Y043600D02*
D03*
D177*
X042717Y040151D02*
D03*
D178*
X019275Y052044D02*
D03*
Y047544D02*
D03*
D179*
X020476Y052894D02*
D03*
Y046694D02*
D03*
D180*
X021775Y051544D02*
D03*
X022775Y048044D02*
D03*
Y051044D02*
D03*
X021775Y048544D02*
D03*
Y050544D02*
D03*
X022775Y049044D02*
D03*
Y050044D02*
D03*
X021775Y049544D02*
D03*
D181*
X017346Y052284D02*
D03*
X017944Y047304D02*
D03*
Y051320D02*
D03*
X017346Y048268D02*
D03*
D182*
X037764Y053440D02*
D03*
X038764D02*
D03*
X042764D02*
D03*
X045764D02*
D03*
X047764D02*
D03*
X049764D02*
D03*
X048764D02*
D03*
X046764D02*
D03*
X044764D02*
D03*
X043764D02*
D03*
X041764D02*
D03*
X040764D02*
D03*
X039764D02*
D03*
X018590Y037940D02*
D03*
X021640Y024650D02*
D03*
X018270D02*
D03*
X048713Y018504D02*
D03*
D183*
X050764Y053440D02*
D03*
X017590Y037940D02*
D03*
X020640Y024650D02*
D03*
X017270D02*
D03*
X049713Y018504D02*
D03*
D184*
X045938Y018676D02*
D03*
X044938D02*
D03*
X043938D02*
D03*
D185*
X040040Y022810D02*
D03*
Y032653D02*
D03*
X049883D02*
D03*
Y022810D02*
D03*
D186*
X023730Y037150D02*
D03*
D187*
X024730D02*
D03*
X026730D02*
D03*
X027730D02*
D03*
X028730D02*
D03*
D188*
X045890Y035960D02*
D03*
D189*
X044890D02*
D03*
X043890D02*
D03*
X029560Y053400D02*
D03*
X026560D02*
D03*
X027560D02*
D03*
X028560D02*
D03*
X030560D02*
D03*
D190*
X016929Y017323D02*
D03*
X053150D02*
D03*
Y052362D02*
D03*
X022047Y044094D02*
D03*
D191*
X033000Y053400D02*
D03*
X034000D02*
D03*
X035000D02*
D03*
X053543Y031709D02*
D03*
Y032709D02*
D03*
Y033709D02*
D03*
Y023835D02*
D03*
Y024835D02*
D03*
Y025835D02*
D03*
X052790Y045914D02*
D03*
X051790Y044914D02*
D03*
X052790D02*
D03*
Y041977D02*
D03*
X051790Y040977D02*
D03*
X052790D02*
D03*
Y047670D02*
D03*
Y048670D02*
D03*
X051790Y047670D02*
D03*
Y048670D02*
D03*
X052790Y049670D02*
D03*
D192*
X036000Y053400D02*
D03*
D193*
X053543Y030709D02*
D03*
Y022835D02*
D03*
X051790Y045914D02*
D03*
Y041977D02*
D03*
Y049670D02*
D03*
D194*
X020762Y022180D02*
D03*
D195*
X019620Y020290D02*
D03*
D196*
X018380Y022180D02*
D03*
D197*
X015955Y044189D02*
D03*
Y041591D02*
D03*
D198*
X039005Y042566D02*
D03*
X031181Y052913D02*
D03*
X031520Y053150D02*
D03*
X031120Y052540D02*
D03*
X039134Y016614D02*
D03*
X040709Y048189D02*
D03*
X039488Y046496D02*
D03*
X052795Y023504D02*
D03*
X052835Y024173D02*
D03*
X051481Y024339D02*
D03*
X051929Y024843D02*
D03*
X050591Y025236D02*
D03*
X051023Y025713D02*
D03*
X049488Y025551D02*
D03*
Y026220D02*
D03*
X048150Y025591D02*
D03*
Y026220D02*
D03*
X046890Y025551D02*
D03*
Y026220D02*
D03*
X044724Y025591D02*
D03*
Y026220D02*
D03*
X043425Y025551D02*
D03*
Y026220D02*
D03*
X042283Y025551D02*
D03*
Y026220D02*
D03*
X041063Y025551D02*
D03*
Y026220D02*
D03*
X039882Y026299D02*
D03*
X040315Y026811D02*
D03*
X039094Y027047D02*
D03*
X039576Y027503D02*
D03*
X038228Y027913D02*
D03*
X038701Y028386D02*
D03*
X037362Y028701D02*
D03*
X037762Y029286D02*
D03*
X036417Y029961D02*
D03*
X037205D02*
D03*
X036457Y031102D02*
D03*
X036496Y032559D02*
D03*
Y033661D02*
D03*
Y034764D02*
D03*
Y035787D02*
D03*
X037126Y036890D02*
D03*
X037677Y037480D02*
D03*
X037756Y037913D02*
D03*
X037734Y039093D02*
D03*
X037772Y040410D02*
D03*
X037741Y041364D02*
D03*
X037756Y042273D02*
D03*
X037700Y043054D02*
D03*
X037296Y043480D02*
D03*
X036727Y044098D02*
D03*
X035945Y044843D02*
D03*
X038465Y030118D02*
D03*
X039843Y029291D02*
D03*
X041220D02*
D03*
X042362D02*
D03*
X043622D02*
D03*
X044724D02*
D03*
X046890D02*
D03*
X047874D02*
D03*
X049331D02*
D03*
X050906Y029528D02*
D03*
X052535Y031217D02*
D03*
X051963Y030575D02*
D03*
X052977Y031422D02*
D03*
X052953Y032047D02*
D03*
X052271Y031786D02*
D03*
X051443Y030957D02*
D03*
X050437Y029970D02*
D03*
X049331Y029921D02*
D03*
X047874D02*
D03*
X046890D02*
D03*
X044706Y029915D02*
D03*
X043626Y029912D02*
D03*
X042361Y029919D02*
D03*
X041220Y029921D02*
D03*
X039848Y029941D02*
D03*
X038985Y030595D02*
D03*
X038007Y031548D02*
D03*
X037847Y032523D02*
D03*
X037874Y033661D02*
D03*
X037913Y034764D02*
D03*
X038518Y035832D02*
D03*
X039016Y037087D02*
D03*
X039019Y037883D02*
D03*
X039016Y039055D02*
D03*
X038999Y040413D02*
D03*
X039023Y041353D02*
D03*
X038998Y042215D02*
D03*
X038694Y044273D02*
D03*
X037204Y031074D02*
D03*
X037177Y032554D02*
D03*
X037196Y033643D02*
D03*
X037182Y034767D02*
D03*
X037233Y035737D02*
D03*
X037734Y036374D02*
D03*
X038276Y037047D02*
D03*
X038393Y037878D02*
D03*
X038389Y039052D02*
D03*
X038379Y040399D02*
D03*
X038393Y041339D02*
D03*
X038379Y042214D02*
D03*
X038373Y042968D02*
D03*
X038231Y043504D02*
D03*
X037755Y043980D02*
D03*
X037246Y044496D02*
D03*
X036808Y044941D02*
D03*
X036381Y045342D02*
D03*
X045581Y050771D02*
D03*
X036299Y052008D02*
D03*
X033543Y050591D02*
D03*
X033071D02*
D03*
X035354Y022023D02*
D03*
Y021693D02*
D03*
X035056Y022028D02*
D03*
Y021698D02*
D03*
X034764Y022023D02*
D03*
Y021693D02*
D03*
X034488Y022023D02*
D03*
Y021693D02*
D03*
X020050Y042310D02*
D03*
X017390Y043410D02*
D03*
X032020Y052090D02*
D03*
X048530Y042440D02*
D03*
X048710Y040862D02*
D03*
Y041654D02*
D03*
Y041126D02*
D03*
Y041390D02*
D03*
X049110Y040862D02*
D03*
Y041126D02*
D03*
Y041654D02*
D03*
Y041390D02*
D03*
X027983Y043205D02*
D03*
X027713D02*
D03*
X027983Y043455D02*
D03*
X027713D02*
D03*
Y043705D02*
D03*
X027983D02*
D03*
X027330Y043200D02*
D03*
X027060D02*
D03*
X027330Y043450D02*
D03*
X027060D02*
D03*
Y043700D02*
D03*
X027330D02*
D03*
X041222Y040076D02*
D03*
Y039366D02*
D03*
X032730Y036320D02*
D03*
Y036000D02*
D03*
X032460Y036320D02*
D03*
Y036000D02*
D03*
X032200Y036310D02*
D03*
Y035990D02*
D03*
X045271Y050211D02*
D03*
X045261Y050501D02*
D03*
X045591Y049971D02*
D03*
X044102Y037556D02*
D03*
X042072Y037876D02*
D03*
X041020Y038000D02*
D03*
X042500Y040800D02*
D03*
X046592Y040616D02*
D03*
X047042Y040606D02*
D03*
X047272Y040846D02*
D03*
X046592Y041076D02*
D03*
X045532Y042036D02*
D03*
X046822Y041076D02*
D03*
X046592Y040386D02*
D03*
X046272Y042046D02*
D03*
X046822Y040386D02*
D03*
X047042Y041076D02*
D03*
X046822Y040846D02*
D03*
X047042Y040376D02*
D03*
X047272Y040606D02*
D03*
Y041076D02*
D03*
X046592Y040846D02*
D03*
X047272Y040376D02*
D03*
X046822Y040616D02*
D03*
X047042Y040846D02*
D03*
X046420Y042700D02*
D03*
X046860Y048110D02*
D03*
X046870Y047700D02*
D03*
X048140Y048520D02*
D03*
X048455Y048578D02*
D03*
X047528Y046140D02*
D03*
X048288Y046158D02*
D03*
X048780Y046910D02*
D03*
X047520Y045710D02*
D03*
Y046660D02*
D03*
X048050Y045710D02*
D03*
X048295Y045430D02*
D03*
X048820Y045420D02*
D03*
X049860Y047630D02*
D03*
X049655Y048018D02*
D03*
X049860Y045990D02*
D03*
X048830Y045950D02*
D03*
X050030Y044070D02*
D03*
X047970Y043040D02*
D03*
X047330Y043360D02*
D03*
X050020Y043470D02*
D03*
X048160Y043560D02*
D03*
X048560Y043570D02*
D03*
X049700Y042920D02*
D03*
X048032Y044521D02*
D03*
X047660Y044520D02*
D03*
X049160Y044790D02*
D03*
X034070Y044770D02*
D03*
X029250Y046930D02*
D03*
X029270Y047320D02*
D03*
Y046550D02*
D03*
X029280Y047720D02*
D03*
X037419Y039558D02*
D03*
X028150Y020312D02*
D03*
X029320Y019840D02*
D03*
X030533Y018984D02*
D03*
X032120Y018900D02*
D03*
X033750Y018870D02*
D03*
X016280Y040130D02*
D03*
X029240Y049950D02*
D03*
X029080Y052070D02*
D03*
X034940Y052370D02*
D03*
X035000Y052770D02*
D03*
X036280Y050700D02*
D03*
X033280Y048070D02*
D03*
X034635Y046589D02*
D03*
X035986Y046741D02*
D03*
X025570Y021550D02*
D03*
X025320D02*
D03*
X025570Y021890D02*
D03*
X025320D02*
D03*
X025570Y022200D02*
D03*
X025320D02*
D03*
X025570Y022500D02*
D03*
X025320D02*
D03*
X025560Y022820D02*
D03*
X025310D02*
D03*
X025560Y023130D02*
D03*
X025310D02*
D03*
X025550Y023460D02*
D03*
X025300D02*
D03*
X025560Y023790D02*
D03*
X025310D02*
D03*
X042320Y016980D02*
D03*
X041520Y016990D02*
D03*
X042300Y019360D02*
D03*
X022339Y020990D02*
D03*
X022310Y021400D02*
D03*
X022317Y021834D02*
D03*
X022320Y022240D02*
D03*
X022870Y022250D02*
D03*
X023200Y022600D02*
D03*
Y023000D02*
D03*
Y023400D02*
D03*
Y023800D02*
D03*
X023860Y021000D02*
D03*
X024200D02*
D03*
Y021400D02*
D03*
Y021800D02*
D03*
Y022200D02*
D03*
Y022600D02*
D03*
Y023000D02*
D03*
Y023400D02*
D03*
Y023800D02*
D03*
X023960Y019060D02*
D03*
X024253Y019090D02*
D03*
X022873Y020692D02*
D03*
X022640Y020980D02*
D03*
X022930Y020960D02*
D03*
X023248Y020953D02*
D03*
X023580Y020970D02*
D03*
X023797Y018093D02*
D03*
X022263Y019053D02*
D03*
X023465Y018325D02*
D03*
X023389Y019053D02*
D03*
X028442Y040830D02*
D03*
X028883Y040858D02*
D03*
X029254Y041307D02*
D03*
X029130Y041693D02*
D03*
X028729Y041669D02*
D03*
X028310Y041670D02*
D03*
X024242Y041298D02*
D03*
X023851Y041094D02*
D03*
X036306Y044309D02*
D03*
X049560Y048745D02*
D03*
X043190Y044690D02*
D03*
X044530Y043450D02*
D03*
X040050Y019370D02*
D03*
X040800Y019380D02*
D03*
X029160Y048810D02*
D03*
X028421Y043721D02*
D03*
X028640Y049072D02*
D03*
X028410Y047240D02*
D03*
X044190Y042700D02*
D03*
X047390Y042400D02*
D03*
X045389Y042736D02*
D03*
X041640Y045290D02*
D03*
X040670Y045270D02*
D03*
X039700Y045310D02*
D03*
X039100Y045890D02*
D03*
X038320Y046070D02*
D03*
X038425Y046850D02*
D03*
X037760Y046870D02*
D03*
X046070Y043430D02*
D03*
X044530Y044400D02*
D03*
X043819Y045146D02*
D03*
X042780Y045900D02*
D03*
X041950Y045920D02*
D03*
X041161Y045896D02*
D03*
X040230Y045880D02*
D03*
X030530Y052332D02*
D03*
X028460Y052175D02*
D03*
X037090Y045830D02*
D03*
X033740Y042800D02*
D03*
X029486Y045858D02*
D03*
X030260Y046260D02*
D03*
X034620Y050510D02*
D03*
X035240Y050210D02*
D03*
X032097Y043020D02*
D03*
X032695Y042995D02*
D03*
X035641Y042441D02*
D03*
X032737Y043840D02*
D03*
X033650Y048440D02*
D03*
X033990Y048670D02*
D03*
X034700Y049960D02*
D03*
X034330Y049630D02*
D03*
X035900Y049240D02*
D03*
X029900Y049270D02*
D03*
X035600Y049452D02*
D03*
X029640Y049500D02*
D03*
X027840Y049866D02*
D03*
X028680Y049900D02*
D03*
X031130Y052180D02*
D03*
X035900Y052100D02*
D03*
X029883Y045867D02*
D03*
X028710Y050697D02*
D03*
X028666Y051094D02*
D03*
X027900Y051390D02*
D03*
X031566Y051907D02*
D03*
X037770Y051050D02*
D03*
X037440Y051040D02*
D03*
X037216Y050556D02*
D03*
X037770Y045950D02*
D03*
X037400Y045990D02*
D03*
X033130Y045820D02*
D03*
X032590Y044280D02*
D03*
X032600Y044630D02*
D03*
X024590Y048950D02*
D03*
X023730Y049100D02*
D03*
X043262Y038616D02*
D03*
X043492Y037586D02*
D03*
X042630Y049010D02*
D03*
X036854Y040489D02*
D03*
X036874Y039439D02*
D03*
X025450Y053010D02*
D03*
X025700Y053260D02*
D03*
X026700Y052030D02*
D03*
X025540Y051710D02*
D03*
X025053Y051680D02*
D03*
X026569Y051091D02*
D03*
X026150Y051060D02*
D03*
X036780Y042660D02*
D03*
X036770Y042990D02*
D03*
X034873Y044057D02*
D03*
X047701Y041424D02*
D03*
X043002Y041746D02*
D03*
X043382Y041756D02*
D03*
X034777Y042840D02*
D03*
X026930Y050890D02*
D03*
X026340Y050830D02*
D03*
X042432Y041576D02*
D03*
X042422Y041956D02*
D03*
X042182Y040966D02*
D03*
X041452Y039616D02*
D03*
Y039366D02*
D03*
X041672D02*
D03*
X040272Y041556D02*
D03*
X040042D02*
D03*
X039812D02*
D03*
X039562D02*
D03*
X040272Y041236D02*
D03*
X040042D02*
D03*
X039812D02*
D03*
X039562D02*
D03*
X040272Y042206D02*
D03*
X040042D02*
D03*
X039812D02*
D03*
X040272Y041886D02*
D03*
X040042D02*
D03*
X039812D02*
D03*
X039562D02*
D03*
X027990Y027860D02*
D03*
Y027630D02*
D03*
Y027400D02*
D03*
Y027150D02*
D03*
X028310Y027860D02*
D03*
Y027630D02*
D03*
Y027400D02*
D03*
Y027150D02*
D03*
X028590Y027860D02*
D03*
Y027630D02*
D03*
Y027400D02*
D03*
Y027150D02*
D03*
X028910Y027860D02*
D03*
Y027630D02*
D03*
Y027400D02*
D03*
Y027150D02*
D03*
X037230Y017760D02*
D03*
X036950Y017750D02*
D03*
X036690Y017760D02*
D03*
X036440Y017750D02*
D03*
X033280Y016740D02*
D03*
X033610Y016760D02*
D03*
X032005Y016915D02*
D03*
X031175Y016945D02*
D03*
X041672Y039616D02*
D03*
Y039846D02*
D03*
Y040076D02*
D03*
X041452Y039846D02*
D03*
Y040076D02*
D03*
X041222Y039616D02*
D03*
Y039846D02*
D03*
X026900Y045030D02*
D03*
X027150D02*
D03*
X027380D02*
D03*
X027610D02*
D03*
X027620Y045390D02*
D03*
X027390D02*
D03*
X027160D02*
D03*
X026910D02*
D03*
X027260Y046150D02*
D03*
X028200Y046100D02*
D03*
X026250Y044060D02*
D03*
X027525Y052015D02*
D03*
X027125Y052005D02*
D03*
X024180Y046050D02*
D03*
Y047030D02*
D03*
X023560Y052640D02*
D03*
X024634Y052644D02*
D03*
X024646Y053044D02*
D03*
X023684D02*
D03*
X026340Y048560D02*
D03*
X026140Y048720D02*
D03*
X025125Y052595D02*
D03*
X025575Y052605D02*
D03*
X025475Y048575D02*
D03*
X023880Y049770D02*
D03*
X023190Y049550D02*
D03*
X029710Y026620D02*
D03*
X029740Y025870D02*
D03*
X029650Y025150D02*
D03*
X029660Y024780D02*
D03*
X024520Y051230D02*
D03*
X024697Y048489D02*
D03*
X024260Y049850D02*
D03*
X024680Y047660D02*
D03*
X025070Y047670D02*
D03*
X025470Y047660D02*
D03*
X025880Y047680D02*
D03*
X027960Y047060D02*
D03*
X025670Y047040D02*
D03*
X027440Y048110D02*
D03*
X028680Y048710D02*
D03*
X028690Y050300D02*
D03*
X036656Y043479D02*
D03*
X034990Y019540D02*
D03*
X033480Y020470D02*
D03*
X048201Y040404D02*
D03*
X050641Y040044D02*
D03*
X049981D02*
D03*
X048231Y042014D02*
D03*
X050681Y041904D02*
D03*
X036210Y020450D02*
D03*
X035980Y023920D02*
D03*
X035610D02*
D03*
X035200Y023900D02*
D03*
X018060Y041330D02*
D03*
X018010Y041720D02*
D03*
X018240Y042910D02*
D03*
X017410Y044160D02*
D03*
X017400Y041650D02*
D03*
X017430Y042380D02*
D03*
X018220Y042570D02*
D03*
X019230Y042930D02*
D03*
X019150Y042580D02*
D03*
X018190Y040910D02*
D03*
X019790Y041550D02*
D03*
X020100Y041560D02*
D03*
X020110Y041220D02*
D03*
X019780Y041230D02*
D03*
X019660Y040370D02*
D03*
X043122Y039646D02*
D03*
D199*
X044852Y039266D02*
D03*
D200*
X026194Y049556D02*
D03*
Y050028D02*
D03*
X026666Y049556D02*
D03*
X026666Y050028D02*
D03*
X026430Y049792D02*
D03*
M02*
