G04*
G04 #@! TF.GenerationSoftware,Altium Limited,Altium Designer,21.5.1 (32)*
G04*
G04 Layer_Color=16711935*
%FSAX24Y24*%
%MOIN*%
G70*
G04*
G04 #@! TF.SameCoordinates,EA95429E-239C-4F57-B086-3AFABEEF507B*
G04*
G04*
G04 #@! TF.FilePolarity,Positive*
G04*
G01*
G75*
%ADD11C,0.0079*%
G36*
X050276Y050208D02*
X050278D01*
X050281Y050208D01*
X050284Y050207D01*
X050288Y050206D01*
X050292Y050206D01*
X050296Y050205D01*
X050301Y050203D01*
X050305Y050202D01*
X050310Y050200D01*
X050315Y050197D01*
X050319Y050195D01*
X050324Y050192D01*
X050328Y050188D01*
X050328Y050188D01*
X050329Y050188D01*
X050330Y050186D01*
X050331Y050185D01*
X050333Y050183D01*
X050335Y050180D01*
X050337Y050178D01*
X050339Y050174D01*
X050341Y050171D01*
X050343Y050167D01*
X050345Y050163D01*
X050347Y050158D01*
X050349Y050153D01*
X050351Y050148D01*
X050352Y050143D01*
X050353Y050137D01*
X050322Y050133D01*
Y050133D01*
X050321Y050134D01*
X050321Y050135D01*
X050321Y050137D01*
X050320Y050140D01*
X050319Y050142D01*
X050318Y050148D01*
X050315Y050154D01*
X050312Y050160D01*
X050308Y050166D01*
X050306Y050168D01*
X050304Y050171D01*
X050304D01*
X050303Y050171D01*
X050303Y050172D01*
X050302Y050173D01*
X050299Y050174D01*
X050295Y050177D01*
X050291Y050179D01*
X050285Y050180D01*
X050279Y050182D01*
X050273Y050182D01*
X050270D01*
X050269Y050182D01*
X050267Y050182D01*
X050265Y050182D01*
X050260Y050180D01*
X050254Y050179D01*
X050247Y050176D01*
X050244Y050174D01*
X050241Y050172D01*
X050238Y050170D01*
X050235Y050167D01*
X050235Y050167D01*
X050235Y050167D01*
X050234Y050166D01*
X050233Y050165D01*
X050232Y050163D01*
X050231Y050161D01*
X050229Y050159D01*
X050228Y050157D01*
X050225Y050152D01*
X050223Y050145D01*
X050221Y050138D01*
X050221Y050134D01*
X050220Y050130D01*
Y050130D01*
Y050129D01*
Y050128D01*
X050221Y050126D01*
X050221Y050125D01*
X050221Y050123D01*
X050222Y050118D01*
X050224Y050112D01*
X050226Y050106D01*
X050228Y050103D01*
X050230Y050100D01*
X050232Y050098D01*
X050235Y050095D01*
X050235Y050095D01*
X050235Y050094D01*
X050236Y050094D01*
X050237Y050093D01*
X050238Y050092D01*
X050240Y050091D01*
X050244Y050088D01*
X050249Y050085D01*
X050255Y050083D01*
X050262Y050082D01*
X050266Y050081D01*
X050270Y050081D01*
X050271D01*
X050273Y050081D01*
X050276D01*
X050279Y050082D01*
X050283Y050082D01*
X050287Y050083D01*
X050292Y050084D01*
X050288Y050057D01*
X050288D01*
X050286Y050058D01*
X050285Y050058D01*
X050281D01*
X050280Y050058D01*
X050278D01*
X050276Y050057D01*
X050271Y050057D01*
X050266Y050055D01*
X050260Y050054D01*
X050254Y050051D01*
X050248Y050048D01*
X050247D01*
X050247Y050047D01*
X050246Y050046D01*
X050245Y050046D01*
X050243Y050043D01*
X050240Y050040D01*
X050237Y050035D01*
X050234Y050030D01*
X050233Y050027D01*
X050232Y050023D01*
X050232Y050020D01*
X050232Y050016D01*
Y050016D01*
Y050015D01*
Y050014D01*
X050232Y050013D01*
X050232Y050010D01*
X050233Y050006D01*
X050234Y050001D01*
X050237Y049997D01*
X050240Y049992D01*
X050241Y049990D01*
X050243Y049987D01*
X050244Y049987D01*
X050246Y049986D01*
X050248Y049984D01*
X050251Y049982D01*
X050256Y049980D01*
X050261Y049978D01*
X050267Y049977D01*
X050273Y049976D01*
X050275D01*
X050276Y049977D01*
X050278D01*
X050279Y049977D01*
X050284Y049978D01*
X050288Y049979D01*
X050294Y049981D01*
X050298Y049984D01*
X050303Y049988D01*
X050304Y049988D01*
X050305Y049990D01*
X050307Y049992D01*
X050310Y049996D01*
X050312Y050001D01*
X050315Y050007D01*
X050317Y050014D01*
X050319Y050022D01*
X050350Y050016D01*
Y050016D01*
X050349Y050015D01*
X050349Y050013D01*
X050348Y050011D01*
X050348Y050008D01*
X050347Y050005D01*
X050346Y050002D01*
X050344Y049999D01*
X050341Y049991D01*
X050339Y049987D01*
X050336Y049983D01*
X050334Y049979D01*
X050331Y049975D01*
X050327Y049971D01*
X050324Y049968D01*
X050324Y049968D01*
X050323Y049967D01*
X050322Y049966D01*
X050320Y049965D01*
X050318Y049964D01*
X050316Y049963D01*
X050313Y049961D01*
X050310Y049959D01*
X050307Y049958D01*
X050303Y049956D01*
X050299Y049955D01*
X050294Y049954D01*
X050289Y049953D01*
X050285Y049952D01*
X050279Y049951D01*
X050274Y049951D01*
X050270D01*
X050268Y049951D01*
X050267Y049951D01*
X050261Y049952D01*
X050256Y049953D01*
X050249Y049955D01*
X050243Y049957D01*
X050236Y049960D01*
X050236D01*
X050235Y049960D01*
X050234Y049961D01*
X050233Y049962D01*
X050230Y049963D01*
X050226Y049966D01*
X050222Y049970D01*
X050217Y049974D01*
X050213Y049978D01*
X050209Y049984D01*
Y049984D01*
X050209Y049984D01*
X050208Y049986D01*
X050208Y049987D01*
X050207Y049988D01*
X050206Y049990D01*
X050205Y049994D01*
X050203Y049999D01*
X050201Y050004D01*
X050200Y050010D01*
X050200Y050016D01*
Y050017D01*
Y050017D01*
Y050018D01*
Y050019D01*
X050200Y050022D01*
X050201Y050026D01*
X050202Y050031D01*
X050204Y050036D01*
X050206Y050041D01*
X050209Y050046D01*
Y050046D01*
X050209Y050047D01*
X050211Y050048D01*
X050212Y050051D01*
X050215Y050054D01*
X050219Y050057D01*
X050224Y050061D01*
X050229Y050064D01*
X050235Y050067D01*
X050235D01*
X050234Y050068D01*
X050233Y050068D01*
X050231Y050069D01*
X050229Y050069D01*
X050227Y050070D01*
X050222Y050072D01*
X050217Y050075D01*
X050211Y050079D01*
X050205Y050083D01*
X050200Y050089D01*
X050200Y050089D01*
X050200Y050090D01*
X050199Y050091D01*
X050198Y050092D01*
X050197Y050093D01*
X050196Y050095D01*
X050195Y050097D01*
X050194Y050100D01*
X050193Y050103D01*
X050192Y050106D01*
X050190Y050113D01*
X050188Y050121D01*
X050188Y050125D01*
Y050129D01*
Y050130D01*
Y050131D01*
X050188Y050133D01*
Y050135D01*
X050188Y050138D01*
X050189Y050141D01*
X050190Y050145D01*
X050191Y050149D01*
X050192Y050153D01*
X050194Y050158D01*
X050196Y050162D01*
X050198Y050167D01*
X050201Y050172D01*
X050204Y050176D01*
X050208Y050181D01*
X050212Y050185D01*
X050212Y050186D01*
X050213Y050186D01*
X050214Y050188D01*
X050216Y050189D01*
X050218Y050191D01*
X050222Y050192D01*
X050225Y050195D01*
X050229Y050197D01*
X050233Y050199D01*
X050237Y050201D01*
X050242Y050203D01*
X050248Y050205D01*
X050253Y050206D01*
X050259Y050207D01*
X050266Y050208D01*
X050273Y050208D01*
X050274D01*
X050276Y050208D01*
D02*
G37*
G36*
X050985Y049952D02*
X050868D01*
X050865Y049952D01*
X050862D01*
X050859Y049952D01*
X050855Y049953D01*
X050846Y049953D01*
X050838Y049955D01*
X050830Y049956D01*
X050826Y049957D01*
X050823Y049959D01*
X050822D01*
X050822Y049959D01*
X050821Y049959D01*
X050820Y049960D01*
X050816Y049962D01*
X050813Y049964D01*
X050808Y049967D01*
X050803Y049972D01*
X050799Y049977D01*
X050795Y049983D01*
Y049983D01*
X050794Y049983D01*
X050793Y049984D01*
X050793Y049986D01*
X050792Y049987D01*
X050791Y049989D01*
X050790Y049991D01*
X050789Y049994D01*
X050787Y049999D01*
X050786Y050006D01*
X050784Y050013D01*
X050784Y050020D01*
Y050021D01*
Y050022D01*
Y050023D01*
X050784Y050025D01*
X050784Y050027D01*
X050785Y050030D01*
X050785Y050033D01*
X050786Y050036D01*
X050788Y050043D01*
X050790Y050047D01*
X050791Y050051D01*
X050793Y050055D01*
X050796Y050059D01*
X050798Y050062D01*
X050801Y050066D01*
X050802Y050066D01*
X050802Y050067D01*
X050803Y050067D01*
X050805Y050069D01*
X050807Y050070D01*
X050809Y050072D01*
X050811Y050074D01*
X050815Y050076D01*
X050818Y050078D01*
X050822Y050079D01*
X050826Y050081D01*
X050831Y050083D01*
X050837Y050085D01*
X050842Y050087D01*
X050849Y050088D01*
X050855Y050089D01*
X050855D01*
X050855Y050089D01*
X050853Y050090D01*
X050850Y050091D01*
X050847Y050093D01*
X050844Y050095D01*
X050841Y050097D01*
X050838Y050099D01*
X050835Y050102D01*
X050835Y050102D01*
X050834Y050102D01*
X050834Y050103D01*
X050832Y050104D01*
X050831Y050105D01*
X050829Y050107D01*
X050826Y050111D01*
X050822Y050116D01*
X050817Y050121D01*
X050812Y050128D01*
X050807Y050135D01*
X050764Y050204D01*
X050805D01*
X050839Y050151D01*
X050839Y050151D01*
X050839Y050150D01*
X050840Y050149D01*
X050841Y050147D01*
X050842Y050146D01*
X050844Y050143D01*
X050847Y050138D01*
X050851Y050133D01*
X050855Y050127D01*
X050859Y050121D01*
X050863Y050117D01*
Y050116D01*
X050863Y050116D01*
X050864Y050115D01*
X050866Y050113D01*
X050869Y050110D01*
X050871Y050107D01*
X050874Y050105D01*
X050877Y050102D01*
X050880Y050100D01*
X050880Y050100D01*
X050881Y050099D01*
X050882Y050098D01*
X050884Y050097D01*
X050887Y050096D01*
X050889Y050095D01*
X050892Y050094D01*
X050895Y050093D01*
X050895D01*
X050896Y050093D01*
X050897Y050093D01*
X050899Y050092D01*
X050902D01*
X050905Y050092D01*
X050909Y050092D01*
X050952D01*
Y050204D01*
X050985D01*
Y049952D01*
D02*
G37*
G36*
X050659Y050007D02*
X050659Y050007D01*
X050660Y050009D01*
X050663Y050011D01*
X050666Y050013D01*
X050671Y050017D01*
X050676Y050020D01*
X050682Y050024D01*
X050688Y050028D01*
X050688D01*
X050689Y050029D01*
X050690Y050029D01*
X050691Y050030D01*
X050693Y050031D01*
X050695Y050032D01*
X050699Y050034D01*
X050704Y050037D01*
X050709Y050039D01*
X050715Y050042D01*
X050721Y050044D01*
Y050014D01*
X050720Y050014D01*
X050719Y050014D01*
X050718Y050013D01*
X050716Y050012D01*
X050714Y050011D01*
X050711Y050009D01*
X050708Y050008D01*
X050705Y050006D01*
X050698Y050002D01*
X050691Y049996D01*
X050683Y049991D01*
X050675Y049985D01*
X050675Y049984D01*
X050674Y049984D01*
X050673Y049983D01*
X050672Y049982D01*
X050671Y049980D01*
X050669Y049978D01*
X050665Y049974D01*
X050660Y049969D01*
X050655Y049963D01*
X050651Y049957D01*
X050648Y049951D01*
X050628D01*
Y050204D01*
X050659D01*
Y050007D01*
D02*
G37*
G36*
X050470Y050208D02*
X050472Y050207D01*
X050475Y050207D01*
X050479Y050206D01*
X050483Y050206D01*
X050487Y050205D01*
X050491Y050203D01*
X050496Y050201D01*
X050501Y050199D01*
X050506Y050197D01*
X050510Y050194D01*
X050515Y050190D01*
X050519Y050186D01*
X050523Y050182D01*
X050524Y050182D01*
X050525Y050180D01*
X050526Y050179D01*
X050527Y050176D01*
X050529Y050172D01*
X050531Y050168D01*
X050534Y050163D01*
X050536Y050157D01*
X050538Y050150D01*
X050540Y050143D01*
X050543Y050135D01*
X050544Y050125D01*
X050546Y050115D01*
X050547Y050104D01*
X050548Y050092D01*
X050548Y050079D01*
Y050079D01*
Y050078D01*
Y050075D01*
X050548Y050072D01*
Y050068D01*
X050548Y050064D01*
X050547Y050059D01*
X050547Y050054D01*
X050547Y050048D01*
X050546Y050042D01*
X050544Y050030D01*
X050542Y050019D01*
X050541Y050013D01*
X050539Y050008D01*
Y050007D01*
X050539Y050007D01*
X050538Y050005D01*
X050538Y050003D01*
X050537Y050001D01*
X050535Y049998D01*
X050534Y049995D01*
X050532Y049992D01*
X050529Y049985D01*
X050524Y049978D01*
X050518Y049972D01*
X050515Y049969D01*
X050512Y049966D01*
X050512Y049965D01*
X050511Y049965D01*
X050510Y049964D01*
X050509Y049963D01*
X050507Y049962D01*
X050505Y049961D01*
X050502Y049960D01*
X050499Y049958D01*
X050496Y049957D01*
X050493Y049956D01*
X050489Y049954D01*
X050485Y049953D01*
X050481Y049952D01*
X050476Y049951D01*
X050471Y049951D01*
X050466Y049951D01*
X050463D01*
X050461Y049951D01*
X050459Y049951D01*
X050454Y049952D01*
X050449Y049953D01*
X050443Y049954D01*
X050437Y049956D01*
X050431Y049959D01*
X050431D01*
X050430Y049959D01*
X050429Y049960D01*
X050428Y049961D01*
X050425Y049962D01*
X050422Y049965D01*
X050418Y049968D01*
X050414Y049972D01*
X050409Y049977D01*
X050406Y049983D01*
Y049983D01*
X050405Y049984D01*
X050405Y049984D01*
X050404Y049986D01*
X050403Y049987D01*
X050402Y049989D01*
X050401Y049991D01*
X050400Y049993D01*
X050397Y049999D01*
X050395Y050005D01*
X050392Y050012D01*
X050390Y050020D01*
Y050020D01*
X050390Y050021D01*
X050389Y050022D01*
X050389Y050024D01*
X050389Y050026D01*
X050388Y050029D01*
X050387Y050032D01*
X050387Y050036D01*
X050387Y050040D01*
X050386Y050044D01*
X050386Y050049D01*
X050385Y050054D01*
X050385Y050060D01*
X050384Y050066D01*
X050384Y050073D01*
Y050079D01*
Y050080D01*
Y050081D01*
Y050084D01*
Y050087D01*
X050384Y050091D01*
X050385Y050095D01*
X050385Y050100D01*
X050385Y050105D01*
X050386Y050111D01*
X050386Y050116D01*
X050388Y050128D01*
X050390Y050140D01*
X050392Y050146D01*
X050393Y050151D01*
Y050151D01*
X050394Y050152D01*
X050394Y050154D01*
X050395Y050155D01*
X050396Y050158D01*
X050397Y050160D01*
X050399Y050163D01*
X050400Y050167D01*
X050404Y050173D01*
X050409Y050180D01*
X050414Y050187D01*
X050418Y050190D01*
X050421Y050193D01*
X050421Y050193D01*
X050422Y050194D01*
X050423Y050194D01*
X050424Y050195D01*
X050426Y050196D01*
X050428Y050198D01*
X050430Y050199D01*
X050433Y050200D01*
X050436Y050202D01*
X050440Y050203D01*
X050443Y050204D01*
X050448Y050206D01*
X050452Y050206D01*
X050457Y050207D01*
X050461Y050208D01*
X050466Y050208D01*
X050468D01*
X050470Y050208D01*
D02*
G37*
G36*
X033677Y049031D02*
X033681Y049031D01*
X033686Y049030D01*
X033691Y049030D01*
X033697Y049030D01*
X033703Y049029D01*
X033715Y049027D01*
X033726Y049025D01*
X033732Y049023D01*
X033737Y049022D01*
X033738D01*
X033738Y049021D01*
X033740Y049021D01*
X033742Y049020D01*
X033744Y049019D01*
X033747Y049018D01*
X033750Y049017D01*
X033753Y049015D01*
X033760Y049011D01*
X033767Y049007D01*
X033773Y049001D01*
X033776Y048998D01*
X033779Y048995D01*
X033780Y048994D01*
X033780Y048994D01*
X033781Y048993D01*
X033782Y048991D01*
X033783Y048990D01*
X033784Y048987D01*
X033785Y048985D01*
X033787Y048982D01*
X033788Y048979D01*
X033789Y048975D01*
X033791Y048972D01*
X033792Y048968D01*
X033793Y048963D01*
X033794Y048959D01*
X033794Y048954D01*
X033794Y048949D01*
Y048947D01*
X033794Y048945D01*
X033794Y048943D01*
X033793Y048940D01*
X033793Y048936D01*
X033792Y048933D01*
X033791Y048928D01*
X033789Y048924D01*
X033788Y048919D01*
X033786Y048914D01*
X033783Y048910D01*
X033780Y048905D01*
X033777Y048900D01*
X033773Y048896D01*
X033768Y048892D01*
X033768Y048892D01*
X033767Y048891D01*
X033765Y048890D01*
X033762Y048888D01*
X033759Y048886D01*
X033755Y048884D01*
X033749Y048882D01*
X033744Y048880D01*
X033737Y048877D01*
X033729Y048875D01*
X033721Y048873D01*
X033712Y048871D01*
X033702Y048869D01*
X033691Y048868D01*
X033679Y048867D01*
X033666Y048867D01*
X033665D01*
X033664D01*
X033661D01*
X033658Y048867D01*
X033655D01*
X033650Y048868D01*
X033645Y048868D01*
X033640Y048868D01*
X033634Y048869D01*
X033629Y048869D01*
X033617Y048871D01*
X033605Y048873D01*
X033599Y048874D01*
X033594Y048876D01*
X033594D01*
X033593Y048877D01*
X033591Y048877D01*
X033589Y048878D01*
X033587Y048879D01*
X033584Y048880D01*
X033582Y048881D01*
X033578Y048883D01*
X033572Y048887D01*
X033565Y048892D01*
X033558Y048897D01*
X033555Y048900D01*
X033552Y048903D01*
X033552Y048904D01*
X033551Y048904D01*
X033551Y048905D01*
X033550Y048907D01*
X033548Y048908D01*
X033547Y048910D01*
X033546Y048913D01*
X033545Y048916D01*
X033543Y048919D01*
X033542Y048922D01*
X033540Y048926D01*
X033539Y048930D01*
X033539Y048934D01*
X033538Y048939D01*
X033537Y048944D01*
X033537Y048949D01*
Y048952D01*
X033537Y048954D01*
X033538Y048956D01*
X033538Y048961D01*
X033539Y048966D01*
X033541Y048972D01*
X033543Y048978D01*
X033545Y048984D01*
Y048985D01*
X033546Y048985D01*
X033546Y048986D01*
X033547Y048987D01*
X033549Y048990D01*
X033551Y048993D01*
X033555Y048998D01*
X033559Y049002D01*
X033564Y049006D01*
X033569Y049010D01*
X033569D01*
X033570Y049010D01*
X033571Y049011D01*
X033572Y049011D01*
X033573Y049012D01*
X033575Y049013D01*
X033577Y049014D01*
X033580Y049016D01*
X033585Y049018D01*
X033591Y049021D01*
X033599Y049023D01*
X033607Y049025D01*
X033607D01*
X033608Y049026D01*
X033609Y049026D01*
X033611Y049026D01*
X033613Y049027D01*
X033616Y049027D01*
X033619Y049028D01*
X033622Y049028D01*
X033626Y049029D01*
X033631Y049029D01*
X033635Y049030D01*
X033641Y049030D01*
X033646Y049031D01*
X033652Y049031D01*
X033659Y049031D01*
X033666D01*
X033666D01*
X033668D01*
X033670D01*
X033673D01*
X033677Y049031D01*
D02*
G37*
G36*
X033790Y048757D02*
X033593D01*
X033594Y048756D01*
X033595Y048755D01*
X033597Y048752D01*
X033600Y048749D01*
X033603Y048745D01*
X033607Y048740D01*
X033610Y048734D01*
X033614Y048727D01*
Y048727D01*
X033615Y048726D01*
X033616Y048726D01*
X033616Y048724D01*
X033617Y048723D01*
X033618Y048721D01*
X033620Y048716D01*
X033623Y048711D01*
X033626Y048706D01*
X033628Y048700D01*
X033630Y048695D01*
X033601D01*
X033600Y048695D01*
X033600Y048696D01*
X033599Y048697D01*
X033598Y048699D01*
X033597Y048701D01*
X033596Y048704D01*
X033594Y048707D01*
X033592Y048710D01*
X033588Y048717D01*
X033583Y048725D01*
X033577Y048733D01*
X033571Y048740D01*
X033571Y048740D01*
X033570Y048741D01*
X033569Y048742D01*
X033568Y048743D01*
X033566Y048745D01*
X033565Y048747D01*
X033560Y048751D01*
X033555Y048755D01*
X033549Y048760D01*
X033544Y048764D01*
X033537Y048768D01*
Y048788D01*
X033790D01*
Y048757D01*
D02*
G37*
G36*
X033693Y048628D02*
X033697Y048628D01*
X033701Y048627D01*
X033705Y048627D01*
X033715Y048626D01*
X033725Y048625D01*
X033735Y048622D01*
X033740Y048621D01*
X033744Y048619D01*
X033744D01*
X033745Y048619D01*
X033746Y048619D01*
X033748Y048618D01*
X033750Y048617D01*
X033752Y048616D01*
X033757Y048612D01*
X033760Y048610D01*
X033762Y048608D01*
X033766Y048606D01*
X033769Y048603D01*
X033772Y048600D01*
X033775Y048596D01*
X033777Y048592D01*
X033780Y048588D01*
X033780Y048588D01*
X033781Y048587D01*
X033782Y048586D01*
X033782Y048584D01*
X033783Y048582D01*
X033785Y048579D01*
X033786Y048576D01*
X033787Y048573D01*
X033788Y048569D01*
X033790Y048564D01*
X033791Y048559D01*
X033792Y048554D01*
X033793Y048548D01*
X033794Y048542D01*
X033794Y048536D01*
X033794Y048530D01*
Y048526D01*
X033794Y048524D01*
Y048521D01*
X033794Y048517D01*
X033793Y048513D01*
X033792Y048509D01*
X033791Y048500D01*
X033789Y048490D01*
X033786Y048481D01*
X033784Y048476D01*
X033782Y048471D01*
X033782Y048471D01*
X033782Y048470D01*
X033781Y048469D01*
X033780Y048468D01*
X033779Y048466D01*
X033777Y048464D01*
X033775Y048462D01*
X033773Y048459D01*
X033768Y048454D01*
X033762Y048449D01*
X033755Y048444D01*
X033751Y048441D01*
X033747Y048440D01*
X033747D01*
X033746Y048439D01*
X033744Y048439D01*
X033743Y048438D01*
X033740Y048437D01*
X033737Y048437D01*
X033734Y048436D01*
X033730Y048435D01*
X033726Y048434D01*
X033721Y048433D01*
X033716Y048432D01*
X033710Y048432D01*
X033704Y048431D01*
X033698Y048431D01*
X033691Y048430D01*
X033684D01*
X033538D01*
Y048463D01*
X033684D01*
X033684D01*
X033685D01*
X033687D01*
X033689D01*
X033692Y048464D01*
X033695D01*
X033698Y048464D01*
X033702Y048464D01*
X033710Y048465D01*
X033718Y048466D01*
X033725Y048467D01*
X033729Y048468D01*
X033732Y048469D01*
X033732D01*
X033732Y048470D01*
X033733Y048470D01*
X033734Y048470D01*
X033737Y048472D01*
X033741Y048474D01*
X033745Y048477D01*
X033749Y048481D01*
X033752Y048485D01*
X033756Y048490D01*
Y048490D01*
X033756Y048491D01*
X033757Y048492D01*
X033757Y048493D01*
X033758Y048494D01*
X033758Y048496D01*
X033759Y048498D01*
X033760Y048500D01*
X033761Y048506D01*
X033763Y048512D01*
X033764Y048519D01*
X033764Y048527D01*
Y048530D01*
X033764Y048533D01*
X033764Y048536D01*
X033763Y048539D01*
X033763Y048543D01*
X033762Y048547D01*
X033760Y048556D01*
X033759Y048560D01*
X033757Y048564D01*
X033755Y048568D01*
X033753Y048572D01*
X033750Y048576D01*
X033747Y048579D01*
X033747Y048579D01*
X033747Y048580D01*
X033746Y048580D01*
X033744Y048582D01*
X033742Y048583D01*
X033740Y048584D01*
X033737Y048586D01*
X033733Y048587D01*
X033729Y048588D01*
X033725Y048590D01*
X033719Y048591D01*
X033714Y048592D01*
X033707Y048594D01*
X033700Y048594D01*
X033692Y048595D01*
X033684Y048595D01*
X033538D01*
Y048628D01*
X033684D01*
X033684D01*
X033685D01*
X033687D01*
X033690D01*
X033693Y048628D01*
D02*
G37*
G36*
X050843Y041336D02*
X050847D01*
X050852Y041336D01*
X050857Y041336D01*
X050863Y041335D01*
X050869Y041335D01*
X050875Y041334D01*
X050888Y041332D01*
X050900Y041330D01*
X050906Y041328D01*
X050912Y041326D01*
X050912D01*
X050913Y041326D01*
X050915Y041325D01*
X050916Y041324D01*
X050919Y041323D01*
X050922Y041322D01*
X050925Y041320D01*
X050928Y041318D01*
X050935Y041314D01*
X050942Y041309D01*
X050949Y041302D01*
X050952Y041299D01*
X050955Y041295D01*
X050956Y041295D01*
X050956Y041294D01*
X050957Y041293D01*
X050957Y041291D01*
X050959Y041289D01*
X050960Y041287D01*
X050961Y041284D01*
X050963Y041281D01*
X050964Y041278D01*
X050965Y041274D01*
X050966Y041270D01*
X050968Y041266D01*
X050969Y041256D01*
X050970Y041252D01*
X050970Y041246D01*
Y041244D01*
X050970Y041241D01*
X050969Y041239D01*
X050969Y041236D01*
X050969Y041233D01*
X050968Y041229D01*
X050966Y041222D01*
X050965Y041218D01*
X050963Y041214D01*
X050961Y041210D01*
X050959Y041205D01*
X050957Y041202D01*
X050954Y041198D01*
X050953Y041198D01*
X050953Y041197D01*
X050952Y041196D01*
X050951Y041195D01*
X050949Y041194D01*
X050947Y041192D01*
X050944Y041190D01*
X050942Y041188D01*
X050939Y041186D01*
X050935Y041184D01*
X050931Y041183D01*
X050927Y041181D01*
X050923Y041179D01*
X050918Y041178D01*
X050913Y041177D01*
X050907Y041176D01*
X050905Y041206D01*
X050905D01*
X050906Y041206D01*
X050907D01*
X050909Y041207D01*
X050910Y041207D01*
X050912Y041207D01*
X050917Y041209D01*
X050922Y041211D01*
X050927Y041213D01*
X050931Y041216D01*
X050933Y041218D01*
X050935Y041220D01*
X050936Y041220D01*
X050937Y041222D01*
X050938Y041224D01*
X050940Y041227D01*
X050942Y041231D01*
X050943Y041236D01*
X050944Y041241D01*
X050945Y041247D01*
Y041250D01*
X050944Y041252D01*
X050944Y041256D01*
X050943Y041260D01*
X050942Y041264D01*
X050940Y041268D01*
X050938Y041272D01*
X050938Y041273D01*
X050937Y041274D01*
X050936Y041276D01*
X050934Y041278D01*
X050931Y041281D01*
X050928Y041284D01*
X050925Y041287D01*
X050921Y041290D01*
X050920Y041290D01*
X050919Y041291D01*
X050916Y041292D01*
X050913Y041294D01*
X050909Y041296D01*
X050904Y041297D01*
X050898Y041299D01*
X050891Y041301D01*
X050891D01*
X050891Y041302D01*
X050889Y041302D01*
X050888Y041302D01*
X050886Y041302D01*
X050885Y041303D01*
X050882Y041303D01*
X050880Y041304D01*
X050874Y041305D01*
X050868Y041305D01*
X050861Y041306D01*
X050854Y041306D01*
X050853D01*
X050852D01*
X050850D01*
X050848D01*
X050848Y041305D01*
X050849Y041305D01*
X050850Y041304D01*
X050853Y041302D01*
X050856Y041299D01*
X050860Y041296D01*
X050864Y041291D01*
X050868Y041286D01*
X050871Y041281D01*
Y041280D01*
X050872Y041280D01*
X050872Y041279D01*
X050873Y041278D01*
X050874Y041276D01*
X050874Y041275D01*
X050876Y041270D01*
X050878Y041265D01*
X050879Y041259D01*
X050880Y041252D01*
X050880Y041246D01*
Y041244D01*
X050880Y041243D01*
Y041240D01*
X050880Y041238D01*
X050879Y041235D01*
X050879Y041231D01*
X050878Y041227D01*
X050876Y041223D01*
X050875Y041219D01*
X050873Y041215D01*
X050871Y041210D01*
X050868Y041206D01*
X050865Y041201D01*
X050862Y041197D01*
X050858Y041193D01*
X050858Y041193D01*
X050857Y041192D01*
X050856Y041191D01*
X050854Y041190D01*
X050852Y041188D01*
X050849Y041186D01*
X050846Y041184D01*
X050842Y041182D01*
X050838Y041180D01*
X050833Y041178D01*
X050829Y041176D01*
X050823Y041175D01*
X050818Y041173D01*
X050811Y041172D01*
X050805Y041172D01*
X050798Y041171D01*
X050798D01*
X050797D01*
X050794Y041172D01*
X050792D01*
X050789Y041172D01*
X050785Y041172D01*
X050781Y041173D01*
X050776Y041174D01*
X050772Y041175D01*
X050766Y041177D01*
X050761Y041179D01*
X050756Y041181D01*
X050751Y041183D01*
X050746Y041186D01*
X050741Y041190D01*
X050737Y041194D01*
X050736Y041194D01*
X050735Y041195D01*
X050734Y041196D01*
X050733Y041198D01*
X050731Y041200D01*
X050729Y041203D01*
X050727Y041206D01*
X050725Y041209D01*
X050723Y041213D01*
X050720Y041217D01*
X050719Y041222D01*
X050717Y041227D01*
X050715Y041232D01*
X050714Y041238D01*
X050713Y041244D01*
X050713Y041250D01*
Y041253D01*
X050713Y041254D01*
Y041256D01*
X050714Y041259D01*
X050714Y041262D01*
X050715Y041265D01*
X050716Y041272D01*
X050719Y041279D01*
X050720Y041283D01*
X050722Y041287D01*
X050724Y041291D01*
X050726Y041295D01*
X050727Y041295D01*
X050727Y041296D01*
X050728Y041297D01*
X050729Y041298D01*
X050730Y041300D01*
X050732Y041302D01*
X050734Y041304D01*
X050736Y041306D01*
X050738Y041309D01*
X050741Y041312D01*
X050744Y041314D01*
X050748Y041317D01*
X050752Y041319D01*
X050755Y041322D01*
X050760Y041324D01*
X050764Y041326D01*
X050764D01*
X050765Y041327D01*
X050767Y041327D01*
X050769Y041328D01*
X050771Y041329D01*
X050774Y041329D01*
X050778Y041330D01*
X050782Y041332D01*
X050787Y041332D01*
X050792Y041333D01*
X050798Y041334D01*
X050804Y041335D01*
X050811Y041336D01*
X050818Y041336D01*
X050826Y041337D01*
X050835D01*
X050835D01*
X050837D01*
X050839D01*
X050843Y041336D01*
D02*
G37*
G36*
X050869Y041128D02*
X050873Y041128D01*
X050877Y041127D01*
X050881Y041127D01*
X050891Y041126D01*
X050901Y041125D01*
X050911Y041122D01*
X050915Y041121D01*
X050920Y041119D01*
X050920D01*
X050921Y041119D01*
X050922Y041119D01*
X050924Y041118D01*
X050925Y041117D01*
X050928Y041116D01*
X050933Y041112D01*
X050936Y041110D01*
X050938Y041108D01*
X050942Y041106D01*
X050945Y041103D01*
X050948Y041100D01*
X050951Y041096D01*
X050953Y041092D01*
X050956Y041088D01*
X050956Y041088D01*
X050957Y041087D01*
X050957Y041086D01*
X050958Y041084D01*
X050959Y041082D01*
X050960Y041079D01*
X050962Y041076D01*
X050963Y041073D01*
X050964Y041069D01*
X050966Y041064D01*
X050967Y041059D01*
X050968Y041054D01*
X050969Y041048D01*
X050969Y041042D01*
X050970Y041036D01*
X050970Y041030D01*
Y041026D01*
X050970Y041024D01*
Y041021D01*
X050969Y041017D01*
X050969Y041013D01*
X050968Y041009D01*
X050967Y041000D01*
X050965Y040990D01*
X050962Y040981D01*
X050960Y040976D01*
X050958Y040971D01*
X050958Y040971D01*
X050957Y040970D01*
X050957Y040969D01*
X050956Y040968D01*
X050954Y040966D01*
X050953Y040964D01*
X050951Y040962D01*
X050949Y040959D01*
X050944Y040954D01*
X050938Y040949D01*
X050931Y040944D01*
X050927Y040941D01*
X050923Y040940D01*
X050922D01*
X050922Y040939D01*
X050920Y040939D01*
X050918Y040938D01*
X050916Y040937D01*
X050913Y040937D01*
X050910Y040936D01*
X050906Y040935D01*
X050902Y040934D01*
X050897Y040933D01*
X050892Y040932D01*
X050886Y040932D01*
X050880Y040931D01*
X050874Y040931D01*
X050867Y040930D01*
X050859D01*
X050714D01*
Y040963D01*
X050859D01*
X050860D01*
X050861D01*
X050862D01*
X050865D01*
X050868Y040964D01*
X050871D01*
X050874Y040964D01*
X050878Y040964D01*
X050886Y040965D01*
X050894Y040966D01*
X050901Y040967D01*
X050905Y040968D01*
X050908Y040969D01*
X050908D01*
X050908Y040970D01*
X050909Y040970D01*
X050910Y040970D01*
X050913Y040972D01*
X050916Y040974D01*
X050921Y040977D01*
X050924Y040981D01*
X050928Y040985D01*
X050932Y040990D01*
Y040990D01*
X050932Y040991D01*
X050933Y040992D01*
X050933Y040993D01*
X050934Y040994D01*
X050934Y040996D01*
X050935Y040998D01*
X050936Y041000D01*
X050937Y041006D01*
X050939Y041012D01*
X050940Y041019D01*
X050940Y041027D01*
Y041030D01*
X050940Y041033D01*
X050939Y041036D01*
X050939Y041039D01*
X050939Y041043D01*
X050938Y041047D01*
X050936Y041056D01*
X050935Y041060D01*
X050933Y041064D01*
X050931Y041068D01*
X050929Y041072D01*
X050926Y041076D01*
X050923Y041079D01*
X050923Y041079D01*
X050922Y041080D01*
X050921Y041080D01*
X050920Y041082D01*
X050918Y041083D01*
X050916Y041084D01*
X050913Y041086D01*
X050909Y041087D01*
X050905Y041088D01*
X050900Y041090D01*
X050895Y041091D01*
X050889Y041092D01*
X050883Y041094D01*
X050876Y041094D01*
X050868Y041095D01*
X050859Y041095D01*
X050714D01*
Y041128D01*
X050859D01*
X050860D01*
X050861D01*
X050863D01*
X050866D01*
X050869Y041128D01*
D02*
G37*
G36*
X020281Y041356D02*
X020136D01*
X020136D01*
X020134D01*
X020133D01*
X020130D01*
X020128Y041356D01*
X020125D01*
X020121Y041356D01*
X020118Y041356D01*
X020110Y041355D01*
X020102Y041354D01*
X020094Y041352D01*
X020091Y041352D01*
X020088Y041350D01*
X020087D01*
X020087Y041350D01*
X020086Y041350D01*
X020085Y041349D01*
X020082Y041348D01*
X020079Y041346D01*
X020075Y041343D01*
X020071Y041339D01*
X020067Y041335D01*
X020064Y041330D01*
Y041329D01*
X020063Y041329D01*
X020063Y041328D01*
X020062Y041327D01*
X020062Y041326D01*
X020061Y041324D01*
X020060Y041322D01*
X020059Y041320D01*
X020058Y041314D01*
X020057Y041308D01*
X020056Y041301D01*
X020055Y041293D01*
Y041290D01*
X020056Y041287D01*
X020056Y041284D01*
X020056Y041281D01*
X020057Y041277D01*
X020057Y041273D01*
X020059Y041264D01*
X020061Y041260D01*
X020062Y041255D01*
X020064Y041251D01*
X020067Y041248D01*
X020069Y041244D01*
X020072Y041241D01*
X020072Y041240D01*
X020073Y041240D01*
X020074Y041239D01*
X020075Y041238D01*
X020077Y041237D01*
X020080Y041236D01*
X020083Y041234D01*
X020086Y041233D01*
X020090Y041231D01*
X020095Y041230D01*
X020100Y041228D01*
X020106Y041227D01*
X020112Y041226D01*
X020119Y041225D01*
X020127Y041225D01*
X020136Y041225D01*
X020281D01*
Y041192D01*
X020136D01*
X020135D01*
X020134D01*
X020132D01*
X020130D01*
X020126Y041192D01*
X020123Y041192D01*
X020119Y041192D01*
X020114Y041193D01*
X020104Y041194D01*
X020094Y041195D01*
X020085Y041197D01*
X020080Y041199D01*
X020076Y041200D01*
X020075D01*
X020074Y041201D01*
X020073Y041201D01*
X020072Y041202D01*
X020070Y041203D01*
X020068Y041204D01*
X020063Y041207D01*
X020060Y041209D01*
X020057Y041212D01*
X020054Y041214D01*
X020051Y041217D01*
X020048Y041220D01*
X020045Y041224D01*
X020042Y041227D01*
X020039Y041231D01*
X020039Y041232D01*
X020039Y041233D01*
X020038Y041234D01*
X020037Y041236D01*
X020036Y041238D01*
X020035Y041240D01*
X020033Y041243D01*
X020032Y041247D01*
X020031Y041251D01*
X020030Y041255D01*
X020029Y041260D01*
X020027Y041266D01*
X020027Y041271D01*
X020026Y041277D01*
X020026Y041284D01*
X020025Y041290D01*
Y041294D01*
X020026Y041296D01*
Y041299D01*
X020026Y041302D01*
X020026Y041307D01*
X020027Y041311D01*
X020028Y041320D01*
X020030Y041330D01*
X020033Y041339D01*
X020035Y041344D01*
X020037Y041348D01*
X020038Y041349D01*
X020038Y041349D01*
X020039Y041350D01*
X020039Y041352D01*
X020041Y041354D01*
X020042Y041356D01*
X020044Y041358D01*
X020046Y041361D01*
X020051Y041366D01*
X020057Y041371D01*
X020064Y041376D01*
X020068Y041378D01*
X020073Y041380D01*
X020073D01*
X020074Y041380D01*
X020075Y041381D01*
X020077Y041382D01*
X020079Y041382D01*
X020082Y041383D01*
X020085Y041384D01*
X020089Y041385D01*
X020094Y041386D01*
X020098Y041387D01*
X020103Y041388D01*
X020109Y041388D01*
X020115Y041389D01*
X020122Y041389D01*
X020128Y041390D01*
X020136D01*
X020281D01*
Y041356D01*
D02*
G37*
G36*
X020154Y041150D02*
X020156D01*
X020159Y041150D01*
X020165Y041149D01*
X020172Y041149D01*
X020180Y041148D01*
X020188Y041147D01*
X020196Y041145D01*
X020205Y041144D01*
X020214Y041141D01*
X020223Y041139D01*
X020231Y041136D01*
X020239Y041132D01*
X020247Y041128D01*
X020253Y041123D01*
X020254Y041123D01*
X020255Y041122D01*
X020256Y041121D01*
X020258Y041119D01*
X020260Y041116D01*
X020263Y041113D01*
X020265Y041110D01*
X020268Y041106D01*
X020270Y041102D01*
X020273Y041097D01*
X020275Y041092D01*
X020278Y041086D01*
X020279Y041080D01*
X020281Y041074D01*
X020282Y041067D01*
X020282Y041059D01*
Y041056D01*
X020282Y041055D01*
X020282Y041052D01*
X020281Y041049D01*
X020281Y041046D01*
X020280Y041042D01*
X020278Y041034D01*
X020277Y041031D01*
X020275Y041026D01*
X020273Y041022D01*
X020271Y041018D01*
X020268Y041014D01*
X020265Y041011D01*
X020265Y041010D01*
X020264Y041010D01*
X020264Y041009D01*
X020262Y041008D01*
X020261Y041006D01*
X020258Y041004D01*
X020256Y041002D01*
X020253Y041000D01*
X020250Y040999D01*
X020247Y040997D01*
X020243Y040995D01*
X020239Y040993D01*
X020234Y040991D01*
X020230Y040990D01*
X020225Y040988D01*
X020219Y040988D01*
X020217Y041018D01*
X020217D01*
X020218Y041019D01*
X020219Y041019D01*
X020220Y041019D01*
X020223Y041020D01*
X020227Y041021D01*
X020231Y041023D01*
X020236Y041025D01*
X020240Y041027D01*
X020243Y041030D01*
X020244Y041031D01*
X020244Y041031D01*
X020245Y041032D01*
X020246Y041032D01*
X020248Y041035D01*
X020250Y041039D01*
X020253Y041043D01*
X020255Y041049D01*
X020256Y041055D01*
X020257Y041058D01*
X020257Y041061D01*
Y041064D01*
X020256Y041067D01*
X020256Y041070D01*
X020255Y041074D01*
X020253Y041079D01*
X020251Y041083D01*
X020248Y041088D01*
Y041088D01*
X020248Y041088D01*
X020247Y041089D01*
X020246Y041090D01*
X020244Y041092D01*
X020240Y041096D01*
X020236Y041100D01*
X020231Y041103D01*
X020224Y041107D01*
X020217Y041110D01*
X020217D01*
X020216Y041111D01*
X020215Y041111D01*
X020213Y041112D01*
X020211Y041112D01*
X020209Y041113D01*
X020206Y041114D01*
X020202Y041115D01*
X020199Y041116D01*
X020194Y041116D01*
X020189Y041117D01*
X020184Y041118D01*
X020179Y041118D01*
X020173Y041119D01*
X020166Y041119D01*
X020160Y041119D01*
X020160Y041119D01*
X020161Y041118D01*
X020162Y041117D01*
X020165Y041115D01*
X020169Y041112D01*
X020173Y041108D01*
X020177Y041103D01*
X020181Y041098D01*
X020184Y041092D01*
Y041092D01*
X020185Y041091D01*
X020185Y041091D01*
X020186Y041089D01*
X020186Y041088D01*
X020187Y041086D01*
X020189Y041082D01*
X020190Y041077D01*
X020192Y041071D01*
X020193Y041065D01*
X020193Y041058D01*
Y041057D01*
X020193Y041055D01*
Y041053D01*
X020192Y041050D01*
X020192Y041047D01*
X020191Y041044D01*
X020190Y041040D01*
X020189Y041036D01*
X020187Y041032D01*
X020186Y041027D01*
X020183Y041023D01*
X020181Y041018D01*
X020178Y041014D01*
X020174Y041009D01*
X020170Y041005D01*
X020170Y041005D01*
X020169Y041005D01*
X020168Y041003D01*
X020166Y041002D01*
X020164Y041000D01*
X020161Y040999D01*
X020158Y040996D01*
X020154Y040994D01*
X020150Y040993D01*
X020146Y040990D01*
X020141Y040989D01*
X020136Y040987D01*
X020130Y040985D01*
X020124Y040984D01*
X020118Y040984D01*
X020111Y040984D01*
X020111D01*
X020110D01*
X020109D01*
X020107Y040984D01*
X020105D01*
X020103Y040984D01*
X020100Y040984D01*
X020097Y040985D01*
X020090Y040986D01*
X020083Y040988D01*
X020075Y040990D01*
X020067Y040994D01*
X020067D01*
X020066Y040994D01*
X020065Y040995D01*
X020064Y040996D01*
X020062Y040997D01*
X020060Y040998D01*
X020056Y041001D01*
X020051Y041005D01*
X020045Y041010D01*
X020040Y041016D01*
X020036Y041022D01*
Y041022D01*
X020035Y041023D01*
X020035Y041024D01*
X020034Y041025D01*
X020033Y041027D01*
X020033Y041029D01*
X020032Y041031D01*
X020031Y041034D01*
X020029Y041040D01*
X020027Y041047D01*
X020026Y041055D01*
X020025Y041063D01*
Y041064D01*
X020026Y041067D01*
X020026Y041069D01*
X020026Y041073D01*
X020027Y041076D01*
X020028Y041080D01*
X020029Y041085D01*
X020030Y041090D01*
X020032Y041095D01*
X020035Y041100D01*
X020037Y041106D01*
X020041Y041111D01*
X020044Y041116D01*
X020049Y041121D01*
X020054Y041126D01*
X020054Y041126D01*
X020055Y041127D01*
X020057Y041128D01*
X020059Y041130D01*
X020062Y041132D01*
X020066Y041133D01*
X020071Y041136D01*
X020076Y041138D01*
X020082Y041140D01*
X020089Y041142D01*
X020097Y041144D01*
X020105Y041146D01*
X020114Y041148D01*
X020124Y041149D01*
X020135Y041150D01*
X020147Y041150D01*
X020147D01*
X020148D01*
X020149D01*
X020150D01*
X020152D01*
X020154Y041150D01*
D02*
G37*
%LPC*%
G36*
X050952Y050063D02*
X050877D01*
X050875Y050063D01*
X050873D01*
X050867Y050062D01*
X050862Y050062D01*
X050856Y050061D01*
X050850Y050060D01*
X050845Y050058D01*
X050844D01*
X050844Y050058D01*
X050843Y050057D01*
X050840Y050056D01*
X050837Y050055D01*
X050834Y050052D01*
X050831Y050050D01*
X050828Y050047D01*
X050825Y050043D01*
X050825Y050043D01*
X050824Y050041D01*
X050823Y050039D01*
X050822Y050036D01*
X050820Y050033D01*
X050819Y050029D01*
X050819Y050025D01*
X050818Y050020D01*
Y050020D01*
Y050020D01*
Y050019D01*
X050819Y050017D01*
Y050016D01*
X050819Y050014D01*
X050820Y050010D01*
X050822Y050005D01*
X050824Y050001D01*
X050827Y049996D01*
X050829Y049993D01*
X050831Y049991D01*
X050832Y049991D01*
X050832Y049991D01*
X050833Y049990D01*
X050834Y049989D01*
X050835Y049989D01*
X050837Y049987D01*
X050839Y049986D01*
X050841Y049985D01*
X050844Y049984D01*
X050847Y049983D01*
X050850Y049982D01*
X050854Y049981D01*
X050858Y049981D01*
X050862Y049980D01*
X050867Y049980D01*
X050952D01*
Y050063D01*
D02*
G37*
G36*
X050466Y050182D02*
X050466D01*
X050464Y050182D01*
X050463D01*
X050461Y050182D01*
X050459Y050181D01*
X050454Y050180D01*
X050451Y050179D01*
X050448Y050177D01*
X050445Y050176D01*
X050442Y050174D01*
X050439Y050171D01*
X050436Y050169D01*
X050433Y050165D01*
X050431Y050162D01*
X050430Y050162D01*
X050430Y050161D01*
X050429Y050160D01*
X050428Y050158D01*
X050427Y050155D01*
X050426Y050152D01*
X050425Y050148D01*
X050423Y050144D01*
X050422Y050139D01*
X050421Y050133D01*
X050419Y050126D01*
X050418Y050118D01*
X050417Y050110D01*
X050416Y050101D01*
X050416Y050091D01*
X050416Y050079D01*
Y050079D01*
Y050079D01*
Y050078D01*
Y050077D01*
Y050075D01*
Y050074D01*
X050416Y050069D01*
X050416Y050064D01*
X050417Y050059D01*
X050417Y050052D01*
X050418Y050046D01*
X050419Y050032D01*
X050421Y050025D01*
X050422Y050019D01*
X050424Y050012D01*
X050426Y050006D01*
X050428Y050001D01*
X050431Y049997D01*
X050431Y049997D01*
X050431Y049996D01*
X050432Y049995D01*
X050433Y049994D01*
X050435Y049992D01*
X050436Y049990D01*
X050438Y049989D01*
X050440Y049987D01*
X050446Y049983D01*
X050452Y049980D01*
X050455Y049978D01*
X050459Y049977D01*
X050463Y049977D01*
X050467Y049977D01*
X050469D01*
X050470Y049977D01*
X050472Y049977D01*
X050474Y049977D01*
X050479Y049979D01*
X050484Y049981D01*
X050487Y049982D01*
X050490Y049984D01*
X050493Y049986D01*
X050496Y049989D01*
X050498Y049991D01*
X050501Y049995D01*
X050501Y049995D01*
X050501Y049996D01*
X050502Y049997D01*
X050503Y049999D01*
X050504Y050002D01*
X050506Y050005D01*
X050507Y050009D01*
X050509Y050014D01*
X050510Y050019D01*
X050512Y050025D01*
X050513Y050033D01*
X050514Y050040D01*
X050515Y050049D01*
X050516Y050058D01*
X050516Y050068D01*
X050517Y050079D01*
Y050080D01*
Y050080D01*
Y050081D01*
Y050082D01*
Y050084D01*
Y050085D01*
X050516Y050090D01*
X050516Y050094D01*
X050516Y050100D01*
X050516Y050106D01*
X050515Y050113D01*
X050513Y050127D01*
X050512Y050134D01*
X050511Y050141D01*
X050509Y050147D01*
X050507Y050153D01*
X050505Y050158D01*
X050502Y050162D01*
X050502Y050162D01*
X050502Y050163D01*
X050501Y050164D01*
X050499Y050165D01*
X050498Y050167D01*
X050496Y050168D01*
X050492Y050172D01*
X050487Y050176D01*
X050481Y050179D01*
X050478Y050180D01*
X050474Y050182D01*
X050470Y050182D01*
X050466Y050182D01*
D02*
G37*
G36*
X033666Y048999D02*
X033666D01*
X033665D01*
X033664D01*
X033663D01*
X033662D01*
X033660D01*
X033656Y048999D01*
X033651Y048999D01*
X033645Y048999D01*
X033639Y048998D01*
X033632Y048998D01*
X033618Y048996D01*
X033611Y048995D01*
X033605Y048993D01*
X033599Y048992D01*
X033593Y048990D01*
X033588Y048987D01*
X033583Y048985D01*
X033583Y048984D01*
X033583Y048984D01*
X033581Y048983D01*
X033580Y048982D01*
X033579Y048981D01*
X033577Y048979D01*
X033575Y048977D01*
X033573Y048975D01*
X033569Y048970D01*
X033566Y048963D01*
X033565Y048960D01*
X033564Y048956D01*
X033563Y048953D01*
X033563Y048949D01*
Y048947D01*
X033563Y048945D01*
X033563Y048944D01*
X033564Y048941D01*
X033565Y048936D01*
X033567Y048931D01*
X033569Y048928D01*
X033571Y048925D01*
X033572Y048922D01*
X033575Y048920D01*
X033578Y048917D01*
X033581Y048915D01*
X033581Y048914D01*
X033582Y048914D01*
X033583Y048913D01*
X033586Y048912D01*
X033588Y048911D01*
X033592Y048910D01*
X033595Y048908D01*
X033600Y048907D01*
X033606Y048905D01*
X033612Y048904D01*
X033619Y048902D01*
X033626Y048901D01*
X033635Y048900D01*
X033645Y048900D01*
X033655Y048899D01*
X033666Y048899D01*
X033666D01*
X033667D01*
X033667D01*
X033669D01*
X033670D01*
X033672D01*
X033676Y048899D01*
X033681Y048899D01*
X033687Y048900D01*
X033693Y048900D01*
X033699Y048901D01*
X033713Y048902D01*
X033720Y048903D01*
X033727Y048905D01*
X033733Y048906D01*
X033739Y048909D01*
X033744Y048911D01*
X033749Y048913D01*
X033749Y048913D01*
X033749Y048914D01*
X033750Y048915D01*
X033752Y048916D01*
X033753Y048917D01*
X033755Y048919D01*
X033759Y048923D01*
X033762Y048928D01*
X033765Y048934D01*
X033767Y048938D01*
X033768Y048941D01*
X033768Y048945D01*
X033769Y048949D01*
Y048950D01*
X033768Y048951D01*
Y048953D01*
X033768Y048954D01*
X033768Y048957D01*
X033766Y048962D01*
X033765Y048964D01*
X033764Y048967D01*
X033762Y048970D01*
X033760Y048973D01*
X033758Y048976D01*
X033755Y048979D01*
X033752Y048982D01*
X033748Y048985D01*
X033748Y048985D01*
X033747Y048985D01*
X033746Y048986D01*
X033744Y048987D01*
X033742Y048988D01*
X033738Y048989D01*
X033735Y048991D01*
X033730Y048992D01*
X033725Y048993D01*
X033719Y048995D01*
X033712Y048996D01*
X033705Y048997D01*
X033696Y048998D01*
X033687Y048999D01*
X033677Y048999D01*
X033666Y048999D01*
D02*
G37*
G36*
X050797Y041302D02*
X050796D01*
X050796D01*
X050794D01*
X050792Y041302D01*
X050790Y041302D01*
X050787Y041302D01*
X050785Y041301D01*
X050781Y041301D01*
X050775Y041299D01*
X050768Y041296D01*
X050764Y041295D01*
X050761Y041293D01*
X050758Y041291D01*
X050755Y041288D01*
X050754Y041288D01*
X050754Y041288D01*
X050753Y041287D01*
X050752Y041286D01*
X050751Y041284D01*
X050750Y041283D01*
X050747Y041279D01*
X050744Y041274D01*
X050741Y041268D01*
X050740Y041265D01*
X050739Y041261D01*
X050739Y041258D01*
X050739Y041254D01*
Y041252D01*
X050739Y041251D01*
X050739Y041249D01*
X050740Y041247D01*
X050741Y041242D01*
X050743Y041236D01*
X050744Y041233D01*
X050746Y041230D01*
X050748Y041227D01*
X050750Y041224D01*
X050753Y041221D01*
X050756Y041218D01*
X050756Y041218D01*
X050757Y041217D01*
X050757Y041217D01*
X050759Y041216D01*
X050760Y041214D01*
X050763Y041213D01*
X050765Y041212D01*
X050767Y041211D01*
X050770Y041209D01*
X050774Y041208D01*
X050777Y041207D01*
X050781Y041205D01*
X050790Y041204D01*
X050794Y041203D01*
X050799Y041203D01*
X050800D01*
X050800D01*
X050802D01*
X050803Y041203D01*
X050805Y041204D01*
X050808Y041204D01*
X050813Y041205D01*
X050820Y041207D01*
X050826Y041209D01*
X050829Y041211D01*
X050832Y041213D01*
X050835Y041215D01*
X050838Y041217D01*
X050839Y041217D01*
X050839Y041218D01*
X050840Y041219D01*
X050841Y041220D01*
X050842Y041221D01*
X050843Y041223D01*
X050844Y041225D01*
X050846Y041227D01*
X050848Y041232D01*
X050851Y041238D01*
X050853Y041246D01*
X050853Y041249D01*
X050853Y041253D01*
Y041255D01*
X050853Y041257D01*
X050853Y041259D01*
X050852Y041261D01*
X050851Y041266D01*
X050850Y041271D01*
X050847Y041277D01*
X050845Y041280D01*
X050843Y041283D01*
X050841Y041286D01*
X050838Y041288D01*
X050838Y041289D01*
X050838Y041289D01*
X050837Y041290D01*
X050836Y041291D01*
X050834Y041292D01*
X050832Y041293D01*
X050830Y041294D01*
X050827Y041296D01*
X050825Y041297D01*
X050821Y041298D01*
X050818Y041299D01*
X050814Y041300D01*
X050810Y041301D01*
X050806Y041302D01*
X050802Y041302D01*
X050797Y041302D01*
D02*
G37*
G36*
X020160Y041119D02*
X020159D01*
X020160Y041119D01*
X020160Y041119D01*
D02*
G37*
G36*
X020111Y041115D02*
X020111D01*
X020110D01*
X020109D01*
X020108D01*
X020107Y041114D01*
X020105D01*
X020101Y041114D01*
X020097Y041113D01*
X020091Y041112D01*
X020086Y041110D01*
X020080Y041108D01*
X020080D01*
X020080Y041108D01*
X020079Y041107D01*
X020078Y041107D01*
X020076Y041105D01*
X020072Y041103D01*
X020069Y041100D01*
X020065Y041097D01*
X020062Y041094D01*
X020058Y041089D01*
Y041089D01*
X020058Y041089D01*
X020057Y041087D01*
X020056Y041085D01*
X020055Y041081D01*
X020053Y041077D01*
X020052Y041073D01*
X020051Y041068D01*
X020051Y041063D01*
Y041061D01*
X020051Y041060D01*
X020051Y041058D01*
X020052Y041056D01*
X020053Y041052D01*
X020055Y041046D01*
X020056Y041043D01*
X020057Y041041D01*
X020059Y041038D01*
X020061Y041035D01*
X020064Y041032D01*
X020066Y041029D01*
X020067Y041029D01*
X020067Y041029D01*
X020068Y041028D01*
X020069Y041027D01*
X020071Y041026D01*
X020073Y041025D01*
X020075Y041024D01*
X020078Y041022D01*
X020080Y041021D01*
X020084Y041020D01*
X020087Y041018D01*
X020091Y041017D01*
X020095Y041017D01*
X020100Y041016D01*
X020104Y041015D01*
X020109Y041015D01*
X020110D01*
X020110D01*
X020112D01*
X020114Y041015D01*
X020116Y041016D01*
X020118Y041016D01*
X020121Y041016D01*
X020124Y041017D01*
X020131Y041018D01*
X020137Y041021D01*
X020141Y041023D01*
X020144Y041024D01*
X020147Y041027D01*
X020150Y041029D01*
X020151Y041029D01*
X020151Y041030D01*
X020152Y041031D01*
X020153Y041032D01*
X020154Y041033D01*
X020155Y041035D01*
X020158Y041039D01*
X020161Y041044D01*
X020163Y041050D01*
X020165Y041057D01*
X020165Y041061D01*
X020166Y041064D01*
Y041066D01*
X020165Y041068D01*
X020165Y041070D01*
X020165Y041072D01*
X020164Y041077D01*
X020162Y041082D01*
X020159Y041088D01*
X020157Y041091D01*
X020156Y041094D01*
X020153Y041097D01*
X020150Y041100D01*
X020150Y041100D01*
X020150Y041101D01*
X020149Y041101D01*
X020148Y041102D01*
X020146Y041103D01*
X020144Y041105D01*
X020142Y041106D01*
X020140Y041107D01*
X020137Y041109D01*
X020134Y041110D01*
X020127Y041112D01*
X020120Y041114D01*
X020115Y041114D01*
X020111Y041115D01*
D02*
G37*
%LPD*%
D11*
X050394Y049930D02*
X051577D01*
X050394D02*
Y050486D01*
X051577D01*
Y049930D02*
Y050486D01*
X030393Y045103D02*
X037047D01*
Y051757D01*
X030393D02*
X037047D01*
X030393Y045103D02*
Y051757D01*
X050341Y040162D02*
X051739D01*
Y041698D01*
X050341D02*
X051739D01*
X050341Y040162D02*
Y041698D01*
X020782Y040563D02*
Y042217D01*
X019129Y040563D02*
X020782D01*
X019129D02*
Y042217D01*
X020782D01*
M02*
