G04*
G04 #@! TF.GenerationSoftware,Altium Limited,Altium Designer,21.5.1 (32)*
G04*
G04 Layer_Color=128*
%FSAX24Y24*%
%MOIN*%
G70*
G04*
G04 #@! TF.SameCoordinates,EA95429E-239C-4F57-B086-3AFABEEF507B*
G04*
G04*
G04 #@! TF.FilePolarity,Positive*
G04*
G01*
G75*
%ADD241C,0.0020*%
D241*
X052068Y044601D02*
X052462D01*
X052265Y044404D02*
Y044798D01*
X052068Y048814D02*
X052462D01*
X052265Y048617D02*
Y049011D01*
X052763Y043360D02*
X053197D01*
X052980Y043143D02*
Y043577D01*
X045701Y041024D02*
X046371D01*
X046036Y040689D02*
Y041359D01*
X047709Y041024D02*
X048379D01*
X048044Y040689D02*
Y041359D01*
X047709Y039016D02*
X048379D01*
X048044Y038681D02*
Y039351D01*
X045701Y039016D02*
X046371D01*
X046036Y038681D02*
Y039351D01*
X046705Y040020D02*
X047375D01*
X047040Y039685D02*
Y040355D01*
X052763Y042360D02*
X053197D01*
X052980Y042143D02*
Y042577D01*
X052763Y041360D02*
X053197D01*
X052980Y041143D02*
Y041577D01*
X049223Y039200D02*
X049537D01*
X049380Y039043D02*
Y039357D01*
X050223Y038200D02*
X050537D01*
X050380Y038043D02*
Y038357D01*
X049223Y037200D02*
X049537D01*
X049380Y037043D02*
Y037357D01*
X044529Y047214D02*
X045199D01*
X044864Y046879D02*
Y047549D01*
X045533Y048218D02*
X046203D01*
X045868Y047883D02*
Y048553D01*
X043525Y048218D02*
X044195D01*
X043860Y047883D02*
Y048553D01*
X043525Y046210D02*
X044195D01*
X043860Y045875D02*
Y046545D01*
X045533Y046210D02*
X046203D01*
X045868Y045875D02*
Y046545D01*
X033403Y040600D02*
X033837D01*
X033620Y040383D02*
Y040817D01*
X031403Y040600D02*
X031837D01*
X031620Y040383D02*
Y040817D01*
X032403Y040600D02*
X032837D01*
X032620Y040383D02*
Y040817D01*
X034403Y040600D02*
X034837D01*
X034620Y040383D02*
Y040817D01*
X035403Y040600D02*
X035837D01*
X035620Y040383D02*
Y040817D01*
X044249Y038976D02*
X044919D01*
X044584Y038641D02*
Y039311D01*
X042241Y038976D02*
X042911D01*
X042576Y038641D02*
Y039311D01*
X042241Y040984D02*
X042911D01*
X042576Y040649D02*
Y041319D01*
X044249Y040984D02*
X044919D01*
X044584Y040649D02*
Y041319D01*
X043245Y039980D02*
X043915D01*
X043580Y039645D02*
Y040315D01*
X050383Y018480D02*
X050817D01*
X050600Y018263D02*
Y018697D01*
X051383Y018480D02*
X051817D01*
X051600Y018263D02*
Y018697D01*
X029903Y038840D02*
X030337D01*
X030120Y038623D02*
Y039057D01*
X030903Y038840D02*
X031337D01*
X031120Y038623D02*
Y039057D01*
X029873Y035840D02*
X030307D01*
X030090Y035623D02*
Y036057D01*
X030873Y035840D02*
X031307D01*
X031090Y035623D02*
Y036057D01*
X029363Y053400D02*
X029757D01*
X029560Y053203D02*
Y053597D01*
X026363Y053400D02*
X026757D01*
X026560Y053203D02*
Y053597D01*
X027363Y053400D02*
X027757D01*
X027560Y053203D02*
Y053597D01*
X028363Y053400D02*
X028757D01*
X028560Y053203D02*
Y053597D01*
X030363Y053400D02*
X030757D01*
X030560Y053203D02*
Y053597D01*
X015857Y044189D02*
X016054D01*
X015955Y044091D02*
Y044287D01*
X015857Y041591D02*
X016054D01*
X015955Y041492D02*
Y041689D01*
X018083Y036720D02*
X018477D01*
X018280Y036523D02*
Y036917D01*
X019323Y034830D02*
X019717D01*
X019520Y034633D02*
Y035027D01*
X020465Y036720D02*
X020859D01*
X020662Y036523D02*
Y036917D01*
X050989Y023440D02*
X053351D01*
X052170Y022259D02*
Y024621D01*
X050989Y033283D02*
X053351D01*
X052170Y032101D02*
Y034464D01*
X041146Y033283D02*
X043509D01*
X042327Y032101D02*
Y034464D01*
X041146Y023440D02*
X043509D01*
X042327Y022259D02*
Y024621D01*
X046028Y019306D02*
X046422D01*
X046225Y019109D02*
Y019503D01*
X047028Y019306D02*
X047422D01*
X047225Y019109D02*
Y019503D01*
X048028Y019306D02*
X048422D01*
X048225Y019109D02*
Y019503D01*
X017145Y048268D02*
X017547D01*
X017346Y048068D02*
Y048469D01*
X017744Y051320D02*
X018145D01*
X017944Y051119D02*
Y051520D01*
X017744Y047304D02*
X018145D01*
X017944Y047103D02*
Y047505D01*
X017145Y052284D02*
X017547D01*
X017346Y052083D02*
Y052485D01*
X021600Y049544D02*
X021950D01*
X021775Y049369D02*
Y049719D01*
X022600Y050044D02*
X022950D01*
X022775Y049869D02*
Y050219D01*
X022600Y049044D02*
X022950D01*
X022775Y048869D02*
Y049219D01*
X021600Y050544D02*
X021950D01*
X021775Y050369D02*
Y050719D01*
X021600Y048544D02*
X021950D01*
X021775Y048369D02*
Y048719D01*
X022600Y051044D02*
X022950D01*
X022775Y050869D02*
Y051219D01*
X022600Y048044D02*
X022950D01*
X022775Y047869D02*
Y048219D01*
X021600Y051544D02*
X021950D01*
X021775Y051369D02*
Y051719D01*
X020167Y046694D02*
X020785D01*
X020476Y046385D02*
Y047003D01*
X020167Y052894D02*
X020785D01*
X020476Y052585D02*
Y053203D01*
X018635Y047544D02*
X019915D01*
X019275Y046904D02*
Y048184D01*
X018635Y052044D02*
X019915D01*
X019275Y051404D02*
Y052684D01*
X049446Y048168D02*
X049564D01*
X049505Y048109D02*
Y048227D01*
X049501Y048745D02*
X049619D01*
X049560Y048686D02*
Y048804D01*
X049781Y047780D02*
X049899D01*
X049840Y047721D02*
Y047839D01*
X049771Y049000D02*
X049889D01*
X049830Y048941D02*
Y049059D01*
X052111Y047770D02*
X052229D01*
X052170Y047711D02*
Y047829D01*
X050961Y046870D02*
X051079D01*
X051020Y046811D02*
Y046929D01*
X050981Y048130D02*
X051099D01*
X051040Y048071D02*
Y048189D01*
X054141Y046870D02*
X054259D01*
X054200Y046811D02*
Y046929D01*
X054141Y046550D02*
X054259D01*
X054200Y046491D02*
Y046609D01*
X054141Y045920D02*
X054259D01*
X054200Y045861D02*
Y045979D01*
X054141Y047810D02*
X054259D01*
X054200Y047751D02*
Y047869D01*
X054141Y047480D02*
X054259D01*
X054200Y047421D02*
Y047539D01*
X054141Y046230D02*
X054259D01*
X054200Y046171D02*
Y046289D01*
X054131Y047170D02*
X054249D01*
X054190Y047111D02*
Y047229D01*
X054131Y048130D02*
X054249D01*
X054190Y048071D02*
Y048189D01*
X054121Y045640D02*
X054239D01*
X054180Y045581D02*
Y045699D01*
X054111Y045280D02*
X054229D01*
X054170Y045221D02*
Y045339D01*
X053286Y045442D02*
X053404D01*
X053345Y045383D02*
Y045501D01*
X053116Y046342D02*
X053234D01*
X053175Y046283D02*
Y046401D01*
X052666Y045472D02*
X052784D01*
X052725Y045413D02*
Y045531D01*
X052236Y047202D02*
X052354D01*
X052295Y047143D02*
Y047261D01*
X050971Y047490D02*
X051089D01*
X051030Y047431D02*
Y047549D01*
X050961Y045940D02*
X051079D01*
X051020Y045881D02*
Y045999D01*
X050961Y045300D02*
X051079D01*
X051020Y045241D02*
Y045359D01*
X038081Y048220D02*
X038199D01*
X038140Y048161D02*
Y048279D01*
X048246Y048728D02*
X048364D01*
X048305Y048669D02*
Y048787D01*
X050076Y048728D02*
X050194D01*
X050135Y048669D02*
Y048787D01*
X044931Y048040D02*
X045049D01*
X044990Y047981D02*
Y048099D01*
X046351Y046870D02*
X046469D01*
X046410Y046811D02*
Y046929D01*
X043271Y044670D02*
X043389D01*
X043330Y044611D02*
Y044729D01*
X044581Y043330D02*
X044699D01*
X044640Y043271D02*
Y043389D01*
X043921Y043960D02*
X044039D01*
X043980Y043901D02*
Y044019D01*
X042781Y045120D02*
X042899D01*
X042840Y045061D02*
Y045179D01*
X041761Y048200D02*
X041879D01*
X041820Y048141D02*
Y048259D01*
X040691Y049100D02*
X040809D01*
X040750Y049041D02*
Y049159D01*
X039411Y047160D02*
X039529D01*
X039470Y047101D02*
Y047219D01*
X040661Y047140D02*
X040779D01*
X040720Y047081D02*
Y047199D01*
X039581Y049100D02*
X039699D01*
X039640Y049041D02*
Y049159D01*
X048811Y051170D02*
X048929D01*
X048870Y051111D02*
Y051229D01*
X049601Y051180D02*
X049719D01*
X049660Y051121D02*
Y051239D01*
X049631Y051960D02*
X049749D01*
X049690Y051901D02*
Y052019D01*
X048861Y051970D02*
X048979D01*
X048920Y051911D02*
Y052029D01*
X048436Y050778D02*
X048554D01*
X048495Y050719D02*
Y050837D01*
X051151Y052550D02*
X051269D01*
X051210Y052491D02*
Y052609D01*
X051721Y052746D02*
X051839D01*
X051780Y052687D02*
Y052805D01*
X051486Y053348D02*
X051604D01*
X051545Y053289D02*
Y053407D01*
X051893Y051902D02*
X052011D01*
X051952Y051843D02*
Y051961D01*
X050021Y052440D02*
X050139D01*
X050080Y052381D02*
Y052499D01*
X050346Y052538D02*
X050464D01*
X050405Y052479D02*
Y052597D01*
X052501Y051050D02*
X052619D01*
X052560Y050991D02*
Y051109D01*
X052671Y053100D02*
X052789D01*
X052730Y053041D02*
Y053159D01*
X051631Y051700D02*
X051749D01*
X051690Y051641D02*
Y051759D01*
X047761Y052630D02*
X047879D01*
X047820Y052571D02*
Y052689D01*
X049401Y050230D02*
X049519D01*
X049460Y050171D02*
Y050289D01*
X049031Y050260D02*
X049149D01*
X049090Y050201D02*
Y050319D01*
X046151Y051880D02*
X046269D01*
X046210Y051821D02*
Y051939D01*
X046831Y051880D02*
X046949D01*
X046890Y051821D02*
Y051939D01*
X046601Y051880D02*
X046719D01*
X046660Y051821D02*
Y051939D01*
X046831Y051410D02*
X046949D01*
X046890Y051351D02*
Y051469D01*
X046601Y051410D02*
X046719D01*
X046660Y051351D02*
Y051469D01*
X046831Y052110D02*
X046949D01*
X046890Y052051D02*
Y052169D01*
X046601Y052110D02*
X046719D01*
X046660Y052051D02*
Y052169D01*
X046831Y051640D02*
X046949D01*
X046890Y051581D02*
Y051699D01*
X046601Y051640D02*
X046719D01*
X046660Y051581D02*
Y051699D01*
X046381Y051880D02*
X046499D01*
X046440Y051821D02*
Y051939D01*
X046381Y052110D02*
X046499D01*
X046440Y052051D02*
Y052169D01*
X046151Y052110D02*
X046269D01*
X046210Y052051D02*
Y052169D01*
X046391Y051420D02*
X046509D01*
X046450Y051361D02*
Y051479D01*
X046391Y051650D02*
X046509D01*
X046450Y051591D02*
Y051709D01*
X046161Y051420D02*
X046279D01*
X046220Y051361D02*
Y051479D01*
X046161Y051650D02*
X046279D01*
X046220Y051591D02*
Y051709D01*
X049234Y051581D02*
X049352D01*
X049293Y051522D02*
Y051640D01*
X050266Y051226D02*
X050384D01*
X050325Y051167D02*
Y051285D01*
X049466Y049808D02*
X049584D01*
X049525Y049749D02*
Y049867D01*
X047656Y050368D02*
X047774D01*
X047715Y050309D02*
Y050427D01*
X048096Y051878D02*
X048214D01*
X048155Y051819D02*
Y051937D01*
X048416Y053488D02*
X048534D01*
X048475Y053429D02*
Y053547D01*
X048476Y052628D02*
X048594D01*
X048535Y052569D02*
Y052687D01*
X050126Y053718D02*
X050244D01*
X050185Y053659D02*
Y053777D01*
X050106Y053318D02*
X050224D01*
X050165Y053259D02*
Y053377D01*
X047766Y052278D02*
X047884D01*
X047825Y052219D02*
Y052337D01*
X050006Y050778D02*
X050124D01*
X050065Y050719D02*
Y050837D01*
X052066Y051638D02*
X052184D01*
X052125Y051579D02*
Y051697D01*
X040691Y046810D02*
X040809D01*
X040750Y046751D02*
Y046869D01*
X040671Y046270D02*
X040789D01*
X040730Y046211D02*
Y046329D01*
X042401Y046290D02*
X042519D01*
X042460Y046231D02*
Y046349D01*
X027571Y017740D02*
X027689D01*
X027630Y017681D02*
Y017799D01*
X027151Y017940D02*
X027269D01*
X027210Y017881D02*
Y017999D01*
X027361Y017940D02*
X027479D01*
X027420Y017881D02*
Y017999D01*
X027361Y018150D02*
X027479D01*
X027420Y018091D02*
Y018209D01*
X027671Y043240D02*
X027789D01*
X027730Y043181D02*
Y043299D01*
X027671Y043440D02*
X027789D01*
X027730Y043381D02*
Y043499D01*
X027891Y043240D02*
X028009D01*
X027950Y043181D02*
Y043299D01*
X027891Y043650D02*
X028009D01*
X027950Y043591D02*
Y043709D01*
X027891Y043440D02*
X028009D01*
X027950Y043381D02*
Y043499D01*
X027161Y017740D02*
X027279D01*
X027220Y017681D02*
Y017799D01*
X027371Y017740D02*
X027489D01*
X027430Y017681D02*
Y017799D01*
X036811Y020440D02*
X036929D01*
X036870Y020381D02*
Y020499D01*
X037561Y020450D02*
X037679D01*
X037620Y020391D02*
Y020509D01*
X039081Y018050D02*
X039199D01*
X039140Y017991D02*
Y018109D01*
X038281Y018060D02*
X038399D01*
X038340Y018001D02*
Y018119D01*
X039891Y018484D02*
X040009D01*
X039950Y018425D02*
Y018543D01*
X029101Y048810D02*
X029219D01*
X029160Y048751D02*
Y048869D01*
X029211Y046550D02*
X029329D01*
X029270Y046491D02*
Y046609D01*
X028361Y043721D02*
X028480D01*
X028421Y043661D02*
Y043780D01*
X028581Y049072D02*
X028699D01*
X028640Y049013D02*
Y049131D01*
X028351Y047240D02*
X028469D01*
X028410Y047181D02*
Y047299D01*
X023751Y039920D02*
X023869D01*
X023810Y039861D02*
Y039979D01*
X038511Y047660D02*
X038629D01*
X038570Y047601D02*
Y047719D01*
X038881Y048290D02*
X038999D01*
X038940Y048231D02*
Y048349D01*
X039431Y048500D02*
X039549D01*
X039490Y048441D02*
Y048559D01*
X039041Y047750D02*
X039159D01*
X039100Y047691D02*
Y047809D01*
X039701Y050310D02*
X039819D01*
X039760Y050251D02*
Y050369D01*
X046461Y041880D02*
X046579D01*
X046520Y041821D02*
Y041939D01*
X047351Y041640D02*
X047469D01*
X047410Y041581D02*
Y041699D01*
X047331Y042400D02*
X047449D01*
X047390Y042341D02*
Y042459D01*
X046301Y042830D02*
X046419D01*
X046360Y042771D02*
Y042889D01*
X045330Y042736D02*
X045448D01*
X045389Y042677D02*
Y042795D01*
X042181Y045170D02*
X042299D01*
X042240Y045111D02*
Y045229D01*
X041441Y045200D02*
X041559D01*
X041500Y045141D02*
Y045259D01*
X040611Y045270D02*
X040729D01*
X040670Y045211D02*
Y045329D01*
X039641Y045310D02*
X039759D01*
X039700Y045251D02*
Y045369D01*
X039041Y045890D02*
X039159D01*
X039100Y045831D02*
Y045949D01*
X038201Y046140D02*
X038319D01*
X038260Y046081D02*
Y046199D01*
X038281Y046710D02*
X038399D01*
X038340Y046651D02*
Y046769D01*
X037821Y046810D02*
X037939D01*
X037880Y046751D02*
Y046869D01*
X037301Y046800D02*
X037419D01*
X037360Y046741D02*
Y046859D01*
X046011Y043430D02*
X046129D01*
X046070Y043371D02*
Y043489D01*
X045400Y043486D02*
X045518D01*
X045459Y043427D02*
Y043545D01*
X044861Y044010D02*
X044979D01*
X044920Y043951D02*
Y044069D01*
X044230Y044656D02*
X044348D01*
X044289Y044597D02*
Y044715D01*
X043760Y045146D02*
X043878D01*
X043819Y045087D02*
Y045205D01*
X042291Y047170D02*
X042409D01*
X042350Y047111D02*
Y047229D01*
X042721Y045900D02*
X042839D01*
X042780Y045841D02*
Y045959D01*
X041891Y045920D02*
X042009D01*
X041950Y045861D02*
Y045979D01*
X041102Y045896D02*
X041221D01*
X041161Y045837D02*
Y045955D01*
X040171Y045880D02*
X040289D01*
X040230Y045821D02*
Y045939D01*
X041351Y046630D02*
X041469D01*
X041410Y046571D02*
Y046689D01*
X030471Y052332D02*
X030589D01*
X030530Y052273D02*
Y052391D01*
X028401Y052175D02*
X028519D01*
X028460Y052116D02*
Y052234D01*
X029191Y046930D02*
X029309D01*
X029250Y046871D02*
Y046989D01*
X037031Y045830D02*
X037149D01*
X037090Y045771D02*
Y045889D01*
X034047Y045919D02*
X034166D01*
X034107Y045860D02*
Y045979D01*
X038371Y042500D02*
X038489D01*
X038430Y042441D02*
Y042559D01*
X031731Y041570D02*
X031849D01*
X031790Y041511D02*
Y041629D01*
X033681Y042800D02*
X033799D01*
X033740Y042741D02*
Y042859D01*
X037861Y042240D02*
X037979D01*
X037920Y042181D02*
Y042299D01*
X029427Y045858D02*
X029545D01*
X029486Y045799D02*
Y045917D01*
X037641Y042400D02*
X037759D01*
X037700Y042341D02*
Y042459D01*
X030201Y046260D02*
X030319D01*
X030260Y046201D02*
Y046319D01*
X030101Y047444D02*
X030219D01*
X030160Y047385D02*
Y047503D01*
X030126Y047691D02*
X030244D01*
X030185Y047632D02*
Y047750D01*
X038611Y038220D02*
X038729D01*
X038670Y038161D02*
Y038279D01*
X030121Y046950D02*
X030239D01*
X030180Y046891D02*
Y047009D01*
X040331Y046432D02*
X040449D01*
X040390Y046373D02*
Y046491D01*
X051341Y039150D02*
X051459D01*
X051400Y039091D02*
Y039209D01*
X051643Y041780D02*
X051761D01*
X051702Y041721D02*
Y041839D01*
X038521Y050130D02*
X038639D01*
X038580Y050071D02*
Y050189D01*
X032931Y052440D02*
X033049D01*
X032990Y052381D02*
Y052499D01*
X032031Y051960D02*
X032149D01*
X032090Y051901D02*
Y052019D01*
X034561Y050510D02*
X034679D01*
X034620Y050451D02*
Y050569D01*
X035181Y050210D02*
X035299D01*
X035240Y050151D02*
Y050269D01*
X034091Y044860D02*
X034209D01*
X034150Y044801D02*
Y044919D01*
X038951Y051940D02*
X039069D01*
X039010Y051881D02*
Y051999D01*
X037521Y053140D02*
X037639D01*
X037580Y053081D02*
Y053199D01*
X037861Y051930D02*
X037979D01*
X037920Y051871D02*
Y051989D01*
X039561Y053410D02*
X039679D01*
X039620Y053351D02*
Y053469D01*
X039191Y053400D02*
X039309D01*
X039250Y053341D02*
Y053459D01*
X039221Y052770D02*
X039339D01*
X039280Y052711D02*
Y052829D01*
X039981Y052790D02*
X040099D01*
X040040Y052731D02*
Y052849D01*
X039601Y052790D02*
X039719D01*
X039660Y052731D02*
Y052849D01*
X039611Y051890D02*
X039729D01*
X039670Y051831D02*
Y051949D01*
X034531Y041840D02*
X034649D01*
X034590Y041781D02*
Y041899D01*
X032038Y043020D02*
X032156D01*
X032097Y042961D02*
Y043079D01*
X032636Y042995D02*
X032754D01*
X032695Y042936D02*
Y043054D01*
X035582Y042441D02*
X035700D01*
X035641Y042382D02*
Y042500D01*
X037301Y043060D02*
X037419D01*
X037360Y043001D02*
Y043119D01*
X037871Y042830D02*
X037989D01*
X037930Y042771D02*
Y042889D01*
X038861Y039620D02*
X038979D01*
X038920Y039561D02*
Y039679D01*
X038781Y042650D02*
X038899D01*
X038840Y042591D02*
Y042709D01*
X038811Y043020D02*
X038929D01*
X038870Y042961D02*
Y043079D01*
X038801Y040800D02*
X038919D01*
X038860Y040741D02*
Y040859D01*
X038861Y039290D02*
X038979D01*
X038920Y039231D02*
Y039349D01*
X039081Y037160D02*
X039199D01*
X039140Y037101D02*
Y037219D01*
X041141Y036980D02*
X041259D01*
X041200Y036921D02*
Y037039D01*
X041111Y040310D02*
X041229D01*
X041170Y040251D02*
Y040369D01*
X040651Y038190D02*
X040769D01*
X040710Y038131D02*
Y038249D01*
X041121Y038990D02*
X041239D01*
X041180Y038931D02*
Y039049D01*
X040661Y041340D02*
X040779D01*
X040720Y041281D02*
Y041399D01*
X041141Y042090D02*
X041259D01*
X041200Y042031D02*
Y042149D01*
X038031Y038570D02*
X038149D01*
X038090Y038511D02*
Y038629D01*
X037631Y038580D02*
X037749D01*
X037690Y038521D02*
Y038639D01*
X037251Y038560D02*
X037369D01*
X037310Y038501D02*
Y038619D01*
X036841Y038550D02*
X036959D01*
X036900Y038491D02*
Y038609D01*
X037088Y039480D02*
X037206D01*
X037147Y039421D02*
Y039539D01*
X037391Y039390D02*
X037509D01*
X037450Y039331D02*
Y039449D01*
X037667Y039400D02*
X037786D01*
X037727Y039341D02*
Y039459D01*
X037901Y039481D02*
X038019D01*
X037960Y039422D02*
Y039540D01*
X030081Y049848D02*
X030199D01*
X030140Y049789D02*
Y049907D01*
X032678Y043840D02*
X032796D01*
X032737Y043781D02*
Y043899D01*
X033591Y048440D02*
X033709D01*
X033650Y048381D02*
Y048499D01*
X033931Y048670D02*
X034049D01*
X033990Y048611D02*
Y048729D01*
X034641Y049960D02*
X034759D01*
X034700Y049901D02*
Y050019D01*
X034271Y049630D02*
X034389D01*
X034330Y049571D02*
Y049689D01*
X035841Y049240D02*
X035959D01*
X035900Y049181D02*
Y049299D01*
X029841Y049270D02*
X029959D01*
X029900Y049211D02*
Y049329D01*
X035541Y049452D02*
X035659D01*
X035600Y049393D02*
Y049511D01*
X029581Y049500D02*
X029699D01*
X029640Y049441D02*
Y049559D01*
X027781Y049866D02*
X027899D01*
X027840Y049807D02*
Y049925D01*
X028621Y049900D02*
X028739D01*
X028680Y049841D02*
Y049959D01*
X036010Y050981D02*
X036128D01*
X036069Y050922D02*
Y051040D01*
X031071Y052180D02*
X031189D01*
X031130Y052121D02*
Y052239D01*
X035101Y052110D02*
X035219D01*
X035160Y052051D02*
Y052169D01*
X035841Y052100D02*
X035959D01*
X035900Y052041D02*
Y052159D01*
X030121Y046550D02*
X030239D01*
X030180Y046491D02*
Y046609D01*
X029824Y045867D02*
X029942D01*
X029883Y045808D02*
Y045926D01*
X028651Y050697D02*
X028769D01*
X028710Y050638D02*
Y050756D01*
X028607Y051094D02*
X028725D01*
X028666Y051035D02*
Y051153D01*
X027841Y051390D02*
X027959D01*
X027900Y051331D02*
Y051449D01*
X031061Y052540D02*
X031179D01*
X031120Y052481D02*
Y052599D01*
X029211Y047320D02*
X029329D01*
X029270Y047261D02*
Y047379D01*
X029221Y047720D02*
X029339D01*
X029280Y047661D02*
Y047779D01*
X031507Y051907D02*
X031625D01*
X031566Y051848D02*
Y051966D01*
X037711Y051050D02*
X037829D01*
X037770Y050991D02*
Y051109D01*
X037381Y051040D02*
X037499D01*
X037440Y050981D02*
Y051099D01*
X037157Y050556D02*
X037275D01*
X037216Y050497D02*
Y050615D01*
X037711Y045950D02*
X037829D01*
X037770Y045891D02*
Y046009D01*
X037341Y045990D02*
X037459D01*
X037400Y045931D02*
Y046049D01*
X033071Y045820D02*
X033189D01*
X033130Y045761D02*
Y045879D01*
X032531Y044280D02*
X032649D01*
X032590Y044221D02*
Y044339D01*
X032541Y044630D02*
X032659D01*
X032600Y044571D02*
Y044689D01*
X023039Y017303D02*
X023157D01*
X023098Y017244D02*
Y017362D01*
X018451Y020260D02*
X018569D01*
X018510Y020201D02*
Y020319D01*
X018451Y020020D02*
X018569D01*
X018510Y019961D02*
Y020079D01*
X018451Y019800D02*
X018569D01*
X018510Y019741D02*
Y019859D01*
X018451Y019580D02*
X018569D01*
X018510Y019521D02*
Y019639D01*
X018451Y019340D02*
X018569D01*
X018510Y019281D02*
Y019399D01*
X018701Y019350D02*
X018819D01*
X018760Y019291D02*
Y019409D01*
X018701Y019590D02*
X018819D01*
X018760Y019531D02*
Y019649D01*
X018701Y019810D02*
X018819D01*
X018760Y019751D02*
Y019869D01*
X018701Y020030D02*
X018819D01*
X018760Y019971D02*
Y020089D01*
X018701Y020270D02*
X018819D01*
X018760Y020211D02*
Y020329D01*
X047881Y045930D02*
X047999D01*
X047940Y045871D02*
Y045989D01*
X047761Y043190D02*
X047879D01*
X047820Y043131D02*
Y043249D01*
X050661Y041930D02*
X050779D01*
X050720Y041871D02*
Y041989D01*
X052061Y042730D02*
X052179D01*
X052120Y042671D02*
Y042789D01*
X024531Y048950D02*
X024649D01*
X024590Y048891D02*
Y049009D01*
X023671Y049100D02*
X023789D01*
X023730Y049041D02*
Y049159D01*
X043191Y052090D02*
X043309D01*
X043250Y052031D02*
Y052149D01*
X044301Y049880D02*
X044419D01*
X044360Y049821D02*
Y049939D01*
X044531Y048850D02*
X044649D01*
X044590Y048791D02*
Y048909D01*
X042571Y049010D02*
X042689D01*
X042630Y048951D02*
Y049069D01*
X045141Y048820D02*
X045259D01*
X045200Y048761D02*
Y048879D01*
X047121Y043510D02*
X047239D01*
X047180Y043451D02*
Y043569D01*
X050021Y040990D02*
X050139D01*
X050080Y040931D02*
Y041049D01*
X050611Y039690D02*
X050729D01*
X050670Y039631D02*
Y039749D01*
X050971Y039670D02*
X051089D01*
X051030Y039611D02*
Y039729D01*
X051941Y040890D02*
X052059D01*
X052000Y040831D02*
Y040949D01*
X051961Y042380D02*
X052079D01*
X052020Y042321D02*
Y042439D01*
X040311Y018490D02*
X040429D01*
X040370Y018431D02*
Y018549D01*
X040311Y018290D02*
X040429D01*
X040370Y018231D02*
Y018349D01*
X040101Y018490D02*
X040219D01*
X040160Y018431D02*
Y018549D01*
X040101Y018290D02*
X040219D01*
X040160Y018231D02*
Y018349D01*
X041541Y018550D02*
X041659D01*
X041600Y018491D02*
Y018609D01*
X041541Y019010D02*
X041659D01*
X041600Y018951D02*
Y019069D01*
X041861Y019010D02*
X041979D01*
X041920Y018951D02*
Y019069D01*
X041541Y018300D02*
X041659D01*
X041600Y018241D02*
Y018359D01*
X041861Y018550D02*
X041979D01*
X041920Y018491D02*
Y018609D01*
X041541Y018780D02*
X041659D01*
X041600Y018721D02*
Y018839D01*
X041861Y018300D02*
X041979D01*
X041920Y018241D02*
Y018359D01*
X042391Y042579D02*
X042509D01*
X042450Y042520D02*
Y042638D01*
X042371Y043629D02*
X042489D01*
X042430Y043570D02*
Y043688D01*
X040246Y043590D02*
X040364D01*
X040305Y043531D02*
Y043649D01*
X048971Y045530D02*
X049089D01*
X049030Y045471D02*
Y045589D01*
X048971Y047170D02*
X049089D01*
X049030Y047111D02*
Y047229D01*
X048351Y043720D02*
X048469D01*
X048410Y043661D02*
Y043779D01*
X047951Y043710D02*
X048069D01*
X048010Y043651D02*
Y043769D01*
X025641Y041520D02*
X025759D01*
X025700Y041461D02*
Y041579D01*
X025241Y042020D02*
X025359D01*
X025300Y041961D02*
Y042079D01*
X025391Y053010D02*
X025509D01*
X025450Y052951D02*
Y053069D01*
X025641Y053260D02*
X025759D01*
X025700Y053201D02*
Y053319D01*
X026641Y052030D02*
X026759D01*
X026700Y051971D02*
Y052089D01*
X025481Y051710D02*
X025599D01*
X025540Y051651D02*
Y051769D01*
X024994Y051680D02*
X025112D01*
X025053Y051621D02*
Y051739D01*
X026510Y051091D02*
X026628D01*
X026569Y051032D02*
Y051150D01*
X026091Y051060D02*
X026209D01*
X026150Y051001D02*
Y051119D01*
X036721Y042660D02*
X036839D01*
X036780Y042601D02*
Y042719D01*
X036711Y042990D02*
X036829D01*
X036770Y042931D02*
Y043049D01*
X034814Y044057D02*
X034932D01*
X034873Y043998D02*
Y044116D01*
X036247Y044309D02*
X036365D01*
X036306Y044250D02*
Y044368D01*
X019991Y042310D02*
X020109D01*
X020050Y042251D02*
Y042369D01*
X039891Y018290D02*
X040009D01*
X039950Y018231D02*
Y018349D01*
X040511Y018830D02*
X040629D01*
X040570Y018771D02*
Y018889D01*
X041861Y018780D02*
X041979D01*
X041920Y018721D02*
Y018839D01*
X026129Y049556D02*
X026259D01*
X026194Y049491D02*
Y049621D01*
X026129Y050028D02*
X026259D01*
X026194Y049963D02*
Y050093D01*
X026601Y049556D02*
X026731D01*
X026666Y049491D02*
Y049621D01*
X026601Y050028D02*
X026731D01*
X026666Y049963D02*
Y050093D01*
X026365Y049792D02*
X026495D01*
X026430Y049727D02*
Y049857D01*
X027561Y018150D02*
X027679D01*
X027620Y018091D02*
Y018209D01*
X027151Y018150D02*
X027269D01*
X027210Y018091D02*
Y018209D01*
X027561Y017940D02*
X027679D01*
X027620Y017881D02*
Y017999D01*
X045831Y053080D02*
X045949D01*
X045890Y053021D02*
Y053139D01*
X045091Y053070D02*
X045209D01*
X045150Y053011D02*
Y053129D01*
X044041Y053010D02*
X044159D01*
X044100Y052951D02*
Y053069D01*
X044421Y053020D02*
X044539D01*
X044480Y052961D02*
Y053079D01*
X047931Y048670D02*
X048049D01*
X047990Y048611D02*
Y048729D01*
X046651Y048260D02*
X046769D01*
X046710Y048201D02*
Y048319D01*
X046661Y047850D02*
X046779D01*
X046720Y047791D02*
Y047909D01*
X034718Y042840D02*
X034836D01*
X034777Y042781D02*
Y042899D01*
X026871Y050890D02*
X026989D01*
X026930Y050831D02*
Y050949D01*
X026281Y050830D02*
X026399D01*
X026340Y050771D02*
Y050889D01*
X043471Y052840D02*
X043589D01*
X043530Y052781D02*
Y052899D01*
X043461Y053220D02*
X043579D01*
X043520Y053161D02*
Y053279D01*
X043221Y052230D02*
X043339D01*
X043280Y052171D02*
Y052289D01*
X042491Y050880D02*
X042609D01*
X042550Y050821D02*
Y050939D01*
X042491Y050630D02*
X042609D01*
X042550Y050571D02*
Y050689D01*
X042711Y050630D02*
X042829D01*
X042770Y050571D02*
Y050689D01*
X041311Y052820D02*
X041429D01*
X041370Y052761D02*
Y052879D01*
X041081Y052820D02*
X041199D01*
X041140Y052761D02*
Y052879D01*
X040851Y052820D02*
X040969D01*
X040910Y052761D02*
Y052879D01*
X040601Y052820D02*
X040719D01*
X040660Y052761D02*
Y052879D01*
X041311Y052500D02*
X041429D01*
X041370Y052441D02*
Y052559D01*
X041081Y052500D02*
X041199D01*
X041140Y052441D02*
Y052559D01*
X040851Y052500D02*
X040969D01*
X040910Y052441D02*
Y052559D01*
X040601Y052500D02*
X040719D01*
X040660Y052441D02*
Y052559D01*
X041311Y053470D02*
X041429D01*
X041370Y053411D02*
Y053529D01*
X041081Y053470D02*
X041199D01*
X041140Y053411D02*
Y053529D01*
X040851Y053470D02*
X040969D01*
X040910Y053411D02*
Y053529D01*
X041311Y053150D02*
X041429D01*
X041370Y053091D02*
Y053209D01*
X041081Y053150D02*
X041199D01*
X041140Y053091D02*
Y053209D01*
X040851Y053150D02*
X040969D01*
X040910Y053091D02*
Y053209D01*
X040601Y053150D02*
X040719D01*
X040660Y053091D02*
Y053209D01*
X028411Y027950D02*
X028529D01*
X028470Y027891D02*
Y028009D01*
X028411Y027720D02*
X028529D01*
X028470Y027661D02*
Y027779D01*
X028411Y027490D02*
X028529D01*
X028470Y027431D02*
Y027549D01*
X028411Y027240D02*
X028529D01*
X028470Y027181D02*
Y027299D01*
X028731Y027950D02*
X028849D01*
X028790Y027891D02*
Y028009D01*
X028731Y027720D02*
X028849D01*
X028790Y027661D02*
Y027779D01*
X028731Y027490D02*
X028849D01*
X028790Y027431D02*
Y027549D01*
X028731Y027240D02*
X028849D01*
X028790Y027181D02*
Y027299D01*
X029011Y027950D02*
X029129D01*
X029070Y027891D02*
Y028009D01*
X029011Y027720D02*
X029129D01*
X029070Y027661D02*
Y027779D01*
X029011Y027490D02*
X029129D01*
X029070Y027431D02*
Y027549D01*
X029011Y027240D02*
X029129D01*
X029070Y027181D02*
Y027299D01*
X029331Y027950D02*
X029449D01*
X029390Y027891D02*
Y028009D01*
X029331Y027720D02*
X029449D01*
X029390Y027661D02*
Y027779D01*
X029331Y027490D02*
X029449D01*
X029390Y027431D02*
Y027549D01*
X029331Y027240D02*
X029449D01*
X029390Y027181D02*
Y027299D01*
X035671Y017660D02*
X035789D01*
X035730Y017601D02*
Y017719D01*
X035391Y017650D02*
X035509D01*
X035450Y017591D02*
Y017709D01*
X035131Y017660D02*
X035249D01*
X035190Y017601D02*
Y017719D01*
X034881Y017650D02*
X034999D01*
X034940Y017591D02*
Y017709D01*
X031721Y016640D02*
X031839D01*
X031780Y016581D02*
Y016699D01*
X032051Y016660D02*
X032169D01*
X032110Y016601D02*
Y016719D01*
X030446Y016815D02*
X030564D01*
X030505Y016756D02*
Y016874D01*
X029616Y016845D02*
X029734D01*
X029675Y016786D02*
Y016904D01*
X042711Y050880D02*
X042829D01*
X042770Y050821D02*
Y050939D01*
X042711Y051110D02*
X042829D01*
X042770Y051051D02*
Y051169D01*
X042711Y051340D02*
X042829D01*
X042770Y051281D02*
Y051399D01*
X042491Y051110D02*
X042609D01*
X042550Y051051D02*
Y051169D01*
X042491Y051340D02*
X042609D01*
X042550Y051281D02*
Y051399D01*
X042261Y050630D02*
X042379D01*
X042320Y050571D02*
Y050689D01*
X042261Y050880D02*
X042379D01*
X042320Y050821D02*
Y050939D01*
X042261Y051110D02*
X042379D01*
X042320Y051051D02*
Y051169D01*
X042261Y051340D02*
X042379D01*
X042320Y051281D02*
Y051399D01*
X026841Y045030D02*
X026959D01*
X026900Y044971D02*
Y045089D01*
X027091Y045030D02*
X027209D01*
X027150Y044971D02*
Y045089D01*
X027321Y045030D02*
X027439D01*
X027380Y044971D02*
Y045089D01*
X027551Y045030D02*
X027669D01*
X027610Y044971D02*
Y045089D01*
X027561Y045390D02*
X027679D01*
X027620Y045331D02*
Y045449D01*
X027331Y045390D02*
X027449D01*
X027390Y045331D02*
Y045449D01*
X027101Y045390D02*
X027219D01*
X027160Y045331D02*
Y045449D01*
X026851Y045390D02*
X026969D01*
X026910Y045331D02*
Y045449D01*
X027201Y046150D02*
X027319D01*
X027260Y046091D02*
Y046209D01*
X028141Y046100D02*
X028259D01*
X028200Y046041D02*
Y046159D01*
X026191Y044060D02*
X026309D01*
X026250Y044001D02*
Y044119D01*
X027671Y043650D02*
X027789D01*
X027730Y043591D02*
Y043709D01*
X027466Y052015D02*
X027584D01*
X027525Y051956D02*
Y052074D01*
X027066Y052005D02*
X027184D01*
X027125Y051946D02*
Y052064D01*
X024121Y046050D02*
X024239D01*
X024180Y045991D02*
Y046109D01*
X024121Y047030D02*
X024239D01*
X024180Y046971D02*
Y047089D01*
X023501Y052640D02*
X023619D01*
X023560Y052581D02*
Y052699D01*
X024575Y052644D02*
X024693D01*
X024634Y052585D02*
Y052703D01*
X024587Y053044D02*
X024705D01*
X024646Y052985D02*
Y053103D01*
X023625Y053044D02*
X023743D01*
X023684Y052985D02*
Y053103D01*
X026281Y048560D02*
X026399D01*
X026340Y048501D02*
Y048619D01*
X026081Y048720D02*
X026199D01*
X026140Y048661D02*
Y048779D01*
X025066Y052595D02*
X025184D01*
X025125Y052536D02*
Y052654D01*
X025516Y052605D02*
X025634D01*
X025575Y052546D02*
Y052664D01*
X025416Y048575D02*
X025534D01*
X025475Y048516D02*
Y048634D01*
X023821Y049770D02*
X023939D01*
X023880Y049711D02*
Y049829D01*
X023131Y049550D02*
X023249D01*
X023190Y049491D02*
Y049609D01*
X028151Y026520D02*
X028269D01*
X028210Y026461D02*
Y026579D01*
X028181Y025770D02*
X028299D01*
X028240Y025711D02*
Y025829D01*
X028091Y025050D02*
X028209D01*
X028150Y024991D02*
Y025109D01*
X028101Y024680D02*
X028219D01*
X028160Y024621D02*
Y024739D01*
X027241Y043290D02*
X027359D01*
X027300Y043231D02*
Y043349D01*
X027021Y043290D02*
X027139D01*
X027080Y043231D02*
Y043349D01*
X027241Y043490D02*
X027359D01*
X027300Y043431D02*
Y043549D01*
X027021Y043490D02*
X027139D01*
X027080Y043431D02*
Y043549D01*
X027021Y043700D02*
X027139D01*
X027080Y043641D02*
Y043759D01*
X027241Y043700D02*
X027359D01*
X027300Y043641D02*
Y043759D01*
X024461Y051230D02*
X024579D01*
X024520Y051171D02*
Y051289D01*
X024638Y048489D02*
X024756D01*
X024697Y048430D02*
Y048548D01*
X024201Y049850D02*
X024319D01*
X024260Y049791D02*
Y049909D01*
X024621Y047660D02*
X024739D01*
X024680Y047601D02*
Y047719D01*
X025011Y047670D02*
X025129D01*
X025070Y047611D02*
Y047729D01*
X025411Y047660D02*
X025529D01*
X025470Y047601D02*
Y047719D01*
X025821Y047680D02*
X025939D01*
X025880Y047621D02*
Y047739D01*
X027901Y047060D02*
X028019D01*
X027960Y047001D02*
Y047119D01*
X025611Y047040D02*
X025729D01*
X025670Y046981D02*
Y047099D01*
X027381Y048110D02*
X027499D01*
X027440Y048051D02*
Y048169D01*
X028621Y048710D02*
X028739D01*
X028680Y048651D02*
Y048769D01*
X028631Y050300D02*
X028749D01*
X028690Y050241D02*
Y050359D01*
X036597Y043479D02*
X036715D01*
X036656Y043420D02*
Y043538D01*
X022151Y034660D02*
X022269D01*
X022210Y034601D02*
Y034719D01*
X021851Y034650D02*
X021969D01*
X021910Y034591D02*
Y034709D01*
X021561Y034670D02*
X021679D01*
X021620Y034611D02*
Y034729D01*
X022081Y033830D02*
X022199D01*
X022140Y033771D02*
Y033889D01*
X023649Y017805D02*
X023767D01*
X023708Y017746D02*
Y017864D01*
X021341Y017670D02*
X021459D01*
X021400Y017611D02*
Y017729D01*
X033581Y021660D02*
X033699D01*
X033640Y021601D02*
Y021719D01*
X033251Y021650D02*
X033369D01*
X033310Y021591D02*
Y021709D01*
X032891Y021660D02*
X033009D01*
X032950Y021601D02*
Y021719D01*
X033581Y021990D02*
X033699D01*
X033640Y021931D02*
Y022049D01*
X033251Y021990D02*
X033369D01*
X033310Y021931D02*
Y022049D01*
X032891Y021990D02*
X033009D01*
X032950Y021931D02*
Y022049D01*
X033431Y019440D02*
X033549D01*
X033490Y019381D02*
Y019499D01*
X031921Y020370D02*
X032039D01*
X031980Y020311D02*
Y020429D01*
X041011Y017810D02*
X041129D01*
X041070Y017751D02*
Y017869D01*
X043451Y017450D02*
X043569D01*
X043510Y017391D02*
Y017509D01*
X042791Y017450D02*
X042909D01*
X042850Y017391D02*
Y017509D01*
X041041Y019420D02*
X041159D01*
X041100Y019361D02*
Y019479D01*
X043491Y019310D02*
X043609D01*
X043550Y019251D02*
Y019369D01*
X033441Y020870D02*
X033559D01*
X033500Y020811D02*
Y020929D01*
X034651Y020350D02*
X034769D01*
X034710Y020291D02*
Y020409D01*
X034061Y023750D02*
X034179D01*
X034120Y023691D02*
Y023809D01*
X033691Y023750D02*
X033809D01*
X033750Y023691D02*
Y023809D01*
X033281Y023730D02*
X033399D01*
X033340Y023671D02*
Y023789D01*
X033051Y022740D02*
X033169D01*
X033110Y022681D02*
Y022799D01*
X049491Y043070D02*
X049609D01*
X049550Y043011D02*
Y043129D01*
X049811Y043620D02*
X049929D01*
X049870Y043561D02*
Y043679D01*
X049821Y044220D02*
X049939D01*
X049880Y044161D02*
Y044279D01*
X017331Y043410D02*
X017449D01*
X017390Y043351D02*
Y043469D01*
X021001Y041100D02*
X021119D01*
X021060Y041041D02*
Y041159D01*
X020991Y042020D02*
X021109D01*
X021050Y041961D02*
Y042079D01*
X024751Y043210D02*
X024869D01*
X024810Y043151D02*
Y043269D01*
X024771Y042270D02*
X024889D01*
X024830Y042211D02*
Y042329D01*
X023751Y040680D02*
X023869D01*
X023810Y040621D02*
Y040739D01*
X021561Y040650D02*
X021679D01*
X021620Y040591D02*
Y040709D01*
X018001Y041330D02*
X018119D01*
X018060Y041271D02*
Y041389D01*
X017951Y041720D02*
X018069D01*
X018010Y041661D02*
Y041779D01*
X018181Y042910D02*
X018299D01*
X018240Y042851D02*
Y042969D01*
X017351Y044160D02*
X017469D01*
X017410Y044101D02*
Y044219D01*
X017341Y041650D02*
X017459D01*
X017400Y041591D02*
Y041709D01*
X017371Y042380D02*
X017489D01*
X017430Y042321D02*
Y042439D01*
X018161Y042570D02*
X018279D01*
X018220Y042511D02*
Y042629D01*
X019171Y042930D02*
X019289D01*
X019230Y042871D02*
Y042989D01*
X020201Y042910D02*
X020319D01*
X020260Y042851D02*
Y042969D01*
X020191Y042560D02*
X020309D01*
X020250Y042501D02*
Y042619D01*
X019091Y042580D02*
X019209D01*
X019150Y042521D02*
Y042639D01*
X018131Y040910D02*
X018249D01*
X018190Y040851D02*
Y040969D01*
X019731Y041550D02*
X019849D01*
X019790Y041491D02*
Y041609D01*
X020041Y041560D02*
X020159D01*
X020100Y041501D02*
Y041619D01*
X020051Y041220D02*
X020169D01*
X020110Y041161D02*
Y041279D01*
X019721Y041230D02*
X019839D01*
X019780Y041171D02*
Y041289D01*
X019601Y040370D02*
X019719D01*
X019660Y040311D02*
Y040429D01*
X042531Y049730D02*
X042649D01*
X042590Y049671D02*
Y049789D01*
X043111Y049140D02*
X043229D01*
X043170Y049081D02*
Y049199D01*
X044161Y050910D02*
X044279D01*
X044220Y050851D02*
Y050969D01*
X045810Y050530D02*
X046090D01*
X045950Y050390D02*
Y050670D01*
M02*
