G04*
G04 #@! TF.GenerationSoftware,Altium Limited,Altium Designer,21.5.1 (32)*
G04*
G04 Layer_Physical_Order=3*
G04 Layer_Color=128*
%FSAX24Y24*%
%MOIN*%
G70*
G04*
G04 #@! TF.SameCoordinates,EA95429E-239C-4F57-B086-3AFABEEF507B*
G04*
G04*
G04 #@! TF.FilePolarity,Negative*
G04*
G01*
G75*
%ADD13C,0.0100*%
%ADD16C,0.0300*%
%ADD183C,0.0200*%
%ADD185C,0.0400*%
%ADD212C,0.0550*%
%ADD218C,0.1000*%
G04:AMPARAMS|DCode=219|XSize=99.37mil|YSize=99.37mil|CornerRadius=0mil|HoleSize=0mil|Usage=FLASHONLY|Rotation=0.000|XOffset=0mil|YOffset=0mil|HoleType=Round|Shape=Relief|Width=20mil|Gap=10mil|Entries=4|*
%AMTHD219*
7,0,0,0.0994,0.0794,0.0200,45*
%
%ADD219THD219*%
%ADD220C,0.0633*%
%ADD222C,0.0869*%
G04:AMPARAMS|DCode=223|XSize=103.307mil|YSize=103.307mil|CornerRadius=0mil|HoleSize=0mil|Usage=FLASHONLY|Rotation=0.000|XOffset=0mil|YOffset=0mil|HoleType=Round|Shape=Relief|Width=20mil|Gap=10mil|Entries=4|*
%AMTHD223*
7,0,0,0.1033,0.0833,0.0200,45*
%
%ADD223THD223*%
%ADD224C,0.0515*%
%ADD225C,0.0594*%
%AMTHOVALD226*
21,1,0.0276,0.0797,0,0,180.0*
1,1,0.0797,0.0138,0.0000*
1,1,0.0797,-0.0138,0.0000*
21,0,0.0276,0.0597,0,0,180.0*
1,0,0.0597,0.0138,0.0000*
1,0,0.0597,-0.0138,0.0000*
4,0,4,0.0067,0.0071,0.0349,0.0352,0.0490,0.0211,0.0209,-0.0071,0.0067,0.0071,0.0*
4,0,4,-0.0209,0.0071,-0.0490,-0.0211,-0.0349,-0.0352,-0.0067,-0.0071,-0.0209,0.0071,0.0*
4,0,4,0.0209,0.0071,0.0490,-0.0211,0.0349,-0.0352,0.0067,-0.0071,0.0209,0.0071,0.0*
4,0,4,-0.0067,0.0071,-0.0349,0.0352,-0.0490,0.0211,-0.0209,-0.0071,-0.0067,0.0071,0.0*
%
%ADD226THOVALD226*%

%ADD228O,0.1381X0.0594*%
%ADD229O,0.0594X0.1460*%
%ADD230C,0.2562*%
%ADD231C,0.0602*%
%ADD234C,0.1480*%
%ADD235C,0.0318*%
%ADD236O,0.0594X0.1450*%
%ADD237C,0.0818*%
%ADD238C,0.0330*%
%ADD239C,0.0480*%
G36*
X053092Y050658D02*
X053200Y050613D01*
X053296Y050549D01*
X053379Y050466D01*
X053443Y050370D01*
X053488Y050262D01*
X053510Y050148D01*
Y050090D01*
Y050032D01*
X053488Y049918D01*
X053443Y049810D01*
X053379Y049714D01*
X053296Y049631D01*
X053200Y049567D01*
X053092Y049522D01*
X052978Y049500D01*
X052862D01*
X052748Y049522D01*
X052640Y049567D01*
X052544Y049631D01*
X052462Y049714D01*
X052397Y049810D01*
X052352Y049918D01*
X052330Y050032D01*
Y050090D01*
Y050148D01*
X052352Y050262D01*
X052397Y050370D01*
X052462Y050466D01*
X052544Y050549D01*
X052640Y050613D01*
X052748Y050658D01*
X052862Y050680D01*
X052978D01*
X053092Y050658D01*
D02*
G37*
G36*
Y039188D02*
X053200Y039143D01*
X053296Y039079D01*
X053379Y038996D01*
X053443Y038900D01*
X053488Y038792D01*
X053510Y038678D01*
Y038620D01*
Y038562D01*
X053488Y038448D01*
X053443Y038340D01*
X053379Y038244D01*
X053296Y038161D01*
X053200Y038097D01*
X053092Y038052D01*
X052978Y038030D01*
X052862D01*
X052748Y038052D01*
X052640Y038097D01*
X052544Y038161D01*
X052462Y038244D01*
X052397Y038340D01*
X052352Y038448D01*
X052330Y038562D01*
Y038620D01*
Y038678D01*
X052352Y038792D01*
X052397Y038900D01*
X052462Y038996D01*
X052544Y039079D01*
X052640Y039143D01*
X052748Y039188D01*
X052862Y039210D01*
X052978D01*
X053092Y039188D01*
D02*
G37*
G36*
X026030Y036350D02*
Y021380D01*
X015390D01*
X015380Y021370D01*
X015490Y038980D01*
X021340D01*
X021630Y039270D01*
X023110D01*
X026030Y036350D01*
D02*
G37*
D13*
X052200Y051370D02*
X052340Y051510D01*
X051650Y051370D02*
X052200D01*
X050890Y052130D02*
X051650Y051370D01*
X047973Y052130D02*
X050890D01*
X047620Y052483D02*
X047973Y052130D01*
X047620Y052483D02*
Y053290D01*
X048350Y054020D01*
X051530D01*
X052340Y053210D01*
Y051510D02*
Y053210D01*
X022860Y039550D02*
X024540Y037870D01*
D16*
X039650Y015420D02*
X040080D01*
X039650D02*
Y019940D01*
X046030Y026320D01*
Y054660D01*
D183*
X041070Y054410D02*
X041070Y040240D01*
X041060Y054400D02*
Y054680D01*
Y054400D02*
X041070Y054410D01*
X038700Y037870D02*
X041070Y040240D01*
X024540Y037870D02*
X038700D01*
D185*
X052978Y039210D02*
X053092Y039188D01*
X053200Y039143D01*
X053296Y039079D01*
X053379Y038996D01*
X053443Y038900D01*
X053488Y038792D01*
X053510Y038678D01*
Y038620D02*
Y038678D01*
Y038562D02*
Y038620D01*
X053488Y038448D02*
X053510Y038562D01*
X053443Y038340D02*
X053488Y038448D01*
X053379Y038244D02*
X053443Y038340D01*
X053296Y038161D02*
X053379Y038244D01*
X053200Y038097D02*
X053296Y038161D01*
X053092Y038052D02*
X053200Y038097D01*
X052978Y038030D02*
X053092Y038052D01*
X052862Y038030D02*
X052978D01*
X052748Y038052D02*
X052862Y038030D01*
X052640Y038097D02*
X052748Y038052D01*
X052544Y038161D02*
X052640Y038097D01*
X052462Y038244D02*
X052544Y038161D01*
X052397Y038340D02*
X052462Y038244D01*
X052352Y038448D02*
X052397Y038340D01*
X052330Y038562D02*
X052352Y038448D01*
X052330Y038562D02*
Y038620D01*
Y038678D01*
X052352Y038792D01*
X052397Y038900D01*
X052462Y038996D01*
X052544Y039079D01*
X052640Y039143D01*
X052748Y039188D01*
X052862Y039210D01*
X052978D01*
Y050680D02*
X053092Y050658D01*
X053200Y050613D01*
X053296Y050549D01*
X053379Y050466D01*
X053443Y050370D01*
X053488Y050262D01*
X053510Y050148D01*
Y050090D02*
Y050148D01*
Y050032D02*
Y050090D01*
X053488Y049918D02*
X053510Y050032D01*
X053443Y049810D02*
X053488Y049918D01*
X053379Y049714D02*
X053443Y049810D01*
X053296Y049631D02*
X053379Y049714D01*
X053200Y049567D02*
X053296Y049631D01*
X053092Y049522D02*
X053200Y049567D01*
X052978Y049500D02*
X053092Y049522D01*
X052862Y049500D02*
X052978D01*
X052748Y049522D02*
X052862Y049500D01*
X052640Y049567D02*
X052748Y049522D01*
X052544Y049631D02*
X052640Y049567D01*
X052462Y049714D02*
X052544Y049631D01*
X052397Y049810D02*
X052462Y049714D01*
X052352Y049918D02*
X052397Y049810D01*
X052330Y050032D02*
X052352Y049918D01*
X052330Y050032D02*
Y050090D01*
Y050148D01*
X052352Y050262D01*
X052397Y050370D01*
X052462Y050466D01*
X052544Y050549D01*
X052640Y050613D01*
X052748Y050658D01*
X052862Y050680D01*
X052978D01*
X015354Y015354D02*
Y054724D01*
X054724D01*
Y015354D02*
Y054724D01*
X015354Y015354D02*
X054724D01*
D212*
X021775Y049544D02*
D03*
X022775Y050044D02*
D03*
Y049044D02*
D03*
X021775Y050544D02*
D03*
Y048544D02*
D03*
X022775Y051044D02*
D03*
Y048044D02*
D03*
X021775Y051544D02*
D03*
D218*
X015650Y039000D02*
X022310D01*
X022860Y039550D01*
X022700Y039390D02*
Y045430D01*
X015640D02*
X022700D01*
D219*
X026560Y053400D02*
D03*
D220*
X052980Y043360D02*
D03*
Y042360D02*
D03*
Y041360D02*
D03*
X033620Y040600D02*
D03*
X031620D02*
D03*
X032620D02*
D03*
X034620D02*
D03*
X035620D02*
D03*
X030090Y035840D02*
D03*
X031090D02*
D03*
D222*
X046036Y041024D02*
D03*
X048044D02*
D03*
Y039016D02*
D03*
X046036D02*
D03*
X047040Y040020D02*
D03*
X044864Y047214D02*
D03*
X045868Y048218D02*
D03*
X043860D02*
D03*
Y046210D02*
D03*
X045868D02*
D03*
X044584Y038976D02*
D03*
X042576D02*
D03*
Y040984D02*
D03*
X044584D02*
D03*
X043580Y039980D02*
D03*
D223*
X050600Y018480D02*
D03*
X051600D02*
D03*
X030120Y038840D02*
D03*
X031120D02*
D03*
D224*
X049380Y039200D02*
D03*
X050380Y038200D02*
D03*
X049380Y037200D02*
D03*
D225*
X052265Y044601D02*
D03*
Y048814D02*
D03*
X029560Y053400D02*
D03*
X027560D02*
D03*
X028560D02*
D03*
X030560D02*
D03*
X046225Y019306D02*
D03*
X047225D02*
D03*
X048225D02*
D03*
D226*
X015955Y044189D02*
D03*
Y041591D02*
D03*
D228*
X019520Y034830D02*
D03*
D229*
X020662Y036720D02*
D03*
D230*
X052170Y023440D02*
D03*
Y033283D02*
D03*
X042327D02*
D03*
Y023440D02*
D03*
D231*
X017346Y048268D02*
D03*
X017944Y051320D02*
D03*
Y047304D02*
D03*
X017346Y052284D02*
D03*
D234*
X019275Y047544D02*
D03*
Y052044D02*
D03*
D235*
X049505Y048168D02*
D03*
X049560Y048745D02*
D03*
X049840Y047780D02*
D03*
X049830Y049000D02*
D03*
X052170Y047770D02*
D03*
X051020Y046870D02*
D03*
X051040Y048130D02*
D03*
X054200Y046870D02*
D03*
Y046550D02*
D03*
Y045920D02*
D03*
Y047810D02*
D03*
Y047480D02*
D03*
Y046230D02*
D03*
X054190Y047170D02*
D03*
Y048130D02*
D03*
X054180Y045640D02*
D03*
X054170Y045280D02*
D03*
X053345Y045442D02*
D03*
X053175Y046342D02*
D03*
X052725Y045472D02*
D03*
X052295Y047202D02*
D03*
X051030Y047490D02*
D03*
X051020Y045940D02*
D03*
Y045300D02*
D03*
X038140Y048220D02*
D03*
X048305Y048728D02*
D03*
X050135D02*
D03*
X044990Y048040D02*
D03*
X046410Y046870D02*
D03*
X043330Y044670D02*
D03*
X044640Y043330D02*
D03*
X043980Y043960D02*
D03*
X042840Y045120D02*
D03*
X041820Y048200D02*
D03*
X040750Y049100D02*
D03*
X039470Y047160D02*
D03*
X040720Y047140D02*
D03*
X039640Y049100D02*
D03*
X048870Y051170D02*
D03*
X049660Y051180D02*
D03*
X049690Y051960D02*
D03*
X048920Y051970D02*
D03*
X048495Y050778D02*
D03*
X051210Y052550D02*
D03*
X051545Y053348D02*
D03*
X051952Y051902D02*
D03*
X050080Y052440D02*
D03*
X052560Y051050D02*
D03*
X052730Y053100D02*
D03*
X051690Y051700D02*
D03*
X049460Y050230D02*
D03*
X049090Y050260D02*
D03*
X049293Y051581D02*
D03*
X050325Y051226D02*
D03*
X049525Y049808D02*
D03*
X047715Y050368D02*
D03*
X048155Y051878D02*
D03*
X048475Y053488D02*
D03*
X048535Y052628D02*
D03*
X050165Y053318D02*
D03*
X047825Y052278D02*
D03*
X050065Y050778D02*
D03*
X042460Y046290D02*
D03*
X027630Y017740D02*
D03*
X027210Y017940D02*
D03*
X027420D02*
D03*
Y018150D02*
D03*
X027730Y043240D02*
D03*
Y043440D02*
D03*
X027950Y043240D02*
D03*
Y043650D02*
D03*
Y043440D02*
D03*
X027220Y017740D02*
D03*
X027430D02*
D03*
X036870Y020440D02*
D03*
X037620Y020450D02*
D03*
X039140Y018050D02*
D03*
X038340Y018060D02*
D03*
X029160Y048810D02*
D03*
X029270Y046550D02*
D03*
X028421Y043721D02*
D03*
X028410Y047240D02*
D03*
X038570Y047660D02*
D03*
X038940Y048290D02*
D03*
X039490Y048500D02*
D03*
X039100Y047750D02*
D03*
X039760Y050310D02*
D03*
X046520Y041880D02*
D03*
X047410Y041640D02*
D03*
X047390Y042400D02*
D03*
X046360Y042830D02*
D03*
X045389Y042736D02*
D03*
X042240Y045170D02*
D03*
X041500Y045200D02*
D03*
X040670Y045270D02*
D03*
X039700Y045310D02*
D03*
X039100Y045890D02*
D03*
X038260Y046140D02*
D03*
X038340Y046710D02*
D03*
X037880Y046810D02*
D03*
X037360Y046800D02*
D03*
X046070Y043430D02*
D03*
X045459Y043486D02*
D03*
X044920Y044010D02*
D03*
X044289Y044656D02*
D03*
X043819Y045146D02*
D03*
X042350Y047170D02*
D03*
X042780Y045900D02*
D03*
X041950Y045920D02*
D03*
X041161Y045896D02*
D03*
X040230Y045880D02*
D03*
X041410Y046630D02*
D03*
X030530Y052332D02*
D03*
X028460Y052175D02*
D03*
X029250Y046930D02*
D03*
X037090Y045830D02*
D03*
X034107Y045919D02*
D03*
X031790Y041570D02*
D03*
X033740Y042800D02*
D03*
X037920Y042240D02*
D03*
X029486Y045858D02*
D03*
X037700Y042400D02*
D03*
X030260Y046260D02*
D03*
X030160Y047444D02*
D03*
X030185Y047691D02*
D03*
X030180Y046950D02*
D03*
X040390Y046432D02*
D03*
X051400Y039150D02*
D03*
X051702Y041780D02*
D03*
X038580Y050130D02*
D03*
X032990Y052440D02*
D03*
X032090Y051960D02*
D03*
X034620Y050510D02*
D03*
X035240Y050210D02*
D03*
X034150Y044860D02*
D03*
X039010Y051940D02*
D03*
X037920Y051930D02*
D03*
X039620Y053410D02*
D03*
X039280Y052770D02*
D03*
X040040Y052790D02*
D03*
X039660D02*
D03*
X034590Y041840D02*
D03*
X032695Y042995D02*
D03*
X035641Y042441D02*
D03*
X037930Y042830D02*
D03*
X038920Y039620D02*
D03*
X038840Y042650D02*
D03*
X041200Y036980D02*
D03*
X041170Y040310D02*
D03*
X040710Y038190D02*
D03*
X041180Y038990D02*
D03*
X040720Y041340D02*
D03*
X041200Y042090D02*
D03*
X038090Y038570D02*
D03*
X037690Y038580D02*
D03*
X037310Y038560D02*
D03*
X036900Y038550D02*
D03*
X037147Y039480D02*
D03*
X037450Y039390D02*
D03*
X037727Y039400D02*
D03*
X037960Y039481D02*
D03*
X030140Y049848D02*
D03*
X032737Y043840D02*
D03*
X033650Y048440D02*
D03*
X033990Y048670D02*
D03*
X034700Y049960D02*
D03*
X034330Y049630D02*
D03*
X035900Y049240D02*
D03*
X029900Y049270D02*
D03*
X035600Y049452D02*
D03*
X029640Y049500D02*
D03*
X028680Y049900D02*
D03*
X036069Y050981D02*
D03*
X035160Y052110D02*
D03*
X035900Y052100D02*
D03*
X030180Y046550D02*
D03*
X028666Y051094D02*
D03*
X027900Y051390D02*
D03*
X031120Y052540D02*
D03*
X031566Y051907D02*
D03*
X037770Y051050D02*
D03*
X037216Y050556D02*
D03*
X037770Y045950D02*
D03*
X033130Y045820D02*
D03*
X032590Y044280D02*
D03*
X023098Y017303D02*
D03*
X018510Y020260D02*
D03*
Y020020D02*
D03*
Y019800D02*
D03*
Y019580D02*
D03*
Y019340D02*
D03*
X018760Y019350D02*
D03*
Y019590D02*
D03*
Y019810D02*
D03*
Y020030D02*
D03*
Y020270D02*
D03*
X047940Y045930D02*
D03*
X047820Y043190D02*
D03*
X050720Y041930D02*
D03*
X052120Y042730D02*
D03*
X024590Y048950D02*
D03*
X023730Y049100D02*
D03*
X043250Y052090D02*
D03*
X044360Y049880D02*
D03*
X044590Y048850D02*
D03*
X042630Y049010D02*
D03*
X045200Y048820D02*
D03*
X047180Y043510D02*
D03*
X050080Y040990D02*
D03*
X050670Y039690D02*
D03*
X051030Y039670D02*
D03*
X052000Y040890D02*
D03*
X052020Y042380D02*
D03*
X042450Y042579D02*
D03*
X042430Y043629D02*
D03*
X040305Y043590D02*
D03*
X049030Y047170D02*
D03*
X048410Y043720D02*
D03*
X025700Y041520D02*
D03*
X025300Y042020D02*
D03*
X025450Y053010D02*
D03*
X025700Y053260D02*
D03*
X026700Y052030D02*
D03*
X025540Y051710D02*
D03*
X025053Y051680D02*
D03*
X026569Y051091D02*
D03*
X026150Y051060D02*
D03*
X036780Y042660D02*
D03*
X034873Y044057D02*
D03*
X036306Y044309D02*
D03*
X040570Y018830D02*
D03*
X027620Y018150D02*
D03*
X027210D02*
D03*
X027620Y017940D02*
D03*
X045890Y053080D02*
D03*
X045150Y053070D02*
D03*
X044100Y053010D02*
D03*
X044480Y053020D02*
D03*
X047990Y048670D02*
D03*
X046710Y048260D02*
D03*
X046720Y047850D02*
D03*
X034777Y042840D02*
D03*
X026930Y050890D02*
D03*
X026340Y050830D02*
D03*
X043530Y052840D02*
D03*
X043520Y053220D02*
D03*
X043280Y052230D02*
D03*
X042550Y050880D02*
D03*
Y050630D02*
D03*
X042770D02*
D03*
X041370Y052820D02*
D03*
X041140D02*
D03*
X040910D02*
D03*
X040660D02*
D03*
X041370Y052500D02*
D03*
X041140D02*
D03*
X040910D02*
D03*
X040660D02*
D03*
X041370Y053470D02*
D03*
X041140D02*
D03*
X040910D02*
D03*
X041370Y053150D02*
D03*
X041140D02*
D03*
X040910D02*
D03*
X040660D02*
D03*
X028470Y027950D02*
D03*
Y027720D02*
D03*
Y027490D02*
D03*
Y027240D02*
D03*
X028790Y027950D02*
D03*
Y027720D02*
D03*
Y027490D02*
D03*
Y027240D02*
D03*
X029070Y027950D02*
D03*
Y027720D02*
D03*
Y027490D02*
D03*
Y027240D02*
D03*
X029390Y027950D02*
D03*
Y027720D02*
D03*
Y027490D02*
D03*
Y027240D02*
D03*
X035730Y017660D02*
D03*
X035450Y017650D02*
D03*
X035190Y017660D02*
D03*
X034940Y017650D02*
D03*
X031780Y016640D02*
D03*
X032110Y016660D02*
D03*
X030505Y016815D02*
D03*
X029675Y016845D02*
D03*
X042770Y050880D02*
D03*
Y051110D02*
D03*
Y051340D02*
D03*
X042550Y051110D02*
D03*
Y051340D02*
D03*
X042320Y050630D02*
D03*
Y050880D02*
D03*
Y051110D02*
D03*
Y051340D02*
D03*
X026900Y045030D02*
D03*
X027150D02*
D03*
X027380D02*
D03*
X027610D02*
D03*
X027620Y045390D02*
D03*
X027390D02*
D03*
X027160D02*
D03*
X026910D02*
D03*
X027260Y046150D02*
D03*
X028200Y046100D02*
D03*
X026250Y044060D02*
D03*
X027730Y043650D02*
D03*
X024180Y046050D02*
D03*
Y047030D02*
D03*
X023560Y052640D02*
D03*
X024634Y052644D02*
D03*
X024646Y053044D02*
D03*
X023684D02*
D03*
X026340Y048560D02*
D03*
X026140Y048720D02*
D03*
X025125Y052595D02*
D03*
X025475Y048575D02*
D03*
X023880Y049770D02*
D03*
X023190Y049550D02*
D03*
X028210Y026520D02*
D03*
X028240Y025770D02*
D03*
X028150Y025050D02*
D03*
X028160Y024680D02*
D03*
X024520Y051230D02*
D03*
X024697Y048489D02*
D03*
X024260Y049850D02*
D03*
X025070Y047670D02*
D03*
X025470Y047660D02*
D03*
X025880Y047680D02*
D03*
X027960Y047060D02*
D03*
X025670Y047040D02*
D03*
X027440Y048110D02*
D03*
X028690Y050300D02*
D03*
X022210Y034660D02*
D03*
X021910Y034650D02*
D03*
X021620Y034670D02*
D03*
X022140Y033830D02*
D03*
X023708Y017805D02*
D03*
X021400Y017670D02*
D03*
X033640Y021660D02*
D03*
X033310Y021650D02*
D03*
X032950Y021660D02*
D03*
X033640Y021990D02*
D03*
X033310D02*
D03*
X032950D02*
D03*
X033490Y019440D02*
D03*
X031980Y020370D02*
D03*
X041070Y017810D02*
D03*
X043510Y017450D02*
D03*
X042850D02*
D03*
X041100Y019420D02*
D03*
X043550Y019310D02*
D03*
X033500Y020870D02*
D03*
X034710Y020350D02*
D03*
X034120Y023750D02*
D03*
X033750D02*
D03*
X033340Y023730D02*
D03*
X033110Y022740D02*
D03*
X049870Y043620D02*
D03*
X049880Y044220D02*
D03*
X017390Y043410D02*
D03*
X021060Y041100D02*
D03*
X021050Y042020D02*
D03*
X024810Y043210D02*
D03*
X023810Y040680D02*
D03*
X018010Y041720D02*
D03*
X018240Y042910D02*
D03*
X020250Y042560D02*
D03*
X019150Y042580D02*
D03*
X018190Y040910D02*
D03*
X042590Y049730D02*
D03*
X043170Y049140D02*
D03*
X044220Y050910D02*
D03*
D236*
X018280Y036720D02*
D03*
D237*
X020476Y046694D02*
D03*
Y052894D02*
D03*
D238*
X026194Y049556D02*
D03*
Y050028D02*
D03*
X026666Y049556D02*
D03*
X026666Y050028D02*
D03*
X026430Y049792D02*
D03*
D239*
X045950Y050530D02*
D03*
M02*
