G04*
G04 #@! TF.GenerationSoftware,Altium Limited,Altium Designer,21.5.1 (32)*
G04*
G04 Layer_Color=255*
%FSAX24Y24*%
%MOIN*%
G70*
G04*
G04 #@! TF.SameCoordinates,EA95429E-239C-4F57-B086-3AFABEEF507B*
G04*
G04*
G04 #@! TF.FilePolarity,Positive*
G04*
G01*
G75*
%ADD197C,0.0600*%
%ADD198R,0.0630X0.0630*%
%ADD199C,0.0866*%
%ADD200R,0.0866X0.0866*%
%ADD201C,0.0630*%
%ADD202C,0.0591*%
%ADD203R,0.0630X0.0630*%
%ADD204C,0.0669*%
%ADD205O,0.0630X0.0354*%
%ADD206O,0.0709X0.1575*%
%ADD207O,0.1575X0.0709*%
%ADD208O,0.0709X0.1772*%
%ADD209C,0.3937*%
%ADD210C,0.0787*%
%ADD211C,0.0602*%
%ADD212C,0.0550*%
%ADD213C,0.0927*%
%ADD214C,0.1680*%
D197*
X052265Y044601D02*
D03*
Y048814D02*
D03*
D198*
X052980Y043360D02*
D03*
D199*
X046036Y041024D02*
D03*
X048044D02*
D03*
Y039016D02*
D03*
X046036D02*
D03*
X045868Y048218D02*
D03*
X043860D02*
D03*
Y046210D02*
D03*
X045868D02*
D03*
X044584Y038976D02*
D03*
X042576D02*
D03*
Y040984D02*
D03*
X044584D02*
D03*
D200*
X047040Y040020D02*
D03*
X044864Y047214D02*
D03*
X043580Y039980D02*
D03*
D201*
X052980Y042360D02*
D03*
Y041360D02*
D03*
X033620Y040600D02*
D03*
X032620D02*
D03*
X034620D02*
D03*
X035620D02*
D03*
X050600Y018480D02*
D03*
X030120Y038840D02*
D03*
X030090Y035840D02*
D03*
D202*
X049380Y039200D02*
D03*
X050380Y038200D02*
D03*
X049380Y037200D02*
D03*
D203*
X031620Y040600D02*
D03*
X051600Y018480D02*
D03*
X031120Y038840D02*
D03*
X031090Y035840D02*
D03*
D204*
X029560Y053400D02*
D03*
X026560D02*
D03*
X027560D02*
D03*
X028560D02*
D03*
X030560D02*
D03*
D205*
X015955Y044189D02*
D03*
Y041591D02*
D03*
D206*
X018280Y036720D02*
D03*
D207*
X019520Y034830D02*
D03*
D208*
X020662Y036720D02*
D03*
D209*
X052170Y023440D02*
D03*
Y033283D02*
D03*
X042327D02*
D03*
Y023440D02*
D03*
D210*
X046225Y019306D02*
D03*
X047225D02*
D03*
X048225D02*
D03*
D211*
X017346Y048268D02*
D03*
X017944Y051320D02*
D03*
Y047304D02*
D03*
X017346Y052284D02*
D03*
D212*
X021775Y049544D02*
D03*
X022775Y050044D02*
D03*
Y049044D02*
D03*
X021775Y050544D02*
D03*
Y048544D02*
D03*
X022775Y051044D02*
D03*
Y048044D02*
D03*
X021775Y051544D02*
D03*
D213*
X020476Y046694D02*
D03*
Y052894D02*
D03*
D214*
X019275Y047544D02*
D03*
Y052044D02*
D03*
M02*
