G04*
G04 #@! TF.GenerationSoftware,Altium Limited,Altium Designer,21.5.1 (32)*
G04*
G04 Layer_Color=2752767*
%FSAX24Y24*%
%MOIN*%
G70*
G04*
G04 #@! TF.SameCoordinates,EA95429E-239C-4F57-B086-3AFABEEF507B*
G04*
G04*
G04 #@! TF.FilePolarity,Positive*
G04*
G01*
G75*
%ADD241C,0.0020*%
%ADD242C,0.0027*%
%ADD243C,0.0013*%
D241*
X052185Y044521D02*
Y044681D01*
X052345D01*
Y044521D01*
X052185D01*
Y048734D02*
Y048894D01*
X052345D01*
Y048734D01*
X052185D01*
X046036Y040944D02*
X045956Y041104D01*
X046116D01*
X046036Y040944D01*
X048044D02*
X047964Y041104D01*
X048124D01*
X048044Y040944D01*
Y038936D02*
X047964Y039096D01*
X048124D01*
X048044Y038936D01*
X046036D02*
X045956Y039096D01*
X046116D01*
X046036Y038936D01*
X047040Y039940D02*
X046960Y040100D01*
X047120D01*
X047040Y039940D01*
X049380Y039120D02*
X049420Y039160D01*
X049460D01*
X049420Y039200D01*
X049460Y039240D01*
X049420D01*
X049380Y039280D01*
X049340Y039240D01*
X049300D01*
X049340Y039200D01*
X049300Y039160D01*
X049340D01*
X049380Y039120D01*
X050380Y038120D02*
X050420Y038160D01*
X050460D01*
X050420Y038200D01*
X050460Y038240D01*
X050420D01*
X050380Y038280D01*
X050340Y038240D01*
X050300D01*
X050340Y038200D01*
X050300Y038160D01*
X050340D01*
X050380Y038120D01*
X049380Y037120D02*
X049420Y037160D01*
X049460D01*
X049420Y037200D01*
X049460Y037240D01*
X049420D01*
X049380Y037280D01*
X049340Y037240D01*
X049300D01*
X049340Y037200D01*
X049300Y037160D01*
X049340D01*
X049380Y037120D01*
X044864Y047134D02*
X044784Y047294D01*
X044944D01*
X044864Y047134D01*
X045868Y048138D02*
X045788Y048298D01*
X045948D01*
X045868Y048138D01*
X043860D02*
X043780Y048298D01*
X043940D01*
X043860Y048138D01*
Y046130D02*
X043780Y046290D01*
X043940D01*
X043860Y046130D01*
X045868D02*
X045788Y046290D01*
X045948D01*
X045868Y046130D01*
X044584Y038896D02*
X044504Y039056D01*
X044664D01*
X044584Y038896D01*
X042576D02*
X042496Y039056D01*
X042656D01*
X042576Y038896D01*
Y040904D02*
X042496Y041064D01*
X042656D01*
X042576Y040904D01*
X044584D02*
X044504Y041064D01*
X044664D01*
X044584Y040904D01*
X043580Y039900D02*
X043500Y040060D01*
X043660D01*
X043580Y039900D01*
X029480Y053320D02*
Y053480D01*
X029640D01*
Y053320D01*
X029480D01*
X026480D02*
Y053480D01*
X026640D01*
Y053320D01*
X026480D01*
X027480D02*
Y053480D01*
X027640D01*
Y053320D01*
X027480D01*
X028480D02*
Y053480D01*
X028640D01*
Y053320D01*
X028480D01*
X030480D02*
Y053480D01*
X030640D01*
Y053320D01*
X030480D01*
X015875Y044109D02*
X015915Y044189D01*
X015875Y044269D01*
X015955Y044229D01*
X016035Y044269D01*
X015995Y044189D01*
X016035Y044109D01*
X015955Y044149D01*
X015875Y044109D01*
Y041511D02*
X015915Y041591D01*
X015875Y041671D01*
X015955Y041631D01*
X016035Y041671D01*
X015995Y041591D01*
X016035Y041511D01*
X015955Y041551D01*
X015875Y041511D01*
X018240Y036680D02*
Y036640D01*
X018320D01*
Y036680D01*
X018360D01*
Y036760D01*
X018320D01*
Y036800D01*
X018240D01*
Y036760D01*
X018200D01*
Y036680D01*
X018240D01*
X019440Y034750D02*
X019480D01*
X019520Y034790D01*
X019560Y034750D01*
X019600D01*
Y034790D01*
X019560Y034830D01*
X019600Y034870D01*
Y034910D01*
X019560D01*
X019520Y034870D01*
X019480Y034910D01*
X019440D01*
Y034870D01*
X019480Y034830D01*
X019440Y034790D01*
Y034750D01*
X020582Y036720D02*
X020662Y036800D01*
X020742Y036720D01*
X020662Y036640D01*
X020582Y036720D01*
X052090Y023360D02*
Y023520D01*
X052250D01*
Y023360D01*
X052090D01*
X052130Y023400D02*
Y023480D01*
X052210D01*
Y023400D01*
X052130D01*
X052090Y033203D02*
Y033363D01*
X052250D01*
Y033203D01*
X052090D01*
X052130Y033243D02*
Y033323D01*
X052210D01*
Y033243D01*
X052130D01*
X042247Y033203D02*
Y033363D01*
X042407D01*
Y033203D01*
X042247D01*
X042287Y033243D02*
Y033323D01*
X042367D01*
Y033243D01*
X042287D01*
X042247Y023360D02*
Y023520D01*
X042407D01*
Y023360D01*
X042247D01*
X042287Y023400D02*
Y023480D01*
X042367D01*
Y023400D01*
X042287D01*
X046145Y019226D02*
Y019386D01*
X046305D01*
Y019226D01*
X046145D01*
X047145D02*
Y019386D01*
X047305D01*
Y019226D01*
X047145D01*
X048145D02*
Y019386D01*
X048305D01*
Y019226D01*
X048145D01*
X021775Y049464D02*
X021695Y049624D01*
X021855D01*
X021775Y049464D01*
Y049504D02*
X021735Y049584D01*
X021815D01*
X021775Y049504D01*
X022775Y049964D02*
X022695Y050124D01*
X022855D01*
X022775Y049964D01*
Y050004D02*
X022735Y050084D01*
X022815D01*
X022775Y050004D01*
Y048964D02*
X022695Y049124D01*
X022855D01*
X022775Y048964D01*
Y049004D02*
X022735Y049084D01*
X022815D01*
X022775Y049004D01*
X021775Y050464D02*
X021695Y050624D01*
X021855D01*
X021775Y050464D01*
Y050504D02*
X021735Y050584D01*
X021815D01*
X021775Y050504D01*
Y048464D02*
X021695Y048624D01*
X021855D01*
X021775Y048464D01*
Y048504D02*
X021735Y048584D01*
X021815D01*
X021775Y048504D01*
X022775Y050964D02*
X022695Y051124D01*
X022855D01*
X022775Y050964D01*
Y051004D02*
X022735Y051084D01*
X022815D01*
X022775Y051004D01*
Y047964D02*
X022695Y048124D01*
X022855D01*
X022775Y047964D01*
Y048004D02*
X022735Y048084D01*
X022815D01*
X022775Y048004D01*
X021775Y051464D02*
X021695Y051624D01*
X021855D01*
X021775Y051464D01*
Y051504D02*
X021735Y051584D01*
X021815D01*
X021775Y051504D01*
X020476Y046614D02*
X020516Y046654D01*
X020556D01*
X020516Y046694D01*
X020556Y046734D01*
X020516D01*
X020476Y046774D01*
X020436Y046734D01*
X020396D01*
X020436Y046694D01*
X020396Y046654D01*
X020436D01*
X020476Y046614D01*
Y046654D02*
X020496Y046674D01*
X020516D01*
X020496Y046694D01*
X020516Y046714D01*
X020496D01*
X020476Y046734D01*
X020456Y046714D01*
X020436D01*
X020456Y046694D01*
X020436Y046674D01*
X020456D01*
X020476Y046654D01*
Y052814D02*
X020516Y052854D01*
X020556D01*
X020516Y052894D01*
X020556Y052934D01*
X020516D01*
X020476Y052974D01*
X020436Y052934D01*
X020396D01*
X020436Y052894D01*
X020396Y052854D01*
X020436D01*
X020476Y052814D01*
Y052854D02*
X020496Y052874D01*
X020516D01*
X020496Y052894D01*
X020516Y052914D01*
X020496D01*
X020476Y052934D01*
X020456Y052914D01*
X020436D01*
X020456Y052894D01*
X020436Y052874D01*
X020456D01*
X020476Y052854D01*
X019195Y047464D02*
X019235Y047544D01*
X019195Y047624D01*
X019275Y047584D01*
X019355Y047624D01*
X019315Y047544D01*
X019355Y047464D01*
X019275Y047504D01*
X019195Y047464D01*
X019235Y047504D02*
X019255Y047544D01*
X019235Y047584D01*
X019275Y047564D01*
X019315Y047584D01*
X019295Y047544D01*
X019315Y047504D01*
X019275Y047524D01*
X019235Y047504D01*
X019195Y051964D02*
X019235Y052044D01*
X019195Y052124D01*
X019275Y052084D01*
X019355Y052124D01*
X019315Y052044D01*
X019355Y051964D01*
X019275Y052004D01*
X019195Y051964D01*
X019235Y052004D02*
X019255Y052044D01*
X019235Y052084D01*
X019275Y052064D01*
X019315Y052084D01*
X019295Y052044D01*
X019315Y052004D01*
X019275Y052024D01*
X019235Y052004D01*
X049465Y048128D02*
Y048088D01*
X049545D01*
Y048128D01*
X049585D01*
Y048208D01*
X049545D01*
Y048248D01*
X049465D01*
Y048208D01*
X049425D01*
Y048128D01*
X049465D01*
X049485Y048148D02*
Y048128D01*
X049525D01*
Y048148D01*
X049545D01*
Y048188D01*
X049525D01*
Y048208D01*
X049485D01*
Y048188D01*
X049465D01*
Y048148D01*
X049485D01*
X049520Y048705D02*
Y048665D01*
X049600D01*
Y048705D01*
X049640D01*
Y048785D01*
X049600D01*
Y048825D01*
X049520D01*
Y048785D01*
X049480D01*
Y048705D01*
X049520D01*
X049540Y048725D02*
Y048705D01*
X049580D01*
Y048725D01*
X049600D01*
Y048765D01*
X049580D01*
Y048785D01*
X049540D01*
Y048765D01*
X049520D01*
Y048725D01*
X049540D01*
X049800Y047740D02*
Y047700D01*
X049880D01*
Y047740D01*
X049920D01*
Y047820D01*
X049880D01*
Y047860D01*
X049800D01*
Y047820D01*
X049760D01*
Y047740D01*
X049800D01*
X049820Y047760D02*
Y047740D01*
X049860D01*
Y047760D01*
X049880D01*
Y047800D01*
X049860D01*
Y047820D01*
X049820D01*
Y047800D01*
X049800D01*
Y047760D01*
X049820D01*
X049790Y048960D02*
Y048920D01*
X049870D01*
Y048960D01*
X049910D01*
Y049040D01*
X049870D01*
Y049080D01*
X049790D01*
Y049040D01*
X049750D01*
Y048960D01*
X049790D01*
X049810Y048980D02*
Y048960D01*
X049850D01*
Y048980D01*
X049870D01*
Y049020D01*
X049850D01*
Y049040D01*
X049810D01*
Y049020D01*
X049790D01*
Y048980D01*
X049810D01*
X052130Y047730D02*
Y047690D01*
X052210D01*
Y047730D01*
X052250D01*
Y047810D01*
X052210D01*
Y047850D01*
X052130D01*
Y047810D01*
X052090D01*
Y047730D01*
X052130D01*
X052150Y047750D02*
Y047730D01*
X052190D01*
Y047750D01*
X052210D01*
Y047790D01*
X052190D01*
Y047810D01*
X052150D01*
Y047790D01*
X052130D01*
Y047750D01*
X052150D01*
X050980Y046830D02*
Y046790D01*
X051060D01*
Y046830D01*
X051100D01*
Y046910D01*
X051060D01*
Y046950D01*
X050980D01*
Y046910D01*
X050940D01*
Y046830D01*
X050980D01*
X051000Y046850D02*
Y046830D01*
X051040D01*
Y046850D01*
X051060D01*
Y046890D01*
X051040D01*
Y046910D01*
X051000D01*
Y046890D01*
X050980D01*
Y046850D01*
X051000D01*
Y048090D02*
Y048050D01*
X051080D01*
Y048090D01*
X051120D01*
Y048170D01*
X051080D01*
Y048210D01*
X051000D01*
Y048170D01*
X050960D01*
Y048090D01*
X051000D01*
X051020Y048110D02*
Y048090D01*
X051060D01*
Y048110D01*
X051080D01*
Y048150D01*
X051060D01*
Y048170D01*
X051020D01*
Y048150D01*
X051000D01*
Y048110D01*
X051020D01*
X054160Y046830D02*
Y046790D01*
X054240D01*
Y046830D01*
X054280D01*
Y046910D01*
X054240D01*
Y046950D01*
X054160D01*
Y046910D01*
X054120D01*
Y046830D01*
X054160D01*
X054180Y046850D02*
Y046830D01*
X054220D01*
Y046850D01*
X054240D01*
Y046890D01*
X054220D01*
Y046910D01*
X054180D01*
Y046890D01*
X054160D01*
Y046850D01*
X054180D01*
X054160Y046510D02*
Y046470D01*
X054240D01*
Y046510D01*
X054280D01*
Y046590D01*
X054240D01*
Y046630D01*
X054160D01*
Y046590D01*
X054120D01*
Y046510D01*
X054160D01*
X054180Y046530D02*
Y046510D01*
X054220D01*
Y046530D01*
X054240D01*
Y046570D01*
X054220D01*
Y046590D01*
X054180D01*
Y046570D01*
X054160D01*
Y046530D01*
X054180D01*
X054160Y045880D02*
Y045840D01*
X054240D01*
Y045880D01*
X054280D01*
Y045960D01*
X054240D01*
Y046000D01*
X054160D01*
Y045960D01*
X054120D01*
Y045880D01*
X054160D01*
X054180Y045900D02*
Y045880D01*
X054220D01*
Y045900D01*
X054240D01*
Y045940D01*
X054220D01*
Y045960D01*
X054180D01*
Y045940D01*
X054160D01*
Y045900D01*
X054180D01*
X054160Y047770D02*
Y047730D01*
X054240D01*
Y047770D01*
X054280D01*
Y047850D01*
X054240D01*
Y047890D01*
X054160D01*
Y047850D01*
X054120D01*
Y047770D01*
X054160D01*
X054180Y047790D02*
Y047770D01*
X054220D01*
Y047790D01*
X054240D01*
Y047830D01*
X054220D01*
Y047850D01*
X054180D01*
Y047830D01*
X054160D01*
Y047790D01*
X054180D01*
X054160Y047440D02*
Y047400D01*
X054240D01*
Y047440D01*
X054280D01*
Y047520D01*
X054240D01*
Y047560D01*
X054160D01*
Y047520D01*
X054120D01*
Y047440D01*
X054160D01*
X054180Y047460D02*
Y047440D01*
X054220D01*
Y047460D01*
X054240D01*
Y047500D01*
X054220D01*
Y047520D01*
X054180D01*
Y047500D01*
X054160D01*
Y047460D01*
X054180D01*
X054160Y046190D02*
Y046150D01*
X054240D01*
Y046190D01*
X054280D01*
Y046270D01*
X054240D01*
Y046310D01*
X054160D01*
Y046270D01*
X054120D01*
Y046190D01*
X054160D01*
X054180Y046210D02*
Y046190D01*
X054220D01*
Y046210D01*
X054240D01*
Y046250D01*
X054220D01*
Y046270D01*
X054180D01*
Y046250D01*
X054160D01*
Y046210D01*
X054180D01*
X054150Y047130D02*
Y047090D01*
X054230D01*
Y047130D01*
X054270D01*
Y047210D01*
X054230D01*
Y047250D01*
X054150D01*
Y047210D01*
X054110D01*
Y047130D01*
X054150D01*
X054170Y047150D02*
Y047130D01*
X054210D01*
Y047150D01*
X054230D01*
Y047190D01*
X054210D01*
Y047210D01*
X054170D01*
Y047190D01*
X054150D01*
Y047150D01*
X054170D01*
X054150Y048090D02*
Y048050D01*
X054230D01*
Y048090D01*
X054270D01*
Y048170D01*
X054230D01*
Y048210D01*
X054150D01*
Y048170D01*
X054110D01*
Y048090D01*
X054150D01*
X054170Y048110D02*
Y048090D01*
X054210D01*
Y048110D01*
X054230D01*
Y048150D01*
X054210D01*
Y048170D01*
X054170D01*
Y048150D01*
X054150D01*
Y048110D01*
X054170D01*
X054140Y045600D02*
Y045560D01*
X054220D01*
Y045600D01*
X054260D01*
Y045680D01*
X054220D01*
Y045720D01*
X054140D01*
Y045680D01*
X054100D01*
Y045600D01*
X054140D01*
X054160Y045620D02*
Y045600D01*
X054200D01*
Y045620D01*
X054220D01*
Y045660D01*
X054200D01*
Y045680D01*
X054160D01*
Y045660D01*
X054140D01*
Y045620D01*
X054160D01*
X054130Y045240D02*
Y045200D01*
X054210D01*
Y045240D01*
X054250D01*
Y045320D01*
X054210D01*
Y045360D01*
X054130D01*
Y045320D01*
X054090D01*
Y045240D01*
X054130D01*
X054150Y045260D02*
Y045240D01*
X054190D01*
Y045260D01*
X054210D01*
Y045300D01*
X054190D01*
Y045320D01*
X054150D01*
Y045300D01*
X054130D01*
Y045260D01*
X054150D01*
X053305Y045402D02*
Y045362D01*
X053385D01*
Y045402D01*
X053425D01*
Y045482D01*
X053385D01*
Y045522D01*
X053305D01*
Y045482D01*
X053265D01*
Y045402D01*
X053305D01*
X053325Y045422D02*
Y045402D01*
X053365D01*
Y045422D01*
X053385D01*
Y045462D01*
X053365D01*
Y045482D01*
X053325D01*
Y045462D01*
X053305D01*
Y045422D01*
X053325D01*
X053135Y046302D02*
Y046262D01*
X053215D01*
Y046302D01*
X053255D01*
Y046382D01*
X053215D01*
Y046422D01*
X053135D01*
Y046382D01*
X053095D01*
Y046302D01*
X053135D01*
X053155Y046322D02*
Y046302D01*
X053195D01*
Y046322D01*
X053215D01*
Y046362D01*
X053195D01*
Y046382D01*
X053155D01*
Y046362D01*
X053135D01*
Y046322D01*
X053155D01*
X052685Y045432D02*
Y045392D01*
X052765D01*
Y045432D01*
X052805D01*
Y045512D01*
X052765D01*
Y045552D01*
X052685D01*
Y045512D01*
X052645D01*
Y045432D01*
X052685D01*
X052705Y045452D02*
Y045432D01*
X052745D01*
Y045452D01*
X052765D01*
Y045492D01*
X052745D01*
Y045512D01*
X052705D01*
Y045492D01*
X052685D01*
Y045452D01*
X052705D01*
X052255Y047162D02*
Y047122D01*
X052335D01*
Y047162D01*
X052375D01*
Y047242D01*
X052335D01*
Y047282D01*
X052255D01*
Y047242D01*
X052215D01*
Y047162D01*
X052255D01*
X052275Y047182D02*
Y047162D01*
X052315D01*
Y047182D01*
X052335D01*
Y047222D01*
X052315D01*
Y047242D01*
X052275D01*
Y047222D01*
X052255D01*
Y047182D01*
X052275D01*
X050990Y047450D02*
Y047410D01*
X051070D01*
Y047450D01*
X051110D01*
Y047530D01*
X051070D01*
Y047570D01*
X050990D01*
Y047530D01*
X050950D01*
Y047450D01*
X050990D01*
X051010Y047470D02*
Y047450D01*
X051050D01*
Y047470D01*
X051070D01*
Y047510D01*
X051050D01*
Y047530D01*
X051010D01*
Y047510D01*
X050990D01*
Y047470D01*
X051010D01*
X050980Y045900D02*
Y045860D01*
X051060D01*
Y045900D01*
X051100D01*
Y045980D01*
X051060D01*
Y046020D01*
X050980D01*
Y045980D01*
X050940D01*
Y045900D01*
X050980D01*
X051000Y045920D02*
Y045900D01*
X051040D01*
Y045920D01*
X051060D01*
Y045960D01*
X051040D01*
Y045980D01*
X051000D01*
Y045960D01*
X050980D01*
Y045920D01*
X051000D01*
X050980Y045260D02*
Y045220D01*
X051060D01*
Y045260D01*
X051100D01*
Y045340D01*
X051060D01*
Y045380D01*
X050980D01*
Y045340D01*
X050940D01*
Y045260D01*
X050980D01*
X051000Y045280D02*
Y045260D01*
X051040D01*
Y045280D01*
X051060D01*
Y045320D01*
X051040D01*
Y045340D01*
X051000D01*
Y045320D01*
X050980D01*
Y045280D01*
X051000D01*
X038100Y048180D02*
Y048140D01*
X038180D01*
Y048180D01*
X038220D01*
Y048260D01*
X038180D01*
Y048300D01*
X038100D01*
Y048260D01*
X038060D01*
Y048180D01*
X038100D01*
X038120Y048200D02*
Y048180D01*
X038160D01*
Y048200D01*
X038180D01*
Y048240D01*
X038160D01*
Y048260D01*
X038120D01*
Y048240D01*
X038100D01*
Y048200D01*
X038120D01*
X048265Y048688D02*
Y048648D01*
X048345D01*
Y048688D01*
X048385D01*
Y048768D01*
X048345D01*
Y048808D01*
X048265D01*
Y048768D01*
X048225D01*
Y048688D01*
X048265D01*
X048285Y048708D02*
Y048688D01*
X048325D01*
Y048708D01*
X048345D01*
Y048748D01*
X048325D01*
Y048768D01*
X048285D01*
Y048748D01*
X048265D01*
Y048708D01*
X048285D01*
X050095Y048688D02*
Y048648D01*
X050175D01*
Y048688D01*
X050215D01*
Y048768D01*
X050175D01*
Y048808D01*
X050095D01*
Y048768D01*
X050055D01*
Y048688D01*
X050095D01*
X050115Y048708D02*
Y048688D01*
X050155D01*
Y048708D01*
X050175D01*
Y048748D01*
X050155D01*
Y048768D01*
X050115D01*
Y048748D01*
X050095D01*
Y048708D01*
X050115D01*
X044950Y048000D02*
Y047960D01*
X045030D01*
Y048000D01*
X045070D01*
Y048080D01*
X045030D01*
Y048120D01*
X044950D01*
Y048080D01*
X044910D01*
Y048000D01*
X044950D01*
X044970Y048020D02*
Y048000D01*
X045010D01*
Y048020D01*
X045030D01*
Y048060D01*
X045010D01*
Y048080D01*
X044970D01*
Y048060D01*
X044950D01*
Y048020D01*
X044970D01*
X046370Y046830D02*
Y046790D01*
X046450D01*
Y046830D01*
X046490D01*
Y046910D01*
X046450D01*
Y046950D01*
X046370D01*
Y046910D01*
X046330D01*
Y046830D01*
X046370D01*
X046390Y046850D02*
Y046830D01*
X046430D01*
Y046850D01*
X046450D01*
Y046890D01*
X046430D01*
Y046910D01*
X046390D01*
Y046890D01*
X046370D01*
Y046850D01*
X046390D01*
X043290Y044630D02*
Y044590D01*
X043370D01*
Y044630D01*
X043410D01*
Y044710D01*
X043370D01*
Y044750D01*
X043290D01*
Y044710D01*
X043250D01*
Y044630D01*
X043290D01*
X043310Y044650D02*
Y044630D01*
X043350D01*
Y044650D01*
X043370D01*
Y044690D01*
X043350D01*
Y044710D01*
X043310D01*
Y044690D01*
X043290D01*
Y044650D01*
X043310D01*
X044600Y043290D02*
Y043250D01*
X044680D01*
Y043290D01*
X044720D01*
Y043370D01*
X044680D01*
Y043410D01*
X044600D01*
Y043370D01*
X044560D01*
Y043290D01*
X044600D01*
X044620Y043310D02*
Y043290D01*
X044660D01*
Y043310D01*
X044680D01*
Y043350D01*
X044660D01*
Y043370D01*
X044620D01*
Y043350D01*
X044600D01*
Y043310D01*
X044620D01*
X043940Y043920D02*
Y043880D01*
X044020D01*
Y043920D01*
X044060D01*
Y044000D01*
X044020D01*
Y044040D01*
X043940D01*
Y044000D01*
X043900D01*
Y043920D01*
X043940D01*
X043960Y043940D02*
Y043920D01*
X044000D01*
Y043940D01*
X044020D01*
Y043980D01*
X044000D01*
Y044000D01*
X043960D01*
Y043980D01*
X043940D01*
Y043940D01*
X043960D01*
X042800Y045080D02*
Y045040D01*
X042880D01*
Y045080D01*
X042920D01*
Y045160D01*
X042880D01*
Y045200D01*
X042800D01*
Y045160D01*
X042760D01*
Y045080D01*
X042800D01*
X042820Y045100D02*
Y045080D01*
X042860D01*
Y045100D01*
X042880D01*
Y045140D01*
X042860D01*
Y045160D01*
X042820D01*
Y045140D01*
X042800D01*
Y045100D01*
X042820D01*
X041780Y048160D02*
Y048120D01*
X041860D01*
Y048160D01*
X041900D01*
Y048240D01*
X041860D01*
Y048280D01*
X041780D01*
Y048240D01*
X041740D01*
Y048160D01*
X041780D01*
X041800Y048180D02*
Y048160D01*
X041840D01*
Y048180D01*
X041860D01*
Y048220D01*
X041840D01*
Y048240D01*
X041800D01*
Y048220D01*
X041780D01*
Y048180D01*
X041800D01*
X040710Y049060D02*
Y049020D01*
X040790D01*
Y049060D01*
X040830D01*
Y049140D01*
X040790D01*
Y049180D01*
X040710D01*
Y049140D01*
X040670D01*
Y049060D01*
X040710D01*
X040730Y049080D02*
Y049060D01*
X040770D01*
Y049080D01*
X040790D01*
Y049120D01*
X040770D01*
Y049140D01*
X040730D01*
Y049120D01*
X040710D01*
Y049080D01*
X040730D01*
X039430Y047120D02*
Y047080D01*
X039510D01*
Y047120D01*
X039550D01*
Y047200D01*
X039510D01*
Y047240D01*
X039430D01*
Y047200D01*
X039390D01*
Y047120D01*
X039430D01*
X039450Y047140D02*
Y047120D01*
X039490D01*
Y047140D01*
X039510D01*
Y047180D01*
X039490D01*
Y047200D01*
X039450D01*
Y047180D01*
X039430D01*
Y047140D01*
X039450D01*
X040680Y047100D02*
Y047060D01*
X040760D01*
Y047100D01*
X040800D01*
Y047180D01*
X040760D01*
Y047220D01*
X040680D01*
Y047180D01*
X040640D01*
Y047100D01*
X040680D01*
X040700Y047120D02*
Y047100D01*
X040740D01*
Y047120D01*
X040760D01*
Y047160D01*
X040740D01*
Y047180D01*
X040700D01*
Y047160D01*
X040680D01*
Y047120D01*
X040700D01*
X039600Y049060D02*
Y049020D01*
X039680D01*
Y049060D01*
X039720D01*
Y049140D01*
X039680D01*
Y049180D01*
X039600D01*
Y049140D01*
X039560D01*
Y049060D01*
X039600D01*
X039620Y049080D02*
Y049060D01*
X039660D01*
Y049080D01*
X039680D01*
Y049120D01*
X039660D01*
Y049140D01*
X039620D01*
Y049120D01*
X039600D01*
Y049080D01*
X039620D01*
X048830Y051130D02*
Y051090D01*
X048910D01*
Y051130D01*
X048950D01*
Y051210D01*
X048910D01*
Y051250D01*
X048830D01*
Y051210D01*
X048790D01*
Y051130D01*
X048830D01*
X048850Y051150D02*
Y051130D01*
X048890D01*
Y051150D01*
X048910D01*
Y051190D01*
X048890D01*
Y051210D01*
X048850D01*
Y051190D01*
X048830D01*
Y051150D01*
X048850D01*
X049620Y051140D02*
Y051100D01*
X049700D01*
Y051140D01*
X049740D01*
Y051220D01*
X049700D01*
Y051260D01*
X049620D01*
Y051220D01*
X049580D01*
Y051140D01*
X049620D01*
X049640Y051160D02*
Y051140D01*
X049680D01*
Y051160D01*
X049700D01*
Y051200D01*
X049680D01*
Y051220D01*
X049640D01*
Y051200D01*
X049620D01*
Y051160D01*
X049640D01*
X049650Y051920D02*
Y051880D01*
X049730D01*
Y051920D01*
X049770D01*
Y052000D01*
X049730D01*
Y052040D01*
X049650D01*
Y052000D01*
X049610D01*
Y051920D01*
X049650D01*
X049670Y051940D02*
Y051920D01*
X049710D01*
Y051940D01*
X049730D01*
Y051980D01*
X049710D01*
Y052000D01*
X049670D01*
Y051980D01*
X049650D01*
Y051940D01*
X049670D01*
X048880Y051930D02*
Y051890D01*
X048960D01*
Y051930D01*
X049000D01*
Y052010D01*
X048960D01*
Y052050D01*
X048880D01*
Y052010D01*
X048840D01*
Y051930D01*
X048880D01*
X048900Y051950D02*
Y051930D01*
X048940D01*
Y051950D01*
X048960D01*
Y051990D01*
X048940D01*
Y052010D01*
X048900D01*
Y051990D01*
X048880D01*
Y051950D01*
X048900D01*
X048455Y050738D02*
Y050698D01*
X048535D01*
Y050738D01*
X048575D01*
Y050818D01*
X048535D01*
Y050858D01*
X048455D01*
Y050818D01*
X048415D01*
Y050738D01*
X048455D01*
X048475Y050758D02*
Y050738D01*
X048515D01*
Y050758D01*
X048535D01*
Y050798D01*
X048515D01*
Y050818D01*
X048475D01*
Y050798D01*
X048455D01*
Y050758D01*
X048475D01*
X051170Y052510D02*
Y052470D01*
X051250D01*
Y052510D01*
X051290D01*
Y052590D01*
X051250D01*
Y052630D01*
X051170D01*
Y052590D01*
X051130D01*
Y052510D01*
X051170D01*
X051190Y052530D02*
Y052510D01*
X051230D01*
Y052530D01*
X051250D01*
Y052570D01*
X051230D01*
Y052590D01*
X051190D01*
Y052570D01*
X051170D01*
Y052530D01*
X051190D01*
X051740Y052706D02*
Y052666D01*
X051820D01*
Y052706D01*
X051860D01*
Y052786D01*
X051820D01*
Y052826D01*
X051740D01*
Y052786D01*
X051700D01*
Y052706D01*
X051740D01*
X051760Y052726D02*
Y052706D01*
X051800D01*
Y052726D01*
X051820D01*
Y052766D01*
X051800D01*
Y052786D01*
X051760D01*
Y052766D01*
X051740D01*
Y052726D01*
X051760D01*
X051505Y053308D02*
Y053268D01*
X051585D01*
Y053308D01*
X051625D01*
Y053388D01*
X051585D01*
Y053428D01*
X051505D01*
Y053388D01*
X051465D01*
Y053308D01*
X051505D01*
X051525Y053328D02*
Y053308D01*
X051565D01*
Y053328D01*
X051585D01*
Y053368D01*
X051565D01*
Y053388D01*
X051525D01*
Y053368D01*
X051505D01*
Y053328D01*
X051525D01*
X051912Y051862D02*
Y051822D01*
X051992D01*
Y051862D01*
X052032D01*
Y051942D01*
X051992D01*
Y051982D01*
X051912D01*
Y051942D01*
X051872D01*
Y051862D01*
X051912D01*
X051932Y051882D02*
Y051862D01*
X051972D01*
Y051882D01*
X051992D01*
Y051922D01*
X051972D01*
Y051942D01*
X051932D01*
Y051922D01*
X051912D01*
Y051882D01*
X051932D01*
X050040Y052400D02*
Y052360D01*
X050120D01*
Y052400D01*
X050160D01*
Y052480D01*
X050120D01*
Y052520D01*
X050040D01*
Y052480D01*
X050000D01*
Y052400D01*
X050040D01*
X050060Y052420D02*
Y052400D01*
X050100D01*
Y052420D01*
X050120D01*
Y052460D01*
X050100D01*
Y052480D01*
X050060D01*
Y052460D01*
X050040D01*
Y052420D01*
X050060D01*
X050365Y052498D02*
Y052458D01*
X050445D01*
Y052498D01*
X050485D01*
Y052578D01*
X050445D01*
Y052618D01*
X050365D01*
Y052578D01*
X050325D01*
Y052498D01*
X050365D01*
X050385Y052518D02*
Y052498D01*
X050425D01*
Y052518D01*
X050445D01*
Y052558D01*
X050425D01*
Y052578D01*
X050385D01*
Y052558D01*
X050365D01*
Y052518D01*
X050385D01*
X052520Y051010D02*
Y050970D01*
X052600D01*
Y051010D01*
X052640D01*
Y051090D01*
X052600D01*
Y051130D01*
X052520D01*
Y051090D01*
X052480D01*
Y051010D01*
X052520D01*
X052540Y051030D02*
Y051010D01*
X052580D01*
Y051030D01*
X052600D01*
Y051070D01*
X052580D01*
Y051090D01*
X052540D01*
Y051070D01*
X052520D01*
Y051030D01*
X052540D01*
X052690Y053060D02*
Y053020D01*
X052770D01*
Y053060D01*
X052810D01*
Y053140D01*
X052770D01*
Y053180D01*
X052690D01*
Y053140D01*
X052650D01*
Y053060D01*
X052690D01*
X052710Y053080D02*
Y053060D01*
X052750D01*
Y053080D01*
X052770D01*
Y053120D01*
X052750D01*
Y053140D01*
X052710D01*
Y053120D01*
X052690D01*
Y053080D01*
X052710D01*
X051650Y051660D02*
Y051620D01*
X051730D01*
Y051660D01*
X051770D01*
Y051740D01*
X051730D01*
Y051780D01*
X051650D01*
Y051740D01*
X051610D01*
Y051660D01*
X051650D01*
X051670Y051680D02*
Y051660D01*
X051710D01*
Y051680D01*
X051730D01*
Y051720D01*
X051710D01*
Y051740D01*
X051670D01*
Y051720D01*
X051650D01*
Y051680D01*
X051670D01*
X047780Y052590D02*
Y052550D01*
X047860D01*
Y052590D01*
X047900D01*
Y052670D01*
X047860D01*
Y052710D01*
X047780D01*
Y052670D01*
X047740D01*
Y052590D01*
X047780D01*
X047800Y052610D02*
Y052590D01*
X047840D01*
Y052610D01*
X047860D01*
Y052650D01*
X047840D01*
Y052670D01*
X047800D01*
Y052650D01*
X047780D01*
Y052610D01*
X047800D01*
X049420Y050190D02*
Y050150D01*
X049500D01*
Y050190D01*
X049540D01*
Y050270D01*
X049500D01*
Y050310D01*
X049420D01*
Y050270D01*
X049380D01*
Y050190D01*
X049420D01*
X049440Y050210D02*
Y050190D01*
X049480D01*
Y050210D01*
X049500D01*
Y050250D01*
X049480D01*
Y050270D01*
X049440D01*
Y050250D01*
X049420D01*
Y050210D01*
X049440D01*
X049050Y050220D02*
Y050180D01*
X049130D01*
Y050220D01*
X049170D01*
Y050300D01*
X049130D01*
Y050340D01*
X049050D01*
Y050300D01*
X049010D01*
Y050220D01*
X049050D01*
X049070Y050240D02*
Y050220D01*
X049110D01*
Y050240D01*
X049130D01*
Y050280D01*
X049110D01*
Y050300D01*
X049070D01*
Y050280D01*
X049050D01*
Y050240D01*
X049070D01*
X046170Y051840D02*
Y051800D01*
X046250D01*
Y051840D01*
X046290D01*
Y051920D01*
X046250D01*
Y051960D01*
X046170D01*
Y051920D01*
X046130D01*
Y051840D01*
X046170D01*
X046190Y051860D02*
Y051840D01*
X046230D01*
Y051860D01*
X046250D01*
Y051900D01*
X046230D01*
Y051920D01*
X046190D01*
Y051900D01*
X046170D01*
Y051860D01*
X046190D01*
X046850Y051840D02*
Y051800D01*
X046930D01*
Y051840D01*
X046970D01*
Y051920D01*
X046930D01*
Y051960D01*
X046850D01*
Y051920D01*
X046810D01*
Y051840D01*
X046850D01*
X046870Y051860D02*
Y051840D01*
X046910D01*
Y051860D01*
X046930D01*
Y051900D01*
X046910D01*
Y051920D01*
X046870D01*
Y051900D01*
X046850D01*
Y051860D01*
X046870D01*
X046620Y051840D02*
Y051800D01*
X046700D01*
Y051840D01*
X046740D01*
Y051920D01*
X046700D01*
Y051960D01*
X046620D01*
Y051920D01*
X046580D01*
Y051840D01*
X046620D01*
X046640Y051860D02*
Y051840D01*
X046680D01*
Y051860D01*
X046700D01*
Y051900D01*
X046680D01*
Y051920D01*
X046640D01*
Y051900D01*
X046620D01*
Y051860D01*
X046640D01*
X046850Y051370D02*
Y051330D01*
X046930D01*
Y051370D01*
X046970D01*
Y051450D01*
X046930D01*
Y051490D01*
X046850D01*
Y051450D01*
X046810D01*
Y051370D01*
X046850D01*
X046870Y051390D02*
Y051370D01*
X046910D01*
Y051390D01*
X046930D01*
Y051430D01*
X046910D01*
Y051450D01*
X046870D01*
Y051430D01*
X046850D01*
Y051390D01*
X046870D01*
X046620Y051370D02*
Y051330D01*
X046700D01*
Y051370D01*
X046740D01*
Y051450D01*
X046700D01*
Y051490D01*
X046620D01*
Y051450D01*
X046580D01*
Y051370D01*
X046620D01*
X046640Y051390D02*
Y051370D01*
X046680D01*
Y051390D01*
X046700D01*
Y051430D01*
X046680D01*
Y051450D01*
X046640D01*
Y051430D01*
X046620D01*
Y051390D01*
X046640D01*
X046850Y052070D02*
Y052030D01*
X046930D01*
Y052070D01*
X046970D01*
Y052150D01*
X046930D01*
Y052190D01*
X046850D01*
Y052150D01*
X046810D01*
Y052070D01*
X046850D01*
X046870Y052090D02*
Y052070D01*
X046910D01*
Y052090D01*
X046930D01*
Y052130D01*
X046910D01*
Y052150D01*
X046870D01*
Y052130D01*
X046850D01*
Y052090D01*
X046870D01*
X046620Y052070D02*
Y052030D01*
X046700D01*
Y052070D01*
X046740D01*
Y052150D01*
X046700D01*
Y052190D01*
X046620D01*
Y052150D01*
X046580D01*
Y052070D01*
X046620D01*
X046640Y052090D02*
Y052070D01*
X046680D01*
Y052090D01*
X046700D01*
Y052130D01*
X046680D01*
Y052150D01*
X046640D01*
Y052130D01*
X046620D01*
Y052090D01*
X046640D01*
X046850Y051600D02*
Y051560D01*
X046930D01*
Y051600D01*
X046970D01*
Y051680D01*
X046930D01*
Y051720D01*
X046850D01*
Y051680D01*
X046810D01*
Y051600D01*
X046850D01*
X046870Y051620D02*
Y051600D01*
X046910D01*
Y051620D01*
X046930D01*
Y051660D01*
X046910D01*
Y051680D01*
X046870D01*
Y051660D01*
X046850D01*
Y051620D01*
X046870D01*
X046620Y051600D02*
Y051560D01*
X046700D01*
Y051600D01*
X046740D01*
Y051680D01*
X046700D01*
Y051720D01*
X046620D01*
Y051680D01*
X046580D01*
Y051600D01*
X046620D01*
X046640Y051620D02*
Y051600D01*
X046680D01*
Y051620D01*
X046700D01*
Y051660D01*
X046680D01*
Y051680D01*
X046640D01*
Y051660D01*
X046620D01*
Y051620D01*
X046640D01*
X046400Y051840D02*
Y051800D01*
X046480D01*
Y051840D01*
X046520D01*
Y051920D01*
X046480D01*
Y051960D01*
X046400D01*
Y051920D01*
X046360D01*
Y051840D01*
X046400D01*
X046420Y051860D02*
Y051840D01*
X046460D01*
Y051860D01*
X046480D01*
Y051900D01*
X046460D01*
Y051920D01*
X046420D01*
Y051900D01*
X046400D01*
Y051860D01*
X046420D01*
X046400Y052070D02*
Y052030D01*
X046480D01*
Y052070D01*
X046520D01*
Y052150D01*
X046480D01*
Y052190D01*
X046400D01*
Y052150D01*
X046360D01*
Y052070D01*
X046400D01*
X046420Y052090D02*
Y052070D01*
X046460D01*
Y052090D01*
X046480D01*
Y052130D01*
X046460D01*
Y052150D01*
X046420D01*
Y052130D01*
X046400D01*
Y052090D01*
X046420D01*
X046170Y052070D02*
Y052030D01*
X046250D01*
Y052070D01*
X046290D01*
Y052150D01*
X046250D01*
Y052190D01*
X046170D01*
Y052150D01*
X046130D01*
Y052070D01*
X046170D01*
X046190Y052090D02*
Y052070D01*
X046230D01*
Y052090D01*
X046250D01*
Y052130D01*
X046230D01*
Y052150D01*
X046190D01*
Y052130D01*
X046170D01*
Y052090D01*
X046190D01*
X046410Y051380D02*
Y051340D01*
X046490D01*
Y051380D01*
X046530D01*
Y051460D01*
X046490D01*
Y051500D01*
X046410D01*
Y051460D01*
X046370D01*
Y051380D01*
X046410D01*
X046430Y051400D02*
Y051380D01*
X046470D01*
Y051400D01*
X046490D01*
Y051440D01*
X046470D01*
Y051460D01*
X046430D01*
Y051440D01*
X046410D01*
Y051400D01*
X046430D01*
X046410Y051610D02*
Y051570D01*
X046490D01*
Y051610D01*
X046530D01*
Y051690D01*
X046490D01*
Y051730D01*
X046410D01*
Y051690D01*
X046370D01*
Y051610D01*
X046410D01*
X046430Y051630D02*
Y051610D01*
X046470D01*
Y051630D01*
X046490D01*
Y051670D01*
X046470D01*
Y051690D01*
X046430D01*
Y051670D01*
X046410D01*
Y051630D01*
X046430D01*
X046180Y051380D02*
Y051340D01*
X046260D01*
Y051380D01*
X046300D01*
Y051460D01*
X046260D01*
Y051500D01*
X046180D01*
Y051460D01*
X046140D01*
Y051380D01*
X046180D01*
X046200Y051400D02*
Y051380D01*
X046240D01*
Y051400D01*
X046260D01*
Y051440D01*
X046240D01*
Y051460D01*
X046200D01*
Y051440D01*
X046180D01*
Y051400D01*
X046200D01*
X046180Y051610D02*
Y051570D01*
X046260D01*
Y051610D01*
X046300D01*
Y051690D01*
X046260D01*
Y051730D01*
X046180D01*
Y051690D01*
X046140D01*
Y051610D01*
X046180D01*
X046200Y051630D02*
Y051610D01*
X046240D01*
Y051630D01*
X046260D01*
Y051670D01*
X046240D01*
Y051690D01*
X046200D01*
Y051670D01*
X046180D01*
Y051630D01*
X046200D01*
X049253Y051541D02*
Y051501D01*
X049333D01*
Y051541D01*
X049373D01*
Y051621D01*
X049333D01*
Y051661D01*
X049253D01*
Y051621D01*
X049213D01*
Y051541D01*
X049253D01*
X049273Y051561D02*
Y051541D01*
X049313D01*
Y051561D01*
X049333D01*
Y051601D01*
X049313D01*
Y051621D01*
X049273D01*
Y051601D01*
X049253D01*
Y051561D01*
X049273D01*
X050285Y051186D02*
Y051146D01*
X050365D01*
Y051186D01*
X050405D01*
Y051266D01*
X050365D01*
Y051306D01*
X050285D01*
Y051266D01*
X050245D01*
Y051186D01*
X050285D01*
X050305Y051206D02*
Y051186D01*
X050345D01*
Y051206D01*
X050365D01*
Y051246D01*
X050345D01*
Y051266D01*
X050305D01*
Y051246D01*
X050285D01*
Y051206D01*
X050305D01*
X049485Y049768D02*
Y049728D01*
X049565D01*
Y049768D01*
X049605D01*
Y049848D01*
X049565D01*
Y049888D01*
X049485D01*
Y049848D01*
X049445D01*
Y049768D01*
X049485D01*
X049505Y049788D02*
Y049768D01*
X049545D01*
Y049788D01*
X049565D01*
Y049828D01*
X049545D01*
Y049848D01*
X049505D01*
Y049828D01*
X049485D01*
Y049788D01*
X049505D01*
X047675Y050328D02*
Y050288D01*
X047755D01*
Y050328D01*
X047795D01*
Y050408D01*
X047755D01*
Y050448D01*
X047675D01*
Y050408D01*
X047635D01*
Y050328D01*
X047675D01*
X047695Y050348D02*
Y050328D01*
X047735D01*
Y050348D01*
X047755D01*
Y050388D01*
X047735D01*
Y050408D01*
X047695D01*
Y050388D01*
X047675D01*
Y050348D01*
X047695D01*
X048115Y051838D02*
Y051798D01*
X048195D01*
Y051838D01*
X048235D01*
Y051918D01*
X048195D01*
Y051958D01*
X048115D01*
Y051918D01*
X048075D01*
Y051838D01*
X048115D01*
X048135Y051858D02*
Y051838D01*
X048175D01*
Y051858D01*
X048195D01*
Y051898D01*
X048175D01*
Y051918D01*
X048135D01*
Y051898D01*
X048115D01*
Y051858D01*
X048135D01*
X048435Y053448D02*
Y053408D01*
X048515D01*
Y053448D01*
X048555D01*
Y053528D01*
X048515D01*
Y053568D01*
X048435D01*
Y053528D01*
X048395D01*
Y053448D01*
X048435D01*
X048455Y053468D02*
Y053448D01*
X048495D01*
Y053468D01*
X048515D01*
Y053508D01*
X048495D01*
Y053528D01*
X048455D01*
Y053508D01*
X048435D01*
Y053468D01*
X048455D01*
X048495Y052588D02*
Y052548D01*
X048575D01*
Y052588D01*
X048615D01*
Y052668D01*
X048575D01*
Y052708D01*
X048495D01*
Y052668D01*
X048455D01*
Y052588D01*
X048495D01*
X048515Y052608D02*
Y052588D01*
X048555D01*
Y052608D01*
X048575D01*
Y052648D01*
X048555D01*
Y052668D01*
X048515D01*
Y052648D01*
X048495D01*
Y052608D01*
X048515D01*
X050145Y053678D02*
Y053638D01*
X050225D01*
Y053678D01*
X050265D01*
Y053758D01*
X050225D01*
Y053798D01*
X050145D01*
Y053758D01*
X050105D01*
Y053678D01*
X050145D01*
X050165Y053698D02*
Y053678D01*
X050205D01*
Y053698D01*
X050225D01*
Y053738D01*
X050205D01*
Y053758D01*
X050165D01*
Y053738D01*
X050145D01*
Y053698D01*
X050165D01*
X050125Y053278D02*
Y053238D01*
X050205D01*
Y053278D01*
X050245D01*
Y053358D01*
X050205D01*
Y053398D01*
X050125D01*
Y053358D01*
X050085D01*
Y053278D01*
X050125D01*
X050145Y053298D02*
Y053278D01*
X050185D01*
Y053298D01*
X050205D01*
Y053338D01*
X050185D01*
Y053358D01*
X050145D01*
Y053338D01*
X050125D01*
Y053298D01*
X050145D01*
X047785Y052238D02*
Y052198D01*
X047865D01*
Y052238D01*
X047905D01*
Y052318D01*
X047865D01*
Y052358D01*
X047785D01*
Y052318D01*
X047745D01*
Y052238D01*
X047785D01*
X047805Y052258D02*
Y052238D01*
X047845D01*
Y052258D01*
X047865D01*
Y052298D01*
X047845D01*
Y052318D01*
X047805D01*
Y052298D01*
X047785D01*
Y052258D01*
X047805D01*
X050025Y050738D02*
Y050698D01*
X050105D01*
Y050738D01*
X050145D01*
Y050818D01*
X050105D01*
Y050858D01*
X050025D01*
Y050818D01*
X049985D01*
Y050738D01*
X050025D01*
X050045Y050758D02*
Y050738D01*
X050085D01*
Y050758D01*
X050105D01*
Y050798D01*
X050085D01*
Y050818D01*
X050045D01*
Y050798D01*
X050025D01*
Y050758D01*
X050045D01*
X052085Y051598D02*
Y051558D01*
X052165D01*
Y051598D01*
X052205D01*
Y051678D01*
X052165D01*
Y051718D01*
X052085D01*
Y051678D01*
X052045D01*
Y051598D01*
X052085D01*
X052105Y051618D02*
Y051598D01*
X052145D01*
Y051618D01*
X052165D01*
Y051658D01*
X052145D01*
Y051678D01*
X052105D01*
Y051658D01*
X052085D01*
Y051618D01*
X052105D01*
X040710Y046770D02*
Y046730D01*
X040790D01*
Y046770D01*
X040830D01*
Y046850D01*
X040790D01*
Y046890D01*
X040710D01*
Y046850D01*
X040670D01*
Y046770D01*
X040710D01*
X040730Y046790D02*
Y046770D01*
X040770D01*
Y046790D01*
X040790D01*
Y046830D01*
X040770D01*
Y046850D01*
X040730D01*
Y046830D01*
X040710D01*
Y046790D01*
X040730D01*
X040690Y046230D02*
Y046190D01*
X040770D01*
Y046230D01*
X040810D01*
Y046310D01*
X040770D01*
Y046350D01*
X040690D01*
Y046310D01*
X040650D01*
Y046230D01*
X040690D01*
X040710Y046250D02*
Y046230D01*
X040750D01*
Y046250D01*
X040770D01*
Y046290D01*
X040750D01*
Y046310D01*
X040710D01*
Y046290D01*
X040690D01*
Y046250D01*
X040710D01*
X042420D02*
Y046210D01*
X042500D01*
Y046250D01*
X042540D01*
Y046330D01*
X042500D01*
Y046370D01*
X042420D01*
Y046330D01*
X042380D01*
Y046250D01*
X042420D01*
X042440Y046270D02*
Y046250D01*
X042480D01*
Y046270D01*
X042500D01*
Y046310D01*
X042480D01*
Y046330D01*
X042440D01*
Y046310D01*
X042420D01*
Y046270D01*
X042440D01*
X027590Y017700D02*
Y017660D01*
X027670D01*
Y017700D01*
X027710D01*
Y017780D01*
X027670D01*
Y017820D01*
X027590D01*
Y017780D01*
X027550D01*
Y017700D01*
X027590D01*
X027610Y017720D02*
Y017700D01*
X027650D01*
Y017720D01*
X027670D01*
Y017760D01*
X027650D01*
Y017780D01*
X027610D01*
Y017760D01*
X027590D01*
Y017720D01*
X027610D01*
X027170Y017900D02*
Y017860D01*
X027250D01*
Y017900D01*
X027290D01*
Y017980D01*
X027250D01*
Y018020D01*
X027170D01*
Y017980D01*
X027130D01*
Y017900D01*
X027170D01*
X027190Y017920D02*
Y017900D01*
X027230D01*
Y017920D01*
X027250D01*
Y017960D01*
X027230D01*
Y017980D01*
X027190D01*
Y017960D01*
X027170D01*
Y017920D01*
X027190D01*
X027380Y017900D02*
Y017860D01*
X027460D01*
Y017900D01*
X027500D01*
Y017980D01*
X027460D01*
Y018020D01*
X027380D01*
Y017980D01*
X027340D01*
Y017900D01*
X027380D01*
X027400Y017920D02*
Y017900D01*
X027440D01*
Y017920D01*
X027460D01*
Y017960D01*
X027440D01*
Y017980D01*
X027400D01*
Y017960D01*
X027380D01*
Y017920D01*
X027400D01*
X027380Y018110D02*
Y018070D01*
X027460D01*
Y018110D01*
X027500D01*
Y018190D01*
X027460D01*
Y018230D01*
X027380D01*
Y018190D01*
X027340D01*
Y018110D01*
X027380D01*
X027400Y018130D02*
Y018110D01*
X027440D01*
Y018130D01*
X027460D01*
Y018170D01*
X027440D01*
Y018190D01*
X027400D01*
Y018170D01*
X027380D01*
Y018130D01*
X027400D01*
X027690Y043200D02*
Y043160D01*
X027770D01*
Y043200D01*
X027810D01*
Y043280D01*
X027770D01*
Y043320D01*
X027690D01*
Y043280D01*
X027650D01*
Y043200D01*
X027690D01*
X027710Y043220D02*
Y043200D01*
X027750D01*
Y043220D01*
X027770D01*
Y043260D01*
X027750D01*
Y043280D01*
X027710D01*
Y043260D01*
X027690D01*
Y043220D01*
X027710D01*
X027690Y043400D02*
Y043360D01*
X027770D01*
Y043400D01*
X027810D01*
Y043480D01*
X027770D01*
Y043520D01*
X027690D01*
Y043480D01*
X027650D01*
Y043400D01*
X027690D01*
X027710Y043420D02*
Y043400D01*
X027750D01*
Y043420D01*
X027770D01*
Y043460D01*
X027750D01*
Y043480D01*
X027710D01*
Y043460D01*
X027690D01*
Y043420D01*
X027710D01*
X027910Y043200D02*
Y043160D01*
X027990D01*
Y043200D01*
X028030D01*
Y043280D01*
X027990D01*
Y043320D01*
X027910D01*
Y043280D01*
X027870D01*
Y043200D01*
X027910D01*
X027930Y043220D02*
Y043200D01*
X027970D01*
Y043220D01*
X027990D01*
Y043260D01*
X027970D01*
Y043280D01*
X027930D01*
Y043260D01*
X027910D01*
Y043220D01*
X027930D01*
X027910Y043610D02*
Y043570D01*
X027990D01*
Y043610D01*
X028030D01*
Y043690D01*
X027990D01*
Y043730D01*
X027910D01*
Y043690D01*
X027870D01*
Y043610D01*
X027910D01*
X027930Y043630D02*
Y043610D01*
X027970D01*
Y043630D01*
X027990D01*
Y043670D01*
X027970D01*
Y043690D01*
X027930D01*
Y043670D01*
X027910D01*
Y043630D01*
X027930D01*
X027910Y043400D02*
Y043360D01*
X027990D01*
Y043400D01*
X028030D01*
Y043480D01*
X027990D01*
Y043520D01*
X027910D01*
Y043480D01*
X027870D01*
Y043400D01*
X027910D01*
X027930Y043420D02*
Y043400D01*
X027970D01*
Y043420D01*
X027990D01*
Y043460D01*
X027970D01*
Y043480D01*
X027930D01*
Y043460D01*
X027910D01*
Y043420D01*
X027930D01*
X027180Y017700D02*
Y017660D01*
X027260D01*
Y017700D01*
X027300D01*
Y017780D01*
X027260D01*
Y017820D01*
X027180D01*
Y017780D01*
X027140D01*
Y017700D01*
X027180D01*
X027200Y017720D02*
Y017700D01*
X027240D01*
Y017720D01*
X027260D01*
Y017760D01*
X027240D01*
Y017780D01*
X027200D01*
Y017760D01*
X027180D01*
Y017720D01*
X027200D01*
X027390Y017700D02*
Y017660D01*
X027470D01*
Y017700D01*
X027510D01*
Y017780D01*
X027470D01*
Y017820D01*
X027390D01*
Y017780D01*
X027350D01*
Y017700D01*
X027390D01*
X027410Y017720D02*
Y017700D01*
X027450D01*
Y017720D01*
X027470D01*
Y017760D01*
X027450D01*
Y017780D01*
X027410D01*
Y017760D01*
X027390D01*
Y017720D01*
X027410D01*
X036830Y020400D02*
Y020360D01*
X036910D01*
Y020400D01*
X036950D01*
Y020480D01*
X036910D01*
Y020520D01*
X036830D01*
Y020480D01*
X036790D01*
Y020400D01*
X036830D01*
X036850Y020420D02*
Y020400D01*
X036890D01*
Y020420D01*
X036910D01*
Y020460D01*
X036890D01*
Y020480D01*
X036850D01*
Y020460D01*
X036830D01*
Y020420D01*
X036850D01*
X037580Y020410D02*
Y020370D01*
X037660D01*
Y020410D01*
X037700D01*
Y020490D01*
X037660D01*
Y020530D01*
X037580D01*
Y020490D01*
X037540D01*
Y020410D01*
X037580D01*
X037600Y020430D02*
Y020410D01*
X037640D01*
Y020430D01*
X037660D01*
Y020470D01*
X037640D01*
Y020490D01*
X037600D01*
Y020470D01*
X037580D01*
Y020430D01*
X037600D01*
X039100Y018010D02*
Y017970D01*
X039180D01*
Y018010D01*
X039220D01*
Y018090D01*
X039180D01*
Y018130D01*
X039100D01*
Y018090D01*
X039060D01*
Y018010D01*
X039100D01*
X039120Y018030D02*
Y018010D01*
X039160D01*
Y018030D01*
X039180D01*
Y018070D01*
X039160D01*
Y018090D01*
X039120D01*
Y018070D01*
X039100D01*
Y018030D01*
X039120D01*
X038300Y018020D02*
Y017980D01*
X038380D01*
Y018020D01*
X038420D01*
Y018100D01*
X038380D01*
Y018140D01*
X038300D01*
Y018100D01*
X038260D01*
Y018020D01*
X038300D01*
X038320Y018040D02*
Y018020D01*
X038360D01*
Y018040D01*
X038380D01*
Y018080D01*
X038360D01*
Y018100D01*
X038320D01*
Y018080D01*
X038300D01*
Y018040D01*
X038320D01*
X039910Y018444D02*
Y018404D01*
X039990D01*
Y018444D01*
X040030D01*
Y018524D01*
X039990D01*
Y018564D01*
X039910D01*
Y018524D01*
X039870D01*
Y018444D01*
X039910D01*
X039930Y018464D02*
Y018444D01*
X039970D01*
Y018464D01*
X039990D01*
Y018504D01*
X039970D01*
Y018524D01*
X039930D01*
Y018504D01*
X039910D01*
Y018464D01*
X039930D01*
X029120Y048770D02*
Y048730D01*
X029200D01*
Y048770D01*
X029240D01*
Y048850D01*
X029200D01*
Y048890D01*
X029120D01*
Y048850D01*
X029080D01*
Y048770D01*
X029120D01*
X029140Y048790D02*
Y048770D01*
X029180D01*
Y048790D01*
X029200D01*
Y048830D01*
X029180D01*
Y048850D01*
X029140D01*
Y048830D01*
X029120D01*
Y048790D01*
X029140D01*
X029230Y046510D02*
Y046470D01*
X029310D01*
Y046510D01*
X029350D01*
Y046590D01*
X029310D01*
Y046630D01*
X029230D01*
Y046590D01*
X029190D01*
Y046510D01*
X029230D01*
X029250Y046530D02*
Y046510D01*
X029290D01*
Y046530D01*
X029310D01*
Y046570D01*
X029290D01*
Y046590D01*
X029250D01*
Y046570D01*
X029230D01*
Y046530D01*
X029250D01*
X028381Y043681D02*
Y043641D01*
X028461D01*
Y043681D01*
X028501D01*
Y043761D01*
X028461D01*
Y043801D01*
X028381D01*
Y043761D01*
X028341D01*
Y043681D01*
X028381D01*
X028401Y043701D02*
Y043681D01*
X028441D01*
Y043701D01*
X028461D01*
Y043741D01*
X028441D01*
Y043761D01*
X028401D01*
Y043741D01*
X028381D01*
Y043701D01*
X028401D01*
X028600Y049032D02*
Y048992D01*
X028680D01*
Y049032D01*
X028720D01*
Y049112D01*
X028680D01*
Y049152D01*
X028600D01*
Y049112D01*
X028560D01*
Y049032D01*
X028600D01*
X028620Y049052D02*
Y049032D01*
X028660D01*
Y049052D01*
X028680D01*
Y049092D01*
X028660D01*
Y049112D01*
X028620D01*
Y049092D01*
X028600D01*
Y049052D01*
X028620D01*
X028370Y047200D02*
Y047160D01*
X028450D01*
Y047200D01*
X028490D01*
Y047280D01*
X028450D01*
Y047320D01*
X028370D01*
Y047280D01*
X028330D01*
Y047200D01*
X028370D01*
X028390Y047220D02*
Y047200D01*
X028430D01*
Y047220D01*
X028450D01*
Y047260D01*
X028430D01*
Y047280D01*
X028390D01*
Y047260D01*
X028370D01*
Y047220D01*
X028390D01*
X023770Y039880D02*
Y039840D01*
X023850D01*
Y039880D01*
X023890D01*
Y039960D01*
X023850D01*
Y040000D01*
X023770D01*
Y039960D01*
X023730D01*
Y039880D01*
X023770D01*
X023790Y039900D02*
Y039880D01*
X023830D01*
Y039900D01*
X023850D01*
Y039940D01*
X023830D01*
Y039960D01*
X023790D01*
Y039940D01*
X023770D01*
Y039900D01*
X023790D01*
X038530Y047620D02*
Y047580D01*
X038610D01*
Y047620D01*
X038650D01*
Y047700D01*
X038610D01*
Y047740D01*
X038530D01*
Y047700D01*
X038490D01*
Y047620D01*
X038530D01*
X038550Y047640D02*
Y047620D01*
X038590D01*
Y047640D01*
X038610D01*
Y047680D01*
X038590D01*
Y047700D01*
X038550D01*
Y047680D01*
X038530D01*
Y047640D01*
X038550D01*
X038900Y048250D02*
Y048210D01*
X038980D01*
Y048250D01*
X039020D01*
Y048330D01*
X038980D01*
Y048370D01*
X038900D01*
Y048330D01*
X038860D01*
Y048250D01*
X038900D01*
X038920Y048270D02*
Y048250D01*
X038960D01*
Y048270D01*
X038980D01*
Y048310D01*
X038960D01*
Y048330D01*
X038920D01*
Y048310D01*
X038900D01*
Y048270D01*
X038920D01*
X039450Y048460D02*
Y048420D01*
X039530D01*
Y048460D01*
X039570D01*
Y048540D01*
X039530D01*
Y048580D01*
X039450D01*
Y048540D01*
X039410D01*
Y048460D01*
X039450D01*
X039470Y048480D02*
Y048460D01*
X039510D01*
Y048480D01*
X039530D01*
Y048520D01*
X039510D01*
Y048540D01*
X039470D01*
Y048520D01*
X039450D01*
Y048480D01*
X039470D01*
X039060Y047710D02*
Y047670D01*
X039140D01*
Y047710D01*
X039180D01*
Y047790D01*
X039140D01*
Y047830D01*
X039060D01*
Y047790D01*
X039020D01*
Y047710D01*
X039060D01*
X039080Y047730D02*
Y047710D01*
X039120D01*
Y047730D01*
X039140D01*
Y047770D01*
X039120D01*
Y047790D01*
X039080D01*
Y047770D01*
X039060D01*
Y047730D01*
X039080D01*
X039720Y050270D02*
Y050230D01*
X039800D01*
Y050270D01*
X039840D01*
Y050350D01*
X039800D01*
Y050390D01*
X039720D01*
Y050350D01*
X039680D01*
Y050270D01*
X039720D01*
X039740Y050290D02*
Y050270D01*
X039780D01*
Y050290D01*
X039800D01*
Y050330D01*
X039780D01*
Y050350D01*
X039740D01*
Y050330D01*
X039720D01*
Y050290D01*
X039740D01*
X046480Y041840D02*
Y041800D01*
X046560D01*
Y041840D01*
X046600D01*
Y041920D01*
X046560D01*
Y041960D01*
X046480D01*
Y041920D01*
X046440D01*
Y041840D01*
X046480D01*
X046500Y041860D02*
Y041840D01*
X046540D01*
Y041860D01*
X046560D01*
Y041900D01*
X046540D01*
Y041920D01*
X046500D01*
Y041900D01*
X046480D01*
Y041860D01*
X046500D01*
X047370Y041600D02*
Y041560D01*
X047450D01*
Y041600D01*
X047490D01*
Y041680D01*
X047450D01*
Y041720D01*
X047370D01*
Y041680D01*
X047330D01*
Y041600D01*
X047370D01*
X047390Y041620D02*
Y041600D01*
X047430D01*
Y041620D01*
X047450D01*
Y041660D01*
X047430D01*
Y041680D01*
X047390D01*
Y041660D01*
X047370D01*
Y041620D01*
X047390D01*
X047350Y042360D02*
Y042320D01*
X047430D01*
Y042360D01*
X047470D01*
Y042440D01*
X047430D01*
Y042480D01*
X047350D01*
Y042440D01*
X047310D01*
Y042360D01*
X047350D01*
X047370Y042380D02*
Y042360D01*
X047410D01*
Y042380D01*
X047430D01*
Y042420D01*
X047410D01*
Y042440D01*
X047370D01*
Y042420D01*
X047350D01*
Y042380D01*
X047370D01*
X046320Y042790D02*
Y042750D01*
X046400D01*
Y042790D01*
X046440D01*
Y042870D01*
X046400D01*
Y042910D01*
X046320D01*
Y042870D01*
X046280D01*
Y042790D01*
X046320D01*
X046340Y042810D02*
Y042790D01*
X046380D01*
Y042810D01*
X046400D01*
Y042850D01*
X046380D01*
Y042870D01*
X046340D01*
Y042850D01*
X046320D01*
Y042810D01*
X046340D01*
X045349Y042696D02*
Y042656D01*
X045429D01*
Y042696D01*
X045469D01*
Y042776D01*
X045429D01*
Y042816D01*
X045349D01*
Y042776D01*
X045309D01*
Y042696D01*
X045349D01*
X045369Y042716D02*
Y042696D01*
X045409D01*
Y042716D01*
X045429D01*
Y042756D01*
X045409D01*
Y042776D01*
X045369D01*
Y042756D01*
X045349D01*
Y042716D01*
X045369D01*
X042200Y045130D02*
Y045090D01*
X042280D01*
Y045130D01*
X042320D01*
Y045210D01*
X042280D01*
Y045250D01*
X042200D01*
Y045210D01*
X042160D01*
Y045130D01*
X042200D01*
X042220Y045150D02*
Y045130D01*
X042260D01*
Y045150D01*
X042280D01*
Y045190D01*
X042260D01*
Y045210D01*
X042220D01*
Y045190D01*
X042200D01*
Y045150D01*
X042220D01*
X041460Y045160D02*
Y045120D01*
X041540D01*
Y045160D01*
X041580D01*
Y045240D01*
X041540D01*
Y045280D01*
X041460D01*
Y045240D01*
X041420D01*
Y045160D01*
X041460D01*
X041480Y045180D02*
Y045160D01*
X041520D01*
Y045180D01*
X041540D01*
Y045220D01*
X041520D01*
Y045240D01*
X041480D01*
Y045220D01*
X041460D01*
Y045180D01*
X041480D01*
X040630Y045230D02*
Y045190D01*
X040710D01*
Y045230D01*
X040750D01*
Y045310D01*
X040710D01*
Y045350D01*
X040630D01*
Y045310D01*
X040590D01*
Y045230D01*
X040630D01*
X040650Y045250D02*
Y045230D01*
X040690D01*
Y045250D01*
X040710D01*
Y045290D01*
X040690D01*
Y045310D01*
X040650D01*
Y045290D01*
X040630D01*
Y045250D01*
X040650D01*
X039660Y045270D02*
Y045230D01*
X039740D01*
Y045270D01*
X039780D01*
Y045350D01*
X039740D01*
Y045390D01*
X039660D01*
Y045350D01*
X039620D01*
Y045270D01*
X039660D01*
X039680Y045290D02*
Y045270D01*
X039720D01*
Y045290D01*
X039740D01*
Y045330D01*
X039720D01*
Y045350D01*
X039680D01*
Y045330D01*
X039660D01*
Y045290D01*
X039680D01*
X039060Y045850D02*
Y045810D01*
X039140D01*
Y045850D01*
X039180D01*
Y045930D01*
X039140D01*
Y045970D01*
X039060D01*
Y045930D01*
X039020D01*
Y045850D01*
X039060D01*
X039080Y045870D02*
Y045850D01*
X039120D01*
Y045870D01*
X039140D01*
Y045910D01*
X039120D01*
Y045930D01*
X039080D01*
Y045910D01*
X039060D01*
Y045870D01*
X039080D01*
X038220Y046100D02*
Y046060D01*
X038300D01*
Y046100D01*
X038340D01*
Y046180D01*
X038300D01*
Y046220D01*
X038220D01*
Y046180D01*
X038180D01*
Y046100D01*
X038220D01*
X038240Y046120D02*
Y046100D01*
X038280D01*
Y046120D01*
X038300D01*
Y046160D01*
X038280D01*
Y046180D01*
X038240D01*
Y046160D01*
X038220D01*
Y046120D01*
X038240D01*
X038300Y046670D02*
Y046630D01*
X038380D01*
Y046670D01*
X038420D01*
Y046750D01*
X038380D01*
Y046790D01*
X038300D01*
Y046750D01*
X038260D01*
Y046670D01*
X038300D01*
X038320Y046690D02*
Y046670D01*
X038360D01*
Y046690D01*
X038380D01*
Y046730D01*
X038360D01*
Y046750D01*
X038320D01*
Y046730D01*
X038300D01*
Y046690D01*
X038320D01*
X037840Y046770D02*
Y046730D01*
X037920D01*
Y046770D01*
X037960D01*
Y046850D01*
X037920D01*
Y046890D01*
X037840D01*
Y046850D01*
X037800D01*
Y046770D01*
X037840D01*
X037860Y046790D02*
Y046770D01*
X037900D01*
Y046790D01*
X037920D01*
Y046830D01*
X037900D01*
Y046850D01*
X037860D01*
Y046830D01*
X037840D01*
Y046790D01*
X037860D01*
X037320Y046760D02*
Y046720D01*
X037400D01*
Y046760D01*
X037440D01*
Y046840D01*
X037400D01*
Y046880D01*
X037320D01*
Y046840D01*
X037280D01*
Y046760D01*
X037320D01*
X037340Y046780D02*
Y046760D01*
X037380D01*
Y046780D01*
X037400D01*
Y046820D01*
X037380D01*
Y046840D01*
X037340D01*
Y046820D01*
X037320D01*
Y046780D01*
X037340D01*
X046030Y043390D02*
Y043350D01*
X046110D01*
Y043390D01*
X046150D01*
Y043470D01*
X046110D01*
Y043510D01*
X046030D01*
Y043470D01*
X045990D01*
Y043390D01*
X046030D01*
X046050Y043410D02*
Y043390D01*
X046090D01*
Y043410D01*
X046110D01*
Y043450D01*
X046090D01*
Y043470D01*
X046050D01*
Y043450D01*
X046030D01*
Y043410D01*
X046050D01*
X045419Y043446D02*
Y043406D01*
X045499D01*
Y043446D01*
X045539D01*
Y043526D01*
X045499D01*
Y043566D01*
X045419D01*
Y043526D01*
X045379D01*
Y043446D01*
X045419D01*
X045439Y043466D02*
Y043446D01*
X045479D01*
Y043466D01*
X045499D01*
Y043506D01*
X045479D01*
Y043526D01*
X045439D01*
Y043506D01*
X045419D01*
Y043466D01*
X045439D01*
X044880Y043970D02*
Y043930D01*
X044960D01*
Y043970D01*
X045000D01*
Y044050D01*
X044960D01*
Y044090D01*
X044880D01*
Y044050D01*
X044840D01*
Y043970D01*
X044880D01*
X044900Y043990D02*
Y043970D01*
X044940D01*
Y043990D01*
X044960D01*
Y044030D01*
X044940D01*
Y044050D01*
X044900D01*
Y044030D01*
X044880D01*
Y043990D01*
X044900D01*
X044249Y044616D02*
Y044576D01*
X044329D01*
Y044616D01*
X044369D01*
Y044696D01*
X044329D01*
Y044736D01*
X044249D01*
Y044696D01*
X044209D01*
Y044616D01*
X044249D01*
X044269Y044636D02*
Y044616D01*
X044309D01*
Y044636D01*
X044329D01*
Y044676D01*
X044309D01*
Y044696D01*
X044269D01*
Y044676D01*
X044249D01*
Y044636D01*
X044269D01*
X043779Y045106D02*
Y045066D01*
X043859D01*
Y045106D01*
X043899D01*
Y045186D01*
X043859D01*
Y045226D01*
X043779D01*
Y045186D01*
X043739D01*
Y045106D01*
X043779D01*
X043799Y045126D02*
Y045106D01*
X043839D01*
Y045126D01*
X043859D01*
Y045166D01*
X043839D01*
Y045186D01*
X043799D01*
Y045166D01*
X043779D01*
Y045126D01*
X043799D01*
X042310Y047130D02*
Y047090D01*
X042390D01*
Y047130D01*
X042430D01*
Y047210D01*
X042390D01*
Y047250D01*
X042310D01*
Y047210D01*
X042270D01*
Y047130D01*
X042310D01*
X042330Y047150D02*
Y047130D01*
X042370D01*
Y047150D01*
X042390D01*
Y047190D01*
X042370D01*
Y047210D01*
X042330D01*
Y047190D01*
X042310D01*
Y047150D01*
X042330D01*
X042740Y045860D02*
Y045820D01*
X042820D01*
Y045860D01*
X042860D01*
Y045940D01*
X042820D01*
Y045980D01*
X042740D01*
Y045940D01*
X042700D01*
Y045860D01*
X042740D01*
X042760Y045880D02*
Y045860D01*
X042800D01*
Y045880D01*
X042820D01*
Y045920D01*
X042800D01*
Y045940D01*
X042760D01*
Y045920D01*
X042740D01*
Y045880D01*
X042760D01*
X041910D02*
Y045840D01*
X041990D01*
Y045880D01*
X042030D01*
Y045960D01*
X041990D01*
Y046000D01*
X041910D01*
Y045960D01*
X041870D01*
Y045880D01*
X041910D01*
X041930Y045900D02*
Y045880D01*
X041970D01*
Y045900D01*
X041990D01*
Y045940D01*
X041970D01*
Y045960D01*
X041930D01*
Y045940D01*
X041910D01*
Y045900D01*
X041930D01*
X041122Y045856D02*
Y045816D01*
X041202D01*
Y045856D01*
X041241D01*
Y045936D01*
X041202D01*
Y045976D01*
X041122D01*
Y045936D01*
X041082D01*
Y045856D01*
X041122D01*
X041142Y045876D02*
Y045856D01*
X041182D01*
Y045876D01*
X041202D01*
Y045916D01*
X041182D01*
Y045936D01*
X041142D01*
Y045916D01*
X041122D01*
Y045876D01*
X041142D01*
X040190Y045840D02*
Y045800D01*
X040270D01*
Y045840D01*
X040310D01*
Y045920D01*
X040270D01*
Y045960D01*
X040190D01*
Y045920D01*
X040150D01*
Y045840D01*
X040190D01*
X040210Y045860D02*
Y045840D01*
X040250D01*
Y045860D01*
X040270D01*
Y045900D01*
X040250D01*
Y045920D01*
X040210D01*
Y045900D01*
X040190D01*
Y045860D01*
X040210D01*
X041370Y046590D02*
Y046550D01*
X041450D01*
Y046590D01*
X041490D01*
Y046670D01*
X041450D01*
Y046710D01*
X041370D01*
Y046670D01*
X041330D01*
Y046590D01*
X041370D01*
X041390Y046610D02*
Y046590D01*
X041430D01*
Y046610D01*
X041450D01*
Y046650D01*
X041430D01*
Y046670D01*
X041390D01*
Y046650D01*
X041370D01*
Y046610D01*
X041390D01*
X030490Y052292D02*
Y052252D01*
X030570D01*
Y052292D01*
X030610D01*
Y052372D01*
X030570D01*
Y052412D01*
X030490D01*
Y052372D01*
X030450D01*
Y052292D01*
X030490D01*
X030510Y052312D02*
Y052292D01*
X030550D01*
Y052312D01*
X030570D01*
Y052352D01*
X030550D01*
Y052372D01*
X030510D01*
Y052352D01*
X030490D01*
Y052312D01*
X030510D01*
X028420Y052135D02*
Y052095D01*
X028500D01*
Y052135D01*
X028540D01*
Y052215D01*
X028500D01*
Y052255D01*
X028420D01*
Y052215D01*
X028380D01*
Y052135D01*
X028420D01*
X028440Y052155D02*
Y052135D01*
X028480D01*
Y052155D01*
X028500D01*
Y052195D01*
X028480D01*
Y052215D01*
X028440D01*
Y052195D01*
X028420D01*
Y052155D01*
X028440D01*
X029210Y046890D02*
Y046850D01*
X029290D01*
Y046890D01*
X029330D01*
Y046970D01*
X029290D01*
Y047010D01*
X029210D01*
Y046970D01*
X029170D01*
Y046890D01*
X029210D01*
X029230Y046910D02*
Y046890D01*
X029270D01*
Y046910D01*
X029290D01*
Y046950D01*
X029270D01*
Y046970D01*
X029230D01*
Y046950D01*
X029210D01*
Y046910D01*
X029230D01*
X037050Y045790D02*
Y045750D01*
X037130D01*
Y045790D01*
X037170D01*
Y045870D01*
X037130D01*
Y045910D01*
X037050D01*
Y045870D01*
X037010D01*
Y045790D01*
X037050D01*
X037070Y045810D02*
Y045790D01*
X037110D01*
Y045810D01*
X037130D01*
Y045850D01*
X037110D01*
Y045870D01*
X037070D01*
Y045850D01*
X037050D01*
Y045810D01*
X037070D01*
X034067Y045879D02*
Y045839D01*
X034146D01*
Y045879D01*
X034186D01*
Y045959D01*
X034146D01*
Y045999D01*
X034067D01*
Y045959D01*
X034027D01*
Y045879D01*
X034067D01*
X034086Y045899D02*
Y045879D01*
X034127D01*
Y045899D01*
X034146D01*
Y045939D01*
X034127D01*
Y045959D01*
X034086D01*
Y045939D01*
X034067D01*
Y045899D01*
X034086D01*
X038390Y042460D02*
Y042420D01*
X038470D01*
Y042460D01*
X038510D01*
Y042540D01*
X038470D01*
Y042580D01*
X038390D01*
Y042540D01*
X038350D01*
Y042460D01*
X038390D01*
X038410Y042480D02*
Y042460D01*
X038450D01*
Y042480D01*
X038470D01*
Y042520D01*
X038450D01*
Y042540D01*
X038410D01*
Y042520D01*
X038390D01*
Y042480D01*
X038410D01*
X031750Y041530D02*
Y041490D01*
X031830D01*
Y041530D01*
X031870D01*
Y041610D01*
X031830D01*
Y041650D01*
X031750D01*
Y041610D01*
X031710D01*
Y041530D01*
X031750D01*
X031770Y041550D02*
Y041530D01*
X031810D01*
Y041550D01*
X031830D01*
Y041590D01*
X031810D01*
Y041610D01*
X031770D01*
Y041590D01*
X031750D01*
Y041550D01*
X031770D01*
X033700Y042760D02*
Y042720D01*
X033780D01*
Y042760D01*
X033820D01*
Y042840D01*
X033780D01*
Y042880D01*
X033700D01*
Y042840D01*
X033660D01*
Y042760D01*
X033700D01*
X033720Y042780D02*
Y042760D01*
X033760D01*
Y042780D01*
X033780D01*
Y042820D01*
X033760D01*
Y042840D01*
X033720D01*
Y042820D01*
X033700D01*
Y042780D01*
X033720D01*
X037880Y042200D02*
Y042160D01*
X037960D01*
Y042200D01*
X038000D01*
Y042280D01*
X037960D01*
Y042320D01*
X037880D01*
Y042280D01*
X037840D01*
Y042200D01*
X037880D01*
X037900Y042220D02*
Y042200D01*
X037940D01*
Y042220D01*
X037960D01*
Y042260D01*
X037940D01*
Y042280D01*
X037900D01*
Y042260D01*
X037880D01*
Y042220D01*
X037900D01*
X029446Y045818D02*
Y045778D01*
X029526D01*
Y045818D01*
X029566D01*
Y045898D01*
X029526D01*
Y045938D01*
X029446D01*
Y045898D01*
X029406D01*
Y045818D01*
X029446D01*
X029466Y045838D02*
Y045818D01*
X029506D01*
Y045838D01*
X029526D01*
Y045878D01*
X029506D01*
Y045898D01*
X029466D01*
Y045878D01*
X029446D01*
Y045838D01*
X029466D01*
X037660Y042360D02*
Y042320D01*
X037740D01*
Y042360D01*
X037780D01*
Y042440D01*
X037740D01*
Y042480D01*
X037660D01*
Y042440D01*
X037620D01*
Y042360D01*
X037660D01*
X037680Y042380D02*
Y042360D01*
X037720D01*
Y042380D01*
X037740D01*
Y042420D01*
X037720D01*
Y042440D01*
X037680D01*
Y042420D01*
X037660D01*
Y042380D01*
X037680D01*
X030220Y046220D02*
Y046180D01*
X030300D01*
Y046220D01*
X030340D01*
Y046300D01*
X030300D01*
Y046340D01*
X030220D01*
Y046300D01*
X030180D01*
Y046220D01*
X030220D01*
X030240Y046240D02*
Y046220D01*
X030280D01*
Y046240D01*
X030300D01*
Y046280D01*
X030280D01*
Y046300D01*
X030240D01*
Y046280D01*
X030220D01*
Y046240D01*
X030240D01*
X030120Y047404D02*
Y047364D01*
X030200D01*
Y047404D01*
X030240D01*
Y047484D01*
X030200D01*
Y047524D01*
X030120D01*
Y047484D01*
X030080D01*
Y047404D01*
X030120D01*
X030140Y047424D02*
Y047404D01*
X030180D01*
Y047424D01*
X030200D01*
Y047464D01*
X030180D01*
Y047484D01*
X030140D01*
Y047464D01*
X030120D01*
Y047424D01*
X030140D01*
X030145Y047651D02*
Y047611D01*
X030225D01*
Y047651D01*
X030265D01*
Y047731D01*
X030225D01*
Y047771D01*
X030145D01*
Y047731D01*
X030105D01*
Y047651D01*
X030145D01*
X030165Y047671D02*
Y047651D01*
X030205D01*
Y047671D01*
X030225D01*
Y047711D01*
X030205D01*
Y047731D01*
X030165D01*
Y047711D01*
X030145D01*
Y047671D01*
X030165D01*
X038630Y038180D02*
Y038140D01*
X038710D01*
Y038180D01*
X038750D01*
Y038260D01*
X038710D01*
Y038300D01*
X038630D01*
Y038260D01*
X038590D01*
Y038180D01*
X038630D01*
X038650Y038200D02*
Y038180D01*
X038690D01*
Y038200D01*
X038710D01*
Y038240D01*
X038690D01*
Y038260D01*
X038650D01*
Y038240D01*
X038630D01*
Y038200D01*
X038650D01*
X030140Y046910D02*
Y046870D01*
X030220D01*
Y046910D01*
X030260D01*
Y046990D01*
X030220D01*
Y047030D01*
X030140D01*
Y046990D01*
X030100D01*
Y046910D01*
X030140D01*
X030160Y046930D02*
Y046910D01*
X030200D01*
Y046930D01*
X030220D01*
Y046970D01*
X030200D01*
Y046990D01*
X030160D01*
Y046970D01*
X030140D01*
Y046930D01*
X030160D01*
X040350Y046392D02*
Y046352D01*
X040430D01*
Y046392D01*
X040470D01*
Y046472D01*
X040430D01*
Y046512D01*
X040350D01*
Y046472D01*
X040310D01*
Y046392D01*
X040350D01*
X040370Y046412D02*
Y046392D01*
X040410D01*
Y046412D01*
X040430D01*
Y046452D01*
X040410D01*
Y046472D01*
X040370D01*
Y046452D01*
X040350D01*
Y046412D01*
X040370D01*
X051360Y039110D02*
Y039070D01*
X051440D01*
Y039110D01*
X051480D01*
Y039190D01*
X051440D01*
Y039230D01*
X051360D01*
Y039190D01*
X051320D01*
Y039110D01*
X051360D01*
X051380Y039130D02*
Y039110D01*
X051420D01*
Y039130D01*
X051440D01*
Y039170D01*
X051420D01*
Y039190D01*
X051380D01*
Y039170D01*
X051360D01*
Y039130D01*
X051380D01*
X051662Y041740D02*
Y041700D01*
X051742D01*
Y041740D01*
X051782D01*
Y041820D01*
X051742D01*
Y041860D01*
X051662D01*
Y041820D01*
X051622D01*
Y041740D01*
X051662D01*
X051682Y041760D02*
Y041740D01*
X051722D01*
Y041760D01*
X051742D01*
Y041800D01*
X051722D01*
Y041820D01*
X051682D01*
Y041800D01*
X051662D01*
Y041760D01*
X051682D01*
X038540Y050090D02*
Y050050D01*
X038620D01*
Y050090D01*
X038660D01*
Y050170D01*
X038620D01*
Y050210D01*
X038540D01*
Y050170D01*
X038500D01*
Y050090D01*
X038540D01*
X038560Y050110D02*
Y050090D01*
X038600D01*
Y050110D01*
X038620D01*
Y050150D01*
X038600D01*
Y050170D01*
X038560D01*
Y050150D01*
X038540D01*
Y050110D01*
X038560D01*
X032950Y052400D02*
Y052360D01*
X033030D01*
Y052400D01*
X033070D01*
Y052480D01*
X033030D01*
Y052520D01*
X032950D01*
Y052480D01*
X032910D01*
Y052400D01*
X032950D01*
X032970Y052420D02*
Y052400D01*
X033010D01*
Y052420D01*
X033030D01*
Y052460D01*
X033010D01*
Y052480D01*
X032970D01*
Y052460D01*
X032950D01*
Y052420D01*
X032970D01*
X032050Y051920D02*
Y051880D01*
X032130D01*
Y051920D01*
X032170D01*
Y052000D01*
X032130D01*
Y052040D01*
X032050D01*
Y052000D01*
X032010D01*
Y051920D01*
X032050D01*
X032070Y051940D02*
Y051920D01*
X032110D01*
Y051940D01*
X032130D01*
Y051980D01*
X032110D01*
Y052000D01*
X032070D01*
Y051980D01*
X032050D01*
Y051940D01*
X032070D01*
X034580Y050470D02*
Y050430D01*
X034660D01*
Y050470D01*
X034700D01*
Y050550D01*
X034660D01*
Y050590D01*
X034580D01*
Y050550D01*
X034540D01*
Y050470D01*
X034580D01*
X034600Y050490D02*
Y050470D01*
X034640D01*
Y050490D01*
X034660D01*
Y050530D01*
X034640D01*
Y050550D01*
X034600D01*
Y050530D01*
X034580D01*
Y050490D01*
X034600D01*
X035200Y050170D02*
Y050130D01*
X035280D01*
Y050170D01*
X035320D01*
Y050250D01*
X035280D01*
Y050290D01*
X035200D01*
Y050250D01*
X035160D01*
Y050170D01*
X035200D01*
X035220Y050190D02*
Y050170D01*
X035260D01*
Y050190D01*
X035280D01*
Y050230D01*
X035260D01*
Y050250D01*
X035220D01*
Y050230D01*
X035200D01*
Y050190D01*
X035220D01*
X034110Y044820D02*
Y044780D01*
X034190D01*
Y044820D01*
X034230D01*
Y044900D01*
X034190D01*
Y044940D01*
X034110D01*
Y044900D01*
X034070D01*
Y044820D01*
X034110D01*
X034130Y044840D02*
Y044820D01*
X034170D01*
Y044840D01*
X034190D01*
Y044880D01*
X034170D01*
Y044900D01*
X034130D01*
Y044880D01*
X034110D01*
Y044840D01*
X034130D01*
X038970Y051900D02*
Y051860D01*
X039050D01*
Y051900D01*
X039090D01*
Y051980D01*
X039050D01*
Y052020D01*
X038970D01*
Y051980D01*
X038930D01*
Y051900D01*
X038970D01*
X038990Y051920D02*
Y051900D01*
X039030D01*
Y051920D01*
X039050D01*
Y051960D01*
X039030D01*
Y051980D01*
X038990D01*
Y051960D01*
X038970D01*
Y051920D01*
X038990D01*
X037540Y053100D02*
Y053060D01*
X037620D01*
Y053100D01*
X037660D01*
Y053180D01*
X037620D01*
Y053220D01*
X037540D01*
Y053180D01*
X037500D01*
Y053100D01*
X037540D01*
X037560Y053120D02*
Y053100D01*
X037600D01*
Y053120D01*
X037620D01*
Y053160D01*
X037600D01*
Y053180D01*
X037560D01*
Y053160D01*
X037540D01*
Y053120D01*
X037560D01*
X037880Y051890D02*
Y051850D01*
X037960D01*
Y051890D01*
X038000D01*
Y051970D01*
X037960D01*
Y052010D01*
X037880D01*
Y051970D01*
X037840D01*
Y051890D01*
X037880D01*
X037900Y051910D02*
Y051890D01*
X037940D01*
Y051910D01*
X037960D01*
Y051950D01*
X037940D01*
Y051970D01*
X037900D01*
Y051950D01*
X037880D01*
Y051910D01*
X037900D01*
X039580Y053370D02*
Y053330D01*
X039660D01*
Y053370D01*
X039700D01*
Y053450D01*
X039660D01*
Y053490D01*
X039580D01*
Y053450D01*
X039540D01*
Y053370D01*
X039580D01*
X039600Y053390D02*
Y053370D01*
X039640D01*
Y053390D01*
X039660D01*
Y053430D01*
X039640D01*
Y053450D01*
X039600D01*
Y053430D01*
X039580D01*
Y053390D01*
X039600D01*
X039210Y053360D02*
Y053320D01*
X039290D01*
Y053360D01*
X039330D01*
Y053440D01*
X039290D01*
Y053480D01*
X039210D01*
Y053440D01*
X039170D01*
Y053360D01*
X039210D01*
X039230Y053380D02*
Y053360D01*
X039270D01*
Y053380D01*
X039290D01*
Y053420D01*
X039270D01*
Y053440D01*
X039230D01*
Y053420D01*
X039210D01*
Y053380D01*
X039230D01*
X039240Y052730D02*
Y052690D01*
X039320D01*
Y052730D01*
X039360D01*
Y052810D01*
X039320D01*
Y052850D01*
X039240D01*
Y052810D01*
X039200D01*
Y052730D01*
X039240D01*
X039260Y052750D02*
Y052730D01*
X039300D01*
Y052750D01*
X039320D01*
Y052790D01*
X039300D01*
Y052810D01*
X039260D01*
Y052790D01*
X039240D01*
Y052750D01*
X039260D01*
X040000D02*
Y052710D01*
X040080D01*
Y052750D01*
X040120D01*
Y052830D01*
X040080D01*
Y052870D01*
X040000D01*
Y052830D01*
X039960D01*
Y052750D01*
X040000D01*
X040020Y052770D02*
Y052750D01*
X040060D01*
Y052770D01*
X040080D01*
Y052810D01*
X040060D01*
Y052830D01*
X040020D01*
Y052810D01*
X040000D01*
Y052770D01*
X040020D01*
X039620Y052750D02*
Y052710D01*
X039700D01*
Y052750D01*
X039740D01*
Y052830D01*
X039700D01*
Y052870D01*
X039620D01*
Y052830D01*
X039580D01*
Y052750D01*
X039620D01*
X039640Y052770D02*
Y052750D01*
X039680D01*
Y052770D01*
X039700D01*
Y052810D01*
X039680D01*
Y052830D01*
X039640D01*
Y052810D01*
X039620D01*
Y052770D01*
X039640D01*
X039630Y051850D02*
Y051810D01*
X039710D01*
Y051850D01*
X039750D01*
Y051930D01*
X039710D01*
Y051970D01*
X039630D01*
Y051930D01*
X039590D01*
Y051850D01*
X039630D01*
X039650Y051870D02*
Y051850D01*
X039690D01*
Y051870D01*
X039710D01*
Y051910D01*
X039690D01*
Y051930D01*
X039650D01*
Y051910D01*
X039630D01*
Y051870D01*
X039650D01*
X034550Y041800D02*
Y041760D01*
X034630D01*
Y041800D01*
X034670D01*
Y041880D01*
X034630D01*
Y041920D01*
X034550D01*
Y041880D01*
X034510D01*
Y041800D01*
X034550D01*
X034570Y041820D02*
Y041800D01*
X034610D01*
Y041820D01*
X034630D01*
Y041860D01*
X034610D01*
Y041880D01*
X034570D01*
Y041860D01*
X034550D01*
Y041820D01*
X034570D01*
X032057Y042980D02*
Y042940D01*
X032137D01*
Y042980D01*
X032177D01*
Y043060D01*
X032137D01*
Y043100D01*
X032057D01*
Y043060D01*
X032017D01*
Y042980D01*
X032057D01*
X032077Y043000D02*
Y042980D01*
X032117D01*
Y043000D01*
X032137D01*
Y043040D01*
X032117D01*
Y043060D01*
X032077D01*
Y043040D01*
X032057D01*
Y043000D01*
X032077D01*
X032655Y042955D02*
Y042915D01*
X032735D01*
Y042955D01*
X032775D01*
Y043035D01*
X032735D01*
Y043075D01*
X032655D01*
Y043035D01*
X032615D01*
Y042955D01*
X032655D01*
X032675Y042975D02*
Y042955D01*
X032715D01*
Y042975D01*
X032735D01*
Y043015D01*
X032715D01*
Y043035D01*
X032675D01*
Y043015D01*
X032655D01*
Y042975D01*
X032675D01*
X035601Y042401D02*
Y042361D01*
X035681D01*
Y042401D01*
X035721D01*
Y042481D01*
X035681D01*
Y042521D01*
X035601D01*
Y042481D01*
X035561D01*
Y042401D01*
X035601D01*
X035621Y042421D02*
Y042401D01*
X035661D01*
Y042421D01*
X035681D01*
Y042461D01*
X035661D01*
Y042481D01*
X035621D01*
Y042461D01*
X035601D01*
Y042421D01*
X035621D01*
X037320Y043020D02*
Y042980D01*
X037400D01*
Y043020D01*
X037440D01*
Y043100D01*
X037400D01*
Y043140D01*
X037320D01*
Y043100D01*
X037280D01*
Y043020D01*
X037320D01*
X037340Y043040D02*
Y043020D01*
X037380D01*
Y043040D01*
X037400D01*
Y043080D01*
X037380D01*
Y043100D01*
X037340D01*
Y043080D01*
X037320D01*
Y043040D01*
X037340D01*
X037890Y042790D02*
Y042750D01*
X037970D01*
Y042790D01*
X038010D01*
Y042870D01*
X037970D01*
Y042910D01*
X037890D01*
Y042870D01*
X037850D01*
Y042790D01*
X037890D01*
X037910Y042810D02*
Y042790D01*
X037950D01*
Y042810D01*
X037970D01*
Y042850D01*
X037950D01*
Y042870D01*
X037910D01*
Y042850D01*
X037890D01*
Y042810D01*
X037910D01*
X038880Y039580D02*
Y039540D01*
X038960D01*
Y039580D01*
X039000D01*
Y039660D01*
X038960D01*
Y039700D01*
X038880D01*
Y039660D01*
X038840D01*
Y039580D01*
X038880D01*
X038900Y039600D02*
Y039580D01*
X038940D01*
Y039600D01*
X038960D01*
Y039640D01*
X038940D01*
Y039660D01*
X038900D01*
Y039640D01*
X038880D01*
Y039600D01*
X038900D01*
X038800Y042610D02*
Y042570D01*
X038880D01*
Y042610D01*
X038920D01*
Y042690D01*
X038880D01*
Y042730D01*
X038800D01*
Y042690D01*
X038760D01*
Y042610D01*
X038800D01*
X038820Y042630D02*
Y042610D01*
X038860D01*
Y042630D01*
X038880D01*
Y042670D01*
X038860D01*
Y042690D01*
X038820D01*
Y042670D01*
X038800D01*
Y042630D01*
X038820D01*
X038830Y042980D02*
Y042940D01*
X038910D01*
Y042980D01*
X038950D01*
Y043060D01*
X038910D01*
Y043100D01*
X038830D01*
Y043060D01*
X038790D01*
Y042980D01*
X038830D01*
X038850Y043000D02*
Y042980D01*
X038890D01*
Y043000D01*
X038910D01*
Y043040D01*
X038890D01*
Y043060D01*
X038850D01*
Y043040D01*
X038830D01*
Y043000D01*
X038850D01*
X038820Y040760D02*
Y040720D01*
X038900D01*
Y040760D01*
X038940D01*
Y040840D01*
X038900D01*
Y040880D01*
X038820D01*
Y040840D01*
X038780D01*
Y040760D01*
X038820D01*
X038840Y040780D02*
Y040760D01*
X038880D01*
Y040780D01*
X038900D01*
Y040820D01*
X038880D01*
Y040840D01*
X038840D01*
Y040820D01*
X038820D01*
Y040780D01*
X038840D01*
X038880Y039250D02*
Y039210D01*
X038960D01*
Y039250D01*
X039000D01*
Y039330D01*
X038960D01*
Y039370D01*
X038880D01*
Y039330D01*
X038840D01*
Y039250D01*
X038880D01*
X038900Y039270D02*
Y039250D01*
X038940D01*
Y039270D01*
X038960D01*
Y039310D01*
X038940D01*
Y039330D01*
X038900D01*
Y039310D01*
X038880D01*
Y039270D01*
X038900D01*
X039100Y037120D02*
Y037080D01*
X039180D01*
Y037120D01*
X039220D01*
Y037200D01*
X039180D01*
Y037240D01*
X039100D01*
Y037200D01*
X039060D01*
Y037120D01*
X039100D01*
X039120Y037140D02*
Y037120D01*
X039160D01*
Y037140D01*
X039180D01*
Y037180D01*
X039160D01*
Y037200D01*
X039120D01*
Y037180D01*
X039100D01*
Y037140D01*
X039120D01*
X041160Y036940D02*
Y036900D01*
X041240D01*
Y036940D01*
X041280D01*
Y037020D01*
X041240D01*
Y037060D01*
X041160D01*
Y037020D01*
X041120D01*
Y036940D01*
X041160D01*
X041180Y036960D02*
Y036940D01*
X041220D01*
Y036960D01*
X041240D01*
Y037000D01*
X041220D01*
Y037020D01*
X041180D01*
Y037000D01*
X041160D01*
Y036960D01*
X041180D01*
X041130Y040270D02*
Y040230D01*
X041210D01*
Y040270D01*
X041250D01*
Y040350D01*
X041210D01*
Y040390D01*
X041130D01*
Y040350D01*
X041090D01*
Y040270D01*
X041130D01*
X041150Y040290D02*
Y040270D01*
X041190D01*
Y040290D01*
X041210D01*
Y040330D01*
X041190D01*
Y040350D01*
X041150D01*
Y040330D01*
X041130D01*
Y040290D01*
X041150D01*
X040670Y038150D02*
Y038110D01*
X040750D01*
Y038150D01*
X040790D01*
Y038230D01*
X040750D01*
Y038270D01*
X040670D01*
Y038230D01*
X040630D01*
Y038150D01*
X040670D01*
X040690Y038170D02*
Y038150D01*
X040730D01*
Y038170D01*
X040750D01*
Y038210D01*
X040730D01*
Y038230D01*
X040690D01*
Y038210D01*
X040670D01*
Y038170D01*
X040690D01*
X041140Y038950D02*
Y038910D01*
X041220D01*
Y038950D01*
X041260D01*
Y039030D01*
X041220D01*
Y039070D01*
X041140D01*
Y039030D01*
X041100D01*
Y038950D01*
X041140D01*
X041160Y038970D02*
Y038950D01*
X041200D01*
Y038970D01*
X041220D01*
Y039010D01*
X041200D01*
Y039030D01*
X041160D01*
Y039010D01*
X041140D01*
Y038970D01*
X041160D01*
X040680Y041300D02*
Y041260D01*
X040760D01*
Y041300D01*
X040800D01*
Y041380D01*
X040760D01*
Y041420D01*
X040680D01*
Y041380D01*
X040640D01*
Y041300D01*
X040680D01*
X040700Y041320D02*
Y041300D01*
X040740D01*
Y041320D01*
X040760D01*
Y041360D01*
X040740D01*
Y041380D01*
X040700D01*
Y041360D01*
X040680D01*
Y041320D01*
X040700D01*
X041160Y042050D02*
Y042010D01*
X041240D01*
Y042050D01*
X041280D01*
Y042130D01*
X041240D01*
Y042170D01*
X041160D01*
Y042130D01*
X041120D01*
Y042050D01*
X041160D01*
X041180Y042070D02*
Y042050D01*
X041220D01*
Y042070D01*
X041240D01*
Y042110D01*
X041220D01*
Y042130D01*
X041180D01*
Y042110D01*
X041160D01*
Y042070D01*
X041180D01*
X038050Y038530D02*
Y038490D01*
X038130D01*
Y038530D01*
X038170D01*
Y038610D01*
X038130D01*
Y038650D01*
X038050D01*
Y038610D01*
X038010D01*
Y038530D01*
X038050D01*
X038070Y038550D02*
Y038530D01*
X038110D01*
Y038550D01*
X038130D01*
Y038590D01*
X038110D01*
Y038610D01*
X038070D01*
Y038590D01*
X038050D01*
Y038550D01*
X038070D01*
X037650Y038540D02*
Y038500D01*
X037730D01*
Y038540D01*
X037770D01*
Y038620D01*
X037730D01*
Y038660D01*
X037650D01*
Y038620D01*
X037610D01*
Y038540D01*
X037650D01*
X037670Y038560D02*
Y038540D01*
X037710D01*
Y038560D01*
X037730D01*
Y038600D01*
X037710D01*
Y038620D01*
X037670D01*
Y038600D01*
X037650D01*
Y038560D01*
X037670D01*
X037270Y038520D02*
Y038480D01*
X037350D01*
Y038520D01*
X037390D01*
Y038600D01*
X037350D01*
Y038640D01*
X037270D01*
Y038600D01*
X037230D01*
Y038520D01*
X037270D01*
X037290Y038540D02*
Y038520D01*
X037330D01*
Y038540D01*
X037350D01*
Y038580D01*
X037330D01*
Y038600D01*
X037290D01*
Y038580D01*
X037270D01*
Y038540D01*
X037290D01*
X036860Y038510D02*
Y038470D01*
X036940D01*
Y038510D01*
X036980D01*
Y038590D01*
X036940D01*
Y038630D01*
X036860D01*
Y038590D01*
X036820D01*
Y038510D01*
X036860D01*
X036880Y038530D02*
Y038510D01*
X036920D01*
Y038530D01*
X036940D01*
Y038570D01*
X036920D01*
Y038590D01*
X036880D01*
Y038570D01*
X036860D01*
Y038530D01*
X036880D01*
X037107Y039440D02*
Y039400D01*
X037187D01*
Y039440D01*
X037227D01*
Y039520D01*
X037187D01*
Y039560D01*
X037107D01*
Y039520D01*
X037067D01*
Y039440D01*
X037107D01*
X037127Y039460D02*
Y039440D01*
X037167D01*
Y039460D01*
X037187D01*
Y039500D01*
X037167D01*
Y039520D01*
X037127D01*
Y039500D01*
X037107D01*
Y039460D01*
X037127D01*
X037410Y039350D02*
Y039310D01*
X037490D01*
Y039350D01*
X037530D01*
Y039430D01*
X037490D01*
Y039470D01*
X037410D01*
Y039430D01*
X037370D01*
Y039350D01*
X037410D01*
X037430Y039370D02*
Y039350D01*
X037470D01*
Y039370D01*
X037490D01*
Y039410D01*
X037470D01*
Y039430D01*
X037430D01*
Y039410D01*
X037410D01*
Y039370D01*
X037430D01*
X037687Y039360D02*
Y039320D01*
X037767D01*
Y039360D01*
X037807D01*
Y039440D01*
X037767D01*
Y039480D01*
X037687D01*
Y039440D01*
X037647D01*
Y039360D01*
X037687D01*
X037707Y039380D02*
Y039360D01*
X037747D01*
Y039380D01*
X037767D01*
Y039420D01*
X037747D01*
Y039440D01*
X037707D01*
Y039420D01*
X037687D01*
Y039380D01*
X037707D01*
X037920Y039441D02*
Y039401D01*
X038000D01*
Y039441D01*
X038040D01*
Y039521D01*
X038000D01*
Y039561D01*
X037920D01*
Y039521D01*
X037880D01*
Y039441D01*
X037920D01*
X037940Y039461D02*
Y039441D01*
X037980D01*
Y039461D01*
X038000D01*
Y039501D01*
X037980D01*
Y039521D01*
X037940D01*
Y039501D01*
X037920D01*
Y039461D01*
X037940D01*
X030100Y049808D02*
Y049768D01*
X030180D01*
Y049808D01*
X030220D01*
Y049888D01*
X030180D01*
Y049928D01*
X030100D01*
Y049888D01*
X030060D01*
Y049808D01*
X030100D01*
X030120Y049828D02*
Y049808D01*
X030160D01*
Y049828D01*
X030180D01*
Y049868D01*
X030160D01*
Y049888D01*
X030120D01*
Y049868D01*
X030100D01*
Y049828D01*
X030120D01*
X032697Y043800D02*
Y043760D01*
X032777D01*
Y043800D01*
X032817D01*
Y043880D01*
X032777D01*
Y043920D01*
X032697D01*
Y043880D01*
X032657D01*
Y043800D01*
X032697D01*
X032717Y043820D02*
Y043800D01*
X032757D01*
Y043820D01*
X032777D01*
Y043860D01*
X032757D01*
Y043880D01*
X032717D01*
Y043860D01*
X032697D01*
Y043820D01*
X032717D01*
X033610Y048400D02*
Y048360D01*
X033690D01*
Y048400D01*
X033730D01*
Y048480D01*
X033690D01*
Y048520D01*
X033610D01*
Y048480D01*
X033570D01*
Y048400D01*
X033610D01*
X033630Y048420D02*
Y048400D01*
X033670D01*
Y048420D01*
X033690D01*
Y048460D01*
X033670D01*
Y048480D01*
X033630D01*
Y048460D01*
X033610D01*
Y048420D01*
X033630D01*
X033950Y048630D02*
Y048590D01*
X034030D01*
Y048630D01*
X034070D01*
Y048710D01*
X034030D01*
Y048750D01*
X033950D01*
Y048710D01*
X033910D01*
Y048630D01*
X033950D01*
X033970Y048650D02*
Y048630D01*
X034010D01*
Y048650D01*
X034030D01*
Y048690D01*
X034010D01*
Y048710D01*
X033970D01*
Y048690D01*
X033950D01*
Y048650D01*
X033970D01*
X034660Y049920D02*
Y049880D01*
X034740D01*
Y049920D01*
X034780D01*
Y050000D01*
X034740D01*
Y050040D01*
X034660D01*
Y050000D01*
X034620D01*
Y049920D01*
X034660D01*
X034680Y049940D02*
Y049920D01*
X034720D01*
Y049940D01*
X034740D01*
Y049980D01*
X034720D01*
Y050000D01*
X034680D01*
Y049980D01*
X034660D01*
Y049940D01*
X034680D01*
X034290Y049590D02*
Y049550D01*
X034370D01*
Y049590D01*
X034410D01*
Y049670D01*
X034370D01*
Y049710D01*
X034290D01*
Y049670D01*
X034250D01*
Y049590D01*
X034290D01*
X034310Y049610D02*
Y049590D01*
X034350D01*
Y049610D01*
X034370D01*
Y049650D01*
X034350D01*
Y049670D01*
X034310D01*
Y049650D01*
X034290D01*
Y049610D01*
X034310D01*
X035860Y049200D02*
Y049160D01*
X035940D01*
Y049200D01*
X035980D01*
Y049280D01*
X035940D01*
Y049320D01*
X035860D01*
Y049280D01*
X035820D01*
Y049200D01*
X035860D01*
X035880Y049220D02*
Y049200D01*
X035920D01*
Y049220D01*
X035940D01*
Y049260D01*
X035920D01*
Y049280D01*
X035880D01*
Y049260D01*
X035860D01*
Y049220D01*
X035880D01*
X029860Y049230D02*
Y049190D01*
X029940D01*
Y049230D01*
X029980D01*
Y049310D01*
X029940D01*
Y049350D01*
X029860D01*
Y049310D01*
X029820D01*
Y049230D01*
X029860D01*
X029880Y049250D02*
Y049230D01*
X029920D01*
Y049250D01*
X029940D01*
Y049290D01*
X029920D01*
Y049310D01*
X029880D01*
Y049290D01*
X029860D01*
Y049250D01*
X029880D01*
X035560Y049412D02*
Y049372D01*
X035640D01*
Y049412D01*
X035680D01*
Y049492D01*
X035640D01*
Y049532D01*
X035560D01*
Y049492D01*
X035520D01*
Y049412D01*
X035560D01*
X035580Y049432D02*
Y049412D01*
X035620D01*
Y049432D01*
X035640D01*
Y049472D01*
X035620D01*
Y049492D01*
X035580D01*
Y049472D01*
X035560D01*
Y049432D01*
X035580D01*
X029600Y049460D02*
Y049420D01*
X029680D01*
Y049460D01*
X029720D01*
Y049540D01*
X029680D01*
Y049580D01*
X029600D01*
Y049540D01*
X029560D01*
Y049460D01*
X029600D01*
X029620Y049480D02*
Y049460D01*
X029660D01*
Y049480D01*
X029680D01*
Y049520D01*
X029660D01*
Y049540D01*
X029620D01*
Y049520D01*
X029600D01*
Y049480D01*
X029620D01*
X027800Y049826D02*
Y049786D01*
X027880D01*
Y049826D01*
X027920D01*
Y049906D01*
X027880D01*
Y049946D01*
X027800D01*
Y049906D01*
X027760D01*
Y049826D01*
X027800D01*
X027820Y049846D02*
Y049826D01*
X027860D01*
Y049846D01*
X027880D01*
Y049886D01*
X027860D01*
Y049906D01*
X027820D01*
Y049886D01*
X027800D01*
Y049846D01*
X027820D01*
X028640Y049860D02*
Y049820D01*
X028720D01*
Y049860D01*
X028760D01*
Y049940D01*
X028720D01*
Y049980D01*
X028640D01*
Y049940D01*
X028600D01*
Y049860D01*
X028640D01*
X028660Y049880D02*
Y049860D01*
X028700D01*
Y049880D01*
X028720D01*
Y049920D01*
X028700D01*
Y049940D01*
X028660D01*
Y049920D01*
X028640D01*
Y049880D01*
X028660D01*
X036029Y050941D02*
Y050901D01*
X036109D01*
Y050941D01*
X036149D01*
Y051021D01*
X036109D01*
Y051061D01*
X036029D01*
Y051021D01*
X035989D01*
Y050941D01*
X036029D01*
X036049Y050961D02*
Y050941D01*
X036089D01*
Y050961D01*
X036109D01*
Y051001D01*
X036089D01*
Y051021D01*
X036049D01*
Y051001D01*
X036029D01*
Y050961D01*
X036049D01*
X031090Y052140D02*
Y052100D01*
X031170D01*
Y052140D01*
X031210D01*
Y052220D01*
X031170D01*
Y052260D01*
X031090D01*
Y052220D01*
X031050D01*
Y052140D01*
X031090D01*
X031110Y052160D02*
Y052140D01*
X031150D01*
Y052160D01*
X031170D01*
Y052200D01*
X031150D01*
Y052220D01*
X031110D01*
Y052200D01*
X031090D01*
Y052160D01*
X031110D01*
X035120Y052070D02*
Y052030D01*
X035200D01*
Y052070D01*
X035240D01*
Y052150D01*
X035200D01*
Y052190D01*
X035120D01*
Y052150D01*
X035080D01*
Y052070D01*
X035120D01*
X035140Y052090D02*
Y052070D01*
X035180D01*
Y052090D01*
X035200D01*
Y052130D01*
X035180D01*
Y052150D01*
X035140D01*
Y052130D01*
X035120D01*
Y052090D01*
X035140D01*
X035860Y052060D02*
Y052020D01*
X035940D01*
Y052060D01*
X035980D01*
Y052140D01*
X035940D01*
Y052180D01*
X035860D01*
Y052140D01*
X035820D01*
Y052060D01*
X035860D01*
X035880Y052080D02*
Y052060D01*
X035920D01*
Y052080D01*
X035940D01*
Y052120D01*
X035920D01*
Y052140D01*
X035880D01*
Y052120D01*
X035860D01*
Y052080D01*
X035880D01*
X030140Y046510D02*
Y046470D01*
X030220D01*
Y046510D01*
X030260D01*
Y046590D01*
X030220D01*
Y046630D01*
X030140D01*
Y046590D01*
X030100D01*
Y046510D01*
X030140D01*
X030160Y046530D02*
Y046510D01*
X030200D01*
Y046530D01*
X030220D01*
Y046570D01*
X030200D01*
Y046590D01*
X030160D01*
Y046570D01*
X030140D01*
Y046530D01*
X030160D01*
X029843Y045827D02*
Y045787D01*
X029923D01*
Y045827D01*
X029963D01*
Y045907D01*
X029923D01*
Y045947D01*
X029843D01*
Y045907D01*
X029803D01*
Y045827D01*
X029843D01*
X029863Y045847D02*
Y045827D01*
X029903D01*
Y045847D01*
X029923D01*
Y045887D01*
X029903D01*
Y045907D01*
X029863D01*
Y045887D01*
X029843D01*
Y045847D01*
X029863D01*
X028670Y050657D02*
Y050617D01*
X028750D01*
Y050657D01*
X028790D01*
Y050737D01*
X028750D01*
Y050777D01*
X028670D01*
Y050737D01*
X028630D01*
Y050657D01*
X028670D01*
X028690Y050677D02*
Y050657D01*
X028730D01*
Y050677D01*
X028750D01*
Y050717D01*
X028730D01*
Y050737D01*
X028690D01*
Y050717D01*
X028670D01*
Y050677D01*
X028690D01*
X028626Y051054D02*
Y051014D01*
X028706D01*
Y051054D01*
X028746D01*
Y051134D01*
X028706D01*
Y051174D01*
X028626D01*
Y051134D01*
X028586D01*
Y051054D01*
X028626D01*
X028646Y051074D02*
Y051054D01*
X028686D01*
Y051074D01*
X028706D01*
Y051114D01*
X028686D01*
Y051134D01*
X028646D01*
Y051114D01*
X028626D01*
Y051074D01*
X028646D01*
X027860Y051350D02*
Y051310D01*
X027940D01*
Y051350D01*
X027980D01*
Y051430D01*
X027940D01*
Y051470D01*
X027860D01*
Y051430D01*
X027820D01*
Y051350D01*
X027860D01*
X027880Y051370D02*
Y051350D01*
X027920D01*
Y051370D01*
X027940D01*
Y051410D01*
X027920D01*
Y051430D01*
X027880D01*
Y051410D01*
X027860D01*
Y051370D01*
X027880D01*
X031080Y052500D02*
Y052460D01*
X031160D01*
Y052500D01*
X031200D01*
Y052580D01*
X031160D01*
Y052620D01*
X031080D01*
Y052580D01*
X031040D01*
Y052500D01*
X031080D01*
X031100Y052520D02*
Y052500D01*
X031140D01*
Y052520D01*
X031160D01*
Y052560D01*
X031140D01*
Y052580D01*
X031100D01*
Y052560D01*
X031080D01*
Y052520D01*
X031100D01*
X029230Y047280D02*
Y047240D01*
X029310D01*
Y047280D01*
X029350D01*
Y047360D01*
X029310D01*
Y047400D01*
X029230D01*
Y047360D01*
X029190D01*
Y047280D01*
X029230D01*
X029250Y047300D02*
Y047280D01*
X029290D01*
Y047300D01*
X029310D01*
Y047340D01*
X029290D01*
Y047360D01*
X029250D01*
Y047340D01*
X029230D01*
Y047300D01*
X029250D01*
X029240Y047680D02*
Y047640D01*
X029320D01*
Y047680D01*
X029360D01*
Y047760D01*
X029320D01*
Y047800D01*
X029240D01*
Y047760D01*
X029200D01*
Y047680D01*
X029240D01*
X029260Y047700D02*
Y047680D01*
X029300D01*
Y047700D01*
X029320D01*
Y047740D01*
X029300D01*
Y047760D01*
X029260D01*
Y047740D01*
X029240D01*
Y047700D01*
X029260D01*
X031526Y051867D02*
Y051827D01*
X031606D01*
Y051867D01*
X031646D01*
Y051947D01*
X031606D01*
Y051987D01*
X031526D01*
Y051947D01*
X031486D01*
Y051867D01*
X031526D01*
X031546Y051887D02*
Y051867D01*
X031586D01*
Y051887D01*
X031606D01*
Y051927D01*
X031586D01*
Y051947D01*
X031546D01*
Y051927D01*
X031526D01*
Y051887D01*
X031546D01*
X037730Y051010D02*
Y050970D01*
X037810D01*
Y051010D01*
X037850D01*
Y051090D01*
X037810D01*
Y051130D01*
X037730D01*
Y051090D01*
X037690D01*
Y051010D01*
X037730D01*
X037750Y051030D02*
Y051010D01*
X037790D01*
Y051030D01*
X037810D01*
Y051070D01*
X037790D01*
Y051090D01*
X037750D01*
Y051070D01*
X037730D01*
Y051030D01*
X037750D01*
X037400Y051000D02*
Y050960D01*
X037480D01*
Y051000D01*
X037520D01*
Y051080D01*
X037480D01*
Y051120D01*
X037400D01*
Y051080D01*
X037360D01*
Y051000D01*
X037400D01*
X037420Y051020D02*
Y051000D01*
X037460D01*
Y051020D01*
X037480D01*
Y051060D01*
X037460D01*
Y051080D01*
X037420D01*
Y051060D01*
X037400D01*
Y051020D01*
X037420D01*
X037176Y050516D02*
Y050476D01*
X037256D01*
Y050516D01*
X037296D01*
Y050596D01*
X037256D01*
Y050636D01*
X037176D01*
Y050596D01*
X037136D01*
Y050516D01*
X037176D01*
X037196Y050536D02*
Y050516D01*
X037236D01*
Y050536D01*
X037256D01*
Y050576D01*
X037236D01*
Y050596D01*
X037196D01*
Y050576D01*
X037176D01*
Y050536D01*
X037196D01*
X037730Y045910D02*
Y045870D01*
X037810D01*
Y045910D01*
X037850D01*
Y045990D01*
X037810D01*
Y046030D01*
X037730D01*
Y045990D01*
X037690D01*
Y045910D01*
X037730D01*
X037750Y045930D02*
Y045910D01*
X037790D01*
Y045930D01*
X037810D01*
Y045970D01*
X037790D01*
Y045990D01*
X037750D01*
Y045970D01*
X037730D01*
Y045930D01*
X037750D01*
X037360Y045950D02*
Y045910D01*
X037440D01*
Y045950D01*
X037480D01*
Y046030D01*
X037440D01*
Y046070D01*
X037360D01*
Y046030D01*
X037320D01*
Y045950D01*
X037360D01*
X037380Y045970D02*
Y045950D01*
X037420D01*
Y045970D01*
X037440D01*
Y046010D01*
X037420D01*
Y046030D01*
X037380D01*
Y046010D01*
X037360D01*
Y045970D01*
X037380D01*
X033090Y045780D02*
Y045740D01*
X033170D01*
Y045780D01*
X033210D01*
Y045860D01*
X033170D01*
Y045900D01*
X033090D01*
Y045860D01*
X033050D01*
Y045780D01*
X033090D01*
X033110Y045800D02*
Y045780D01*
X033150D01*
Y045800D01*
X033170D01*
Y045840D01*
X033150D01*
Y045860D01*
X033110D01*
Y045840D01*
X033090D01*
Y045800D01*
X033110D01*
X032550Y044240D02*
Y044200D01*
X032630D01*
Y044240D01*
X032670D01*
Y044320D01*
X032630D01*
Y044360D01*
X032550D01*
Y044320D01*
X032510D01*
Y044240D01*
X032550D01*
X032570Y044260D02*
Y044240D01*
X032610D01*
Y044260D01*
X032630D01*
Y044300D01*
X032610D01*
Y044320D01*
X032570D01*
Y044300D01*
X032550D01*
Y044260D01*
X032570D01*
X032560Y044590D02*
Y044550D01*
X032640D01*
Y044590D01*
X032680D01*
Y044670D01*
X032640D01*
Y044710D01*
X032560D01*
Y044670D01*
X032520D01*
Y044590D01*
X032560D01*
X032580Y044610D02*
Y044590D01*
X032620D01*
Y044610D01*
X032640D01*
Y044650D01*
X032620D01*
Y044670D01*
X032580D01*
Y044650D01*
X032560D01*
Y044610D01*
X032580D01*
X023058Y017263D02*
Y017223D01*
X023138D01*
Y017263D01*
X023178D01*
Y017343D01*
X023138D01*
Y017383D01*
X023058D01*
Y017343D01*
X023018D01*
Y017263D01*
X023058D01*
X023078Y017283D02*
Y017263D01*
X023118D01*
Y017283D01*
X023138D01*
Y017323D01*
X023118D01*
Y017343D01*
X023078D01*
Y017323D01*
X023058D01*
Y017283D01*
X023078D01*
X018470Y020220D02*
Y020180D01*
X018550D01*
Y020220D01*
X018590D01*
Y020300D01*
X018550D01*
Y020340D01*
X018470D01*
Y020300D01*
X018430D01*
Y020220D01*
X018470D01*
X018490Y020240D02*
Y020220D01*
X018530D01*
Y020240D01*
X018550D01*
Y020280D01*
X018530D01*
Y020300D01*
X018490D01*
Y020280D01*
X018470D01*
Y020240D01*
X018490D01*
X018470Y019980D02*
Y019940D01*
X018550D01*
Y019980D01*
X018590D01*
Y020060D01*
X018550D01*
Y020100D01*
X018470D01*
Y020060D01*
X018430D01*
Y019980D01*
X018470D01*
X018490Y020000D02*
Y019980D01*
X018530D01*
Y020000D01*
X018550D01*
Y020040D01*
X018530D01*
Y020060D01*
X018490D01*
Y020040D01*
X018470D01*
Y020000D01*
X018490D01*
X018470Y019760D02*
Y019720D01*
X018550D01*
Y019760D01*
X018590D01*
Y019840D01*
X018550D01*
Y019880D01*
X018470D01*
Y019840D01*
X018430D01*
Y019760D01*
X018470D01*
X018490Y019780D02*
Y019760D01*
X018530D01*
Y019780D01*
X018550D01*
Y019820D01*
X018530D01*
Y019840D01*
X018490D01*
Y019820D01*
X018470D01*
Y019780D01*
X018490D01*
X018470Y019540D02*
Y019500D01*
X018550D01*
Y019540D01*
X018590D01*
Y019620D01*
X018550D01*
Y019660D01*
X018470D01*
Y019620D01*
X018430D01*
Y019540D01*
X018470D01*
X018490Y019560D02*
Y019540D01*
X018530D01*
Y019560D01*
X018550D01*
Y019600D01*
X018530D01*
Y019620D01*
X018490D01*
Y019600D01*
X018470D01*
Y019560D01*
X018490D01*
X018470Y019300D02*
Y019260D01*
X018550D01*
Y019300D01*
X018590D01*
Y019380D01*
X018550D01*
Y019420D01*
X018470D01*
Y019380D01*
X018430D01*
Y019300D01*
X018470D01*
X018490Y019320D02*
Y019300D01*
X018530D01*
Y019320D01*
X018550D01*
Y019360D01*
X018530D01*
Y019380D01*
X018490D01*
Y019360D01*
X018470D01*
Y019320D01*
X018490D01*
X018720Y019310D02*
Y019270D01*
X018800D01*
Y019310D01*
X018840D01*
Y019390D01*
X018800D01*
Y019430D01*
X018720D01*
Y019390D01*
X018680D01*
Y019310D01*
X018720D01*
X018740Y019330D02*
Y019310D01*
X018780D01*
Y019330D01*
X018800D01*
Y019370D01*
X018780D01*
Y019390D01*
X018740D01*
Y019370D01*
X018720D01*
Y019330D01*
X018740D01*
X018720Y019550D02*
Y019510D01*
X018800D01*
Y019550D01*
X018840D01*
Y019630D01*
X018800D01*
Y019670D01*
X018720D01*
Y019630D01*
X018680D01*
Y019550D01*
X018720D01*
X018740Y019570D02*
Y019550D01*
X018780D01*
Y019570D01*
X018800D01*
Y019610D01*
X018780D01*
Y019630D01*
X018740D01*
Y019610D01*
X018720D01*
Y019570D01*
X018740D01*
X018720Y019770D02*
Y019730D01*
X018800D01*
Y019770D01*
X018840D01*
Y019850D01*
X018800D01*
Y019890D01*
X018720D01*
Y019850D01*
X018680D01*
Y019770D01*
X018720D01*
X018740Y019790D02*
Y019770D01*
X018780D01*
Y019790D01*
X018800D01*
Y019830D01*
X018780D01*
Y019850D01*
X018740D01*
Y019830D01*
X018720D01*
Y019790D01*
X018740D01*
X018720Y019990D02*
Y019950D01*
X018800D01*
Y019990D01*
X018840D01*
Y020070D01*
X018800D01*
Y020110D01*
X018720D01*
Y020070D01*
X018680D01*
Y019990D01*
X018720D01*
X018740Y020010D02*
Y019990D01*
X018780D01*
Y020010D01*
X018800D01*
Y020050D01*
X018780D01*
Y020070D01*
X018740D01*
Y020050D01*
X018720D01*
Y020010D01*
X018740D01*
X018720Y020230D02*
Y020190D01*
X018800D01*
Y020230D01*
X018840D01*
Y020310D01*
X018800D01*
Y020350D01*
X018720D01*
Y020310D01*
X018680D01*
Y020230D01*
X018720D01*
X018740Y020250D02*
Y020230D01*
X018780D01*
Y020250D01*
X018800D01*
Y020290D01*
X018780D01*
Y020310D01*
X018740D01*
Y020290D01*
X018720D01*
Y020250D01*
X018740D01*
X047900Y045890D02*
Y045850D01*
X047980D01*
Y045890D01*
X048020D01*
Y045970D01*
X047980D01*
Y046010D01*
X047900D01*
Y045970D01*
X047860D01*
Y045890D01*
X047900D01*
X047920Y045910D02*
Y045890D01*
X047960D01*
Y045910D01*
X047980D01*
Y045950D01*
X047960D01*
Y045970D01*
X047920D01*
Y045950D01*
X047900D01*
Y045910D01*
X047920D01*
X047780Y043150D02*
Y043110D01*
X047860D01*
Y043150D01*
X047900D01*
Y043230D01*
X047860D01*
Y043270D01*
X047780D01*
Y043230D01*
X047740D01*
Y043150D01*
X047780D01*
X047800Y043170D02*
Y043150D01*
X047840D01*
Y043170D01*
X047860D01*
Y043210D01*
X047840D01*
Y043230D01*
X047800D01*
Y043210D01*
X047780D01*
Y043170D01*
X047800D01*
X050680Y041890D02*
Y041850D01*
X050760D01*
Y041890D01*
X050800D01*
Y041970D01*
X050760D01*
Y042010D01*
X050680D01*
Y041970D01*
X050640D01*
Y041890D01*
X050680D01*
X050700Y041910D02*
Y041890D01*
X050740D01*
Y041910D01*
X050760D01*
Y041950D01*
X050740D01*
Y041970D01*
X050700D01*
Y041950D01*
X050680D01*
Y041910D01*
X050700D01*
X052080Y042690D02*
Y042650D01*
X052160D01*
Y042690D01*
X052200D01*
Y042770D01*
X052160D01*
Y042810D01*
X052080D01*
Y042770D01*
X052040D01*
Y042690D01*
X052080D01*
X052100Y042710D02*
Y042690D01*
X052140D01*
Y042710D01*
X052160D01*
Y042750D01*
X052140D01*
Y042770D01*
X052100D01*
Y042750D01*
X052080D01*
Y042710D01*
X052100D01*
X024550Y048910D02*
Y048870D01*
X024630D01*
Y048910D01*
X024670D01*
Y048990D01*
X024630D01*
Y049030D01*
X024550D01*
Y048990D01*
X024510D01*
Y048910D01*
X024550D01*
X024570Y048930D02*
Y048910D01*
X024610D01*
Y048930D01*
X024630D01*
Y048970D01*
X024610D01*
Y048990D01*
X024570D01*
Y048970D01*
X024550D01*
Y048930D01*
X024570D01*
X023690Y049060D02*
Y049020D01*
X023770D01*
Y049060D01*
X023810D01*
Y049140D01*
X023770D01*
Y049180D01*
X023690D01*
Y049140D01*
X023650D01*
Y049060D01*
X023690D01*
X023710Y049080D02*
Y049060D01*
X023750D01*
Y049080D01*
X023770D01*
Y049120D01*
X023750D01*
Y049140D01*
X023710D01*
Y049120D01*
X023690D01*
Y049080D01*
X023710D01*
X043210Y052050D02*
Y052010D01*
X043290D01*
Y052050D01*
X043330D01*
Y052130D01*
X043290D01*
Y052170D01*
X043210D01*
Y052130D01*
X043170D01*
Y052050D01*
X043210D01*
X043230Y052070D02*
Y052050D01*
X043270D01*
Y052070D01*
X043290D01*
Y052110D01*
X043270D01*
Y052130D01*
X043230D01*
Y052110D01*
X043210D01*
Y052070D01*
X043230D01*
X044320Y049840D02*
Y049800D01*
X044400D01*
Y049840D01*
X044440D01*
Y049920D01*
X044400D01*
Y049960D01*
X044320D01*
Y049920D01*
X044280D01*
Y049840D01*
X044320D01*
X044340Y049860D02*
Y049840D01*
X044380D01*
Y049860D01*
X044400D01*
Y049900D01*
X044380D01*
Y049920D01*
X044340D01*
Y049900D01*
X044320D01*
Y049860D01*
X044340D01*
X044550Y048810D02*
Y048770D01*
X044630D01*
Y048810D01*
X044670D01*
Y048890D01*
X044630D01*
Y048930D01*
X044550D01*
Y048890D01*
X044510D01*
Y048810D01*
X044550D01*
X044570Y048830D02*
Y048810D01*
X044610D01*
Y048830D01*
X044630D01*
Y048870D01*
X044610D01*
Y048890D01*
X044570D01*
Y048870D01*
X044550D01*
Y048830D01*
X044570D01*
X042590Y048970D02*
Y048930D01*
X042670D01*
Y048970D01*
X042710D01*
Y049050D01*
X042670D01*
Y049090D01*
X042590D01*
Y049050D01*
X042550D01*
Y048970D01*
X042590D01*
X042610Y048990D02*
Y048970D01*
X042650D01*
Y048990D01*
X042670D01*
Y049030D01*
X042650D01*
Y049050D01*
X042610D01*
Y049030D01*
X042590D01*
Y048990D01*
X042610D01*
X045160Y048780D02*
Y048740D01*
X045240D01*
Y048780D01*
X045280D01*
Y048860D01*
X045240D01*
Y048900D01*
X045160D01*
Y048860D01*
X045120D01*
Y048780D01*
X045160D01*
X045180Y048800D02*
Y048780D01*
X045220D01*
Y048800D01*
X045240D01*
Y048840D01*
X045220D01*
Y048860D01*
X045180D01*
Y048840D01*
X045160D01*
Y048800D01*
X045180D01*
X047140Y043470D02*
Y043430D01*
X047220D01*
Y043470D01*
X047260D01*
Y043550D01*
X047220D01*
Y043590D01*
X047140D01*
Y043550D01*
X047100D01*
Y043470D01*
X047140D01*
X047160Y043490D02*
Y043470D01*
X047200D01*
Y043490D01*
X047220D01*
Y043530D01*
X047200D01*
Y043550D01*
X047160D01*
Y043530D01*
X047140D01*
Y043490D01*
X047160D01*
X050040Y040950D02*
Y040910D01*
X050120D01*
Y040950D01*
X050160D01*
Y041030D01*
X050120D01*
Y041070D01*
X050040D01*
Y041030D01*
X050000D01*
Y040950D01*
X050040D01*
X050060Y040970D02*
Y040950D01*
X050100D01*
Y040970D01*
X050120D01*
Y041010D01*
X050100D01*
Y041030D01*
X050060D01*
Y041010D01*
X050040D01*
Y040970D01*
X050060D01*
X050630Y039650D02*
Y039610D01*
X050710D01*
Y039650D01*
X050750D01*
Y039730D01*
X050710D01*
Y039770D01*
X050630D01*
Y039730D01*
X050590D01*
Y039650D01*
X050630D01*
X050650Y039670D02*
Y039650D01*
X050690D01*
Y039670D01*
X050710D01*
Y039710D01*
X050690D01*
Y039730D01*
X050650D01*
Y039710D01*
X050630D01*
Y039670D01*
X050650D01*
X050990Y039630D02*
Y039590D01*
X051070D01*
Y039630D01*
X051110D01*
Y039710D01*
X051070D01*
Y039750D01*
X050990D01*
Y039710D01*
X050950D01*
Y039630D01*
X050990D01*
X051010Y039650D02*
Y039630D01*
X051050D01*
Y039650D01*
X051070D01*
Y039690D01*
X051050D01*
Y039710D01*
X051010D01*
Y039690D01*
X050990D01*
Y039650D01*
X051010D01*
X051960Y040850D02*
Y040810D01*
X052040D01*
Y040850D01*
X052080D01*
Y040930D01*
X052040D01*
Y040970D01*
X051960D01*
Y040930D01*
X051920D01*
Y040850D01*
X051960D01*
X051980Y040870D02*
Y040850D01*
X052020D01*
Y040870D01*
X052040D01*
Y040910D01*
X052020D01*
Y040930D01*
X051980D01*
Y040910D01*
X051960D01*
Y040870D01*
X051980D01*
Y042340D02*
Y042300D01*
X052060D01*
Y042340D01*
X052100D01*
Y042420D01*
X052060D01*
Y042460D01*
X051980D01*
Y042420D01*
X051940D01*
Y042340D01*
X051980D01*
X052000Y042360D02*
Y042340D01*
X052040D01*
Y042360D01*
X052060D01*
Y042400D01*
X052040D01*
Y042420D01*
X052000D01*
Y042400D01*
X051980D01*
Y042360D01*
X052000D01*
X040330Y018450D02*
Y018410D01*
X040410D01*
Y018450D01*
X040450D01*
Y018530D01*
X040410D01*
Y018570D01*
X040330D01*
Y018530D01*
X040290D01*
Y018450D01*
X040330D01*
X040350Y018470D02*
Y018450D01*
X040390D01*
Y018470D01*
X040410D01*
Y018510D01*
X040390D01*
Y018530D01*
X040350D01*
Y018510D01*
X040330D01*
Y018470D01*
X040350D01*
X040330Y018250D02*
Y018210D01*
X040410D01*
Y018250D01*
X040450D01*
Y018330D01*
X040410D01*
Y018370D01*
X040330D01*
Y018330D01*
X040290D01*
Y018250D01*
X040330D01*
X040350Y018270D02*
Y018250D01*
X040390D01*
Y018270D01*
X040410D01*
Y018310D01*
X040390D01*
Y018330D01*
X040350D01*
Y018310D01*
X040330D01*
Y018270D01*
X040350D01*
X040120Y018450D02*
Y018410D01*
X040200D01*
Y018450D01*
X040240D01*
Y018530D01*
X040200D01*
Y018570D01*
X040120D01*
Y018530D01*
X040080D01*
Y018450D01*
X040120D01*
X040140Y018470D02*
Y018450D01*
X040180D01*
Y018470D01*
X040200D01*
Y018510D01*
X040180D01*
Y018530D01*
X040140D01*
Y018510D01*
X040120D01*
Y018470D01*
X040140D01*
X040120Y018250D02*
Y018210D01*
X040200D01*
Y018250D01*
X040240D01*
Y018330D01*
X040200D01*
Y018370D01*
X040120D01*
Y018330D01*
X040080D01*
Y018250D01*
X040120D01*
X040140Y018270D02*
Y018250D01*
X040180D01*
Y018270D01*
X040200D01*
Y018310D01*
X040180D01*
Y018330D01*
X040140D01*
Y018310D01*
X040120D01*
Y018270D01*
X040140D01*
X041560Y018510D02*
Y018470D01*
X041640D01*
Y018510D01*
X041680D01*
Y018590D01*
X041640D01*
Y018630D01*
X041560D01*
Y018590D01*
X041520D01*
Y018510D01*
X041560D01*
X041580Y018530D02*
Y018510D01*
X041620D01*
Y018530D01*
X041640D01*
Y018570D01*
X041620D01*
Y018590D01*
X041580D01*
Y018570D01*
X041560D01*
Y018530D01*
X041580D01*
X041560Y018970D02*
Y018930D01*
X041640D01*
Y018970D01*
X041680D01*
Y019050D01*
X041640D01*
Y019090D01*
X041560D01*
Y019050D01*
X041520D01*
Y018970D01*
X041560D01*
X041580Y018990D02*
Y018970D01*
X041620D01*
Y018990D01*
X041640D01*
Y019030D01*
X041620D01*
Y019050D01*
X041580D01*
Y019030D01*
X041560D01*
Y018990D01*
X041580D01*
X041880Y018970D02*
Y018930D01*
X041960D01*
Y018970D01*
X042000D01*
Y019050D01*
X041960D01*
Y019090D01*
X041880D01*
Y019050D01*
X041840D01*
Y018970D01*
X041880D01*
X041900Y018990D02*
Y018970D01*
X041940D01*
Y018990D01*
X041960D01*
Y019030D01*
X041940D01*
Y019050D01*
X041900D01*
Y019030D01*
X041880D01*
Y018990D01*
X041900D01*
X041560Y018260D02*
Y018220D01*
X041640D01*
Y018260D01*
X041680D01*
Y018340D01*
X041640D01*
Y018380D01*
X041560D01*
Y018340D01*
X041520D01*
Y018260D01*
X041560D01*
X041580Y018280D02*
Y018260D01*
X041620D01*
Y018280D01*
X041640D01*
Y018320D01*
X041620D01*
Y018340D01*
X041580D01*
Y018320D01*
X041560D01*
Y018280D01*
X041580D01*
X041880Y018510D02*
Y018470D01*
X041960D01*
Y018510D01*
X042000D01*
Y018590D01*
X041960D01*
Y018630D01*
X041880D01*
Y018590D01*
X041840D01*
Y018510D01*
X041880D01*
X041900Y018530D02*
Y018510D01*
X041940D01*
Y018530D01*
X041960D01*
Y018570D01*
X041940D01*
Y018590D01*
X041900D01*
Y018570D01*
X041880D01*
Y018530D01*
X041900D01*
X041560Y018740D02*
Y018700D01*
X041640D01*
Y018740D01*
X041680D01*
Y018820D01*
X041640D01*
Y018860D01*
X041560D01*
Y018820D01*
X041520D01*
Y018740D01*
X041560D01*
X041580Y018760D02*
Y018740D01*
X041620D01*
Y018760D01*
X041640D01*
Y018800D01*
X041620D01*
Y018820D01*
X041580D01*
Y018800D01*
X041560D01*
Y018760D01*
X041580D01*
X041880Y018260D02*
Y018220D01*
X041960D01*
Y018260D01*
X042000D01*
Y018340D01*
X041960D01*
Y018380D01*
X041880D01*
Y018340D01*
X041840D01*
Y018260D01*
X041880D01*
X041900Y018280D02*
Y018260D01*
X041940D01*
Y018280D01*
X041960D01*
Y018320D01*
X041940D01*
Y018340D01*
X041900D01*
Y018320D01*
X041880D01*
Y018280D01*
X041900D01*
X042410Y042539D02*
Y042499D01*
X042490D01*
Y042539D01*
X042530D01*
Y042619D01*
X042490D01*
Y042659D01*
X042410D01*
Y042619D01*
X042370D01*
Y042539D01*
X042410D01*
X042430Y042559D02*
Y042539D01*
X042470D01*
Y042559D01*
X042490D01*
Y042599D01*
X042470D01*
Y042619D01*
X042430D01*
Y042599D01*
X042410D01*
Y042559D01*
X042430D01*
X042390Y043589D02*
Y043549D01*
X042470D01*
Y043589D01*
X042510D01*
Y043669D01*
X042470D01*
Y043709D01*
X042390D01*
Y043669D01*
X042350D01*
Y043589D01*
X042390D01*
X042410Y043609D02*
Y043589D01*
X042450D01*
Y043609D01*
X042470D01*
Y043649D01*
X042450D01*
Y043669D01*
X042410D01*
Y043649D01*
X042390D01*
Y043609D01*
X042410D01*
X040265Y043550D02*
Y043510D01*
X040345D01*
Y043550D01*
X040385D01*
Y043630D01*
X040345D01*
Y043670D01*
X040265D01*
Y043630D01*
X040225D01*
Y043550D01*
X040265D01*
X040285Y043570D02*
Y043550D01*
X040325D01*
Y043570D01*
X040345D01*
Y043610D01*
X040325D01*
Y043630D01*
X040285D01*
Y043610D01*
X040265D01*
Y043570D01*
X040285D01*
X048990Y045490D02*
Y045450D01*
X049070D01*
Y045490D01*
X049110D01*
Y045570D01*
X049070D01*
Y045610D01*
X048990D01*
Y045570D01*
X048950D01*
Y045490D01*
X048990D01*
X049010Y045510D02*
Y045490D01*
X049050D01*
Y045510D01*
X049070D01*
Y045550D01*
X049050D01*
Y045570D01*
X049010D01*
Y045550D01*
X048990D01*
Y045510D01*
X049010D01*
X048990Y047130D02*
Y047090D01*
X049070D01*
Y047130D01*
X049110D01*
Y047210D01*
X049070D01*
Y047250D01*
X048990D01*
Y047210D01*
X048950D01*
Y047130D01*
X048990D01*
X049010Y047150D02*
Y047130D01*
X049050D01*
Y047150D01*
X049070D01*
Y047190D01*
X049050D01*
Y047210D01*
X049010D01*
Y047190D01*
X048990D01*
Y047150D01*
X049010D01*
X048370Y043680D02*
Y043640D01*
X048450D01*
Y043680D01*
X048490D01*
Y043760D01*
X048450D01*
Y043800D01*
X048370D01*
Y043760D01*
X048330D01*
Y043680D01*
X048370D01*
X048390Y043700D02*
Y043680D01*
X048430D01*
Y043700D01*
X048450D01*
Y043740D01*
X048430D01*
Y043760D01*
X048390D01*
Y043740D01*
X048370D01*
Y043700D01*
X048390D01*
X047970Y043670D02*
Y043630D01*
X048050D01*
Y043670D01*
X048090D01*
Y043750D01*
X048050D01*
Y043790D01*
X047970D01*
Y043750D01*
X047930D01*
Y043670D01*
X047970D01*
X047990Y043690D02*
Y043670D01*
X048030D01*
Y043690D01*
X048050D01*
Y043730D01*
X048030D01*
Y043750D01*
X047990D01*
Y043730D01*
X047970D01*
Y043690D01*
X047990D01*
X025660Y041480D02*
Y041440D01*
X025740D01*
Y041480D01*
X025780D01*
Y041560D01*
X025740D01*
Y041600D01*
X025660D01*
Y041560D01*
X025620D01*
Y041480D01*
X025660D01*
X025680Y041500D02*
Y041480D01*
X025720D01*
Y041500D01*
X025740D01*
Y041540D01*
X025720D01*
Y041560D01*
X025680D01*
Y041540D01*
X025660D01*
Y041500D01*
X025680D01*
X025260Y041980D02*
Y041940D01*
X025340D01*
Y041980D01*
X025380D01*
Y042060D01*
X025340D01*
Y042100D01*
X025260D01*
Y042060D01*
X025220D01*
Y041980D01*
X025260D01*
X025280Y042000D02*
Y041980D01*
X025320D01*
Y042000D01*
X025340D01*
Y042040D01*
X025320D01*
Y042060D01*
X025280D01*
Y042040D01*
X025260D01*
Y042000D01*
X025280D01*
X025410Y052970D02*
Y052930D01*
X025490D01*
Y052970D01*
X025530D01*
Y053050D01*
X025490D01*
Y053090D01*
X025410D01*
Y053050D01*
X025370D01*
Y052970D01*
X025410D01*
X025430Y052990D02*
Y052970D01*
X025470D01*
Y052990D01*
X025490D01*
Y053030D01*
X025470D01*
Y053050D01*
X025430D01*
Y053030D01*
X025410D01*
Y052990D01*
X025430D01*
X025660Y053220D02*
Y053180D01*
X025740D01*
Y053220D01*
X025780D01*
Y053300D01*
X025740D01*
Y053340D01*
X025660D01*
Y053300D01*
X025620D01*
Y053220D01*
X025660D01*
X025680Y053240D02*
Y053220D01*
X025720D01*
Y053240D01*
X025740D01*
Y053280D01*
X025720D01*
Y053300D01*
X025680D01*
Y053280D01*
X025660D01*
Y053240D01*
X025680D01*
X026660Y051990D02*
Y051950D01*
X026740D01*
Y051990D01*
X026780D01*
Y052070D01*
X026740D01*
Y052110D01*
X026660D01*
Y052070D01*
X026620D01*
Y051990D01*
X026660D01*
X026680Y052010D02*
Y051990D01*
X026720D01*
Y052010D01*
X026740D01*
Y052050D01*
X026720D01*
Y052070D01*
X026680D01*
Y052050D01*
X026660D01*
Y052010D01*
X026680D01*
X025500Y051670D02*
Y051630D01*
X025580D01*
Y051670D01*
X025620D01*
Y051750D01*
X025580D01*
Y051790D01*
X025500D01*
Y051750D01*
X025460D01*
Y051670D01*
X025500D01*
X025520Y051690D02*
Y051670D01*
X025560D01*
Y051690D01*
X025580D01*
Y051730D01*
X025560D01*
Y051750D01*
X025520D01*
Y051730D01*
X025500D01*
Y051690D01*
X025520D01*
X025013Y051640D02*
Y051600D01*
X025093D01*
Y051640D01*
X025133D01*
Y051720D01*
X025093D01*
Y051760D01*
X025013D01*
Y051720D01*
X024973D01*
Y051640D01*
X025013D01*
X025033Y051660D02*
Y051640D01*
X025073D01*
Y051660D01*
X025093D01*
Y051700D01*
X025073D01*
Y051720D01*
X025033D01*
Y051700D01*
X025013D01*
Y051660D01*
X025033D01*
X026529Y051051D02*
Y051011D01*
X026609D01*
Y051051D01*
X026649D01*
Y051131D01*
X026609D01*
Y051171D01*
X026529D01*
Y051131D01*
X026489D01*
Y051051D01*
X026529D01*
X026549Y051071D02*
Y051051D01*
X026589D01*
Y051071D01*
X026609D01*
Y051111D01*
X026589D01*
Y051131D01*
X026549D01*
Y051111D01*
X026529D01*
Y051071D01*
X026549D01*
X026110Y051020D02*
Y050980D01*
X026190D01*
Y051020D01*
X026230D01*
Y051100D01*
X026190D01*
Y051140D01*
X026110D01*
Y051100D01*
X026070D01*
Y051020D01*
X026110D01*
X026130Y051040D02*
Y051020D01*
X026170D01*
Y051040D01*
X026190D01*
Y051080D01*
X026170D01*
Y051100D01*
X026130D01*
Y051080D01*
X026110D01*
Y051040D01*
X026130D01*
X036740Y042620D02*
Y042580D01*
X036820D01*
Y042620D01*
X036860D01*
Y042700D01*
X036820D01*
Y042740D01*
X036740D01*
Y042700D01*
X036700D01*
Y042620D01*
X036740D01*
X036760Y042640D02*
Y042620D01*
X036800D01*
Y042640D01*
X036820D01*
Y042680D01*
X036800D01*
Y042700D01*
X036760D01*
Y042680D01*
X036740D01*
Y042640D01*
X036760D01*
X036730Y042950D02*
Y042910D01*
X036810D01*
Y042950D01*
X036850D01*
Y043030D01*
X036810D01*
Y043070D01*
X036730D01*
Y043030D01*
X036690D01*
Y042950D01*
X036730D01*
X036750Y042970D02*
Y042950D01*
X036790D01*
Y042970D01*
X036810D01*
Y043010D01*
X036790D01*
Y043030D01*
X036750D01*
Y043010D01*
X036730D01*
Y042970D01*
X036750D01*
X034833Y044017D02*
Y043977D01*
X034913D01*
Y044017D01*
X034953D01*
Y044097D01*
X034913D01*
Y044137D01*
X034833D01*
Y044097D01*
X034793D01*
Y044017D01*
X034833D01*
X034853Y044037D02*
Y044017D01*
X034893D01*
Y044037D01*
X034913D01*
Y044077D01*
X034893D01*
Y044097D01*
X034853D01*
Y044077D01*
X034833D01*
Y044037D01*
X034853D01*
X036266Y044269D02*
Y044229D01*
X036346D01*
Y044269D01*
X036386D01*
Y044349D01*
X036346D01*
Y044389D01*
X036266D01*
Y044349D01*
X036226D01*
Y044269D01*
X036266D01*
X036286Y044289D02*
Y044269D01*
X036326D01*
Y044289D01*
X036346D01*
Y044329D01*
X036326D01*
Y044349D01*
X036286D01*
Y044329D01*
X036266D01*
Y044289D01*
X036286D01*
X020010Y042270D02*
Y042230D01*
X020090D01*
Y042270D01*
X020130D01*
Y042350D01*
X020090D01*
Y042390D01*
X020010D01*
Y042350D01*
X019970D01*
Y042270D01*
X020010D01*
X020030Y042290D02*
Y042270D01*
X020070D01*
Y042290D01*
X020090D01*
Y042330D01*
X020070D01*
Y042350D01*
X020030D01*
Y042330D01*
X020010D01*
Y042290D01*
X020030D01*
X039910Y018250D02*
Y018210D01*
X039990D01*
Y018250D01*
X040030D01*
Y018330D01*
X039990D01*
Y018370D01*
X039910D01*
Y018330D01*
X039870D01*
Y018250D01*
X039910D01*
X039930Y018270D02*
Y018250D01*
X039970D01*
Y018270D01*
X039990D01*
Y018310D01*
X039970D01*
Y018330D01*
X039930D01*
Y018310D01*
X039910D01*
Y018270D01*
X039930D01*
X040530Y018790D02*
Y018750D01*
X040610D01*
Y018790D01*
X040650D01*
Y018870D01*
X040610D01*
Y018910D01*
X040530D01*
Y018870D01*
X040490D01*
Y018790D01*
X040530D01*
X040550Y018810D02*
Y018790D01*
X040590D01*
Y018810D01*
X040610D01*
Y018850D01*
X040590D01*
Y018870D01*
X040550D01*
Y018850D01*
X040530D01*
Y018810D01*
X040550D01*
X041880Y018740D02*
Y018700D01*
X041960D01*
Y018740D01*
X042000D01*
Y018820D01*
X041960D01*
Y018860D01*
X041880D01*
Y018820D01*
X041840D01*
Y018740D01*
X041880D01*
X041900Y018760D02*
Y018740D01*
X041940D01*
Y018760D01*
X041960D01*
Y018800D01*
X041940D01*
Y018820D01*
X041900D01*
Y018800D01*
X041880D01*
Y018760D01*
X041900D01*
X026114Y049476D02*
X026154D01*
X026194Y049516D01*
X026234Y049476D01*
X026274D01*
Y049516D01*
X026234Y049556D01*
X026274Y049596D01*
Y049636D01*
X026234D01*
X026194Y049596D01*
X026154Y049636D01*
X026114D01*
Y049596D01*
X026154Y049556D01*
X026114Y049516D01*
Y049476D01*
X026154Y049516D02*
X026174D01*
X026194Y049536D01*
X026214Y049516D01*
X026234D01*
Y049536D01*
X026214Y049556D01*
X026234Y049576D01*
Y049596D01*
X026214D01*
X026194Y049576D01*
X026174Y049596D01*
X026154D01*
Y049576D01*
X026174Y049556D01*
X026154Y049536D01*
Y049516D01*
X026114Y049948D02*
X026154D01*
X026194Y049988D01*
X026234Y049948D01*
X026274D01*
Y049988D01*
X026234Y050028D01*
X026274Y050068D01*
Y050108D01*
X026234D01*
X026194Y050068D01*
X026154Y050108D01*
X026114D01*
Y050068D01*
X026154Y050028D01*
X026114Y049988D01*
Y049948D01*
X026154Y049988D02*
X026174D01*
X026194Y050008D01*
X026214Y049988D01*
X026234D01*
Y050008D01*
X026214Y050028D01*
X026234Y050048D01*
Y050068D01*
X026214D01*
X026194Y050048D01*
X026174Y050068D01*
X026154D01*
Y050048D01*
X026174Y050028D01*
X026154Y050008D01*
Y049988D01*
X026586Y049476D02*
X026626D01*
X026666Y049516D01*
X026706Y049476D01*
X026746D01*
Y049516D01*
X026706Y049556D01*
X026746Y049596D01*
Y049636D01*
X026706D01*
X026666Y049596D01*
X026626Y049636D01*
X026586D01*
Y049596D01*
X026626Y049556D01*
X026586Y049516D01*
Y049476D01*
X026626Y049516D02*
X026646D01*
X026666Y049536D01*
X026686Y049516D01*
X026706D01*
Y049536D01*
X026686Y049556D01*
X026706Y049576D01*
Y049596D01*
X026686D01*
X026666Y049576D01*
X026646Y049596D01*
X026626D01*
Y049576D01*
X026646Y049556D01*
X026626Y049536D01*
Y049516D01*
X026586Y049948D02*
X026626D01*
X026666Y049988D01*
X026706Y049948D01*
X026746D01*
Y049988D01*
X026706Y050028D01*
X026746Y050068D01*
Y050108D01*
X026706D01*
X026666Y050068D01*
X026626Y050108D01*
X026586D01*
Y050068D01*
X026626Y050028D01*
X026586Y049988D01*
Y049948D01*
X026626Y049988D02*
X026646D01*
X026666Y050008D01*
X026686Y049988D01*
X026706D01*
Y050008D01*
X026686Y050028D01*
X026706Y050048D01*
Y050068D01*
X026686D01*
X026666Y050048D01*
X026646Y050068D01*
X026626D01*
Y050048D01*
X026646Y050028D01*
X026626Y050008D01*
Y049988D01*
X026350Y049712D02*
X026390D01*
X026430Y049752D01*
X026470Y049712D01*
X026510D01*
Y049752D01*
X026470Y049792D01*
X026510Y049832D01*
Y049872D01*
X026470D01*
X026430Y049832D01*
X026390Y049872D01*
X026350D01*
Y049832D01*
X026390Y049792D01*
X026350Y049752D01*
Y049712D01*
X026390Y049752D02*
X026410D01*
X026430Y049772D01*
X026450Y049752D01*
X026470D01*
Y049772D01*
X026450Y049792D01*
X026470Y049812D01*
Y049832D01*
X026450D01*
X026430Y049812D01*
X026410Y049832D01*
X026390D01*
Y049812D01*
X026410Y049792D01*
X026390Y049772D01*
Y049752D01*
X027580Y018110D02*
Y018070D01*
X027660D01*
Y018110D01*
X027700D01*
Y018190D01*
X027660D01*
Y018230D01*
X027580D01*
Y018190D01*
X027540D01*
Y018110D01*
X027580D01*
X027600Y018130D02*
Y018110D01*
X027640D01*
Y018130D01*
X027660D01*
Y018170D01*
X027640D01*
Y018190D01*
X027600D01*
Y018170D01*
X027580D01*
Y018130D01*
X027600D01*
X027170Y018110D02*
Y018070D01*
X027250D01*
Y018110D01*
X027290D01*
Y018190D01*
X027250D01*
Y018230D01*
X027170D01*
Y018190D01*
X027130D01*
Y018110D01*
X027170D01*
X027190Y018130D02*
Y018110D01*
X027230D01*
Y018130D01*
X027250D01*
Y018170D01*
X027230D01*
Y018190D01*
X027190D01*
Y018170D01*
X027170D01*
Y018130D01*
X027190D01*
X027580Y017900D02*
Y017860D01*
X027660D01*
Y017900D01*
X027700D01*
Y017980D01*
X027660D01*
Y018020D01*
X027580D01*
Y017980D01*
X027540D01*
Y017900D01*
X027580D01*
X027600Y017920D02*
Y017900D01*
X027640D01*
Y017920D01*
X027660D01*
Y017960D01*
X027640D01*
Y017980D01*
X027600D01*
Y017960D01*
X027580D01*
Y017920D01*
X027600D01*
X045850Y053040D02*
Y053000D01*
X045930D01*
Y053040D01*
X045970D01*
Y053120D01*
X045930D01*
Y053160D01*
X045850D01*
Y053120D01*
X045810D01*
Y053040D01*
X045850D01*
X045870Y053060D02*
Y053040D01*
X045910D01*
Y053060D01*
X045930D01*
Y053100D01*
X045910D01*
Y053120D01*
X045870D01*
Y053100D01*
X045850D01*
Y053060D01*
X045870D01*
X045110Y053030D02*
Y052990D01*
X045190D01*
Y053030D01*
X045230D01*
Y053110D01*
X045190D01*
Y053150D01*
X045110D01*
Y053110D01*
X045070D01*
Y053030D01*
X045110D01*
X045130Y053050D02*
Y053030D01*
X045170D01*
Y053050D01*
X045190D01*
Y053090D01*
X045170D01*
Y053110D01*
X045130D01*
Y053090D01*
X045110D01*
Y053050D01*
X045130D01*
X044060Y052970D02*
Y052930D01*
X044140D01*
Y052970D01*
X044180D01*
Y053050D01*
X044140D01*
Y053090D01*
X044060D01*
Y053050D01*
X044020D01*
Y052970D01*
X044060D01*
X044080Y052990D02*
Y052970D01*
X044120D01*
Y052990D01*
X044140D01*
Y053030D01*
X044120D01*
Y053050D01*
X044080D01*
Y053030D01*
X044060D01*
Y052990D01*
X044080D01*
X044440Y052980D02*
Y052940D01*
X044520D01*
Y052980D01*
X044560D01*
Y053060D01*
X044520D01*
Y053100D01*
X044440D01*
Y053060D01*
X044400D01*
Y052980D01*
X044440D01*
X044460Y053000D02*
Y052980D01*
X044500D01*
Y053000D01*
X044520D01*
Y053040D01*
X044500D01*
Y053060D01*
X044460D01*
Y053040D01*
X044440D01*
Y053000D01*
X044460D01*
X047950Y048630D02*
Y048590D01*
X048030D01*
Y048630D01*
X048070D01*
Y048710D01*
X048030D01*
Y048750D01*
X047950D01*
Y048710D01*
X047910D01*
Y048630D01*
X047950D01*
X047970Y048650D02*
Y048630D01*
X048010D01*
Y048650D01*
X048030D01*
Y048690D01*
X048010D01*
Y048710D01*
X047970D01*
Y048690D01*
X047950D01*
Y048650D01*
X047970D01*
X046670Y048220D02*
Y048180D01*
X046750D01*
Y048220D01*
X046790D01*
Y048300D01*
X046750D01*
Y048340D01*
X046670D01*
Y048300D01*
X046630D01*
Y048220D01*
X046670D01*
X046690Y048240D02*
Y048220D01*
X046730D01*
Y048240D01*
X046750D01*
Y048280D01*
X046730D01*
Y048300D01*
X046690D01*
Y048280D01*
X046670D01*
Y048240D01*
X046690D01*
X046680Y047810D02*
Y047770D01*
X046760D01*
Y047810D01*
X046800D01*
Y047890D01*
X046760D01*
Y047930D01*
X046680D01*
Y047890D01*
X046640D01*
Y047810D01*
X046680D01*
X046700Y047830D02*
Y047810D01*
X046740D01*
Y047830D01*
X046760D01*
Y047870D01*
X046740D01*
Y047890D01*
X046700D01*
Y047870D01*
X046680D01*
Y047830D01*
X046700D01*
X034737Y042800D02*
Y042760D01*
X034817D01*
Y042800D01*
X034857D01*
Y042880D01*
X034817D01*
Y042920D01*
X034737D01*
Y042880D01*
X034697D01*
Y042800D01*
X034737D01*
X034757Y042820D02*
Y042800D01*
X034797D01*
Y042820D01*
X034817D01*
Y042860D01*
X034797D01*
Y042880D01*
X034757D01*
Y042860D01*
X034737D01*
Y042820D01*
X034757D01*
X026890Y050850D02*
Y050810D01*
X026970D01*
Y050850D01*
X027010D01*
Y050930D01*
X026970D01*
Y050970D01*
X026890D01*
Y050930D01*
X026850D01*
Y050850D01*
X026890D01*
X026910Y050870D02*
Y050850D01*
X026950D01*
Y050870D01*
X026970D01*
Y050910D01*
X026950D01*
Y050930D01*
X026910D01*
Y050910D01*
X026890D01*
Y050870D01*
X026910D01*
X026300Y050790D02*
Y050750D01*
X026380D01*
Y050790D01*
X026420D01*
Y050870D01*
X026380D01*
Y050910D01*
X026300D01*
Y050870D01*
X026260D01*
Y050790D01*
X026300D01*
X026320Y050810D02*
Y050790D01*
X026360D01*
Y050810D01*
X026380D01*
Y050850D01*
X026360D01*
Y050870D01*
X026320D01*
Y050850D01*
X026300D01*
Y050810D01*
X026320D01*
X043490Y052800D02*
Y052760D01*
X043570D01*
Y052800D01*
X043610D01*
Y052880D01*
X043570D01*
Y052920D01*
X043490D01*
Y052880D01*
X043450D01*
Y052800D01*
X043490D01*
X043510Y052820D02*
Y052800D01*
X043550D01*
Y052820D01*
X043570D01*
Y052860D01*
X043550D01*
Y052880D01*
X043510D01*
Y052860D01*
X043490D01*
Y052820D01*
X043510D01*
X043480Y053180D02*
Y053140D01*
X043560D01*
Y053180D01*
X043600D01*
Y053260D01*
X043560D01*
Y053300D01*
X043480D01*
Y053260D01*
X043440D01*
Y053180D01*
X043480D01*
X043500Y053200D02*
Y053180D01*
X043540D01*
Y053200D01*
X043560D01*
Y053240D01*
X043540D01*
Y053260D01*
X043500D01*
Y053240D01*
X043480D01*
Y053200D01*
X043500D01*
X043240Y052190D02*
Y052150D01*
X043320D01*
Y052190D01*
X043360D01*
Y052270D01*
X043320D01*
Y052310D01*
X043240D01*
Y052270D01*
X043200D01*
Y052190D01*
X043240D01*
X043260Y052210D02*
Y052190D01*
X043300D01*
Y052210D01*
X043320D01*
Y052250D01*
X043300D01*
Y052270D01*
X043260D01*
Y052250D01*
X043240D01*
Y052210D01*
X043260D01*
X042510Y050840D02*
Y050800D01*
X042590D01*
Y050840D01*
X042630D01*
Y050920D01*
X042590D01*
Y050960D01*
X042510D01*
Y050920D01*
X042470D01*
Y050840D01*
X042510D01*
X042530Y050860D02*
Y050840D01*
X042570D01*
Y050860D01*
X042590D01*
Y050900D01*
X042570D01*
Y050920D01*
X042530D01*
Y050900D01*
X042510D01*
Y050860D01*
X042530D01*
X042510Y050590D02*
Y050550D01*
X042590D01*
Y050590D01*
X042630D01*
Y050670D01*
X042590D01*
Y050710D01*
X042510D01*
Y050670D01*
X042470D01*
Y050590D01*
X042510D01*
X042530Y050610D02*
Y050590D01*
X042570D01*
Y050610D01*
X042590D01*
Y050650D01*
X042570D01*
Y050670D01*
X042530D01*
Y050650D01*
X042510D01*
Y050610D01*
X042530D01*
X042730Y050590D02*
Y050550D01*
X042810D01*
Y050590D01*
X042850D01*
Y050670D01*
X042810D01*
Y050710D01*
X042730D01*
Y050670D01*
X042690D01*
Y050590D01*
X042730D01*
X042750Y050610D02*
Y050590D01*
X042790D01*
Y050610D01*
X042810D01*
Y050650D01*
X042790D01*
Y050670D01*
X042750D01*
Y050650D01*
X042730D01*
Y050610D01*
X042750D01*
X041330Y052780D02*
Y052740D01*
X041410D01*
Y052780D01*
X041450D01*
Y052860D01*
X041410D01*
Y052900D01*
X041330D01*
Y052860D01*
X041290D01*
Y052780D01*
X041330D01*
X041350Y052800D02*
Y052780D01*
X041390D01*
Y052800D01*
X041410D01*
Y052840D01*
X041390D01*
Y052860D01*
X041350D01*
Y052840D01*
X041330D01*
Y052800D01*
X041350D01*
X041100Y052780D02*
Y052740D01*
X041180D01*
Y052780D01*
X041220D01*
Y052860D01*
X041180D01*
Y052900D01*
X041100D01*
Y052860D01*
X041060D01*
Y052780D01*
X041100D01*
X041120Y052800D02*
Y052780D01*
X041160D01*
Y052800D01*
X041180D01*
Y052840D01*
X041160D01*
Y052860D01*
X041120D01*
Y052840D01*
X041100D01*
Y052800D01*
X041120D01*
X040870Y052780D02*
Y052740D01*
X040950D01*
Y052780D01*
X040990D01*
Y052860D01*
X040950D01*
Y052900D01*
X040870D01*
Y052860D01*
X040830D01*
Y052780D01*
X040870D01*
X040890Y052800D02*
Y052780D01*
X040930D01*
Y052800D01*
X040950D01*
Y052840D01*
X040930D01*
Y052860D01*
X040890D01*
Y052840D01*
X040870D01*
Y052800D01*
X040890D01*
X040620Y052780D02*
Y052740D01*
X040700D01*
Y052780D01*
X040740D01*
Y052860D01*
X040700D01*
Y052900D01*
X040620D01*
Y052860D01*
X040580D01*
Y052780D01*
X040620D01*
X040640Y052800D02*
Y052780D01*
X040680D01*
Y052800D01*
X040700D01*
Y052840D01*
X040680D01*
Y052860D01*
X040640D01*
Y052840D01*
X040620D01*
Y052800D01*
X040640D01*
X041330Y052460D02*
Y052420D01*
X041410D01*
Y052460D01*
X041450D01*
Y052540D01*
X041410D01*
Y052580D01*
X041330D01*
Y052540D01*
X041290D01*
Y052460D01*
X041330D01*
X041350Y052480D02*
Y052460D01*
X041390D01*
Y052480D01*
X041410D01*
Y052520D01*
X041390D01*
Y052540D01*
X041350D01*
Y052520D01*
X041330D01*
Y052480D01*
X041350D01*
X041100Y052460D02*
Y052420D01*
X041180D01*
Y052460D01*
X041220D01*
Y052540D01*
X041180D01*
Y052580D01*
X041100D01*
Y052540D01*
X041060D01*
Y052460D01*
X041100D01*
X041120Y052480D02*
Y052460D01*
X041160D01*
Y052480D01*
X041180D01*
Y052520D01*
X041160D01*
Y052540D01*
X041120D01*
Y052520D01*
X041100D01*
Y052480D01*
X041120D01*
X040870Y052460D02*
Y052420D01*
X040950D01*
Y052460D01*
X040990D01*
Y052540D01*
X040950D01*
Y052580D01*
X040870D01*
Y052540D01*
X040830D01*
Y052460D01*
X040870D01*
X040890Y052480D02*
Y052460D01*
X040930D01*
Y052480D01*
X040950D01*
Y052520D01*
X040930D01*
Y052540D01*
X040890D01*
Y052520D01*
X040870D01*
Y052480D01*
X040890D01*
X040620Y052460D02*
Y052420D01*
X040700D01*
Y052460D01*
X040740D01*
Y052540D01*
X040700D01*
Y052580D01*
X040620D01*
Y052540D01*
X040580D01*
Y052460D01*
X040620D01*
X040640Y052480D02*
Y052460D01*
X040680D01*
Y052480D01*
X040700D01*
Y052520D01*
X040680D01*
Y052540D01*
X040640D01*
Y052520D01*
X040620D01*
Y052480D01*
X040640D01*
X041330Y053430D02*
Y053390D01*
X041410D01*
Y053430D01*
X041450D01*
Y053510D01*
X041410D01*
Y053550D01*
X041330D01*
Y053510D01*
X041290D01*
Y053430D01*
X041330D01*
X041350Y053450D02*
Y053430D01*
X041390D01*
Y053450D01*
X041410D01*
Y053490D01*
X041390D01*
Y053510D01*
X041350D01*
Y053490D01*
X041330D01*
Y053450D01*
X041350D01*
X041100Y053430D02*
Y053390D01*
X041180D01*
Y053430D01*
X041220D01*
Y053510D01*
X041180D01*
Y053550D01*
X041100D01*
Y053510D01*
X041060D01*
Y053430D01*
X041100D01*
X041120Y053450D02*
Y053430D01*
X041160D01*
Y053450D01*
X041180D01*
Y053490D01*
X041160D01*
Y053510D01*
X041120D01*
Y053490D01*
X041100D01*
Y053450D01*
X041120D01*
X040870Y053430D02*
Y053390D01*
X040950D01*
Y053430D01*
X040990D01*
Y053510D01*
X040950D01*
Y053550D01*
X040870D01*
Y053510D01*
X040830D01*
Y053430D01*
X040870D01*
X040890Y053450D02*
Y053430D01*
X040930D01*
Y053450D01*
X040950D01*
Y053490D01*
X040930D01*
Y053510D01*
X040890D01*
Y053490D01*
X040870D01*
Y053450D01*
X040890D01*
X041330Y053110D02*
Y053070D01*
X041410D01*
Y053110D01*
X041450D01*
Y053190D01*
X041410D01*
Y053230D01*
X041330D01*
Y053190D01*
X041290D01*
Y053110D01*
X041330D01*
X041350Y053130D02*
Y053110D01*
X041390D01*
Y053130D01*
X041410D01*
Y053170D01*
X041390D01*
Y053190D01*
X041350D01*
Y053170D01*
X041330D01*
Y053130D01*
X041350D01*
X041100Y053110D02*
Y053070D01*
X041180D01*
Y053110D01*
X041220D01*
Y053190D01*
X041180D01*
Y053230D01*
X041100D01*
Y053190D01*
X041060D01*
Y053110D01*
X041100D01*
X041120Y053130D02*
Y053110D01*
X041160D01*
Y053130D01*
X041180D01*
Y053170D01*
X041160D01*
Y053190D01*
X041120D01*
Y053170D01*
X041100D01*
Y053130D01*
X041120D01*
X040870Y053110D02*
Y053070D01*
X040950D01*
Y053110D01*
X040990D01*
Y053190D01*
X040950D01*
Y053230D01*
X040870D01*
Y053190D01*
X040830D01*
Y053110D01*
X040870D01*
X040890Y053130D02*
Y053110D01*
X040930D01*
Y053130D01*
X040950D01*
Y053170D01*
X040930D01*
Y053190D01*
X040890D01*
Y053170D01*
X040870D01*
Y053130D01*
X040890D01*
X040620Y053110D02*
Y053070D01*
X040700D01*
Y053110D01*
X040740D01*
Y053190D01*
X040700D01*
Y053230D01*
X040620D01*
Y053190D01*
X040580D01*
Y053110D01*
X040620D01*
X040640Y053130D02*
Y053110D01*
X040680D01*
Y053130D01*
X040700D01*
Y053170D01*
X040680D01*
Y053190D01*
X040640D01*
Y053170D01*
X040620D01*
Y053130D01*
X040640D01*
X028430Y027910D02*
Y027870D01*
X028510D01*
Y027910D01*
X028550D01*
Y027990D01*
X028510D01*
Y028030D01*
X028430D01*
Y027990D01*
X028390D01*
Y027910D01*
X028430D01*
X028450Y027930D02*
Y027910D01*
X028490D01*
Y027930D01*
X028510D01*
Y027970D01*
X028490D01*
Y027990D01*
X028450D01*
Y027970D01*
X028430D01*
Y027930D01*
X028450D01*
X028430Y027680D02*
Y027640D01*
X028510D01*
Y027680D01*
X028550D01*
Y027760D01*
X028510D01*
Y027800D01*
X028430D01*
Y027760D01*
X028390D01*
Y027680D01*
X028430D01*
X028450Y027700D02*
Y027680D01*
X028490D01*
Y027700D01*
X028510D01*
Y027740D01*
X028490D01*
Y027760D01*
X028450D01*
Y027740D01*
X028430D01*
Y027700D01*
X028450D01*
X028430Y027450D02*
Y027410D01*
X028510D01*
Y027450D01*
X028550D01*
Y027530D01*
X028510D01*
Y027570D01*
X028430D01*
Y027530D01*
X028390D01*
Y027450D01*
X028430D01*
X028450Y027470D02*
Y027450D01*
X028490D01*
Y027470D01*
X028510D01*
Y027510D01*
X028490D01*
Y027530D01*
X028450D01*
Y027510D01*
X028430D01*
Y027470D01*
X028450D01*
X028430Y027200D02*
Y027160D01*
X028510D01*
Y027200D01*
X028550D01*
Y027280D01*
X028510D01*
Y027320D01*
X028430D01*
Y027280D01*
X028390D01*
Y027200D01*
X028430D01*
X028450Y027220D02*
Y027200D01*
X028490D01*
Y027220D01*
X028510D01*
Y027260D01*
X028490D01*
Y027280D01*
X028450D01*
Y027260D01*
X028430D01*
Y027220D01*
X028450D01*
X028750Y027910D02*
Y027870D01*
X028830D01*
Y027910D01*
X028870D01*
Y027990D01*
X028830D01*
Y028030D01*
X028750D01*
Y027990D01*
X028710D01*
Y027910D01*
X028750D01*
X028770Y027930D02*
Y027910D01*
X028810D01*
Y027930D01*
X028830D01*
Y027970D01*
X028810D01*
Y027990D01*
X028770D01*
Y027970D01*
X028750D01*
Y027930D01*
X028770D01*
X028750Y027680D02*
Y027640D01*
X028830D01*
Y027680D01*
X028870D01*
Y027760D01*
X028830D01*
Y027800D01*
X028750D01*
Y027760D01*
X028710D01*
Y027680D01*
X028750D01*
X028770Y027700D02*
Y027680D01*
X028810D01*
Y027700D01*
X028830D01*
Y027740D01*
X028810D01*
Y027760D01*
X028770D01*
Y027740D01*
X028750D01*
Y027700D01*
X028770D01*
X028750Y027450D02*
Y027410D01*
X028830D01*
Y027450D01*
X028870D01*
Y027530D01*
X028830D01*
Y027570D01*
X028750D01*
Y027530D01*
X028710D01*
Y027450D01*
X028750D01*
X028770Y027470D02*
Y027450D01*
X028810D01*
Y027470D01*
X028830D01*
Y027510D01*
X028810D01*
Y027530D01*
X028770D01*
Y027510D01*
X028750D01*
Y027470D01*
X028770D01*
X028750Y027200D02*
Y027160D01*
X028830D01*
Y027200D01*
X028870D01*
Y027280D01*
X028830D01*
Y027320D01*
X028750D01*
Y027280D01*
X028710D01*
Y027200D01*
X028750D01*
X028770Y027220D02*
Y027200D01*
X028810D01*
Y027220D01*
X028830D01*
Y027260D01*
X028810D01*
Y027280D01*
X028770D01*
Y027260D01*
X028750D01*
Y027220D01*
X028770D01*
X029030Y027910D02*
Y027870D01*
X029110D01*
Y027910D01*
X029150D01*
Y027990D01*
X029110D01*
Y028030D01*
X029030D01*
Y027990D01*
X028990D01*
Y027910D01*
X029030D01*
X029050Y027930D02*
Y027910D01*
X029090D01*
Y027930D01*
X029110D01*
Y027970D01*
X029090D01*
Y027990D01*
X029050D01*
Y027970D01*
X029030D01*
Y027930D01*
X029050D01*
X029030Y027680D02*
Y027640D01*
X029110D01*
Y027680D01*
X029150D01*
Y027760D01*
X029110D01*
Y027800D01*
X029030D01*
Y027760D01*
X028990D01*
Y027680D01*
X029030D01*
X029050Y027700D02*
Y027680D01*
X029090D01*
Y027700D01*
X029110D01*
Y027740D01*
X029090D01*
Y027760D01*
X029050D01*
Y027740D01*
X029030D01*
Y027700D01*
X029050D01*
X029030Y027450D02*
Y027410D01*
X029110D01*
Y027450D01*
X029150D01*
Y027530D01*
X029110D01*
Y027570D01*
X029030D01*
Y027530D01*
X028990D01*
Y027450D01*
X029030D01*
X029050Y027470D02*
Y027450D01*
X029090D01*
Y027470D01*
X029110D01*
Y027510D01*
X029090D01*
Y027530D01*
X029050D01*
Y027510D01*
X029030D01*
Y027470D01*
X029050D01*
X029030Y027200D02*
Y027160D01*
X029110D01*
Y027200D01*
X029150D01*
Y027280D01*
X029110D01*
Y027320D01*
X029030D01*
Y027280D01*
X028990D01*
Y027200D01*
X029030D01*
X029050Y027220D02*
Y027200D01*
X029090D01*
Y027220D01*
X029110D01*
Y027260D01*
X029090D01*
Y027280D01*
X029050D01*
Y027260D01*
X029030D01*
Y027220D01*
X029050D01*
X029350Y027910D02*
Y027870D01*
X029430D01*
Y027910D01*
X029470D01*
Y027990D01*
X029430D01*
Y028030D01*
X029350D01*
Y027990D01*
X029310D01*
Y027910D01*
X029350D01*
X029370Y027930D02*
Y027910D01*
X029410D01*
Y027930D01*
X029430D01*
Y027970D01*
X029410D01*
Y027990D01*
X029370D01*
Y027970D01*
X029350D01*
Y027930D01*
X029370D01*
X029350Y027680D02*
Y027640D01*
X029430D01*
Y027680D01*
X029470D01*
Y027760D01*
X029430D01*
Y027800D01*
X029350D01*
Y027760D01*
X029310D01*
Y027680D01*
X029350D01*
X029370Y027700D02*
Y027680D01*
X029410D01*
Y027700D01*
X029430D01*
Y027740D01*
X029410D01*
Y027760D01*
X029370D01*
Y027740D01*
X029350D01*
Y027700D01*
X029370D01*
X029350Y027450D02*
Y027410D01*
X029430D01*
Y027450D01*
X029470D01*
Y027530D01*
X029430D01*
Y027570D01*
X029350D01*
Y027530D01*
X029310D01*
Y027450D01*
X029350D01*
X029370Y027470D02*
Y027450D01*
X029410D01*
Y027470D01*
X029430D01*
Y027510D01*
X029410D01*
Y027530D01*
X029370D01*
Y027510D01*
X029350D01*
Y027470D01*
X029370D01*
X029350Y027200D02*
Y027160D01*
X029430D01*
Y027200D01*
X029470D01*
Y027280D01*
X029430D01*
Y027320D01*
X029350D01*
Y027280D01*
X029310D01*
Y027200D01*
X029350D01*
X029370Y027220D02*
Y027200D01*
X029410D01*
Y027220D01*
X029430D01*
Y027260D01*
X029410D01*
Y027280D01*
X029370D01*
Y027260D01*
X029350D01*
Y027220D01*
X029370D01*
X035690Y017620D02*
Y017580D01*
X035770D01*
Y017620D01*
X035810D01*
Y017700D01*
X035770D01*
Y017740D01*
X035690D01*
Y017700D01*
X035650D01*
Y017620D01*
X035690D01*
X035710Y017640D02*
Y017620D01*
X035750D01*
Y017640D01*
X035770D01*
Y017680D01*
X035750D01*
Y017700D01*
X035710D01*
Y017680D01*
X035690D01*
Y017640D01*
X035710D01*
X035410Y017610D02*
Y017570D01*
X035490D01*
Y017610D01*
X035530D01*
Y017690D01*
X035490D01*
Y017730D01*
X035410D01*
Y017690D01*
X035370D01*
Y017610D01*
X035410D01*
X035430Y017630D02*
Y017610D01*
X035470D01*
Y017630D01*
X035490D01*
Y017670D01*
X035470D01*
Y017690D01*
X035430D01*
Y017670D01*
X035410D01*
Y017630D01*
X035430D01*
X035150Y017620D02*
Y017580D01*
X035230D01*
Y017620D01*
X035270D01*
Y017700D01*
X035230D01*
Y017740D01*
X035150D01*
Y017700D01*
X035110D01*
Y017620D01*
X035150D01*
X035170Y017640D02*
Y017620D01*
X035210D01*
Y017640D01*
X035230D01*
Y017680D01*
X035210D01*
Y017700D01*
X035170D01*
Y017680D01*
X035150D01*
Y017640D01*
X035170D01*
X034900Y017610D02*
Y017570D01*
X034980D01*
Y017610D01*
X035020D01*
Y017690D01*
X034980D01*
Y017730D01*
X034900D01*
Y017690D01*
X034860D01*
Y017610D01*
X034900D01*
X034920Y017630D02*
Y017610D01*
X034960D01*
Y017630D01*
X034980D01*
Y017670D01*
X034960D01*
Y017690D01*
X034920D01*
Y017670D01*
X034900D01*
Y017630D01*
X034920D01*
X031740Y016600D02*
Y016560D01*
X031820D01*
Y016600D01*
X031860D01*
Y016680D01*
X031820D01*
Y016720D01*
X031740D01*
Y016680D01*
X031700D01*
Y016600D01*
X031740D01*
X031760Y016620D02*
Y016600D01*
X031800D01*
Y016620D01*
X031820D01*
Y016660D01*
X031800D01*
Y016680D01*
X031760D01*
Y016660D01*
X031740D01*
Y016620D01*
X031760D01*
X032070D02*
Y016580D01*
X032150D01*
Y016620D01*
X032190D01*
Y016700D01*
X032150D01*
Y016740D01*
X032070D01*
Y016700D01*
X032030D01*
Y016620D01*
X032070D01*
X032090Y016640D02*
Y016620D01*
X032130D01*
Y016640D01*
X032150D01*
Y016680D01*
X032130D01*
Y016700D01*
X032090D01*
Y016680D01*
X032070D01*
Y016640D01*
X032090D01*
X030465Y016775D02*
Y016735D01*
X030545D01*
Y016775D01*
X030585D01*
Y016855D01*
X030545D01*
Y016895D01*
X030465D01*
Y016855D01*
X030425D01*
Y016775D01*
X030465D01*
X030485Y016795D02*
Y016775D01*
X030525D01*
Y016795D01*
X030545D01*
Y016835D01*
X030525D01*
Y016855D01*
X030485D01*
Y016835D01*
X030465D01*
Y016795D01*
X030485D01*
X029635Y016805D02*
Y016765D01*
X029715D01*
Y016805D01*
X029755D01*
Y016885D01*
X029715D01*
Y016925D01*
X029635D01*
Y016885D01*
X029595D01*
Y016805D01*
X029635D01*
X029655Y016825D02*
Y016805D01*
X029695D01*
Y016825D01*
X029715D01*
Y016865D01*
X029695D01*
Y016885D01*
X029655D01*
Y016865D01*
X029635D01*
Y016825D01*
X029655D01*
X042730Y050840D02*
Y050800D01*
X042810D01*
Y050840D01*
X042850D01*
Y050920D01*
X042810D01*
Y050960D01*
X042730D01*
Y050920D01*
X042690D01*
Y050840D01*
X042730D01*
X042750Y050860D02*
Y050840D01*
X042790D01*
Y050860D01*
X042810D01*
Y050900D01*
X042790D01*
Y050920D01*
X042750D01*
Y050900D01*
X042730D01*
Y050860D01*
X042750D01*
X042730Y051070D02*
Y051030D01*
X042810D01*
Y051070D01*
X042850D01*
Y051150D01*
X042810D01*
Y051190D01*
X042730D01*
Y051150D01*
X042690D01*
Y051070D01*
X042730D01*
X042750Y051090D02*
Y051070D01*
X042790D01*
Y051090D01*
X042810D01*
Y051130D01*
X042790D01*
Y051150D01*
X042750D01*
Y051130D01*
X042730D01*
Y051090D01*
X042750D01*
X042730Y051300D02*
Y051260D01*
X042810D01*
Y051300D01*
X042850D01*
Y051380D01*
X042810D01*
Y051420D01*
X042730D01*
Y051380D01*
X042690D01*
Y051300D01*
X042730D01*
X042750Y051320D02*
Y051300D01*
X042790D01*
Y051320D01*
X042810D01*
Y051360D01*
X042790D01*
Y051380D01*
X042750D01*
Y051360D01*
X042730D01*
Y051320D01*
X042750D01*
X042510Y051070D02*
Y051030D01*
X042590D01*
Y051070D01*
X042630D01*
Y051150D01*
X042590D01*
Y051190D01*
X042510D01*
Y051150D01*
X042470D01*
Y051070D01*
X042510D01*
X042530Y051090D02*
Y051070D01*
X042570D01*
Y051090D01*
X042590D01*
Y051130D01*
X042570D01*
Y051150D01*
X042530D01*
Y051130D01*
X042510D01*
Y051090D01*
X042530D01*
X042510Y051300D02*
Y051260D01*
X042590D01*
Y051300D01*
X042630D01*
Y051380D01*
X042590D01*
Y051420D01*
X042510D01*
Y051380D01*
X042470D01*
Y051300D01*
X042510D01*
X042530Y051320D02*
Y051300D01*
X042570D01*
Y051320D01*
X042590D01*
Y051360D01*
X042570D01*
Y051380D01*
X042530D01*
Y051360D01*
X042510D01*
Y051320D01*
X042530D01*
X042280Y050590D02*
Y050550D01*
X042360D01*
Y050590D01*
X042400D01*
Y050670D01*
X042360D01*
Y050710D01*
X042280D01*
Y050670D01*
X042240D01*
Y050590D01*
X042280D01*
X042300Y050610D02*
Y050590D01*
X042340D01*
Y050610D01*
X042360D01*
Y050650D01*
X042340D01*
Y050670D01*
X042300D01*
Y050650D01*
X042280D01*
Y050610D01*
X042300D01*
X042280Y050840D02*
Y050800D01*
X042360D01*
Y050840D01*
X042400D01*
Y050920D01*
X042360D01*
Y050960D01*
X042280D01*
Y050920D01*
X042240D01*
Y050840D01*
X042280D01*
X042300Y050860D02*
Y050840D01*
X042340D01*
Y050860D01*
X042360D01*
Y050900D01*
X042340D01*
Y050920D01*
X042300D01*
Y050900D01*
X042280D01*
Y050860D01*
X042300D01*
X042280Y051070D02*
Y051030D01*
X042360D01*
Y051070D01*
X042400D01*
Y051150D01*
X042360D01*
Y051190D01*
X042280D01*
Y051150D01*
X042240D01*
Y051070D01*
X042280D01*
X042300Y051090D02*
Y051070D01*
X042340D01*
Y051090D01*
X042360D01*
Y051130D01*
X042340D01*
Y051150D01*
X042300D01*
Y051130D01*
X042280D01*
Y051090D01*
X042300D01*
X042280Y051300D02*
Y051260D01*
X042360D01*
Y051300D01*
X042400D01*
Y051380D01*
X042360D01*
Y051420D01*
X042280D01*
Y051380D01*
X042240D01*
Y051300D01*
X042280D01*
X042300Y051320D02*
Y051300D01*
X042340D01*
Y051320D01*
X042360D01*
Y051360D01*
X042340D01*
Y051380D01*
X042300D01*
Y051360D01*
X042280D01*
Y051320D01*
X042300D01*
X026860Y044990D02*
Y044950D01*
X026940D01*
Y044990D01*
X026980D01*
Y045070D01*
X026940D01*
Y045110D01*
X026860D01*
Y045070D01*
X026820D01*
Y044990D01*
X026860D01*
X026880Y045010D02*
Y044990D01*
X026920D01*
Y045010D01*
X026940D01*
Y045050D01*
X026920D01*
Y045070D01*
X026880D01*
Y045050D01*
X026860D01*
Y045010D01*
X026880D01*
X027110Y044990D02*
Y044950D01*
X027190D01*
Y044990D01*
X027230D01*
Y045070D01*
X027190D01*
Y045110D01*
X027110D01*
Y045070D01*
X027070D01*
Y044990D01*
X027110D01*
X027130Y045010D02*
Y044990D01*
X027170D01*
Y045010D01*
X027190D01*
Y045050D01*
X027170D01*
Y045070D01*
X027130D01*
Y045050D01*
X027110D01*
Y045010D01*
X027130D01*
X027340Y044990D02*
Y044950D01*
X027420D01*
Y044990D01*
X027460D01*
Y045070D01*
X027420D01*
Y045110D01*
X027340D01*
Y045070D01*
X027300D01*
Y044990D01*
X027340D01*
X027360Y045010D02*
Y044990D01*
X027400D01*
Y045010D01*
X027420D01*
Y045050D01*
X027400D01*
Y045070D01*
X027360D01*
Y045050D01*
X027340D01*
Y045010D01*
X027360D01*
X027570Y044990D02*
Y044950D01*
X027650D01*
Y044990D01*
X027690D01*
Y045070D01*
X027650D01*
Y045110D01*
X027570D01*
Y045070D01*
X027530D01*
Y044990D01*
X027570D01*
X027590Y045010D02*
Y044990D01*
X027630D01*
Y045010D01*
X027650D01*
Y045050D01*
X027630D01*
Y045070D01*
X027590D01*
Y045050D01*
X027570D01*
Y045010D01*
X027590D01*
X027580Y045350D02*
Y045310D01*
X027660D01*
Y045350D01*
X027700D01*
Y045430D01*
X027660D01*
Y045470D01*
X027580D01*
Y045430D01*
X027540D01*
Y045350D01*
X027580D01*
X027600Y045370D02*
Y045350D01*
X027640D01*
Y045370D01*
X027660D01*
Y045410D01*
X027640D01*
Y045430D01*
X027600D01*
Y045410D01*
X027580D01*
Y045370D01*
X027600D01*
X027350Y045350D02*
Y045310D01*
X027430D01*
Y045350D01*
X027470D01*
Y045430D01*
X027430D01*
Y045470D01*
X027350D01*
Y045430D01*
X027310D01*
Y045350D01*
X027350D01*
X027370Y045370D02*
Y045350D01*
X027410D01*
Y045370D01*
X027430D01*
Y045410D01*
X027410D01*
Y045430D01*
X027370D01*
Y045410D01*
X027350D01*
Y045370D01*
X027370D01*
X027120Y045350D02*
Y045310D01*
X027200D01*
Y045350D01*
X027240D01*
Y045430D01*
X027200D01*
Y045470D01*
X027120D01*
Y045430D01*
X027080D01*
Y045350D01*
X027120D01*
X027140Y045370D02*
Y045350D01*
X027180D01*
Y045370D01*
X027200D01*
Y045410D01*
X027180D01*
Y045430D01*
X027140D01*
Y045410D01*
X027120D01*
Y045370D01*
X027140D01*
X026870Y045350D02*
Y045310D01*
X026950D01*
Y045350D01*
X026990D01*
Y045430D01*
X026950D01*
Y045470D01*
X026870D01*
Y045430D01*
X026830D01*
Y045350D01*
X026870D01*
X026890Y045370D02*
Y045350D01*
X026930D01*
Y045370D01*
X026950D01*
Y045410D01*
X026930D01*
Y045430D01*
X026890D01*
Y045410D01*
X026870D01*
Y045370D01*
X026890D01*
X027220Y046110D02*
Y046070D01*
X027300D01*
Y046110D01*
X027340D01*
Y046190D01*
X027300D01*
Y046230D01*
X027220D01*
Y046190D01*
X027180D01*
Y046110D01*
X027220D01*
X027240Y046130D02*
Y046110D01*
X027280D01*
Y046130D01*
X027300D01*
Y046170D01*
X027280D01*
Y046190D01*
X027240D01*
Y046170D01*
X027220D01*
Y046130D01*
X027240D01*
X028160Y046060D02*
Y046020D01*
X028240D01*
Y046060D01*
X028280D01*
Y046140D01*
X028240D01*
Y046180D01*
X028160D01*
Y046140D01*
X028120D01*
Y046060D01*
X028160D01*
X028180Y046080D02*
Y046060D01*
X028220D01*
Y046080D01*
X028240D01*
Y046120D01*
X028220D01*
Y046140D01*
X028180D01*
Y046120D01*
X028160D01*
Y046080D01*
X028180D01*
X026210Y044020D02*
Y043980D01*
X026290D01*
Y044020D01*
X026330D01*
Y044100D01*
X026290D01*
Y044140D01*
X026210D01*
Y044100D01*
X026170D01*
Y044020D01*
X026210D01*
X026230Y044040D02*
Y044020D01*
X026270D01*
Y044040D01*
X026290D01*
Y044080D01*
X026270D01*
Y044100D01*
X026230D01*
Y044080D01*
X026210D01*
Y044040D01*
X026230D01*
X027690Y043610D02*
Y043570D01*
X027770D01*
Y043610D01*
X027810D01*
Y043690D01*
X027770D01*
Y043730D01*
X027690D01*
Y043690D01*
X027650D01*
Y043610D01*
X027690D01*
X027710Y043630D02*
Y043610D01*
X027750D01*
Y043630D01*
X027770D01*
Y043670D01*
X027750D01*
Y043690D01*
X027710D01*
Y043670D01*
X027690D01*
Y043630D01*
X027710D01*
X027485Y051975D02*
Y051935D01*
X027565D01*
Y051975D01*
X027605D01*
Y052055D01*
X027565D01*
Y052095D01*
X027485D01*
Y052055D01*
X027445D01*
Y051975D01*
X027485D01*
X027505Y051995D02*
Y051975D01*
X027545D01*
Y051995D01*
X027565D01*
Y052035D01*
X027545D01*
Y052055D01*
X027505D01*
Y052035D01*
X027485D01*
Y051995D01*
X027505D01*
X027085Y051965D02*
Y051925D01*
X027165D01*
Y051965D01*
X027205D01*
Y052045D01*
X027165D01*
Y052085D01*
X027085D01*
Y052045D01*
X027045D01*
Y051965D01*
X027085D01*
X027105Y051985D02*
Y051965D01*
X027145D01*
Y051985D01*
X027165D01*
Y052025D01*
X027145D01*
Y052045D01*
X027105D01*
Y052025D01*
X027085D01*
Y051985D01*
X027105D01*
X024140Y046010D02*
Y045970D01*
X024220D01*
Y046010D01*
X024260D01*
Y046090D01*
X024220D01*
Y046130D01*
X024140D01*
Y046090D01*
X024100D01*
Y046010D01*
X024140D01*
X024160Y046030D02*
Y046010D01*
X024200D01*
Y046030D01*
X024220D01*
Y046070D01*
X024200D01*
Y046090D01*
X024160D01*
Y046070D01*
X024140D01*
Y046030D01*
X024160D01*
X024140Y046990D02*
Y046950D01*
X024220D01*
Y046990D01*
X024260D01*
Y047070D01*
X024220D01*
Y047110D01*
X024140D01*
Y047070D01*
X024100D01*
Y046990D01*
X024140D01*
X024160Y047010D02*
Y046990D01*
X024200D01*
Y047010D01*
X024220D01*
Y047050D01*
X024200D01*
Y047070D01*
X024160D01*
Y047050D01*
X024140D01*
Y047010D01*
X024160D01*
X023520Y052600D02*
Y052560D01*
X023600D01*
Y052600D01*
X023640D01*
Y052680D01*
X023600D01*
Y052720D01*
X023520D01*
Y052680D01*
X023480D01*
Y052600D01*
X023520D01*
X023540Y052620D02*
Y052600D01*
X023580D01*
Y052620D01*
X023600D01*
Y052660D01*
X023580D01*
Y052680D01*
X023540D01*
Y052660D01*
X023520D01*
Y052620D01*
X023540D01*
X024594Y052604D02*
Y052564D01*
X024674D01*
Y052604D01*
X024714D01*
Y052684D01*
X024674D01*
Y052724D01*
X024594D01*
Y052684D01*
X024554D01*
Y052604D01*
X024594D01*
X024614Y052624D02*
Y052604D01*
X024654D01*
Y052624D01*
X024674D01*
Y052664D01*
X024654D01*
Y052684D01*
X024614D01*
Y052664D01*
X024594D01*
Y052624D01*
X024614D01*
X024606Y053004D02*
Y052964D01*
X024686D01*
Y053004D01*
X024726D01*
Y053084D01*
X024686D01*
Y053124D01*
X024606D01*
Y053084D01*
X024566D01*
Y053004D01*
X024606D01*
X024626Y053024D02*
Y053004D01*
X024666D01*
Y053024D01*
X024686D01*
Y053064D01*
X024666D01*
Y053084D01*
X024626D01*
Y053064D01*
X024606D01*
Y053024D01*
X024626D01*
X023644Y053004D02*
Y052964D01*
X023724D01*
Y053004D01*
X023764D01*
Y053084D01*
X023724D01*
Y053124D01*
X023644D01*
Y053084D01*
X023604D01*
Y053004D01*
X023644D01*
X023664Y053024D02*
Y053004D01*
X023704D01*
Y053024D01*
X023724D01*
Y053064D01*
X023704D01*
Y053084D01*
X023664D01*
Y053064D01*
X023644D01*
Y053024D01*
X023664D01*
X026300Y048520D02*
Y048480D01*
X026380D01*
Y048520D01*
X026420D01*
Y048600D01*
X026380D01*
Y048640D01*
X026300D01*
Y048600D01*
X026260D01*
Y048520D01*
X026300D01*
X026320Y048540D02*
Y048520D01*
X026360D01*
Y048540D01*
X026380D01*
Y048580D01*
X026360D01*
Y048600D01*
X026320D01*
Y048580D01*
X026300D01*
Y048540D01*
X026320D01*
X026100Y048680D02*
Y048640D01*
X026180D01*
Y048680D01*
X026220D01*
Y048760D01*
X026180D01*
Y048800D01*
X026100D01*
Y048760D01*
X026060D01*
Y048680D01*
X026100D01*
X026120Y048700D02*
Y048680D01*
X026160D01*
Y048700D01*
X026180D01*
Y048740D01*
X026160D01*
Y048760D01*
X026120D01*
Y048740D01*
X026100D01*
Y048700D01*
X026120D01*
X025085Y052555D02*
Y052515D01*
X025165D01*
Y052555D01*
X025205D01*
Y052635D01*
X025165D01*
Y052675D01*
X025085D01*
Y052635D01*
X025045D01*
Y052555D01*
X025085D01*
X025105Y052575D02*
Y052555D01*
X025145D01*
Y052575D01*
X025165D01*
Y052615D01*
X025145D01*
Y052635D01*
X025105D01*
Y052615D01*
X025085D01*
Y052575D01*
X025105D01*
X025535Y052565D02*
Y052525D01*
X025615D01*
Y052565D01*
X025655D01*
Y052645D01*
X025615D01*
Y052685D01*
X025535D01*
Y052645D01*
X025495D01*
Y052565D01*
X025535D01*
X025555Y052585D02*
Y052565D01*
X025595D01*
Y052585D01*
X025615D01*
Y052625D01*
X025595D01*
Y052645D01*
X025555D01*
Y052625D01*
X025535D01*
Y052585D01*
X025555D01*
X025435Y048535D02*
Y048495D01*
X025515D01*
Y048535D01*
X025555D01*
Y048615D01*
X025515D01*
Y048655D01*
X025435D01*
Y048615D01*
X025395D01*
Y048535D01*
X025435D01*
X025455Y048555D02*
Y048535D01*
X025495D01*
Y048555D01*
X025515D01*
Y048595D01*
X025495D01*
Y048615D01*
X025455D01*
Y048595D01*
X025435D01*
Y048555D01*
X025455D01*
X023840Y049730D02*
Y049690D01*
X023920D01*
Y049730D01*
X023960D01*
Y049810D01*
X023920D01*
Y049850D01*
X023840D01*
Y049810D01*
X023800D01*
Y049730D01*
X023840D01*
X023860Y049750D02*
Y049730D01*
X023900D01*
Y049750D01*
X023920D01*
Y049790D01*
X023900D01*
Y049810D01*
X023860D01*
Y049790D01*
X023840D01*
Y049750D01*
X023860D01*
X023150Y049510D02*
Y049470D01*
X023230D01*
Y049510D01*
X023270D01*
Y049590D01*
X023230D01*
Y049630D01*
X023150D01*
Y049590D01*
X023110D01*
Y049510D01*
X023150D01*
X023170Y049530D02*
Y049510D01*
X023210D01*
Y049530D01*
X023230D01*
Y049570D01*
X023210D01*
Y049590D01*
X023170D01*
Y049570D01*
X023150D01*
Y049530D01*
X023170D01*
X028170Y026480D02*
Y026440D01*
X028250D01*
Y026480D01*
X028290D01*
Y026560D01*
X028250D01*
Y026600D01*
X028170D01*
Y026560D01*
X028130D01*
Y026480D01*
X028170D01*
X028190Y026500D02*
Y026480D01*
X028230D01*
Y026500D01*
X028250D01*
Y026540D01*
X028230D01*
Y026560D01*
X028190D01*
Y026540D01*
X028170D01*
Y026500D01*
X028190D01*
X028200Y025730D02*
Y025690D01*
X028280D01*
Y025730D01*
X028320D01*
Y025810D01*
X028280D01*
Y025850D01*
X028200D01*
Y025810D01*
X028160D01*
Y025730D01*
X028200D01*
X028220Y025750D02*
Y025730D01*
X028260D01*
Y025750D01*
X028280D01*
Y025790D01*
X028260D01*
Y025810D01*
X028220D01*
Y025790D01*
X028200D01*
Y025750D01*
X028220D01*
X028110Y025010D02*
Y024970D01*
X028190D01*
Y025010D01*
X028230D01*
Y025090D01*
X028190D01*
Y025130D01*
X028110D01*
Y025090D01*
X028070D01*
Y025010D01*
X028110D01*
X028130Y025030D02*
Y025010D01*
X028170D01*
Y025030D01*
X028190D01*
Y025070D01*
X028170D01*
Y025090D01*
X028130D01*
Y025070D01*
X028110D01*
Y025030D01*
X028130D01*
X028120Y024640D02*
Y024600D01*
X028200D01*
Y024640D01*
X028240D01*
Y024720D01*
X028200D01*
Y024760D01*
X028120D01*
Y024720D01*
X028080D01*
Y024640D01*
X028120D01*
X028140Y024660D02*
Y024640D01*
X028180D01*
Y024660D01*
X028200D01*
Y024700D01*
X028180D01*
Y024720D01*
X028140D01*
Y024700D01*
X028120D01*
Y024660D01*
X028140D01*
X027260Y043250D02*
Y043210D01*
X027340D01*
Y043250D01*
X027380D01*
Y043330D01*
X027340D01*
Y043370D01*
X027260D01*
Y043330D01*
X027220D01*
Y043250D01*
X027260D01*
X027280Y043270D02*
Y043250D01*
X027320D01*
Y043270D01*
X027340D01*
Y043310D01*
X027320D01*
Y043330D01*
X027280D01*
Y043310D01*
X027260D01*
Y043270D01*
X027280D01*
X027040Y043250D02*
Y043210D01*
X027120D01*
Y043250D01*
X027160D01*
Y043330D01*
X027120D01*
Y043370D01*
X027040D01*
Y043330D01*
X027000D01*
Y043250D01*
X027040D01*
X027060Y043270D02*
Y043250D01*
X027100D01*
Y043270D01*
X027120D01*
Y043310D01*
X027100D01*
Y043330D01*
X027060D01*
Y043310D01*
X027040D01*
Y043270D01*
X027060D01*
X027260Y043450D02*
Y043410D01*
X027340D01*
Y043450D01*
X027380D01*
Y043530D01*
X027340D01*
Y043570D01*
X027260D01*
Y043530D01*
X027220D01*
Y043450D01*
X027260D01*
X027280Y043470D02*
Y043450D01*
X027320D01*
Y043470D01*
X027340D01*
Y043510D01*
X027320D01*
Y043530D01*
X027280D01*
Y043510D01*
X027260D01*
Y043470D01*
X027280D01*
X027040Y043450D02*
Y043410D01*
X027120D01*
Y043450D01*
X027160D01*
Y043530D01*
X027120D01*
Y043570D01*
X027040D01*
Y043530D01*
X027000D01*
Y043450D01*
X027040D01*
X027060Y043470D02*
Y043450D01*
X027100D01*
Y043470D01*
X027120D01*
Y043510D01*
X027100D01*
Y043530D01*
X027060D01*
Y043510D01*
X027040D01*
Y043470D01*
X027060D01*
X027040Y043660D02*
Y043620D01*
X027120D01*
Y043660D01*
X027160D01*
Y043740D01*
X027120D01*
Y043780D01*
X027040D01*
Y043740D01*
X027000D01*
Y043660D01*
X027040D01*
X027060Y043680D02*
Y043660D01*
X027100D01*
Y043680D01*
X027120D01*
Y043720D01*
X027100D01*
Y043740D01*
X027060D01*
Y043720D01*
X027040D01*
Y043680D01*
X027060D01*
X027260Y043660D02*
Y043620D01*
X027340D01*
Y043660D01*
X027380D01*
Y043740D01*
X027340D01*
Y043780D01*
X027260D01*
Y043740D01*
X027220D01*
Y043660D01*
X027260D01*
X027280Y043680D02*
Y043660D01*
X027320D01*
Y043680D01*
X027340D01*
Y043720D01*
X027320D01*
Y043740D01*
X027280D01*
Y043720D01*
X027260D01*
Y043680D01*
X027280D01*
X024480Y051190D02*
Y051150D01*
X024560D01*
Y051190D01*
X024600D01*
Y051270D01*
X024560D01*
Y051310D01*
X024480D01*
Y051270D01*
X024440D01*
Y051190D01*
X024480D01*
X024500Y051210D02*
Y051190D01*
X024540D01*
Y051210D01*
X024560D01*
Y051250D01*
X024540D01*
Y051270D01*
X024500D01*
Y051250D01*
X024480D01*
Y051210D01*
X024500D01*
X024657Y048449D02*
Y048409D01*
X024737D01*
Y048449D01*
X024777D01*
Y048529D01*
X024737D01*
Y048569D01*
X024657D01*
Y048529D01*
X024617D01*
Y048449D01*
X024657D01*
X024677Y048469D02*
Y048449D01*
X024717D01*
Y048469D01*
X024737D01*
Y048509D01*
X024717D01*
Y048529D01*
X024677D01*
Y048509D01*
X024657D01*
Y048469D01*
X024677D01*
X024220Y049810D02*
Y049770D01*
X024300D01*
Y049810D01*
X024340D01*
Y049890D01*
X024300D01*
Y049930D01*
X024220D01*
Y049890D01*
X024180D01*
Y049810D01*
X024220D01*
X024240Y049830D02*
Y049810D01*
X024280D01*
Y049830D01*
X024300D01*
Y049870D01*
X024280D01*
Y049890D01*
X024240D01*
Y049870D01*
X024220D01*
Y049830D01*
X024240D01*
X024640Y047620D02*
Y047580D01*
X024720D01*
Y047620D01*
X024760D01*
Y047700D01*
X024720D01*
Y047740D01*
X024640D01*
Y047700D01*
X024600D01*
Y047620D01*
X024640D01*
X024660Y047640D02*
Y047620D01*
X024700D01*
Y047640D01*
X024720D01*
Y047680D01*
X024700D01*
Y047700D01*
X024660D01*
Y047680D01*
X024640D01*
Y047640D01*
X024660D01*
X025030Y047630D02*
Y047590D01*
X025110D01*
Y047630D01*
X025150D01*
Y047710D01*
X025110D01*
Y047750D01*
X025030D01*
Y047710D01*
X024990D01*
Y047630D01*
X025030D01*
X025050Y047650D02*
Y047630D01*
X025090D01*
Y047650D01*
X025110D01*
Y047690D01*
X025090D01*
Y047710D01*
X025050D01*
Y047690D01*
X025030D01*
Y047650D01*
X025050D01*
X025430Y047620D02*
Y047580D01*
X025510D01*
Y047620D01*
X025550D01*
Y047700D01*
X025510D01*
Y047740D01*
X025430D01*
Y047700D01*
X025390D01*
Y047620D01*
X025430D01*
X025450Y047640D02*
Y047620D01*
X025490D01*
Y047640D01*
X025510D01*
Y047680D01*
X025490D01*
Y047700D01*
X025450D01*
Y047680D01*
X025430D01*
Y047640D01*
X025450D01*
X025840D02*
Y047600D01*
X025920D01*
Y047640D01*
X025960D01*
Y047720D01*
X025920D01*
Y047760D01*
X025840D01*
Y047720D01*
X025800D01*
Y047640D01*
X025840D01*
X025860Y047660D02*
Y047640D01*
X025900D01*
Y047660D01*
X025920D01*
Y047700D01*
X025900D01*
Y047720D01*
X025860D01*
Y047700D01*
X025840D01*
Y047660D01*
X025860D01*
X027920Y047020D02*
Y046980D01*
X028000D01*
Y047020D01*
X028040D01*
Y047100D01*
X028000D01*
Y047140D01*
X027920D01*
Y047100D01*
X027880D01*
Y047020D01*
X027920D01*
X027940Y047040D02*
Y047020D01*
X027980D01*
Y047040D01*
X028000D01*
Y047080D01*
X027980D01*
Y047100D01*
X027940D01*
Y047080D01*
X027920D01*
Y047040D01*
X027940D01*
X025630Y047000D02*
Y046960D01*
X025710D01*
Y047000D01*
X025750D01*
Y047080D01*
X025710D01*
Y047120D01*
X025630D01*
Y047080D01*
X025590D01*
Y047000D01*
X025630D01*
X025650Y047020D02*
Y047000D01*
X025690D01*
Y047020D01*
X025710D01*
Y047060D01*
X025690D01*
Y047080D01*
X025650D01*
Y047060D01*
X025630D01*
Y047020D01*
X025650D01*
X027400Y048070D02*
Y048030D01*
X027480D01*
Y048070D01*
X027520D01*
Y048150D01*
X027480D01*
Y048190D01*
X027400D01*
Y048150D01*
X027360D01*
Y048070D01*
X027400D01*
X027420Y048090D02*
Y048070D01*
X027460D01*
Y048090D01*
X027480D01*
Y048130D01*
X027460D01*
Y048150D01*
X027420D01*
Y048130D01*
X027400D01*
Y048090D01*
X027420D01*
X028640Y048670D02*
Y048630D01*
X028720D01*
Y048670D01*
X028760D01*
Y048750D01*
X028720D01*
Y048790D01*
X028640D01*
Y048750D01*
X028600D01*
Y048670D01*
X028640D01*
X028660Y048690D02*
Y048670D01*
X028700D01*
Y048690D01*
X028720D01*
Y048730D01*
X028700D01*
Y048750D01*
X028660D01*
Y048730D01*
X028640D01*
Y048690D01*
X028660D01*
X028650Y050260D02*
Y050220D01*
X028730D01*
Y050260D01*
X028770D01*
Y050340D01*
X028730D01*
Y050380D01*
X028650D01*
Y050340D01*
X028610D01*
Y050260D01*
X028650D01*
X028670Y050280D02*
Y050260D01*
X028710D01*
Y050280D01*
X028730D01*
Y050320D01*
X028710D01*
Y050340D01*
X028670D01*
Y050320D01*
X028650D01*
Y050280D01*
X028670D01*
X036616Y043439D02*
Y043399D01*
X036696D01*
Y043439D01*
X036736D01*
Y043519D01*
X036696D01*
Y043559D01*
X036616D01*
Y043519D01*
X036576D01*
Y043439D01*
X036616D01*
X036636Y043459D02*
Y043439D01*
X036676D01*
Y043459D01*
X036696D01*
Y043499D01*
X036676D01*
Y043519D01*
X036636D01*
Y043499D01*
X036616D01*
Y043459D01*
X036636D01*
X022170Y034620D02*
Y034580D01*
X022250D01*
Y034620D01*
X022290D01*
Y034700D01*
X022250D01*
Y034740D01*
X022170D01*
Y034700D01*
X022130D01*
Y034620D01*
X022170D01*
X022190Y034640D02*
Y034620D01*
X022230D01*
Y034640D01*
X022250D01*
Y034680D01*
X022230D01*
Y034700D01*
X022190D01*
Y034680D01*
X022170D01*
Y034640D01*
X022190D01*
X021870Y034610D02*
Y034570D01*
X021950D01*
Y034610D01*
X021990D01*
Y034690D01*
X021950D01*
Y034730D01*
X021870D01*
Y034690D01*
X021830D01*
Y034610D01*
X021870D01*
X021890Y034630D02*
Y034610D01*
X021930D01*
Y034630D01*
X021950D01*
Y034670D01*
X021930D01*
Y034690D01*
X021890D01*
Y034670D01*
X021870D01*
Y034630D01*
X021890D01*
X021580D02*
Y034590D01*
X021660D01*
Y034630D01*
X021700D01*
Y034710D01*
X021660D01*
Y034750D01*
X021580D01*
Y034710D01*
X021540D01*
Y034630D01*
X021580D01*
X021600Y034650D02*
Y034630D01*
X021640D01*
Y034650D01*
X021660D01*
Y034690D01*
X021640D01*
Y034710D01*
X021600D01*
Y034690D01*
X021580D01*
Y034650D01*
X021600D01*
X022100Y033790D02*
Y033750D01*
X022180D01*
Y033790D01*
X022220D01*
Y033870D01*
X022180D01*
Y033910D01*
X022100D01*
Y033870D01*
X022060D01*
Y033790D01*
X022100D01*
X022120Y033810D02*
Y033790D01*
X022160D01*
Y033810D01*
X022180D01*
Y033850D01*
X022160D01*
Y033870D01*
X022120D01*
Y033850D01*
X022100D01*
Y033810D01*
X022120D01*
X023668Y017765D02*
Y017725D01*
X023748D01*
Y017765D01*
X023788D01*
Y017845D01*
X023748D01*
Y017885D01*
X023668D01*
Y017845D01*
X023628D01*
Y017765D01*
X023668D01*
X023688Y017785D02*
Y017765D01*
X023728D01*
Y017785D01*
X023748D01*
Y017825D01*
X023728D01*
Y017845D01*
X023688D01*
Y017825D01*
X023668D01*
Y017785D01*
X023688D01*
X021360Y017630D02*
Y017590D01*
X021440D01*
Y017630D01*
X021480D01*
Y017710D01*
X021440D01*
Y017750D01*
X021360D01*
Y017710D01*
X021320D01*
Y017630D01*
X021360D01*
X021380Y017650D02*
Y017630D01*
X021420D01*
Y017650D01*
X021440D01*
Y017690D01*
X021420D01*
Y017710D01*
X021380D01*
Y017690D01*
X021360D01*
Y017650D01*
X021380D01*
X033600Y021620D02*
Y021580D01*
X033680D01*
Y021620D01*
X033720D01*
Y021700D01*
X033680D01*
Y021740D01*
X033600D01*
Y021700D01*
X033560D01*
Y021620D01*
X033600D01*
X033620Y021640D02*
Y021620D01*
X033660D01*
Y021640D01*
X033680D01*
Y021680D01*
X033660D01*
Y021700D01*
X033620D01*
Y021680D01*
X033600D01*
Y021640D01*
X033620D01*
X033270Y021610D02*
Y021570D01*
X033350D01*
Y021610D01*
X033390D01*
Y021690D01*
X033350D01*
Y021730D01*
X033270D01*
Y021690D01*
X033230D01*
Y021610D01*
X033270D01*
X033290Y021630D02*
Y021610D01*
X033330D01*
Y021630D01*
X033350D01*
Y021670D01*
X033330D01*
Y021690D01*
X033290D01*
Y021670D01*
X033270D01*
Y021630D01*
X033290D01*
X032910Y021620D02*
Y021580D01*
X032990D01*
Y021620D01*
X033030D01*
Y021700D01*
X032990D01*
Y021740D01*
X032910D01*
Y021700D01*
X032870D01*
Y021620D01*
X032910D01*
X032930Y021640D02*
Y021620D01*
X032970D01*
Y021640D01*
X032990D01*
Y021680D01*
X032970D01*
Y021700D01*
X032930D01*
Y021680D01*
X032910D01*
Y021640D01*
X032930D01*
X033600Y021950D02*
Y021910D01*
X033680D01*
Y021950D01*
X033720D01*
Y022030D01*
X033680D01*
Y022070D01*
X033600D01*
Y022030D01*
X033560D01*
Y021950D01*
X033600D01*
X033620Y021970D02*
Y021950D01*
X033660D01*
Y021970D01*
X033680D01*
Y022010D01*
X033660D01*
Y022030D01*
X033620D01*
Y022010D01*
X033600D01*
Y021970D01*
X033620D01*
X033270Y021950D02*
Y021910D01*
X033350D01*
Y021950D01*
X033390D01*
Y022030D01*
X033350D01*
Y022070D01*
X033270D01*
Y022030D01*
X033230D01*
Y021950D01*
X033270D01*
X033290Y021970D02*
Y021950D01*
X033330D01*
Y021970D01*
X033350D01*
Y022010D01*
X033330D01*
Y022030D01*
X033290D01*
Y022010D01*
X033270D01*
Y021970D01*
X033290D01*
X032910Y021950D02*
Y021910D01*
X032990D01*
Y021950D01*
X033030D01*
Y022030D01*
X032990D01*
Y022070D01*
X032910D01*
Y022030D01*
X032870D01*
Y021950D01*
X032910D01*
X032930Y021970D02*
Y021950D01*
X032970D01*
Y021970D01*
X032990D01*
Y022010D01*
X032970D01*
Y022030D01*
X032930D01*
Y022010D01*
X032910D01*
Y021970D01*
X032930D01*
X033450Y019400D02*
Y019360D01*
X033530D01*
Y019400D01*
X033570D01*
Y019480D01*
X033530D01*
Y019520D01*
X033450D01*
Y019480D01*
X033410D01*
Y019400D01*
X033450D01*
X033470Y019420D02*
Y019400D01*
X033510D01*
Y019420D01*
X033530D01*
Y019460D01*
X033510D01*
Y019480D01*
X033470D01*
Y019460D01*
X033450D01*
Y019420D01*
X033470D01*
X031940Y020330D02*
Y020290D01*
X032020D01*
Y020330D01*
X032060D01*
Y020410D01*
X032020D01*
Y020450D01*
X031940D01*
Y020410D01*
X031900D01*
Y020330D01*
X031940D01*
X031960Y020350D02*
Y020330D01*
X032000D01*
Y020350D01*
X032020D01*
Y020390D01*
X032000D01*
Y020410D01*
X031960D01*
Y020390D01*
X031940D01*
Y020350D01*
X031960D01*
X041030Y017770D02*
Y017730D01*
X041110D01*
Y017770D01*
X041150D01*
Y017850D01*
X041110D01*
Y017890D01*
X041030D01*
Y017850D01*
X040990D01*
Y017770D01*
X041030D01*
X041050Y017790D02*
Y017770D01*
X041090D01*
Y017790D01*
X041110D01*
Y017830D01*
X041090D01*
Y017850D01*
X041050D01*
Y017830D01*
X041030D01*
Y017790D01*
X041050D01*
X043470Y017410D02*
Y017370D01*
X043550D01*
Y017410D01*
X043590D01*
Y017490D01*
X043550D01*
Y017530D01*
X043470D01*
Y017490D01*
X043430D01*
Y017410D01*
X043470D01*
X043490Y017430D02*
Y017410D01*
X043530D01*
Y017430D01*
X043550D01*
Y017470D01*
X043530D01*
Y017490D01*
X043490D01*
Y017470D01*
X043470D01*
Y017430D01*
X043490D01*
X042810Y017410D02*
Y017370D01*
X042890D01*
Y017410D01*
X042930D01*
Y017490D01*
X042890D01*
Y017530D01*
X042810D01*
Y017490D01*
X042770D01*
Y017410D01*
X042810D01*
X042830Y017430D02*
Y017410D01*
X042870D01*
Y017430D01*
X042890D01*
Y017470D01*
X042870D01*
Y017490D01*
X042830D01*
Y017470D01*
X042810D01*
Y017430D01*
X042830D01*
X041060Y019380D02*
Y019340D01*
X041140D01*
Y019380D01*
X041180D01*
Y019460D01*
X041140D01*
Y019500D01*
X041060D01*
Y019460D01*
X041020D01*
Y019380D01*
X041060D01*
X041080Y019400D02*
Y019380D01*
X041120D01*
Y019400D01*
X041140D01*
Y019440D01*
X041120D01*
Y019460D01*
X041080D01*
Y019440D01*
X041060D01*
Y019400D01*
X041080D01*
X043510Y019270D02*
Y019230D01*
X043590D01*
Y019270D01*
X043630D01*
Y019350D01*
X043590D01*
Y019390D01*
X043510D01*
Y019350D01*
X043470D01*
Y019270D01*
X043510D01*
X043530Y019290D02*
Y019270D01*
X043570D01*
Y019290D01*
X043590D01*
Y019330D01*
X043570D01*
Y019350D01*
X043530D01*
Y019330D01*
X043510D01*
Y019290D01*
X043530D01*
X033460Y020830D02*
Y020790D01*
X033540D01*
Y020830D01*
X033580D01*
Y020910D01*
X033540D01*
Y020950D01*
X033460D01*
Y020910D01*
X033420D01*
Y020830D01*
X033460D01*
X033480Y020850D02*
Y020830D01*
X033520D01*
Y020850D01*
X033540D01*
Y020890D01*
X033520D01*
Y020910D01*
X033480D01*
Y020890D01*
X033460D01*
Y020850D01*
X033480D01*
X034670Y020310D02*
Y020270D01*
X034750D01*
Y020310D01*
X034790D01*
Y020390D01*
X034750D01*
Y020430D01*
X034670D01*
Y020390D01*
X034630D01*
Y020310D01*
X034670D01*
X034690Y020330D02*
Y020310D01*
X034730D01*
Y020330D01*
X034750D01*
Y020370D01*
X034730D01*
Y020390D01*
X034690D01*
Y020370D01*
X034670D01*
Y020330D01*
X034690D01*
X034080Y023710D02*
Y023670D01*
X034160D01*
Y023710D01*
X034200D01*
Y023790D01*
X034160D01*
Y023830D01*
X034080D01*
Y023790D01*
X034040D01*
Y023710D01*
X034080D01*
X034100Y023730D02*
Y023710D01*
X034140D01*
Y023730D01*
X034160D01*
Y023770D01*
X034140D01*
Y023790D01*
X034100D01*
Y023770D01*
X034080D01*
Y023730D01*
X034100D01*
X033710Y023710D02*
Y023670D01*
X033790D01*
Y023710D01*
X033830D01*
Y023790D01*
X033790D01*
Y023830D01*
X033710D01*
Y023790D01*
X033670D01*
Y023710D01*
X033710D01*
X033730Y023730D02*
Y023710D01*
X033770D01*
Y023730D01*
X033790D01*
Y023770D01*
X033770D01*
Y023790D01*
X033730D01*
Y023770D01*
X033710D01*
Y023730D01*
X033730D01*
X033300Y023690D02*
Y023650D01*
X033380D01*
Y023690D01*
X033420D01*
Y023770D01*
X033380D01*
Y023810D01*
X033300D01*
Y023770D01*
X033260D01*
Y023690D01*
X033300D01*
X033320Y023710D02*
Y023690D01*
X033360D01*
Y023710D01*
X033380D01*
Y023750D01*
X033360D01*
Y023770D01*
X033320D01*
Y023750D01*
X033300D01*
Y023710D01*
X033320D01*
X033070Y022700D02*
Y022660D01*
X033150D01*
Y022700D01*
X033190D01*
Y022780D01*
X033150D01*
Y022820D01*
X033070D01*
Y022780D01*
X033030D01*
Y022700D01*
X033070D01*
X033090Y022720D02*
Y022700D01*
X033130D01*
Y022720D01*
X033150D01*
Y022760D01*
X033130D01*
Y022780D01*
X033090D01*
Y022760D01*
X033070D01*
Y022720D01*
X033090D01*
X049510Y043030D02*
Y042990D01*
X049590D01*
Y043030D01*
X049630D01*
Y043110D01*
X049590D01*
Y043150D01*
X049510D01*
Y043110D01*
X049470D01*
Y043030D01*
X049510D01*
X049530Y043050D02*
Y043030D01*
X049570D01*
Y043050D01*
X049590D01*
Y043090D01*
X049570D01*
Y043110D01*
X049530D01*
Y043090D01*
X049510D01*
Y043050D01*
X049530D01*
X049830Y043580D02*
Y043540D01*
X049910D01*
Y043580D01*
X049950D01*
Y043660D01*
X049910D01*
Y043700D01*
X049830D01*
Y043660D01*
X049790D01*
Y043580D01*
X049830D01*
X049850Y043600D02*
Y043580D01*
X049890D01*
Y043600D01*
X049910D01*
Y043640D01*
X049890D01*
Y043660D01*
X049850D01*
Y043640D01*
X049830D01*
Y043600D01*
X049850D01*
X049840Y044180D02*
Y044140D01*
X049920D01*
Y044180D01*
X049960D01*
Y044260D01*
X049920D01*
Y044300D01*
X049840D01*
Y044260D01*
X049800D01*
Y044180D01*
X049840D01*
X049860Y044200D02*
Y044180D01*
X049900D01*
Y044200D01*
X049920D01*
Y044240D01*
X049900D01*
Y044260D01*
X049860D01*
Y044240D01*
X049840D01*
Y044200D01*
X049860D01*
X017350Y043370D02*
Y043330D01*
X017430D01*
Y043370D01*
X017470D01*
Y043450D01*
X017430D01*
Y043490D01*
X017350D01*
Y043450D01*
X017310D01*
Y043370D01*
X017350D01*
X017370Y043390D02*
Y043370D01*
X017410D01*
Y043390D01*
X017430D01*
Y043430D01*
X017410D01*
Y043450D01*
X017370D01*
Y043430D01*
X017350D01*
Y043390D01*
X017370D01*
X021020Y041060D02*
Y041020D01*
X021100D01*
Y041060D01*
X021140D01*
Y041140D01*
X021100D01*
Y041180D01*
X021020D01*
Y041140D01*
X020980D01*
Y041060D01*
X021020D01*
X021040Y041080D02*
Y041060D01*
X021080D01*
Y041080D01*
X021100D01*
Y041120D01*
X021080D01*
Y041140D01*
X021040D01*
Y041120D01*
X021020D01*
Y041080D01*
X021040D01*
X021010Y041980D02*
Y041940D01*
X021090D01*
Y041980D01*
X021130D01*
Y042060D01*
X021090D01*
Y042100D01*
X021010D01*
Y042060D01*
X020970D01*
Y041980D01*
X021010D01*
X021030Y042000D02*
Y041980D01*
X021070D01*
Y042000D01*
X021090D01*
Y042040D01*
X021070D01*
Y042060D01*
X021030D01*
Y042040D01*
X021010D01*
Y042000D01*
X021030D01*
X024770Y043170D02*
Y043130D01*
X024850D01*
Y043170D01*
X024890D01*
Y043250D01*
X024850D01*
Y043290D01*
X024770D01*
Y043250D01*
X024730D01*
Y043170D01*
X024770D01*
X024790Y043190D02*
Y043170D01*
X024830D01*
Y043190D01*
X024850D01*
Y043230D01*
X024830D01*
Y043250D01*
X024790D01*
Y043230D01*
X024770D01*
Y043190D01*
X024790D01*
Y042230D02*
Y042190D01*
X024870D01*
Y042230D01*
X024910D01*
Y042310D01*
X024870D01*
Y042350D01*
X024790D01*
Y042310D01*
X024750D01*
Y042230D01*
X024790D01*
X024810Y042250D02*
Y042230D01*
X024850D01*
Y042250D01*
X024870D01*
Y042290D01*
X024850D01*
Y042310D01*
X024810D01*
Y042290D01*
X024790D01*
Y042250D01*
X024810D01*
X023770Y040640D02*
Y040600D01*
X023850D01*
Y040640D01*
X023890D01*
Y040720D01*
X023850D01*
Y040760D01*
X023770D01*
Y040720D01*
X023730D01*
Y040640D01*
X023770D01*
X023790Y040660D02*
Y040640D01*
X023830D01*
Y040660D01*
X023850D01*
Y040700D01*
X023830D01*
Y040720D01*
X023790D01*
Y040700D01*
X023770D01*
Y040660D01*
X023790D01*
X021580Y040610D02*
Y040570D01*
X021660D01*
Y040610D01*
X021700D01*
Y040690D01*
X021660D01*
Y040730D01*
X021580D01*
Y040690D01*
X021540D01*
Y040610D01*
X021580D01*
X021600Y040630D02*
Y040610D01*
X021640D01*
Y040630D01*
X021660D01*
Y040670D01*
X021640D01*
Y040690D01*
X021600D01*
Y040670D01*
X021580D01*
Y040630D01*
X021600D01*
X018020Y041290D02*
Y041250D01*
X018100D01*
Y041290D01*
X018140D01*
Y041370D01*
X018100D01*
Y041410D01*
X018020D01*
Y041370D01*
X017980D01*
Y041290D01*
X018020D01*
X018040Y041310D02*
Y041290D01*
X018080D01*
Y041310D01*
X018100D01*
Y041350D01*
X018080D01*
Y041370D01*
X018040D01*
Y041350D01*
X018020D01*
Y041310D01*
X018040D01*
X017970Y041680D02*
Y041640D01*
X018050D01*
Y041680D01*
X018090D01*
Y041760D01*
X018050D01*
Y041800D01*
X017970D01*
Y041760D01*
X017930D01*
Y041680D01*
X017970D01*
X017990Y041700D02*
Y041680D01*
X018030D01*
Y041700D01*
X018050D01*
Y041740D01*
X018030D01*
Y041760D01*
X017990D01*
Y041740D01*
X017970D01*
Y041700D01*
X017990D01*
X018200Y042870D02*
Y042830D01*
X018280D01*
Y042870D01*
X018320D01*
Y042950D01*
X018280D01*
Y042990D01*
X018200D01*
Y042950D01*
X018160D01*
Y042870D01*
X018200D01*
X018220Y042890D02*
Y042870D01*
X018260D01*
Y042890D01*
X018280D01*
Y042930D01*
X018260D01*
Y042950D01*
X018220D01*
Y042930D01*
X018200D01*
Y042890D01*
X018220D01*
X017370Y044120D02*
Y044080D01*
X017450D01*
Y044120D01*
X017490D01*
Y044200D01*
X017450D01*
Y044240D01*
X017370D01*
Y044200D01*
X017330D01*
Y044120D01*
X017370D01*
X017390Y044140D02*
Y044120D01*
X017430D01*
Y044140D01*
X017450D01*
Y044180D01*
X017430D01*
Y044200D01*
X017390D01*
Y044180D01*
X017370D01*
Y044140D01*
X017390D01*
X017360Y041610D02*
Y041570D01*
X017440D01*
Y041610D01*
X017480D01*
Y041690D01*
X017440D01*
Y041730D01*
X017360D01*
Y041690D01*
X017320D01*
Y041610D01*
X017360D01*
X017380Y041630D02*
Y041610D01*
X017420D01*
Y041630D01*
X017440D01*
Y041670D01*
X017420D01*
Y041690D01*
X017380D01*
Y041670D01*
X017360D01*
Y041630D01*
X017380D01*
X017390Y042340D02*
Y042300D01*
X017470D01*
Y042340D01*
X017510D01*
Y042420D01*
X017470D01*
Y042460D01*
X017390D01*
Y042420D01*
X017350D01*
Y042340D01*
X017390D01*
X017410Y042360D02*
Y042340D01*
X017450D01*
Y042360D01*
X017470D01*
Y042400D01*
X017450D01*
Y042420D01*
X017410D01*
Y042400D01*
X017390D01*
Y042360D01*
X017410D01*
X018180Y042530D02*
Y042490D01*
X018260D01*
Y042530D01*
X018300D01*
Y042610D01*
X018260D01*
Y042650D01*
X018180D01*
Y042610D01*
X018140D01*
Y042530D01*
X018180D01*
X018200Y042550D02*
Y042530D01*
X018240D01*
Y042550D01*
X018260D01*
Y042590D01*
X018240D01*
Y042610D01*
X018200D01*
Y042590D01*
X018180D01*
Y042550D01*
X018200D01*
X019190Y042890D02*
Y042850D01*
X019270D01*
Y042890D01*
X019310D01*
Y042970D01*
X019270D01*
Y043010D01*
X019190D01*
Y042970D01*
X019150D01*
Y042890D01*
X019190D01*
X019210Y042910D02*
Y042890D01*
X019250D01*
Y042910D01*
X019270D01*
Y042950D01*
X019250D01*
Y042970D01*
X019210D01*
Y042950D01*
X019190D01*
Y042910D01*
X019210D01*
X020220Y042870D02*
Y042830D01*
X020300D01*
Y042870D01*
X020340D01*
Y042950D01*
X020300D01*
Y042990D01*
X020220D01*
Y042950D01*
X020180D01*
Y042870D01*
X020220D01*
X020240Y042890D02*
Y042870D01*
X020280D01*
Y042890D01*
X020300D01*
Y042930D01*
X020280D01*
Y042950D01*
X020240D01*
Y042930D01*
X020220D01*
Y042890D01*
X020240D01*
X020210Y042520D02*
Y042480D01*
X020290D01*
Y042520D01*
X020330D01*
Y042600D01*
X020290D01*
Y042640D01*
X020210D01*
Y042600D01*
X020170D01*
Y042520D01*
X020210D01*
X020230Y042540D02*
Y042520D01*
X020270D01*
Y042540D01*
X020290D01*
Y042580D01*
X020270D01*
Y042600D01*
X020230D01*
Y042580D01*
X020210D01*
Y042540D01*
X020230D01*
X019110D02*
Y042500D01*
X019190D01*
Y042540D01*
X019230D01*
Y042620D01*
X019190D01*
Y042660D01*
X019110D01*
Y042620D01*
X019070D01*
Y042540D01*
X019110D01*
X019130Y042560D02*
Y042540D01*
X019170D01*
Y042560D01*
X019190D01*
Y042600D01*
X019170D01*
Y042620D01*
X019130D01*
Y042600D01*
X019110D01*
Y042560D01*
X019130D01*
X018150Y040870D02*
Y040830D01*
X018230D01*
Y040870D01*
X018270D01*
Y040950D01*
X018230D01*
Y040990D01*
X018150D01*
Y040950D01*
X018110D01*
Y040870D01*
X018150D01*
X018170Y040890D02*
Y040870D01*
X018210D01*
Y040890D01*
X018230D01*
Y040930D01*
X018210D01*
Y040950D01*
X018170D01*
Y040930D01*
X018150D01*
Y040890D01*
X018170D01*
X019750Y041510D02*
Y041470D01*
X019830D01*
Y041510D01*
X019870D01*
Y041590D01*
X019830D01*
Y041630D01*
X019750D01*
Y041590D01*
X019710D01*
Y041510D01*
X019750D01*
X019770Y041530D02*
Y041510D01*
X019810D01*
Y041530D01*
X019830D01*
Y041570D01*
X019810D01*
Y041590D01*
X019770D01*
Y041570D01*
X019750D01*
Y041530D01*
X019770D01*
X020060Y041520D02*
Y041480D01*
X020140D01*
Y041520D01*
X020180D01*
Y041600D01*
X020140D01*
Y041640D01*
X020060D01*
Y041600D01*
X020020D01*
Y041520D01*
X020060D01*
X020080Y041540D02*
Y041520D01*
X020120D01*
Y041540D01*
X020140D01*
Y041580D01*
X020120D01*
Y041600D01*
X020080D01*
Y041580D01*
X020060D01*
Y041540D01*
X020080D01*
X020070Y041180D02*
Y041140D01*
X020150D01*
Y041180D01*
X020190D01*
Y041260D01*
X020150D01*
Y041300D01*
X020070D01*
Y041260D01*
X020030D01*
Y041180D01*
X020070D01*
X020090Y041200D02*
Y041180D01*
X020130D01*
Y041200D01*
X020150D01*
Y041240D01*
X020130D01*
Y041260D01*
X020090D01*
Y041240D01*
X020070D01*
Y041200D01*
X020090D01*
X019740Y041190D02*
Y041150D01*
X019820D01*
Y041190D01*
X019860D01*
Y041270D01*
X019820D01*
Y041310D01*
X019740D01*
Y041270D01*
X019700D01*
Y041190D01*
X019740D01*
X019760Y041210D02*
Y041190D01*
X019800D01*
Y041210D01*
X019820D01*
Y041250D01*
X019800D01*
Y041270D01*
X019760D01*
Y041250D01*
X019740D01*
Y041210D01*
X019760D01*
X019620Y040330D02*
Y040290D01*
X019700D01*
Y040330D01*
X019740D01*
Y040410D01*
X019700D01*
Y040450D01*
X019620D01*
Y040410D01*
X019580D01*
Y040330D01*
X019620D01*
X019640Y040350D02*
Y040330D01*
X019680D01*
Y040350D01*
X019700D01*
Y040390D01*
X019680D01*
Y040410D01*
X019640D01*
Y040390D01*
X019620D01*
Y040350D01*
X019640D01*
X042550Y049690D02*
Y049650D01*
X042630D01*
Y049690D01*
X042670D01*
Y049770D01*
X042630D01*
Y049810D01*
X042550D01*
Y049770D01*
X042510D01*
Y049690D01*
X042550D01*
X042570Y049710D02*
Y049690D01*
X042610D01*
Y049710D01*
X042630D01*
Y049750D01*
X042610D01*
Y049770D01*
X042570D01*
Y049750D01*
X042550D01*
Y049710D01*
X042570D01*
X043130Y049100D02*
Y049060D01*
X043210D01*
Y049100D01*
X043250D01*
Y049180D01*
X043210D01*
Y049220D01*
X043130D01*
Y049180D01*
X043090D01*
Y049100D01*
X043130D01*
X043150Y049120D02*
Y049100D01*
X043190D01*
Y049120D01*
X043210D01*
Y049160D01*
X043190D01*
Y049180D01*
X043150D01*
Y049160D01*
X043130D01*
Y049120D01*
X043150D01*
X044180Y050870D02*
Y050830D01*
X044260D01*
Y050870D01*
X044300D01*
Y050950D01*
X044260D01*
Y050990D01*
X044180D01*
Y050950D01*
X044140D01*
Y050870D01*
X044180D01*
X044200Y050890D02*
Y050870D01*
X044240D01*
Y050890D01*
X044260D01*
Y050930D01*
X044240D01*
Y050950D01*
X044200D01*
Y050930D01*
X044180D01*
Y050890D01*
X044200D01*
X045950Y050530D02*
Y050663D01*
X046017Y050730D01*
X046083Y050663D01*
Y050530D01*
Y050630D01*
X045950D01*
D242*
X053060Y043360D02*
G03*
X053060Y043360I-000080J000000D01*
G01*
Y042360D02*
G03*
X053060Y042360I-000080J000000D01*
G01*
Y041360D02*
G03*
X053060Y041360I-000080J000000D01*
G01*
X033700Y040600D02*
G03*
X033700Y040600I-000080J000000D01*
G01*
X031700D02*
G03*
X031700Y040600I-000080J000000D01*
G01*
X032700D02*
G03*
X032700Y040600I-000080J000000D01*
G01*
X034700D02*
G03*
X034700Y040600I-000080J000000D01*
G01*
X035700D02*
G03*
X035700Y040600I-000080J000000D01*
G01*
X050680Y018480D02*
G03*
X050680Y018480I-000080J000000D01*
G01*
X051680D02*
G03*
X051680Y018480I-000080J000000D01*
G01*
X030200Y038840D02*
G03*
X030200Y038840I-000080J000000D01*
G01*
X031200D02*
G03*
X031200Y038840I-000080J000000D01*
G01*
X030170Y035840D02*
G03*
X030170Y035840I-000080J000000D01*
G01*
X031170D02*
G03*
X031170Y035840I-000080J000000D01*
G01*
X017426Y048268D02*
G03*
X017426Y048268I-000080J000000D01*
G01*
X018024Y051320D02*
G03*
X018024Y051320I-000080J000000D01*
G01*
Y047304D02*
G03*
X018024Y047304I-000080J000000D01*
G01*
X017426Y052284D02*
G03*
X017426Y052284I-000080J000000D01*
G01*
D243*
X017386Y048268D02*
G03*
X017386Y048268I-000040J000000D01*
G01*
X017984Y051320D02*
G03*
X017984Y051320I-000040J000000D01*
G01*
Y047304D02*
G03*
X017984Y047304I-000040J000000D01*
G01*
X017386Y052284D02*
G03*
X017386Y052284I-000040J000000D01*
G01*
M02*
