G04*
G04 #@! TF.GenerationSoftware,Altium Limited,Altium Designer,21.2.1 (34)*
G04*
G04 Layer_Physical_Order=2*
G04 Layer_Color=32768*
%FSAX24Y24*%
%MOIN*%
G70*
G04*
G04 #@! TF.SameCoordinates,274D9A25-BBB1-47C8-A32C-90C4575193A4*
G04*
G04*
G04 #@! TF.FilePolarity,Negative*
G04*
G01*
G75*
%ADD171C,0.0400*%
%ADD200C,0.0550*%
%ADD206C,0.1000*%
G04:AMPARAMS|DCode=207|XSize=126.929mil|YSize=126.929mil|CornerRadius=0mil|HoleSize=0mil|Usage=FLASHONLY|Rotation=0.000|XOffset=0mil|YOffset=0mil|HoleType=Round|Shape=Relief|Width=20mil|Gap=10mil|Entries=4|*
%AMTHD207*
7,0,0,0.1269,0.1069,0.0200,45*
%
%ADD207THD207*%
%ADD208C,0.0869*%
%ADD209C,0.0633*%
G04:AMPARAMS|DCode=210|XSize=103.307mil|YSize=103.307mil|CornerRadius=0mil|HoleSize=0mil|Usage=FLASHONLY|Rotation=0.000|XOffset=0mil|YOffset=0mil|HoleType=Round|Shape=Relief|Width=20mil|Gap=10mil|Entries=4|*
%AMTHD210*
7,0,0,0.1033,0.0833,0.0200,45*
%
%ADD210THD210*%
%ADD211C,0.0515*%
%ADD212C,0.0377*%
%ADD213C,0.0417*%
%ADD214C,0.0594*%
G04:AMPARAMS|DCode=215|XSize=99.37mil|YSize=99.37mil|CornerRadius=0mil|HoleSize=0mil|Usage=FLASHONLY|Rotation=0.000|XOffset=0mil|YOffset=0mil|HoleType=Round|Shape=Relief|Width=20mil|Gap=10mil|Entries=4|*
%AMTHD215*
7,0,0,0.0994,0.0794,0.0200,45*
%
%ADD215THD215*%
%AMTHOVALD216*
21,1,0.0276,0.0797,0,0,180.0*
1,1,0.0797,0.0138,0.0000*
1,1,0.0797,-0.0138,0.0000*
21,0,0.0276,0.0597,0,0,180.0*
1,0,0.0597,0.0138,0.0000*
1,0,0.0597,-0.0138,0.0000*
4,0,4,0.0067,0.0071,0.0349,0.0352,0.0490,0.0211,0.0209,-0.0071,0.0067,0.0071,0.0*
4,0,4,-0.0209,0.0071,-0.0490,-0.0211,-0.0349,-0.0352,-0.0067,-0.0071,-0.0209,0.0071,0.0*
4,0,4,0.0209,0.0071,0.0490,-0.0211,0.0349,-0.0352,0.0067,-0.0071,0.0209,0.0071,0.0*
4,0,4,-0.0067,0.0071,-0.0349,0.0352,-0.0490,0.0211,-0.0209,-0.0071,-0.0067,0.0071,0.0*
%
%ADD216THOVALD216*%

%AMTHOVALD217*
21,1,0.0856,0.0994,0,0,90.0*
1,1,0.0994,0.0000,-0.0428*
1,1,0.0994,0.0000,0.0428*
21,0,0.0856,0.0794,0,0,90.0*
1,0,0.0794,0.0000,-0.0428*
1,0,0.0794,0.0000,0.0428*
4,0,4,0.0071,-0.0357,0.0422,-0.0709,0.0281,-0.0850,-0.0071,-0.0499,0.0071,-0.0357,0.0*
4,0,4,0.0071,0.0499,-0.0281,0.0850,-0.0422,0.0709,-0.0071,0.0357,0.0071,0.0499,0.0*
4,0,4,0.0071,-0.0499,-0.0281,-0.0850,-0.0422,-0.0709,-0.0071,-0.0357,0.0071,-0.0499,0.0*
4,0,4,0.0071,0.0357,0.0422,0.0709,0.0281,0.0850,-0.0071,0.0499,0.0071,0.0357,0.0*
%
%ADD217THOVALD217*%

%ADD218O,0.1381X0.0594*%
%ADD219O,0.0594X0.1460*%
%ADD220C,0.2562*%
%ADD221C,0.0602*%
G04:AMPARAMS|DCode=222|XSize=95.039mil|YSize=95.039mil|CornerRadius=0mil|HoleSize=0mil|Usage=FLASHONLY|Rotation=0.000|XOffset=0mil|YOffset=0mil|HoleType=Round|Shape=Relief|Width=20mil|Gap=10mil|Entries=4|*
%AMTHD222*
7,0,0,0.0950,0.0750,0.0200,45*
%
%ADD222THD222*%
G04:AMPARAMS|DCode=223|XSize=121.811mil|YSize=121.811mil|CornerRadius=0mil|HoleSize=0mil|Usage=FLASHONLY|Rotation=0.000|XOffset=0mil|YOffset=0mil|HoleType=Round|Shape=Relief|Width=20mil|Gap=10mil|Entries=4|*
%AMTHD223*
7,0,0,0.1218,0.1018,0.0200,45*
%
%ADD223THD223*%
%ADD224C,0.1480*%
%ADD225C,0.0318*%
G36*
X053092Y050658D02*
X053200Y050613D01*
X053296Y050549D01*
X053379Y050466D01*
X053443Y050370D01*
X053488Y050262D01*
X053510Y050148D01*
Y050090D01*
Y050032D01*
X053488Y049918D01*
X053443Y049810D01*
X053379Y049714D01*
X053296Y049631D01*
X053200Y049567D01*
X053092Y049522D01*
X052978Y049500D01*
X052862D01*
X052748Y049522D01*
X052640Y049567D01*
X052544Y049631D01*
X052462Y049714D01*
X052397Y049810D01*
X052352Y049918D01*
X052330Y050032D01*
Y050090D01*
Y050148D01*
X052352Y050262D01*
X052397Y050370D01*
X052462Y050466D01*
X052544Y050549D01*
X052640Y050613D01*
X052748Y050658D01*
X052862Y050680D01*
X052978D01*
X053092Y050658D01*
D02*
G37*
G36*
Y039188D02*
X053200Y039143D01*
X053296Y039079D01*
X053379Y038996D01*
X053443Y038900D01*
X053488Y038792D01*
X053510Y038678D01*
Y038620D01*
Y038562D01*
X053488Y038448D01*
X053443Y038340D01*
X053379Y038244D01*
X053296Y038161D01*
X053200Y038097D01*
X053092Y038052D01*
X052978Y038030D01*
X052862D01*
X052748Y038052D01*
X052640Y038097D01*
X052544Y038161D01*
X052462Y038244D01*
X052397Y038340D01*
X052352Y038448D01*
X052330Y038562D01*
Y038620D01*
Y038678D01*
X052352Y038792D01*
X052397Y038900D01*
X052462Y038996D01*
X052544Y039079D01*
X052640Y039143D01*
X052748Y039188D01*
X052862Y039210D01*
X052978D01*
X053092Y039188D01*
D02*
G37*
G36*
X026060Y021420D02*
X015470D01*
X015520Y030840D01*
X026060D01*
Y021420D01*
D02*
G37*
D171*
X052978Y039210D02*
X053092Y039188D01*
X053200Y039143D01*
X053296Y039079D01*
X053379Y038996D01*
X053443Y038900D01*
X053488Y038792D01*
X053510Y038678D01*
Y038620D02*
Y038678D01*
Y038562D02*
Y038620D01*
X053488Y038448D02*
X053510Y038562D01*
X053443Y038340D02*
X053488Y038448D01*
X053379Y038244D02*
X053443Y038340D01*
X053296Y038161D02*
X053379Y038244D01*
X053200Y038097D02*
X053296Y038161D01*
X053092Y038052D02*
X053200Y038097D01*
X052978Y038030D02*
X053092Y038052D01*
X052862Y038030D02*
X052978D01*
X052748Y038052D02*
X052862Y038030D01*
X052640Y038097D02*
X052748Y038052D01*
X052544Y038161D02*
X052640Y038097D01*
X052462Y038244D02*
X052544Y038161D01*
X052397Y038340D02*
X052462Y038244D01*
X052352Y038448D02*
X052397Y038340D01*
X052330Y038562D02*
X052352Y038448D01*
X052330Y038562D02*
Y038620D01*
Y038678D01*
X052352Y038792D01*
X052397Y038900D01*
X052462Y038996D01*
X052544Y039079D01*
X052640Y039143D01*
X052748Y039188D01*
X052862Y039210D01*
X052978D01*
Y050680D02*
X053092Y050658D01*
X053200Y050613D01*
X053296Y050549D01*
X053379Y050466D01*
X053443Y050370D01*
X053488Y050262D01*
X053510Y050148D01*
Y050090D02*
Y050148D01*
Y050032D02*
Y050090D01*
X053488Y049918D02*
X053510Y050032D01*
X053443Y049810D02*
X053488Y049918D01*
X053379Y049714D02*
X053443Y049810D01*
X053296Y049631D02*
X053379Y049714D01*
X053200Y049567D02*
X053296Y049631D01*
X053092Y049522D02*
X053200Y049567D01*
X052978Y049500D02*
X053092Y049522D01*
X052862Y049500D02*
X052978D01*
X052748Y049522D02*
X052862Y049500D01*
X052640Y049567D02*
X052748Y049522D01*
X052544Y049631D02*
X052640Y049567D01*
X052462Y049714D02*
X052544Y049631D01*
X052397Y049810D02*
X052462Y049714D01*
X052352Y049918D02*
X052397Y049810D01*
X052330Y050032D02*
X052352Y049918D01*
X052330Y050032D02*
Y050090D01*
Y050148D01*
X052352Y050262D01*
X052397Y050370D01*
X052462Y050466D01*
X052544Y050549D01*
X052640Y050613D01*
X052748Y050658D01*
X052862Y050680D01*
X052978D01*
X015354Y015354D02*
Y054724D01*
X054724D01*
Y015354D02*
Y054724D01*
X015354Y015354D02*
X054724D01*
D200*
X021775Y049544D02*
D03*
X022775Y050044D02*
D03*
Y049044D02*
D03*
X021775Y050544D02*
D03*
Y048544D02*
D03*
X022775Y051044D02*
D03*
X021775Y051544D02*
D03*
D206*
X015690Y030830D02*
X025410D01*
X025570Y030990D01*
Y036120D01*
X022680Y039010D02*
X025570Y036120D01*
X015730Y039010D02*
X022680D01*
Y039630D01*
Y045370D01*
X015640D02*
X022680D01*
D207*
X046036Y041024D02*
D03*
X048044D02*
D03*
Y039016D02*
D03*
X046036D02*
D03*
X043174Y051304D02*
D03*
X041166D02*
D03*
Y049296D02*
D03*
X043174D02*
D03*
X044584Y038976D02*
D03*
X042576D02*
D03*
Y040984D02*
D03*
X044584D02*
D03*
D208*
X047040Y040020D02*
D03*
X042170Y050300D02*
D03*
X043580Y039980D02*
D03*
D209*
X052980Y043360D02*
D03*
Y042360D02*
D03*
X033620Y040600D02*
D03*
X031620D02*
D03*
X032620D02*
D03*
X034620D02*
D03*
X050600Y018480D02*
D03*
X051600D02*
D03*
X030120Y038840D02*
D03*
X031120D02*
D03*
D210*
X052980Y041360D02*
D03*
X035620Y040600D02*
D03*
X030090Y035840D02*
D03*
X031090D02*
D03*
D211*
X049380Y039200D02*
D03*
X050380Y038200D02*
D03*
X049380Y037200D02*
D03*
D212*
X052830Y044913D02*
D03*
Y045760D02*
D03*
D213*
X053353Y044903D02*
D03*
X053530Y045336D02*
D03*
X052370Y045586D02*
D03*
X053353Y045769D02*
D03*
X052356Y045103D02*
D03*
D214*
X029560Y053400D02*
D03*
X026560D02*
D03*
X027560D02*
D03*
X030560D02*
D03*
X046225Y019306D02*
D03*
X048225D02*
D03*
D215*
X028560Y053400D02*
D03*
X047225Y019306D02*
D03*
D216*
X015955Y044189D02*
D03*
Y041591D02*
D03*
D217*
X017790Y036720D02*
D03*
D218*
X019030Y034830D02*
D03*
D219*
X020172Y036720D02*
D03*
D220*
X052170Y023440D02*
D03*
Y033283D02*
D03*
X042327D02*
D03*
Y023440D02*
D03*
D221*
X017346Y048268D02*
D03*
X017944Y051320D02*
D03*
Y047304D02*
D03*
X017346Y052284D02*
D03*
D222*
X022775Y048044D02*
D03*
D223*
X020476Y046694D02*
D03*
Y052894D02*
D03*
D224*
X019275Y047544D02*
D03*
Y052044D02*
D03*
D225*
X027630Y017740D02*
D03*
X027210Y017940D02*
D03*
X027420D02*
D03*
Y018150D02*
D03*
X027730Y043240D02*
D03*
Y043440D02*
D03*
X027950Y043240D02*
D03*
Y043650D02*
D03*
Y043440D02*
D03*
X027220Y017740D02*
D03*
X027430D02*
D03*
X039950Y018484D02*
D03*
X029160Y048810D02*
D03*
X029270Y046550D02*
D03*
X028640Y049072D02*
D03*
X023810Y039920D02*
D03*
X040520Y052880D02*
D03*
X040060Y048440D02*
D03*
X030530Y052332D02*
D03*
X028460Y052175D02*
D03*
X034107Y045919D02*
D03*
X038430Y042500D02*
D03*
X031790Y041570D02*
D03*
X037920Y042240D02*
D03*
X037700Y042400D02*
D03*
X030160Y047444D02*
D03*
X030185Y047691D02*
D03*
X038670Y038220D02*
D03*
X030180Y046950D02*
D03*
X040390Y046432D02*
D03*
X040750Y046810D02*
D03*
X032090Y051960D02*
D03*
X034620Y050510D02*
D03*
X035240Y050210D02*
D03*
X037580Y053140D02*
D03*
X039250Y053400D02*
D03*
X039670Y051890D02*
D03*
X034590Y041840D02*
D03*
X032097Y043020D02*
D03*
X037360Y043060D02*
D03*
X038870Y043020D02*
D03*
X038860Y040800D02*
D03*
X038920Y039290D02*
D03*
X039140Y037160D02*
D03*
X040710Y038190D02*
D03*
X041180Y038990D02*
D03*
X040720Y041340D02*
D03*
X041200Y042090D02*
D03*
X037147Y039480D02*
D03*
X037450Y039390D02*
D03*
X037727Y039400D02*
D03*
X037960Y039481D02*
D03*
X030140Y049848D02*
D03*
X033650Y048440D02*
D03*
X033990Y048670D02*
D03*
X034700Y049960D02*
D03*
X034330Y049630D02*
D03*
X035900Y049240D02*
D03*
X029900Y049270D02*
D03*
X035600Y049452D02*
D03*
X029640Y049500D02*
D03*
X027840Y049866D02*
D03*
X037770Y048730D02*
D03*
X036069Y050981D02*
D03*
X031130Y052180D02*
D03*
X035160Y052110D02*
D03*
X035900Y052100D02*
D03*
X030180Y046550D02*
D03*
X029883Y045867D02*
D03*
X028710Y050697D02*
D03*
X028666Y051094D02*
D03*
X027900Y051390D02*
D03*
X029270Y047320D02*
D03*
X029280Y047720D02*
D03*
X037440Y051040D02*
D03*
X037400Y045990D02*
D03*
X032600Y044630D02*
D03*
X050080Y040990D02*
D03*
X050670Y039690D02*
D03*
X051030Y039670D02*
D03*
X052000Y040890D02*
D03*
X052020Y042380D02*
D03*
X040370Y018490D02*
D03*
Y018290D02*
D03*
X040160Y018490D02*
D03*
Y018290D02*
D03*
X041600Y018550D02*
D03*
Y019010D02*
D03*
X041920D02*
D03*
X041600Y018300D02*
D03*
X041920Y018550D02*
D03*
X041600Y018780D02*
D03*
X041920Y018300D02*
D03*
X054240Y046380D02*
D03*
X052400Y047800D02*
D03*
X049030Y045530D02*
D03*
X048010Y043710D02*
D03*
X052080Y048510D02*
D03*
X025700Y041520D02*
D03*
X025300Y042020D02*
D03*
X025450Y053010D02*
D03*
X025700Y053260D02*
D03*
X026700Y052030D02*
D03*
X025053Y051680D02*
D03*
X026569Y051091D02*
D03*
X026150Y051060D02*
D03*
X036770Y042990D02*
D03*
X039950Y018290D02*
D03*
X041920Y018780D02*
D03*
X027620Y018150D02*
D03*
X027210D02*
D03*
X027620Y017940D02*
D03*
X048070Y048660D02*
D03*
X026930Y050890D02*
D03*
X026340Y050830D02*
D03*
X047950Y051450D02*
D03*
Y051200D02*
D03*
X048170D02*
D03*
X045190Y051680D02*
D03*
Y051450D02*
D03*
Y051220D02*
D03*
Y050970D02*
D03*
X045510Y051680D02*
D03*
Y051450D02*
D03*
Y051220D02*
D03*
Y050970D02*
D03*
X044540Y051680D02*
D03*
Y051450D02*
D03*
Y051220D02*
D03*
X044860Y051680D02*
D03*
Y051450D02*
D03*
Y051220D02*
D03*
Y050970D02*
D03*
X028470Y027950D02*
D03*
Y027720D02*
D03*
Y027490D02*
D03*
Y027240D02*
D03*
X028790Y027950D02*
D03*
Y027720D02*
D03*
Y027490D02*
D03*
Y027240D02*
D03*
X029070Y027950D02*
D03*
Y027720D02*
D03*
Y027490D02*
D03*
Y027240D02*
D03*
X029390Y027950D02*
D03*
Y027720D02*
D03*
Y027490D02*
D03*
Y027240D02*
D03*
X051630Y052220D02*
D03*
Y051990D02*
D03*
X051860Y052220D02*
D03*
Y051990D02*
D03*
X051620Y052680D02*
D03*
Y052450D02*
D03*
X051850Y052680D02*
D03*
Y052450D02*
D03*
X052070Y052210D02*
D03*
Y051980D02*
D03*
X052300Y052210D02*
D03*
Y051980D02*
D03*
X052070Y052680D02*
D03*
Y052450D02*
D03*
X052300Y052680D02*
D03*
Y052450D02*
D03*
X048170Y051450D02*
D03*
Y051680D02*
D03*
Y051910D02*
D03*
X047950Y051680D02*
D03*
Y051910D02*
D03*
X047720Y051200D02*
D03*
Y051450D02*
D03*
Y051680D02*
D03*
Y051910D02*
D03*
X027730Y043650D02*
D03*
X027525Y052015D02*
D03*
X027125Y052005D02*
D03*
X024180Y047030D02*
D03*
X023560Y052640D02*
D03*
X023684Y053044D02*
D03*
X026340Y048560D02*
D03*
X026140Y048720D02*
D03*
X025575Y052605D02*
D03*
X025475Y048575D02*
D03*
X023190Y049550D02*
D03*
X027300Y043290D02*
D03*
X027080D02*
D03*
X027300Y043490D02*
D03*
X027080D02*
D03*
Y043700D02*
D03*
X027300D02*
D03*
X024520Y051230D02*
D03*
X024697Y048489D02*
D03*
X024260Y049850D02*
D03*
X024680Y047660D02*
D03*
X028680Y048710D02*
D03*
X036656Y043479D02*
D03*
X049550Y043070D02*
D03*
X017390Y043410D02*
D03*
X021060Y041100D02*
D03*
X021050Y042020D02*
D03*
X024830Y042270D02*
D03*
X018010Y041720D02*
D03*
X018240Y042910D02*
D03*
X020250Y042560D02*
D03*
X019150Y042580D02*
D03*
X018190Y040910D02*
D03*
M02*
