G04*
G04 #@! TF.GenerationSoftware,Altium Limited,Altium Designer,21.2.1 (34)*
G04*
G04 Layer_Color=255*
%FSAX24Y24*%
%MOIN*%
G70*
G04*
G04 #@! TF.SameCoordinates,274D9A25-BBB1-47C8-A32C-90C4575193A4*
G04*
G04*
G04 #@! TF.FilePolarity,Positive*
G04*
G01*
G75*
%ADD184C,0.0866*%
%ADD185R,0.0866X0.0866*%
%ADD186R,0.0630X0.0630*%
%ADD187C,0.0630*%
%ADD188C,0.0591*%
%ADD189R,0.0630X0.0630*%
%ADD190C,0.0276*%
%ADD191C,0.0315*%
%ADD192C,0.0669*%
%ADD193O,0.0630X0.0354*%
%ADD194O,0.0709X0.1575*%
%ADD195O,0.1575X0.0709*%
%ADD196O,0.0709X0.1772*%
%ADD197C,0.3937*%
%ADD198C,0.0787*%
%ADD199C,0.0602*%
%ADD200C,0.0550*%
%ADD201C,0.0927*%
%ADD202C,0.1680*%
D184*
X046036Y041024D02*
D03*
X048044D02*
D03*
Y039016D02*
D03*
X046036D02*
D03*
X043174Y051304D02*
D03*
X041166D02*
D03*
Y049296D02*
D03*
X043174D02*
D03*
X044584Y038976D02*
D03*
X042576D02*
D03*
Y040984D02*
D03*
X044584D02*
D03*
D185*
X047040Y040020D02*
D03*
X042170Y050300D02*
D03*
X043580Y039980D02*
D03*
D186*
X052980Y043360D02*
D03*
D187*
Y042360D02*
D03*
Y041360D02*
D03*
X033620Y040600D02*
D03*
X032620D02*
D03*
X034620D02*
D03*
X035620D02*
D03*
X050600Y018480D02*
D03*
X030120Y038840D02*
D03*
X030090Y035840D02*
D03*
D188*
X049380Y039200D02*
D03*
X050380Y038200D02*
D03*
X049380Y037200D02*
D03*
D189*
X031620Y040600D02*
D03*
X051600Y018480D02*
D03*
X031120Y038840D02*
D03*
X031090Y035840D02*
D03*
D190*
X052830Y044913D02*
D03*
Y045760D02*
D03*
D191*
X053353Y044903D02*
D03*
X053530Y045336D02*
D03*
X052370Y045586D02*
D03*
X053353Y045769D02*
D03*
X052356Y045103D02*
D03*
D192*
X029560Y053400D02*
D03*
X026560D02*
D03*
X027560D02*
D03*
X028560D02*
D03*
X030560D02*
D03*
D193*
X015955Y044189D02*
D03*
Y041591D02*
D03*
D194*
X017790Y036720D02*
D03*
D195*
X019030Y034830D02*
D03*
D196*
X020172Y036720D02*
D03*
D197*
X052170Y023440D02*
D03*
Y033283D02*
D03*
X042327D02*
D03*
Y023440D02*
D03*
D198*
X046225Y019306D02*
D03*
X047225D02*
D03*
X048225D02*
D03*
D199*
X017346Y048268D02*
D03*
X017944Y051320D02*
D03*
Y047304D02*
D03*
X017346Y052284D02*
D03*
D200*
X021775Y049544D02*
D03*
X022775Y050044D02*
D03*
Y049044D02*
D03*
X021775Y050544D02*
D03*
Y048544D02*
D03*
X022775Y051044D02*
D03*
Y048044D02*
D03*
X021775Y051544D02*
D03*
D201*
X020476Y046694D02*
D03*
Y052894D02*
D03*
D202*
X019275Y047544D02*
D03*
Y052044D02*
D03*
M02*
