G04*
G04 #@! TF.GenerationSoftware,Altium Limited,Altium Designer,21.2.1 (34)*
G04*
G04 Layer_Physical_Order=4*
G04 Layer_Color=16711680*
%FSAX24Y24*%
%MOIN*%
G70*
G04*
G04 #@! TF.SameCoordinates,274D9A25-BBB1-47C8-A32C-90C4575193A4*
G04*
G04*
G04 #@! TF.FilePolarity,Positive*
G04*
G01*
G75*
%ADD14C,0.0100*%
%ADD168C,0.0600*%
%ADD169C,0.0300*%
%ADD170C,0.0200*%
%ADD172C,0.0500*%
%ADD184C,0.0866*%
%ADD185R,0.0866X0.0866*%
%ADD186R,0.0630X0.0630*%
%ADD187C,0.0630*%
%ADD188C,0.0591*%
%ADD189R,0.0630X0.0630*%
%ADD190C,0.0276*%
%ADD191C,0.0315*%
%ADD192C,0.0669*%
%ADD193O,0.0630X0.0354*%
%ADD194O,0.0709X0.1575*%
%ADD195O,0.1575X0.0709*%
%ADD196O,0.0709X0.1772*%
%ADD197C,0.3937*%
%ADD198C,0.0787*%
%ADD199C,0.0602*%
%ADD200C,0.0550*%
%ADD201C,0.0927*%
%ADD202C,0.1680*%
%ADD203C,0.0197*%
%ADD204C,0.0260*%
%ADD205C,0.0500*%
G36*
X048479Y052761D02*
X048463Y052737D01*
X048448Y052660D01*
X048463Y052583D01*
X048507Y052517D01*
X048573Y052473D01*
X048650Y052458D01*
X048710Y052470D01*
X048752Y052444D01*
X048760Y052435D01*
Y050250D01*
X048225Y049715D01*
X048175Y049720D01*
X048173Y049723D01*
X048107Y049767D01*
X048030Y049782D01*
X047953Y049767D01*
X047887Y049723D01*
X047843Y049657D01*
X047828Y049580D01*
X047830Y049569D01*
X047798Y049530D01*
X046840D01*
X045770Y048460D01*
X045770Y044573D01*
X045720Y044558D01*
X045694Y044597D01*
X045628Y044641D01*
X045551Y044656D01*
X045473Y044641D01*
X045408Y044597D01*
X045364Y044532D01*
X045349Y044454D01*
X045364Y044377D01*
X045408Y044311D01*
X045473Y044267D01*
X045551Y044252D01*
X045628Y044267D01*
X045694Y044311D01*
X045720Y044350D01*
X045770Y044335D01*
Y041491D01*
X045767Y041490D01*
X045656Y041404D01*
X045570Y041293D01*
X045517Y041163D01*
X045498Y041024D01*
X045517Y040885D01*
X045570Y040755D01*
X045656Y040644D01*
X045767Y040558D01*
X045770Y040557D01*
Y039483D01*
X045767Y039482D01*
X045656Y039396D01*
X045570Y039285D01*
X045517Y039155D01*
X045498Y039016D01*
X045517Y038877D01*
X045570Y038747D01*
X045656Y038636D01*
X045767Y038550D01*
X045770Y038549D01*
X045770Y028320D01*
X043810Y026360D01*
X028650Y026360D01*
X028365Y026645D01*
X028353Y026663D01*
X028335Y026675D01*
X028150Y026860D01*
Y028040D01*
X038070Y037960D01*
X038466D01*
Y037630D01*
X038482Y037552D01*
X038526Y037486D01*
X038996Y037016D01*
X039062Y036972D01*
X039140Y036956D01*
X039218Y036972D01*
X039284Y037016D01*
X039328Y037082D01*
X039344Y037160D01*
X039328Y037238D01*
X039284Y037304D01*
X038874Y037714D01*
Y037960D01*
X039690D01*
X040207Y038477D01*
X040511Y038173D01*
X040523Y038113D01*
X040567Y038047D01*
X040633Y038003D01*
X040710Y037988D01*
X040787Y038003D01*
X040853Y038047D01*
X040897Y038113D01*
X040912Y038190D01*
X040897Y038267D01*
X040853Y038333D01*
X040787Y038377D01*
X040727Y038389D01*
X040423Y038693D01*
X040567Y038837D01*
X041052D01*
X041103Y038803D01*
X041180Y038788D01*
X041257Y038803D01*
X041323Y038847D01*
X041367Y038913D01*
X041382Y038990D01*
X041367Y039067D01*
X041323Y039133D01*
X041257Y039177D01*
X041180Y039192D01*
X041103Y039177D01*
X041052Y039143D01*
X040938D01*
X040919Y039189D01*
X042274Y040544D01*
X042307Y040518D01*
X042437Y040465D01*
X042576Y040446D01*
X042715Y040465D01*
X042845Y040518D01*
X042956Y040604D01*
X043042Y040715D01*
X043095Y040845D01*
X043114Y040984D01*
X043095Y041123D01*
X043042Y041253D01*
X043016Y041286D01*
X043640Y041910D01*
X043640Y045748D01*
X043683Y045777D01*
X043727Y045843D01*
X043742Y045920D01*
X043727Y045997D01*
X043683Y046063D01*
X043640Y046092D01*
Y049028D01*
X043693Y049157D01*
X043712Y049296D01*
X043693Y049435D01*
X043640Y049564D01*
Y051036D01*
X043693Y051165D01*
X043712Y051304D01*
X043693Y051443D01*
X043640Y051572D01*
Y051970D01*
Y052600D01*
X044150Y053110D01*
X048130D01*
X048479Y052761D01*
D02*
G37*
G36*
X049310Y047990D02*
Y039589D01*
X049277Y039585D01*
X049181Y039545D01*
X049098Y039482D01*
X049035Y039399D01*
X048995Y039303D01*
X048981Y039200D01*
X048995Y039097D01*
X049035Y039001D01*
X049098Y038918D01*
X049181Y038855D01*
X049277Y038815D01*
X049310Y038811D01*
Y037589D01*
X049277Y037585D01*
X049181Y037545D01*
X049098Y037482D01*
X049035Y037399D01*
X048995Y037303D01*
X048981Y037200D01*
X048995Y037097D01*
X049035Y037001D01*
X049098Y036918D01*
X049181Y036855D01*
X049277Y036815D01*
X049310Y036811D01*
X049310Y016610D01*
X048490Y015790D01*
X027290D01*
X026350Y016730D01*
Y043560D01*
X026830Y044040D01*
X027540Y044050D01*
X028010D01*
X028245Y043815D01*
X028234Y043798D01*
X028218Y043721D01*
X028234Y043643D01*
X028277Y043577D01*
X028343Y043534D01*
X028390Y043524D01*
Y030260D01*
X027890Y029760D01*
Y026700D01*
X028018Y026572D01*
X028008Y026520D01*
X028023Y026443D01*
X028067Y026377D01*
X028133Y026333D01*
X028210Y026318D01*
X028262Y026328D01*
X028970Y025620D01*
X044710Y025620D01*
X046230Y027140D01*
Y038519D01*
X046305Y038550D01*
X046416Y038636D01*
X046502Y038747D01*
X046555Y038877D01*
X046574Y039016D01*
X046555Y039155D01*
X046502Y039285D01*
X046416Y039396D01*
X046305Y039482D01*
X046230Y039513D01*
Y040527D01*
X046305Y040558D01*
X046416Y040644D01*
X046502Y040755D01*
X046555Y040885D01*
X046574Y041024D01*
X046555Y041163D01*
X046502Y041293D01*
X046416Y041404D01*
X046305Y041490D01*
X046230Y041521D01*
Y043785D01*
X046233Y043787D01*
X046277Y043853D01*
X046292Y043930D01*
X046277Y044007D01*
X046233Y044073D01*
X046230Y044075D01*
Y048520D01*
X046650Y048940D01*
X048360Y048940D01*
X049310Y047990D01*
D02*
G37*
%LPC*%
G36*
X047990Y050502D02*
X047913Y050487D01*
X047847Y050443D01*
X047803Y050377D01*
X047788Y050300D01*
X047803Y050223D01*
X047847Y050157D01*
X047913Y050113D01*
X047990Y050098D01*
X048067Y050113D01*
X048133Y050157D01*
X048177Y050223D01*
X048192Y050300D01*
X048177Y050377D01*
X048133Y050443D01*
X048067Y050487D01*
X047990Y050502D01*
D02*
G37*
G36*
X046140Y049772D02*
X046063Y049757D01*
X045997Y049713D01*
X045953Y049647D01*
X045938Y049570D01*
X045953Y049493D01*
X045997Y049427D01*
X046063Y049383D01*
X046140Y049368D01*
X046217Y049383D01*
X046283Y049427D01*
X046327Y049493D01*
X046342Y049570D01*
X046327Y049647D01*
X046283Y049713D01*
X046217Y049757D01*
X046140Y049772D01*
D02*
G37*
G36*
X045150Y049152D02*
X045073Y049137D01*
X045007Y049093D01*
X044963Y049027D01*
X044948Y048950D01*
X044963Y048873D01*
X045007Y048807D01*
X045073Y048763D01*
X045150Y048748D01*
X045227Y048763D01*
X045293Y048807D01*
X045337Y048873D01*
X045352Y048950D01*
X045337Y049027D01*
X045293Y049093D01*
X045227Y049137D01*
X045150Y049152D01*
D02*
G37*
G36*
X044220Y048222D02*
X044143Y048207D01*
X044077Y048163D01*
X044033Y048097D01*
X044018Y048020D01*
X044033Y047943D01*
X044077Y047877D01*
X044143Y047833D01*
X044220Y047818D01*
X044297Y047833D01*
X044363Y047877D01*
X044407Y047943D01*
X044422Y048020D01*
X044407Y048097D01*
X044363Y048163D01*
X044297Y048207D01*
X044220Y048222D01*
D02*
G37*
G36*
X044290Y045972D02*
X044213Y045957D01*
X044147Y045913D01*
X044103Y045847D01*
X044088Y045770D01*
X044103Y045693D01*
X044147Y045627D01*
X044213Y045583D01*
X044290Y045568D01*
X044367Y045583D01*
X044433Y045627D01*
X044477Y045693D01*
X044492Y045770D01*
X044477Y045847D01*
X044433Y045913D01*
X044367Y045957D01*
X044290Y045972D01*
D02*
G37*
G36*
X044920Y045302D02*
X044843Y045287D01*
X044777Y045243D01*
X044733Y045177D01*
X044718Y045100D01*
X044733Y045023D01*
X044777Y044957D01*
X044843Y044913D01*
X044920Y044898D01*
X044997Y044913D01*
X045063Y044957D01*
X045107Y045023D01*
X045122Y045100D01*
X045107Y045177D01*
X045063Y045243D01*
X044997Y045287D01*
X044920Y045302D01*
D02*
G37*
G36*
X044030Y045242D02*
X043953Y045227D01*
X043887Y045183D01*
X043843Y045117D01*
X043828Y045040D01*
X043843Y044963D01*
X043887Y044897D01*
X043953Y044853D01*
X044030Y044838D01*
X044107Y044853D01*
X044173Y044897D01*
X044217Y044963D01*
X044232Y045040D01*
X044217Y045117D01*
X044173Y045183D01*
X044107Y045227D01*
X044030Y045242D01*
D02*
G37*
G36*
X044760Y044542D02*
X044683Y044527D01*
X044617Y044483D01*
X044573Y044417D01*
X044558Y044340D01*
X044573Y044263D01*
X044617Y044197D01*
X044683Y044153D01*
X044760Y044138D01*
X044837Y044153D01*
X044903Y044197D01*
X044947Y044263D01*
X044962Y044340D01*
X044947Y044417D01*
X044903Y044483D01*
X044837Y044527D01*
X044760Y044542D01*
D02*
G37*
G36*
X045380Y043932D02*
X045303Y043917D01*
X045237Y043873D01*
X045193Y043807D01*
X045178Y043730D01*
X045193Y043653D01*
X045237Y043587D01*
X045303Y043543D01*
X045380Y043528D01*
X045457Y043543D01*
X045523Y043587D01*
X045567Y043653D01*
X045582Y043730D01*
X045567Y043807D01*
X045523Y043873D01*
X045457Y043917D01*
X045380Y043932D01*
D02*
G37*
G36*
X044584Y041522D02*
X044445Y041503D01*
X044315Y041450D01*
X044204Y041364D01*
X044118Y041253D01*
X044065Y041123D01*
X044046Y040984D01*
X044065Y040845D01*
X044118Y040715D01*
X044204Y040604D01*
X044315Y040518D01*
X044445Y040465D01*
X044584Y040446D01*
X044723Y040465D01*
X044853Y040518D01*
X044964Y040604D01*
X045050Y040715D01*
X045103Y040845D01*
X045122Y040984D01*
X045103Y041123D01*
X045050Y041253D01*
X044964Y041364D01*
X044853Y041450D01*
X044723Y041503D01*
X044584Y041522D01*
D02*
G37*
G36*
X044113Y040513D02*
X043047D01*
Y039447D01*
X044113D01*
Y040513D01*
D02*
G37*
G36*
X044584Y039514D02*
X044445Y039495D01*
X044315Y039442D01*
X044204Y039356D01*
X044118Y039245D01*
X044065Y039115D01*
X044046Y038976D01*
X044065Y038837D01*
X044118Y038707D01*
X044204Y038596D01*
X044315Y038510D01*
X044445Y038457D01*
X044584Y038438D01*
X044723Y038457D01*
X044853Y038510D01*
X044964Y038596D01*
X045050Y038707D01*
X045103Y038837D01*
X045122Y038976D01*
X045103Y039115D01*
X045050Y039245D01*
X044964Y039356D01*
X044853Y039442D01*
X044723Y039495D01*
X044584Y039514D01*
D02*
G37*
G36*
X042576D02*
X042437Y039495D01*
X042307Y039442D01*
X042196Y039356D01*
X042110Y039245D01*
X042057Y039115D01*
X042038Y038976D01*
X042057Y038837D01*
X042110Y038707D01*
X042196Y038596D01*
X042307Y038510D01*
X042437Y038457D01*
X042576Y038438D01*
X042715Y038457D01*
X042845Y038510D01*
X042956Y038596D01*
X043042Y038707D01*
X043095Y038837D01*
X043114Y038976D01*
X043095Y039115D01*
X043042Y039245D01*
X042956Y039356D01*
X042845Y039442D01*
X042715Y039495D01*
X042576Y039514D01*
D02*
G37*
G36*
X041200Y037182D02*
X041123Y037167D01*
X041057Y037123D01*
X041013Y037057D01*
X040998Y036980D01*
X041013Y036903D01*
X041057Y036837D01*
X041123Y036793D01*
X041200Y036778D01*
X041277Y036793D01*
X041343Y036837D01*
X041387Y036903D01*
X041402Y036980D01*
X041387Y037057D01*
X041343Y037123D01*
X041277Y037167D01*
X041200Y037182D01*
D02*
G37*
G36*
X042327Y035355D02*
X042057Y035338D01*
X041791Y035285D01*
X041534Y035198D01*
X041291Y035078D01*
X041066Y034927D01*
X040862Y034748D01*
X040683Y034544D01*
X040532Y034319D01*
X040412Y034076D01*
X040325Y033819D01*
X040272Y033553D01*
X040255Y033283D01*
X040272Y033012D01*
X040325Y032746D01*
X040412Y032489D01*
X040532Y032246D01*
X040683Y032021D01*
X040862Y031817D01*
X041066Y031638D01*
X041291Y031487D01*
X041534Y031367D01*
X041791Y031280D01*
X042057Y031227D01*
X042327Y031210D01*
X042598Y031227D01*
X042864Y031280D01*
X043121Y031367D01*
X043364Y031487D01*
X043589Y031638D01*
X043793Y031817D01*
X043972Y032021D01*
X044123Y032246D01*
X044243Y032489D01*
X044330Y032746D01*
X044383Y033012D01*
X044400Y033283D01*
X044383Y033553D01*
X044330Y033819D01*
X044243Y034076D01*
X044123Y034319D01*
X043972Y034544D01*
X043793Y034748D01*
X043589Y034927D01*
X043364Y035078D01*
X043121Y035198D01*
X042864Y035285D01*
X042598Y035338D01*
X042327Y035355D01*
D02*
G37*
G36*
X046710Y048462D02*
X046633Y048447D01*
X046567Y048403D01*
X046523Y048337D01*
X046508Y048260D01*
X046523Y048183D01*
X046567Y048117D01*
X046622Y048080D01*
X046626Y048040D01*
X046623Y048024D01*
X046577Y047993D01*
X046533Y047927D01*
X046518Y047850D01*
X046533Y047773D01*
X046577Y047707D01*
X046643Y047663D01*
X046720Y047648D01*
X046797Y047663D01*
X046863Y047707D01*
X046907Y047773D01*
X046922Y047850D01*
X046907Y047927D01*
X046863Y047993D01*
X046808Y048030D01*
X046804Y048070D01*
X046807Y048086D01*
X046853Y048117D01*
X046897Y048183D01*
X046912Y048260D01*
X046897Y048337D01*
X046853Y048403D01*
X046787Y048447D01*
X046710Y048462D01*
D02*
G37*
G36*
X049030Y047372D02*
X048953Y047357D01*
X048887Y047313D01*
X048843Y047247D01*
X048828Y047170D01*
X048843Y047093D01*
X048887Y047027D01*
X048953Y046983D01*
X049030Y046968D01*
X049107Y046983D01*
X049173Y047027D01*
X049217Y047093D01*
X049232Y047170D01*
X049217Y047247D01*
X049173Y047313D01*
X049107Y047357D01*
X049030Y047372D01*
D02*
G37*
G36*
X047940Y046132D02*
X047863Y046117D01*
X047797Y046073D01*
X047753Y046007D01*
X047738Y045930D01*
X047753Y045853D01*
X047797Y045787D01*
X047863Y045743D01*
X047940Y045728D01*
X048017Y045743D01*
X048083Y045787D01*
X048127Y045853D01*
X048142Y045930D01*
X048127Y046007D01*
X048083Y046073D01*
X048017Y046117D01*
X047940Y046132D01*
D02*
G37*
G36*
X049030Y045732D02*
X048953Y045717D01*
X048887Y045673D01*
X048843Y045607D01*
X048828Y045530D01*
X048843Y045453D01*
X048887Y045387D01*
X048953Y045343D01*
X049030Y045328D01*
X049107Y045343D01*
X049173Y045387D01*
X049217Y045453D01*
X049232Y045530D01*
X049217Y045607D01*
X049173Y045673D01*
X049107Y045717D01*
X049030Y045732D01*
D02*
G37*
G36*
X027300Y043902D02*
X027223Y043887D01*
X027190Y043865D01*
X027157Y043887D01*
X027080Y043902D01*
X027003Y043887D01*
X026937Y043843D01*
X026893Y043777D01*
X026878Y043700D01*
X026893Y043623D01*
X026912Y043595D01*
X026893Y043567D01*
X026878Y043490D01*
X026893Y043413D01*
X026908Y043390D01*
X026893Y043367D01*
X026878Y043290D01*
X026893Y043213D01*
X026937Y043147D01*
X027003Y043103D01*
X027080Y043088D01*
X027157Y043103D01*
X027190Y043125D01*
X027223Y043103D01*
X027300Y043088D01*
X027377Y043103D01*
X027443Y043147D01*
X027487Y043213D01*
X027502Y043290D01*
X027487Y043367D01*
X027472Y043390D01*
X027487Y043413D01*
X027502Y043490D01*
X027487Y043567D01*
X027468Y043595D01*
X027487Y043623D01*
X027502Y043700D01*
X027487Y043777D01*
X027443Y043843D01*
X027377Y043887D01*
X027300Y043902D01*
D02*
G37*
G36*
X048410Y043922D02*
X048333Y043907D01*
X048267Y043863D01*
X048237Y043818D01*
X048180Y043814D01*
X048179Y043814D01*
X048153Y043853D01*
X048087Y043897D01*
X048010Y043912D01*
X047933Y043897D01*
X047867Y043853D01*
X047823Y043787D01*
X047808Y043710D01*
X047823Y043633D01*
X047867Y043567D01*
X047933Y043523D01*
X048010Y043508D01*
X048087Y043523D01*
X048153Y043567D01*
X048183Y043612D01*
X048240Y043616D01*
X048241Y043616D01*
X048267Y043577D01*
X048333Y043533D01*
X048410Y043518D01*
X048487Y043533D01*
X048553Y043577D01*
X048597Y043643D01*
X048612Y043720D01*
X048597Y043797D01*
X048553Y043863D01*
X048487Y043907D01*
X048410Y043922D01*
D02*
G37*
G36*
X047180Y043712D02*
X047103Y043697D01*
X047037Y043653D01*
X046993Y043587D01*
X046978Y043510D01*
X046993Y043433D01*
X047037Y043367D01*
X047103Y043323D01*
X047180Y043308D01*
X047257Y043323D01*
X047323Y043367D01*
X047367Y043433D01*
X047382Y043510D01*
X047367Y043587D01*
X047323Y043653D01*
X047257Y043697D01*
X047180Y043712D01*
D02*
G37*
G36*
X046620Y043642D02*
X046543Y043627D01*
X046477Y043583D01*
X046433Y043517D01*
X046418Y043440D01*
X046433Y043363D01*
X046477Y043297D01*
X046543Y043253D01*
X046620Y043238D01*
X046697Y043253D01*
X046763Y043297D01*
X046807Y043363D01*
X046822Y043440D01*
X046807Y043517D01*
X046763Y043583D01*
X046697Y043627D01*
X046620Y043642D01*
D02*
G37*
G36*
X047820Y043392D02*
X047743Y043377D01*
X047677Y043333D01*
X047633Y043267D01*
X047618Y043190D01*
X047633Y043113D01*
X047677Y043047D01*
X047743Y043003D01*
X047820Y042988D01*
X047897Y043003D01*
X047963Y043047D01*
X048007Y043113D01*
X048022Y043190D01*
X048007Y043267D01*
X047963Y043333D01*
X047897Y043377D01*
X047820Y043392D01*
D02*
G37*
G36*
X046520Y043012D02*
X046443Y042997D01*
X046377Y042953D01*
X046333Y042887D01*
X046318Y042810D01*
X046333Y042733D01*
X046377Y042667D01*
X046443Y042623D01*
X046520Y042608D01*
X046597Y042623D01*
X046663Y042667D01*
X046707Y042733D01*
X046722Y042810D01*
X046707Y042887D01*
X046663Y042953D01*
X046597Y042997D01*
X046520Y043012D01*
D02*
G37*
G36*
X047390Y042602D02*
X047313Y042587D01*
X047247Y042543D01*
X047203Y042477D01*
X047188Y042400D01*
X047203Y042323D01*
X047247Y042257D01*
X047313Y042213D01*
X047390Y042198D01*
X047467Y042213D01*
X047533Y042257D01*
X047577Y042323D01*
X047592Y042400D01*
X047577Y042477D01*
X047533Y042543D01*
X047467Y042587D01*
X047390Y042602D01*
D02*
G37*
G36*
X046520Y042082D02*
X046443Y042067D01*
X046377Y042023D01*
X046333Y041957D01*
X046318Y041880D01*
X046333Y041803D01*
X046377Y041737D01*
X046443Y041693D01*
X046520Y041678D01*
X046597Y041693D01*
X046663Y041737D01*
X046707Y041803D01*
X046722Y041880D01*
X046707Y041957D01*
X046663Y042023D01*
X046597Y042067D01*
X046520Y042082D01*
D02*
G37*
G36*
X047410Y041842D02*
X047333Y041827D01*
X047267Y041783D01*
X047223Y041717D01*
X047208Y041640D01*
X047223Y041563D01*
X047267Y041497D01*
X047333Y041453D01*
X047410Y041438D01*
X047487Y041453D01*
X047553Y041497D01*
X047597Y041563D01*
X047612Y041640D01*
X047597Y041717D01*
X047553Y041783D01*
X047487Y041827D01*
X047410Y041842D01*
D02*
G37*
G36*
X048044Y041562D02*
X047905Y041543D01*
X047775Y041490D01*
X047664Y041404D01*
X047578Y041293D01*
X047525Y041163D01*
X047506Y041024D01*
X047525Y040885D01*
X047578Y040755D01*
X047664Y040644D01*
X047775Y040558D01*
X047905Y040505D01*
X048044Y040486D01*
X048183Y040505D01*
X048313Y040558D01*
X048424Y040644D01*
X048510Y040755D01*
X048563Y040885D01*
X048582Y041024D01*
X048563Y041163D01*
X048510Y041293D01*
X048424Y041404D01*
X048313Y041490D01*
X048183Y041543D01*
X048044Y041562D01*
D02*
G37*
G36*
X047573Y040553D02*
X046507D01*
Y039487D01*
X047573D01*
Y040553D01*
D02*
G37*
G36*
X048044Y039554D02*
X047905Y039535D01*
X047775Y039482D01*
X047664Y039396D01*
X047578Y039285D01*
X047525Y039155D01*
X047506Y039016D01*
X047525Y038877D01*
X047578Y038747D01*
X047664Y038636D01*
X047775Y038550D01*
X047905Y038497D01*
X048044Y038478D01*
X048183Y038497D01*
X048313Y038550D01*
X048424Y038636D01*
X048510Y038747D01*
X048563Y038877D01*
X048582Y039016D01*
X048563Y039155D01*
X048510Y039285D01*
X048424Y039396D01*
X048313Y039482D01*
X048183Y039535D01*
X048044Y039554D01*
D02*
G37*
G36*
X028240Y025972D02*
X028163Y025957D01*
X028097Y025913D01*
X028053Y025847D01*
X028038Y025770D01*
X028053Y025693D01*
X028097Y025627D01*
X028163Y025583D01*
X028240Y025568D01*
X028317Y025583D01*
X028383Y025627D01*
X028427Y025693D01*
X028442Y025770D01*
X028427Y025847D01*
X028383Y025913D01*
X028317Y025957D01*
X028240Y025972D01*
D02*
G37*
G36*
X028150Y025252D02*
X028073Y025237D01*
X028007Y025193D01*
X027963Y025127D01*
X027948Y025050D01*
X027963Y024973D01*
X028007Y024907D01*
X028030Y024892D01*
Y024832D01*
X028017Y024823D01*
X027973Y024757D01*
X027958Y024680D01*
X027973Y024603D01*
X028017Y024537D01*
X028083Y024493D01*
X028160Y024478D01*
X028237Y024493D01*
X028303Y024537D01*
X028347Y024603D01*
X028362Y024680D01*
X028347Y024757D01*
X028303Y024823D01*
X028280Y024838D01*
Y024898D01*
X028293Y024907D01*
X028337Y024973D01*
X028352Y025050D01*
X028337Y025127D01*
X028293Y025193D01*
X028227Y025237D01*
X028150Y025252D01*
D02*
G37*
G36*
X034120Y023952D02*
X034043Y023937D01*
X033977Y023893D01*
X033960Y023868D01*
X033910D01*
X033893Y023893D01*
X033827Y023937D01*
X033750Y023952D01*
X033673Y023937D01*
X033607Y023893D01*
X033568Y023835D01*
X033534Y023828D01*
X033512Y023829D01*
X033483Y023873D01*
X033417Y023917D01*
X033340Y023932D01*
X033263Y023917D01*
X033197Y023873D01*
X033153Y023807D01*
X033138Y023730D01*
X033153Y023653D01*
X033197Y023587D01*
X033263Y023543D01*
X033340Y023528D01*
X033417Y023543D01*
X033483Y023587D01*
X033522Y023645D01*
X033556Y023652D01*
X033578Y023651D01*
X033607Y023607D01*
X033673Y023563D01*
X033750Y023548D01*
X033827Y023563D01*
X033893Y023607D01*
X033910Y023632D01*
X033960D01*
X033977Y023607D01*
X034043Y023563D01*
X034120Y023548D01*
X034197Y023563D01*
X034263Y023607D01*
X034307Y023673D01*
X034322Y023750D01*
X034307Y023827D01*
X034263Y023893D01*
X034197Y023937D01*
X034120Y023952D01*
D02*
G37*
G36*
X033110Y022942D02*
X033033Y022927D01*
X032967Y022883D01*
X032923Y022817D01*
X032908Y022740D01*
X032923Y022663D01*
X032967Y022597D01*
X033033Y022553D01*
X033110Y022538D01*
X033187Y022553D01*
X033253Y022597D01*
X033297Y022663D01*
X033312Y022740D01*
X033297Y022817D01*
X033253Y022883D01*
X033187Y022927D01*
X033110Y022942D01*
D02*
G37*
G36*
X033640Y022192D02*
X033563Y022177D01*
X033497Y022133D01*
X033453D01*
X033387Y022177D01*
X033310Y022192D01*
X033233Y022177D01*
X033167Y022133D01*
X033155Y022115D01*
X033105D01*
X033093Y022133D01*
X033027Y022177D01*
X032950Y022192D01*
X032873Y022177D01*
X032807Y022133D01*
X032763Y022067D01*
X032748Y021990D01*
X032763Y021913D01*
X032807Y021847D01*
Y021803D01*
X032763Y021737D01*
X032748Y021660D01*
X032763Y021583D01*
X032807Y021517D01*
X032873Y021473D01*
X032950Y021458D01*
X033027Y021473D01*
X033093Y021517D01*
X033102Y021530D01*
X033152D01*
X033167Y021507D01*
X033233Y021463D01*
X033310Y021448D01*
X033387Y021463D01*
X033453Y021507D01*
X033513Y021506D01*
X033563Y021473D01*
X033640Y021458D01*
X033717Y021473D01*
X033783Y021517D01*
X033827Y021583D01*
X033842Y021660D01*
X033827Y021737D01*
X033791Y021792D01*
X033786Y021825D01*
X033791Y021858D01*
X033827Y021913D01*
X033842Y021990D01*
X033827Y022067D01*
X033783Y022133D01*
X033717Y022177D01*
X033640Y022192D01*
D02*
G37*
G36*
X042327Y025513D02*
X042057Y025495D01*
X041791Y025442D01*
X041534Y025355D01*
X041291Y025235D01*
X041066Y025085D01*
X040862Y024906D01*
X040683Y024702D01*
X040532Y024476D01*
X040412Y024233D01*
X040325Y023977D01*
X040272Y023711D01*
X040255Y023440D01*
X040272Y023169D01*
X040325Y022903D01*
X040412Y022647D01*
X040532Y022404D01*
X040683Y022178D01*
X040862Y021974D01*
X041066Y021795D01*
X041291Y021645D01*
X041534Y021525D01*
X041791Y021438D01*
X042057Y021385D01*
X042327Y021367D01*
X042598Y021385D01*
X042864Y021438D01*
X043121Y021525D01*
X043364Y021645D01*
X043589Y021795D01*
X043793Y021974D01*
X043972Y022178D01*
X044123Y022404D01*
X044243Y022647D01*
X044330Y022903D01*
X044383Y023169D01*
X044400Y023440D01*
X044383Y023711D01*
X044330Y023977D01*
X044243Y024233D01*
X044123Y024476D01*
X043972Y024702D01*
X043793Y024906D01*
X043589Y025085D01*
X043364Y025235D01*
X043121Y025355D01*
X042864Y025442D01*
X042598Y025495D01*
X042327Y025513D01*
D02*
G37*
G36*
X033500Y021072D02*
X033423Y021057D01*
X033357Y021013D01*
X033313Y020947D01*
X033298Y020870D01*
X033313Y020793D01*
X033357Y020727D01*
X033423Y020683D01*
X033500Y020668D01*
X033577Y020683D01*
X033643Y020727D01*
X033687Y020793D01*
X033702Y020870D01*
X033687Y020947D01*
X033643Y021013D01*
X033577Y021057D01*
X033500Y021072D01*
D02*
G37*
G36*
X037620Y020652D02*
X037543Y020637D01*
X037477Y020593D01*
X037433Y020527D01*
X037418Y020450D01*
X037433Y020373D01*
X037477Y020307D01*
X037543Y020263D01*
X037620Y020248D01*
X037697Y020263D01*
X037763Y020307D01*
X037807Y020373D01*
X037822Y020450D01*
X037807Y020527D01*
X037763Y020593D01*
X037697Y020637D01*
X037620Y020652D01*
D02*
G37*
G36*
X036870Y020642D02*
X036793Y020627D01*
X036727Y020583D01*
X036683Y020517D01*
X036668Y020440D01*
X036683Y020363D01*
X036727Y020297D01*
X036793Y020253D01*
X036870Y020238D01*
X036947Y020253D01*
X037013Y020297D01*
X037057Y020363D01*
X037072Y020440D01*
X037057Y020517D01*
X037013Y020583D01*
X036947Y020627D01*
X036870Y020642D01*
D02*
G37*
G36*
X031980Y020572D02*
X031903Y020557D01*
X031837Y020513D01*
X031793Y020447D01*
X031778Y020370D01*
X031793Y020293D01*
X031837Y020227D01*
X031903Y020183D01*
X031980Y020168D01*
X032057Y020183D01*
X032123Y020227D01*
X032167Y020293D01*
X032182Y020370D01*
X032167Y020447D01*
X032123Y020513D01*
X032057Y020557D01*
X031980Y020572D01*
D02*
G37*
G36*
X034710Y020552D02*
X034633Y020537D01*
X034567Y020493D01*
X034523Y020427D01*
X034508Y020350D01*
X034523Y020273D01*
X034567Y020207D01*
X034633Y020163D01*
X034710Y020148D01*
X034787Y020163D01*
X034853Y020207D01*
X034897Y020273D01*
X034912Y020350D01*
X034897Y020427D01*
X034853Y020493D01*
X034787Y020537D01*
X034710Y020552D01*
D02*
G37*
G36*
X047225Y019804D02*
X047096Y019787D01*
X046976Y019737D01*
X046873Y019658D01*
X046794Y019555D01*
X046752Y019454D01*
X046698D01*
X046656Y019555D01*
X046577Y019658D01*
X046474Y019737D01*
X046354Y019787D01*
X046225Y019804D01*
X046096Y019787D01*
X045976Y019737D01*
X045873Y019658D01*
X045794Y019555D01*
X045744Y019435D01*
X045727Y019306D01*
X045744Y019177D01*
X045794Y019057D01*
X045873Y018954D01*
X045976Y018875D01*
X046096Y018825D01*
X046225Y018808D01*
X046354Y018825D01*
X046474Y018875D01*
X046577Y018954D01*
X046656Y019057D01*
X046698Y019158D01*
X046752D01*
X046794Y019057D01*
X046873Y018954D01*
X046976Y018875D01*
X047096Y018825D01*
X047225Y018808D01*
X047354Y018825D01*
X047474Y018875D01*
X047577Y018954D01*
X047656Y019057D01*
X047698Y019158D01*
X047752D01*
X047794Y019057D01*
X047873Y018954D01*
X047976Y018875D01*
X048096Y018825D01*
X048125Y018821D01*
Y019306D01*
Y019791D01*
X048096Y019787D01*
X047976Y019737D01*
X047873Y019658D01*
X047794Y019555D01*
X047752Y019454D01*
X047698D01*
X047656Y019555D01*
X047577Y019658D01*
X047474Y019737D01*
X047354Y019787D01*
X047225Y019804D01*
D02*
G37*
G36*
X048325Y019791D02*
Y019406D01*
X048710D01*
X048706Y019435D01*
X048656Y019555D01*
X048577Y019658D01*
X048474Y019737D01*
X048354Y019787D01*
X048325Y019791D01*
D02*
G37*
G36*
X033490Y019642D02*
X033413Y019627D01*
X033347Y019583D01*
X033303Y019517D01*
X033288Y019440D01*
X033303Y019363D01*
X033347Y019297D01*
X033413Y019253D01*
X033490Y019238D01*
X033567Y019253D01*
X033633Y019297D01*
X033677Y019363D01*
X033692Y019440D01*
X033677Y019517D01*
X033633Y019583D01*
X033567Y019627D01*
X033490Y019642D01*
D02*
G37*
G36*
X041100Y019622D02*
X041023Y019607D01*
X040957Y019563D01*
X040913Y019497D01*
X040898Y019420D01*
X040913Y019343D01*
X040957Y019277D01*
X041023Y019233D01*
X041100Y019218D01*
X041177Y019233D01*
X041243Y019277D01*
X041287Y019343D01*
X041302Y019420D01*
X041287Y019497D01*
X041243Y019563D01*
X041177Y019607D01*
X041100Y019622D01*
D02*
G37*
G36*
X041920Y019212D02*
X041843Y019197D01*
X041795Y019165D01*
X041760Y019157D01*
X041725Y019165D01*
X041677Y019197D01*
X041600Y019212D01*
X041523Y019197D01*
X041457Y019153D01*
X041413Y019087D01*
X041398Y019010D01*
X041413Y018933D01*
X041438Y018895D01*
X041413Y018857D01*
X041398Y018780D01*
X041413Y018703D01*
X041438Y018665D01*
X041413Y018627D01*
X041398Y018550D01*
X041413Y018473D01*
X041445Y018425D01*
X041413Y018377D01*
X041398Y018300D01*
X041413Y018223D01*
X041457Y018157D01*
X041523Y018113D01*
X041600Y018098D01*
X041677Y018113D01*
X041743Y018157D01*
X041777D01*
X041843Y018113D01*
X041920Y018098D01*
X041997Y018113D01*
X042063Y018157D01*
X042107Y018223D01*
X042122Y018300D01*
X042107Y018377D01*
X042075Y018425D01*
X042107Y018473D01*
X042122Y018550D01*
X042107Y018627D01*
X042082Y018665D01*
X042107Y018703D01*
X042122Y018780D01*
X042107Y018857D01*
X042082Y018895D01*
X042107Y018933D01*
X042122Y019010D01*
X042107Y019087D01*
X042063Y019153D01*
X041997Y019197D01*
X041920Y019212D01*
D02*
G37*
G36*
X043550Y019512D02*
X043473Y019497D01*
X043407Y019453D01*
X043363Y019387D01*
X043348Y019310D01*
X043363Y019233D01*
X043407Y019167D01*
X043473Y019123D01*
X043550Y019108D01*
X043627Y019123D01*
X043693Y019167D01*
X043737Y019233D01*
X043752Y019310D01*
X043737Y019387D01*
X043693Y019453D01*
X043627Y019497D01*
X043550Y019512D01*
D02*
G37*
G36*
X048710Y019206D02*
X048325D01*
Y018821D01*
X048354Y018825D01*
X048474Y018875D01*
X048577Y018954D01*
X048656Y019057D01*
X048706Y019177D01*
X048710Y019206D01*
D02*
G37*
G36*
X040570Y019032D02*
X040493Y019017D01*
X040427Y018973D01*
X040383Y018907D01*
X040368Y018830D01*
X040383Y018753D01*
X040392Y018739D01*
X040380Y018713D01*
X040364Y018691D01*
X040293Y018677D01*
X040265Y018658D01*
X040237Y018677D01*
X040160Y018692D01*
X040083Y018677D01*
X040050Y018655D01*
X040027Y018671D01*
X039950Y018686D01*
X039872Y018671D01*
X039807Y018627D01*
X039763Y018562D01*
X039747Y018484D01*
X039763Y018407D01*
X039776Y018387D01*
X039763Y018367D01*
X039748Y018290D01*
X039763Y018213D01*
X039807Y018147D01*
X039873Y018103D01*
X039950Y018088D01*
X040027Y018103D01*
X040055Y018122D01*
X040083Y018103D01*
X040160Y018088D01*
X040237Y018103D01*
X040265Y018122D01*
X040293Y018103D01*
X040370Y018088D01*
X040447Y018103D01*
X040513Y018147D01*
X040557Y018213D01*
X040572Y018290D01*
X040557Y018367D01*
X040542Y018390D01*
X040557Y018413D01*
X040572Y018490D01*
X040557Y018567D01*
X040548Y018581D01*
X040560Y018607D01*
X040576Y018629D01*
X040647Y018643D01*
X040713Y018687D01*
X040757Y018753D01*
X040772Y018830D01*
X040757Y018907D01*
X040713Y018973D01*
X040647Y019017D01*
X040570Y019032D01*
D02*
G37*
G36*
X038340Y018262D02*
X038263Y018247D01*
X038197Y018203D01*
X038153Y018137D01*
X038138Y018060D01*
X038153Y017983D01*
X038197Y017917D01*
X038263Y017873D01*
X038340Y017858D01*
X038417Y017873D01*
X038483Y017917D01*
X038527Y017983D01*
X038542Y018060D01*
X038527Y018137D01*
X038483Y018203D01*
X038417Y018247D01*
X038340Y018262D01*
D02*
G37*
G36*
X039140Y018252D02*
X039063Y018237D01*
X038997Y018193D01*
X038953Y018127D01*
X038938Y018050D01*
X038953Y017973D01*
X038997Y017907D01*
X039063Y017863D01*
X039140Y017848D01*
X039217Y017863D01*
X039283Y017907D01*
X039327Y017973D01*
X039342Y018050D01*
X039327Y018127D01*
X039283Y018193D01*
X039217Y018237D01*
X039140Y018252D01*
D02*
G37*
G36*
X035730Y017862D02*
X035653Y017847D01*
X035587Y017803D01*
X035584Y017799D01*
X035527Y017837D01*
X035450Y017852D01*
X035373Y017837D01*
X035327Y017807D01*
X035267Y017847D01*
X035190Y017862D01*
X035113Y017847D01*
X035058Y017810D01*
X035017Y017837D01*
X034940Y017852D01*
X034863Y017837D01*
X034797Y017793D01*
X034753Y017727D01*
X034738Y017650D01*
X034753Y017573D01*
X034797Y017507D01*
X034863Y017463D01*
X034940Y017448D01*
X035017Y017463D01*
X035072Y017500D01*
X035113Y017473D01*
X035190Y017458D01*
X035267Y017473D01*
X035313Y017503D01*
X035373Y017463D01*
X035450Y017448D01*
X035527Y017463D01*
X035593Y017507D01*
X035596Y017511D01*
X035653Y017473D01*
X035730Y017458D01*
X035807Y017473D01*
X035873Y017517D01*
X035917Y017583D01*
X035932Y017660D01*
X035917Y017737D01*
X035873Y017803D01*
X035807Y017847D01*
X035730Y017862D01*
D02*
G37*
G36*
X041070Y018012D02*
X040993Y017997D01*
X040927Y017953D01*
X040883Y017887D01*
X040868Y017810D01*
X040883Y017733D01*
X040927Y017667D01*
X040993Y017623D01*
X041070Y017608D01*
X041147Y017623D01*
X041213Y017667D01*
X041257Y017733D01*
X041272Y017810D01*
X041257Y017887D01*
X041213Y017953D01*
X041147Y017997D01*
X041070Y018012D01*
D02*
G37*
G36*
X043510Y017652D02*
X043433Y017637D01*
X043367Y017593D01*
X043323Y017527D01*
X043308Y017450D01*
X043323Y017373D01*
X043367Y017307D01*
X043433Y017263D01*
X043510Y017248D01*
X043587Y017263D01*
X043653Y017307D01*
X043697Y017373D01*
X043712Y017450D01*
X043697Y017527D01*
X043653Y017593D01*
X043587Y017637D01*
X043510Y017652D01*
D02*
G37*
G36*
X042850D02*
X042773Y017637D01*
X042707Y017593D01*
X042663Y017527D01*
X042648Y017450D01*
X042663Y017373D01*
X042707Y017307D01*
X042773Y017263D01*
X042850Y017248D01*
X042927Y017263D01*
X042993Y017307D01*
X043037Y017373D01*
X043052Y017450D01*
X043037Y017527D01*
X042993Y017593D01*
X042927Y017637D01*
X042850Y017652D01*
D02*
G37*
G36*
X032110Y016862D02*
X032033Y016847D01*
X031967Y016803D01*
X031966Y016802D01*
X031903Y016797D01*
X031857Y016827D01*
X031780Y016842D01*
X031703Y016827D01*
X031637Y016783D01*
X031593Y016717D01*
X031578Y016640D01*
X031593Y016563D01*
X031637Y016497D01*
X031703Y016453D01*
X031780Y016438D01*
X031857Y016453D01*
X031921Y016496D01*
X031963Y016517D01*
X031967D01*
X032033Y016473D01*
X032110Y016458D01*
X032187Y016473D01*
X032253Y016517D01*
X032297Y016583D01*
X032312Y016660D01*
X032297Y016737D01*
X032253Y016803D01*
X032187Y016847D01*
X032110Y016862D01*
D02*
G37*
G36*
X029675Y017047D02*
X029598Y017032D01*
X029532Y016988D01*
X029488Y016922D01*
X029473Y016845D01*
X029488Y016767D01*
X029532Y016702D01*
X029598Y016658D01*
X029675Y016642D01*
X029753Y016658D01*
X029818Y016702D01*
X029862Y016767D01*
X029878Y016845D01*
X029862Y016922D01*
X029818Y016988D01*
X029753Y017032D01*
X029675Y017047D01*
D02*
G37*
G36*
X030505Y017017D02*
X030428Y017002D01*
X030362Y016958D01*
X030318Y016892D01*
X030303Y016815D01*
X030318Y016738D01*
X030362Y016672D01*
X030428Y016628D01*
X030505Y016613D01*
X030582Y016628D01*
X030648Y016672D01*
X030692Y016738D01*
X030707Y016815D01*
X030692Y016892D01*
X030648Y016958D01*
X030582Y017002D01*
X030505Y017017D01*
D02*
G37*
%LPD*%
D14*
X029052Y048751D02*
X029075D01*
X029134Y048810D01*
X029160D01*
X029052Y046768D02*
Y048751D01*
Y046768D02*
X029270Y046550D01*
X041928Y054288D02*
X049462D01*
X040520Y052880D02*
X041928Y054288D01*
X039610Y047990D02*
X040060Y048440D01*
X038020Y047990D02*
X039610D01*
X029146Y049590D02*
X030066Y048670D01*
X033990D01*
X030520Y051810D02*
X031360Y050970D01*
X027794Y052560D02*
X028544Y051810D01*
X030520D01*
X030429Y051620D02*
X031539Y050510D01*
X027510Y052350D02*
X028240Y051620D01*
X030429D01*
X026490Y052350D02*
X027510D01*
X030067Y052514D02*
Y052893D01*
Y052514D02*
X030599Y051982D01*
X029560Y053400D02*
X030067Y052893D01*
X031842Y051965D02*
X032085D01*
X031701Y052105D02*
X031842Y051965D01*
X031336Y052105D02*
X031701D01*
X031212Y051982D02*
X031336Y052105D01*
X030599Y051982D02*
X031212D01*
X032085Y051965D02*
X032090Y051960D01*
X027560Y053400D02*
X028460Y052500D01*
Y052175D02*
Y052500D01*
X030545Y052347D02*
Y053385D01*
X030560Y053400D01*
X030530Y052332D02*
X030545Y052347D01*
X026400Y052560D02*
X027794D01*
X035949Y045919D02*
X038020Y047990D01*
X034107Y045919D02*
X035949D01*
X031790Y041570D02*
X032650D01*
X033150Y042600D02*
X033548Y042202D01*
X031038Y044712D02*
X032293Y043457D01*
X033150Y042600D02*
Y042900D01*
X033324Y042936D02*
X033669Y042590D01*
X033324Y042936D02*
Y042956D01*
X033669Y042590D02*
X035110D01*
X032400Y043670D02*
X032610D01*
X033324Y042956D01*
X029900Y046170D02*
X032400Y043670D01*
X029900Y046170D02*
Y046951D01*
X032593Y043457D02*
X033150Y042900D01*
X032293Y043457D02*
X032593D01*
X033548Y042202D02*
X037882D01*
X037920Y042240D01*
X029900Y046951D02*
X030145Y047196D01*
Y047429D02*
X030160Y047444D01*
X030145Y047196D02*
Y047429D01*
X030757Y044712D02*
X031038D01*
X029685Y045785D02*
X030757Y044712D01*
X030110Y047643D02*
X030159Y047691D01*
X030078Y047643D02*
X030110D01*
X029686Y045950D02*
Y047251D01*
X030159Y047691D02*
X030185D01*
X029686Y047251D02*
X030078Y047643D01*
X029685Y045949D02*
X029686Y045950D01*
X029685Y045785D02*
Y045949D01*
X035110Y042590D02*
X035160Y042640D01*
X036497D02*
X036736Y042400D01*
X035160Y042640D02*
X036497D01*
X036736Y042400D02*
X037700D01*
X030180Y046950D02*
X031160D01*
X032700Y045410D01*
X038280D01*
X039302Y046432D02*
X040390D01*
X038280Y045410D02*
X039302Y046432D01*
X031539Y050510D02*
X034620D01*
X030306Y051094D02*
X031210Y050190D01*
X035240D01*
X032650Y041570D02*
X033620Y040600D01*
X034605Y040615D02*
Y041825D01*
Y040615D02*
X034620Y040600D01*
X034590Y041840D02*
X034605Y041825D01*
X040090Y038810D02*
X040710Y038190D01*
X037252Y039308D02*
X037749Y038810D01*
X040090D01*
X037147Y039454D02*
Y039480D01*
Y039454D02*
X037252Y039349D01*
Y039308D02*
Y039349D01*
X037850Y038990D02*
X041180D01*
X037450Y039390D02*
X037850Y038990D01*
X038153Y039283D02*
X040210Y041340D01*
X040720D01*
X037753Y039400D02*
X037870Y039283D01*
X038153D01*
X037727Y039400D02*
X037753D01*
X037960Y039481D02*
X040568Y042090D01*
X041200D01*
X030729Y049848D02*
X030768Y049810D01*
X030140Y049848D02*
X030729D01*
X029830Y048430D02*
X033650D01*
X034493Y049960D02*
X034700D01*
X034569Y049810D02*
X034618Y049762D01*
X034431Y049810D02*
X034569D01*
X034831D02*
X036590D01*
X034618Y049762D02*
X034782D01*
X034831Y049810D01*
X030058Y049650D02*
X034330D01*
X034412Y049432D02*
X034432Y049452D01*
X034228D02*
X034248Y049432D01*
X034412D01*
X034432Y049452D02*
X035600D01*
X034048D02*
X034228D01*
X034412Y049828D02*
X034431Y049810D01*
X034248Y049828D02*
X034412D01*
X034167Y049960D02*
X034186Y049978D01*
X030830Y049960D02*
X034167D01*
X034229Y049810D02*
X034248Y049828D01*
X030768Y049810D02*
X034229D01*
X034186Y049978D02*
X034474D01*
X034493Y049960D01*
X035887Y049253D02*
X035900Y049240D01*
X029917Y049253D02*
X035887D01*
X029900Y049270D02*
X029917Y049253D01*
X029640Y049500D02*
X034000D01*
X034048Y049452D01*
X037751Y048749D02*
X037770Y048730D01*
X036590Y049810D02*
X037651Y048749D01*
X037751D01*
X026569Y050711D02*
X027905Y049375D01*
X028885D01*
X029830Y048430D01*
X028397Y049590D02*
X029146D01*
X027828Y050158D02*
X028397Y049590D01*
X026700Y051760D02*
X027930Y050530D01*
X028597D02*
X028628Y050498D01*
X029209D02*
X030058Y049650D01*
X027930Y050530D02*
X028597D01*
X028628Y050498D02*
X029209D01*
X026569Y050711D02*
Y051091D01*
X026700Y051760D02*
Y052030D01*
X029850Y050940D02*
X030830Y049960D01*
X035160Y052110D02*
X035165Y052105D01*
X035895D02*
X035900Y052100D01*
X035165Y052105D02*
X035895D01*
X027642Y050158D02*
X027828D01*
X026930Y050870D02*
X027642Y050158D01*
X028940Y050940D02*
X029850D01*
X028896Y050896D02*
X028940Y050940D01*
X028394Y050896D02*
X028896D01*
X027900Y051390D02*
X028394Y050896D01*
X028666Y051094D02*
X030306D01*
X031360Y050970D02*
X036030D01*
X026930Y050870D02*
Y050890D01*
X049462Y054288D02*
X050490Y053261D01*
Y049160D02*
X051850Y047800D01*
X052400D01*
X054240Y046380D02*
Y046920D01*
X054038Y047122D02*
X054240Y046920D01*
X054038Y047122D02*
Y047822D01*
X053450Y046380D02*
X054230D01*
X052830Y045760D02*
X053450Y046380D01*
X050490Y049160D02*
Y053261D01*
X053350Y048510D02*
X054038Y047822D01*
X052080Y048510D02*
X053350D01*
X025940Y049484D02*
Y052650D01*
X025700Y041520D02*
Y044760D01*
X026810Y045870D01*
Y048614D01*
X025940Y049484D02*
X026810Y048614D01*
X025738Y049442D02*
X026538Y048642D01*
X025738Y049442D02*
Y052002D01*
X026538Y047388D02*
Y048642D01*
X025700Y052890D02*
X025940Y052650D01*
X025700Y052890D02*
Y053260D01*
X025300Y042020D02*
Y044760D01*
X026530Y045990D01*
Y047380D01*
X026538Y047388D01*
X025377Y052363D02*
X025738Y052002D01*
X025377Y052363D02*
Y052687D01*
X025450Y052761D01*
Y053010D01*
X026348Y050838D02*
Y052208D01*
X026490Y052350D01*
X026150Y051060D02*
Y052310D01*
X026400Y052560D01*
X023200Y053570D02*
X024390Y052380D01*
X025310Y049550D02*
X026140Y048720D01*
X025310Y049550D02*
Y051820D01*
X025053Y048997D02*
Y051680D01*
Y048997D02*
X025475Y048575D01*
X024750Y052380D02*
X025310Y051820D01*
X026340Y050830D02*
X026348Y050838D01*
X020410Y048670D02*
X022040Y047040D01*
X018720Y048670D02*
X020410D01*
X017944Y047894D02*
X018720Y048670D01*
X020530Y048920D02*
X021970Y047480D01*
X017998Y048920D02*
X020530D01*
X017346Y048268D02*
X017998Y048920D01*
X022040Y047040D02*
X024220D01*
X021970Y047480D02*
X023620D01*
X017944Y047304D02*
Y047894D01*
X022080Y052640D02*
X023560D01*
X020350Y050910D02*
X022080Y052640D01*
X024390Y052380D02*
X024750D01*
X018632Y053570D02*
X023200D01*
X018354Y050910D02*
X020350D01*
X017944Y051320D02*
X018354Y050910D01*
X017346Y052284D02*
X018632Y053570D01*
X023620Y047480D02*
X024210Y048070D01*
X025850D01*
X026340Y048560D01*
X023187Y049547D02*
X023190Y049550D01*
X021778Y049547D02*
X023187D01*
X021775Y049544D02*
X021778Y049547D01*
X021060Y041100D02*
Y042010D01*
X021050Y042020D02*
X021060Y042010D01*
X019150Y041870D02*
Y042580D01*
X018190Y040910D02*
X019150Y041870D01*
D168*
X027410Y017740D02*
Y018410D01*
X027850Y042070D02*
Y043560D01*
X027400Y041620D02*
X027850Y042070D01*
X027400Y041620D02*
X027400Y018420D01*
D169*
X050390Y039670D02*
X051030D01*
X050390D02*
Y040680D01*
Y038210D02*
Y039670D01*
X050380Y038200D02*
X050390Y038210D01*
X050080Y040990D02*
X050390Y040680D01*
X052000Y040890D02*
Y042360D01*
X052020Y042380D01*
X051030Y039670D02*
X052000Y040640D01*
Y040890D01*
X049380Y037200D02*
X050380Y038200D01*
Y038200D01*
D170*
X038670Y037630D02*
Y038220D01*
Y037630D02*
X039140Y037160D01*
X024260Y048926D02*
X024697Y048489D01*
X024260Y048926D02*
Y049850D01*
Y050970D02*
X024520Y051230D01*
X024260Y049850D02*
Y050970D01*
X017390Y043410D02*
X017740D01*
X018240Y042910D01*
X018468Y042000D02*
Y042673D01*
X018188Y041720D02*
X018468Y042000D01*
X018010Y041720D02*
X018188D01*
X018240Y042901D02*
X018468Y042673D01*
X018240Y042901D02*
Y042910D01*
X019150Y042580D02*
X019170Y042560D01*
X020250D01*
D172*
X027410Y018410D02*
X027490Y018330D01*
X027400Y018420D02*
X027410Y018410D01*
D184*
X046036Y041024D02*
D03*
X048044D02*
D03*
Y039016D02*
D03*
X046036D02*
D03*
X043174Y051304D02*
D03*
X041166D02*
D03*
Y049296D02*
D03*
X043174D02*
D03*
X044584Y038976D02*
D03*
X042576D02*
D03*
Y040984D02*
D03*
X044584D02*
D03*
D185*
X047040Y040020D02*
D03*
X042170Y050300D02*
D03*
X043580Y039980D02*
D03*
D186*
X052980Y043360D02*
D03*
D187*
Y042360D02*
D03*
Y041360D02*
D03*
X033620Y040600D02*
D03*
X032620D02*
D03*
X034620D02*
D03*
X035620D02*
D03*
X050600Y018480D02*
D03*
X030120Y038840D02*
D03*
X030090Y035840D02*
D03*
D188*
X049380Y039200D02*
D03*
X050380Y038200D02*
D03*
X049380Y037200D02*
D03*
D189*
X031620Y040600D02*
D03*
X051600Y018480D02*
D03*
X031120Y038840D02*
D03*
X031090Y035840D02*
D03*
D190*
X052830Y044913D02*
D03*
Y045760D02*
D03*
D191*
X053353Y044903D02*
D03*
X053530Y045336D02*
D03*
X052370Y045586D02*
D03*
X053353Y045769D02*
D03*
X052356Y045103D02*
D03*
D192*
X029560Y053400D02*
D03*
X026560D02*
D03*
X027560D02*
D03*
X028560D02*
D03*
X030560D02*
D03*
D193*
X015955Y044189D02*
D03*
Y041591D02*
D03*
D194*
X017790Y036720D02*
D03*
D195*
X019030Y034830D02*
D03*
D196*
X020172Y036720D02*
D03*
D197*
X052170Y023440D02*
D03*
Y033283D02*
D03*
X042327D02*
D03*
Y023440D02*
D03*
D198*
X046225Y019306D02*
D03*
X047225D02*
D03*
X048225D02*
D03*
D199*
X017346Y048268D02*
D03*
X017944Y051320D02*
D03*
Y047304D02*
D03*
X017346Y052284D02*
D03*
D200*
X021775Y049544D02*
D03*
X022775Y050044D02*
D03*
Y049044D02*
D03*
X021775Y050544D02*
D03*
Y048544D02*
D03*
X022775Y051044D02*
D03*
Y048044D02*
D03*
X021775Y051544D02*
D03*
D201*
X020476Y046694D02*
D03*
Y052894D02*
D03*
D202*
X019275Y047544D02*
D03*
Y052044D02*
D03*
D203*
X027630Y017740D02*
D03*
X027210Y017940D02*
D03*
X027420D02*
D03*
Y018150D02*
D03*
X027730Y043240D02*
D03*
Y043440D02*
D03*
X027950Y043240D02*
D03*
Y043650D02*
D03*
Y043440D02*
D03*
X027220Y017740D02*
D03*
X027430D02*
D03*
X036870Y020440D02*
D03*
X037620Y020450D02*
D03*
X039140Y018050D02*
D03*
X038340Y018060D02*
D03*
X039950Y018484D02*
D03*
X029160Y048810D02*
D03*
X029270Y046550D02*
D03*
X028421Y043721D02*
D03*
X028640Y049072D02*
D03*
X028410Y047240D02*
D03*
X023810Y039920D02*
D03*
X038570Y047660D02*
D03*
X038940Y048290D02*
D03*
X039250Y048640D02*
D03*
X039150Y047650D02*
D03*
X039590Y048270D02*
D03*
X040230Y048890D02*
D03*
X040200Y049530D02*
D03*
X039760Y050310D02*
D03*
X040490Y050020D02*
D03*
X040480Y050540D02*
D03*
X046520Y041880D02*
D03*
X047410Y041640D02*
D03*
X047390Y042400D02*
D03*
X046520Y042810D02*
D03*
X046020Y043180D02*
D03*
X045380Y043730D02*
D03*
X044030Y045040D02*
D03*
X043130Y045280D02*
D03*
X042350Y045300D02*
D03*
X041630Y045280D02*
D03*
X040670Y045270D02*
D03*
X039700Y045310D02*
D03*
X039100Y045890D02*
D03*
X038260Y046140D02*
D03*
X038340Y046710D02*
D03*
X037880Y046810D02*
D03*
X037360Y046800D02*
D03*
X046620Y043440D02*
D03*
X046090Y043930D02*
D03*
X045551Y044454D02*
D03*
X044920Y045100D02*
D03*
X044290Y045770D02*
D03*
X043540Y045920D02*
D03*
X042820Y045910D02*
D03*
X041950Y045920D02*
D03*
X041161Y045896D02*
D03*
X040230Y045880D02*
D03*
X040520Y052880D02*
D03*
X040060Y048440D02*
D03*
X030530Y052332D02*
D03*
X028460Y052175D02*
D03*
X029250Y046930D02*
D03*
X037090Y045830D02*
D03*
X034107Y045919D02*
D03*
X038430Y042500D02*
D03*
X031790Y041570D02*
D03*
X033740Y042800D02*
D03*
X037920Y042240D02*
D03*
X029486Y045858D02*
D03*
X037700Y042400D02*
D03*
X030260Y046260D02*
D03*
X030160Y047444D02*
D03*
X030185Y047691D02*
D03*
X038670Y038220D02*
D03*
X030180Y046950D02*
D03*
X040390Y046432D02*
D03*
X040460Y047400D02*
D03*
X039870Y047440D02*
D03*
X040750Y046810D02*
D03*
X051400Y039150D02*
D03*
X051702Y041780D02*
D03*
X038580Y050130D02*
D03*
X032990Y052440D02*
D03*
X032090Y051960D02*
D03*
X034620Y050510D02*
D03*
X035240Y050210D02*
D03*
X034150Y044860D02*
D03*
X039640Y049100D02*
D03*
X039010Y051940D02*
D03*
X037580Y053140D02*
D03*
X037920Y051930D02*
D03*
X039620Y053410D02*
D03*
X039250Y053400D02*
D03*
X039280Y052770D02*
D03*
X040040Y052790D02*
D03*
X039660D02*
D03*
X039670Y051890D02*
D03*
X034590Y041840D02*
D03*
X032097Y043020D02*
D03*
X032695Y042995D02*
D03*
X035641Y042441D02*
D03*
X037360Y043060D02*
D03*
X037930Y042830D02*
D03*
X038920Y039620D02*
D03*
X038840Y042650D02*
D03*
X038870Y043020D02*
D03*
X038860Y040800D02*
D03*
X038920Y039290D02*
D03*
X039140Y037160D02*
D03*
X041200Y036980D02*
D03*
X041170Y040310D02*
D03*
X040710Y038190D02*
D03*
X041180Y038990D02*
D03*
X040720Y041340D02*
D03*
X041200Y042090D02*
D03*
X038090Y038570D02*
D03*
X037690Y038580D02*
D03*
X037310Y038560D02*
D03*
X036900Y038550D02*
D03*
X037147Y039480D02*
D03*
X037450Y039390D02*
D03*
X037727Y039400D02*
D03*
X037960Y039481D02*
D03*
X030140Y049848D02*
D03*
X032737Y043840D02*
D03*
X033650Y048440D02*
D03*
X033990Y048670D02*
D03*
X034700Y049960D02*
D03*
X034330Y049630D02*
D03*
X035900Y049240D02*
D03*
X029900Y049270D02*
D03*
X035600Y049452D02*
D03*
X029640Y049500D02*
D03*
X027840Y049866D02*
D03*
X028680Y049900D02*
D03*
X037770Y048730D02*
D03*
X036069Y050981D02*
D03*
X031130Y052180D02*
D03*
X035160Y052110D02*
D03*
X035900Y052100D02*
D03*
X030180Y046550D02*
D03*
X029883Y045867D02*
D03*
X028710Y050697D02*
D03*
X028666Y051094D02*
D03*
X027900Y051390D02*
D03*
X031120Y052540D02*
D03*
X029270Y047320D02*
D03*
X029280Y047720D02*
D03*
X031566Y051907D02*
D03*
X037770Y051050D02*
D03*
X037440Y051040D02*
D03*
X037216Y050556D02*
D03*
X037770Y045950D02*
D03*
X037400Y045990D02*
D03*
X033130Y045820D02*
D03*
X032590Y044280D02*
D03*
X032600Y044630D02*
D03*
X023098Y017303D02*
D03*
X018510Y020260D02*
D03*
Y020020D02*
D03*
Y019800D02*
D03*
Y019580D02*
D03*
Y019340D02*
D03*
X018760Y019350D02*
D03*
Y019590D02*
D03*
Y019810D02*
D03*
Y020030D02*
D03*
Y020270D02*
D03*
X044760Y044340D02*
D03*
X047940Y045930D02*
D03*
X047820Y043190D02*
D03*
X050720Y041930D02*
D03*
X052120Y042730D02*
D03*
X053420Y046860D02*
D03*
X052270Y046230D02*
D03*
X051880Y045530D02*
D03*
X051740Y044690D02*
D03*
X053630Y044450D02*
D03*
X053800Y046620D02*
D03*
X054400Y044800D02*
D03*
X024590Y048950D02*
D03*
X023730Y049100D02*
D03*
X048650Y052660D02*
D03*
X049760Y050450D02*
D03*
X049500Y049490D02*
D03*
X048030Y049580D02*
D03*
X046140Y049570D02*
D03*
X045150Y048950D02*
D03*
X044220Y048020D02*
D03*
X047180Y043510D02*
D03*
X050080Y040990D02*
D03*
X050670Y039690D02*
D03*
X051030Y039670D02*
D03*
X052000Y040890D02*
D03*
X052020Y042380D02*
D03*
X050895Y044810D02*
D03*
X040370Y018490D02*
D03*
Y018290D02*
D03*
X040160Y018490D02*
D03*
Y018290D02*
D03*
X041600Y018550D02*
D03*
Y019010D02*
D03*
X041920D02*
D03*
X041600Y018300D02*
D03*
X041920Y018550D02*
D03*
X041600Y018780D02*
D03*
X041920Y018300D02*
D03*
X050070Y048040D02*
D03*
X054240Y046380D02*
D03*
X052400Y047800D02*
D03*
X042450Y042579D02*
D03*
X042430Y043629D02*
D03*
X040305Y043590D02*
D03*
X053430Y047860D02*
D03*
X053050Y047830D02*
D03*
X049030Y045530D02*
D03*
Y047170D02*
D03*
X048410Y043720D02*
D03*
X048010Y043710D02*
D03*
X052080Y048510D02*
D03*
X025700Y041520D02*
D03*
X025300Y042020D02*
D03*
X025450Y053010D02*
D03*
X025700Y053260D02*
D03*
X026700Y052030D02*
D03*
X025540Y051710D02*
D03*
X025053Y051680D02*
D03*
X026569Y051091D02*
D03*
X026150Y051060D02*
D03*
X036780Y042660D02*
D03*
X036770Y042990D02*
D03*
X034873Y044057D02*
D03*
X036306Y044309D02*
D03*
X020050Y042310D02*
D03*
X039950Y018290D02*
D03*
X040570Y018830D02*
D03*
X041920Y018780D02*
D03*
X027620Y018150D02*
D03*
X027210D02*
D03*
X027620Y017940D02*
D03*
X051290Y053650D02*
D03*
X050550Y053640D02*
D03*
X049500Y053580D02*
D03*
X049880Y053590D02*
D03*
X048070Y048660D02*
D03*
X046710Y048260D02*
D03*
X046720Y047850D02*
D03*
X034777Y042840D02*
D03*
X026930Y050890D02*
D03*
X026340Y050830D02*
D03*
X045170Y053840D02*
D03*
X044790Y053830D02*
D03*
X045980Y053580D02*
D03*
X047950Y051450D02*
D03*
Y051200D02*
D03*
X048170D02*
D03*
X045190Y051680D02*
D03*
Y051450D02*
D03*
Y051220D02*
D03*
Y050970D02*
D03*
X045510Y051680D02*
D03*
Y051450D02*
D03*
Y051220D02*
D03*
Y050970D02*
D03*
X044540Y051680D02*
D03*
Y051450D02*
D03*
Y051220D02*
D03*
X044860Y051680D02*
D03*
Y051450D02*
D03*
Y051220D02*
D03*
Y050970D02*
D03*
X028470Y027950D02*
D03*
Y027720D02*
D03*
Y027490D02*
D03*
Y027240D02*
D03*
X028790Y027950D02*
D03*
Y027720D02*
D03*
Y027490D02*
D03*
Y027240D02*
D03*
X029070Y027950D02*
D03*
Y027720D02*
D03*
Y027490D02*
D03*
Y027240D02*
D03*
X029390Y027950D02*
D03*
Y027720D02*
D03*
Y027490D02*
D03*
Y027240D02*
D03*
X051630Y052220D02*
D03*
Y051990D02*
D03*
X051860Y052220D02*
D03*
Y051990D02*
D03*
X051620Y052680D02*
D03*
Y052450D02*
D03*
X051850Y052680D02*
D03*
Y052450D02*
D03*
X052070Y052210D02*
D03*
Y051980D02*
D03*
X052300Y052210D02*
D03*
Y051980D02*
D03*
X052070Y052680D02*
D03*
Y052450D02*
D03*
X052300Y052680D02*
D03*
Y052450D02*
D03*
X035730Y017660D02*
D03*
X035450Y017650D02*
D03*
X035190Y017660D02*
D03*
X034940Y017650D02*
D03*
X031780Y016640D02*
D03*
X032110Y016660D02*
D03*
X030505Y016815D02*
D03*
X029675Y016845D02*
D03*
X048170Y051450D02*
D03*
Y051680D02*
D03*
Y051910D02*
D03*
X047950Y051680D02*
D03*
Y051910D02*
D03*
X047720Y051200D02*
D03*
Y051450D02*
D03*
Y051680D02*
D03*
Y051910D02*
D03*
X026900Y045030D02*
D03*
X027150D02*
D03*
X027380D02*
D03*
X027610D02*
D03*
X027620Y045390D02*
D03*
X027390D02*
D03*
X027160D02*
D03*
X026910D02*
D03*
X027260Y046150D02*
D03*
X028200Y046100D02*
D03*
X026250Y044060D02*
D03*
X027730Y043650D02*
D03*
X027525Y052015D02*
D03*
X027125Y052005D02*
D03*
X024180Y046050D02*
D03*
Y047030D02*
D03*
X023560Y052640D02*
D03*
X024634Y052644D02*
D03*
X024646Y053044D02*
D03*
X023684D02*
D03*
X026340Y048560D02*
D03*
X026140Y048720D02*
D03*
X025125Y052595D02*
D03*
X025575Y052605D02*
D03*
X025475Y048575D02*
D03*
X023880Y049770D02*
D03*
X023190Y049550D02*
D03*
X028210Y026520D02*
D03*
X028240Y025770D02*
D03*
X028150Y025050D02*
D03*
X028160Y024680D02*
D03*
X027300Y043290D02*
D03*
X027080D02*
D03*
X027300Y043490D02*
D03*
X027080D02*
D03*
Y043700D02*
D03*
X027300D02*
D03*
X024520Y051230D02*
D03*
X024697Y048489D02*
D03*
X024260Y049850D02*
D03*
X024680Y047660D02*
D03*
X025070Y047670D02*
D03*
X025470Y047660D02*
D03*
X025880Y047680D02*
D03*
X027960Y047060D02*
D03*
X025670Y047040D02*
D03*
X027440Y048110D02*
D03*
X028680Y048710D02*
D03*
X028690Y050300D02*
D03*
X036656Y043479D02*
D03*
X022210Y034660D02*
D03*
X021910Y034650D02*
D03*
X021620Y034670D02*
D03*
X022140Y033830D02*
D03*
X023708Y017805D02*
D03*
X021400Y017670D02*
D03*
X033640Y021660D02*
D03*
X033310Y021650D02*
D03*
X032950Y021660D02*
D03*
X033640Y021990D02*
D03*
X033310D02*
D03*
X032950D02*
D03*
X033490Y019440D02*
D03*
X031980Y020370D02*
D03*
X041070Y017810D02*
D03*
X043510Y017450D02*
D03*
X042850D02*
D03*
X041100Y019420D02*
D03*
X043550Y019310D02*
D03*
X033500Y020870D02*
D03*
X034710Y020350D02*
D03*
X034120Y023750D02*
D03*
X033750D02*
D03*
X033340Y023730D02*
D03*
X033110Y022740D02*
D03*
X049980Y045220D02*
D03*
X049550Y043070D02*
D03*
X049870Y043620D02*
D03*
X049880Y044220D02*
D03*
X017390Y043410D02*
D03*
X021060Y041100D02*
D03*
X021050Y042020D02*
D03*
X024810Y043210D02*
D03*
X024830Y042270D02*
D03*
X023810Y040680D02*
D03*
X021620Y040650D02*
D03*
X018060Y041330D02*
D03*
X018010Y041720D02*
D03*
X018240Y042910D02*
D03*
X017410Y044160D02*
D03*
X017400Y041650D02*
D03*
X017430Y042380D02*
D03*
X018220Y042570D02*
D03*
X019230Y042930D02*
D03*
X020260Y042910D02*
D03*
X020250Y042560D02*
D03*
X019150Y042580D02*
D03*
X018190Y040910D02*
D03*
X019790Y041550D02*
D03*
X020100Y041560D02*
D03*
X020110Y041220D02*
D03*
X019780Y041230D02*
D03*
X019660Y040370D02*
D03*
X047990Y050300D02*
D03*
X048570Y049710D02*
D03*
X049620Y051480D02*
D03*
D204*
X026194Y049556D02*
D03*
Y050028D02*
D03*
X026666Y049556D02*
D03*
X026666Y050028D02*
D03*
X026430Y049792D02*
D03*
D205*
X051350Y051100D02*
D03*
M02*
