G04*
G04 #@! TF.GenerationSoftware,Altium Limited,Altium Designer,21.2.1 (34)*
G04*
G04 Layer_Color=16711935*
%FSAX24Y24*%
%MOIN*%
G70*
G04*
G04 #@! TF.SameCoordinates,274D9A25-BBB1-47C8-A32C-90C4575193A4*
G04*
G04*
G04 #@! TF.FilePolarity,Negative*
G04*
G01*
G75*
%ADD149C,0.0946*%
%ADD150R,0.0946X0.0946*%
%ADD151R,0.0710X0.0710*%
%ADD152C,0.0710*%
%ADD153C,0.0671*%
%ADD154R,0.0710X0.0710*%
%ADD155C,0.0356*%
%ADD156C,0.0395*%
%ADD157C,0.0749*%
%ADD158O,0.0710X0.0434*%
%ADD159O,0.0789X0.1655*%
%ADD160O,0.1655X0.0789*%
%ADD161O,0.0789X0.1852*%
%ADD162C,0.4017*%
%ADD163C,0.0867*%
%ADD164C,0.0682*%
%ADD165C,0.0630*%
%ADD166C,0.1007*%
%ADD167C,0.1760*%
D149*
X046036Y041024D02*
D03*
X048044D02*
D03*
Y039016D02*
D03*
X046036D02*
D03*
X043174Y051304D02*
D03*
X041166D02*
D03*
Y049296D02*
D03*
X043174D02*
D03*
X044584Y038976D02*
D03*
X042576D02*
D03*
Y040984D02*
D03*
X044584D02*
D03*
D150*
X047040Y040020D02*
D03*
X042170Y050300D02*
D03*
X043580Y039980D02*
D03*
D151*
X052980Y043360D02*
D03*
D152*
Y042360D02*
D03*
Y041360D02*
D03*
X033620Y040600D02*
D03*
X032620D02*
D03*
X034620D02*
D03*
X035620D02*
D03*
X050600Y018480D02*
D03*
X030120Y038840D02*
D03*
X030090Y035840D02*
D03*
D153*
X049380Y039200D02*
D03*
X050380Y038200D02*
D03*
X049380Y037200D02*
D03*
D154*
X031620Y040600D02*
D03*
X051600Y018480D02*
D03*
X031120Y038840D02*
D03*
X031090Y035840D02*
D03*
D155*
X052830Y044913D02*
D03*
Y045760D02*
D03*
D156*
X053353Y044903D02*
D03*
X053530Y045336D02*
D03*
X052370Y045586D02*
D03*
X053353Y045769D02*
D03*
X052356Y045103D02*
D03*
D157*
X029560Y053400D02*
D03*
X026560D02*
D03*
X027560D02*
D03*
X028560D02*
D03*
X030560D02*
D03*
D158*
X015955Y044189D02*
D03*
Y041591D02*
D03*
D159*
X017790Y036720D02*
D03*
D160*
X019030Y034830D02*
D03*
D161*
X020172Y036720D02*
D03*
D162*
X052170Y023440D02*
D03*
Y033283D02*
D03*
X042327D02*
D03*
Y023440D02*
D03*
D163*
X046225Y019306D02*
D03*
X047225D02*
D03*
X048225D02*
D03*
D164*
X017346Y048268D02*
D03*
X017944Y051320D02*
D03*
Y047304D02*
D03*
X017346Y052284D02*
D03*
D165*
X021775Y049544D02*
D03*
X022775Y050044D02*
D03*
Y049044D02*
D03*
X021775Y050544D02*
D03*
Y048544D02*
D03*
X022775Y051044D02*
D03*
Y048044D02*
D03*
X021775Y051544D02*
D03*
D166*
X020476Y046694D02*
D03*
Y052894D02*
D03*
D167*
X019275Y047544D02*
D03*
Y052044D02*
D03*
M02*
