G04*
G04 #@! TF.GenerationSoftware,Altium Limited,Altium Designer,21.2.1 (34)*
G04*
G04 Layer_Color=65535*
%FSAX24Y24*%
%MOIN*%
G70*
G04*
G04 #@! TF.SameCoordinates,274D9A25-BBB1-47C8-A32C-90C4575193A4*
G04*
G04*
G04 #@! TF.FilePolarity,Positive*
G04*
G01*
G75*
%ADD10C,0.0098*%
%ADD11C,0.0079*%
%ADD12C,0.0039*%
%ADD13C,0.0118*%
%ADD14C,0.0100*%
%ADD15C,0.0197*%
%ADD16C,0.0050*%
%ADD17C,0.0060*%
%ADD18C,0.0060*%
%ADD19C,0.0059*%
%ADD20R,0.0197X0.1575*%
G36*
X038725Y053688D02*
Y053540D01*
X038677D01*
Y053688D01*
X038570Y053890D01*
X038623D01*
X038679Y053785D01*
Y053784D01*
X038679Y053783D01*
X038680Y053782D01*
X038681Y053780D01*
X038685Y053774D01*
X038688Y053766D01*
X038692Y053758D01*
X038696Y053749D01*
X038700Y053740D01*
X038703Y053730D01*
Y053731D01*
X038704Y053731D01*
X038704Y053733D01*
X038705Y053734D01*
X038707Y053740D01*
X038709Y053746D01*
X038713Y053755D01*
X038718Y053764D01*
X038723Y053775D01*
X038729Y053787D01*
X038785Y053890D01*
X038836D01*
X038725Y053688D01*
D02*
G37*
G36*
X038989Y053540D02*
X038945D01*
Y053806D01*
X038944Y053805D01*
X038943Y053802D01*
X038941Y053799D01*
X038937Y053794D01*
X038933Y053789D01*
X038928Y053784D01*
X038921Y053779D01*
X038920Y053778D01*
X038917Y053776D01*
X038913Y053774D01*
X038907Y053771D01*
X038901Y053767D01*
X038893Y053763D01*
X038885Y053759D01*
X038876Y053756D01*
Y053804D01*
X038877D01*
X038878Y053805D01*
X038879Y053805D01*
X038882Y053807D01*
X038887Y053810D01*
X038894Y053815D01*
X038902Y053821D01*
X038911Y053828D01*
X038919Y053836D01*
X038927Y053844D01*
X038928Y053844D01*
X038928Y053845D01*
X038931Y053848D01*
X038934Y053853D01*
X038939Y053859D01*
X038944Y053866D01*
X038949Y053874D01*
X038954Y053883D01*
X038958Y053892D01*
X038989D01*
Y053540D01*
D02*
G37*
G36*
X036777Y040219D02*
Y040219D01*
Y040217D01*
Y040214D01*
Y040210D01*
X036776Y040205D01*
Y040200D01*
X036776Y040193D01*
X036775Y040187D01*
X036774Y040172D01*
X036772Y040157D01*
X036768Y040142D01*
X036766Y040135D01*
X036764Y040128D01*
Y040128D01*
X036763Y040127D01*
X036762Y040125D01*
X036761Y040123D01*
X036758Y040117D01*
X036753Y040109D01*
X036746Y040100D01*
X036739Y040092D01*
X036729Y040082D01*
X036717Y040074D01*
X036716D01*
X036715Y040073D01*
X036714Y040073D01*
X036711Y040071D01*
X036708Y040069D01*
X036703Y040068D01*
X036699Y040066D01*
X036693Y040064D01*
X036687Y040062D01*
X036681Y040060D01*
X036674Y040058D01*
X036666Y040057D01*
X036657Y040056D01*
X036649Y040055D01*
X036629Y040053D01*
X036624D01*
X036620Y040054D01*
X036616D01*
X036610Y040055D01*
X036604Y040055D01*
X036598Y040056D01*
X036585Y040058D01*
X036570Y040061D01*
X036556Y040065D01*
X036542Y040071D01*
X036542D01*
X036541Y040073D01*
X036539Y040074D01*
X036537Y040075D01*
X036531Y040079D01*
X036524Y040085D01*
X036515Y040093D01*
X036508Y040101D01*
X036500Y040112D01*
X036494Y040124D01*
Y040125D01*
X036494Y040126D01*
X036493Y040128D01*
X036492Y040131D01*
X036491Y040134D01*
X036490Y040139D01*
X036488Y040144D01*
X036487Y040150D01*
X036486Y040156D01*
X036484Y040163D01*
X036483Y040171D01*
X036482Y040179D01*
X036481Y040188D01*
X036481Y040198D01*
X036480Y040209D01*
Y040219D01*
Y040438D01*
X036530D01*
Y040219D01*
Y040219D01*
Y040217D01*
Y040215D01*
Y040211D01*
X036531Y040207D01*
Y040203D01*
X036531Y040192D01*
X036532Y040180D01*
X036534Y040168D01*
X036536Y040157D01*
X036537Y040152D01*
X036539Y040147D01*
X036540Y040146D01*
X036541Y040143D01*
X036543Y040139D01*
X036547Y040134D01*
X036550Y040128D01*
X036556Y040122D01*
X036562Y040116D01*
X036570Y040111D01*
X036571Y040111D01*
X036574Y040109D01*
X036579Y040107D01*
X036585Y040105D01*
X036593Y040103D01*
X036603Y040101D01*
X036613Y040099D01*
X036625Y040099D01*
X036630D01*
X036633Y040099D01*
X036638D01*
X036643Y040100D01*
X036655Y040102D01*
X036668Y040105D01*
X036681Y040109D01*
X036693Y040115D01*
X036698Y040119D01*
X036703Y040123D01*
X036704Y040124D01*
X036704Y040124D01*
X036706Y040126D01*
X036707Y040128D01*
X036709Y040132D01*
X036711Y040135D01*
X036713Y040140D01*
X036715Y040145D01*
X036718Y040151D01*
X036719Y040158D01*
X036721Y040166D01*
X036723Y040175D01*
X036725Y040184D01*
X036726Y040195D01*
X036727Y040207D01*
Y040219D01*
Y040438D01*
X036777D01*
Y040219D01*
D02*
G37*
G36*
X036976Y040439D02*
X036980Y040438D01*
X036986Y040438D01*
X036992Y040437D01*
X036998Y040436D01*
X037012Y040432D01*
X037026Y040426D01*
X037033Y040423D01*
X037040Y040419D01*
X037047Y040414D01*
X037053Y040409D01*
X037053Y040408D01*
X037054Y040408D01*
X037055Y040406D01*
X037058Y040403D01*
X037060Y040401D01*
X037063Y040397D01*
X037066Y040393D01*
X037069Y040388D01*
X037075Y040378D01*
X037080Y040365D01*
X037082Y040358D01*
X037083Y040350D01*
X037084Y040343D01*
X037085Y040335D01*
Y040334D01*
Y040331D01*
X037084Y040326D01*
X037084Y040320D01*
X037083Y040314D01*
X037081Y040306D01*
X037078Y040298D01*
X037075Y040290D01*
X037075Y040289D01*
X037074Y040286D01*
X037071Y040282D01*
X037068Y040276D01*
X037064Y040269D01*
X037058Y040261D01*
X037052Y040253D01*
X037044Y040243D01*
X037043Y040242D01*
X037040Y040239D01*
X037037Y040236D01*
X037035Y040234D01*
X037031Y040230D01*
X037027Y040226D01*
X037023Y040222D01*
X037017Y040217D01*
X037012Y040211D01*
X037005Y040205D01*
X036998Y040199D01*
X036991Y040192D01*
X036982Y040185D01*
X036973Y040177D01*
X036972Y040177D01*
X036971Y040176D01*
X036969Y040174D01*
X036966Y040172D01*
X036963Y040169D01*
X036959Y040165D01*
X036951Y040158D01*
X036941Y040150D01*
X036933Y040142D01*
X036925Y040135D01*
X036922Y040132D01*
X036919Y040129D01*
X036918Y040129D01*
X036917Y040127D01*
X036915Y040125D01*
X036912Y040122D01*
X036909Y040118D01*
X036906Y040114D01*
X036899Y040105D01*
X037086D01*
Y040060D01*
X036835D01*
Y040061D01*
Y040063D01*
Y040066D01*
X036835Y040070D01*
X036836Y040075D01*
X036837Y040081D01*
X036838Y040086D01*
X036840Y040092D01*
Y040093D01*
X036841Y040093D01*
X036842Y040097D01*
X036844Y040101D01*
X036847Y040108D01*
X036852Y040116D01*
X036857Y040124D01*
X036863Y040133D01*
X036871Y040142D01*
Y040143D01*
X036872Y040144D01*
X036875Y040147D01*
X036880Y040152D01*
X036887Y040159D01*
X036895Y040167D01*
X036905Y040177D01*
X036918Y040188D01*
X036932Y040199D01*
X036932Y040200D01*
X036934Y040201D01*
X036938Y040204D01*
X036941Y040207D01*
X036946Y040212D01*
X036952Y040217D01*
X036958Y040222D01*
X036965Y040228D01*
X036979Y040241D01*
X036993Y040254D01*
X036999Y040261D01*
X037005Y040267D01*
X037011Y040273D01*
X037015Y040279D01*
Y040280D01*
X037016Y040281D01*
X037017Y040282D01*
X037018Y040284D01*
X037022Y040290D01*
X037027Y040298D01*
X037030Y040306D01*
X037034Y040316D01*
X037036Y040326D01*
X037037Y040336D01*
Y040336D01*
Y040337D01*
X037037Y040340D01*
X037036Y040346D01*
X037035Y040352D01*
X037033Y040359D01*
X037029Y040367D01*
X037024Y040374D01*
X037017Y040382D01*
X037016Y040383D01*
X037013Y040385D01*
X037010Y040388D01*
X037004Y040392D01*
X036996Y040395D01*
X036987Y040399D01*
X036977Y040401D01*
X036965Y040401D01*
X036962D01*
X036960Y040401D01*
X036953Y040400D01*
X036946Y040399D01*
X036938Y040396D01*
X036928Y040393D01*
X036920Y040388D01*
X036911Y040381D01*
X036910Y040380D01*
X036908Y040377D01*
X036905Y040373D01*
X036902Y040366D01*
X036898Y040359D01*
X036894Y040349D01*
X036892Y040338D01*
X036891Y040325D01*
X036844Y040330D01*
Y040331D01*
X036844Y040332D01*
Y040335D01*
X036845Y040339D01*
X036846Y040343D01*
X036847Y040348D01*
X036849Y040354D01*
X036850Y040360D01*
X036855Y040373D01*
X036861Y040387D01*
X036865Y040393D01*
X036870Y040400D01*
X036875Y040406D01*
X036880Y040411D01*
X036881Y040412D01*
X036882Y040412D01*
X036883Y040414D01*
X036886Y040415D01*
X036890Y040418D01*
X036893Y040420D01*
X036898Y040423D01*
X036903Y040425D01*
X036909Y040428D01*
X036916Y040431D01*
X036923Y040433D01*
X036930Y040435D01*
X036939Y040437D01*
X036947Y040438D01*
X036957Y040439D01*
X036966Y040439D01*
X036972D01*
X036976Y040439D01*
D02*
G37*
D10*
X038389Y019429D02*
G03*
X038389Y019429I-000049J000000D01*
G01*
X039189D02*
G03*
X039189Y019429I-000049J000000D01*
G01*
X037669D02*
G03*
X037669Y019429I-000049J000000D01*
G01*
X036919D02*
G03*
X036919Y019429I-000049J000000D01*
G01*
X043089Y043029D02*
G03*
X043089Y043029I-000098J000000D01*
G01*
X043433Y042763D02*
G03*
X043421Y043331I-000488J000274D01*
G01*
X042504Y042782D02*
G03*
X042529Y042736I000476J000233D01*
G01*
X042531Y043369D02*
G03*
X042502Y043319I000444J-000290D01*
G01*
X040169Y051307D02*
G03*
X040169Y051307I-000049J000000D01*
G01*
X038449Y041657D02*
G03*
X038449Y041657I-000049J000000D01*
G01*
X031407Y044926D02*
G03*
X031407Y044926I-000049J000000D01*
G01*
X050106Y042022D02*
G03*
X050106Y042022I-000049J000000D01*
G01*
X050715Y039985D02*
G03*
X050715Y039985I-000049J000000D01*
G01*
X036378Y043003D02*
G03*
X036378Y043003I-000049J000000D01*
G01*
X047351Y045125D02*
G03*
X047351Y045125I-000049J000000D01*
G01*
X051510Y044925D02*
G03*
X051510Y044925I-000049J000000D01*
G01*
X051559Y049059D02*
G03*
X051559Y049059I-000049J000000D01*
G01*
X050169D02*
G03*
X050169Y049059I-000049J000000D01*
G01*
X046942Y052487D02*
G03*
X046942Y052487I-000049J000000D01*
G01*
X033030Y044461D02*
G03*
X033030Y044461I-000049J000000D01*
G01*
X026057Y048116D02*
G03*
X026057Y048116I-000049J000000D01*
G01*
X025773Y048842D02*
G03*
X025773Y048842I-000020J000000D01*
G01*
X027683Y046145D02*
G03*
X027683Y046145I-000049J000000D01*
G01*
X020497Y042492D02*
G03*
X020497Y042492I-000049J000000D01*
G01*
X021784Y042845D02*
G03*
X021784Y042845I-000049J000000D01*
G01*
X019491Y043473D02*
G03*
X019491Y043473I-000049J000000D01*
G01*
X019348Y042837D02*
G03*
X019348Y042837I-000049J000000D01*
G01*
X023771Y034698D02*
G03*
X023771Y034698I-000049J000000D01*
G01*
X032966Y020865D02*
G03*
X032966Y020865I-000049J000000D01*
G01*
X031610Y019967D02*
G03*
X031610Y019967I-000049J000000D01*
G01*
X032963Y018682D02*
G03*
X032963Y018682I-000049J000000D01*
G01*
D11*
X015619Y041034D02*
G03*
X015619Y041034I-000039J000000D01*
G01*
X050628Y039041D02*
G03*
X050628Y039041I-000350J000000D01*
G01*
X054022Y045336D02*
G03*
X054022Y045336I-001102J000000D01*
G01*
X023618Y032865D02*
G03*
X023540Y032865I-000039J000000D01*
G01*
D02*
G03*
X023618Y032865I000039J000000D01*
G01*
X038183Y018681D02*
Y018759D01*
X038497Y018681D02*
Y018759D01*
X038983Y018681D02*
Y018759D01*
X039297Y018681D02*
Y018759D01*
X037463Y018681D02*
Y018759D01*
X037777Y018681D02*
Y018759D01*
X036713Y018681D02*
Y018759D01*
X037027Y018681D02*
Y018759D01*
X046577Y038780D02*
X047503D01*
X048280Y039557D02*
Y040483D01*
X046577Y041260D02*
X047503D01*
X045800Y039557D02*
Y040483D01*
X052450Y040801D02*
X053510D01*
Y043919D01*
X052450D02*
X053510D01*
X052450Y040801D02*
Y043919D01*
X048919Y036804D02*
X049181D01*
X049579D02*
X050841D01*
X049579Y039596D02*
X050841D01*
X048919D02*
X049181D01*
X050413Y039363D02*
X050590Y039185D01*
X050308Y039386D02*
X050619Y039077D01*
X050234Y039381D02*
X050619Y038998D01*
X050170Y039366D02*
X050605Y038934D01*
X048919Y036804D02*
Y039596D01*
X050841Y036804D02*
Y039596D01*
X049951Y039147D02*
X050385Y038715D01*
X049936Y039083D02*
X050321Y038700D01*
X049936Y039004D02*
X050247Y038695D01*
X049966Y038896D02*
X050143Y038719D01*
X039634Y046146D02*
X040106D01*
X039496Y046205D02*
Y047347D01*
X039260D02*
X039496D01*
X039260Y046205D02*
Y047347D01*
Y046205D02*
X039496D01*
X038840Y050204D02*
Y050756D01*
X040060Y050204D02*
Y050756D01*
X038840Y050204D02*
X040060D01*
X038840Y050756D02*
X040060D01*
X038240Y052020D02*
X038397D01*
X038240Y053400D02*
X038397D01*
X038911Y052592D02*
Y052828D01*
X037729Y052826D02*
X037729Y052590D01*
X043410Y049837D02*
Y050763D01*
X041707Y049060D02*
X042633D01*
X040930Y049837D02*
Y050763D01*
X041707Y051540D02*
X042633D01*
X039485Y041190D02*
Y042450D01*
X041415D01*
Y041190D02*
Y042450D01*
X039485Y041190D02*
X041415D01*
X039434Y040452D02*
Y041052D01*
X036179Y040070D02*
Y041130D01*
X031061D02*
X036179D01*
X031061Y040070D02*
Y041130D01*
Y040070D02*
X036179D01*
X039444Y037164D02*
Y037765D01*
X039495Y037902D02*
X041425D01*
Y039162D01*
X039495D02*
X041425D01*
X039495Y037902D02*
Y039162D01*
X043117Y041220D02*
X044043D01*
X042340Y039517D02*
Y040443D01*
X043117Y038740D02*
X044043D01*
X044820Y039517D02*
Y040443D01*
X037120Y041106D02*
X038340D01*
X037120Y040554D02*
X038340D01*
Y041106D01*
X037120Y040554D02*
Y041106D01*
X030925Y045635D02*
X031151D01*
X036289D02*
X036515D01*
Y050999D02*
Y051225D01*
Y045635D02*
Y045861D01*
X030925Y051225D02*
X031151D01*
X036289D02*
X036515D01*
X030925Y050999D02*
Y051225D01*
Y045635D02*
Y045861D01*
X050041Y017950D02*
Y019010D01*
Y017950D02*
X052159D01*
Y019010D01*
X050041D02*
X052159D01*
X029561Y038310D02*
Y039370D01*
Y038310D02*
X031679D01*
Y039370D01*
X029561D02*
X031679D01*
X029531Y035310D02*
Y036370D01*
Y035310D02*
X031649D01*
Y036370D01*
X029531D02*
X031649D01*
X051317Y042445D02*
Y042701D01*
X050175D02*
X051317D01*
X050175Y042445D02*
Y042701D01*
Y042445D02*
X051317D01*
X050440Y040792D02*
X051640D01*
Y041068D01*
X050440D02*
X051640D01*
X050440Y040792D02*
Y041068D01*
X035039Y042295D02*
X035364D01*
X035039D02*
Y042688D01*
X035896Y042295D02*
X036220D01*
Y042688D01*
X050920Y051803D02*
Y052217D01*
X048620Y045587D02*
Y046493D01*
X047400Y045587D02*
Y046493D01*
X048620D01*
X047400Y045587D02*
X048620D01*
X026960Y052910D02*
X027060Y053110D01*
X026060D02*
X026160Y052910D01*
X026060Y053690D02*
X026160Y053890D01*
X026960D02*
X027060Y053690D01*
X027160Y053890D01*
X027960D01*
X028060Y053690D01*
X027960Y052910D02*
X028060Y053110D01*
X027160Y052910D02*
X027960D01*
X027060Y053110D02*
X027160Y052910D01*
X028060Y053690D02*
X028160Y053890D01*
X028960D01*
X029060Y053690D01*
X028960Y052910D02*
X029060Y053110D01*
X028160Y052910D02*
X028960D01*
X028060Y053110D02*
X028160Y052910D01*
X029060Y053690D02*
X029160Y053890D01*
X029960D01*
X030060Y053690D01*
X029960Y052910D02*
X030060Y053110D01*
X029160Y052910D02*
X029960D01*
X029060Y053110D02*
X029160Y052910D01*
X030060Y053110D02*
X030160Y052910D01*
X030960D01*
X031060Y053110D01*
Y053690D01*
X030960Y053890D02*
X031060Y053690D01*
X030160Y053890D02*
X030960D01*
X030060Y053690D02*
X030160Y053890D01*
X026060Y053110D02*
Y053690D01*
X026160Y052910D02*
X026960D01*
X026160Y053890D02*
X026960D01*
X050909Y044964D02*
Y045476D01*
X050988Y044964D02*
Y045476D01*
X051067Y044964D02*
Y045476D01*
X050535D02*
X051205D01*
X050535Y044964D02*
X051205D01*
X052081Y046844D02*
Y048656D01*
X050939Y046844D02*
X051040D01*
X051980D02*
X052081D01*
X050939D02*
Y048656D01*
X051040D01*
X051980D02*
X052081D01*
X050978Y048045D02*
X052042D01*
X050691Y046844D02*
Y048656D01*
X049549Y046844D02*
X049650D01*
X050590D02*
X050691D01*
X049549D02*
Y048656D01*
X049650D01*
X050590D02*
X050691D01*
X049588Y048045D02*
X050651D01*
X050306Y050283D02*
Y050677D01*
X051014Y050283D02*
Y050677D01*
X050084Y050283D02*
Y050677D01*
X049376Y050283D02*
Y050677D01*
X047483Y050775D02*
X048389D01*
X047483Y052349D02*
X048389D01*
X044626Y052702D02*
Y052938D01*
X045374Y052702D02*
Y052938D01*
X049306Y052472D02*
Y052708D01*
X050054Y052472D02*
Y052708D01*
X025623Y048985D02*
X025780D01*
X025623D02*
Y049142D01*
X027080Y048985D02*
X027237D01*
Y049142D01*
Y050442D02*
Y050599D01*
X027080D02*
X027237D01*
X025623D02*
X025780D01*
X025623Y050442D02*
Y050599D01*
X019335Y042335D02*
X020575D01*
X019335Y040445D02*
X020575D01*
X022070Y040776D02*
Y042744D01*
X023290Y040776D02*
Y042744D01*
X022070D02*
X023290D01*
X022070Y040776D02*
X023290D01*
X020150Y043394D02*
Y043866D01*
X018619Y044097D02*
X018875D01*
X018619Y042955D02*
Y044097D01*
Y042955D02*
X018875D01*
Y044097D01*
X023010Y036563D02*
Y036977D01*
X023122Y034344D02*
X023515Y034737D01*
X021823Y034344D02*
Y034737D01*
Y035643D02*
Y036036D01*
Y034344D02*
X023122D01*
X021823Y036036D02*
X023122D01*
X023515Y035643D01*
X041171Y019262D02*
X041328D01*
X042234D02*
X042391D01*
X041171Y018041D02*
X041328D01*
X042234D02*
X042391D01*
X041171Y019154D02*
Y019262D01*
Y018041D02*
Y018150D01*
X042391Y019154D02*
Y019262D01*
Y018041D02*
Y018150D01*
X026288Y026144D02*
X026702D01*
X027002Y025264D02*
X027238D01*
X027002Y024516D02*
X027238D01*
X026131Y019348D02*
X031052D01*
X026131Y024270D02*
X031052D01*
X026131Y019348D02*
Y020510D01*
X031052Y019348D02*
Y020510D01*
Y023108D02*
Y024270D01*
X026131Y023108D02*
Y024270D01*
X031656Y022323D02*
Y022717D01*
X032364Y022323D02*
Y022717D01*
X031635Y020385D02*
Y020975D01*
X032305Y020385D02*
Y020975D01*
X031635Y020385D02*
X032305D01*
X031635Y020463D02*
X032305D01*
X031635Y020542D02*
X032305D01*
X033121Y017461D02*
X033711Y016871D01*
X033121Y018879D02*
X033711Y019469D01*
X035719Y018662D02*
Y019469D01*
Y016871D02*
Y017717D01*
X033711Y019469D02*
X035719D01*
X033711Y016871D02*
X035719D01*
X033121Y018623D02*
Y018879D01*
Y017461D02*
Y017717D01*
X032374Y017541D02*
Y017777D01*
X031626Y017541D02*
Y017777D01*
X024121Y017712D02*
Y017948D01*
X025539Y017712D02*
Y017948D01*
X022892Y018015D02*
X023345D01*
X037749Y053497D02*
X037795D01*
Y053451D01*
X037749D01*
Y053497D01*
D12*
X052920Y045769D02*
G03*
X052830Y045760I000000J-000433D01*
G01*
Y044913D02*
G03*
X052920Y044903I000090J000424D01*
G01*
X053352Y045768D02*
G03*
X052920Y045947I-000432J-000432D01*
G01*
Y044726D02*
G03*
X053352Y044905I000000J000610D01*
G01*
X052356Y045570D02*
G03*
X052310Y045336I000564J-000234D01*
G01*
X053530D02*
G03*
X053530Y045336I-000610J000000D01*
G01*
X052310D02*
G03*
X052356Y045103I000610J000000D01*
G01*
X053353Y045336D02*
G03*
X053353Y045336I-000433J000000D01*
G01*
X042569Y018041D02*
G03*
X042569Y018041I-000020J000000D01*
G01*
X018658Y019716D02*
X020036D01*
X016965Y032550D02*
X017520D01*
X016965Y026920D02*
Y032550D01*
Y019716D02*
Y025345D01*
Y019716D02*
X017520D01*
X021260D02*
X022638D01*
X023622D02*
X024288D01*
Y032550D01*
X023819D02*
X024288D01*
X019685D02*
X022638D01*
D13*
X026419Y054100D02*
G03*
X026419Y054100I-000059J000000D01*
G01*
D14*
X053450Y023440D02*
G03*
X053450Y023440I-001280J000000D01*
G01*
X043607D02*
G03*
X043607Y023440I-001280J000000D01*
G01*
Y033283D02*
G03*
X043607Y033283I-001280J000000D01*
G01*
X053450D02*
G03*
X053450Y033283I-001280J000000D01*
G01*
X042518Y043935D02*
X043562D01*
X042046Y043463D02*
X042518Y043935D01*
X042046Y042596D02*
Y043463D01*
Y042596D02*
X042498Y042144D01*
X043502D01*
X043778Y042419D01*
Y043718D01*
X043562Y043935D02*
X043778Y043718D01*
Y043266D02*
X043936D01*
Y042872D02*
Y043266D01*
X043817Y042872D02*
X043936D01*
X054690Y020920D02*
Y035802D01*
X039808D02*
X054690D01*
X039808Y020920D02*
Y035802D01*
Y020920D02*
X054690D01*
Y023440D01*
X045225Y018306D02*
Y020920D01*
Y018306D02*
X049225D01*
Y020920D01*
D15*
X026800Y023679D02*
G03*
X026800Y023679I-000079J000000D01*
G01*
D16*
X015830Y040807D02*
X016007D01*
X015830Y039055D02*
X016007D01*
X015416Y039392D02*
Y040471D01*
X016007Y040612D02*
Y040807D01*
Y039055D02*
Y039250D01*
X015043Y046054D02*
Y053436D01*
Y046054D02*
X023114D01*
Y053436D01*
X015043D02*
X023114D01*
D17*
X015168Y041413D02*
Y044366D01*
X017107Y041413D02*
Y041600D01*
Y044179D02*
Y044366D01*
X038230Y017240D02*
X038530D01*
Y017390D01*
X038480Y017440D01*
X038280D01*
X038230Y017390D01*
Y017240D01*
Y017540D02*
X038530D01*
Y017740D01*
Y017990D02*
X038230D01*
X038380Y017840D01*
Y018040D01*
X039010Y017230D02*
X039310D01*
Y017380D01*
X039260Y017430D01*
X039060D01*
X039010Y017380D01*
Y017230D01*
Y017530D02*
X039310D01*
Y017730D01*
X039060Y017830D02*
X039010Y017880D01*
Y017980D01*
X039060Y018030D01*
X039110D01*
X039160Y017980D01*
Y017930D01*
Y017980D01*
X039210Y018030D01*
X039260D01*
X039310Y017980D01*
Y017880D01*
X039260Y017830D01*
X037470Y017230D02*
X037770D01*
Y017380D01*
X037720Y017430D01*
X037520D01*
X037470Y017380D01*
Y017230D01*
Y017530D02*
X037770D01*
Y017730D01*
Y018030D02*
Y017830D01*
X037570Y018030D01*
X037520D01*
X037470Y017980D01*
Y017880D01*
X037520Y017830D01*
X036720Y017210D02*
X037020D01*
Y017360D01*
X036970Y017410D01*
X036770D01*
X036720Y017360D01*
Y017210D01*
Y017510D02*
X037020D01*
Y017710D01*
Y017810D02*
Y017910D01*
Y017860D01*
X036720D01*
X036770Y017810D01*
X038500Y020605D02*
X038200D01*
Y020755D01*
X038250Y020805D01*
X038350D01*
X038400Y020755D01*
Y020605D01*
Y020705D02*
X038500Y020805D01*
Y020905D02*
Y021005D01*
Y020955D01*
X038200D01*
X038250Y020905D01*
Y021155D02*
X038200Y021205D01*
Y021305D01*
X038250Y021355D01*
X038450D01*
X038500Y021305D01*
Y021205D01*
X038450Y021155D01*
X038250D01*
Y021455D02*
X038200Y021505D01*
Y021605D01*
X038250Y021655D01*
X038450D01*
X038500Y021605D01*
Y021505D01*
X038450Y021455D01*
X038250D01*
X039290Y020600D02*
X038990D01*
Y020750D01*
X039040Y020800D01*
X039140D01*
X039190Y020750D01*
Y020600D01*
Y020700D02*
X039290Y020800D01*
X039240Y020900D02*
X039290Y020950D01*
Y021050D01*
X039240Y021100D01*
X039040D01*
X038990Y021050D01*
Y020950D01*
X039040Y020900D01*
X039090D01*
X039140Y020950D01*
Y021100D01*
X039040Y021200D02*
X038990Y021250D01*
Y021350D01*
X039040Y021400D01*
X039090D01*
X039140Y021350D01*
X039190Y021400D01*
X039240D01*
X039290Y021350D01*
Y021250D01*
X039240Y021200D01*
X039190D01*
X039140Y021250D01*
X039090Y021200D01*
X039040D01*
X039140Y021250D02*
Y021350D01*
X037790Y020650D02*
X037490D01*
Y020800D01*
X037540Y020850D01*
X037640D01*
X037690Y020800D01*
Y020650D01*
Y020750D02*
X037790Y020850D01*
X037740Y020950D02*
X037790Y021000D01*
Y021100D01*
X037740Y021150D01*
X037540D01*
X037490Y021100D01*
Y021000D01*
X037540Y020950D01*
X037590D01*
X037640Y021000D01*
Y021150D01*
X037490Y021250D02*
Y021450D01*
X037540D01*
X037740Y021250D01*
X037790D01*
X037040Y020610D02*
X036740D01*
Y020760D01*
X036790Y020810D01*
X036890D01*
X036940Y020760D01*
Y020610D01*
Y020710D02*
X037040Y020810D01*
X036990Y020910D02*
X037040Y020960D01*
Y021060D01*
X036990Y021110D01*
X036790D01*
X036740Y021060D01*
Y020960D01*
X036790Y020910D01*
X036840D01*
X036890Y020960D01*
Y021110D01*
X036740Y021410D02*
X036790Y021310D01*
X036890Y021210D01*
X036990D01*
X037040Y021260D01*
Y021360D01*
X036990Y021410D01*
X036940D01*
X036890Y021360D01*
Y021210D01*
X025185Y040050D02*
Y040350D01*
X025335D01*
X025385Y040300D01*
Y040200D01*
X025335Y040150D01*
X025185D01*
X025285D02*
X025385Y040050D01*
X025485D02*
X025585D01*
X025535D01*
Y040350D01*
X025485Y040300D01*
X025735Y040100D02*
X025785Y040050D01*
X025885D01*
X025935Y040100D01*
Y040300D01*
X025885Y040350D01*
X025785D01*
X025735Y040300D01*
Y040250D01*
X025785Y040200D01*
X025935D01*
X025180Y039600D02*
Y039900D01*
X025330D01*
X025380Y039850D01*
Y039750D01*
X025330Y039700D01*
X025180D01*
X025280D02*
X025380Y039600D01*
X025680D02*
X025480D01*
X025680Y039800D01*
Y039850D01*
X025630Y039900D01*
X025530D01*
X025480Y039850D01*
X025980Y039900D02*
X025780D01*
Y039750D01*
X025880Y039800D01*
X025930D01*
X025980Y039750D01*
Y039650D01*
X025930Y039600D01*
X025830D01*
X025780Y039650D01*
X025190Y039130D02*
Y039430D01*
X025340D01*
X025390Y039380D01*
Y039280D01*
X025340Y039230D01*
X025190D01*
X025290D02*
X025390Y039130D01*
X025690Y039430D02*
X025490D01*
Y039280D01*
X025590Y039330D01*
X025640D01*
X025690Y039280D01*
Y039180D01*
X025640Y039130D01*
X025540D01*
X025490Y039180D01*
X025990Y039430D02*
X025790D01*
Y039280D01*
X025890Y039330D01*
X025940D01*
X025990Y039280D01*
Y039180D01*
X025940Y039130D01*
X025840D01*
X025790Y039180D01*
X015818Y041372D02*
Y041072D01*
X016018D01*
X016118Y041372D02*
Y041072D01*
X016268D01*
X016318Y041122D01*
Y041322D01*
X016268Y041372D01*
X016118D01*
X016418Y041072D02*
X016518D01*
X016468D01*
Y041372D01*
X016418Y041322D01*
X041953Y043960D02*
X041887D01*
X041920D01*
Y043793D01*
X041887Y043760D01*
X041853D01*
X041820Y043793D01*
X042153Y043960D02*
X042020D01*
Y043860D01*
X042087Y043893D01*
X042120D01*
X042153Y043860D01*
Y043793D01*
X042120Y043760D01*
X042053D01*
X042020Y043793D01*
X035737Y041669D02*
X035470D01*
Y041469D01*
X035604Y041536D01*
X035670D01*
X035737Y041469D01*
Y041336D01*
X035670Y041269D01*
X035537D01*
X035470Y041336D01*
X031573Y041269D02*
X031706D01*
X031639D01*
Y041669D01*
X031573Y041603D01*
X051077Y037810D02*
Y038010D01*
X051177D01*
X051210Y037977D01*
Y037910D01*
X051177Y037877D01*
X051077D01*
X051277Y037810D02*
X051343D01*
X051310D01*
Y038010D01*
X051277Y037977D01*
X053237Y040540D02*
X053170D01*
X053203D01*
Y040373D01*
X053170Y040340D01*
X053137D01*
X053103Y040373D01*
X053303D02*
X053337Y040340D01*
X053403D01*
X053437Y040373D01*
Y040507D01*
X053403Y040540D01*
X053337D01*
X053303Y040507D01*
Y040473D01*
X053337Y040440D01*
X053437D01*
X037830Y049727D02*
X037797Y049760D01*
X037730D01*
X037697Y049727D01*
Y049593D01*
X037730Y049560D01*
X037797D01*
X037830Y049593D01*
X038030Y049560D02*
X037897D01*
X038030Y049693D01*
Y049727D01*
X037997Y049760D01*
X037930D01*
X037897Y049727D01*
X038097Y049560D02*
X038163D01*
X038130D01*
Y049760D01*
X038097Y049727D01*
X032143Y052997D02*
X032110Y053030D01*
X032043D01*
X032010Y052997D01*
Y052863D01*
X032043Y052830D01*
X032110D01*
X032143Y052863D01*
X032210Y052830D02*
X032277D01*
X032243D01*
Y053030D01*
X032210Y052997D01*
X032377D02*
X032410Y053030D01*
X032477D01*
X032510Y052997D01*
Y052963D01*
X032477Y052930D01*
X032510Y052897D01*
Y052863D01*
X032477Y052830D01*
X032410D01*
X032377Y052863D01*
Y052897D01*
X032410Y052930D01*
X032377Y052963D01*
Y052997D01*
X032410Y052930D02*
X032477D01*
X046900Y042630D02*
Y042830D01*
X047000D01*
X047033Y042797D01*
Y042730D01*
X047000Y042697D01*
X046900D01*
X046967D02*
X047033Y042630D01*
X047100D02*
X047167D01*
X047133D01*
Y042830D01*
X047100Y042797D01*
X047267D02*
X047300Y042830D01*
X047367D01*
X047400Y042797D01*
Y042663D01*
X047367Y042630D01*
X047300D01*
X047267Y042663D01*
Y042797D01*
X047467Y042830D02*
X047600D01*
Y042797D01*
X047467Y042663D01*
Y042630D01*
X038653Y042803D02*
X038620Y042770D01*
Y042703D01*
X038653Y042670D01*
X038787D01*
X038820Y042703D01*
Y042770D01*
X038787Y042803D01*
X038820Y042870D02*
Y042937D01*
Y042903D01*
X038620D01*
X038653Y042870D01*
X038620Y043037D02*
Y043170D01*
X038653D01*
X038787Y043037D01*
X038820D01*
X038723Y039393D02*
X038690Y039360D01*
Y039293D01*
X038723Y039260D01*
X038857D01*
X038890Y039293D01*
Y039360D01*
X038857Y039393D01*
X038890Y039460D02*
Y039527D01*
Y039493D01*
X038690D01*
X038723Y039460D01*
X038690Y039760D02*
X038723Y039693D01*
X038790Y039627D01*
X038857D01*
X038890Y039660D01*
Y039727D01*
X038857Y039760D01*
X038823D01*
X038790Y039727D01*
Y039627D01*
X036717Y044620D02*
Y044820D01*
X036817D01*
X036850Y044787D01*
Y044720D01*
X036817Y044687D01*
X036717D01*
X036783D02*
X036850Y044620D01*
X036917D02*
X036983D01*
X036950D01*
Y044820D01*
X036917Y044787D01*
X037083Y044620D02*
X037150D01*
X037117D01*
Y044820D01*
X037083Y044787D01*
X037250D02*
X037283Y044820D01*
X037350D01*
X037383Y044787D01*
Y044653D01*
X037350Y044620D01*
X037283D01*
X037250Y044653D01*
Y044787D01*
X028530Y046370D02*
Y046570D01*
X028630D01*
X028663Y046537D01*
Y046470D01*
X028630Y046437D01*
X028530D01*
X028597D02*
X028663Y046370D01*
X028730D02*
X028797D01*
X028763D01*
Y046570D01*
X028730Y046537D01*
X028897D02*
X028930Y046570D01*
X028997D01*
X029030Y046537D01*
Y046403D01*
X028997Y046370D01*
X028930D01*
X028897Y046403D01*
Y046537D01*
X029097Y046403D02*
X029130Y046370D01*
X029197D01*
X029230Y046403D01*
Y046537D01*
X029197Y046570D01*
X029130D01*
X029097Y046537D01*
Y046503D01*
X029130Y046470D01*
X029230D01*
X029503Y050910D02*
Y051110D01*
X029603D01*
X029637Y051077D01*
Y051010D01*
X029603Y050977D01*
X029503D01*
X029570D02*
X029637Y050910D01*
X029837Y051110D02*
X029703D01*
Y051010D01*
X029770Y051043D01*
X029803D01*
X029837Y051010D01*
Y050943D01*
X029803Y050910D01*
X029737D01*
X029703Y050943D01*
X030003Y050910D02*
Y051110D01*
X029903Y051010D01*
X030037D01*
X037373Y047730D02*
Y047930D01*
X037473D01*
X037507Y047897D01*
Y047830D01*
X037473Y047797D01*
X037373D01*
X037440D02*
X037507Y047730D01*
X037707Y047930D02*
X037573D01*
Y047830D01*
X037640Y047863D01*
X037673D01*
X037707Y047830D01*
Y047763D01*
X037673Y047730D01*
X037607D01*
X037573Y047763D01*
X037773Y047897D02*
X037807Y047930D01*
X037873D01*
X037907Y047897D01*
Y047863D01*
X037873Y047830D01*
X037840D01*
X037873D01*
X037907Y047797D01*
Y047763D01*
X037873Y047730D01*
X037807D01*
X037773Y047763D01*
X031890Y044223D02*
X031690D01*
Y044323D01*
X031723Y044357D01*
X031790D01*
X031823Y044323D01*
Y044223D01*
Y044290D02*
X031890Y044357D01*
Y044557D02*
Y044423D01*
X031757Y044557D01*
X031723D01*
X031690Y044523D01*
Y044457D01*
X031723Y044423D01*
Y044623D02*
X031690Y044657D01*
Y044723D01*
X031723Y044757D01*
X031757D01*
X031790Y044723D01*
Y044690D01*
Y044723D01*
X031823Y044757D01*
X031857D01*
X031890Y044723D01*
Y044657D01*
X031857Y044623D01*
X028697Y047040D02*
Y047240D01*
X028797D01*
X028830Y047207D01*
Y047140D01*
X028797Y047107D01*
X028697D01*
X028763D02*
X028830Y047040D01*
X029030D02*
X028897D01*
X029030Y047173D01*
Y047207D01*
X028997Y047240D01*
X028930D01*
X028897Y047207D01*
X029097Y047040D02*
X029163D01*
X029130D01*
Y047240D01*
X029097Y047207D01*
X028663Y046700D02*
Y046900D01*
X028763D01*
X028797Y046867D01*
Y046800D01*
X028763Y046767D01*
X028663D01*
X028730D02*
X028797Y046700D01*
X028997D02*
X028863D01*
X028997Y046833D01*
Y046867D01*
X028963Y046900D01*
X028897D01*
X028863Y046867D01*
X029063D02*
X029097Y046900D01*
X029163D01*
X029197Y046867D01*
Y046733D01*
X029163Y046700D01*
X029097D01*
X029063Y046733D01*
Y046867D01*
X031377Y043917D02*
X031343Y043950D01*
X031277D01*
X031243Y043917D01*
Y043783D01*
X031277Y043750D01*
X031343D01*
X031377Y043783D01*
X031443D02*
X031477Y043750D01*
X031543D01*
X031577Y043783D01*
Y043917D01*
X031543Y043950D01*
X031477D01*
X031443Y043917D01*
Y043883D01*
X031477Y043850D01*
X031577D01*
X031777Y043950D02*
X031643D01*
Y043850D01*
X031710Y043883D01*
X031743D01*
X031777Y043850D01*
Y043783D01*
X031743Y043750D01*
X031677D01*
X031643Y043783D01*
X037537Y045857D02*
X037503Y045890D01*
X037437D01*
X037403Y045857D01*
Y045723D01*
X037437Y045690D01*
X037503D01*
X037537Y045723D01*
X037603D02*
X037637Y045690D01*
X037703D01*
X037737Y045723D01*
Y045857D01*
X037703Y045890D01*
X037637D01*
X037603Y045857D01*
Y045823D01*
X037637Y045790D01*
X037737D01*
X037903Y045690D02*
Y045890D01*
X037803Y045790D01*
X037937D01*
X032403Y044357D02*
X032370Y044323D01*
Y044257D01*
X032403Y044223D01*
X032537D01*
X032570Y044257D01*
Y044323D01*
X032537Y044357D01*
Y044423D02*
X032570Y044457D01*
Y044523D01*
X032537Y044557D01*
X032403D01*
X032370Y044523D01*
Y044457D01*
X032403Y044423D01*
X032437D01*
X032470Y044457D01*
Y044557D01*
X032403Y044623D02*
X032370Y044657D01*
Y044723D01*
X032403Y044757D01*
X032437D01*
X032470Y044723D01*
Y044690D01*
Y044723D01*
X032503Y044757D01*
X032537D01*
X032570Y044723D01*
Y044657D01*
X032537Y044623D01*
X029567Y045677D02*
X029533Y045710D01*
X029467D01*
X029433Y045677D01*
Y045543D01*
X029467Y045510D01*
X029533D01*
X029567Y045543D01*
X029633D02*
X029667Y045510D01*
X029733D01*
X029767Y045543D01*
Y045677D01*
X029733Y045710D01*
X029667D01*
X029633Y045677D01*
Y045643D01*
X029667Y045610D01*
X029767D01*
X029967Y045510D02*
X029833D01*
X029967Y045643D01*
Y045677D01*
X029933Y045710D01*
X029867D01*
X029833Y045677D01*
X037507Y051387D02*
X037473Y051420D01*
X037407D01*
X037373Y051387D01*
Y051253D01*
X037407Y051220D01*
X037473D01*
X037507Y051253D01*
X037573Y051387D02*
X037607Y051420D01*
X037673D01*
X037707Y051387D01*
Y051353D01*
X037673Y051320D01*
X037640D01*
X037673D01*
X037707Y051287D01*
Y051253D01*
X037673Y051220D01*
X037607D01*
X037573Y051253D01*
X037907Y051420D02*
X037840Y051387D01*
X037773Y051320D01*
Y051253D01*
X037807Y051220D01*
X037873D01*
X037907Y051253D01*
Y051287D01*
X037873Y051320D01*
X037773D01*
X030803Y052223D02*
X030770Y052190D01*
Y052123D01*
X030803Y052090D01*
X030937D01*
X030970Y052123D01*
Y052190D01*
X030937Y052223D01*
X030970Y052290D02*
Y052357D01*
Y052323D01*
X030770D01*
X030803Y052290D01*
X030937Y052457D02*
X030970Y052490D01*
Y052557D01*
X030937Y052590D01*
X030803D01*
X030770Y052557D01*
Y052490D01*
X030803Y052457D01*
X030837D01*
X030870Y052490D01*
Y052590D01*
X038103Y043303D02*
X038070Y043270D01*
Y043203D01*
X038103Y043170D01*
X038237D01*
X038270Y043203D01*
Y043270D01*
X038237Y043303D01*
X038270Y043370D02*
Y043437D01*
Y043403D01*
X038070D01*
X038103Y043370D01*
X038070Y043670D02*
Y043537D01*
X038170D01*
X038137Y043603D01*
Y043637D01*
X038170Y043670D01*
X038237D01*
X038270Y043637D01*
Y043570D01*
X038237Y043537D01*
X033967Y041470D02*
X033900D01*
X033933D01*
Y041303D01*
X033900Y041270D01*
X033867D01*
X033833Y041303D01*
X034033Y041437D02*
X034067Y041470D01*
X034133D01*
X034167Y041437D01*
Y041403D01*
X034133Y041370D01*
X034167Y041337D01*
Y041303D01*
X034133Y041270D01*
X034067D01*
X034033Y041303D01*
Y041337D01*
X034067Y041370D01*
X034033Y041403D01*
Y041437D01*
X034067Y041370D02*
X034133D01*
X039233Y047890D02*
Y047723D01*
X039267Y047690D01*
X039333D01*
X039367Y047723D01*
Y047890D01*
X039433Y047690D02*
X039500D01*
X039467D01*
Y047890D01*
X039433Y047857D01*
X039600Y047690D02*
X039667D01*
X039633D01*
Y047890D01*
X039600Y047857D01*
X051910Y039210D02*
X051710D01*
Y039310D01*
X051743Y039343D01*
X051810D01*
X051843Y039310D01*
Y039210D01*
Y039277D02*
X051910Y039343D01*
Y039410D02*
Y039477D01*
Y039443D01*
X051710D01*
X051743Y039410D01*
Y039577D02*
X051710Y039610D01*
Y039677D01*
X051743Y039710D01*
X051877D01*
X051910Y039677D01*
Y039610D01*
X051877Y039577D01*
X051743D01*
Y039777D02*
X051710Y039810D01*
Y039877D01*
X051743Y039910D01*
X051777D01*
X051810Y039877D01*
X051843Y039910D01*
X051877D01*
X051910Y039877D01*
Y039810D01*
X051877Y039777D01*
X051843D01*
X051810Y039810D01*
X051777Y039777D01*
X051743D01*
X051810Y039810D02*
Y039877D01*
X042177Y052170D02*
X042110D01*
X042143D01*
Y052003D01*
X042110Y051970D01*
X042077D01*
X042043Y052003D01*
X042243Y052170D02*
X042377D01*
Y052137D01*
X042243Y052003D01*
Y051970D01*
X042662Y042165D02*
X042595D01*
X042628D01*
Y041998D01*
X042595Y041965D01*
X042562D01*
X042528Y041998D01*
X042861Y042165D02*
X042795Y042132D01*
X042728Y042065D01*
Y041998D01*
X042761Y041965D01*
X042828D01*
X042861Y041998D01*
Y042032D01*
X042828Y042065D01*
X042728D01*
X041620Y038470D02*
X041687D01*
X041653D01*
Y038270D01*
X041620D01*
X041687D01*
X041920Y038437D02*
X041887Y038470D01*
X041820D01*
X041787Y038437D01*
Y038303D01*
X041820Y038270D01*
X041887D01*
X041920Y038303D01*
X041987Y038437D02*
X042020Y038470D01*
X042087D01*
X042120Y038437D01*
Y038403D01*
X042087Y038370D01*
X042120Y038337D01*
Y038303D01*
X042087Y038270D01*
X042020D01*
X041987Y038303D01*
Y038337D01*
X042020Y038370D01*
X041987Y038403D01*
Y038437D01*
X042020Y038370D02*
X042087D01*
X041650Y041980D02*
X041717D01*
X041683D01*
Y041780D01*
X041650D01*
X041717D01*
X041950Y041947D02*
X041917Y041980D01*
X041850D01*
X041817Y041947D01*
Y041813D01*
X041850Y041780D01*
X041917D01*
X041950Y041813D01*
X042017Y041980D02*
X042150D01*
Y041947D01*
X042017Y041813D01*
Y041780D01*
X039150Y045880D02*
X039217D01*
X039183D01*
Y045680D01*
X039150D01*
X039217D01*
X039450Y045847D02*
X039417Y045880D01*
X039350D01*
X039317Y045847D01*
Y045713D01*
X039350Y045680D01*
X039417D01*
X039450Y045713D01*
X039650Y045880D02*
X039583Y045847D01*
X039517Y045780D01*
Y045713D01*
X039550Y045680D01*
X039617D01*
X039650Y045713D01*
Y045747D01*
X039617Y045780D01*
X039517D01*
X040423Y052143D02*
X040390Y052110D01*
Y052043D01*
X040423Y052010D01*
X040557D01*
X040590Y052043D01*
Y052110D01*
X040557Y052143D01*
X040590Y052210D02*
Y052277D01*
Y052243D01*
X040390D01*
X040423Y052210D01*
Y052377D02*
X040390Y052410D01*
Y052477D01*
X040423Y052510D01*
X040557D01*
X040590Y052477D01*
Y052410D01*
X040557Y052377D01*
X040423D01*
X040590Y052677D02*
X040390D01*
X040490Y052577D01*
Y052710D01*
X040043Y053237D02*
X040010Y053270D01*
X039943D01*
X039910Y053237D01*
Y053103D01*
X039943Y053070D01*
X040010D01*
X040043Y053103D01*
X040110Y053070D02*
X040177D01*
X040143D01*
Y053270D01*
X040110Y053237D01*
X040277D02*
X040310Y053270D01*
X040377D01*
X040410Y053237D01*
Y053103D01*
X040377Y053070D01*
X040310D01*
X040277Y053103D01*
Y053237D01*
X040477D02*
X040510Y053270D01*
X040577D01*
X040610Y053237D01*
Y053203D01*
X040577Y053170D01*
X040543D01*
X040577D01*
X040610Y053137D01*
Y053103D01*
X040577Y053070D01*
X040510D01*
X040477Y053103D01*
X040803Y046683D02*
X040770Y046650D01*
Y046583D01*
X040803Y046550D01*
X040937D01*
X040970Y046583D01*
Y046650D01*
X040937Y046683D01*
X040970Y046750D02*
Y046817D01*
Y046783D01*
X040770D01*
X040803Y046750D01*
Y046917D02*
X040770Y046950D01*
Y047017D01*
X040803Y047050D01*
X040937D01*
X040970Y047017D01*
Y046950D01*
X040937Y046917D01*
X040803D01*
X040970Y047250D02*
Y047117D01*
X040837Y047250D01*
X040803D01*
X040770Y047217D01*
Y047150D01*
X040803Y047117D01*
X041183Y052177D02*
X041150Y052143D01*
Y052077D01*
X041183Y052043D01*
X041317D01*
X041350Y052077D01*
Y052143D01*
X041317Y052177D01*
X041350Y052243D02*
Y052310D01*
Y052277D01*
X041150D01*
X041183Y052243D01*
Y052410D02*
X041150Y052443D01*
Y052510D01*
X041183Y052543D01*
X041317D01*
X041350Y052510D01*
Y052443D01*
X041317Y052410D01*
X041183D01*
X041350Y052610D02*
Y052677D01*
Y052643D01*
X041150D01*
X041183Y052610D01*
X040793Y052163D02*
X040760Y052130D01*
Y052063D01*
X040793Y052030D01*
X040927D01*
X040960Y052063D01*
Y052130D01*
X040927Y052163D01*
X040960Y052230D02*
Y052297D01*
Y052263D01*
X040760D01*
X040793Y052230D01*
Y052397D02*
X040760Y052430D01*
Y052497D01*
X040793Y052530D01*
X040927D01*
X040960Y052497D01*
Y052430D01*
X040927Y052397D01*
X040793D01*
Y052597D02*
X040760Y052630D01*
Y052697D01*
X040793Y052730D01*
X040927D01*
X040960Y052697D01*
Y052630D01*
X040927Y052597D01*
X040793D01*
X029520Y045260D02*
Y045093D01*
X029553Y045060D01*
X029620D01*
X029653Y045093D01*
Y045260D01*
X029720Y045060D02*
X029787D01*
X029753D01*
Y045260D01*
X029720Y045227D01*
X029887D02*
X029920Y045260D01*
X029987D01*
X030020Y045227D01*
Y045093D01*
X029987Y045060D01*
X029920D01*
X029887Y045093D01*
Y045227D01*
X029500Y036720D02*
Y036920D01*
X029600D01*
X029633Y036887D01*
Y036820D01*
X029600Y036787D01*
X029500D01*
X029800Y036720D02*
Y036920D01*
X029700Y036820D01*
X029833D01*
X029530Y039720D02*
Y039920D01*
X029630D01*
X029663Y039887D01*
Y039820D01*
X029630Y039787D01*
X029530D01*
X029730Y039887D02*
X029763Y039920D01*
X029830D01*
X029863Y039887D01*
Y039853D01*
X029830Y039820D01*
X029797D01*
X029830D01*
X029863Y039787D01*
Y039753D01*
X029830Y039720D01*
X029763D01*
X029730Y039753D01*
X050010Y019360D02*
Y019560D01*
X050110D01*
X050143Y019527D01*
Y019460D01*
X050110Y019427D01*
X050010D01*
X050343Y019360D02*
X050210D01*
X050343Y019493D01*
Y019527D01*
X050310Y019560D01*
X050243D01*
X050210Y019527D01*
X047553Y038750D02*
X047487D01*
X047520D01*
Y038583D01*
X047487Y038550D01*
X047453D01*
X047420Y038583D01*
X047753Y038550D02*
X047620D01*
X047753Y038683D01*
Y038717D01*
X047720Y038750D01*
X047653D01*
X047620Y038717D01*
X049920Y040780D02*
Y040613D01*
X049953Y040580D01*
X050020D01*
X050053Y040613D01*
Y040780D01*
X050120Y040613D02*
X050153Y040580D01*
X050220D01*
X050253Y040613D01*
Y040747D01*
X050220Y040780D01*
X050153D01*
X050120Y040747D01*
Y040713D01*
X050153Y040680D01*
X050253D01*
X050650Y043580D02*
X050783D01*
X050717D01*
Y043380D01*
X050950D02*
Y043580D01*
X050850Y043480D01*
X050983D01*
X051540Y042460D02*
Y042660D01*
X051640D01*
X051673Y042627D01*
Y042560D01*
X051640Y042527D01*
X051540D01*
X051607D02*
X051673Y042460D01*
X051740D02*
X051807D01*
X051773D01*
Y042660D01*
X051740Y042627D01*
X051907D02*
X051940Y042660D01*
X052007D01*
X052040Y042627D01*
Y042493D01*
X052007Y042460D01*
X051940D01*
X051907Y042493D01*
Y042627D01*
X052240Y042660D02*
X052173Y042627D01*
X052106Y042560D01*
Y042493D01*
X052140Y042460D01*
X052206D01*
X052240Y042493D01*
Y042527D01*
X052206Y042560D01*
X052106D01*
X050780Y044020D02*
Y044220D01*
X050880D01*
X050913Y044187D01*
Y044120D01*
X050880Y044087D01*
X050780D01*
X050847D02*
X050913Y044020D01*
X050980D02*
X051047D01*
X051013D01*
Y044220D01*
X050980Y044187D01*
X051147D02*
X051180Y044220D01*
X051247D01*
X051280Y044187D01*
Y044053D01*
X051247Y044020D01*
X051180D01*
X051147Y044053D01*
Y044187D01*
X051446Y044020D02*
Y044220D01*
X051346Y044120D01*
X051480D01*
X051943Y040423D02*
X051910Y040390D01*
Y040323D01*
X051943Y040290D01*
X052077D01*
X052110Y040323D01*
Y040390D01*
X052077Y040423D01*
Y040490D02*
X052110Y040523D01*
Y040590D01*
X052077Y040623D01*
X051943D01*
X051910Y040590D01*
Y040523D01*
X051943Y040490D01*
X051977D01*
X052010Y040523D01*
Y040623D01*
X051943Y040690D02*
X051910Y040723D01*
Y040790D01*
X051943Y040823D01*
X051977D01*
X052010Y040790D01*
X052043Y040823D01*
X052077D01*
X052110Y040790D01*
Y040723D01*
X052077Y040690D01*
X052043D01*
X052010Y040723D01*
X051977Y040690D01*
X051943D01*
X052010Y040723D02*
Y040790D01*
X049663Y041273D02*
X049630Y041240D01*
Y041173D01*
X049663Y041140D01*
X049797D01*
X049830Y041173D01*
Y041240D01*
X049797Y041273D01*
Y041340D02*
X049830Y041373D01*
Y041440D01*
X049797Y041473D01*
X049663D01*
X049630Y041440D01*
Y041373D01*
X049663Y041340D01*
X049697D01*
X049730Y041373D01*
Y041473D01*
X049630Y041540D02*
Y041673D01*
X049663D01*
X049797Y041540D01*
X049830D01*
X052530Y048080D02*
X052330D01*
Y048180D01*
X052363Y048213D01*
X052430D01*
X052463Y048180D01*
Y048080D01*
Y048147D02*
X052530Y048213D01*
Y048280D02*
Y048347D01*
Y048313D01*
X052330D01*
X052363Y048280D01*
Y048447D02*
X052330Y048480D01*
Y048547D01*
X052363Y048580D01*
X052497D01*
X052530Y048547D01*
Y048480D01*
X052497Y048447D01*
X052363D01*
Y048646D02*
X052330Y048680D01*
Y048746D01*
X052363Y048780D01*
X052397D01*
X052430Y048746D01*
Y048713D01*
Y048746D01*
X052463Y048780D01*
X052497D01*
X052530Y048746D01*
Y048680D01*
X052497Y048646D01*
X053130Y048090D02*
X052930D01*
Y048190D01*
X052963Y048223D01*
X053030D01*
X053063Y048190D01*
Y048090D01*
Y048157D02*
X053130Y048223D01*
Y048290D02*
Y048357D01*
Y048323D01*
X052930D01*
X052963Y048290D01*
Y048457D02*
X052930Y048490D01*
Y048557D01*
X052963Y048590D01*
X053097D01*
X053130Y048557D01*
Y048490D01*
X053097Y048457D01*
X052963D01*
X053130Y048790D02*
Y048656D01*
X052997Y048790D01*
X052963D01*
X052930Y048756D01*
Y048690D01*
X052963Y048656D01*
X049470Y045720D02*
X049270D01*
Y045820D01*
X049303Y045853D01*
X049370D01*
X049403Y045820D01*
Y045720D01*
Y045787D02*
X049470Y045853D01*
X049437Y045920D02*
X049470Y045953D01*
Y046020D01*
X049437Y046053D01*
X049303D01*
X049270Y046020D01*
Y045953D01*
X049303Y045920D01*
X049337D01*
X049370Y045953D01*
Y046053D01*
X049437Y046120D02*
X049470Y046153D01*
Y046220D01*
X049437Y046253D01*
X049303D01*
X049270Y046220D01*
Y046153D01*
X049303Y046120D01*
X049337D01*
X049370Y046153D01*
Y046253D01*
X053373Y048253D02*
X053340Y048220D01*
Y048153D01*
X053373Y048120D01*
X053507D01*
X053540Y048153D01*
Y048220D01*
X053507Y048253D01*
Y048320D02*
X053540Y048353D01*
Y048420D01*
X053507Y048453D01*
X053373D01*
X053340Y048420D01*
Y048353D01*
X053373Y048320D01*
X053407D01*
X053440Y048353D01*
Y048453D01*
X053340Y048653D02*
X053373Y048587D01*
X053440Y048520D01*
X053507D01*
X053540Y048553D01*
Y048620D01*
X053507Y048653D01*
X053473D01*
X053440Y048620D01*
Y048520D01*
X035870Y041810D02*
Y041643D01*
X035903Y041610D01*
X035970D01*
X036003Y041643D01*
Y041810D01*
X036070Y041777D02*
X036103Y041810D01*
X036170D01*
X036203Y041777D01*
Y041743D01*
X036170Y041710D01*
X036203Y041677D01*
Y041643D01*
X036170Y041610D01*
X036103D01*
X036070Y041643D01*
Y041677D01*
X036103Y041710D01*
X036070Y041743D01*
Y041777D01*
X036103Y041710D02*
X036170D01*
X048730Y048810D02*
Y049010D01*
X048830D01*
X048863Y048977D01*
Y048910D01*
X048830Y048877D01*
X048730D01*
X048797D02*
X048863Y048810D01*
X049063Y049010D02*
X048930D01*
Y048910D01*
X048997Y048943D01*
X049030D01*
X049063Y048910D01*
Y048843D01*
X049030Y048810D01*
X048963D01*
X048930Y048843D01*
X049263Y049010D02*
X049197Y048977D01*
X049130Y048910D01*
Y048843D01*
X049163Y048810D01*
X049230D01*
X049263Y048843D01*
Y048877D01*
X049230Y048910D01*
X049130D01*
X038920Y038210D02*
X038720D01*
Y038310D01*
X038753Y038343D01*
X038820D01*
X038853Y038310D01*
Y038210D01*
Y038277D02*
X038920Y038343D01*
X038720Y038543D02*
Y038410D01*
X038820D01*
X038787Y038477D01*
Y038510D01*
X038820Y038543D01*
X038887D01*
X038920Y038510D01*
Y038443D01*
X038887Y038410D01*
X038920Y038743D02*
Y038610D01*
X038787Y038743D01*
X038753D01*
X038720Y038710D01*
Y038643D01*
X038753Y038610D01*
X040240Y044160D02*
Y044360D01*
X040340D01*
X040373Y044327D01*
Y044260D01*
X040340Y044227D01*
X040240D01*
X040307D02*
X040373Y044160D01*
X040573Y044360D02*
X040440D01*
Y044260D01*
X040507Y044293D01*
X040540D01*
X040573Y044260D01*
Y044193D01*
X040540Y044160D01*
X040473D01*
X040440Y044193D01*
X040640Y044160D02*
X040707D01*
X040673D01*
Y044360D01*
X040640Y044327D01*
X040910Y044180D02*
Y044380D01*
X041010D01*
X041043Y044347D01*
Y044280D01*
X041010Y044247D01*
X040910D01*
X040977D02*
X041043Y044180D01*
X041243Y044380D02*
X041110D01*
Y044280D01*
X041177Y044313D01*
X041210D01*
X041243Y044280D01*
Y044213D01*
X041210Y044180D01*
X041143D01*
X041110Y044213D01*
X041310Y044347D02*
X041343Y044380D01*
X041410D01*
X041443Y044347D01*
Y044213D01*
X041410Y044180D01*
X041343D01*
X041310Y044213D01*
Y044347D01*
X036483Y041903D02*
X036450Y041870D01*
Y041803D01*
X036483Y041770D01*
X036617D01*
X036650Y041803D01*
Y041870D01*
X036617Y041903D01*
X036483Y041970D02*
X036450Y042003D01*
Y042070D01*
X036483Y042103D01*
X036517D01*
X036550Y042070D01*
X036583Y042103D01*
X036617D01*
X036650Y042070D01*
Y042003D01*
X036617Y041970D01*
X036583D01*
X036550Y042003D01*
X036517Y041970D01*
X036483D01*
X036550Y042003D02*
Y042070D01*
X036650Y042270D02*
X036450D01*
X036550Y042170D01*
Y042303D01*
X025020Y053720D02*
Y053520D01*
X025087Y053587D01*
X025153Y053520D01*
Y053720D01*
X025220Y053520D02*
X025287D01*
X025253D01*
Y053720D01*
X025220Y053687D01*
X034443Y043883D02*
X034410Y043850D01*
Y043783D01*
X034443Y043750D01*
X034577D01*
X034610Y043783D01*
Y043850D01*
X034577Y043883D01*
X034443Y043950D02*
X034410Y043983D01*
Y044050D01*
X034443Y044083D01*
X034477D01*
X034510Y044050D01*
X034543Y044083D01*
X034577D01*
X034610Y044050D01*
Y043983D01*
X034577Y043950D01*
X034543D01*
X034510Y043983D01*
X034477Y043950D01*
X034443D01*
X034510Y043983D02*
Y044050D01*
X034610Y044283D02*
Y044150D01*
X034477Y044283D01*
X034443D01*
X034410Y044250D01*
Y044183D01*
X034443Y044150D01*
X041640Y019670D02*
Y019503D01*
X041673Y019470D01*
X041740D01*
X041773Y019503D01*
Y019670D01*
X041840D02*
X041973D01*
Y019637D01*
X041840Y019503D01*
Y019470D01*
X021860Y017900D02*
X021660D01*
Y018000D01*
X021693Y018033D01*
X021760D01*
X021793Y018000D01*
Y017900D01*
Y017967D02*
X021860Y018033D01*
Y018200D02*
X021660D01*
X021760Y018100D01*
Y018233D01*
X021827Y018300D02*
X021860Y018333D01*
Y018400D01*
X021827Y018433D01*
X021693D01*
X021660Y018400D01*
Y018333D01*
X021693Y018300D01*
X021727D01*
X021760Y018333D01*
Y018433D01*
X042770Y019630D02*
Y019830D01*
X042870D01*
X042903Y019797D01*
Y019730D01*
X042870Y019697D01*
X042770D01*
X042837D02*
X042903Y019630D01*
X043070D02*
Y019830D01*
X042970Y019730D01*
X043103D01*
X043170Y019797D02*
X043203Y019830D01*
X043270D01*
X043303Y019797D01*
Y019763D01*
X043270Y019730D01*
X043303Y019697D01*
Y019663D01*
X043270Y019630D01*
X043203D01*
X043170Y019663D01*
Y019697D01*
X043203Y019730D01*
X043170Y019763D01*
Y019797D01*
X043203Y019730D02*
X043270D01*
X043490Y018800D02*
Y019000D01*
X043590D01*
X043623Y018967D01*
Y018900D01*
X043590Y018867D01*
X043490D01*
X043557D02*
X043623Y018800D01*
X043790D02*
Y019000D01*
X043690Y018900D01*
X043823D01*
X043890Y019000D02*
X044023D01*
Y018967D01*
X043890Y018833D01*
Y018800D01*
X018440Y040420D02*
Y040620D01*
X018540D01*
X018573Y040587D01*
Y040520D01*
X018540Y040487D01*
X018440D01*
X018507D02*
X018573Y040420D01*
X018740D02*
Y040620D01*
X018640Y040520D01*
X018773D01*
X018973Y040620D02*
X018907Y040587D01*
X018840Y040520D01*
Y040453D01*
X018873Y040420D01*
X018940D01*
X018973Y040453D01*
Y040487D01*
X018940Y040520D01*
X018840D01*
X049710Y043150D02*
Y042950D01*
X049843D01*
X049910D02*
X049977D01*
X049943D01*
Y043150D01*
X049910Y043117D01*
X050177Y042950D02*
Y043150D01*
X050077Y043050D01*
X050210D01*
X047360Y049140D02*
Y048940D01*
X047493D01*
X047560D02*
X047627D01*
X047593D01*
Y049140D01*
X047560Y049107D01*
X047727D02*
X047760Y049140D01*
X047827D01*
X047860Y049107D01*
Y049073D01*
X047827Y049040D01*
X047793D01*
X047827D01*
X047860Y049007D01*
Y048973D01*
X047827Y048940D01*
X047760D01*
X047727Y048973D01*
X022750Y037510D02*
Y037310D01*
X022883D01*
X022950D02*
X023017D01*
X022983D01*
Y037510D01*
X022950Y037477D01*
X023250Y037310D02*
X023117D01*
X023250Y037443D01*
Y037477D01*
X023217Y037510D01*
X023150D01*
X023117Y037477D01*
X026360Y027220D02*
Y027020D01*
X026493D01*
X026560D02*
X026627D01*
X026593D01*
Y027220D01*
X026560Y027187D01*
X026727Y027020D02*
X026793D01*
X026760D01*
Y027220D01*
X026727Y027187D01*
X019910Y044350D02*
Y044150D01*
X020043D01*
X020110D02*
X020177D01*
X020143D01*
Y044350D01*
X020110Y044317D01*
X020277D02*
X020310Y044350D01*
X020377D01*
X020410Y044317D01*
Y044183D01*
X020377Y044150D01*
X020310D01*
X020277Y044183D01*
Y044317D01*
X016203Y038970D02*
X016137D01*
X016170D01*
Y038803D01*
X016137Y038770D01*
X016103D01*
X016070Y038803D01*
X016370Y038770D02*
Y038970D01*
X016270Y038870D01*
X016403D01*
X016093Y044950D02*
X016027D01*
X016060D01*
Y044783D01*
X016027Y044750D01*
X015993D01*
X015960Y044783D01*
X016160Y044917D02*
X016193Y044950D01*
X016260D01*
X016293Y044917D01*
Y044883D01*
X016260Y044850D01*
X016227D01*
X016260D01*
X016293Y044817D01*
Y044783D01*
X016260Y044750D01*
X016193D01*
X016160Y044783D01*
X018690Y044620D02*
Y044420D01*
X018790D01*
X018823Y044453D01*
Y044587D01*
X018790Y044620D01*
X018690D01*
X019023D02*
X018957Y044587D01*
X018890Y044520D01*
Y044453D01*
X018923Y044420D01*
X018990D01*
X019023Y044453D01*
Y044487D01*
X018990Y044520D01*
X018890D01*
X050730Y045890D02*
Y045690D01*
X050830D01*
X050863Y045723D01*
Y045857D01*
X050830Y045890D01*
X050730D01*
X051063D02*
X050930D01*
Y045790D01*
X050997Y045823D01*
X051030D01*
X051063Y045790D01*
Y045723D01*
X051030Y045690D01*
X050963D01*
X050930Y045723D01*
X050870Y049190D02*
Y048990D01*
X050970D01*
X051003Y049023D01*
Y049157D01*
X050970Y049190D01*
X050870D01*
X051070Y049157D02*
X051103Y049190D01*
X051170D01*
X051203Y049157D01*
Y049123D01*
X051170Y049090D01*
X051137D01*
X051170D01*
X051203Y049057D01*
Y049023D01*
X051170Y048990D01*
X051103D01*
X051070Y049023D01*
X049480Y049230D02*
Y049030D01*
X049580D01*
X049613Y049063D01*
Y049197D01*
X049580Y049230D01*
X049480D01*
X049813Y049030D02*
X049680D01*
X049813Y049163D01*
Y049197D01*
X049780Y049230D01*
X049713D01*
X049680Y049197D01*
X040323Y019193D02*
X040290Y019160D01*
Y019093D01*
X040323Y019060D01*
X040457D01*
X040490Y019093D01*
Y019160D01*
X040457Y019193D01*
X040323Y019260D02*
X040290Y019293D01*
Y019360D01*
X040323Y019393D01*
X040357D01*
X040390Y019360D01*
X040423Y019393D01*
X040457D01*
X040490Y019360D01*
Y019293D01*
X040457Y019260D01*
X040423D01*
X040390Y019293D01*
X040357Y019260D01*
X040323D01*
X040390Y019293D02*
Y019360D01*
X040323Y019460D02*
X040290Y019493D01*
Y019560D01*
X040323Y019593D01*
X040457D01*
X040490Y019560D01*
Y019493D01*
X040457Y019460D01*
X040323D01*
X043473Y016803D02*
X043440Y016770D01*
Y016703D01*
X043473Y016670D01*
X043607D01*
X043640Y016703D01*
Y016770D01*
X043607Y016803D01*
X043440Y016870D02*
Y017003D01*
X043473D01*
X043607Y016870D01*
X043640D01*
X043607Y017070D02*
X043640Y017103D01*
Y017170D01*
X043607Y017203D01*
X043473D01*
X043440Y017170D01*
Y017103D01*
X043473Y017070D01*
X043507D01*
X043540Y017103D01*
Y017203D01*
X042763Y016833D02*
X042730Y016800D01*
Y016733D01*
X042763Y016700D01*
X042897D01*
X042930Y016733D01*
Y016800D01*
X042897Y016833D01*
X042730Y016900D02*
Y017033D01*
X042763D01*
X042897Y016900D01*
X042930D01*
X042763Y017100D02*
X042730Y017133D01*
Y017200D01*
X042763Y017233D01*
X042797D01*
X042830Y017200D01*
X042863Y017233D01*
X042897D01*
X042930Y017200D01*
Y017133D01*
X042897Y017100D01*
X042863D01*
X042830Y017133D01*
X042797Y017100D01*
X042763D01*
X042830Y017133D02*
Y017200D01*
X040183Y017683D02*
X040150Y017650D01*
Y017583D01*
X040183Y017550D01*
X040317D01*
X040350Y017583D01*
Y017650D01*
X040317Y017683D01*
X040150Y017750D02*
Y017883D01*
X040183D01*
X040317Y017750D01*
X040350D01*
X040150Y017950D02*
Y018083D01*
X040183D01*
X040317Y017950D01*
X040350D01*
X024733Y043533D02*
X024700Y043500D01*
Y043433D01*
X024733Y043400D01*
X024867D01*
X024900Y043433D01*
Y043500D01*
X024867Y043533D01*
X024700Y043600D02*
Y043733D01*
X024733D01*
X024867Y043600D01*
X024900D01*
X024700Y043933D02*
X024733Y043867D01*
X024800Y043800D01*
X024867D01*
X024900Y043833D01*
Y043900D01*
X024867Y043933D01*
X024833D01*
X024800Y043900D01*
Y043800D01*
X024273Y043373D02*
X024240Y043340D01*
Y043273D01*
X024273Y043240D01*
X024407D01*
X024440Y043273D01*
Y043340D01*
X024407Y043373D01*
X024240Y043440D02*
Y043573D01*
X024273D01*
X024407Y043440D01*
X024440D01*
X024240Y043773D02*
Y043640D01*
X024340D01*
X024307Y043707D01*
Y043740D01*
X024340Y043773D01*
X024407D01*
X024440Y043740D01*
Y043673D01*
X024407Y043640D01*
X021183Y043413D02*
X021150Y043380D01*
Y043313D01*
X021183Y043280D01*
X021317D01*
X021350Y043313D01*
Y043380D01*
X021317Y043413D01*
X021150Y043480D02*
Y043613D01*
X021183D01*
X021317Y043480D01*
X021350D01*
Y043780D02*
X021150D01*
X021250Y043680D01*
Y043813D01*
X020823Y043413D02*
X020790Y043380D01*
Y043313D01*
X020823Y043280D01*
X020957D01*
X020990Y043313D01*
Y043380D01*
X020957Y043413D01*
X020790Y043480D02*
Y043613D01*
X020823D01*
X020957Y043480D01*
X020990D01*
X020823Y043680D02*
X020790Y043713D01*
Y043780D01*
X020823Y043813D01*
X020857D01*
X020890Y043780D01*
Y043747D01*
Y043780D01*
X020923Y043813D01*
X020957D01*
X020990Y043780D01*
Y043713D01*
X020957Y043680D01*
X017883Y042257D02*
X017850Y042290D01*
X017783D01*
X017750Y042257D01*
Y042123D01*
X017783Y042090D01*
X017850D01*
X017883Y042123D01*
X017950Y042290D02*
X018083D01*
Y042257D01*
X017950Y042123D01*
Y042090D01*
X018283D02*
X018150D01*
X018283Y042223D01*
Y042257D01*
X018250Y042290D01*
X018183D01*
X018150Y042257D01*
X017703Y042637D02*
X017670Y042670D01*
X017603D01*
X017570Y042637D01*
Y042503D01*
X017603Y042470D01*
X017670D01*
X017703Y042503D01*
X017770Y042670D02*
X017903D01*
Y042637D01*
X017770Y042503D01*
Y042470D01*
X017970D02*
X018037D01*
X018003D01*
Y042670D01*
X017970Y042637D01*
X017733Y041003D02*
X017700Y040970D01*
Y040903D01*
X017733Y040870D01*
X017867D01*
X017900Y040903D01*
Y040970D01*
X017867Y041003D01*
X017700Y041070D02*
Y041203D01*
X017733D01*
X017867Y041070D01*
X017900D01*
X017733Y041270D02*
X017700Y041303D01*
Y041370D01*
X017733Y041403D01*
X017867D01*
X017900Y041370D01*
Y041303D01*
X017867Y041270D01*
X017733D01*
X017373Y040973D02*
X017340Y040940D01*
Y040873D01*
X017373Y040840D01*
X017507D01*
X017540Y040873D01*
Y040940D01*
X017507Y040973D01*
X017340Y041173D02*
X017373Y041107D01*
X017440Y041040D01*
X017507D01*
X017540Y041073D01*
Y041140D01*
X017507Y041173D01*
X017473D01*
X017440Y041140D01*
Y041040D01*
X017507Y041240D02*
X017540Y041273D01*
Y041340D01*
X017507Y041373D01*
X017373D01*
X017340Y041340D01*
Y041273D01*
X017373Y041240D01*
X017407D01*
X017440Y041273D01*
Y041373D01*
X044263Y052713D02*
X044230Y052680D01*
Y052613D01*
X044263Y052580D01*
X044397D01*
X044430Y052613D01*
Y052680D01*
X044397Y052713D01*
X044263Y052780D02*
X044230Y052813D01*
Y052880D01*
X044263Y052913D01*
X044297D01*
X044330Y052880D01*
Y052847D01*
Y052880D01*
X044363Y052913D01*
X044397D01*
X044430Y052880D01*
Y052813D01*
X044397Y052780D01*
Y052980D02*
X044430Y053013D01*
Y053080D01*
X044397Y053113D01*
X044263D01*
X044230Y053080D01*
Y053013D01*
X044263Y052980D01*
X044297D01*
X044330Y053013D01*
Y053113D01*
X020170Y040180D02*
Y040013D01*
X020203Y039980D01*
X020270D01*
X020303Y040013D01*
Y040180D01*
X020503D02*
X020437Y040147D01*
X020370Y040080D01*
Y040013D01*
X020403Y039980D01*
X020470D01*
X020503Y040013D01*
Y040047D01*
X020470Y040080D01*
X020370D01*
X022380Y043210D02*
X022447D01*
X022413D01*
Y043010D01*
X022380D01*
X022447D01*
X022680Y043177D02*
X022647Y043210D01*
X022580D01*
X022547Y043177D01*
Y043043D01*
X022580Y043010D01*
X022647D01*
X022680Y043043D01*
X022747Y043177D02*
X022780Y043210D01*
X022847D01*
X022880Y043177D01*
Y043143D01*
X022847Y043110D01*
X022813D01*
X022847D01*
X022880Y043077D01*
Y043043D01*
X022847Y043010D01*
X022780D01*
X022747Y043043D01*
X025903Y046373D02*
X025870Y046340D01*
Y046273D01*
X025903Y046240D01*
X026037D01*
X026070Y046273D01*
Y046340D01*
X026037Y046373D01*
X025870Y046573D02*
X025903Y046507D01*
X025970Y046440D01*
X026037D01*
X026070Y046473D01*
Y046540D01*
X026037Y046573D01*
X026003D01*
X025970Y046540D01*
Y046440D01*
X025903Y046640D02*
X025870Y046673D01*
Y046740D01*
X025903Y046773D01*
X025937D01*
X025970Y046740D01*
X026003Y046773D01*
X026037D01*
X026070Y046740D01*
Y046673D01*
X026037Y046640D01*
X026003D01*
X025970Y046673D01*
X025937Y046640D01*
X025903D01*
X025970Y046673D02*
Y046740D01*
X027553Y047893D02*
X027520Y047860D01*
Y047793D01*
X027553Y047760D01*
X027687D01*
X027720Y047793D01*
Y047860D01*
X027687Y047893D01*
X027520Y048093D02*
X027553Y048027D01*
X027620Y047960D01*
X027687D01*
X027720Y047993D01*
Y048060D01*
X027687Y048093D01*
X027653D01*
X027620Y048060D01*
Y047960D01*
X027520Y048160D02*
Y048293D01*
X027553D01*
X027687Y048160D01*
X027720D01*
X053117Y036140D02*
Y036340D01*
X053184Y036273D01*
X053251Y036340D01*
Y036140D01*
X053317D02*
X053384D01*
X053351D01*
Y036340D01*
X053317Y036307D01*
X051040Y046430D02*
Y046297D01*
X051107Y046230D01*
X051173Y046297D01*
Y046430D01*
X051373Y046397D02*
X051340Y046430D01*
X051273D01*
X051240Y046397D01*
Y046263D01*
X051273Y046230D01*
X051340D01*
X051373Y046263D01*
X051573Y046397D02*
X051540Y046430D01*
X051473D01*
X051440Y046397D01*
Y046363D01*
X051473Y046330D01*
X051540D01*
X051573Y046297D01*
Y046263D01*
X051540Y046230D01*
X051473D01*
X051440Y046263D01*
X051773Y046430D02*
X051640D01*
Y046230D01*
X051773D01*
X051640Y046330D02*
X051706D01*
X051840Y046430D02*
Y046230D01*
X051973D01*
X052040D02*
X052106D01*
X052073D01*
Y046430D01*
X052040Y046397D01*
X047050Y047140D02*
Y046973D01*
X047083Y046940D01*
X047150D01*
X047183Y046973D01*
Y047140D01*
X047383D02*
X047250D01*
Y047040D01*
X047317Y047073D01*
X047350D01*
X047383Y047040D01*
Y046973D01*
X047350Y046940D01*
X047283D01*
X047250Y046973D01*
X026660Y046370D02*
Y046203D01*
X026693Y046170D01*
X026760D01*
X026793Y046203D01*
Y046370D01*
X026860Y046337D02*
X026893Y046370D01*
X026960D01*
X026993Y046337D01*
Y046303D01*
X026960Y046270D01*
X026927D01*
X026960D01*
X026993Y046237D01*
Y046203D01*
X026960Y046170D01*
X026893D01*
X026860Y046203D01*
X025190Y050830D02*
Y050663D01*
X025223Y050630D01*
X025290D01*
X025323Y050663D01*
Y050830D01*
X025390Y050630D02*
X025457D01*
X025423D01*
Y050830D01*
X025390Y050797D01*
X048120Y043070D02*
X047920D01*
Y043170D01*
X047953Y043203D01*
X048020D01*
X048053Y043170D01*
Y043070D01*
Y043137D02*
X048120Y043203D01*
Y043370D02*
X047920D01*
X048020Y043270D01*
Y043403D01*
X047920Y043603D02*
Y043470D01*
X048020D01*
X047987Y043537D01*
Y043570D01*
X048020Y043603D01*
X048087D01*
X048120Y043570D01*
Y043503D01*
X048087Y043470D01*
X049410Y046510D02*
X049210D01*
Y046610D01*
X049243Y046643D01*
X049310D01*
X049343Y046610D01*
Y046510D01*
Y046577D02*
X049410Y046643D01*
Y046810D02*
X049210D01*
X049310Y046710D01*
Y046843D01*
X049410Y047010D02*
X049210D01*
X049310Y046910D01*
Y047043D01*
X048530Y043120D02*
X048330D01*
Y043220D01*
X048363Y043253D01*
X048430D01*
X048463Y043220D01*
Y043120D01*
Y043187D02*
X048530Y043253D01*
Y043420D02*
X048330D01*
X048430Y043320D01*
Y043453D01*
X048363Y043520D02*
X048330Y043553D01*
Y043620D01*
X048363Y043653D01*
X048397D01*
X048430Y043620D01*
Y043587D01*
Y043620D01*
X048463Y043653D01*
X048497D01*
X048530Y043620D01*
Y043553D01*
X048497Y043520D01*
X046700Y045370D02*
X046500D01*
Y045470D01*
X046533Y045503D01*
X046600D01*
X046633Y045470D01*
Y045370D01*
Y045437D02*
X046700Y045503D01*
Y045670D02*
X046500D01*
X046600Y045570D01*
Y045703D01*
X046700Y045903D02*
Y045770D01*
X046567Y045903D01*
X046533D01*
X046500Y045870D01*
Y045803D01*
X046533Y045770D01*
X046760Y046200D02*
X046560D01*
Y046300D01*
X046593Y046333D01*
X046660D01*
X046693Y046300D01*
Y046200D01*
Y046267D02*
X046760Y046333D01*
Y046500D02*
X046560D01*
X046660Y046400D01*
Y046533D01*
X046760Y046600D02*
Y046667D01*
Y046633D01*
X046560D01*
X046593Y046600D01*
X048070Y048260D02*
Y048460D01*
X048170D01*
X048203Y048427D01*
Y048360D01*
X048170Y048327D01*
X048070D01*
X048137D02*
X048203Y048260D01*
X048370D02*
Y048460D01*
X048270Y048360D01*
X048403D01*
X048470Y048427D02*
X048503Y048460D01*
X048570D01*
X048603Y048427D01*
Y048293D01*
X048570Y048260D01*
X048503D01*
X048470Y048293D01*
Y048427D01*
X047320Y044560D02*
Y044760D01*
X047420D01*
X047453Y044727D01*
Y044660D01*
X047420Y044627D01*
X047320D01*
X047387D02*
X047453Y044560D01*
X047520Y044727D02*
X047553Y044760D01*
X047620D01*
X047653Y044727D01*
Y044693D01*
X047620Y044660D01*
X047587D01*
X047620D01*
X047653Y044627D01*
Y044593D01*
X047620Y044560D01*
X047553D01*
X047520Y044593D01*
X047720D02*
X047753Y044560D01*
X047820D01*
X047853Y044593D01*
Y044727D01*
X047820Y044760D01*
X047753D01*
X047720Y044727D01*
Y044693D01*
X047753Y044660D01*
X047853D01*
X039280Y036620D02*
X039080D01*
Y036720D01*
X039113Y036753D01*
X039180D01*
X039213Y036720D01*
Y036620D01*
Y036687D02*
X039280Y036753D01*
X039113Y036820D02*
X039080Y036853D01*
Y036920D01*
X039113Y036953D01*
X039147D01*
X039180Y036920D01*
Y036887D01*
Y036920D01*
X039213Y036953D01*
X039247D01*
X039280Y036920D01*
Y036853D01*
X039247Y036820D01*
X039113Y037020D02*
X039080Y037053D01*
Y037120D01*
X039113Y037153D01*
X039147D01*
X039180Y037120D01*
X039213Y037153D01*
X039247D01*
X039280Y037120D01*
Y037053D01*
X039247Y037020D01*
X039213D01*
X039180Y037053D01*
X039147Y037020D01*
X039113D01*
X039180Y037053D02*
Y037120D01*
X037470Y043240D02*
X037270D01*
Y043340D01*
X037303Y043373D01*
X037370D01*
X037403Y043340D01*
Y043240D01*
Y043307D02*
X037470Y043373D01*
X037303Y043440D02*
X037270Y043473D01*
Y043540D01*
X037303Y043573D01*
X037337D01*
X037370Y043540D01*
Y043507D01*
Y043540D01*
X037403Y043573D01*
X037437D01*
X037470Y043540D01*
Y043473D01*
X037437Y043440D01*
X037270Y043640D02*
Y043773D01*
X037303D01*
X037437Y043640D01*
X037470D01*
X018920Y034450D02*
Y034650D01*
X019020D01*
X019053Y034617D01*
Y034550D01*
X019020Y034517D01*
X018920D01*
X018987D02*
X019053Y034450D01*
X019120Y034617D02*
X019153Y034650D01*
X019220D01*
X019253Y034617D01*
Y034583D01*
X019220Y034550D01*
X019187D01*
X019220D01*
X019253Y034517D01*
Y034483D01*
X019220Y034450D01*
X019153D01*
X019120Y034483D01*
X019453Y034650D02*
X019387Y034617D01*
X019320Y034550D01*
Y034483D01*
X019353Y034450D01*
X019420D01*
X019453Y034483D01*
Y034517D01*
X019420Y034550D01*
X019320D01*
X028730Y044810D02*
X028530D01*
Y044910D01*
X028563Y044943D01*
X028630D01*
X028663Y044910D01*
Y044810D01*
Y044877D02*
X028730Y044943D01*
X028563Y045010D02*
X028530Y045043D01*
Y045110D01*
X028563Y045143D01*
X028597D01*
X028630Y045110D01*
Y045077D01*
Y045110D01*
X028663Y045143D01*
X028697D01*
X028730Y045110D01*
Y045043D01*
X028697Y045010D01*
X028530Y045343D02*
Y045210D01*
X028630D01*
X028597Y045277D01*
Y045310D01*
X028630Y045343D01*
X028697D01*
X028730Y045310D01*
Y045243D01*
X028697Y045210D01*
X035310Y023320D02*
X035110D01*
Y023420D01*
X035143Y023453D01*
X035210D01*
X035243Y023420D01*
Y023320D01*
Y023387D02*
X035310Y023453D01*
X035143Y023520D02*
X035110Y023553D01*
Y023620D01*
X035143Y023653D01*
X035177D01*
X035210Y023620D01*
Y023587D01*
Y023620D01*
X035243Y023653D01*
X035277D01*
X035310Y023620D01*
Y023553D01*
X035277Y023520D01*
X035310Y023820D02*
X035110D01*
X035210Y023720D01*
Y023853D01*
X034900Y023310D02*
X034700D01*
Y023410D01*
X034733Y023443D01*
X034800D01*
X034833Y023410D01*
Y023310D01*
Y023377D02*
X034900Y023443D01*
X034733Y023510D02*
X034700Y023543D01*
Y023610D01*
X034733Y023643D01*
X034767D01*
X034800Y023610D01*
Y023577D01*
Y023610D01*
X034833Y023643D01*
X034867D01*
X034900Y023610D01*
Y023543D01*
X034867Y023510D01*
X034733Y023710D02*
X034700Y023743D01*
Y023810D01*
X034733Y023843D01*
X034767D01*
X034800Y023810D01*
Y023777D01*
Y023810D01*
X034833Y023843D01*
X034867D01*
X034900Y023810D01*
Y023743D01*
X034867Y023710D01*
X038820Y041700D02*
X038620D01*
Y041800D01*
X038653Y041833D01*
X038720D01*
X038753Y041800D01*
Y041700D01*
Y041767D02*
X038820Y041833D01*
X038653Y041900D02*
X038620Y041933D01*
Y042000D01*
X038653Y042033D01*
X038687D01*
X038720Y042000D01*
Y041967D01*
Y042000D01*
X038753Y042033D01*
X038787D01*
X038820Y042000D01*
Y041933D01*
X038787Y041900D01*
X038820Y042233D02*
Y042100D01*
X038687Y042233D01*
X038653D01*
X038620Y042200D01*
Y042133D01*
X038653Y042100D01*
X034580Y020790D02*
X034380D01*
Y020890D01*
X034413Y020923D01*
X034480D01*
X034513Y020890D01*
Y020790D01*
Y020857D02*
X034580Y020923D01*
X034413Y020990D02*
X034380Y021023D01*
Y021090D01*
X034413Y021123D01*
X034447D01*
X034480Y021090D01*
Y021057D01*
Y021090D01*
X034513Y021123D01*
X034547D01*
X034580Y021090D01*
Y021023D01*
X034547Y020990D01*
X034580Y021190D02*
Y021257D01*
Y021223D01*
X034380D01*
X034413Y021190D01*
X032090Y024880D02*
X031890D01*
Y024980D01*
X031923Y025013D01*
X031990D01*
X032023Y024980D01*
Y024880D01*
Y024947D02*
X032090Y025013D01*
X031923Y025080D02*
X031890Y025113D01*
Y025180D01*
X031923Y025213D01*
X031957D01*
X031990Y025180D01*
Y025147D01*
Y025180D01*
X032023Y025213D01*
X032057D01*
X032090Y025180D01*
Y025113D01*
X032057Y025080D01*
X031923Y025280D02*
X031890Y025313D01*
Y025380D01*
X031923Y025413D01*
X032057D01*
X032090Y025380D01*
Y025313D01*
X032057Y025280D01*
X031923D01*
X050320Y051380D02*
Y051580D01*
X050420D01*
X050453Y051547D01*
Y051480D01*
X050420Y051447D01*
X050320D01*
X050387D02*
X050453Y051380D01*
X050653D02*
X050520D01*
X050653Y051513D01*
Y051547D01*
X050620Y051580D01*
X050553D01*
X050520Y051547D01*
X050720Y051413D02*
X050753Y051380D01*
X050820D01*
X050853Y051413D01*
Y051547D01*
X050820Y051580D01*
X050753D01*
X050720Y051547D01*
Y051513D01*
X050753Y051480D01*
X050853D01*
X045870Y051770D02*
Y051970D01*
X045970D01*
X046003Y051937D01*
Y051870D01*
X045970Y051837D01*
X045870D01*
X045937D02*
X046003Y051770D01*
X046203D02*
X046070D01*
X046203Y051903D01*
Y051937D01*
X046170Y051970D01*
X046103D01*
X046070Y051937D01*
X046270D02*
X046303Y051970D01*
X046370D01*
X046403Y051937D01*
Y051903D01*
X046370Y051870D01*
X046403Y051837D01*
Y051803D01*
X046370Y051770D01*
X046303D01*
X046270Y051803D01*
Y051837D01*
X046303Y051870D01*
X046270Y051903D01*
Y051937D01*
X046303Y051870D02*
X046370D01*
X047040Y049740D02*
Y049940D01*
X047140D01*
X047173Y049907D01*
Y049840D01*
X047140Y049807D01*
X047040D01*
X047107D02*
X047173Y049740D01*
X047373D02*
X047240D01*
X047373Y049873D01*
Y049907D01*
X047340Y049940D01*
X047273D01*
X047240Y049907D01*
X047440Y049940D02*
X047573D01*
Y049907D01*
X047440Y049773D01*
Y049740D01*
X049550Y051400D02*
Y051600D01*
X049650D01*
X049683Y051567D01*
Y051500D01*
X049650Y051467D01*
X049550D01*
X049617D02*
X049683Y051400D01*
X049883D02*
X049750D01*
X049883Y051533D01*
Y051567D01*
X049850Y051600D01*
X049783D01*
X049750Y051567D01*
X050083Y051600D02*
X050017Y051567D01*
X049950Y051500D01*
Y051433D01*
X049983Y051400D01*
X050050D01*
X050083Y051433D01*
Y051467D01*
X050050Y051500D01*
X049950D01*
X038810Y040700D02*
X038610D01*
Y040800D01*
X038643Y040833D01*
X038710D01*
X038743Y040800D01*
Y040700D01*
Y040767D02*
X038810Y040833D01*
Y041033D02*
Y040900D01*
X038677Y041033D01*
X038643D01*
X038610Y041000D01*
Y040933D01*
X038643Y040900D01*
X038810Y041200D02*
X038610D01*
X038710Y041100D01*
Y041233D01*
X029410Y048050D02*
Y048250D01*
X029510D01*
X029543Y048217D01*
Y048150D01*
X029510Y048117D01*
X029410D01*
X029477D02*
X029543Y048050D01*
X029743D02*
X029610D01*
X029743Y048183D01*
Y048217D01*
X029710Y048250D01*
X029643D01*
X029610Y048217D01*
X029943Y048050D02*
X029810D01*
X029943Y048183D01*
Y048217D01*
X029910Y048250D01*
X029843D01*
X029810Y048217D01*
X023930Y053350D02*
Y053550D01*
X024030D01*
X024063Y053517D01*
Y053450D01*
X024030Y053417D01*
X023930D01*
X023997D02*
X024063Y053350D01*
X024130D02*
X024197D01*
X024163D01*
Y053550D01*
X024130Y053517D01*
X024297D02*
X024330Y053550D01*
X024397D01*
X024430Y053517D01*
Y053483D01*
X024397Y053450D01*
X024430Y053417D01*
Y053383D01*
X024397Y053350D01*
X024330D01*
X024297Y053383D01*
Y053417D01*
X024330Y053450D01*
X024297Y053483D01*
Y053517D01*
X024330Y053450D02*
X024397D01*
X026780Y052110D02*
X026580D01*
Y052210D01*
X026613Y052243D01*
X026680D01*
X026713Y052210D01*
Y052110D01*
Y052177D02*
X026780Y052243D01*
Y052310D02*
Y052377D01*
Y052343D01*
X026580D01*
X026613Y052310D01*
X026580Y052477D02*
Y052610D01*
X026613D01*
X026747Y052477D01*
X026780D01*
X023920Y052200D02*
Y052400D01*
X024020D01*
X024053Y052367D01*
Y052300D01*
X024020Y052267D01*
X023920D01*
X023987D02*
X024053Y052200D01*
X024120D02*
X024187D01*
X024153D01*
Y052400D01*
X024120Y052367D01*
X024420Y052400D02*
X024353Y052367D01*
X024287Y052300D01*
Y052233D01*
X024320Y052200D01*
X024387D01*
X024420Y052233D01*
Y052267D01*
X024387Y052300D01*
X024287D01*
X027220Y052200D02*
X027020D01*
Y052300D01*
X027053Y052333D01*
X027120D01*
X027153Y052300D01*
Y052200D01*
Y052267D02*
X027220Y052333D01*
Y052400D02*
Y052467D01*
Y052433D01*
X027020D01*
X027053Y052400D01*
X027020Y052700D02*
Y052567D01*
X027120D01*
X027087Y052633D01*
Y052667D01*
X027120Y052700D01*
X027187D01*
X027220Y052667D01*
Y052600D01*
X027187Y052567D01*
X027610Y052210D02*
X027410D01*
Y052310D01*
X027443Y052343D01*
X027510D01*
X027543Y052310D01*
Y052210D01*
Y052277D02*
X027610Y052343D01*
Y052410D02*
Y052477D01*
Y052443D01*
X027410D01*
X027443Y052410D01*
X027610Y052677D02*
X027410D01*
X027510Y052577D01*
Y052710D01*
X028710Y051010D02*
Y051210D01*
X028810D01*
X028843Y051177D01*
Y051110D01*
X028810Y051077D01*
X028710D01*
X028777D02*
X028843Y051010D01*
X028910D02*
X028977D01*
X028943D01*
Y051210D01*
X028910Y051177D01*
X029077D02*
X029110Y051210D01*
X029177D01*
X029210Y051177D01*
Y051143D01*
X029177Y051110D01*
X029143D01*
X029177D01*
X029210Y051077D01*
Y051043D01*
X029177Y051010D01*
X029110D01*
X029077Y051043D01*
X025000Y046970D02*
X024800D01*
Y047070D01*
X024833Y047103D01*
X024900D01*
X024933Y047070D01*
Y046970D01*
Y047037D02*
X025000Y047103D01*
Y047170D02*
Y047237D01*
Y047203D01*
X024800D01*
X024833Y047170D01*
X025000Y047470D02*
Y047337D01*
X024867Y047470D01*
X024833D01*
X024800Y047437D01*
Y047370D01*
X024833Y047337D01*
X028680Y050170D02*
Y050370D01*
X028780D01*
X028813Y050337D01*
Y050270D01*
X028780Y050237D01*
X028680D01*
X028747D02*
X028813Y050170D01*
X028880D02*
X028947D01*
X028913D01*
Y050370D01*
X028880Y050337D01*
X029047Y050170D02*
X029113D01*
X029080D01*
Y050370D01*
X029047Y050337D01*
X028670Y048200D02*
Y048400D01*
X028770D01*
X028803Y048367D01*
Y048300D01*
X028770Y048267D01*
X028670D01*
X028737D02*
X028803Y048200D01*
X028870D02*
X028937D01*
X028903D01*
Y048400D01*
X028870Y048367D01*
X029037D02*
X029070Y048400D01*
X029137D01*
X029170Y048367D01*
Y048233D01*
X029137Y048200D01*
X029070D01*
X029037Y048233D01*
Y048367D01*
X028660Y049420D02*
Y049620D01*
X028760D01*
X028793Y049587D01*
Y049520D01*
X028760Y049487D01*
X028660D01*
X028727D02*
X028793Y049420D01*
X028860Y049453D02*
X028893Y049420D01*
X028960D01*
X028993Y049453D01*
Y049587D01*
X028960Y049620D01*
X028893D01*
X028860Y049587D01*
Y049553D01*
X028893Y049520D01*
X028993D01*
X024710Y050030D02*
Y050230D01*
X024810D01*
X024843Y050197D01*
Y050130D01*
X024810Y050097D01*
X024710D01*
X024777D02*
X024843Y050030D01*
X024910Y050197D02*
X024943Y050230D01*
X025010D01*
X025043Y050197D01*
Y050163D01*
X025010Y050130D01*
X025043Y050097D01*
Y050063D01*
X025010Y050030D01*
X024943D01*
X024910Y050063D01*
Y050097D01*
X024943Y050130D01*
X024910Y050163D01*
Y050197D01*
X024943Y050130D02*
X025010D01*
X024370Y048680D02*
Y048880D01*
X024470D01*
X024503Y048847D01*
Y048780D01*
X024470Y048747D01*
X024370D01*
X024437D02*
X024503Y048680D01*
X024570Y048880D02*
X024703D01*
Y048847D01*
X024570Y048713D01*
Y048680D01*
X024330Y050680D02*
X024130D01*
Y050780D01*
X024163Y050813D01*
X024230D01*
X024263Y050780D01*
Y050680D01*
Y050747D02*
X024330Y050813D01*
X024130Y051013D02*
X024163Y050947D01*
X024230Y050880D01*
X024297D01*
X024330Y050913D01*
Y050980D01*
X024297Y051013D01*
X024263D01*
X024230Y050980D01*
Y050880D01*
X024340Y049440D02*
Y049640D01*
X024440D01*
X024473Y049607D01*
Y049540D01*
X024440Y049507D01*
X024340D01*
X024407D02*
X024473Y049440D01*
X024673Y049640D02*
X024540D01*
Y049540D01*
X024607Y049573D01*
X024640D01*
X024673Y049540D01*
Y049473D01*
X024640Y049440D01*
X024573D01*
X024540Y049473D01*
X028680Y050560D02*
Y050760D01*
X028780D01*
X028813Y050727D01*
Y050660D01*
X028780Y050627D01*
X028680D01*
X028747D02*
X028813Y050560D01*
X028980D02*
Y050760D01*
X028880Y050660D01*
X029013D01*
X028710Y048600D02*
Y048800D01*
X028810D01*
X028843Y048767D01*
Y048700D01*
X028810Y048667D01*
X028710D01*
X028777D02*
X028843Y048600D01*
X028910Y048767D02*
X028943Y048800D01*
X029010D01*
X029043Y048767D01*
Y048733D01*
X029010Y048700D01*
X028977D01*
X029010D01*
X029043Y048667D01*
Y048633D01*
X029010Y048600D01*
X028943D01*
X028910Y048633D01*
X028690Y049010D02*
Y049210D01*
X028790D01*
X028823Y049177D01*
Y049110D01*
X028790Y049077D01*
X028690D01*
X028757D02*
X028823Y049010D01*
X029023D02*
X028890D01*
X029023Y049143D01*
Y049177D01*
X028990Y049210D01*
X028923D01*
X028890Y049177D01*
X023830Y046390D02*
X023630D01*
Y046490D01*
X023663Y046523D01*
X023730D01*
X023763Y046490D01*
Y046390D01*
Y046457D02*
X023830Y046523D01*
Y046590D02*
Y046657D01*
Y046623D01*
X023630D01*
X023663Y046590D01*
X033433Y044863D02*
Y044997D01*
X033400Y045030D01*
X033333D01*
X033300Y044997D01*
Y044863D01*
X033333Y044830D01*
X033400D01*
X033367Y044897D02*
X033433Y044830D01*
X033400D02*
X033433Y044863D01*
X033633Y044830D02*
X033500D01*
X033633Y044963D01*
Y044997D01*
X033600Y045030D01*
X033533D01*
X033500Y044997D01*
X027113Y048563D02*
Y048697D01*
X027080Y048730D01*
X027013D01*
X026980Y048697D01*
Y048563D01*
X027013Y048530D01*
X027080D01*
X027047Y048597D02*
X027113Y048530D01*
X027080D02*
X027113Y048563D01*
X027180Y048530D02*
X027247D01*
X027213D01*
Y048730D01*
X027180Y048697D01*
X016980Y032920D02*
Y033120D01*
X017080D01*
X017113Y033087D01*
Y033020D01*
X017080Y032987D01*
X016980D01*
X017313Y033087D02*
X017280Y033120D01*
X017213D01*
X017180Y033087D01*
Y033053D01*
X017213Y033020D01*
X017280D01*
X017313Y032987D01*
Y032953D01*
X017280Y032920D01*
X017213D01*
X017180Y032953D01*
X017380Y032920D02*
X017447D01*
X017413D01*
Y033120D01*
X017380Y033087D01*
X025690Y018860D02*
Y018660D01*
X025823D01*
X025890Y018693D02*
X025923Y018660D01*
X025990D01*
X026023Y018693D01*
Y018827D01*
X025990Y018860D01*
X025923D01*
X025890Y018827D01*
Y018793D01*
X025923Y018760D01*
X026023D01*
X030360Y018890D02*
Y018690D01*
X030493D01*
X030560Y018857D02*
X030593Y018890D01*
X030660D01*
X030693Y018857D01*
Y018823D01*
X030660Y018790D01*
X030693Y018757D01*
Y018723D01*
X030660Y018690D01*
X030593D01*
X030560Y018723D01*
Y018757D01*
X030593Y018790D01*
X030560Y018823D01*
Y018857D01*
X030593Y018790D02*
X030660D01*
X029700Y024730D02*
Y024530D01*
X029833D01*
X029900Y024730D02*
X030033D01*
Y024697D01*
X029900Y024563D01*
Y024530D01*
X051640Y051620D02*
Y051420D01*
X051773D01*
X051973Y051620D02*
X051907Y051587D01*
X051840Y051520D01*
Y051453D01*
X051873Y051420D01*
X051940D01*
X051973Y051453D01*
Y051487D01*
X051940Y051520D01*
X051840D01*
X035200Y044010D02*
Y043810D01*
X035333D01*
X035533Y044010D02*
X035400D01*
Y043910D01*
X035467Y043943D01*
X035500D01*
X035533Y043910D01*
Y043843D01*
X035500Y043810D01*
X035433D01*
X035400Y043843D01*
X035970Y044010D02*
Y043810D01*
X036103D01*
X036270D02*
Y044010D01*
X036170Y043910D01*
X036303D01*
X025450Y052680D02*
X025650D01*
Y052813D01*
Y053013D02*
Y052880D01*
X025517Y053013D01*
X025483D01*
X025450Y052980D01*
Y052913D01*
X025483Y052880D01*
X024160Y047960D02*
X024360D01*
Y048093D01*
Y048160D02*
Y048227D01*
Y048193D01*
X024160D01*
X024193Y048160D01*
X015213Y053960D02*
X015147D01*
X015180D01*
Y053793D01*
X015147Y053760D01*
X015113D01*
X015080Y053793D01*
X015280Y053760D02*
X015347D01*
X015313D01*
Y053960D01*
X015280Y053927D01*
X032600Y023310D02*
X032667D01*
X032633D01*
Y023110D01*
X032600D01*
X032667D01*
X032900Y023277D02*
X032867Y023310D01*
X032800D01*
X032767Y023277D01*
Y023143D01*
X032800Y023110D01*
X032867D01*
X032900Y023143D01*
X033100Y023110D02*
X032967D01*
X033100Y023243D01*
Y023277D01*
X033067Y023310D01*
X033000D01*
X032967Y023277D01*
X047690Y052750D02*
X047757D01*
X047723D01*
Y052550D01*
X047690D01*
X047757D01*
X047990Y052717D02*
X047957Y052750D01*
X047890D01*
X047857Y052717D01*
Y052583D01*
X047890Y052550D01*
X047957D01*
X047990Y052583D01*
X048057Y052550D02*
X048123D01*
X048090D01*
Y052750D01*
X048057Y052717D01*
X031240Y020480D02*
Y020280D01*
X031340D01*
X031373Y020313D01*
Y020447D01*
X031340Y020480D01*
X031240D01*
X031440Y020280D02*
X031507D01*
X031473D01*
Y020480D01*
X031440Y020447D01*
X046153Y048327D02*
X046120Y048360D01*
X046053D01*
X046020Y048327D01*
Y048193D01*
X046053Y048160D01*
X046120D01*
X046153Y048193D01*
X046353Y048360D02*
X046287Y048327D01*
X046220Y048260D01*
Y048193D01*
X046253Y048160D01*
X046320D01*
X046353Y048193D01*
Y048227D01*
X046320Y048260D01*
X046220D01*
X046553Y048360D02*
X046487Y048327D01*
X046420Y048260D01*
Y048193D01*
X046453Y048160D01*
X046520D01*
X046553Y048193D01*
Y048227D01*
X046520Y048260D01*
X046420D01*
X046173Y047897D02*
X046140Y047930D01*
X046073D01*
X046040Y047897D01*
Y047763D01*
X046073Y047730D01*
X046140D01*
X046173Y047763D01*
X046373Y047930D02*
X046307Y047897D01*
X046240Y047830D01*
Y047763D01*
X046273Y047730D01*
X046340D01*
X046373Y047763D01*
Y047797D01*
X046340Y047830D01*
X046240D01*
X046573Y047930D02*
X046440D01*
Y047830D01*
X046507Y047863D01*
X046540D01*
X046573Y047830D01*
Y047763D01*
X046540Y047730D01*
X046473D01*
X046440Y047763D01*
X050123Y043687D02*
X050090Y043720D01*
X050023D01*
X049990Y043687D01*
Y043553D01*
X050023Y043520D01*
X050090D01*
X050123Y043553D01*
X050323Y043720D02*
X050257Y043687D01*
X050190Y043620D01*
Y043553D01*
X050223Y043520D01*
X050290D01*
X050323Y043553D01*
Y043587D01*
X050290Y043620D01*
X050190D01*
X050490Y043520D02*
Y043720D01*
X050390Y043620D01*
X050523D01*
X050183Y044307D02*
X050150Y044340D01*
X050083D01*
X050050Y044307D01*
Y044173D01*
X050083Y044140D01*
X050150D01*
X050183Y044173D01*
X050383Y044340D02*
X050317Y044307D01*
X050250Y044240D01*
Y044173D01*
X050283Y044140D01*
X050350D01*
X050383Y044173D01*
Y044207D01*
X050350Y044240D01*
X050250D01*
X050450Y044307D02*
X050483Y044340D01*
X050550D01*
X050583Y044307D01*
Y044273D01*
X050550Y044240D01*
X050517D01*
X050550D01*
X050583Y044207D01*
Y044173D01*
X050550Y044140D01*
X050483D01*
X050450Y044173D01*
X047263Y043587D02*
X047230Y043620D01*
X047163D01*
X047130Y043587D01*
Y043453D01*
X047163Y043420D01*
X047230D01*
X047263Y043453D01*
X047463Y043620D02*
X047397Y043587D01*
X047330Y043520D01*
Y043453D01*
X047363Y043420D01*
X047430D01*
X047463Y043453D01*
Y043487D01*
X047430Y043520D01*
X047330D01*
X047663Y043420D02*
X047530D01*
X047663Y043553D01*
Y043587D01*
X047630Y043620D01*
X047563D01*
X047530Y043587D01*
X023602Y017269D02*
X023568Y017235D01*
Y017169D01*
X023602Y017135D01*
X023735D01*
X023768Y017169D01*
Y017235D01*
X023735Y017269D01*
X023568Y017468D02*
X023602Y017402D01*
X023668Y017335D01*
X023735D01*
X023768Y017368D01*
Y017435D01*
X023735Y017468D01*
X023702D01*
X023668Y017435D01*
Y017335D01*
X023768Y017535D02*
Y017602D01*
Y017568D01*
X023568D01*
X023602Y017535D01*
X021643Y017073D02*
X021610Y017040D01*
Y016973D01*
X021643Y016940D01*
X021777D01*
X021810Y016973D01*
Y017040D01*
X021777Y017073D01*
X021610Y017273D02*
X021643Y017207D01*
X021710Y017140D01*
X021777D01*
X021810Y017173D01*
Y017240D01*
X021777Y017273D01*
X021743D01*
X021710Y017240D01*
Y017140D01*
X021643Y017340D02*
X021610Y017373D01*
Y017440D01*
X021643Y017473D01*
X021777D01*
X021810Y017440D01*
Y017373D01*
X021777Y017340D01*
X021643D01*
X022482Y017959D02*
X022448Y017925D01*
Y017859D01*
X022482Y017825D01*
X022615D01*
X022648Y017859D01*
Y017925D01*
X022615Y017959D01*
X022448Y018158D02*
Y018025D01*
X022548D01*
X022515Y018092D01*
Y018125D01*
X022548Y018158D01*
X022615D01*
X022648Y018125D01*
Y018058D01*
X022615Y018025D01*
Y018225D02*
X022648Y018258D01*
Y018325D01*
X022615Y018358D01*
X022482D01*
X022448Y018325D01*
Y018258D01*
X022482Y018225D01*
X022515D01*
X022548Y018258D01*
Y018358D01*
X023393Y033907D02*
X023360Y033940D01*
X023293D01*
X023260Y033907D01*
Y033773D01*
X023293Y033740D01*
X023360D01*
X023393Y033773D01*
X023593Y033940D02*
X023460D01*
Y033840D01*
X023527Y033873D01*
X023560D01*
X023593Y033840D01*
Y033773D01*
X023560Y033740D01*
X023493D01*
X023460Y033773D01*
X023660Y033907D02*
X023693Y033940D01*
X023760D01*
X023793Y033907D01*
Y033873D01*
X023760Y033840D01*
X023793Y033807D01*
Y033773D01*
X023760Y033740D01*
X023693D01*
X023660Y033773D01*
Y033807D01*
X023693Y033840D01*
X023660Y033873D01*
Y033907D01*
X023693Y033840D02*
X023760D01*
X021143Y035997D02*
X021110Y036030D01*
X021043D01*
X021010Y035997D01*
Y035863D01*
X021043Y035830D01*
X021110D01*
X021143Y035863D01*
X021343Y036030D02*
X021210D01*
Y035930D01*
X021277Y035963D01*
X021310D01*
X021343Y035930D01*
Y035863D01*
X021310Y035830D01*
X021243D01*
X021210Y035863D01*
X021410Y036030D02*
X021543D01*
Y035997D01*
X021410Y035863D01*
Y035830D01*
X028523Y045673D02*
X028490Y045640D01*
Y045573D01*
X028523Y045540D01*
X028657D01*
X028690Y045573D01*
Y045640D01*
X028657Y045673D01*
X028490Y045873D02*
Y045740D01*
X028590D01*
X028557Y045807D01*
Y045840D01*
X028590Y045873D01*
X028657D01*
X028690Y045840D01*
Y045773D01*
X028657Y045740D01*
X028490Y046073D02*
X028523Y046007D01*
X028590Y045940D01*
X028657D01*
X028690Y045973D01*
Y046040D01*
X028657Y046073D01*
X028623D01*
X028590Y046040D01*
Y045940D01*
X027843Y043667D02*
X027810Y043700D01*
X027743D01*
X027710Y043667D01*
Y043533D01*
X027743Y043500D01*
X027810D01*
X027843Y043533D01*
X028043Y043700D02*
X027910D01*
Y043600D01*
X027977Y043633D01*
X028010D01*
X028043Y043600D01*
Y043533D01*
X028010Y043500D01*
X027943D01*
X027910Y043533D01*
X028243Y043700D02*
X028110D01*
Y043600D01*
X028177Y043633D01*
X028210D01*
X028243Y043600D01*
Y043533D01*
X028210Y043500D01*
X028143D01*
X028110Y043533D01*
X026413Y043667D02*
X026380Y043700D01*
X026313D01*
X026280Y043667D01*
Y043533D01*
X026313Y043500D01*
X026380D01*
X026413Y043533D01*
X026613Y043700D02*
X026480D01*
Y043600D01*
X026547Y043633D01*
X026580D01*
X026613Y043600D01*
Y043533D01*
X026580Y043500D01*
X026513D01*
X026480Y043533D01*
X026780Y043500D02*
Y043700D01*
X026680Y043600D01*
X026813D01*
X034013Y020893D02*
X033980Y020860D01*
Y020793D01*
X034013Y020760D01*
X034147D01*
X034180Y020793D01*
Y020860D01*
X034147Y020893D01*
X033980Y021093D02*
Y020960D01*
X034080D01*
X034047Y021027D01*
Y021060D01*
X034080Y021093D01*
X034147D01*
X034180Y021060D01*
Y020993D01*
X034147Y020960D01*
X034013Y021160D02*
X033980Y021193D01*
Y021260D01*
X034013Y021293D01*
X034047D01*
X034080Y021260D01*
Y021227D01*
Y021260D01*
X034113Y021293D01*
X034147D01*
X034180Y021260D01*
Y021193D01*
X034147Y021160D01*
X034373Y023413D02*
X034340Y023380D01*
Y023313D01*
X034373Y023280D01*
X034507D01*
X034540Y023313D01*
Y023380D01*
X034507Y023413D01*
X034340Y023613D02*
Y023480D01*
X034440D01*
X034407Y023547D01*
Y023580D01*
X034440Y023613D01*
X034507D01*
X034540Y023580D01*
Y023513D01*
X034507Y023480D01*
X034540Y023813D02*
Y023680D01*
X034407Y023813D01*
X034373D01*
X034340Y023780D01*
Y023713D01*
X034373Y023680D01*
X034993Y019783D02*
X034960Y019750D01*
Y019683D01*
X034993Y019650D01*
X035127D01*
X035160Y019683D01*
Y019750D01*
X035127Y019783D01*
X034960Y019983D02*
Y019850D01*
X035060D01*
X035027Y019917D01*
Y019950D01*
X035060Y019983D01*
X035127D01*
X035160Y019950D01*
Y019883D01*
X035127Y019850D01*
X035160Y020050D02*
Y020117D01*
Y020083D01*
X034960D01*
X034993Y020050D01*
X031493Y024963D02*
X031460Y024930D01*
Y024863D01*
X031493Y024830D01*
X031627D01*
X031660Y024863D01*
Y024930D01*
X031627Y024963D01*
X031460Y025163D02*
Y025030D01*
X031560D01*
X031527Y025097D01*
Y025130D01*
X031560Y025163D01*
X031627D01*
X031660Y025130D01*
Y025063D01*
X031627Y025030D01*
X031493Y025230D02*
X031460Y025263D01*
Y025330D01*
X031493Y025363D01*
X031627D01*
X031660Y025330D01*
Y025263D01*
X031627Y025230D01*
X031493D01*
X031223Y017183D02*
X031190Y017150D01*
Y017083D01*
X031223Y017050D01*
X031357D01*
X031390Y017083D01*
Y017150D01*
X031357Y017183D01*
X031390Y017350D02*
X031190D01*
X031290Y017250D01*
Y017383D01*
X031357Y017450D02*
X031390Y017483D01*
Y017550D01*
X031357Y017583D01*
X031223D01*
X031190Y017550D01*
Y017483D01*
X031223Y017450D01*
X031257D01*
X031290Y017483D01*
Y017583D01*
X031833Y018827D02*
X031800Y018860D01*
X031733D01*
X031700Y018827D01*
Y018693D01*
X031733Y018660D01*
X031800D01*
X031833Y018693D01*
X032000Y018660D02*
Y018860D01*
X031900Y018760D01*
X032033D01*
X032100Y018827D02*
X032133Y018860D01*
X032200D01*
X032233Y018827D01*
Y018793D01*
X032200Y018760D01*
X032233Y018727D01*
Y018693D01*
X032200Y018660D01*
X032133D01*
X032100Y018693D01*
Y018727D01*
X032133Y018760D01*
X032100Y018793D01*
Y018827D01*
X032133Y018760D02*
X032200D01*
X036093Y019477D02*
X036060Y019510D01*
X035993D01*
X035960Y019477D01*
Y019343D01*
X035993Y019310D01*
X036060D01*
X036093Y019343D01*
X036260Y019310D02*
Y019510D01*
X036160Y019410D01*
X036293D01*
X036360Y019510D02*
X036493D01*
Y019477D01*
X036360Y019343D01*
Y019310D01*
X029493Y017243D02*
X029460Y017210D01*
Y017143D01*
X029493Y017110D01*
X029627D01*
X029660Y017143D01*
Y017210D01*
X029627Y017243D01*
X029660Y017410D02*
X029460D01*
X029560Y017310D01*
Y017443D01*
X029460Y017643D02*
X029493Y017577D01*
X029560Y017510D01*
X029627D01*
X029660Y017543D01*
Y017610D01*
X029627Y017643D01*
X029593D01*
X029560Y017610D01*
Y017510D01*
X031833Y023747D02*
X031800Y023780D01*
X031733D01*
X031700Y023747D01*
Y023613D01*
X031733Y023580D01*
X031800D01*
X031833Y023613D01*
X032000Y023580D02*
Y023780D01*
X031900Y023680D01*
X032033D01*
X032233Y023780D02*
X032100D01*
Y023680D01*
X032167Y023713D01*
X032200D01*
X032233Y023680D01*
Y023613D01*
X032200Y023580D01*
X032133D01*
X032100Y023613D01*
X048473Y050083D02*
X048440Y050050D01*
Y049983D01*
X048473Y049950D01*
X048607D01*
X048640Y049983D01*
Y050050D01*
X048607Y050083D01*
X048640Y050250D02*
X048440D01*
X048540Y050150D01*
Y050283D01*
X048640Y050450D02*
X048440D01*
X048540Y050350D01*
Y050483D01*
X050433Y053943D02*
X050400Y053910D01*
Y053843D01*
X050433Y053810D01*
X050567D01*
X050600Y053843D01*
Y053910D01*
X050567Y053943D01*
X050600Y054110D02*
X050400D01*
X050500Y054010D01*
Y054143D01*
X050433Y054210D02*
X050400Y054243D01*
Y054310D01*
X050433Y054343D01*
X050467D01*
X050500Y054310D01*
Y054277D01*
Y054310D01*
X050533Y054343D01*
X050567D01*
X050600Y054310D01*
Y054243D01*
X050567Y054210D01*
X049573Y053897D02*
X049540Y053930D01*
X049473D01*
X049440Y053897D01*
Y053763D01*
X049473Y053730D01*
X049540D01*
X049573Y053763D01*
X049740Y053730D02*
Y053930D01*
X049640Y053830D01*
X049773D01*
X049973Y053730D02*
X049840D01*
X049973Y053863D01*
Y053897D01*
X049940Y053930D01*
X049873D01*
X049840Y053897D01*
X051223Y053943D02*
X051190Y053910D01*
Y053843D01*
X051223Y053810D01*
X051357D01*
X051390Y053843D01*
Y053910D01*
X051357Y053943D01*
X051390Y054110D02*
X051190D01*
X051290Y054010D01*
Y054143D01*
X051390Y054210D02*
Y054277D01*
Y054243D01*
X051190D01*
X051223Y054210D01*
X028603Y026537D02*
X028570Y026570D01*
X028503D01*
X028470Y026537D01*
Y026403D01*
X028503Y026370D01*
X028570D01*
X028603Y026403D01*
X028770Y026370D02*
Y026570D01*
X028670Y026470D01*
X028803D01*
X028870Y026537D02*
X028903Y026570D01*
X028970D01*
X029003Y026537D01*
Y026403D01*
X028970Y026370D01*
X028903D01*
X028870Y026403D01*
Y026537D01*
X046433Y052903D02*
X046400Y052870D01*
Y052803D01*
X046433Y052770D01*
X046567D01*
X046600Y052803D01*
Y052870D01*
X046567Y052903D01*
Y052970D02*
X046600Y053003D01*
Y053070D01*
X046567Y053103D01*
X046433D01*
X046400Y053070D01*
Y053003D01*
X046433Y052970D01*
X046467D01*
X046500Y053003D01*
Y053103D01*
X046567Y053170D02*
X046600Y053203D01*
Y053270D01*
X046567Y053303D01*
X046433D01*
X046400Y053270D01*
Y053203D01*
X046433Y053170D01*
X046467D01*
X046500Y053203D01*
Y053303D01*
X028423Y024723D02*
X028390Y024690D01*
Y024623D01*
X028423Y024590D01*
X028557D01*
X028590Y024623D01*
Y024690D01*
X028557Y024723D01*
X028423Y024790D02*
X028390Y024823D01*
Y024890D01*
X028423Y024923D01*
X028457D01*
X028490Y024890D01*
Y024857D01*
Y024890D01*
X028523Y024923D01*
X028557D01*
X028590Y024890D01*
Y024823D01*
X028557Y024790D01*
X028423Y024990D02*
X028390Y025023D01*
Y025090D01*
X028423Y025123D01*
X028457D01*
X028490Y025090D01*
X028523Y025123D01*
X028557D01*
X028590Y025090D01*
Y025023D01*
X028557Y024990D01*
X028523D01*
X028490Y025023D01*
X028457Y024990D01*
X028423D01*
X028490Y025023D02*
Y025090D01*
X028583Y025807D02*
X028550Y025840D01*
X028483D01*
X028450Y025807D01*
Y025673D01*
X028483Y025640D01*
X028550D01*
X028583Y025673D01*
X028650Y025807D02*
X028683Y025840D01*
X028750D01*
X028783Y025807D01*
Y025773D01*
X028750Y025740D01*
X028717D01*
X028750D01*
X028783Y025707D01*
Y025673D01*
X028750Y025640D01*
X028683D01*
X028650Y025673D01*
X028850Y025840D02*
X028983D01*
Y025807D01*
X028850Y025673D01*
Y025640D01*
X032243Y042917D02*
X032210Y042950D01*
X032143D01*
X032110Y042917D01*
Y042783D01*
X032143Y042750D01*
X032210D01*
X032243Y042783D01*
X032443Y042750D02*
X032310D01*
X032443Y042883D01*
Y042917D01*
X032410Y042950D01*
X032343D01*
X032310Y042917D01*
X032643Y042950D02*
X032577Y042917D01*
X032510Y042850D01*
Y042783D01*
X032543Y042750D01*
X032610D01*
X032643Y042783D01*
Y042817D01*
X032610Y042850D01*
X032510D01*
X034443Y044613D02*
X034410Y044580D01*
Y044513D01*
X034443Y044480D01*
X034577D01*
X034610Y044513D01*
Y044580D01*
X034577Y044613D01*
X034610Y044813D02*
Y044680D01*
X034477Y044813D01*
X034443D01*
X034410Y044780D01*
Y044713D01*
X034443Y044680D01*
X034410Y045013D02*
Y044880D01*
X034510D01*
X034477Y044947D01*
Y044980D01*
X034510Y045013D01*
X034577D01*
X034610Y044980D01*
Y044913D01*
X034577Y044880D01*
X033133Y042477D02*
X033100Y042510D01*
X033033D01*
X033000Y042477D01*
Y042343D01*
X033033Y042310D01*
X033100D01*
X033133Y042343D01*
X033333Y042310D02*
X033200D01*
X033333Y042443D01*
Y042477D01*
X033300Y042510D01*
X033233D01*
X033200Y042477D01*
X033500Y042310D02*
Y042510D01*
X033400Y042410D01*
X033533D01*
X034233Y042517D02*
X034200Y042550D01*
X034133D01*
X034100Y042517D01*
Y042383D01*
X034133Y042350D01*
X034200D01*
X034233Y042383D01*
X034433Y042350D02*
X034300D01*
X034433Y042483D01*
Y042517D01*
X034400Y042550D01*
X034333D01*
X034300Y042517D01*
X034500D02*
X034533Y042550D01*
X034600D01*
X034633Y042517D01*
Y042483D01*
X034600Y042450D01*
X034567D01*
X034600D01*
X034633Y042417D01*
Y042383D01*
X034600Y042350D01*
X034533D01*
X034500Y042383D01*
X036393Y044367D02*
X036360Y044400D01*
X036293D01*
X036260Y044367D01*
Y044233D01*
X036293Y044200D01*
X036360D01*
X036393Y044233D01*
X036593Y044200D02*
X036460D01*
X036593Y044333D01*
Y044367D01*
X036560Y044400D01*
X036493D01*
X036460Y044367D01*
X036660D02*
X036693Y044400D01*
X036760D01*
X036793Y044367D01*
Y044233D01*
X036760Y044200D01*
X036693D01*
X036660Y044233D01*
Y044367D01*
X036833Y038043D02*
X036800Y038010D01*
Y037943D01*
X036833Y037910D01*
X036967D01*
X037000Y037943D01*
Y038010D01*
X036967Y038043D01*
X037000Y038110D02*
Y038177D01*
Y038143D01*
X036800D01*
X036833Y038110D01*
X037000Y038377D02*
X036800D01*
X036900Y038277D01*
Y038410D01*
X037233Y038023D02*
X037200Y037990D01*
Y037923D01*
X037233Y037890D01*
X037367D01*
X037400Y037923D01*
Y037990D01*
X037367Y038023D01*
X037400Y038090D02*
Y038157D01*
Y038123D01*
X037200D01*
X037233Y038090D01*
Y038257D02*
X037200Y038290D01*
Y038357D01*
X037233Y038390D01*
X037267D01*
X037300Y038357D01*
Y038323D01*
Y038357D01*
X037333Y038390D01*
X037367D01*
X037400Y038357D01*
Y038290D01*
X037367Y038257D01*
X037623Y038043D02*
X037590Y038010D01*
Y037943D01*
X037623Y037910D01*
X037757D01*
X037790Y037943D01*
Y038010D01*
X037757Y038043D01*
X037790Y038110D02*
Y038177D01*
Y038143D01*
X037590D01*
X037623Y038110D01*
X037790Y038410D02*
Y038277D01*
X037657Y038410D01*
X037623D01*
X037590Y038377D01*
Y038310D01*
X037623Y038277D01*
X038053Y038063D02*
X038020Y038030D01*
Y037963D01*
X038053Y037930D01*
X038187D01*
X038220Y037963D01*
Y038030D01*
X038187Y038063D01*
X038220Y038130D02*
Y038197D01*
Y038163D01*
X038020D01*
X038053Y038130D01*
X038220Y038297D02*
Y038363D01*
Y038330D01*
X038020D01*
X038053Y038297D01*
X025063Y052903D02*
X025030Y052870D01*
Y052803D01*
X025063Y052770D01*
X025197D01*
X025230Y052803D01*
Y052870D01*
X025197Y052903D01*
X025230Y052970D02*
Y053037D01*
Y053003D01*
X025030D01*
X025063Y052970D01*
Y053137D02*
X025030Y053170D01*
Y053237D01*
X025063Y053270D01*
X025197D01*
X025230Y053237D01*
Y053170D01*
X025197Y053137D01*
X025063D01*
X024863Y051223D02*
X024830Y051190D01*
Y051123D01*
X024863Y051090D01*
X024997D01*
X025030Y051123D01*
Y051190D01*
X024997Y051223D01*
Y051290D02*
X025030Y051323D01*
Y051390D01*
X024997Y051423D01*
X024863D01*
X024830Y051390D01*
Y051323D01*
X024863Y051290D01*
X024897D01*
X024930Y051323D01*
Y051423D01*
X025903Y051883D02*
X025870Y051850D01*
Y051783D01*
X025903Y051750D01*
X026037D01*
X026070Y051783D01*
Y051850D01*
X026037Y051883D01*
X025903Y051950D02*
X025870Y051983D01*
Y052050D01*
X025903Y052083D01*
X025937D01*
X025970Y052050D01*
X026003Y052083D01*
X026037D01*
X026070Y052050D01*
Y051983D01*
X026037Y051950D01*
X026003D01*
X025970Y051983D01*
X025937Y051950D01*
X025903D01*
X025970Y051983D02*
Y052050D01*
X025513Y047323D02*
X025480Y047290D01*
Y047223D01*
X025513Y047190D01*
X025647D01*
X025680Y047223D01*
Y047290D01*
X025647Y047323D01*
X025480Y047390D02*
Y047523D01*
X025513D01*
X025647Y047390D01*
X025680D01*
X025163Y047293D02*
X025130Y047260D01*
Y047193D01*
X025163Y047160D01*
X025297D01*
X025330Y047193D01*
Y047260D01*
X025297Y047293D01*
X025130Y047493D02*
X025163Y047427D01*
X025230Y047360D01*
X025297D01*
X025330Y047393D01*
Y047460D01*
X025297Y047493D01*
X025263D01*
X025230Y047460D01*
Y047360D01*
X028803Y049957D02*
X028770Y049990D01*
X028703D01*
X028670Y049957D01*
Y049823D01*
X028703Y049790D01*
X028770D01*
X028803Y049823D01*
X029003Y049990D02*
X028870D01*
Y049890D01*
X028937Y049923D01*
X028970D01*
X029003Y049890D01*
Y049823D01*
X028970Y049790D01*
X028903D01*
X028870Y049823D01*
X028813Y047567D02*
X028780Y047600D01*
X028713D01*
X028680Y047567D01*
Y047433D01*
X028713Y047400D01*
X028780D01*
X028813Y047433D01*
X028980Y047400D02*
Y047600D01*
X028880Y047500D01*
X029013D01*
X028833Y047947D02*
X028800Y047980D01*
X028733D01*
X028700Y047947D01*
Y047813D01*
X028733Y047780D01*
X028800D01*
X028833Y047813D01*
X028900Y047947D02*
X028933Y047980D01*
X029000D01*
X029033Y047947D01*
Y047913D01*
X029000Y047880D01*
X028967D01*
X029000D01*
X029033Y047847D01*
Y047813D01*
X029000Y047780D01*
X028933D01*
X028900Y047813D01*
X023483Y049257D02*
X023450Y049290D01*
X023383D01*
X023350Y049257D01*
Y049123D01*
X023383Y049090D01*
X023450D01*
X023483Y049123D01*
X023683Y049090D02*
X023550D01*
X023683Y049223D01*
Y049257D01*
X023650Y049290D01*
X023583D01*
X023550Y049257D01*
X024243Y050147D02*
X024210Y050180D01*
X024143D01*
X024110Y050147D01*
Y050013D01*
X024143Y049980D01*
X024210D01*
X024243Y050013D01*
X024310Y049980D02*
X024377D01*
X024343D01*
Y050180D01*
X024310Y050147D01*
D18*
X015168Y041413D02*
X015591D01*
X015168Y044366D02*
X015591D01*
X016310D02*
X017107D01*
X016310Y041413D02*
X017107D01*
D19*
X016196Y034948D02*
Y038492D01*
X014818Y034948D02*
X016196D01*
X014818D02*
Y035381D01*
Y034948D02*
X018164D01*
X019896D02*
X020684D01*
Y038492D01*
X014818D02*
X020684D01*
X014818Y036720D02*
Y038492D01*
Y035303D02*
Y036720D01*
Y037940D01*
D20*
X015237Y042890D02*
D03*
M02*
