G04*
G04 #@! TF.GenerationSoftware,Altium Limited,Altium Designer,21.2.1 (34)*
G04*
G04 Layer_Physical_Order=1*
G04 Layer_Color=255*
%FSAX24Y24*%
%MOIN*%
G70*
G04*
G04 #@! TF.SameCoordinates,274D9A25-BBB1-47C8-A32C-90C4575193A4*
G04*
G04*
G04 #@! TF.FilePolarity,Positive*
G04*
G01*
G75*
%ADD14C,0.0100*%
%ADD16C,0.0050*%
%ADD17C,0.0060*%
%ADD23R,0.0315X0.0315*%
%ADD24R,0.0244X0.0228*%
%ADD25R,0.0228X0.0244*%
%ADD26R,0.0248X0.0260*%
%ADD27R,0.0315X0.0157*%
%ADD28R,0.0866X0.0433*%
%ADD29R,0.0433X0.0394*%
%ADD30R,0.0374X0.0394*%
%ADD31R,0.0472X0.0236*%
%ADD32R,0.0244X0.0244*%
%ADD33R,0.0244X0.0244*%
%ADD34O,0.0118X0.0787*%
%ADD35R,0.0394X0.0354*%
%ADD36R,0.0256X0.0600*%
%ADD37R,0.0472X0.0118*%
%ADD38R,0.0118X0.0472*%
%ADD39R,0.0236X0.0394*%
G04:AMPARAMS|DCode=40|XSize=43.3mil|YSize=23.6mil|CornerRadius=2mil|HoleSize=0mil|Usage=FLASHONLY|Rotation=90.000|XOffset=0mil|YOffset=0mil|HoleType=Round|Shape=RoundedRectangle|*
%AMROUNDEDRECTD40*
21,1,0.0433,0.0196,0,0,90.0*
21,1,0.0393,0.0236,0,0,90.0*
1,1,0.0040,0.0098,0.0196*
1,1,0.0040,0.0098,-0.0196*
1,1,0.0040,-0.0098,-0.0196*
1,1,0.0040,-0.0098,0.0196*
%
%ADD40ROUNDEDRECTD40*%
G04:AMPARAMS|DCode=41|XSize=21.7mil|YSize=31.5mil|CornerRadius=1.9mil|HoleSize=0mil|Usage=FLASHONLY|Rotation=0.000|XOffset=0mil|YOffset=0mil|HoleType=Round|Shape=RoundedRectangle|*
%AMROUNDEDRECTD41*
21,1,0.0217,0.0276,0,0,0.0*
21,1,0.0178,0.0315,0,0,0.0*
1,1,0.0039,0.0089,-0.0138*
1,1,0.0039,-0.0089,-0.0138*
1,1,0.0039,-0.0089,0.0138*
1,1,0.0039,0.0089,0.0138*
%
%ADD41ROUNDEDRECTD41*%
%ADD42R,0.0413X0.0551*%
G04:AMPARAMS|DCode=43|XSize=17.7mil|YSize=61mil|CornerRadius=1.9mil|HoleSize=0mil|Usage=FLASHONLY|Rotation=180.000|XOffset=0mil|YOffset=0mil|HoleType=Round|Shape=RoundedRectangle|*
%AMROUNDEDRECTD43*
21,1,0.0177,0.0571,0,0,180.0*
21,1,0.0138,0.0610,0,0,180.0*
1,1,0.0039,-0.0069,0.0286*
1,1,0.0039,0.0069,0.0286*
1,1,0.0039,0.0069,-0.0286*
1,1,0.0039,-0.0069,-0.0286*
%
%ADD43ROUNDEDRECTD43*%
%ADD44R,0.0236X0.0244*%
%ADD45R,0.0280X0.0283*%
%ADD46R,0.0354X0.0197*%
%ADD47R,0.0646X0.0551*%
%ADD48R,0.0354X0.0394*%
%ADD49R,0.0709X0.0453*%
%ADD50R,0.0374X0.0374*%
%ADD51R,0.0551X0.0177*%
%ADD52R,0.0689X0.1157*%
%ADD53R,0.0748X0.0571*%
%ADD54R,0.0394X0.0374*%
%ADD55R,0.0453X0.0551*%
%ADD56R,0.0374X0.0394*%
%ADD57R,0.0244X0.0236*%
%ADD58R,0.0283X0.0280*%
%ADD59R,0.0272X0.0110*%
%ADD60R,0.0110X0.0272*%
%ADD61R,0.0984X0.0984*%
%ADD62R,0.0177X0.0295*%
%ADD63R,0.0945X0.0630*%
%ADD64R,0.0118X0.0354*%
%ADD65R,0.0354X0.0118*%
%ADD66R,0.0118X0.0118*%
%ADD67R,0.0610X0.0236*%
%ADD68R,0.0354X0.0157*%
%ADD69R,0.0394X0.0236*%
%ADD70R,0.0394X0.0394*%
%ADD71R,0.0551X0.0630*%
%ADD72R,0.0610X0.0748*%
%ADD73R,0.0531X0.0157*%
%ADD74R,0.1004X0.0630*%
%ADD75R,0.0551X0.1260*%
%ADD76R,0.0787X0.0787*%
%ADD77R,0.0394X0.0374*%
%ADD78R,0.0650X0.0937*%
%ADD79R,0.0276X0.0098*%
%ADD80R,0.0551X0.0413*%
%ADD81R,0.0571X0.0748*%
%ADD82R,0.1516X0.0984*%
%ADD83R,0.0118X0.0295*%
%ADD84R,0.0425X0.0362*%
%ADD85R,0.1240X0.0630*%
%ADD86R,0.0315X0.0709*%
%ADD87R,0.1378X0.0787*%
%ADD88R,0.0551X0.0413*%
%ADD126R,0.0709X0.0709*%
%ADD168C,0.0600*%
%ADD169C,0.0300*%
%ADD170C,0.0200*%
%ADD171C,0.0400*%
%ADD172C,0.0500*%
%ADD173C,0.0120*%
%ADD174C,0.0180*%
%ADD175C,0.0290*%
%ADD176C,0.0150*%
%ADD177R,0.0730X0.1180*%
%ADD178R,0.0810X0.0390*%
%ADD179R,0.1330X0.1090*%
%ADD180R,0.0360X0.0380*%
%ADD181R,0.0860X0.0450*%
%ADD182R,0.0450X0.0860*%
%ADD183R,0.0450X0.0690*%
%ADD184C,0.0866*%
%ADD185R,0.0866X0.0866*%
%ADD186R,0.0630X0.0630*%
%ADD187C,0.0630*%
%ADD188C,0.0591*%
%ADD189R,0.0630X0.0630*%
%ADD190C,0.0276*%
%ADD191C,0.0315*%
%ADD192C,0.0669*%
%ADD193O,0.0630X0.0354*%
%ADD194O,0.0709X0.1575*%
%ADD195O,0.1575X0.0709*%
%ADD196O,0.0709X0.1772*%
%ADD197C,0.3937*%
%ADD198C,0.0787*%
%ADD199C,0.0602*%
%ADD200C,0.0550*%
%ADD201C,0.0927*%
%ADD202C,0.1680*%
%ADD203C,0.0197*%
%ADD204C,0.0260*%
%ADD205C,0.0500*%
G36*
X048430Y052730D02*
Y052390D01*
X048427D01*
Y052250D01*
X048381Y052241D01*
X048377Y052241D01*
X048036D01*
Y051562D01*
X047836D01*
Y052241D01*
X047496D01*
X047492Y052241D01*
X047446Y052250D01*
Y052390D01*
X047170D01*
Y052202D01*
X047070D01*
Y052102D01*
X046694D01*
Y052046D01*
X047070D01*
Y051846D01*
X046694D01*
Y051790D01*
X047070D01*
Y051623D01*
X046694D01*
Y051570D01*
X046589D01*
Y051622D01*
X046105D01*
Y051400D01*
Y051178D01*
X046589D01*
Y051264D01*
X046694D01*
Y050990D01*
Y050734D01*
X046650Y050720D01*
X044380D01*
X044380Y052960D01*
X044476Y053056D01*
X044526Y053035D01*
Y052986D01*
X045474D01*
Y053080D01*
X045673D01*
Y052968D01*
X046267D01*
Y053080D01*
X048080D01*
X048430Y052730D01*
D02*
G37*
G36*
X030194Y053637D02*
X030180Y053619D01*
X030137Y053513D01*
X030122Y053400D01*
X030137Y053287D01*
X030180Y053181D01*
X030250Y053090D01*
X030341Y053020D01*
X030447Y052977D01*
X030560Y052962D01*
X030673Y052977D01*
X030751Y053009D01*
X030808Y052924D01*
X030677Y052793D01*
X026620D01*
X026561Y052781D01*
X026512Y052748D01*
X026072Y052308D01*
X026039Y052259D01*
X026027Y052200D01*
Y051742D01*
X025947Y051693D01*
X025868D01*
X025797Y051764D01*
Y052126D01*
Y052562D01*
X025797D01*
X025769Y052650D01*
X025762Y052683D01*
X025718Y052748D01*
X025653Y052792D01*
X025646Y052800D01*
X025616Y052901D01*
X025637Y052933D01*
X025644Y052967D01*
X025700Y053058D01*
X025777Y053073D01*
X025843Y053117D01*
X025887Y053183D01*
X025902Y053260D01*
X025887Y053337D01*
X025853Y053388D01*
Y053477D01*
X026060Y053683D01*
X026100Y053677D01*
X026109Y053671D01*
X026158Y053566D01*
X026137Y053513D01*
X026122Y053400D01*
X026137Y053287D01*
X026180Y053181D01*
X026250Y053090D01*
X026341Y053020D01*
X026447Y052977D01*
X026560Y052962D01*
X026673Y052977D01*
X026779Y053020D01*
X026870Y053090D01*
X026940Y053181D01*
X026983Y053287D01*
X026998Y053400D01*
X026983Y053513D01*
X026940Y053619D01*
X026926Y053637D01*
X026975Y053737D01*
X027145D01*
X027194Y053637D01*
X027180Y053619D01*
X027137Y053513D01*
X027122Y053400D01*
X027137Y053287D01*
X027180Y053181D01*
X027250Y053090D01*
X027341Y053020D01*
X027447Y052977D01*
X027560Y052962D01*
X027673Y052977D01*
X027779Y053020D01*
X027870Y053090D01*
X027940Y053181D01*
X027983Y053287D01*
X027998Y053400D01*
X027983Y053513D01*
X027940Y053619D01*
X027926Y053637D01*
X027975Y053737D01*
X028145D01*
X028194Y053637D01*
X028180Y053619D01*
X028137Y053513D01*
X028135Y053500D01*
X028985D01*
X028983Y053513D01*
X028940Y053619D01*
X028926Y053637D01*
X028975Y053737D01*
X029145D01*
X029194Y053637D01*
X029180Y053619D01*
X029137Y053513D01*
X029122Y053400D01*
X029137Y053287D01*
X029180Y053181D01*
X029250Y053090D01*
X029341Y053020D01*
X029447Y052977D01*
X029560Y052962D01*
X029673Y052977D01*
X029779Y053020D01*
X029870Y053090D01*
X029940Y053181D01*
X029983Y053287D01*
X029998Y053400D01*
X029983Y053513D01*
X029940Y053619D01*
X029926Y053637D01*
X029975Y053737D01*
X030145D01*
X030194Y053637D01*
D02*
G37*
G36*
X031158Y052700D02*
Y052617D01*
X031380D01*
Y052417D01*
X031158D01*
Y052405D01*
X031130Y052382D01*
X031053Y052367D01*
X030987Y052323D01*
X030943Y052257D01*
X030928Y052180D01*
X030943Y052103D01*
X030987Y052037D01*
X031053Y051993D01*
X031130Y051978D01*
X031158Y051955D01*
Y051941D01*
X031158D01*
X031201Y051851D01*
X031200Y051817D01*
X031199D01*
Y051145D01*
X031517D01*
Y051475D01*
X031518Y051481D01*
X031592D01*
Y051145D01*
X031614D01*
X031619Y051121D01*
X031652Y051071D01*
X031962Y050762D01*
X032011Y050729D01*
X032070Y050717D01*
X034406D01*
X034453Y050617D01*
X034433Y050587D01*
X034418Y050510D01*
X034433Y050433D01*
X034477Y050367D01*
X034543Y050323D01*
X034620Y050308D01*
X034697Y050323D01*
X034748Y050357D01*
X034979D01*
X035000Y050338D01*
X035047Y050257D01*
X035038Y050210D01*
X035053Y050133D01*
X035097Y050067D01*
X035107Y050060D01*
Y047750D01*
X035119Y047691D01*
X035152Y047642D01*
X035850Y046944D01*
X035899Y046911D01*
X035958Y046899D01*
X036117D01*
X036166Y046799D01*
X036159Y046789D01*
X036147Y046730D01*
Y046240D01*
X036157Y046190D01*
Y045870D01*
X036160Y045857D01*
X036086Y045775D01*
X036084Y045774D01*
X036038Y045786D01*
Y046395D01*
X036027Y046453D01*
X035993Y046503D01*
X034853Y047643D01*
Y049832D01*
X034887Y049883D01*
X034902Y049960D01*
X034887Y050037D01*
X034843Y050103D01*
X034777Y050147D01*
X034700Y050162D01*
X034623Y050147D01*
X034557Y050103D01*
X034513Y050037D01*
X034498Y049960D01*
X034513Y049883D01*
X034453Y049793D01*
X034447Y049790D01*
X034407Y049817D01*
X034330Y049832D01*
X034253Y049817D01*
X034187Y049773D01*
X034143Y049707D01*
X034128Y049630D01*
X034143Y049553D01*
X034177Y049502D01*
Y048904D01*
X034077Y048850D01*
X034067Y048857D01*
X033990Y048872D01*
X033913Y048857D01*
X033847Y048813D01*
X033803Y048747D01*
X033794Y048703D01*
X033754Y048657D01*
X033693Y048634D01*
X033650Y048642D01*
X033573Y048627D01*
X033507Y048583D01*
X033463Y048517D01*
X033448Y048440D01*
X033463Y048363D01*
X033497Y048312D01*
Y046840D01*
X033509Y046781D01*
X033542Y046732D01*
X033764Y046510D01*
Y046046D01*
X033755Y046002D01*
Y045837D01*
X033760Y045815D01*
X033705Y045715D01*
X033167D01*
Y045379D01*
X033092D01*
Y045715D01*
X031564D01*
X031526Y045807D01*
X031778Y046060D01*
X031811Y046109D01*
X031823Y046168D01*
Y049400D01*
X031811Y049459D01*
X031778Y049508D01*
X031370Y049916D01*
X031321Y049949D01*
X031262Y049961D01*
X031005D01*
Y050239D01*
Y050633D01*
Y050951D01*
X030333D01*
Y050951D01*
X030234Y050955D01*
X029749Y051439D01*
X029700Y051473D01*
X029641Y051484D01*
X029367D01*
X028731Y052120D01*
X028772Y052220D01*
X028981D01*
X029026Y052190D01*
X029085Y052179D01*
X030402D01*
X030453Y052145D01*
X030530Y052129D01*
X030607Y052145D01*
X030673Y052189D01*
X030717Y052254D01*
X030732Y052332D01*
X030721Y052387D01*
X030728Y052425D01*
X030780Y052495D01*
X030799Y052499D01*
X030848Y052532D01*
X031060Y052743D01*
X031158Y052700D01*
D02*
G37*
G36*
X034722Y052002D02*
X034771Y051969D01*
X034830Y051957D01*
X035028D01*
X035089Y051917D01*
X035071Y051817D01*
X032344D01*
X032284Y051917D01*
X032292Y051960D01*
X032277Y052037D01*
X032273Y052043D01*
X032327Y052143D01*
X032455D01*
Y052440D01*
Y052737D01*
X032312D01*
X032240Y052737D01*
X032168Y052737D01*
X031711D01*
X031704Y052744D01*
X031741Y052837D01*
X033887D01*
X034722Y052002D01*
D02*
G37*
G36*
X054530Y046452D02*
X054430Y046442D01*
X054427Y046457D01*
X054383Y046523D01*
X054317Y046567D01*
X054240Y046582D01*
X054163Y046567D01*
X054097Y046523D01*
X054053Y046457D01*
X054038Y046380D01*
X054053Y046303D01*
X054097Y046237D01*
X054163Y046193D01*
X054240Y046178D01*
X054317Y046193D01*
X054383Y046237D01*
X054427Y046303D01*
X054430Y046318D01*
X054530Y046308D01*
Y015560D01*
X015570D01*
X015560Y015564D01*
Y021030D01*
X025775D01*
Y020528D01*
X027491D01*
Y020568D01*
X027583Y020606D01*
X029125Y019065D01*
X029208Y019001D01*
X029306Y018960D01*
X029410Y018947D01*
X032407D01*
Y018595D01*
X031526D01*
Y018588D01*
X031052D01*
Y018654D01*
X030537D01*
Y018498D01*
X030437Y018422D01*
X030417Y018425D01*
X030371Y018485D01*
X030371Y018485D01*
X030343Y018513D01*
Y018654D01*
X029828D01*
Y018643D01*
X028120D01*
X028016Y018630D01*
X027918Y018589D01*
X027835Y018525D01*
X027655Y018345D01*
X027620Y018352D01*
X027575Y018343D01*
X027465D01*
X027420Y018352D01*
X027375Y018343D01*
X027255D01*
X027210Y018352D01*
X027165Y018343D01*
X026870D01*
X026870Y018343D01*
X026766Y018330D01*
X026668Y018289D01*
X026585Y018225D01*
X026585Y018225D01*
X026057Y017697D01*
X024924D01*
X024897Y017694D01*
X024041D01*
Y017258D01*
X023502D01*
X023494Y017354D01*
X023494Y017358D01*
Y017561D01*
X023118D01*
X022743D01*
Y017358D01*
X022743Y017354D01*
X022734Y017258D01*
X021612D01*
Y017579D01*
X021490D01*
Y017357D01*
X021390D01*
Y017258D01*
X021387Y017257D01*
X021168D01*
Y017121D01*
X021154Y017100D01*
X021135Y017003D01*
X021154Y016905D01*
X021168Y016885D01*
Y016781D01*
X021272D01*
X021292Y016767D01*
X021390Y016748D01*
X024041D01*
Y016706D01*
X025619D01*
Y016890D01*
X026224D01*
X026224Y016890D01*
X026328Y016904D01*
X026425Y016944D01*
X026509Y017009D01*
X027037Y017537D01*
X027820D01*
X027820Y017537D01*
X027924Y017550D01*
X028022Y017591D01*
X028105Y017655D01*
X028287Y017837D01*
X028930D01*
Y016767D01*
X028942Y016709D01*
X028975Y016659D01*
X029532Y016102D01*
X029581Y016069D01*
X029640Y016057D01*
X035710D01*
X035769Y016069D01*
X035818Y016102D01*
X036978Y017262D01*
X037011Y017311D01*
X037023Y017370D01*
Y018148D01*
X037127D01*
Y018540D01*
X037227Y018581D01*
X037363Y018446D01*
Y018148D01*
X037877D01*
Y018663D01*
X037655D01*
X037645Y018677D01*
X037699Y018777D01*
X037877D01*
Y019292D01*
X037783D01*
Y019571D01*
X037852D01*
Y019941D01*
Y020055D01*
X037630D01*
Y020155D01*
X037530D01*
Y020369D01*
X037423D01*
Y032690D01*
X037411Y032749D01*
X037378Y032798D01*
X031535Y038641D01*
Y039255D01*
X030705D01*
Y038425D01*
X031319D01*
X037117Y032627D01*
Y020459D01*
X037092Y020369D01*
X036970D01*
Y020155D01*
X036870D01*
Y020055D01*
X036648D01*
Y019941D01*
Y019571D01*
X036717D01*
Y019292D01*
X036613D01*
Y018777D01*
X037006D01*
X037013Y018763D01*
X036949Y018663D01*
X036613D01*
Y018148D01*
X036717D01*
Y017433D01*
X035647Y016363D01*
X029703D01*
X029236Y016831D01*
Y017837D01*
X029627D01*
Y017435D01*
X029640Y017331D01*
X029681Y017234D01*
X029697Y017213D01*
X029743Y017132D01*
Y016945D01*
X030030D01*
X030317D01*
Y017132D01*
X030363Y017213D01*
X030379Y017234D01*
X030383Y017242D01*
X030491Y017243D01*
X030527Y017195D01*
X030543Y017102D01*
X030543Y017102D01*
X030543Y017102D01*
Y016915D01*
X030840D01*
X031137D01*
Y017102D01*
X031137Y017102D01*
X031153Y017195D01*
X031189Y017243D01*
X031230Y017341D01*
X031243Y017445D01*
Y017782D01*
X032424D01*
X032461Y017693D01*
X032525Y017610D01*
X032608Y017546D01*
X032706Y017505D01*
X032810Y017492D01*
X032914Y017505D01*
X033012Y017546D01*
X033095Y017610D01*
X033159Y017693D01*
X033185Y017755D01*
X034176D01*
Y018585D01*
X033213D01*
Y019350D01*
Y019478D01*
X033390D01*
Y019765D01*
X033590D01*
Y019478D01*
X033743D01*
X033787Y019478D01*
X033877Y019503D01*
X034427D01*
X034478Y019441D01*
Y019441D01*
X034922D01*
Y019795D01*
Y019917D01*
X034700D01*
Y020017D01*
X034600D01*
Y020239D01*
X034527D01*
X034478Y020239D01*
X034427Y020318D01*
Y020687D01*
X034049D01*
X033864Y020872D01*
X033863Y020972D01*
X033863D01*
Y021395D01*
X033882D01*
Y021710D01*
X033310D01*
X032738D01*
Y021440D01*
X032688Y021419D01*
X032605Y021355D01*
X032541Y021272D01*
X032500Y021174D01*
X032487Y021070D01*
Y020876D01*
X032461Y020842D01*
X032420Y020744D01*
X032407Y020640D01*
X032407Y020640D01*
Y019843D01*
X032383Y019825D01*
X032325Y019841D01*
X032283Y019873D01*
Y019950D01*
X031657D01*
Y019769D01*
X031564Y019753D01*
X029577D01*
X027925Y021405D01*
X027842Y021469D01*
X027744Y021510D01*
X027640Y021523D01*
X027640Y021523D01*
X027491D01*
Y021712D01*
X026240D01*
Y021906D01*
X027491D01*
Y023090D01*
X026987D01*
Y024875D01*
X026987Y024875D01*
X026973Y024980D01*
X026958Y025017D01*
Y025367D01*
X027164D01*
X027240Y025357D01*
X027286Y025317D01*
Y024990D01*
X027671D01*
X028057D01*
Y025237D01*
X030157D01*
X031289Y024105D01*
X031339Y024071D01*
X031368Y024066D01*
Y023919D01*
X031768D01*
Y023916D01*
X032212D01*
Y024347D01*
X033867D01*
X034347Y023867D01*
Y023649D01*
X034230D01*
Y023435D01*
X034030D01*
Y023649D01*
X033840D01*
Y023435D01*
X033640D01*
Y023649D01*
X033450D01*
Y023427D01*
X033350D01*
Y023327D01*
X033128D01*
Y023119D01*
X033028Y023099D01*
X033011Y023140D01*
X032947Y023224D01*
X032947Y023224D01*
X032705Y023465D01*
X032622Y023529D01*
X032524Y023570D01*
X032420Y023583D01*
X032420Y023583D01*
X031470D01*
X031366Y023570D01*
X031268Y023529D01*
X031185Y023465D01*
X031185Y023465D01*
X031155Y023435D01*
X031091Y023352D01*
X031085Y023337D01*
X030837Y023090D01*
X030768D01*
X030742Y023094D01*
X030716Y023090D01*
X029692D01*
Y021906D01*
X031408D01*
Y022520D01*
X031665Y022777D01*
X032253D01*
X032258Y022771D01*
Y022554D01*
X032258Y022554D01*
X032272Y022450D01*
X032312Y022353D01*
X032304Y022333D01*
X032212Y022279D01*
X032114Y022319D01*
X032010Y022333D01*
X031906Y022319D01*
X031808Y022279D01*
X031778Y022256D01*
X031556D01*
Y021713D01*
X030740D01*
X030730Y021712D01*
X029692D01*
Y020528D01*
X031408D01*
Y020906D01*
X031970D01*
X032074Y020920D01*
X032172Y020961D01*
X032255Y021025D01*
X032258Y021029D01*
X032283D01*
Y021060D01*
X032319Y021108D01*
X032360Y021205D01*
X032373Y021310D01*
Y021603D01*
X032464D01*
Y022033D01*
X032564Y022100D01*
X032600Y022085D01*
X032704Y022072D01*
X032738Y022042D01*
Y021910D01*
X033310D01*
X033882D01*
Y022225D01*
X033863D01*
Y022395D01*
X033866Y022410D01*
Y022592D01*
X034124Y022851D01*
X034352D01*
Y022951D01*
X034389Y022959D01*
X034438Y022992D01*
X034608Y023162D01*
X034641Y023211D01*
X034653Y023270D01*
Y023930D01*
X034641Y023989D01*
X034608Y024038D01*
X034038Y024608D01*
X033988Y024641D01*
X033930Y024653D01*
X032212D01*
Y024714D01*
X031812D01*
Y024717D01*
X031368D01*
Y024589D01*
X031276Y024551D01*
X030328Y025498D01*
X030279Y025531D01*
X030220Y025543D01*
X028157D01*
Y025660D01*
X027870D01*
Y025760D01*
X027770D01*
Y026066D01*
X027712Y026079D01*
Y026183D01*
X027785Y026227D01*
Y026530D01*
X027985D01*
Y026233D01*
X028172D01*
Y026504D01*
X028251Y026540D01*
X028253Y026538D01*
X028260Y026533D01*
X028308Y026482D01*
Y026469D01*
X028310Y026464D01*
X028310Y026459D01*
X028317Y026446D01*
X028323Y026432D01*
X028326Y026428D01*
X028329Y026424D01*
X028361Y026385D01*
X028365Y026382D01*
X028367Y026378D01*
X028380Y026370D01*
X028391Y026360D01*
X028396Y026359D01*
X028400Y026356D01*
X028415Y026353D01*
X028429Y026349D01*
X028434Y026349D01*
X028439Y026348D01*
X029100D01*
X029139Y026356D01*
X029172Y026378D01*
X029722Y026928D01*
X029744Y026961D01*
X029752Y027000D01*
Y028050D01*
X029744Y028089D01*
X029722Y028122D01*
X029432Y028412D01*
X029399Y028434D01*
X029360Y028442D01*
X026700D01*
X026661Y028434D01*
X026628Y028412D01*
X026332Y028117D01*
X026240Y028155D01*
Y036890D01*
X024025Y039105D01*
X024064Y039197D01*
X024251D01*
Y039128D01*
X025049D01*
Y039197D01*
X025293D01*
X025352Y039209D01*
X025401Y039242D01*
X029025Y042865D01*
X029117Y042827D01*
Y041940D01*
X029129Y041881D01*
X029162Y041832D01*
X030970Y040023D01*
X031020Y039990D01*
X031079Y039978D01*
X032151D01*
X032210Y039990D01*
X032260Y040023D01*
X032455Y040219D01*
X032512Y040196D01*
X032620Y040181D01*
X032728Y040196D01*
X032829Y040238D01*
X032916Y040304D01*
X032982Y040391D01*
X033024Y040492D01*
X033039Y040600D01*
X033024Y040708D01*
X033001Y040765D01*
X033413Y041177D01*
X033850D01*
X033888Y041085D01*
X033785Y040981D01*
X033728Y041004D01*
X033620Y041019D01*
X033512Y041004D01*
X033411Y040962D01*
X033324Y040896D01*
X033258Y040809D01*
X033216Y040708D01*
X033201Y040600D01*
X033216Y040492D01*
X033258Y040391D01*
X033324Y040304D01*
X033411Y040238D01*
X033512Y040196D01*
X033620Y040181D01*
X033728Y040196D01*
X033829Y040238D01*
X033916Y040304D01*
X033982Y040391D01*
X034024Y040492D01*
X034039Y040600D01*
X034024Y040708D01*
X034001Y040765D01*
X034172Y040935D01*
X034174Y040936D01*
X034222Y040927D01*
X034264Y040818D01*
X034258Y040809D01*
X034216Y040708D01*
X034201Y040600D01*
X034216Y040492D01*
X034258Y040391D01*
X034324Y040304D01*
X034411Y040238D01*
X034467Y040214D01*
Y039220D01*
X034479Y039161D01*
X034512Y039112D01*
X035942Y037682D01*
X035991Y037649D01*
X036050Y037637D01*
X038928D01*
Y037206D01*
X038936D01*
Y037160D01*
X038952Y037082D01*
X038996Y037016D01*
X039062Y036972D01*
X039140Y036956D01*
X039218Y036972D01*
X039284Y037016D01*
X039328Y037082D01*
X039344Y037160D01*
Y037206D01*
X039372D01*
Y037637D01*
X039482D01*
Y037064D01*
X039938D01*
Y037064D01*
X039982D01*
Y037064D01*
X040382D01*
X040438Y037064D01*
X040538Y037064D01*
X040882D01*
X040938Y037064D01*
X041038Y037064D01*
X041110D01*
Y037465D01*
Y037865D01*
X041038D01*
X040982Y037865D01*
X040934D01*
X040863Y037935D01*
Y038062D01*
X040897Y038113D01*
X040912Y038190D01*
X040897Y038267D01*
X040853Y038333D01*
X040787Y038377D01*
X040710Y038392D01*
X040685Y038387D01*
X040636Y038480D01*
X040818Y038662D01*
X040851Y038711D01*
X040863Y038770D01*
Y039142D01*
X040886Y039153D01*
X041008Y039104D01*
X041011Y039095D01*
X040993Y039067D01*
X040978Y038990D01*
X040993Y038913D01*
X041037Y038847D01*
X041103Y038803D01*
X041180Y038788D01*
X041257Y038803D01*
X041323Y038847D01*
X041367Y038913D01*
X041382Y038990D01*
X041367Y039067D01*
X041345Y039100D01*
X041377Y039200D01*
X041438D01*
Y039947D01*
X041637D01*
X041712Y039872D01*
X041761Y039839D01*
X041820Y039827D01*
X043047D01*
Y039447D01*
X044113D01*
Y040513D01*
X043047D01*
Y040133D01*
X041883D01*
X041808Y040208D01*
X041759Y040241D01*
X041700Y040253D01*
X041430D01*
X041428Y040352D01*
X041428Y040353D01*
Y040652D01*
X041200D01*
Y040752D01*
X041100D01*
Y041152D01*
X041028D01*
X040928Y041152D01*
X040900Y041252D01*
X040907Y041263D01*
X040922Y041340D01*
X040907Y041417D01*
X040863Y041483D01*
X040797Y041527D01*
X040720Y041542D01*
X040643Y041527D01*
X040577Y041483D01*
X040533Y041417D01*
X040518Y041340D01*
X040533Y041263D01*
X040540Y041252D01*
X040531Y041228D01*
X040472Y041152D01*
X040453D01*
X040353Y041213D01*
Y041717D01*
X040808Y042172D01*
X040841Y042221D01*
X040853Y042280D01*
Y042417D01*
X040924Y042488D01*
X040976D01*
X041047Y042417D01*
Y042218D01*
X041013Y042167D01*
X040998Y042090D01*
X041013Y042013D01*
X041057Y041947D01*
X041123Y041903D01*
X041200Y041888D01*
X041277Y041903D01*
X041343Y041947D01*
X041387Y042013D01*
X041402Y042090D01*
X041387Y042167D01*
X041353Y042218D01*
Y042488D01*
X041428D01*
Y043274D01*
X041508Y043335D01*
X041903Y042941D01*
X041952Y042908D01*
X042011Y042896D01*
X042084D01*
Y042752D01*
X042497D01*
Y042578D01*
X042930D01*
Y042795D01*
X042717D01*
Y043303D01*
X042930D01*
Y043520D01*
X042497D01*
Y043346D01*
X042084D01*
Y043334D01*
X041984Y043293D01*
X041717Y043559D01*
X041654Y043628D01*
X041654D01*
X041654Y043628D01*
Y044072D01*
X040884D01*
Y044092D01*
X040825D01*
X040814Y044146D01*
X040781Y044196D01*
X040418Y044558D01*
X040369Y044591D01*
X040310Y044603D01*
X037793D01*
X036580Y045816D01*
X036618Y045909D01*
X036671D01*
Y046068D01*
X036871D01*
Y045909D01*
X037107D01*
Y045931D01*
X037207Y045941D01*
X037213Y045913D01*
X037257Y045847D01*
X037323Y045803D01*
X037400Y045788D01*
X037477Y045803D01*
X037543Y045847D01*
X037587Y045913D01*
X037602Y045990D01*
X037625Y046018D01*
X037674D01*
Y046240D01*
X037874D01*
Y046018D01*
X037996D01*
Y046231D01*
X038018Y046249D01*
X038550D01*
Y046184D01*
X039197D01*
Y046150D01*
X039209Y046091D01*
X039242Y046042D01*
X039772Y045512D01*
X039821Y045479D01*
X039880Y045467D01*
X043877D01*
X046342Y043002D01*
X046391Y042969D01*
X046450Y042957D01*
X046816D01*
Y042888D01*
X046877D01*
Y040553D01*
X046507D01*
Y039487D01*
X047573D01*
Y040553D01*
X047183D01*
Y042888D01*
X047614D01*
Y043116D01*
X047667Y043169D01*
X047700Y043218D01*
X047712Y043277D01*
Y043582D01*
X047727Y043597D01*
X047845Y043596D01*
X047860Y043578D01*
X047867Y043567D01*
X047933Y043523D01*
X048010Y043508D01*
X048087Y043523D01*
X048153Y043567D01*
X048197Y043633D01*
X048212Y043710D01*
X048246Y043751D01*
X048300D01*
Y043965D01*
X048500D01*
Y043751D01*
X048613D01*
Y043283D01*
X048651D01*
Y042848D01*
X049449D01*
Y042848D01*
X049549Y042868D01*
X049550Y042868D01*
X049627Y042883D01*
X049693Y042927D01*
X049737Y042993D01*
X049752Y043070D01*
X049737Y043147D01*
X049713Y043183D01*
X049752Y043277D01*
X049757Y043283D01*
X049817D01*
Y043480D01*
X049530D01*
Y043680D01*
X049817D01*
Y043815D01*
X049817Y043877D01*
X049812Y043975D01*
Y044110D01*
X049525D01*
Y044210D01*
X049425D01*
Y044507D01*
X049282D01*
X049210Y044507D01*
X049138Y044507D01*
X048923D01*
Y044510D01*
X048911Y044569D01*
X048878Y044618D01*
X048788Y044708D01*
X048739Y044741D01*
X048680Y044753D01*
X048662D01*
X048659Y044754D01*
X048585Y044839D01*
Y045410D01*
X048576Y045457D01*
X048549Y045496D01*
X048510Y045523D01*
X048463Y045532D01*
X048325D01*
X048278Y045523D01*
X048266Y045515D01*
X048254Y045523D01*
X048207Y045532D01*
X048069D01*
X048022Y045523D01*
X048010Y045515D01*
X047998Y045523D01*
X047951Y045532D01*
X047813D01*
X047766Y045523D01*
X047754Y045515D01*
X047742Y045523D01*
X047695Y045532D01*
X047557D01*
X047510Y045523D01*
X047471Y045496D01*
X047469Y045493D01*
X047232D01*
Y045979D01*
X047232D01*
Y046011D01*
X047232D01*
Y046310D01*
X047332Y046352D01*
X047372Y046312D01*
X047421Y046279D01*
X047480Y046267D01*
X048020D01*
X048079Y046279D01*
X048128Y046312D01*
X048208Y046392D01*
X048232Y046428D01*
X048261Y046441D01*
X048277Y046444D01*
X048345Y046450D01*
X048383Y046412D01*
X048432Y046379D01*
X048491Y046367D01*
X048808D01*
Y045961D01*
Y045683D01*
X048808Y045591D01*
X048830Y045514D01*
X048843Y045453D01*
X048855Y045435D01*
X048887Y045387D01*
X048953Y045343D01*
X049030Y045328D01*
X049107Y045343D01*
X049173Y045387D01*
X049205Y045435D01*
X049217Y045453D01*
X049230Y045514D01*
X049252Y045591D01*
X049252Y045683D01*
Y045961D01*
Y046356D01*
Y046891D01*
X049344Y046929D01*
X049425Y046849D01*
X049475Y046815D01*
X049533Y046804D01*
X049697D01*
Y046581D01*
X050543D01*
Y046804D01*
X051087D01*
Y046581D01*
X051933D01*
Y046647D01*
X052025Y046685D01*
X052675Y046035D01*
X052665Y045936D01*
X052659Y045931D01*
X052607Y045855D01*
X052606Y045853D01*
X052501Y045812D01*
X052496Y045813D01*
X052437Y045837D01*
X052370Y045846D01*
X052303Y045837D01*
X052240Y045811D01*
X052186Y045770D01*
X052145Y045716D01*
X052119Y045654D01*
X052110Y045586D01*
X052119Y045519D01*
X052145Y045457D01*
X052180Y045412D01*
X052186Y045400D01*
X052173Y045287D01*
X052173Y045286D01*
X052131Y045233D01*
X052105Y045170D01*
X052102Y045146D01*
X052000Y045106D01*
X051817Y045289D01*
X051768Y045322D01*
X051709Y045334D01*
X051659D01*
Y045418D01*
X051105D01*
Y045022D01*
X051229D01*
Y044772D01*
X051015D01*
Y044550D01*
Y044328D01*
X051499D01*
Y044528D01*
X051523Y044563D01*
X051535Y044622D01*
Y045022D01*
X051652D01*
X052082Y044592D01*
X052131Y044559D01*
X052190Y044547D01*
X052617D01*
X052676Y044559D01*
X052725Y044592D01*
X052808Y044675D01*
X052830Y044670D01*
X052838Y044672D01*
X052915Y044608D01*
Y043775D01*
X052565D01*
Y043122D01*
X052473Y043084D01*
X052338Y043218D01*
X052289Y043251D01*
X052230Y043263D01*
X050964D01*
Y043322D01*
X050528D01*
Y042729D01*
X050964D01*
Y042957D01*
X052167D01*
X052599Y042525D01*
X052576Y042468D01*
X052561Y042360D01*
X052576Y042252D01*
X052618Y042151D01*
X052684Y042064D01*
X052771Y041998D01*
X052872Y041956D01*
X052980Y041941D01*
X053088Y041956D01*
X053189Y041998D01*
X053276Y042064D01*
X053342Y042151D01*
X053384Y042252D01*
X053399Y042360D01*
X053384Y042468D01*
X053342Y042569D01*
X053276Y042656D01*
X053189Y042722D01*
X053088Y042764D01*
X052980Y042779D01*
X052872Y042764D01*
X052815Y042741D01*
X052704Y042853D01*
X052742Y042945D01*
X053395D01*
Y043775D01*
X053221D01*
Y044571D01*
X053241Y044596D01*
X053321Y044648D01*
X053353Y044644D01*
X053420Y044652D01*
X053483Y044678D01*
X053537Y044720D01*
X053578Y044773D01*
X053604Y044836D01*
X053613Y044903D01*
X053604Y044971D01*
X053598Y044985D01*
X053598Y045054D01*
X053648Y045106D01*
X053660Y045111D01*
X053714Y045153D01*
X053755Y045207D01*
X053781Y045269D01*
X053790Y045336D01*
X053785Y045375D01*
X053828Y045418D01*
X053861Y045468D01*
X053873Y045526D01*
Y046120D01*
X053861Y046179D01*
X053828Y046228D01*
X053193Y046863D01*
Y046991D01*
X053652D01*
Y047345D01*
Y047467D01*
X053430D01*
Y047567D01*
X053330D01*
Y047789D01*
X053140D01*
Y047575D01*
X052940D01*
Y047789D01*
X052818D01*
X052793Y047879D01*
Y048840D01*
X052781Y048899D01*
X052748Y048948D01*
X052338Y049358D01*
X052289Y049391D01*
X052230Y049403D01*
X049317D01*
X049266Y049417D01*
X049246Y049495D01*
X049309Y049583D01*
X050184D01*
Y049583D01*
X050206D01*
Y049583D01*
X051114D01*
Y050236D01*
X050206D01*
Y050236D01*
X050184D01*
Y050236D01*
X049493D01*
X049462Y050330D01*
X049462Y050336D01*
X049578Y050452D01*
X049611Y050501D01*
X049623Y050560D01*
Y050724D01*
X050106D01*
X050184Y050724D01*
X050284Y050724D01*
X050560D01*
Y051051D01*
Y051377D01*
X050284D01*
X050206Y051377D01*
X050106Y051377D01*
X049276D01*
Y051377D01*
X049178Y051383D01*
Y051538D01*
X049440D01*
X049479Y051546D01*
X049512Y051568D01*
X049534Y051601D01*
X049542Y051640D01*
Y051653D01*
X050154D01*
Y051653D01*
X050239Y051634D01*
X050239Y051634D01*
X050246Y051634D01*
X050853D01*
Y052386D01*
X050853D01*
Y052705D01*
X050847Y052749D01*
X050847Y053020D01*
X050847Y053092D01*
Y053235D01*
X050550D01*
Y053335D01*
X050450D01*
Y053622D01*
X050253D01*
Y053529D01*
X050154Y053527D01*
X050153Y053527D01*
X049780D01*
Y053141D01*
Y052756D01*
X050153D01*
X050154Y052756D01*
X050247Y052705D01*
Y052440D01*
X050154Y052424D01*
Y052424D01*
X049479D01*
X049440Y052432D01*
X048990D01*
X048951Y052424D01*
X048918Y052402D01*
X048910Y052390D01*
X048532D01*
Y052730D01*
X048524Y052769D01*
X048502Y052802D01*
X048152Y053152D01*
X048119Y053174D01*
X048080Y053182D01*
X046267D01*
Y053542D01*
X046070D01*
Y053255D01*
X045870D01*
Y053542D01*
X045673D01*
Y053182D01*
X045474D01*
Y053271D01*
X044526D01*
Y053250D01*
X044476Y053158D01*
X044476Y053158D01*
X044437Y053150D01*
X044404Y053128D01*
X044308Y053032D01*
X044286Y052999D01*
X044278Y052960D01*
X044278Y050720D01*
X044286Y050681D01*
X044308Y050648D01*
X044341Y050626D01*
X044380Y050618D01*
X046603D01*
X046653Y050612D01*
X046693Y050540D01*
X046698Y050527D01*
Y050013D01*
X047228D01*
X047252Y050013D01*
X047328D01*
X047352Y050013D01*
X047505D01*
Y050310D01*
Y050607D01*
X047352D01*
X047328Y050607D01*
X047252D01*
X047228Y050607D01*
X047128Y050607D01*
Y050734D01*
X047446D01*
Y050802D01*
X047492Y050883D01*
X048103D01*
X048199Y050787D01*
X048262Y050745D01*
X048336Y050730D01*
X048795D01*
X048802Y050729D01*
X048828Y050734D01*
X049178D01*
Y050734D01*
X049276Y050728D01*
Y050724D01*
X049317D01*
Y050623D01*
X049289Y050595D01*
X049077D01*
X049062Y050592D01*
X048653D01*
Y050102D01*
X048653Y050018D01*
X048653Y049918D01*
Y049815D01*
X048940D01*
Y049615D01*
X048653D01*
X048653Y049428D01*
X048563Y049403D01*
X046020D01*
X045961Y049391D01*
X045912Y049358D01*
X045107Y048553D01*
X042709D01*
X042667Y048581D01*
X042608Y048593D01*
X040188D01*
X040137Y048627D01*
X040060Y048642D01*
X039998Y048630D01*
X039963Y048665D01*
X039939Y048712D01*
X039952Y048726D01*
X039985Y048775D01*
X039997Y048834D01*
Y049217D01*
X040003Y049250D01*
X039998Y049278D01*
X040006Y049319D01*
Y049934D01*
X040219Y050147D01*
X041637D01*
Y049767D01*
X042703D01*
Y050833D01*
X041637D01*
Y050453D01*
X040156D01*
X040097Y050441D01*
X040048Y050408D01*
X039768Y050129D01*
X039745Y050113D01*
X039745Y050113D01*
X039729Y050103D01*
X039694Y050050D01*
X039682Y049988D01*
Y049653D01*
X039612D01*
Y049988D01*
X039600Y050050D01*
X039565Y050103D01*
X039548Y050113D01*
X039548Y050113D01*
X039512Y050138D01*
X039450Y050150D01*
X039388Y050138D01*
X039352Y050113D01*
X039315Y050138D01*
X039253Y050150D01*
X039191Y050138D01*
X039155Y050113D01*
X039118Y050138D01*
X039056Y050150D01*
X038994Y050138D01*
X038942Y050103D01*
X038906Y050050D01*
X038894Y049988D01*
Y049764D01*
X038592D01*
X038512Y049813D01*
X038512Y049864D01*
Y050010D01*
X038225D01*
Y050110D01*
X038125D01*
Y050407D01*
X037982D01*
X037910Y050407D01*
X037838Y050407D01*
X037514D01*
X037503Y050418D01*
X037454Y050451D01*
X037395Y050463D01*
X037330D01*
X037317Y050478D01*
X037363Y050578D01*
X037677D01*
Y050800D01*
Y051022D01*
X037657D01*
X037642Y051040D01*
X037627Y051117D01*
X037583Y051183D01*
X037517Y051227D01*
X037440Y051242D01*
X037363Y051227D01*
X037297Y051183D01*
X037253Y051117D01*
X037238Y051040D01*
X037223Y051022D01*
X037201D01*
Y050980D01*
X037107Y050951D01*
Y050951D01*
X037107Y050951D01*
X036435D01*
Y050551D01*
X036115D01*
X035968Y050699D01*
X036020Y050788D01*
X036069Y050778D01*
X036147Y050794D01*
X036212Y050838D01*
X036256Y050903D01*
X036271Y050981D01*
X036257Y051052D01*
X036241Y051145D01*
X036241Y051145D01*
X036241Y051145D01*
Y051817D01*
X036046D01*
Y051961D01*
X036087Y052023D01*
X036102Y052100D01*
X036087Y052177D01*
X036043Y052243D01*
X035977Y052287D01*
X035900Y052302D01*
X035841Y052350D01*
Y052861D01*
X035830Y052920D01*
X035797Y052970D01*
X034598Y054168D01*
X034549Y054201D01*
X034490Y054213D01*
X025890D01*
X025831Y054201D01*
X025782Y054168D01*
X025342Y053728D01*
X025309Y053679D01*
X025297Y053620D01*
Y053138D01*
X025263Y053087D01*
X025248Y053010D01*
X025263Y052933D01*
X025307Y052867D01*
X025373Y052823D01*
X025379Y052815D01*
X025409Y052714D01*
X025388Y052683D01*
X025373Y052605D01*
X025279Y052565D01*
X025225D01*
Y052325D01*
X025125D01*
Y052225D01*
X024883D01*
Y052085D01*
Y051783D01*
X024866Y051757D01*
X024851Y051680D01*
X024866Y051603D01*
X024900Y051552D01*
Y051175D01*
X024912Y051117D01*
X024945Y051067D01*
X025004Y051009D01*
X025053Y050976D01*
X025103Y050966D01*
Y050895D01*
X025551D01*
Y050439D01*
X025446D01*
Y050362D01*
X025354Y050324D01*
X025125Y050553D01*
X025082Y050582D01*
X025031Y050592D01*
X024747D01*
Y050750D01*
Y051178D01*
X024724D01*
Y051230D01*
X024708Y051308D01*
X024664Y051374D01*
X024598Y051418D01*
X024520Y051434D01*
X024442Y051418D01*
X024376Y051374D01*
X024332Y051308D01*
X024316Y051230D01*
Y051178D01*
X024303D01*
Y050750D01*
Y050592D01*
X024001D01*
X023909Y050684D01*
X023866Y050712D01*
X023816Y050723D01*
X023128D01*
X023078Y050823D01*
X023103Y050855D01*
X023141Y050946D01*
X023154Y051044D01*
X023141Y051142D01*
X023103Y051233D01*
X023043Y051312D01*
X022964Y051372D01*
X022873Y051410D01*
X022775Y051422D01*
X022677Y051410D01*
X022586Y051372D01*
X022508Y051312D01*
X022447Y051233D01*
X022428Y051186D01*
X022270D01*
X022261Y051232D01*
X022232Y051275D01*
X022117Y051389D01*
X022141Y051446D01*
X022154Y051544D01*
X022141Y051642D01*
X022103Y051733D01*
X022043Y051812D01*
X021964Y051872D01*
X021873Y051910D01*
X021775Y051922D01*
X021677Y051910D01*
X021586Y051872D01*
X021508Y051812D01*
X021447Y051733D01*
X021410Y051642D01*
X021397Y051544D01*
X021410Y051446D01*
X021447Y051355D01*
X021508Y051276D01*
X021586Y051216D01*
X021677Y051178D01*
X021775Y051166D01*
X021871Y051178D01*
X021910Y051147D01*
X021946Y051100D01*
X021938Y051064D01*
Y050979D01*
X021838Y050914D01*
X021775Y050922D01*
X021677Y050910D01*
X021586Y050872D01*
X021508Y050812D01*
X021447Y050733D01*
X021410Y050642D01*
X021397Y050544D01*
X021410Y050446D01*
X021447Y050355D01*
X021508Y050276D01*
X021586Y050216D01*
X021677Y050178D01*
X021775Y050166D01*
X021873Y050178D01*
X021930Y050202D01*
X022130Y050002D01*
Y049863D01*
X022081Y049834D01*
X022030Y049822D01*
X021964Y049872D01*
X021873Y049910D01*
X021775Y049922D01*
X021677Y049910D01*
X021586Y049872D01*
X021508Y049812D01*
X021447Y049733D01*
X021410Y049642D01*
X021397Y049544D01*
X021410Y049446D01*
X021447Y049355D01*
X021508Y049276D01*
X021586Y049216D01*
X021677Y049178D01*
X021775Y049166D01*
X021873Y049178D01*
X021927Y049201D01*
X022027Y049149D01*
Y048964D01*
X022031Y048947D01*
X021997Y048909D01*
X021951Y048878D01*
X021951Y048877D01*
X021873Y048910D01*
X021775Y048922D01*
X021677Y048910D01*
X021586Y048872D01*
X021508Y048812D01*
X021447Y048733D01*
X021410Y048642D01*
X021397Y048544D01*
X021410Y048446D01*
X021447Y048355D01*
X021508Y048276D01*
X021586Y048216D01*
X021677Y048178D01*
X021775Y048166D01*
X021873Y048178D01*
X021964Y048216D01*
X022043Y048276D01*
X022103Y048355D01*
X022141Y048446D01*
X022154Y048544D01*
X022141Y048642D01*
X022132Y048664D01*
X022216Y048721D01*
X022503Y048434D01*
X022512Y048350D01*
X022508Y048314D01*
X022504Y048307D01*
X022447Y048233D01*
X022411Y048144D01*
X022775D01*
X023140D01*
X023103Y048233D01*
X023069Y048277D01*
X023114Y048377D01*
X023730D01*
X023781Y048388D01*
X023824Y048416D01*
X024489Y049081D01*
X024703D01*
Y048783D01*
X024553Y048633D01*
X024509Y048567D01*
X024494Y048493D01*
X024453D01*
Y048057D01*
Y047695D01*
X024476D01*
Y047660D01*
X024492Y047582D01*
X024536Y047516D01*
X024602Y047472D01*
X024680Y047456D01*
X024758Y047472D01*
X024824Y047516D01*
X024868Y047582D01*
X024884Y047660D01*
Y047695D01*
X024975D01*
Y047909D01*
X025175D01*
Y047695D01*
X025375D01*
Y047917D01*
X025575D01*
Y047695D01*
X025641D01*
X025703Y047620D01*
Y047176D01*
Y047144D01*
X025925D01*
Y047044D01*
X026025D01*
Y046822D01*
X026147D01*
Y046835D01*
X026360D01*
Y047211D01*
X026560D01*
Y046835D01*
X027417D01*
Y046845D01*
X027525D01*
Y047067D01*
X027625D01*
Y047167D01*
X027847D01*
Y047272D01*
X028302D01*
Y047494D01*
X028502D01*
Y047272D01*
X028557D01*
Y044438D01*
X028522Y044416D01*
X028422Y044471D01*
Y044756D01*
Y045184D01*
X028422D01*
Y045238D01*
X028422D01*
Y045592D01*
Y045714D01*
X028200D01*
Y045814D01*
X028100D01*
Y046036D01*
X027978D01*
Y045960D01*
X027885Y045901D01*
X027823Y045936D01*
Y046058D01*
X027360D01*
Y045811D01*
X027160D01*
Y046058D01*
X026697D01*
Y045635D01*
X026688D01*
Y045320D01*
X027260D01*
Y045120D01*
X026688D01*
Y044805D01*
X026650Y044727D01*
X026631Y044629D01*
X026650Y044532D01*
X026688Y044476D01*
X026664Y044373D01*
X026608Y044357D01*
X026338D01*
Y044160D01*
X026625D01*
Y044060D01*
X026725D01*
Y043763D01*
X026858D01*
Y043170D01*
X026866Y043131D01*
X026888Y043098D01*
X026921Y043076D01*
X026960Y043068D01*
X027410D01*
X027449Y043076D01*
X027502Y043080D01*
X027538Y043048D01*
X027571Y043026D01*
X027610Y043018D01*
X027960D01*
X028002Y042918D01*
X025377Y040293D01*
X025049D01*
Y040362D01*
X024251D01*
Y040293D01*
X023390D01*
Y040792D01*
X023643D01*
Y041010D01*
X023743D01*
Y041110D01*
X024148D01*
Y041228D01*
X024148D01*
Y041257D01*
X024221Y041357D01*
X025587D01*
X025623Y041333D01*
X025700Y041318D01*
X025777Y041333D01*
X025843Y041377D01*
X025887Y041443D01*
X025902Y041520D01*
X025887Y041597D01*
X025843Y041663D01*
X025777Y041707D01*
X025700Y041722D01*
X025623Y041707D01*
X025557Y041663D01*
X025557Y041663D01*
X024221D01*
X024148Y041728D01*
Y041757D01*
X024221Y041857D01*
X025187D01*
X025223Y041833D01*
X025300Y041818D01*
X025377Y041833D01*
X025443Y041877D01*
X025487Y041943D01*
X025502Y042020D01*
X025487Y042097D01*
X025443Y042163D01*
X025377Y042207D01*
X025300Y042222D01*
X025223Y042207D01*
X025157Y042163D01*
X025072Y042212D01*
X025033Y042263D01*
X025034Y042270D01*
X025026Y042310D01*
Y042521D01*
X025022Y042540D01*
Y042797D01*
X024800D01*
Y042897D01*
X024700D01*
Y043119D01*
X024500D01*
Y042897D01*
X024400D01*
Y042797D01*
X024178D01*
Y042730D01*
X023759D01*
X023759Y042730D01*
X023748Y042728D01*
X023390D01*
Y045830D01*
X023030Y046190D01*
X020910D01*
X020876Y046290D01*
X020878Y046292D01*
X020968Y046409D01*
X021025Y046547D01*
X021031Y046594D01*
X020476D01*
Y046694D01*
X020376D01*
Y047249D01*
X020329Y047243D01*
X020262Y047215D01*
X020180Y047289D01*
X020201Y047360D01*
X020220Y047544D01*
X020201Y047728D01*
X020148Y047905D01*
X020060Y048069D01*
X019943Y048212D01*
X019800Y048329D01*
X019637Y048416D01*
X019459Y048470D01*
X019275Y048488D01*
X019091Y048470D01*
X018914Y048416D01*
X018751Y048329D01*
X018607Y048212D01*
X018490Y048069D01*
X018403Y047905D01*
X018349Y047728D01*
X018338Y047615D01*
X018234Y047585D01*
X018231Y047590D01*
X018147Y047654D01*
X018049Y047695D01*
X017944Y047709D01*
X017840Y047695D01*
X017742Y047654D01*
X017658Y047590D01*
X017594Y047506D01*
X017554Y047409D01*
X017540Y047304D01*
X017554Y047199D01*
X017594Y047102D01*
X017658Y047018D01*
X017742Y046953D01*
X017840Y046913D01*
X017944Y046899D01*
X018049Y046913D01*
X018147Y046953D01*
X018231Y047018D01*
X018295Y047102D01*
X018313Y047146D01*
X018314Y047146D01*
X018422Y047147D01*
X018490Y047019D01*
X018607Y046876D01*
X018751Y046759D01*
X018914Y046672D01*
X019091Y046618D01*
X019275Y046600D01*
X019459Y046618D01*
X019637Y046672D01*
X019800Y046759D01*
X019817Y046773D01*
X019911Y046721D01*
X019908Y046694D01*
X019927Y046547D01*
X019984Y046409D01*
X020074Y046292D01*
X020076Y046290D01*
X020042Y046190D01*
X015621D01*
X015550Y046261D01*
X015560Y054520D01*
X054530D01*
Y046452D01*
D02*
G37*
G36*
X028258Y052175D02*
X028273Y052098D01*
X028317Y052032D01*
X028383Y051988D01*
X028443Y051976D01*
X029196Y051223D01*
X029245Y051190D01*
X029304Y051178D01*
X029578D01*
X029852Y050904D01*
X029814Y050812D01*
X029386D01*
Y050368D01*
X029447D01*
Y049970D01*
X029459Y049912D01*
X029492Y049862D01*
X029564Y049789D01*
X029564Y049757D01*
X029540Y049672D01*
X029507Y049650D01*
X028624D01*
Y049794D01*
X028402D01*
Y049994D01*
X028624D01*
Y050072D01*
Y050194D01*
X028410D01*
Y050394D01*
X028624D01*
Y050493D01*
X028710D01*
X028788Y050509D01*
X028854Y050553D01*
X028898Y050619D01*
X028914Y050697D01*
X028898Y050775D01*
X028854Y050841D01*
X028840Y050851D01*
X028831Y050880D01*
X028824Y050973D01*
X028824Y050973D01*
X028853Y051017D01*
X028868Y051094D01*
X028853Y051171D01*
X028809Y051237D01*
X028743Y051281D01*
X028715Y051287D01*
X028624Y051316D01*
X028624Y051316D01*
X028624Y051316D01*
X028163D01*
X028102Y051390D01*
X028087Y051467D01*
X028043Y051533D01*
X027977Y051577D01*
X027900Y051592D01*
X027847Y051582D01*
X027772Y051624D01*
X027747Y051647D01*
Y051850D01*
X027747Y051943D01*
X027747D01*
X027727Y052021D01*
X027712Y052092D01*
X027693Y052120D01*
X027741Y052220D01*
X028220D01*
X028258Y052175D01*
D02*
G37*
G36*
X023980Y049322D02*
X024058D01*
X024099Y049222D01*
X023630Y048753D01*
X023151D01*
X023101Y048853D01*
X023103Y048855D01*
X023141Y048946D01*
X023154Y049044D01*
X023141Y049142D01*
X023103Y049233D01*
X023069Y049278D01*
X023084Y049307D01*
X023132Y049359D01*
X023190Y049348D01*
X023203Y049350D01*
X023303Y049322D01*
Y049322D01*
X023780D01*
Y049544D01*
X023980D01*
Y049322D01*
D02*
G37*
G36*
X039687Y049123D02*
X039691Y049120D01*
Y048897D01*
X038778Y047984D01*
X038744Y047934D01*
X038733Y047876D01*
Y047368D01*
X038550D01*
Y046932D01*
Y046555D01*
X038081D01*
X037988Y046648D01*
X037939Y046681D01*
X037880Y046693D01*
X037240D01*
X037207Y046686D01*
X037200Y046687D01*
X037146Y046715D01*
X037145Y046716D01*
X037107Y046752D01*
Y047287D01*
Y047680D01*
Y048079D01*
X037226D01*
Y048008D01*
X038024D01*
Y048452D01*
X037963D01*
Y048664D01*
X037961Y048673D01*
X037972Y048730D01*
X038057Y048796D01*
X038102Y048802D01*
X038104Y048801D01*
X038151Y048769D01*
X038210Y048757D01*
X039180D01*
X039239Y048769D01*
X039288Y048802D01*
X039555Y049068D01*
X039588Y049118D01*
X039591Y049133D01*
X039687Y049123D01*
D02*
G37*
G36*
X052487Y048777D02*
Y048087D01*
X052400Y048002D01*
X052323Y047987D01*
X052257Y047943D01*
X052213Y047877D01*
X052208Y047850D01*
X052178Y047759D01*
X052178Y047759D01*
X052178Y047759D01*
Y047331D01*
Y047095D01*
X052086Y047057D01*
X052078Y047065D01*
X052028Y047098D01*
X051970Y047110D01*
X051933D01*
Y047332D01*
X051087D01*
Y047110D01*
X050543D01*
Y047332D01*
X049697D01*
Y047110D01*
X049597D01*
X049348Y047358D01*
Y048248D01*
X049409D01*
Y048692D01*
X048611D01*
Y048623D01*
X048369D01*
X048355Y048627D01*
X048266Y048699D01*
X048258Y048738D01*
X048214Y048804D01*
X048148Y048848D01*
X048070Y048864D01*
X047989D01*
Y048882D01*
X047191D01*
Y048713D01*
X047174Y048687D01*
X047158Y048609D01*
Y048482D01*
X047086D01*
Y048260D01*
X046986D01*
Y048160D01*
X046764D01*
Y048072D01*
X046741D01*
Y047950D01*
X046963D01*
Y047850D01*
X047063D01*
Y047628D01*
X047122D01*
X047129Y047595D01*
X047173Y047529D01*
X047411Y047291D01*
Y046967D01*
X047426Y046889D01*
X047430Y046883D01*
X047407Y046783D01*
X047335Y046742D01*
X047305Y046748D01*
X047232D01*
Y046809D01*
X046788D01*
Y046381D01*
Y046011D01*
X046788D01*
Y045979D01*
X046788D01*
Y045551D01*
Y045181D01*
X047232D01*
Y045187D01*
X047435D01*
Y045089D01*
X047435Y045086D01*
Y044810D01*
X047191Y044566D01*
X046979D01*
Y044136D01*
X046957D01*
Y043653D01*
X047406D01*
Y043340D01*
X047398Y043332D01*
X046816D01*
Y043263D01*
X046513D01*
X044048Y045728D01*
X043999Y045761D01*
X043940Y045773D01*
X039943D01*
X039632Y046084D01*
X039674Y046184D01*
X040206D01*
Y046249D01*
X040306D01*
X040313Y046245D01*
X040390Y046229D01*
X040467Y046245D01*
X040533Y046289D01*
X040577Y046354D01*
X040592Y046432D01*
X040587Y046461D01*
X040609Y046495D01*
X040682Y046561D01*
Y046561D01*
X040762Y046610D01*
X040827Y046623D01*
X040893Y046667D01*
X040937Y046733D01*
X040952Y046810D01*
X040937Y046887D01*
X040893Y046953D01*
X040827Y046997D01*
X040750Y047012D01*
X040720Y047037D01*
X040460D01*
Y047137D01*
X040360D01*
Y047359D01*
X040238D01*
Y047359D01*
X040206Y047368D01*
X040206Y047368D01*
X040142Y047368D01*
X039970D01*
Y047150D01*
X039870D01*
Y047050D01*
X039534D01*
Y046849D01*
X039530Y046846D01*
X039434Y046813D01*
X039362Y046884D01*
X039313Y046917D01*
X039254Y046929D01*
X039222D01*
Y047368D01*
X039039D01*
Y047812D01*
X039788Y048561D01*
X039835Y048537D01*
X039870Y048502D01*
X039858Y048440D01*
X039873Y048363D01*
X039917Y048297D01*
X039983Y048253D01*
X040060Y048238D01*
X040137Y048253D01*
X040188Y048287D01*
X042547D01*
X042590Y048259D01*
X042648Y048247D01*
X045170D01*
X045229Y048259D01*
X045278Y048292D01*
X046083Y049097D01*
X052167D01*
X052487Y048777D01*
D02*
G37*
G36*
X049042Y047295D02*
X049050Y047254D01*
X049016Y047188D01*
X048988Y047154D01*
X048808D01*
Y047040D01*
X049030D01*
Y046840D01*
X048808D01*
Y046673D01*
X048585D01*
Y046917D01*
X048585Y046920D01*
Y047241D01*
X048576Y047288D01*
X048549Y047327D01*
X048529Y047341D01*
X048505Y047420D01*
X048503Y047457D01*
X048556Y047510D01*
X048589Y047559D01*
X048601Y047618D01*
Y047633D01*
X048852D01*
Y048227D01*
X048943Y048248D01*
X049042D01*
Y047295D01*
D02*
G37*
G36*
X030673Y045819D02*
X030674Y045812D01*
X030112Y045250D01*
X030079Y045201D01*
X030067Y045142D01*
Y042000D01*
X030079Y041941D01*
X030112Y041892D01*
X031205Y040799D01*
Y040363D01*
X031105Y040321D01*
X029423Y042003D01*
Y045868D01*
X029680D01*
X029681Y045867D01*
X029696Y045789D01*
X029740Y045724D01*
X029806Y045680D01*
X029883Y045664D01*
X029961Y045680D01*
X030026Y045724D01*
X030070Y045789D01*
X030079Y045834D01*
X030080Y045836D01*
X030155Y045897D01*
X030178Y045909D01*
X030629D01*
X030673Y045819D01*
D02*
G37*
G36*
X035536Y045918D02*
Y045715D01*
X034939D01*
Y045418D01*
X034937Y045410D01*
Y045379D01*
X034863D01*
Y045715D01*
X034463D01*
Y046839D01*
X034461Y046851D01*
X034553Y046900D01*
X035536Y045918D01*
D02*
G37*
G36*
X037622Y044342D02*
X037671Y044309D01*
X037730Y044297D01*
X040247D01*
X040359Y044184D01*
X040321Y044092D01*
X040086D01*
Y043970D01*
X040300D01*
Y043870D01*
X040400D01*
Y043648D01*
X040532D01*
Y043363D01*
X040472Y043288D01*
X040428D01*
Y043288D01*
X040188D01*
X039895Y043582D01*
X039891Y043599D01*
X039858Y043648D01*
X039558Y043948D01*
X039509Y043981D01*
X039450Y043993D01*
X037773D01*
X036908Y044858D01*
X036859Y044891D01*
X036800Y044903D01*
X036619D01*
Y044972D01*
X036312D01*
X036241Y045043D01*
Y045581D01*
X036341Y045622D01*
X037622Y044342D01*
D02*
G37*
G36*
X034813Y045042D02*
X034744Y044942D01*
X034651D01*
Y044820D01*
X034873D01*
Y044620D01*
X034651D01*
Y044498D01*
Y044430D01*
X034873D01*
Y044330D01*
X034973D01*
Y044108D01*
X035060D01*
Y043712D01*
X035001D01*
Y043268D01*
X035001Y043268D01*
X035051Y043168D01*
X035045Y043141D01*
Y042865D01*
X035054Y042819D01*
X035081Y042779D01*
X035120Y042753D01*
X035167Y042743D01*
X035345D01*
X035391Y042753D01*
X035431Y042779D01*
X035457Y042819D01*
X035466Y042865D01*
Y043141D01*
X035461Y043168D01*
X035498Y043237D01*
X035524Y043268D01*
X035736D01*
X035776Y043220D01*
X035784Y043208D01*
X035797Y043158D01*
X035793Y043141D01*
Y042865D01*
X035803Y042819D01*
X035829Y042779D01*
X035868Y042753D01*
X035915Y042743D01*
X036093D01*
X036139Y042753D01*
X036168Y042772D01*
X036204Y042766D01*
X036268Y042732D01*
Y042723D01*
X036490D01*
X036728D01*
X036770Y042788D01*
X036847Y042803D01*
X036913Y042847D01*
X036957Y042913D01*
X036972Y042990D01*
X036957Y043068D01*
X036913Y043133D01*
X036847Y043177D01*
X036811Y043184D01*
X036791Y043208D01*
X036800Y043335D01*
X036844Y043401D01*
X036860Y043479D01*
X036844Y043557D01*
X036800Y043623D01*
X036734Y043667D01*
X036656Y043683D01*
X036569D01*
Y043702D01*
X035799D01*
Y043712D01*
X035770D01*
Y043848D01*
X035783Y043868D01*
X035796Y043930D01*
Y044098D01*
X035887D01*
Y044320D01*
X035987D01*
Y044420D01*
X036209D01*
Y044528D01*
X036619D01*
Y044597D01*
X036737D01*
X037602Y043732D01*
X037651Y043699D01*
X037710Y043687D01*
X039387D01*
X039605Y043468D01*
X039609Y043451D01*
X039642Y043402D01*
X039663Y043380D01*
X039625Y043288D01*
X039472D01*
Y043221D01*
X039322D01*
Y043239D01*
X038878D01*
Y043224D01*
X038870D01*
X038792Y043208D01*
X038726Y043164D01*
X038682Y043098D01*
X038666Y043020D01*
X038682Y042942D01*
X038726Y042876D01*
X038792Y042832D01*
X038870Y042816D01*
X038878D01*
Y042763D01*
X039100D01*
Y042563D01*
X038878D01*
Y042441D01*
X038878D01*
Y042369D01*
X038878D01*
Y042157D01*
X038501Y041780D01*
X038467Y041730D01*
X038456Y041672D01*
Y041646D01*
X038378Y041568D01*
X038286Y041606D01*
Y041991D01*
X038280Y042020D01*
Y042261D01*
X038392D01*
Y042267D01*
X038430Y042298D01*
X038507Y042313D01*
X038573Y042357D01*
X038617Y042423D01*
X038632Y042500D01*
X038617Y042577D01*
X038573Y042643D01*
X038507Y042687D01*
X038430Y042702D01*
X038392Y042733D01*
Y042737D01*
X038170D01*
X037948D01*
Y042566D01*
X037848Y042536D01*
X037843Y042543D01*
X037777Y042587D01*
X037700Y042602D01*
X037682Y042599D01*
X037665Y042602D01*
X037584Y042670D01*
X037582Y042673D01*
Y043049D01*
X037564D01*
Y043060D01*
X037548Y043138D01*
X037504Y043204D01*
X037438Y043248D01*
X037360Y043264D01*
X037282Y043248D01*
X037216Y043204D01*
X037172Y043138D01*
X037156Y043060D01*
Y043049D01*
X037138D01*
Y042618D01*
X037025D01*
X036966Y042606D01*
X036917Y042573D01*
X036812Y042468D01*
X036712Y042510D01*
Y042523D01*
X036590D01*
Y042401D01*
X036603D01*
X036645Y042301D01*
X036376Y042033D01*
X035840D01*
Y042037D01*
X035630D01*
Y042137D01*
X035530D01*
Y042395D01*
X035494Y042388D01*
X035455Y042361D01*
X035429Y042322D01*
X035419Y042275D01*
Y042148D01*
X035319Y042107D01*
X034828Y042598D01*
X034779Y042631D01*
X034720Y042643D01*
X034719D01*
Y042740D01*
X034497D01*
Y042840D01*
X034397D01*
Y043062D01*
X034270D01*
Y043180D01*
X034390D01*
Y043931D01*
X034005D01*
X033995Y043946D01*
X034048Y044046D01*
X034390D01*
Y044322D01*
X034064D01*
Y044422D01*
X033964D01*
Y044797D01*
X033867D01*
Y045043D01*
X034813D01*
X034813Y045042D01*
D02*
G37*
G36*
X032189Y044869D02*
X031968D01*
Y044345D01*
X031936Y044298D01*
X031921Y044220D01*
Y044092D01*
X031881D01*
Y043648D01*
X031818Y043617D01*
Y043023D01*
X031893D01*
Y043020D01*
X031909Y042942D01*
X031953Y042876D01*
X032019Y042832D01*
X032097Y042816D01*
X032175Y042832D01*
X032242Y042876D01*
X032286Y042942D01*
X032299Y043007D01*
X032392Y043023D01*
X032408D01*
Y043023D01*
X032595D01*
Y043320D01*
X032795D01*
Y043023D01*
X032865D01*
Y042643D01*
X032043D01*
X031708Y042979D01*
Y045043D01*
X032189D01*
Y044869D01*
D02*
G37*
G36*
X038701Y041055D02*
X038722Y040948D01*
X038716Y040944D01*
X038672Y040878D01*
X038656Y040800D01*
X038672Y040722D01*
X038716Y040656D01*
X038782Y040612D01*
X038860Y040596D01*
X038878D01*
Y040596D01*
X039322D01*
Y040909D01*
X039417Y040956D01*
X039472Y040908D01*
Y040352D01*
X039928D01*
Y040352D01*
X039972D01*
Y040352D01*
X040212D01*
X040347Y040217D01*
Y040000D01*
X040038D01*
X039982Y040000D01*
X039882Y040000D01*
X039482D01*
Y039886D01*
X039392Y039862D01*
Y039862D01*
X039270D01*
Y039640D01*
X039170D01*
Y039540D01*
X038948D01*
Y039494D01*
X038920D01*
X038842Y039478D01*
X038776Y039434D01*
X038732Y039368D01*
X038716Y039290D01*
X038732Y039212D01*
X038776Y039146D01*
X038842Y039102D01*
X038920Y039086D01*
X038948D01*
Y039064D01*
X039392D01*
Y039086D01*
X039400D01*
X039478Y039102D01*
X039544Y039146D01*
X039594Y039196D01*
X039682D01*
X039702Y039200D01*
X039938Y039200D01*
X039986D01*
X040026Y039160D01*
Y039042D01*
X039767Y038783D01*
X039382D01*
Y038844D01*
X038938D01*
Y038783D01*
X038760D01*
X038701Y038771D01*
X038652Y038738D01*
X038247Y038333D01*
X036103D01*
X035283Y039153D01*
Y040210D01*
X035383Y040259D01*
X035411Y040238D01*
X035512Y040196D01*
X035520Y040195D01*
Y040600D01*
X035620D01*
Y040700D01*
X036025D01*
X036024Y040708D01*
X036010Y040742D01*
X036095Y040799D01*
X036322Y040572D01*
X036371Y040539D01*
X036430Y040527D01*
X037160D01*
X037172Y040512D01*
X037205Y040427D01*
X037186Y040400D01*
X037174Y040338D01*
Y039723D01*
X037130Y039679D01*
X037070Y039667D01*
X037004Y039623D01*
X036961Y039557D01*
X036945Y039480D01*
X036953Y039438D01*
X036886Y039362D01*
X036668D01*
Y038918D01*
Y038886D01*
X036890D01*
Y038786D01*
X036990D01*
Y038564D01*
X037190D01*
Y038786D01*
X037390D01*
Y038564D01*
X037512D01*
Y038571D01*
X037590D01*
Y038793D01*
X037790D01*
Y038571D01*
X038000D01*
Y038793D01*
X038100D01*
Y038893D01*
X038322D01*
Y038925D01*
Y039369D01*
X038259D01*
X038199Y039454D01*
X038219Y039541D01*
X038238Y039554D01*
X038274Y039607D01*
X038286Y039669D01*
Y039903D01*
X038124D01*
Y040103D01*
X038286D01*
Y040338D01*
X038274Y040400D01*
X038238Y040453D01*
X038209Y040472D01*
X038193Y040522D01*
X038191Y040549D01*
X038194Y040588D01*
X038668Y041062D01*
X038701Y041055D01*
D02*
G37*
G36*
X025110Y035900D02*
Y031700D01*
X024790Y031380D01*
X015730D01*
X015507Y031603D01*
Y038467D01*
X015550Y038510D01*
X022500D01*
X025110Y035900D01*
D02*
G37*
G36*
X029650Y028050D02*
Y027000D01*
X029100Y026450D01*
X028439D01*
X028408Y026489D01*
X028414Y026520D01*
X028398Y026598D01*
X028354Y026664D01*
X028288Y026708D01*
X028210Y026724D01*
X028172D01*
Y026827D01*
X027598D01*
Y026233D01*
X027598Y026233D01*
X027598D01*
X027610Y026183D01*
Y026079D01*
X027575Y026057D01*
X027533Y026056D01*
X027527Y026057D01*
D01*
X027486Y026078D01*
X027432Y026119D01*
X027334Y026160D01*
X027230Y026173D01*
X027230Y026173D01*
X026900D01*
X026871Y026211D01*
Y026418D01*
X026495D01*
Y026518D01*
X026395D01*
Y026825D01*
X026240D01*
X026240Y027880D01*
X026700Y028340D01*
X029360D01*
X029650Y028050D01*
D02*
G37*
%LPC*%
G36*
X046267Y052912D02*
X046070D01*
Y052725D01*
X046267D01*
Y052912D01*
D02*
G37*
G36*
X045870D02*
X045673D01*
Y052725D01*
X045870D01*
Y052912D01*
D02*
G37*
G36*
X045474Y052654D02*
X045100D01*
Y052369D01*
X045474D01*
Y052654D01*
D02*
G37*
G36*
X044900D02*
X044526D01*
Y052369D01*
X044900D01*
Y052654D01*
D02*
G37*
G36*
X046267Y052525D02*
X046070D01*
Y052338D01*
X046267D01*
Y052525D01*
D02*
G37*
G36*
X045870D02*
X045673D01*
Y052338D01*
X045870D01*
Y052525D01*
D02*
G37*
G36*
X046970Y052390D02*
X046694D01*
Y052302D01*
X046970D01*
Y052390D01*
D02*
G37*
G36*
X045474Y052169D02*
X045100D01*
Y051883D01*
X045474D01*
Y052169D01*
D02*
G37*
G36*
X044900D02*
X044526D01*
Y051883D01*
X044900D01*
Y052169D01*
D02*
G37*
G36*
X045905Y051622D02*
X045791D01*
Y051500D01*
X045905D01*
Y051622D01*
D02*
G37*
G36*
Y051300D02*
X045791D01*
Y051178D01*
X045905D01*
Y051300D01*
D02*
G37*
G36*
X028985Y053300D02*
X028660D01*
Y052975D01*
X028673Y052977D01*
X028779Y053020D01*
X028870Y053090D01*
X028940Y053181D01*
X028983Y053287D01*
X028985Y053300D01*
D02*
G37*
G36*
X028460D02*
X028135D01*
X028137Y053287D01*
X028180Y053181D01*
X028250Y053090D01*
X028341Y053020D01*
X028447Y052977D01*
X028460Y052975D01*
Y053300D01*
D02*
G37*
G36*
X032655Y052737D02*
Y052540D01*
X032842D01*
Y052737D01*
X032655D01*
D02*
G37*
G36*
X032842Y052340D02*
X032655D01*
Y052143D01*
X032842D01*
Y052340D01*
D02*
G37*
G36*
X045474Y053757D02*
X045100D01*
Y053471D01*
X045474D01*
Y053757D01*
D02*
G37*
G36*
X044900D02*
X044526D01*
Y053471D01*
X044900D01*
Y053757D01*
D02*
G37*
G36*
X051587Y053622D02*
X051390D01*
Y053435D01*
X051587D01*
Y053622D01*
D02*
G37*
G36*
X050847D02*
X050650D01*
Y053435D01*
X050847D01*
Y053622D01*
D02*
G37*
G36*
X051190D02*
X050993D01*
Y053435D01*
X051190D01*
Y053622D01*
D02*
G37*
G36*
X039839Y053372D02*
X039717D01*
Y053250D01*
X039839D01*
Y053372D01*
D02*
G37*
G36*
X049580Y053527D02*
X049206D01*
Y053241D01*
X049580D01*
Y053527D01*
D02*
G37*
G36*
X024574Y053266D02*
X024460D01*
Y053144D01*
X024574D01*
Y053266D01*
D02*
G37*
G36*
X020576Y053450D02*
Y052994D01*
X021031D01*
X021025Y053042D01*
X020968Y053179D01*
X020878Y053296D01*
X020760Y053387D01*
X020623Y053443D01*
X020576Y053450D01*
D02*
G37*
G36*
X039839Y053050D02*
X039717D01*
Y052928D01*
X039839D01*
Y053050D01*
D02*
G37*
G36*
X039250Y053602D02*
X039173Y053587D01*
X039107Y053543D01*
X039063Y053477D01*
X039062Y053471D01*
X038991Y053401D01*
X038397D01*
Y052846D01*
X038991D01*
Y052849D01*
X039041Y052928D01*
X039517D01*
Y053150D01*
Y053372D01*
X039475D01*
X039452Y053400D01*
X039437Y053477D01*
X039393Y053543D01*
X039327Y053587D01*
X039250Y053602D01*
D02*
G37*
G36*
X038243Y053401D02*
X037649D01*
Y053399D01*
X037580Y053342D01*
X037503Y053327D01*
X037437Y053283D01*
X037393Y053217D01*
X037378Y053140D01*
X037393Y053063D01*
X037437Y052997D01*
X037503Y052953D01*
X037580Y052938D01*
X037649Y052881D01*
Y052846D01*
X038243D01*
Y053401D01*
D02*
G37*
G36*
X020376Y053450D02*
X020329Y053443D01*
X020192Y053387D01*
X020074Y053296D01*
X019984Y053179D01*
X019927Y053042D01*
X019908Y052894D01*
X019911Y052867D01*
X019817Y052815D01*
X019800Y052829D01*
X019637Y052916D01*
X019459Y052970D01*
X019275Y052988D01*
X019091Y052970D01*
X018914Y052916D01*
X018751Y052829D01*
X018607Y052712D01*
X018490Y052569D01*
X018403Y052405D01*
X018349Y052228D01*
X018331Y052044D01*
X018349Y051860D01*
X018403Y051683D01*
X018490Y051519D01*
X018607Y051376D01*
X018751Y051259D01*
X018914Y051172D01*
X019091Y051118D01*
X019275Y051100D01*
X019459Y051118D01*
X019637Y051172D01*
X019800Y051259D01*
X019943Y051376D01*
X020060Y051519D01*
X020148Y051683D01*
X020201Y051860D01*
X020220Y052044D01*
X020201Y052228D01*
X020180Y052299D01*
X020262Y052373D01*
X020329Y052345D01*
X020376Y052339D01*
Y052894D01*
Y053450D01*
D02*
G37*
G36*
X049580Y053041D02*
X049206D01*
Y052756D01*
X049580D01*
Y053041D01*
D02*
G37*
G36*
X040520Y053082D02*
X040443Y053067D01*
X040377Y053023D01*
X040333Y052957D01*
X040318Y052882D01*
X040318Y052880D01*
X040318Y052880D01*
X040327Y052835D01*
X040300Y052776D01*
X040265Y052748D01*
X040196Y052739D01*
X040166Y052739D01*
X040140D01*
Y052617D01*
X040262D01*
Y052642D01*
X040262Y052645D01*
X040262Y052645D01*
X040262Y052659D01*
X040357Y052740D01*
X040377Y052737D01*
X040377Y052737D01*
X040396Y052724D01*
X040443Y052693D01*
X040520Y052678D01*
X040597Y052693D01*
X040663Y052737D01*
X040707Y052803D01*
X040722Y052880D01*
X040707Y052957D01*
X040663Y053023D01*
X040597Y053067D01*
X040520Y053082D01*
D02*
G37*
G36*
X039940Y052739D02*
X039750D01*
Y052517D01*
X039550D01*
Y052739D01*
X039360D01*
Y052517D01*
X039160D01*
Y052739D01*
X039038D01*
Y052654D01*
X038991Y052574D01*
X038397D01*
Y052019D01*
X038547D01*
Y051450D01*
X038559Y051391D01*
X038592Y051342D01*
X038735Y051199D01*
X038785Y051165D01*
X038843Y051154D01*
X038894D01*
Y050972D01*
X038906Y050910D01*
X038942Y050857D01*
X038994Y050822D01*
X039056Y050810D01*
X039118Y050822D01*
X039155Y050847D01*
X039155Y050847D01*
X039171Y050857D01*
X039206Y050910D01*
X039218Y050972D01*
Y051307D01*
X039288D01*
Y050972D01*
X039300Y050910D01*
X039335Y050857D01*
X039352Y050847D01*
X039352Y050847D01*
X039388Y050822D01*
X039450Y050810D01*
X039512Y050822D01*
X039548Y050847D01*
X039585Y050822D01*
X039647Y050810D01*
X039709Y050822D01*
X039745Y050847D01*
X039782Y050822D01*
X039844Y050810D01*
X039906Y050822D01*
X039958Y050857D01*
X039994Y050910D01*
X040006Y050972D01*
Y051592D01*
X040088Y051674D01*
X040121Y051724D01*
X040133Y051783D01*
Y051807D01*
X040148Y051822D01*
X040181Y051871D01*
X040193Y051930D01*
Y051941D01*
X040262D01*
Y052295D01*
Y052417D01*
X040040D01*
Y052517D01*
X039940D01*
Y052739D01*
D02*
G37*
G36*
X025025Y052565D02*
X024883D01*
Y052425D01*
X025025D01*
Y052565D01*
D02*
G37*
G36*
X024574Y052544D02*
X024460D01*
Y052422D01*
X024574D01*
Y052544D01*
D02*
G37*
G36*
X023776Y053266D02*
X023684Y053246D01*
X023607Y053231D01*
X023541Y053187D01*
X023497Y053121D01*
X023482Y053044D01*
X023497Y052967D01*
X023518Y052936D01*
X023486Y052831D01*
X023483Y052827D01*
X023417Y052783D01*
X023373Y052717D01*
X023358Y052640D01*
X023373Y052563D01*
X023417Y052497D01*
X023483Y052453D01*
X023560Y052438D01*
X023637Y052453D01*
X023676Y052479D01*
X023776Y052447D01*
Y052422D01*
X024260D01*
Y052644D01*
X024360D01*
Y052744D01*
X024574D01*
Y052822D01*
Y052944D01*
X024360D01*
Y053044D01*
X024260D01*
Y053266D01*
X023776D01*
Y053266D01*
D02*
G37*
G36*
X038243Y052574D02*
X038046D01*
Y052397D01*
X038243D01*
Y052574D01*
D02*
G37*
G36*
X037846D02*
X037649D01*
Y052397D01*
X037846D01*
Y052574D01*
D02*
G37*
G36*
X021031Y052794D02*
X020576D01*
Y052339D01*
X020623Y052345D01*
X020760Y052402D01*
X020878Y052492D01*
X020968Y052610D01*
X021025Y052747D01*
X021031Y052794D01*
D02*
G37*
G36*
X038243Y052197D02*
X038046D01*
Y052019D01*
X038243D01*
Y052197D01*
D02*
G37*
G36*
X037846D02*
X037649D01*
Y052019D01*
X037846D01*
Y052197D01*
D02*
G37*
G36*
X017346Y052689D02*
X017241Y052675D01*
X017144Y052635D01*
X017060Y052570D01*
X016996Y052486D01*
X016955Y052389D01*
X016941Y052284D01*
X016955Y052179D01*
X016996Y052082D01*
X017060Y051998D01*
X017144Y051934D01*
X017241Y051893D01*
X017346Y051880D01*
X017451Y051893D01*
X017548Y051934D01*
X017632Y051998D01*
X017696Y052082D01*
X017737Y052179D01*
X017751Y052284D01*
X017737Y052389D01*
X017696Y052486D01*
X017632Y052570D01*
X017548Y052635D01*
X017451Y052675D01*
X017346Y052689D01*
D02*
G37*
G36*
X051587Y053235D02*
X051290D01*
X050993D01*
Y053092D01*
X050993Y053020D01*
X050993Y052948D01*
Y052418D01*
X050993Y052418D01*
X050987Y052386D01*
X050987Y052386D01*
X050987Y052320D01*
Y051634D01*
X051068D01*
X051100Y051628D01*
X052430D01*
X052469Y051636D01*
X052502Y051658D01*
X052524Y051691D01*
X052532Y051730D01*
Y052820D01*
X052524Y052859D01*
X052502Y052892D01*
X052469Y052914D01*
X052430Y052922D01*
X051658D01*
X051587Y052993D01*
X051587Y053092D01*
Y053235D01*
D02*
G37*
G36*
X043274Y051828D02*
Y051404D01*
X043698D01*
X043693Y051443D01*
X043640Y051573D01*
X043554Y051684D01*
X043443Y051770D01*
X043313Y051823D01*
X043274Y051828D01*
D02*
G37*
G36*
X043074D02*
X043035Y051823D01*
X042905Y051770D01*
X042794Y051684D01*
X042708Y051573D01*
X042655Y051443D01*
X042649Y051404D01*
X043074D01*
Y051828D01*
D02*
G37*
G36*
X041266D02*
Y051404D01*
X041691D01*
X041685Y051443D01*
X041632Y051573D01*
X041546Y051684D01*
X041435Y051770D01*
X041305Y051823D01*
X041266Y051828D01*
D02*
G37*
G36*
X041066D02*
X041027Y051823D01*
X040897Y051770D01*
X040786Y051684D01*
X040700Y051573D01*
X040647Y051443D01*
X040642Y051404D01*
X041066D01*
Y051828D01*
D02*
G37*
G36*
X050760Y051377D02*
Y051151D01*
X051114D01*
Y051377D01*
X050760D01*
D02*
G37*
G36*
X017944Y051724D02*
X017840Y051710D01*
X017742Y051670D01*
X017658Y051606D01*
X017594Y051522D01*
X017554Y051424D01*
X017540Y051320D01*
X017554Y051215D01*
X017594Y051117D01*
X017658Y051033D01*
X017742Y050969D01*
X017840Y050929D01*
X017944Y050915D01*
X018049Y050929D01*
X018147Y050969D01*
X018231Y051033D01*
X018295Y051117D01*
X018335Y051215D01*
X018349Y051320D01*
X018335Y051424D01*
X018295Y051522D01*
X018231Y051606D01*
X018147Y051670D01*
X018049Y051710D01*
X017944Y051724D01*
D02*
G37*
G36*
X037999Y051022D02*
X037877D01*
Y050900D01*
X037999D01*
Y051022D01*
D02*
G37*
G36*
X041691Y051204D02*
X041266D01*
Y050779D01*
X041305Y050785D01*
X041435Y050838D01*
X041546Y050924D01*
X041632Y051035D01*
X041685Y051165D01*
X041691Y051204D01*
D02*
G37*
G36*
X043698Y051204D02*
X043274D01*
Y050779D01*
X043313Y050785D01*
X043443Y050838D01*
X043554Y050924D01*
X043640Y051035D01*
X043693Y051165D01*
X043698Y051204D01*
D02*
G37*
G36*
X043074D02*
X042649D01*
X042655Y051165D01*
X042708Y051035D01*
X042794Y050924D01*
X042905Y050838D01*
X043035Y050785D01*
X043074Y050779D01*
Y051204D01*
D02*
G37*
G36*
X041066Y051204D02*
X040642D01*
X040647Y051165D01*
X040700Y051035D01*
X040786Y050924D01*
X040897Y050838D01*
X041027Y050785D01*
X041066Y050779D01*
Y051204D01*
D02*
G37*
G36*
X051114Y050951D02*
X050760D01*
Y050724D01*
X051114D01*
Y050951D01*
D02*
G37*
G36*
X037999Y050700D02*
X037877D01*
Y050578D01*
X037999D01*
Y050700D01*
D02*
G37*
G36*
X047705Y050607D02*
Y050410D01*
X047882D01*
Y050607D01*
X047705D01*
D02*
G37*
G36*
X038325Y050407D02*
Y050210D01*
X038512D01*
Y050407D01*
X038325D01*
D02*
G37*
G36*
X047882Y050210D02*
X047705D01*
Y050013D01*
X047882D01*
Y050210D01*
D02*
G37*
G36*
X041266Y049821D02*
Y049396D01*
X041691D01*
X041685Y049435D01*
X041632Y049565D01*
X041546Y049676D01*
X041435Y049762D01*
X041305Y049815D01*
X041266Y049821D01*
D02*
G37*
G36*
X041066Y049821D02*
X041027Y049815D01*
X040897Y049762D01*
X040786Y049676D01*
X040700Y049565D01*
X040647Y049435D01*
X040642Y049396D01*
X041066D01*
Y049821D01*
D02*
G37*
G36*
X043274D02*
Y049396D01*
X043698D01*
X043693Y049435D01*
X043640Y049565D01*
X043554Y049676D01*
X043443Y049762D01*
X043313Y049815D01*
X043274Y049821D01*
D02*
G37*
G36*
X043074Y049821D02*
X043035Y049815D01*
X042905Y049762D01*
X042794Y049676D01*
X042708Y049565D01*
X042655Y049435D01*
X042649Y049396D01*
X043074D01*
Y049821D01*
D02*
G37*
G36*
X052920Y050837D02*
X052774Y050822D01*
X052634Y050780D01*
X052505Y050711D01*
X052392Y050618D01*
X052299Y050505D01*
X052230Y050376D01*
X052188Y050236D01*
X052173Y050090D01*
X052188Y049944D01*
X052230Y049804D01*
X052299Y049675D01*
X052392Y049562D01*
X052505Y049469D01*
X052634Y049400D01*
X052774Y049358D01*
X052920Y049343D01*
X053066Y049358D01*
X053206Y049400D01*
X053335Y049469D01*
X053448Y049562D01*
X053541Y049675D01*
X053610Y049804D01*
X053652Y049944D01*
X053667Y050090D01*
X053652Y050236D01*
X053610Y050376D01*
X053541Y050505D01*
X053448Y050618D01*
X053335Y050711D01*
X053206Y050780D01*
X053066Y050822D01*
X052920Y050837D01*
D02*
G37*
G36*
X041691Y049196D02*
X041266D01*
Y048772D01*
X041305Y048777D01*
X041435Y048830D01*
X041546Y048916D01*
X041632Y049027D01*
X041685Y049157D01*
X041691Y049196D01*
D02*
G37*
G36*
X043074Y049196D02*
X042649D01*
X042655Y049157D01*
X042708Y049027D01*
X042794Y048916D01*
X042905Y048830D01*
X043035Y048777D01*
X043074Y048772D01*
Y049196D01*
D02*
G37*
G36*
X043698D02*
X043274D01*
Y048772D01*
X043313Y048777D01*
X043443Y048830D01*
X043554Y048916D01*
X043640Y049027D01*
X043693Y049157D01*
X043698Y049196D01*
D02*
G37*
G36*
X041066Y049196D02*
X040642D01*
X040647Y049157D01*
X040700Y049027D01*
X040786Y048916D01*
X040897Y048830D01*
X041027Y048777D01*
X041066Y048772D01*
Y049196D01*
D02*
G37*
G36*
X017346Y048673D02*
X017241Y048659D01*
X017144Y048619D01*
X017060Y048555D01*
X016996Y048471D01*
X016955Y048373D01*
X016941Y048268D01*
X016955Y048164D01*
X016996Y048066D01*
X017060Y047982D01*
X017144Y047918D01*
X017241Y047878D01*
X017346Y047864D01*
X017451Y047878D01*
X017548Y047918D01*
X017632Y047982D01*
X017696Y048066D01*
X017737Y048164D01*
X017751Y048268D01*
X017737Y048373D01*
X017696Y048471D01*
X017632Y048555D01*
X017548Y048619D01*
X017451Y048659D01*
X017346Y048673D01*
D02*
G37*
G36*
X022675Y047944D02*
X022411D01*
X022447Y047855D01*
X022508Y047776D01*
X022586Y047716D01*
X022675Y047679D01*
Y047944D01*
D02*
G37*
G36*
X023140D02*
X022875D01*
Y047679D01*
X022964Y047716D01*
X023043Y047776D01*
X023103Y047855D01*
X023140Y047944D01*
D02*
G37*
G36*
X053530Y047789D02*
Y047667D01*
X053652D01*
Y047789D01*
X053530D01*
D02*
G37*
G36*
X024180Y047232D02*
X024103Y047217D01*
X024037Y047173D01*
X023993Y047107D01*
X023978Y047031D01*
X023958Y046939D01*
X023958D01*
Y046511D01*
Y046455D01*
X024180D01*
X024402D01*
Y046511D01*
Y046939D01*
X024402D01*
X024382Y047031D01*
X024367Y047107D01*
X024323Y047173D01*
X024257Y047217D01*
X024180Y047232D01*
D02*
G37*
G36*
X027847Y046967D02*
X027725D01*
Y046845D01*
X027847D01*
Y046967D01*
D02*
G37*
G36*
X025825Y046944D02*
X025703D01*
Y046822D01*
X025825D01*
Y046944D01*
D02*
G37*
G36*
X020576Y047249D02*
Y046794D01*
X021031D01*
X021025Y046841D01*
X020968Y046978D01*
X020878Y047096D01*
X020760Y047186D01*
X020623Y047243D01*
X020576Y047249D01*
D02*
G37*
G36*
X024402Y046255D02*
X024280D01*
Y046141D01*
X024402D01*
Y046255D01*
D02*
G37*
G36*
X024080D02*
X023958D01*
Y046141D01*
X024080D01*
Y046255D01*
D02*
G37*
G36*
X028422Y046036D02*
X028300D01*
Y045914D01*
X028422D01*
Y046036D01*
D02*
G37*
G36*
X050635Y045418D02*
X050458D01*
Y045320D01*
X050635D01*
Y045418D01*
D02*
G37*
G36*
X050258D02*
X050081D01*
Y045320D01*
X050258D01*
Y045418D01*
D02*
G37*
G36*
X050635Y045120D02*
X050458D01*
Y045022D01*
X050635D01*
Y045120D01*
D02*
G37*
G36*
X050258D02*
X050081D01*
Y045022D01*
X050258D01*
Y045120D01*
D02*
G37*
G36*
X050815Y044772D02*
X050701D01*
Y044650D01*
X050815D01*
Y044772D01*
D02*
G37*
G36*
Y044450D02*
X050701D01*
Y044328D01*
X050815D01*
Y044450D01*
D02*
G37*
G36*
X049625Y044507D02*
Y044310D01*
X049812D01*
Y044507D01*
X049625D01*
D02*
G37*
G36*
X026525Y043960D02*
X026338D01*
Y043763D01*
X026525D01*
Y043960D01*
D02*
G37*
G36*
X043563Y043937D02*
X043130D01*
Y043720D01*
X043563D01*
Y043937D01*
D02*
G37*
G36*
X042930D02*
X042497D01*
Y043720D01*
X042930D01*
Y043937D01*
D02*
G37*
G36*
X043563Y043520D02*
X043130D01*
Y043303D01*
X043563D01*
Y043520D01*
D02*
G37*
G36*
X025022Y043119D02*
X024900D01*
Y042997D01*
X025022D01*
Y043119D01*
D02*
G37*
G36*
X024300D02*
X024178D01*
Y042997D01*
X024300D01*
Y043119D01*
D02*
G37*
G36*
X043563Y042795D02*
X043130D01*
Y042578D01*
X043563D01*
Y042795D01*
D02*
G37*
G36*
X052020Y042582D02*
X051943Y042567D01*
X051877Y042523D01*
X051833Y042457D01*
X051818Y042380D01*
X051762Y042312D01*
X051441D01*
Y042243D01*
X051338D01*
Y042417D01*
X050902D01*
Y041823D01*
X050902Y041823D01*
X050897Y041810D01*
X050811Y041751D01*
X050764Y041761D01*
X050664D01*
X050590Y041823D01*
Y042417D01*
X050154D01*
Y042039D01*
X050054Y041939D01*
X050021Y041890D01*
X050009Y041831D01*
Y041789D01*
X049868D01*
Y041345D01*
Y040991D01*
X049876D01*
Y040990D01*
X049892Y040912D01*
X049936Y040846D01*
X050001Y040802D01*
X050002Y040801D01*
X050044Y040694D01*
X050043Y040691D01*
X050032Y040635D01*
Y040068D01*
X049530Y039566D01*
X049483Y039585D01*
X049380Y039599D01*
X049277Y039585D01*
X049181Y039545D01*
X049098Y039482D01*
X049035Y039399D01*
X048995Y039303D01*
X048981Y039200D01*
X048995Y039097D01*
X049035Y039001D01*
X049098Y038918D01*
X049181Y038855D01*
X049277Y038815D01*
X049380Y038801D01*
X049483Y038815D01*
X049579Y038855D01*
X049662Y038918D01*
X049725Y039001D01*
X049765Y039097D01*
X049779Y039200D01*
X049765Y039303D01*
X049746Y039350D01*
X050293Y039897D01*
X050326Y039946D01*
X050338Y040005D01*
Y040474D01*
X050346Y040479D01*
X050446Y040426D01*
Y040222D01*
X050455Y040175D01*
X050462Y040164D01*
Y039694D01*
X050478Y039616D01*
X050522Y039550D01*
X050526Y039546D01*
X050592Y039502D01*
X050670Y039486D01*
X050748Y039502D01*
X050771Y039517D01*
X050886Y039526D01*
X050952Y039482D01*
X051030Y039466D01*
X051098Y039480D01*
X051116Y039476D01*
X051198Y039421D01*
Y039181D01*
X051320D01*
Y039395D01*
X051420D01*
Y039495D01*
X051642D01*
Y039551D01*
Y039979D01*
X051570D01*
Y040116D01*
X051599Y040135D01*
X051625Y040175D01*
X051634Y040222D01*
Y040615D01*
X051625Y040662D01*
X051599Y040701D01*
X051559Y040728D01*
X051512Y040737D01*
X051316D01*
X051269Y040728D01*
X051227Y040703D01*
X051185Y040728D01*
X051138Y040737D01*
X051071D01*
X051046Y040777D01*
X051033Y040837D01*
X051148Y040952D01*
X051181Y041001D01*
X051193Y041060D01*
Y041063D01*
X051219Y041086D01*
X051293Y041128D01*
X051314Y041123D01*
Y041442D01*
X051414D01*
Y041542D01*
X051634D01*
Y041638D01*
X051625Y041685D01*
X051599Y041725D01*
X051559Y041751D01*
X051512Y041761D01*
X051412D01*
X051338Y041823D01*
Y041937D01*
X051441D01*
Y041868D01*
X052239D01*
Y042219D01*
X052239Y042312D01*
X052239D01*
X052221Y042390D01*
X052207Y042457D01*
X052195Y042475D01*
X052163Y042523D01*
X052097Y042567D01*
X052020Y042582D01*
D02*
G37*
G36*
X043563Y042378D02*
X043130D01*
Y042162D01*
X043563D01*
Y042378D01*
D02*
G37*
G36*
X042930D02*
X042497D01*
Y042162D01*
X042930D01*
Y042378D01*
D02*
G37*
G36*
X052202Y041739D02*
X052080D01*
Y041617D01*
X052202D01*
Y041739D01*
D02*
G37*
G36*
X051880D02*
X051758D01*
Y041617D01*
X051880D01*
Y041739D01*
D02*
G37*
G36*
X053080Y041765D02*
Y041460D01*
X053385D01*
X053384Y041468D01*
X053342Y041569D01*
X053276Y041656D01*
X053189Y041722D01*
X053088Y041764D01*
X053080Y041765D01*
D02*
G37*
G36*
X052880D02*
X052872Y041764D01*
X052771Y041722D01*
X052684Y041656D01*
X052618Y041569D01*
X052576Y041468D01*
X052575Y041460D01*
X052880D01*
Y041765D01*
D02*
G37*
G36*
X048144Y041548D02*
Y041124D01*
X048568D01*
X048563Y041163D01*
X048510Y041293D01*
X048424Y041404D01*
X048313Y041490D01*
X048183Y041543D01*
X048144Y041548D01*
D02*
G37*
G36*
X047944D02*
X047905Y041543D01*
X047775Y041490D01*
X047664Y041404D01*
X047578Y041293D01*
X047525Y041163D01*
X047519Y041124D01*
X047944D01*
Y041548D01*
D02*
G37*
G36*
X046136D02*
Y041124D01*
X046561D01*
X046555Y041163D01*
X046502Y041293D01*
X046416Y041404D01*
X046305Y041490D01*
X046175Y041543D01*
X046136Y041548D01*
D02*
G37*
G36*
X045936D02*
X045897Y041543D01*
X045767Y041490D01*
X045656Y041404D01*
X045570Y041293D01*
X045517Y041163D01*
X045512Y041124D01*
X045936D01*
Y041548D01*
D02*
G37*
G36*
X051634Y041342D02*
X051514D01*
Y041123D01*
X051559Y041132D01*
X051599Y041159D01*
X051625Y041199D01*
X051634Y041245D01*
Y041342D01*
D02*
G37*
G36*
X044684Y041508D02*
Y041084D01*
X045108D01*
X045103Y041123D01*
X045050Y041253D01*
X044964Y041364D01*
X044853Y041450D01*
X044723Y041503D01*
X044684Y041508D01*
D02*
G37*
G36*
X044484D02*
X044445Y041503D01*
X044315Y041450D01*
X044204Y041364D01*
X044118Y041253D01*
X044065Y041123D01*
X044059Y041084D01*
X044484D01*
Y041508D01*
D02*
G37*
G36*
X042676D02*
Y041084D01*
X043101D01*
X043095Y041123D01*
X043042Y041253D01*
X042956Y041364D01*
X042845Y041450D01*
X042715Y041503D01*
X042676Y041508D01*
D02*
G37*
G36*
X042476D02*
X042437Y041503D01*
X042307Y041450D01*
X042196Y041364D01*
X042110Y041253D01*
X042057Y041123D01*
X042052Y041084D01*
X042476D01*
Y041508D01*
D02*
G37*
G36*
X053385Y041260D02*
X053080D01*
Y040955D01*
X053088Y040956D01*
X053189Y040998D01*
X053276Y041064D01*
X053342Y041151D01*
X053384Y041252D01*
X053385Y041260D01*
D02*
G37*
G36*
X052880D02*
X052575D01*
X052576Y041252D01*
X052618Y041151D01*
X052684Y041064D01*
X052771Y040998D01*
X052872Y040956D01*
X052880Y040955D01*
Y041260D01*
D02*
G37*
G36*
X041300Y041152D02*
Y040852D01*
X041428D01*
Y041152D01*
X041300D01*
D02*
G37*
G36*
X024148Y040910D02*
X023843D01*
Y040792D01*
X024148D01*
Y040910D01*
D02*
G37*
G36*
X052202Y041417D02*
X051980D01*
X051758D01*
Y041295D01*
Y040941D01*
X051796D01*
Y040890D01*
X051812Y040812D01*
X051856Y040746D01*
X051922Y040702D01*
X052000Y040686D01*
X052078Y040702D01*
X052144Y040746D01*
X052188Y040812D01*
X052204Y040890D01*
Y041143D01*
X052202Y041152D01*
Y041295D01*
Y041417D01*
D02*
G37*
G36*
X046561Y040924D02*
X046136D01*
Y040499D01*
X046175Y040505D01*
X046305Y040558D01*
X046416Y040644D01*
X046502Y040755D01*
X046555Y040885D01*
X046561Y040924D01*
D02*
G37*
G36*
X048568Y040924D02*
X048144D01*
Y040499D01*
X048183Y040505D01*
X048313Y040558D01*
X048424Y040644D01*
X048510Y040755D01*
X048563Y040885D01*
X048568Y040924D01*
D02*
G37*
G36*
X047944D02*
X047519D01*
X047525Y040885D01*
X047578Y040755D01*
X047664Y040644D01*
X047775Y040558D01*
X047905Y040505D01*
X047944Y040499D01*
Y040924D01*
D02*
G37*
G36*
X045936Y040924D02*
X045512D01*
X045517Y040885D01*
X045570Y040755D01*
X045656Y040644D01*
X045767Y040558D01*
X045897Y040505D01*
X045936Y040499D01*
Y040924D01*
D02*
G37*
G36*
X043101Y040884D02*
X042676D01*
Y040459D01*
X042715Y040465D01*
X042845Y040518D01*
X042956Y040604D01*
X043042Y040715D01*
X043095Y040845D01*
X043101Y040884D01*
D02*
G37*
G36*
X045108Y040884D02*
X044684D01*
Y040459D01*
X044723Y040465D01*
X044853Y040518D01*
X044964Y040604D01*
X045050Y040715D01*
X045103Y040845D01*
X045108Y040884D01*
D02*
G37*
G36*
X044484D02*
X044059D01*
X044065Y040845D01*
X044118Y040715D01*
X044204Y040604D01*
X044315Y040518D01*
X044445Y040465D01*
X044484Y040459D01*
Y040884D01*
D02*
G37*
G36*
X042476Y040884D02*
X042052D01*
X042057Y040845D01*
X042110Y040715D01*
X042196Y040604D01*
X042307Y040518D01*
X042437Y040465D01*
X042476Y040459D01*
Y040884D01*
D02*
G37*
G36*
X051642Y039295D02*
X051520D01*
Y039181D01*
X051642D01*
Y039295D01*
D02*
G37*
G36*
X046136Y039541D02*
Y039116D01*
X046561D01*
X046555Y039155D01*
X046502Y039285D01*
X046416Y039396D01*
X046305Y039482D01*
X046175Y039535D01*
X046136Y039541D01*
D02*
G37*
G36*
X045936Y039541D02*
X045897Y039535D01*
X045767Y039482D01*
X045656Y039396D01*
X045570Y039285D01*
X045517Y039155D01*
X045512Y039116D01*
X045936D01*
Y039541D01*
D02*
G37*
G36*
X048144D02*
Y039116D01*
X048568D01*
X048563Y039155D01*
X048510Y039285D01*
X048424Y039396D01*
X048313Y039482D01*
X048183Y039535D01*
X048144Y039541D01*
D02*
G37*
G36*
X047944Y039541D02*
X047905Y039535D01*
X047775Y039482D01*
X047664Y039396D01*
X047578Y039285D01*
X047525Y039155D01*
X047519Y039116D01*
X047944D01*
Y039541D01*
D02*
G37*
G36*
X042676Y039501D02*
Y039076D01*
X043101D01*
X043095Y039115D01*
X043042Y039245D01*
X042956Y039356D01*
X042845Y039442D01*
X042715Y039495D01*
X042676Y039501D01*
D02*
G37*
G36*
X042476Y039501D02*
X042437Y039495D01*
X042307Y039442D01*
X042196Y039356D01*
X042110Y039245D01*
X042057Y039115D01*
X042052Y039076D01*
X042476D01*
Y039501D01*
D02*
G37*
G36*
X044684D02*
Y039076D01*
X045108D01*
X045103Y039115D01*
X045050Y039245D01*
X044964Y039356D01*
X044853Y039442D01*
X044723Y039495D01*
X044684Y039501D01*
D02*
G37*
G36*
X044484Y039501D02*
X044445Y039495D01*
X044315Y039442D01*
X044204Y039356D01*
X044118Y039245D01*
X044065Y039115D01*
X044059Y039076D01*
X044484D01*
Y039501D01*
D02*
G37*
G36*
X046561Y038916D02*
X046136D01*
Y038492D01*
X046175Y038497D01*
X046305Y038550D01*
X046416Y038636D01*
X046502Y038747D01*
X046555Y038877D01*
X046561Y038916D01*
D02*
G37*
G36*
X047944Y038916D02*
X047519D01*
X047525Y038877D01*
X047578Y038747D01*
X047664Y038636D01*
X047775Y038550D01*
X047905Y038497D01*
X047944Y038492D01*
Y038916D01*
D02*
G37*
G36*
X048568D02*
X048144D01*
Y038492D01*
X048183Y038497D01*
X048313Y038550D01*
X048424Y038636D01*
X048510Y038747D01*
X048563Y038877D01*
X048568Y038916D01*
D02*
G37*
G36*
X045936Y038916D02*
X045512D01*
X045517Y038877D01*
X045570Y038747D01*
X045656Y038636D01*
X045767Y038550D01*
X045897Y038497D01*
X045936Y038492D01*
Y038916D01*
D02*
G37*
G36*
X043101Y038876D02*
X042676D01*
Y038452D01*
X042715Y038457D01*
X042845Y038510D01*
X042956Y038596D01*
X043042Y038707D01*
X043095Y038837D01*
X043101Y038876D01*
D02*
G37*
G36*
X044484Y038876D02*
X044059D01*
X044065Y038837D01*
X044118Y038707D01*
X044204Y038596D01*
X044315Y038510D01*
X044445Y038457D01*
X044484Y038452D01*
Y038876D01*
D02*
G37*
G36*
X045108D02*
X044684D01*
Y038452D01*
X044723Y038457D01*
X044853Y038510D01*
X044964Y038596D01*
X045050Y038707D01*
X045103Y038837D01*
X045108Y038876D01*
D02*
G37*
G36*
X042476Y038876D02*
X042052D01*
X042057Y038837D01*
X042110Y038707D01*
X042196Y038596D01*
X042307Y038510D01*
X042437Y038457D01*
X042476Y038452D01*
Y038876D01*
D02*
G37*
G36*
X030120Y039259D02*
X030012Y039244D01*
X029911Y039202D01*
X029824Y039136D01*
X029758Y039049D01*
X029716Y038948D01*
X029701Y038840D01*
X029716Y038732D01*
X029758Y038631D01*
X029824Y038544D01*
X029911Y038478D01*
X030012Y038436D01*
X030120Y038421D01*
X030228Y038436D01*
X030329Y038478D01*
X030416Y038544D01*
X030482Y038631D01*
X030524Y038732D01*
X030539Y038840D01*
X030524Y038948D01*
X030482Y039049D01*
X030416Y039136D01*
X030329Y039202D01*
X030228Y039244D01*
X030120Y039259D01*
D02*
G37*
G36*
X052920Y039367D02*
X052774Y039352D01*
X052634Y039310D01*
X052505Y039241D01*
X052392Y039148D01*
X052299Y039035D01*
X052230Y038906D01*
X052188Y038766D01*
X052173Y038620D01*
X052188Y038474D01*
X052230Y038334D01*
X052299Y038205D01*
X052392Y038092D01*
X052505Y037999D01*
X052634Y037930D01*
X052774Y037888D01*
X052920Y037873D01*
X053066Y037888D01*
X053206Y037930D01*
X053335Y037999D01*
X053448Y038092D01*
X053541Y038205D01*
X053610Y038334D01*
X053652Y038474D01*
X053667Y038620D01*
X053652Y038766D01*
X053610Y038906D01*
X053541Y039035D01*
X053448Y039148D01*
X053335Y039241D01*
X053206Y039310D01*
X053066Y039352D01*
X052920Y039367D01*
D02*
G37*
G36*
X050380Y038599D02*
X050277Y038585D01*
X050181Y038545D01*
X050098Y038482D01*
X050035Y038399D01*
X049995Y038303D01*
X049981Y038200D01*
X049995Y038097D01*
X050035Y038001D01*
X050098Y037918D01*
X050181Y037855D01*
X050277Y037815D01*
X050380Y037801D01*
X050483Y037815D01*
X050579Y037855D01*
X050662Y037918D01*
X050725Y038001D01*
X050765Y038097D01*
X050779Y038200D01*
X050765Y038303D01*
X050725Y038399D01*
X050662Y038482D01*
X050579Y038545D01*
X050483Y038585D01*
X050380Y038599D01*
D02*
G37*
G36*
X041310Y037865D02*
Y037565D01*
X041438D01*
Y037865D01*
X041310D01*
D02*
G37*
G36*
X041438Y037365D02*
X041310D01*
Y037064D01*
X041438D01*
Y037365D01*
D02*
G37*
G36*
X049380Y037599D02*
X049277Y037585D01*
X049181Y037545D01*
X049098Y037482D01*
X049035Y037399D01*
X048995Y037303D01*
X048981Y037200D01*
X048986Y037166D01*
X048580Y036760D01*
X048524Y036678D01*
X048505Y036580D01*
Y024346D01*
X046045Y021885D01*
X045990Y021803D01*
X045970Y021705D01*
Y019733D01*
X045873Y019658D01*
X045794Y019555D01*
X045744Y019435D01*
X045727Y019306D01*
X045743Y019185D01*
X045263Y018705D01*
X044333D01*
Y019530D01*
X044321Y019589D01*
X044288Y019638D01*
X043218Y020708D01*
X043169Y020741D01*
X043110Y020753D01*
X038763D01*
X038704Y020741D01*
X038655Y020708D01*
X038326Y020379D01*
X038098D01*
Y019951D01*
Y019581D01*
X038167D01*
Y019292D01*
X038083D01*
Y018777D01*
X038597D01*
Y019292D01*
X038473D01*
Y019581D01*
X038542D01*
Y019951D01*
Y020163D01*
X038772Y020392D01*
X038899Y020382D01*
X038908Y020369D01*
Y019941D01*
Y019571D01*
X038977D01*
Y019292D01*
X038883D01*
Y018777D01*
X039397D01*
Y019292D01*
X039283D01*
Y019571D01*
X039352D01*
Y020002D01*
X039772D01*
X039877Y019897D01*
Y018682D01*
X039830D01*
X039791Y018674D01*
X039758Y018652D01*
X039736Y018619D01*
X039728Y018580D01*
Y018190D01*
X039736Y018151D01*
X039758Y018118D01*
X039791Y018096D01*
X039830Y018088D01*
X039948D01*
X039950Y018088D01*
X039952Y018088D01*
X040158D01*
X040160Y018088D01*
X040162Y018088D01*
X040304D01*
X040374Y018068D01*
X040381Y018044D01*
X040393Y017991D01*
Y017875D01*
X040690D01*
X040987D01*
Y018018D01*
X040987Y018062D01*
X041064Y018118D01*
X041230D01*
X041256Y018123D01*
X041270Y018119D01*
X041356Y018083D01*
X041356Y018083D01*
X041356Y018083D01*
X042206D01*
Y018207D01*
X042320D01*
X042380Y018195D01*
X042472D01*
X042543Y018124D01*
Y018088D01*
X042543Y017988D01*
Y017885D01*
X042840D01*
Y017785D01*
X042940D01*
Y017498D01*
X043107D01*
X043137Y017498D01*
X043233Y017508D01*
X043400D01*
Y017795D01*
X043500D01*
Y017895D01*
X043797D01*
Y017998D01*
X043797Y018124D01*
X043868Y018195D01*
X045369D01*
X045467Y018214D01*
X045549Y018270D01*
X046104Y018824D01*
X046225Y018808D01*
X046354Y018825D01*
X046474Y018875D01*
X046577Y018954D01*
X046656Y019057D01*
X046671Y019092D01*
X046779D01*
X046794Y019057D01*
X046873Y018954D01*
X046976Y018875D01*
X047096Y018825D01*
X047125Y018821D01*
Y019306D01*
Y019791D01*
X047096Y019787D01*
X046976Y019737D01*
X046873Y019658D01*
X046794Y019555D01*
X046779Y019520D01*
X046671D01*
X046656Y019555D01*
X046577Y019658D01*
X046480Y019733D01*
Y021600D01*
X048940Y024060D01*
X048995Y024142D01*
X049015Y024240D01*
Y036474D01*
X049346Y036806D01*
X049380Y036801D01*
X049483Y036815D01*
X049579Y036855D01*
X049662Y036918D01*
X049725Y037001D01*
X049765Y037097D01*
X049779Y037200D01*
X049765Y037303D01*
X049725Y037399D01*
X049662Y037482D01*
X049579Y037545D01*
X049483Y037585D01*
X049380Y037599D01*
D02*
G37*
G36*
X031505Y036255D02*
X031190D01*
Y035940D01*
X031505D01*
Y036255D01*
D02*
G37*
G36*
X030190Y036245D02*
Y035940D01*
X030495D01*
X030494Y035948D01*
X030452Y036049D01*
X030386Y036136D01*
X030299Y036202D01*
X030198Y036244D01*
X030190Y036245D01*
D02*
G37*
G36*
X029990D02*
X029982Y036244D01*
X029881Y036202D01*
X029794Y036136D01*
X029728Y036049D01*
X029686Y035948D01*
X029685Y035940D01*
X029990D01*
Y036245D01*
D02*
G37*
G36*
X030990Y036255D02*
X030675D01*
Y035940D01*
X030990D01*
Y036255D01*
D02*
G37*
G36*
X030495Y035740D02*
X030190D01*
Y035435D01*
X030198Y035436D01*
X030299Y035478D01*
X030386Y035544D01*
X030452Y035631D01*
X030494Y035732D01*
X030495Y035740D01*
D02*
G37*
G36*
X029990D02*
X029685D01*
X029686Y035732D01*
X029728Y035631D01*
X029794Y035544D01*
X029881Y035478D01*
X029982Y035436D01*
X029990Y035435D01*
Y035740D01*
D02*
G37*
G36*
X031505D02*
X031190D01*
Y035425D01*
X031505D01*
Y035740D01*
D02*
G37*
G36*
X030990D02*
X030675D01*
Y035425D01*
X030990D01*
Y035740D01*
D02*
G37*
G36*
X052170Y035355D02*
X051899Y035338D01*
X051633Y035285D01*
X051377Y035198D01*
X051134Y035078D01*
X050908Y034927D01*
X050704Y034748D01*
X050525Y034544D01*
X050375Y034319D01*
X050255Y034076D01*
X050168Y033819D01*
X050115Y033553D01*
X050097Y033283D01*
X050115Y033012D01*
X050168Y032746D01*
X050255Y032489D01*
X050375Y032246D01*
X050525Y032021D01*
X050704Y031817D01*
X050908Y031638D01*
X051134Y031487D01*
X051377Y031367D01*
X051633Y031280D01*
X051899Y031227D01*
X052170Y031210D01*
X052441Y031227D01*
X052707Y031280D01*
X052963Y031367D01*
X053206Y031487D01*
X053432Y031638D01*
X053636Y031817D01*
X053815Y032021D01*
X053965Y032246D01*
X054085Y032489D01*
X054172Y032746D01*
X054225Y033012D01*
X054243Y033283D01*
X054225Y033553D01*
X054172Y033819D01*
X054085Y034076D01*
X053965Y034319D01*
X053815Y034544D01*
X053636Y034748D01*
X053432Y034927D01*
X053206Y035078D01*
X052963Y035198D01*
X052707Y035285D01*
X052441Y035338D01*
X052170Y035355D01*
D02*
G37*
G36*
X042327D02*
X042057Y035338D01*
X041791Y035285D01*
X041534Y035198D01*
X041291Y035078D01*
X041066Y034927D01*
X040862Y034748D01*
X040683Y034544D01*
X040532Y034319D01*
X040412Y034076D01*
X040325Y033819D01*
X040272Y033553D01*
X040255Y033283D01*
X040272Y033012D01*
X040325Y032746D01*
X040412Y032489D01*
X040532Y032246D01*
X040683Y032021D01*
X040862Y031817D01*
X041066Y031638D01*
X041291Y031487D01*
X041534Y031367D01*
X041791Y031280D01*
X042057Y031227D01*
X042327Y031210D01*
X042598Y031227D01*
X042864Y031280D01*
X043121Y031367D01*
X043364Y031487D01*
X043589Y031638D01*
X043793Y031817D01*
X043972Y032021D01*
X044123Y032246D01*
X044243Y032489D01*
X044330Y032746D01*
X044383Y033012D01*
X044400Y033283D01*
X044383Y033553D01*
X044330Y033819D01*
X044243Y034076D01*
X044123Y034319D01*
X043972Y034544D01*
X043793Y034748D01*
X043589Y034927D01*
X043364Y035078D01*
X043121Y035198D01*
X042864Y035285D01*
X042598Y035338D01*
X042327Y035355D01*
D02*
G37*
G36*
X028157Y026057D02*
X027970D01*
Y025860D01*
X028157D01*
Y026057D01*
D02*
G37*
G36*
X028057Y024790D02*
X027771D01*
Y024416D01*
X028057D01*
Y024790D01*
D02*
G37*
G36*
X027571D02*
X027286D01*
Y024416D01*
X027571D01*
Y024790D01*
D02*
G37*
G36*
X033250Y023649D02*
X033128D01*
Y023527D01*
X033250D01*
Y023649D01*
D02*
G37*
G36*
X052170Y025513D02*
X051899Y025495D01*
X051633Y025442D01*
X051377Y025355D01*
X051134Y025235D01*
X050908Y025085D01*
X050704Y024906D01*
X050525Y024702D01*
X050375Y024476D01*
X050255Y024233D01*
X050168Y023977D01*
X050115Y023711D01*
X050097Y023440D01*
X050115Y023169D01*
X050168Y022903D01*
X050255Y022647D01*
X050375Y022404D01*
X050525Y022178D01*
X050704Y021974D01*
X050908Y021795D01*
X051134Y021645D01*
X051377Y021525D01*
X051633Y021438D01*
X051899Y021385D01*
X052170Y021367D01*
X052441Y021385D01*
X052707Y021438D01*
X052963Y021525D01*
X053206Y021645D01*
X053432Y021795D01*
X053636Y021974D01*
X053815Y022178D01*
X053965Y022404D01*
X054085Y022647D01*
X054172Y022903D01*
X054225Y023169D01*
X054243Y023440D01*
X054225Y023711D01*
X054172Y023977D01*
X054085Y024233D01*
X053965Y024476D01*
X053815Y024702D01*
X053636Y024906D01*
X053432Y025085D01*
X053206Y025235D01*
X052963Y025355D01*
X052707Y025442D01*
X052441Y025495D01*
X052170Y025513D01*
D02*
G37*
G36*
X042327D02*
X042057Y025495D01*
X041791Y025442D01*
X041534Y025355D01*
X041291Y025235D01*
X041066Y025085D01*
X040862Y024906D01*
X040683Y024702D01*
X040532Y024476D01*
X040412Y024233D01*
X040325Y023977D01*
X040272Y023711D01*
X040255Y023440D01*
X040272Y023169D01*
X040325Y022903D01*
X040412Y022647D01*
X040532Y022404D01*
X040683Y022178D01*
X040862Y021974D01*
X041066Y021795D01*
X041291Y021645D01*
X041534Y021525D01*
X041791Y021438D01*
X042057Y021385D01*
X042327Y021367D01*
X042598Y021385D01*
X042864Y021438D01*
X043121Y021525D01*
X043364Y021645D01*
X043589Y021795D01*
X043793Y021974D01*
X043972Y022178D01*
X044123Y022404D01*
X044243Y022647D01*
X044330Y022903D01*
X044383Y023169D01*
X044400Y023440D01*
X044383Y023711D01*
X044330Y023977D01*
X044243Y024233D01*
X044123Y024476D01*
X043972Y024702D01*
X043793Y024906D01*
X043589Y025085D01*
X043364Y025235D01*
X043121Y025355D01*
X042864Y025442D01*
X042598Y025495D01*
X042327Y025513D01*
D02*
G37*
G36*
X037852Y020369D02*
X037730D01*
Y020255D01*
X037852D01*
Y020369D01*
D02*
G37*
G36*
X036770D02*
X036648D01*
Y020255D01*
X036770D01*
Y020369D01*
D02*
G37*
G36*
X032283Y020331D02*
X032070D01*
Y020150D01*
X032283D01*
Y020331D01*
D02*
G37*
G36*
X031870D02*
X031657D01*
Y020150D01*
X031870D01*
Y020331D01*
D02*
G37*
G36*
X034800Y020239D02*
Y020117D01*
X034922D01*
Y020239D01*
X034800D01*
D02*
G37*
G36*
X018502Y020528D02*
X018226D01*
Y019898D01*
X018502D01*
Y020528D01*
D02*
G37*
G36*
X018026D02*
X017751D01*
Y019898D01*
X018026D01*
Y020528D01*
D02*
G37*
G36*
X048225Y019804D02*
X048096Y019787D01*
X047976Y019737D01*
X047873Y019658D01*
X047794Y019555D01*
X047779Y019520D01*
X047671D01*
X047656Y019555D01*
X047577Y019658D01*
X047474Y019737D01*
X047354Y019787D01*
X047325Y019791D01*
Y019306D01*
Y018821D01*
X047354Y018825D01*
X047474Y018875D01*
X047577Y018954D01*
X047656Y019057D01*
X047671Y019092D01*
X047779D01*
X047794Y019057D01*
X047873Y018954D01*
X047976Y018875D01*
X048096Y018825D01*
X048225Y018808D01*
X048354Y018825D01*
X048474Y018875D01*
X048577Y018954D01*
X048656Y019057D01*
X048706Y019177D01*
X048723Y019306D01*
X048706Y019435D01*
X048656Y019555D01*
X048577Y019658D01*
X048474Y019737D01*
X048354Y019787D01*
X048225Y019804D01*
D02*
G37*
G36*
X018502Y019698D02*
X018226D01*
Y019068D01*
X018502D01*
Y019698D01*
D02*
G37*
G36*
X018026D02*
X017751D01*
Y019068D01*
X018026D01*
Y019698D01*
D02*
G37*
G36*
X039397Y018663D02*
X039240D01*
Y018505D01*
X039397D01*
Y018663D01*
D02*
G37*
G36*
X039040D02*
X038883D01*
Y018505D01*
X039040D01*
Y018663D01*
D02*
G37*
G36*
X038597D02*
X038440D01*
Y018505D01*
X038597D01*
Y018663D01*
D02*
G37*
G36*
X038240D02*
X038083D01*
Y018505D01*
X038240D01*
Y018663D01*
D02*
G37*
G36*
X036105Y018585D02*
X035485D01*
Y018270D01*
X036105D01*
Y018585D01*
D02*
G37*
G36*
X035285D02*
X034664D01*
Y018270D01*
X035285D01*
Y018585D01*
D02*
G37*
G36*
X039397Y018305D02*
X039240D01*
Y018148D01*
X039397D01*
Y018305D01*
D02*
G37*
G36*
X039040D02*
X038883D01*
Y018148D01*
X039040D01*
Y018305D01*
D02*
G37*
G36*
X038597D02*
X038440D01*
Y018148D01*
X038597D01*
Y018305D01*
D02*
G37*
G36*
X038240D02*
X038083D01*
Y018148D01*
X038240D01*
Y018305D01*
D02*
G37*
G36*
X052015Y018895D02*
X051185D01*
Y018065D01*
X052015D01*
Y018895D01*
D02*
G37*
G36*
X050600Y018899D02*
X050492Y018884D01*
X050391Y018842D01*
X050304Y018776D01*
X050238Y018689D01*
X050196Y018588D01*
X050181Y018480D01*
X050196Y018372D01*
X050238Y018271D01*
X050304Y018184D01*
X050391Y018118D01*
X050492Y018076D01*
X050600Y018061D01*
X050708Y018076D01*
X050809Y018118D01*
X050896Y018184D01*
X050962Y018271D01*
X051004Y018372D01*
X051019Y018480D01*
X051004Y018588D01*
X050962Y018689D01*
X050896Y018776D01*
X050809Y018842D01*
X050708Y018884D01*
X050600Y018899D01*
D02*
G37*
G36*
X020506Y020530D02*
X019754D01*
Y019070D01*
X019926D01*
Y018830D01*
X019942Y018752D01*
X019986Y018686D01*
X020491Y018181D01*
X020557Y018137D01*
X020635Y018121D01*
X021168D01*
Y018055D01*
X021612D01*
Y018111D01*
Y018539D01*
X021168D01*
Y018529D01*
X020719D01*
X020334Y018914D01*
Y019070D01*
X020506D01*
Y020530D01*
D02*
G37*
G36*
X023502Y020528D02*
X022751D01*
Y019068D01*
X022769D01*
Y018676D01*
X022743D01*
Y018068D01*
X022743Y018063D01*
X022743D01*
Y017968D01*
X022743D01*
Y017761D01*
X023118D01*
X023494D01*
Y017859D01*
X023598D01*
Y018081D01*
X023798D01*
Y017859D01*
X023920D01*
Y018150D01*
X024041D01*
Y017966D01*
X025619D01*
Y018954D01*
X024041D01*
Y018856D01*
X023475D01*
Y019068D01*
X023502D01*
Y020528D01*
D02*
G37*
G36*
X036105Y018070D02*
X035485D01*
Y017755D01*
X036105D01*
Y018070D01*
D02*
G37*
G36*
X035285D02*
X034664D01*
Y017755D01*
X035285D01*
Y018070D01*
D02*
G37*
G36*
X021612Y017855D02*
X021490D01*
Y017741D01*
X021612D01*
Y017855D01*
D02*
G37*
G36*
X021290D02*
X021168D01*
Y017741D01*
X021290D01*
Y017855D01*
D02*
G37*
G36*
X043797Y017695D02*
X043600D01*
Y017508D01*
X043797D01*
Y017695D01*
D02*
G37*
G36*
X042740Y017685D02*
X042543D01*
Y017498D01*
X042740D01*
Y017685D01*
D02*
G37*
G36*
X040987Y017675D02*
X040790D01*
Y017488D01*
X040987D01*
Y017675D01*
D02*
G37*
G36*
X040590D02*
X040393D01*
Y017488D01*
X040590D01*
Y017675D01*
D02*
G37*
G36*
X021290Y017579D02*
X021168D01*
Y017457D01*
X021290D01*
Y017579D01*
D02*
G37*
G36*
X032474Y017493D02*
X032100D01*
Y017208D01*
X032474D01*
Y017493D01*
D02*
G37*
G36*
X031900D02*
X031526D01*
Y017208D01*
X031900D01*
Y017493D01*
D02*
G37*
G36*
X032474Y017008D02*
X032100D01*
Y016722D01*
X032474D01*
Y017008D01*
D02*
G37*
G36*
X031900D02*
X031526D01*
Y016722D01*
X031900D01*
Y017008D01*
D02*
G37*
G36*
X030317Y016745D02*
X030130D01*
Y016558D01*
X030317D01*
Y016745D01*
D02*
G37*
G36*
X029930D02*
X029743D01*
Y016558D01*
X029930D01*
Y016745D01*
D02*
G37*
G36*
X031137Y016715D02*
X030940D01*
Y016528D01*
X031137D01*
Y016715D01*
D02*
G37*
G36*
X030740D02*
X030543D01*
Y016528D01*
X030740D01*
Y016715D01*
D02*
G37*
%LPD*%
G36*
X044027Y019467D02*
Y018705D01*
X043470D01*
Y018910D01*
X043451Y019003D01*
X043439Y019098D01*
X043439Y019098D01*
X043439Y019098D01*
Y019220D01*
X043225D01*
Y019320D01*
X043125D01*
Y019542D01*
X042641D01*
Y019167D01*
X042570Y019096D01*
X042351D01*
X042332Y019100D01*
X042206D01*
Y019220D01*
X041356D01*
Y019096D01*
X041249D01*
X041230Y019100D01*
X041022D01*
Y019327D01*
X040800D01*
X040578D01*
Y019205D01*
Y018851D01*
X040806D01*
X040818Y018839D01*
X040867Y018806D01*
X040886Y018802D01*
X040876Y018702D01*
X040870D01*
X040831Y018694D01*
X040828Y018692D01*
X040393D01*
Y018692D01*
X040370Y018692D01*
X040318Y018682D01*
X040212D01*
X040183Y018688D01*
Y019960D01*
X040171Y020019D01*
X040138Y020068D01*
X039943Y020263D01*
X039893Y020296D01*
X039835Y020308D01*
X039427D01*
X039408Y020347D01*
X039471Y020447D01*
X043047D01*
X044027Y019467D01*
D02*
G37*
%LPC*%
G36*
X041022Y019649D02*
X040900D01*
Y019527D01*
X041022D01*
Y019649D01*
D02*
G37*
G36*
X040700D02*
X040578D01*
Y019527D01*
X040700D01*
Y019649D01*
D02*
G37*
G36*
X043439Y019542D02*
X043325D01*
Y019420D01*
X043439D01*
Y019542D01*
D02*
G37*
G36*
X050543Y048919D02*
X050220D01*
Y048643D01*
X050543D01*
Y048919D01*
D02*
G37*
G36*
X050020D02*
X049697D01*
Y048643D01*
X050020D01*
Y048919D01*
D02*
G37*
G36*
X046886Y048482D02*
X046764D01*
Y048360D01*
X046886D01*
Y048482D01*
D02*
G37*
G36*
X051933Y048919D02*
X051087D01*
Y048168D01*
X051933D01*
Y048249D01*
X051952Y048270D01*
X052033Y048317D01*
X052080Y048308D01*
X052157Y048323D01*
X052223Y048367D01*
X052267Y048433D01*
X052282Y048510D01*
X052267Y048587D01*
X052223Y048653D01*
X052157Y048697D01*
X052080Y048712D01*
X052033Y048703D01*
X051952Y048750D01*
X051933Y048771D01*
Y048919D01*
D02*
G37*
G36*
X050543Y048443D02*
X050220D01*
Y048168D01*
X050543D01*
Y048443D01*
D02*
G37*
G36*
X050020D02*
X049697D01*
Y048168D01*
X050020D01*
Y048443D01*
D02*
G37*
G36*
X046863Y047750D02*
X046741D01*
Y047628D01*
X046863D01*
Y047750D01*
D02*
G37*
G36*
X039770Y047368D02*
X039534D01*
Y047250D01*
X039770D01*
Y047368D01*
D02*
G37*
G36*
X040682Y047359D02*
X040560D01*
Y047237D01*
X040682D01*
Y047359D01*
D02*
G37*
G36*
X040200Y043770D02*
X040086D01*
Y043648D01*
X040200D01*
Y043770D01*
D02*
G37*
G36*
X034390Y044797D02*
X034164D01*
Y044522D01*
X034390D01*
Y044797D01*
D02*
G37*
G36*
X034773Y044230D02*
X034651D01*
Y044108D01*
X034773D01*
Y044230D01*
D02*
G37*
G36*
X036209Y044220D02*
X036087D01*
Y044098D01*
X036209D01*
Y044220D01*
D02*
G37*
G36*
X034719Y043062D02*
X034597D01*
Y042940D01*
X034719D01*
Y043062D01*
D02*
G37*
G36*
X038392Y043059D02*
X038270D01*
Y042937D01*
X038392D01*
Y043059D01*
D02*
G37*
G36*
X038070D02*
X037948D01*
Y042937D01*
X038070D01*
Y043059D01*
D02*
G37*
G36*
X036390Y042523D02*
X036268D01*
Y042401D01*
X036390D01*
Y042523D01*
D02*
G37*
G36*
X035730Y042395D02*
Y042237D01*
X035840D01*
Y042275D01*
X035831Y042322D01*
X035805Y042361D01*
X035765Y042388D01*
X035730Y042395D01*
D02*
G37*
G36*
X036025Y040500D02*
X035720D01*
Y040195D01*
X035728Y040196D01*
X035829Y040238D01*
X035916Y040304D01*
X035982Y040391D01*
X036024Y040492D01*
X036025Y040500D01*
D02*
G37*
G36*
X039070Y039862D02*
X038948D01*
Y039740D01*
X039070D01*
Y039862D01*
D02*
G37*
G36*
X038322Y038693D02*
X038200D01*
Y038571D01*
X038322D01*
Y038693D01*
D02*
G37*
G36*
X036790Y038686D02*
X036668D01*
Y038564D01*
X036790D01*
Y038686D01*
D02*
G37*
G36*
X017890Y037598D02*
Y036820D01*
X018248D01*
Y037153D01*
X018233Y037272D01*
X018187Y037382D01*
X018114Y037477D01*
X018019Y037550D01*
X017909Y037596D01*
X017890Y037598D01*
D02*
G37*
G36*
X017690D02*
X017671Y037596D01*
X017561Y037550D01*
X017466Y037477D01*
X017393Y037382D01*
X017347Y037272D01*
X017332Y037153D01*
Y036820D01*
X017690D01*
Y037598D01*
D02*
G37*
G36*
X018248Y036620D02*
X017890D01*
Y035842D01*
X017909Y035844D01*
X018019Y035890D01*
X018114Y035963D01*
X018187Y036058D01*
X018233Y036168D01*
X018248Y036287D01*
Y036620D01*
D02*
G37*
G36*
X017690D02*
X017332D01*
Y036287D01*
X017347Y036168D01*
X017393Y036058D01*
X017466Y035963D01*
X017561Y035890D01*
X017671Y035844D01*
X017690Y035842D01*
Y036620D01*
D02*
G37*
G36*
X022582Y035605D02*
X022080D01*
Y035290D01*
X022582D01*
Y035605D01*
D02*
G37*
G36*
X021880D02*
X021378D01*
Y035290D01*
X021880D01*
Y035605D01*
D02*
G37*
G36*
X022582Y035090D02*
X022080D01*
Y034775D01*
X022582D01*
Y035090D01*
D02*
G37*
G36*
X021880D02*
X021378D01*
Y034775D01*
X021880D01*
Y035090D01*
D02*
G37*
G36*
X019463Y035288D02*
X018597D01*
X018478Y035273D01*
X018368Y035227D01*
X018273Y035154D01*
X018200Y035059D01*
X018154Y034949D01*
X018139Y034830D01*
X018154Y034712D01*
X018200Y034601D01*
X018273Y034506D01*
X018368Y034433D01*
X018478Y034388D01*
X018597Y034372D01*
X019463D01*
X019582Y034388D01*
X019692Y034433D01*
X019787Y034506D01*
X019860Y034601D01*
X019906Y034712D01*
X019921Y034830D01*
X019906Y034949D01*
X019860Y035059D01*
X019787Y035154D01*
X019692Y035227D01*
X019582Y035273D01*
X019463Y035288D01*
D02*
G37*
G36*
X020052Y034177D02*
X019875D01*
Y033980D01*
X020052D01*
Y034177D01*
D02*
G37*
G36*
X019675D02*
X019498D01*
Y033980D01*
X019675D01*
Y034177D01*
D02*
G37*
G36*
X022363Y034052D02*
X022241D01*
Y033930D01*
X022363D01*
Y034052D01*
D02*
G37*
G36*
Y033730D02*
X022241D01*
Y033608D01*
X022363D01*
Y033730D01*
D02*
G37*
G36*
X020052Y033780D02*
X019875D01*
Y033583D01*
X020052D01*
Y033780D01*
D02*
G37*
G36*
X019675D02*
X019498D01*
Y033583D01*
X019675D01*
Y033780D01*
D02*
G37*
G36*
X018502Y033197D02*
X018226D01*
Y032567D01*
X018502D01*
Y033197D01*
D02*
G37*
G36*
X018026D02*
X017751D01*
Y032567D01*
X018026D01*
Y033197D01*
D02*
G37*
G36*
X020172Y037710D02*
X020053Y037694D01*
X019943Y037648D01*
X019848Y037576D01*
X019775Y037481D01*
X019729Y037370D01*
X019714Y037252D01*
Y036188D01*
X019729Y036070D01*
X019775Y035959D01*
X019848Y035864D01*
X019943Y035792D01*
X020053Y035746D01*
X020172Y035730D01*
X020290Y035746D01*
X020401Y035792D01*
X020496Y035864D01*
X020569Y035959D01*
X020615Y036070D01*
X020630Y036188D01*
Y036317D01*
X022586D01*
X022586Y036317D01*
X022690Y036330D01*
X022788Y036371D01*
X022819Y036394D01*
X022943D01*
X022981Y036365D01*
Y035605D01*
X022756D01*
Y035201D01*
X022753Y035175D01*
X022753Y035175D01*
Y035101D01*
X022736Y035063D01*
X022723Y034958D01*
X022723Y034958D01*
Y034052D01*
X022563D01*
Y033830D01*
Y033608D01*
X022723D01*
Y032467D01*
X022736Y032363D01*
X022751Y032329D01*
Y031738D01*
X023502D01*
Y032329D01*
X023516Y032363D01*
X023530Y032467D01*
Y034775D01*
X023960D01*
Y035605D01*
X023787D01*
Y036770D01*
X023774Y036874D01*
X023733Y036972D01*
X023691Y037027D01*
Y037146D01*
X023523D01*
X023488Y037160D01*
X023384Y037173D01*
X023280Y037160D01*
X023246Y037146D01*
X023077D01*
Y037027D01*
X023038Y036976D01*
X023010Y036973D01*
X022982Y036976D01*
X022943Y037027D01*
Y037146D01*
X022774D01*
X022740Y037160D01*
X022636Y037173D01*
X022532Y037160D01*
X022497Y037146D01*
X022329D01*
Y037123D01*
X020630D01*
Y037252D01*
X020615Y037370D01*
X020569Y037481D01*
X020496Y037576D01*
X020401Y037648D01*
X020290Y037694D01*
X020172Y037710D01*
D02*
G37*
G36*
X019422Y034177D02*
X018868D01*
Y033583D01*
X018881D01*
Y033197D01*
X018751D01*
Y031738D01*
X019502D01*
Y033197D01*
X019390D01*
Y033583D01*
X019422D01*
Y034177D01*
D02*
G37*
G36*
X018502Y032367D02*
X018226D01*
Y031738D01*
X018502D01*
Y032367D01*
D02*
G37*
G36*
X018026D02*
X017751D01*
Y031738D01*
X018026D01*
Y032367D01*
D02*
G37*
G36*
X027542Y026827D02*
X027355D01*
Y026630D01*
X027542D01*
Y026827D01*
D02*
G37*
G36*
X027155D02*
X026968D01*
Y026630D01*
X027155D01*
Y026827D01*
D02*
G37*
G36*
X026871Y026825D02*
X026595D01*
Y026618D01*
X026871D01*
Y026825D01*
D02*
G37*
G36*
X027542Y026430D02*
X027355D01*
Y026233D01*
X027542D01*
Y026430D01*
D02*
G37*
G36*
X027155D02*
X026968D01*
Y026233D01*
X027155D01*
Y026430D01*
D02*
G37*
%LPD*%
D14*
X031120Y038840D02*
X037270Y032690D01*
Y018755D02*
X037620Y018405D01*
X037270Y018755D02*
Y032690D01*
X029083Y016767D02*
X029640Y016210D01*
X029083Y016767D02*
Y018240D01*
X029640Y016210D02*
X035710D01*
X036870Y017370D02*
Y018405D01*
X035710Y016210D02*
X036870Y017370D01*
Y019035D02*
Y019785D01*
Y020155D02*
Y020440D01*
X037625Y020160D02*
X037630Y020155D01*
X037625Y020160D02*
Y020445D01*
X037620Y020450D02*
X037625Y020445D01*
X037620Y019035D02*
X037630Y019045D01*
Y019785D01*
X039140Y018050D02*
Y018405D01*
X038340Y018060D02*
Y018405D01*
X038320Y019055D02*
Y019795D01*
Y019055D02*
X038340Y019035D01*
X039130Y019045D02*
Y019785D01*
Y019045D02*
X039140Y019035D01*
X044180Y018450D02*
Y019530D01*
X043110Y020600D02*
X044180Y019530D01*
X038763Y020600D02*
X043110D01*
X038320Y020165D02*
X038328D01*
X038763Y020600D01*
X040030Y018530D02*
X040070Y018490D01*
X040030Y018530D02*
Y019960D01*
X040070Y018490D02*
X040160D01*
X039835Y020155D02*
X040030Y019960D01*
X039130Y020155D02*
X039835D01*
X029410Y049060D02*
X029971D01*
X030098Y049188D01*
X029160Y048810D02*
X029410Y049060D01*
X028920Y048289D02*
X029454Y048824D01*
X030669D01*
X028920Y048202D02*
Y048289D01*
X028940Y048567D02*
Y048930D01*
X029280Y049270D01*
X028410Y048294D02*
Y048302D01*
X028474Y048366D01*
X024835Y040140D02*
X025440D01*
X028900Y043270D02*
Y047970D01*
X025380Y039750D02*
X028900Y043270D01*
X029052Y043108D02*
Y047382D01*
X024835Y039350D02*
X025293D01*
X024835Y039750D02*
X025380D01*
X025293Y039350D02*
X029052Y043108D01*
X028710Y043410D02*
Y047992D01*
X025440Y040140D02*
X028710Y043410D01*
Y047992D02*
X028920Y048202D01*
X029557Y048627D02*
X030669D01*
X029080Y047880D02*
X029630Y048430D01*
X028900Y047970D02*
X029557Y048627D01*
X029080Y047411D02*
Y047880D01*
X029630Y048430D02*
X030669D01*
X029052Y047382D02*
X029080Y047411D01*
X028410Y048294D02*
X028667D01*
X028940Y048567D01*
X029280Y049270D02*
X029900D01*
X016520Y039920D02*
X023810D01*
X015811Y039722D02*
X023892D01*
X015810Y039723D02*
X015811Y039722D01*
X023892D02*
X023907Y039736D01*
X024451D01*
X016930Y040140D02*
X024465D01*
X016662Y040408D02*
X016930Y040140D01*
X016300D02*
X016520Y039920D01*
X015810Y040140D02*
X016300D01*
X015506Y040511D02*
Y040653D01*
X015504Y040510D02*
X015506Y040511D01*
X015504Y040120D02*
Y040510D01*
X015524Y040140D02*
X015810D01*
X015504Y039542D02*
Y040120D01*
X015524Y040140D01*
X015563Y039484D02*
X015781D01*
X015504Y039542D02*
X015563Y039484D01*
X015781D02*
X015810Y039455D01*
X015506Y040653D02*
X015580Y040727D01*
X016596Y039136D02*
X016810Y039350D01*
X024465D01*
X015580Y039136D02*
X016596D01*
X024451Y039736D02*
X024465Y039750D01*
X015810Y040408D02*
X016662D01*
X039350Y046150D02*
X039880Y045620D01*
X043940D02*
X046450Y043110D01*
X039880Y045620D02*
X043940D01*
X047030Y040030D02*
Y043110D01*
Y040030D02*
X047040Y040020D01*
X046450Y043110D02*
X047030D01*
X050185Y040635D02*
X050480Y040930D01*
X050185Y040005D02*
Y040635D01*
X049380Y039200D02*
X050185Y040005D01*
X042608Y048440D02*
X042648Y048400D01*
X045170D01*
X040060Y048440D02*
X042608D01*
X045170Y048400D02*
X046020Y049250D01*
X052230D01*
X039844Y049988D02*
X040156Y050300D01*
X042170D01*
X039844Y049653D02*
Y049988D01*
X041440Y043620D02*
Y043850D01*
Y043620D02*
X042011Y043049D01*
X042400D01*
X047559Y043277D02*
Y043894D01*
X047400Y043118D02*
X047559Y043277D01*
X047400Y043110D02*
Y043118D01*
X025450Y053010D02*
Y053620D01*
X025890Y054060D02*
X034490D01*
X025450Y053620D02*
X025890Y054060D01*
X025700Y053260D02*
Y053540D01*
X026050Y053890D02*
X034130D01*
X025700Y053540D02*
X026050Y053890D01*
X034130D02*
X035492Y052528D01*
X034490Y054060D02*
X035689Y052861D01*
X030740Y052640D02*
X031090Y052990D01*
X026620Y052640D02*
X030740D01*
X031090Y052990D02*
X033950D01*
X026180Y052200D02*
X026620Y052640D01*
X026430Y052130D02*
X026673Y052373D01*
X029043D01*
X026430Y051256D02*
Y052130D01*
X028460Y052175D02*
X029304Y051331D01*
X029641D02*
X030180Y050792D01*
X029304Y051331D02*
X029641D01*
X029085Y052332D02*
X030530D01*
X029043Y052373D02*
X029085Y052332D01*
X029250Y046930D02*
X029255Y046935D01*
X029515D02*
X029520Y046940D01*
X029255Y046935D02*
X029515D01*
X039844Y048834D02*
Y049243D01*
X038886Y047876D02*
X039844Y048834D01*
X036771Y046068D02*
X036948D01*
X037071Y045849D02*
Y045945D01*
X036948Y046068D02*
X037071Y045945D01*
Y045849D02*
X037090Y045830D01*
X033917Y046010D02*
Y046573D01*
X033908Y045837D02*
Y046002D01*
Y045837D02*
X033917Y045829D01*
Y045379D02*
Y045829D01*
X033908Y046002D02*
X033917Y046010D01*
X034107Y045919D02*
X034114Y045912D01*
Y045379D02*
Y045912D01*
X034500Y023270D02*
Y023930D01*
X031990Y024500D02*
X033930D01*
X034500Y023930D01*
X038179Y042491D02*
X038421D01*
X038430Y042500D01*
X038170Y042483D02*
X038179Y042491D01*
X038124Y041657D02*
X038127Y041660D01*
Y042440D01*
X038170Y042483D01*
X035160Y041690D02*
X036630D01*
X034820Y042030D02*
X035160Y041690D01*
X034748Y042030D02*
X034820D01*
X035330Y041880D02*
X036440D01*
X034720Y042490D02*
X035330Y041880D01*
X036630Y041690D02*
X037170Y041150D01*
X036300Y041530D02*
X036830Y041000D01*
X032550Y041530D02*
X036300D01*
X031620Y040600D02*
X032550Y041530D01*
X036440Y041880D02*
X037025Y042465D01*
X032620Y040600D02*
X033350Y041330D01*
X035780D02*
X036430Y040680D01*
X033350Y041330D02*
X035780D01*
X037025Y042465D02*
X037360D01*
X031980Y042490D02*
X034720D01*
X031555Y042915D02*
Y045379D01*
Y042915D02*
X031980Y042490D01*
X031358Y042862D02*
X032190Y042030D01*
X031358Y042862D02*
Y045379D01*
X032190Y042030D02*
X032430D01*
X032438Y042038D01*
X034740D02*
X034748Y042030D01*
X032438Y042038D02*
X034740D01*
X030470Y042890D02*
X031790Y041570D01*
X030680Y043100D02*
Y045178D01*
X030470Y042890D02*
Y045180D01*
X030680Y043100D02*
X031940Y041840D01*
X034590D01*
X037170Y041150D02*
X037470D01*
X037530Y041210D01*
X036830Y041000D02*
X038027D01*
X038609Y041582D01*
X037530Y041210D02*
Y041653D01*
X037533Y041657D01*
X037719Y042161D02*
X037730Y042149D01*
X037719Y042161D02*
Y042381D01*
X037700Y042400D02*
X037719Y042381D01*
X037730Y041657D02*
Y042149D01*
X037920Y042240D02*
X037923Y042237D01*
Y041660D02*
X037927Y041657D01*
X037923Y041660D02*
Y042237D01*
X030182Y047643D02*
X030669D01*
X029960D02*
X029990Y047673D01*
X029486Y045858D02*
X029505Y045876D01*
Y046072D01*
X029523Y046090D01*
X030158Y047446D02*
X030669D01*
X030260Y046260D02*
X030262Y046262D01*
X030666D01*
X030188Y047246D02*
X030279D01*
X030283Y047249D02*
X030669D01*
X029998Y047446D02*
X030158D01*
X030166Y047673D02*
X030185Y047691D01*
X030279Y047246D02*
X030283Y047249D01*
X029990Y047673D02*
X030166D01*
X029890Y046948D02*
X030188Y047246D01*
X030158Y047446D02*
X030160Y047444D01*
X029890Y047712D02*
X029960Y047643D01*
X029890Y047712D02*
Y047720D01*
X039233Y049247D02*
Y049270D01*
X039250Y049287D02*
Y049650D01*
X039056Y049070D02*
X039233Y049247D01*
Y049270D02*
X039250Y049287D01*
X038600Y049070D02*
X039056D01*
X039250Y049650D02*
X039253Y049653D01*
X038453Y049217D02*
X038600Y049070D01*
X036771Y049021D02*
X038099D01*
X038210Y048910D01*
X039180D01*
X039447Y049177D01*
Y049650D01*
X039450Y049653D01*
X036771Y049217D02*
X038453D01*
X039048Y049611D02*
X039056Y049619D01*
Y049653D01*
X036771Y049611D02*
X039048D01*
X030660Y047043D02*
X030669Y047052D01*
X030299Y047043D02*
X030660D01*
X030206Y046950D02*
X030299Y047043D01*
X030180Y046950D02*
X030206D01*
X040360Y046402D02*
X040390Y046432D01*
X039870Y046402D02*
X040360D01*
X039350Y046150D02*
Y046680D01*
X038886Y046776D02*
X039254D01*
X039350Y046680D01*
X040460Y047137D02*
Y047400D01*
X039870Y047150D02*
Y047440D01*
X040474Y046796D02*
X040736D01*
X040750Y046810D01*
X040460Y046783D02*
X040474Y046796D01*
X039870Y046776D02*
X039873Y046779D01*
X040457D01*
X040460Y046783D01*
X051410Y039160D02*
Y039385D01*
X051420Y039395D01*
X051400Y039150D02*
X051410Y039160D01*
X051417Y039768D02*
Y040415D01*
Y039768D02*
X051420Y039765D01*
X051414Y040418D02*
X051417Y040415D01*
X051702Y041517D02*
X051980D01*
X051702D02*
Y041780D01*
X051482Y041517D02*
X051702D01*
X050910Y040930D02*
X051040Y041060D01*
Y041442D01*
X050480Y040930D02*
X050910D01*
X052230Y043110D02*
X052980Y042360D01*
X050814Y043110D02*
X052230D01*
X053068Y043448D02*
Y045011D01*
X052980Y043360D02*
X053068Y043448D01*
X052830Y045249D02*
Y045760D01*
Y045249D02*
X053068Y045011D01*
Y045632D02*
X053210Y045490D01*
X053353Y044903D02*
Y044926D01*
X053210Y045069D02*
X053353Y044926D01*
X053068Y045632D02*
Y045858D01*
X053210Y045069D02*
Y045490D01*
X051298Y044538D02*
X051382Y044622D01*
Y045220D01*
X038245Y050130D02*
X038580D01*
X038225Y050110D02*
X038245Y050130D01*
X032555Y052440D02*
X032990D01*
X031751Y051812D02*
X031788Y051848D01*
X031751Y051481D02*
Y051812D01*
X031788Y051848D02*
Y052303D01*
X031925Y052440D01*
X031948Y051818D02*
X032090Y051960D01*
X031948Y051481D02*
Y051818D01*
X031751Y051481D02*
X031761Y051472D01*
Y051179D02*
Y051472D01*
Y051179D02*
X032070Y050870D01*
X035580D01*
X036051Y050399D02*
X036771D01*
X035580Y050870D02*
X036051Y050399D01*
X035320Y050510D02*
X035628Y050202D01*
X034620Y050510D02*
X035320D01*
X035628Y050202D02*
X036771D01*
X035260Y047750D02*
X035958Y047052D01*
X035260Y047750D02*
Y050190D01*
X035240Y050210D02*
X035260Y050190D01*
X037458Y050257D02*
X037595Y050120D01*
X037448Y050257D02*
X037458D01*
X037595Y050110D02*
Y050120D01*
X037395Y050310D02*
X037448Y050257D01*
X037182Y050310D02*
X037395D01*
X036771Y050399D02*
X036780Y050389D01*
X037102D01*
X037182Y050310D01*
X034064Y044422D02*
X034150Y044508D01*
Y044860D01*
X039844Y049243D02*
Y049653D01*
X039643Y049103D02*
Y049650D01*
X039640Y049100D02*
X039643Y049103D01*
Y049650D02*
X039647Y049653D01*
X039036Y051940D02*
X039176Y051800D01*
X039010Y051940D02*
X039036D01*
X039176Y051800D02*
X039210D01*
X039250Y051310D02*
X039253Y051307D01*
X039250Y051310D02*
Y051760D01*
X039210Y051800D02*
X039250Y051760D01*
X038700Y051450D02*
X038843Y051307D01*
X038700Y051450D02*
Y052291D01*
X038843Y051307D02*
X039056D01*
X038694Y052297D02*
X038700Y052291D01*
X037929Y053140D02*
X037946Y053123D01*
X037580Y053140D02*
X037929D01*
X038694Y053123D02*
X038721Y053150D01*
X039256Y053156D02*
Y053394D01*
Y053156D02*
X039263Y053150D01*
X039250Y053400D02*
X039256Y053394D01*
X038721Y053150D02*
X039263D01*
X039660Y051900D02*
X039670Y051890D01*
X039650Y052163D02*
X039660Y052153D01*
Y051900D02*
Y052153D01*
X039650Y051310D02*
Y051844D01*
X039670Y051864D02*
Y051890D01*
X039647Y051307D02*
X039650Y051310D01*
Y051844D02*
X039670Y051864D01*
X039260Y052163D02*
X039332Y052091D01*
Y051958D02*
Y052091D01*
X039450Y051307D02*
Y051840D01*
X039332Y051958D02*
X039450Y051840D01*
X039980Y051870D02*
X040040Y051930D01*
Y052163D01*
X039980Y051783D02*
Y051870D01*
X039844Y051307D02*
Y051646D01*
X039980Y051783D01*
X030470Y045180D02*
X031350Y046060D01*
X030220Y045142D02*
X031120Y046042D01*
X030220Y042000D02*
Y045142D01*
Y042000D02*
X031620Y040600D01*
X030680Y045178D02*
X031670Y046168D01*
Y049400D01*
X034140Y041120D02*
X034840D01*
X035130Y040830D01*
X033620Y040600D02*
X034140Y041120D01*
X032151Y040131D02*
X032620Y040600D01*
X031120Y046042D02*
Y049050D01*
X031350Y046060D02*
Y049320D01*
X031079Y040131D02*
X032151D01*
X029270Y041940D02*
X031079Y040131D01*
X029270Y041940D02*
Y046550D01*
X031262Y049808D02*
X031670Y049400D01*
X030669Y049808D02*
X031262D01*
X031059Y049611D02*
X031350Y049320D01*
X030669Y049611D02*
X031059D01*
X030678Y049208D02*
X030962D01*
X030669Y049217D02*
X030678Y049208D01*
X030962D02*
X031120Y049050D01*
X039750Y043510D02*
Y043540D01*
X040200Y042888D02*
Y043060D01*
X039750Y043510D02*
X040200Y043060D01*
X039450Y043840D02*
X039750Y043540D01*
X037710Y043840D02*
X039450D01*
X036405Y044750D02*
X036800D01*
X037710Y043840D01*
X035630Y042137D02*
X035636Y042143D01*
Y042436D01*
X035641Y042441D01*
X038070Y040680D02*
X038630Y041240D01*
X036430Y040680D02*
X038070D01*
X038609Y041582D02*
Y041672D01*
X039092Y042155D01*
X039100D01*
X039040Y041240D02*
X039100Y041180D01*
X038630Y041240D02*
X039040D01*
X034620Y039220D02*
X036050Y037790D01*
X034620Y039220D02*
Y040600D01*
X035130Y039090D02*
X036040Y038180D01*
X035130Y039090D02*
Y040830D01*
X036050Y037790D02*
X039150D01*
X036040Y038180D02*
X038310D01*
X038760Y038630D02*
X039160D01*
X038310Y038180D02*
X038760Y038630D01*
X037340Y041660D02*
Y042445D01*
X037336Y041657D02*
X037340Y041660D01*
Y042445D02*
X037360Y042465D01*
X037934Y042834D02*
X038166D01*
X037930Y042830D02*
X037934Y042834D01*
X038166D02*
X038170Y042837D01*
X040859Y039921D02*
Y040019D01*
X040710Y039772D02*
X040859Y039921D01*
Y040019D02*
X040940Y040100D01*
X041700D01*
X041820Y039980D02*
X043580D01*
X041700Y040100D02*
X041820Y039980D01*
X041200Y042090D02*
Y042888D01*
X040700Y040752D02*
X040710Y040762D01*
Y041330D01*
X040720Y041340D01*
X041180Y038990D02*
Y039640D01*
X041210Y039600D02*
Y039610D01*
X041180Y039640D02*
X041210Y039610D01*
X040710Y037465D02*
Y038190D01*
X037927Y039470D02*
Y040003D01*
X037290Y039140D02*
X037431Y039281D01*
Y039371D01*
X037450Y039390D01*
Y039410D02*
X037533Y039493D01*
Y040003D01*
X037450Y039390D02*
Y039410D01*
X037147Y039397D02*
Y039480D01*
X037727Y039400D02*
Y040000D01*
Y039184D02*
Y039400D01*
X037960Y039455D02*
Y039481D01*
X037927Y039423D02*
X037960Y039455D01*
X037927Y039320D02*
Y039423D01*
Y039320D02*
X038100Y039147D01*
X037690D02*
X037727Y039184D01*
Y040000D02*
X037730Y040003D01*
X036890Y039140D02*
X037147Y039397D01*
X037336Y039669D02*
Y040003D01*
X037147Y039480D02*
X037336Y039669D01*
X039100Y041180D02*
Y041785D01*
X040035Y042155D02*
X040200Y042320D01*
Y042888D01*
X039100Y042155D02*
X040035D01*
X039444Y041180D02*
X039700Y040925D01*
Y040752D02*
Y040925D01*
X039100Y041180D02*
X039444D01*
X039830Y038630D02*
X040210Y039010D01*
Y039600D01*
X039160Y038630D02*
X039830D01*
X039150Y037790D02*
X039557D01*
X039710Y037637D01*
Y037465D02*
Y037637D01*
X039155Y037795D02*
Y038255D01*
X039150Y037790D02*
X039155Y037795D01*
Y038255D02*
X039160Y038260D01*
X040210Y037465D02*
Y038270D01*
X040710Y038770D01*
Y039600D01*
X040500Y039982D02*
X040710Y039772D01*
Y039600D02*
Y039772D01*
X040200Y040580D02*
Y040752D01*
Y040580D02*
X040500Y040280D01*
Y039982D02*
Y040280D01*
X040200Y040752D02*
Y041780D01*
X040700Y042280D02*
Y042888D01*
X040200Y041780D02*
X040700Y042280D01*
X040672Y043872D02*
X040685Y043860D01*
X040685Y042903D02*
Y043855D01*
Y042903D02*
X040700Y042888D01*
X040670Y043870D02*
X040685Y043855D01*
X040672Y043872D02*
Y044088D01*
X037730Y044450D02*
X040310D01*
X040672Y044088D01*
X036310Y045870D02*
X037730Y044450D01*
X036310Y045870D02*
Y046230D01*
X036300Y046240D02*
X036310Y046230D01*
X036300Y046240D02*
Y046730D01*
X036425Y046855D02*
X036771D01*
X036300Y046730D02*
X036425Y046855D01*
X038018Y046402D02*
X038886D01*
X037880Y046540D02*
X038018Y046402D01*
X037240Y046540D02*
X037880D01*
X036771Y046462D02*
X037162D01*
X037240Y046540D01*
X039844Y049243D02*
X039850Y049250D01*
X038886Y047150D02*
Y047876D01*
X029600Y049970D02*
X029959Y049611D01*
X029600Y049970D02*
Y050590D01*
X029959Y049611D02*
X030669D01*
X030140Y049848D02*
X030166D01*
X030207Y049808D01*
X029973Y050593D02*
X030666D01*
X030669Y050595D01*
X029970Y050590D02*
X029973Y050593D01*
X032472Y043855D02*
X032722D01*
X032457Y043870D02*
X032472Y043855D01*
X032722D02*
X032737Y043840D01*
X029270Y046550D02*
X029525D01*
X030098Y049188D02*
Y049328D01*
X030184Y049414D01*
X030669D01*
X035771Y044819D02*
X035971D01*
X036035Y044750D02*
Y044755D01*
X035971Y044819D02*
X036035Y044755D01*
X035501Y045089D02*
X035771Y044819D01*
X035492Y045379D02*
X035501Y045370D01*
Y045089D02*
Y045370D01*
X033650Y046840D02*
Y048440D01*
Y046840D02*
X033917Y046573D01*
X033990Y047160D02*
Y048670D01*
Y047160D02*
X034311Y046839D01*
Y045379D02*
Y046839D01*
X034700Y047580D02*
Y049960D01*
Y047580D02*
X035885Y046395D01*
Y045379D02*
Y046395D01*
X034330Y047340D02*
Y049630D01*
Y047340D02*
X035689Y045981D01*
Y045379D02*
Y045981D01*
X035910Y047820D02*
Y049240D01*
X035610Y047850D02*
Y049452D01*
X029637Y049497D02*
X029640Y049500D01*
X028410Y049494D02*
X028413Y049497D01*
X029637D01*
X030207Y049808D02*
X030669D01*
X027604Y049694D02*
X027776Y049866D01*
X027178Y049694D02*
X027604D01*
X035958Y047052D02*
X036771D01*
X035610Y047850D02*
X036211Y047249D01*
X036771D01*
X035910Y047820D02*
X036284Y047446D01*
X036771D01*
Y048233D02*
X036773Y048232D01*
X037438D01*
X037440Y048230D01*
X037770Y048704D02*
X037810Y048664D01*
X037770Y048704D02*
Y048730D01*
X037810Y048230D02*
Y048664D01*
X036069Y050981D02*
X036082Y050994D01*
Y051481D01*
X031371Y052171D02*
X031380Y052163D01*
X031139Y052171D02*
X031371D01*
X031130Y052180D02*
X031139Y052171D01*
X030180Y050792D02*
X030669D01*
X033950Y052990D02*
X034830Y052110D01*
X035160D01*
X035893Y051488D02*
Y052093D01*
X035885Y051481D02*
X035893Y051488D01*
Y052093D02*
X035900Y052100D01*
X035689Y051481D02*
Y052861D01*
X035492Y051481D02*
Y052528D01*
X029895Y046550D02*
X030180D01*
X030288Y046658D01*
X030669D01*
X029877Y046090D02*
X029890Y046077D01*
X029880Y045870D02*
Y046087D01*
X029877Y046090D02*
X029880Y046087D01*
Y045870D02*
X029883Y045867D01*
X027776Y049866D02*
X027840D01*
X028410Y051094D02*
X028666D01*
X027541Y051374D02*
X027884D01*
X027525Y051359D02*
X027541Y051374D01*
X027884D02*
X027900Y051390D01*
X031369Y052529D02*
X031380Y052517D01*
X031131Y052529D02*
X031369D01*
X031120Y052540D02*
X031131Y052529D01*
X032524Y044611D02*
X032581D01*
X032600Y044630D01*
X032198Y044285D02*
X032524Y044611D01*
X032198Y044655D02*
X032342Y044799D01*
X032190Y044655D02*
X032198D01*
X032342Y044799D02*
Y045379D01*
X029275Y047325D02*
X029515D01*
X029520Y047330D01*
X029280Y047720D02*
X029520D01*
X029890Y046940D02*
Y046948D01*
Y047338D02*
X029998Y047446D01*
X029890Y047330D02*
Y047338D01*
X030163Y046077D02*
X030178Y046062D01*
X030663D01*
X030666Y046262D02*
X030669Y046265D01*
X029890Y046077D02*
X030163D01*
X030663Y046062D02*
X030669Y046068D01*
X031555Y051481D02*
X031560Y051487D01*
Y051901D01*
X031566Y051907D01*
X031367Y051490D02*
Y052150D01*
X031380Y052163D01*
X031358Y051481D02*
X031367Y051490D01*
X037774Y050804D02*
Y051046D01*
Y050804D02*
X037777Y050800D01*
X037770Y051050D02*
X037774Y051046D01*
X037431Y050809D02*
Y051031D01*
X037423Y050800D02*
X037431Y050809D01*
Y051031D02*
X037440Y051040D01*
X037157Y050589D02*
X037190Y050556D01*
X037216D01*
X036771Y050595D02*
X036778Y050589D01*
X037157D01*
X036771Y050792D02*
X036775Y050796D01*
X037419D01*
X037423Y050800D01*
X037770Y045950D02*
X037772Y045952D01*
Y046238D02*
X037774Y046240D01*
X037772Y045952D02*
Y046238D01*
X037410Y046230D02*
X037420Y046240D01*
X037410Y046000D02*
Y046230D01*
X037400Y045990D02*
X037410Y046000D01*
X036771Y046265D02*
X036780Y046256D01*
X037404D01*
X037420Y046240D01*
X033130Y045379D02*
Y045820D01*
X033129Y045379D02*
X033130Y045379D01*
Y045820D02*
X033130Y045820D01*
X032600Y044630D02*
X032604Y044634D01*
X032826D02*
X032830Y044637D01*
X032604Y044634D02*
X032826D01*
X033073Y044880D02*
X033180D01*
X032830Y044637D02*
X033073Y044880D01*
X033180D02*
X033326Y045026D01*
Y045379D01*
X027840Y049866D02*
X028020D01*
X053720Y045526D02*
Y046120D01*
X053530Y045336D02*
X053720Y045526D01*
X053040Y046800D02*
X053720Y046120D01*
X053353Y045769D02*
Y046230D01*
X052408Y047175D02*
X053353Y046230D01*
X052400Y047175D02*
X052408D01*
X051970Y046957D02*
X053068Y045858D01*
X051510Y046957D02*
X051970D01*
X051382Y045220D02*
X051421Y045181D01*
X051709D02*
X052190Y044700D01*
X051421Y045181D02*
X051709D01*
X052190Y044700D02*
X052617D01*
X052830Y044913D01*
X050746Y043042D02*
X050814Y043110D01*
X050746Y043026D02*
Y043042D01*
X052020Y042095D02*
X052025Y042090D01*
X052020Y042095D02*
Y042380D01*
X051414Y041449D02*
X051482Y041517D01*
X051414Y041442D02*
Y041449D01*
X051150Y042090D02*
X051655D01*
X051120Y042120D02*
X051150Y042090D01*
X051080Y042080D02*
X051120Y042120D01*
X051080Y041482D02*
Y042080D01*
X051040Y041442D02*
X051080Y041482D01*
X050666Y041442D02*
Y041499D01*
X050598Y041567D02*
X050666Y041499D01*
X050090Y041567D02*
X050598D01*
X050090D02*
X050162Y041639D01*
Y041831D01*
X050372Y042041D01*
Y042120D01*
X051285Y044550D02*
X051315Y044580D01*
X047193Y044352D02*
X047588Y044747D01*
Y045086D01*
X047882Y044671D02*
Y045125D01*
X047563Y044352D02*
X047882Y044671D01*
X050070Y048040D02*
Y048493D01*
X050120Y048543D01*
X051510D02*
X051543Y048510D01*
X052080D01*
X052400Y047545D02*
Y047800D01*
X042450Y042579D02*
X042929D01*
X043030Y042478D01*
X042430Y043629D02*
X043021D01*
X043030Y043620D01*
X040295Y043600D02*
Y043870D01*
Y043600D02*
X040305Y043590D01*
X040685Y043860D02*
X041060D01*
X041070Y043850D01*
X053430Y047567D02*
Y047860D01*
X053045Y047825D02*
X053050Y047830D01*
X053045Y047580D02*
Y047825D01*
X053040Y047575D02*
X053045Y047580D01*
X053040Y046800D02*
Y047205D01*
X053044Y047209D01*
X053426D01*
X053430Y047213D01*
X052859Y047181D02*
X053016D01*
X053040Y047205D01*
X052640Y047400D02*
X052859Y047181D01*
X052640Y047400D02*
Y048840D01*
X052230Y049250D02*
X052640Y048840D01*
X049030Y045530D02*
Y045805D01*
X048010Y043710D02*
Y043970D01*
X049030Y046940D02*
Y047170D01*
X048432Y046579D02*
X048491Y046520D01*
X048980D01*
X049030Y046570D01*
X048432Y046579D02*
Y046917D01*
X048394Y046955D02*
X048432Y046917D01*
X049030Y046175D02*
Y046570D01*
X048400Y044730D02*
Y045118D01*
X048530Y044600D02*
X048680D01*
X048400Y044730D02*
X048530Y044600D01*
X048394Y045125D02*
X048400Y045118D01*
X048680Y044600D02*
X048770Y044510D01*
Y044335D02*
Y044510D01*
Y044335D02*
X048895Y044210D01*
X048405Y043725D02*
X048410Y043720D01*
X048405Y043725D02*
Y043960D01*
X048400Y043965D02*
X048405Y043960D01*
X048138Y044668D02*
Y045125D01*
X048030Y044560D02*
X048138Y044668D01*
X048030Y044360D02*
Y044560D01*
X048010Y044340D02*
X048030Y044360D01*
X048010Y044340D02*
X048012Y044338D01*
X048398D01*
X048400Y044335D01*
X050120Y046957D02*
X051510D01*
X049533D02*
X050120D01*
X049195Y047295D02*
X049533Y046957D01*
X049195Y047295D02*
Y048470D01*
X047881Y047866D02*
X047882Y047866D01*
X048230Y048235D02*
Y048340D01*
X047945Y047950D02*
X048230Y048235D01*
X047945Y047930D02*
Y047950D01*
X048230Y048340D02*
X048360Y048470D01*
X048825D01*
X048501Y047856D02*
X048575Y047930D01*
X048177Y047347D02*
X048448Y047618D01*
Y047783D01*
X048575Y047910D01*
X048177Y046994D02*
Y047347D01*
X048138Y046955D02*
X048177Y046994D01*
X047882Y046955D02*
Y047866D01*
X048100Y046500D02*
Y046917D01*
X048138Y046955D01*
X048020Y046420D02*
X048100Y046500D01*
X047480Y046420D02*
X048020D01*
X047305Y046595D02*
X047480Y046420D01*
X047010Y046595D02*
X047305D01*
X047010Y045765D02*
Y046225D01*
X047065Y045340D02*
X047588D01*
X047010Y045395D02*
X047065Y045340D01*
X047626Y045125D02*
Y045301D01*
X047588Y045340D02*
X047626Y045301D01*
X047588Y045086D02*
X047626Y045125D01*
X047193Y044344D02*
Y044352D01*
Y044344D02*
X047195Y044342D01*
Y043896D02*
Y044342D01*
Y043896D02*
X047197Y043894D01*
X047559D02*
X047561Y043896D01*
Y044342D01*
X047563Y044344D01*
Y044352D01*
X023743Y041510D02*
X025700D01*
X023743Y042010D02*
X025300D01*
X026180Y051380D02*
Y052200D01*
X026430Y051256D02*
X026569Y051117D01*
Y051091D02*
Y051117D01*
Y050779D02*
Y051091D01*
X026533Y050743D02*
X026569Y050779D01*
X026533Y050545D02*
Y050743D01*
X026528Y050540D02*
X026533Y050545D01*
X026700Y051754D02*
Y052030D01*
Y051754D02*
X026725Y051729D01*
X025725Y051471D02*
Y051525D01*
X025540Y051710D02*
X025725Y051525D01*
X025053Y051175D02*
Y051680D01*
Y051891D01*
X025125Y051963D01*
X025053Y051175D02*
X025112Y051117D01*
X026768Y051008D02*
Y051316D01*
X026725Y051359D02*
X026768Y051316D01*
X026725Y050966D02*
X026768Y051008D01*
X026725Y050540D02*
Y050966D01*
X026140Y051050D02*
X026150Y051060D01*
X025947Y051147D02*
X026180Y051380D01*
X025947Y050550D02*
Y051147D01*
X026140Y050545D02*
Y051050D01*
X036761Y042642D02*
X036780Y042660D01*
X036508Y042642D02*
X036761D01*
X036490Y042623D02*
X036508Y042642D01*
X036763Y042984D02*
X036770Y042990D01*
X036496Y042984D02*
X036763D01*
X036490Y042977D02*
X036496Y042984D01*
X036477Y042990D02*
X036490Y042977D01*
X036017Y042990D02*
X036477D01*
X036004Y043003D02*
X036017Y042990D01*
X034873Y044057D02*
Y044330D01*
Y044720D01*
X034894Y044741D01*
Y045402D01*
X036300Y044314D02*
X036306Y044309D01*
X035987Y044320D02*
X035993Y044314D01*
X020050Y042310D02*
Y042350D01*
Y042310D02*
X020052Y042308D01*
Y042002D02*
Y042308D01*
Y042002D02*
X020054Y042000D01*
X040570Y018830D02*
X040740D01*
X040819Y018751D01*
X041229D01*
X041230Y018750D01*
X042056Y018947D02*
X042332D01*
X041781Y018672D02*
X042056Y018947D01*
X027525Y051075D02*
Y051359D01*
X027264Y050814D02*
X027525Y051075D01*
X027264Y050289D02*
Y050814D01*
X027259Y050284D02*
X027264Y050289D01*
X027837Y045713D02*
X028018Y045532D01*
X028128D01*
X028200Y045460D01*
X027673Y045713D02*
X027837D01*
X027673D02*
Y045750D01*
X027634Y045789D02*
X027673Y045750D01*
X027634Y045789D02*
Y045811D01*
Y044629D02*
X027649Y044615D01*
X028185D01*
X028200Y044600D01*
Y044970D02*
Y045460D01*
X026926Y050886D02*
X026930Y050890D01*
X026926Y050544D02*
Y050886D01*
X026922Y050540D02*
X026926Y050544D01*
X026336Y050826D02*
X026340Y050830D01*
X026336Y050544D02*
Y050826D01*
X026332Y050540D02*
X026336Y050544D01*
X026135Y050540D02*
X026140Y050545D01*
X025938Y050540D02*
X025947Y050550D01*
X042698Y018750D02*
X042850Y018902D01*
X042332Y018750D02*
X042698D01*
X042850Y018902D02*
Y018910D01*
X027525Y051729D02*
Y052015D01*
X027125Y051729D02*
Y052005D01*
X026725Y051359D02*
X027125D01*
X027178Y050284D02*
X027259D01*
X028040Y050694D02*
Y051094D01*
X027402Y050092D02*
X027686Y050376D01*
X027730D01*
X028040Y050686D01*
Y050694D01*
X027183Y050092D02*
X027402D01*
X027178Y050087D02*
X027183Y050092D01*
X027446Y049896D02*
X027776Y050226D01*
X027976D01*
X028040Y050290D01*
Y050294D01*
X027183Y049896D02*
X027446D01*
X027178Y049890D02*
X027183Y049896D01*
X028040Y049094D02*
Y049494D01*
X028039Y049495D02*
X028040Y049494D01*
X027179Y049495D02*
X028039D01*
X027178Y049497D02*
X027179Y049495D01*
X027178Y049095D02*
X027579Y048694D01*
X028040D01*
X027178Y049095D02*
Y049300D01*
X028040Y048294D02*
Y048694D01*
X028048Y047494D02*
Y047894D01*
X027700Y048242D02*
Y048270D01*
Y048242D02*
X028048Y047894D01*
X027410Y048560D02*
X027700Y048270D01*
X027120Y048560D02*
X027410D01*
X026922Y048758D02*
X027120Y048560D01*
X026922Y048758D02*
Y049044D01*
X024180Y046050D02*
Y046355D01*
Y046725D02*
Y047030D01*
X023564Y052644D02*
X023990D01*
X023560Y052640D02*
X023564Y052644D01*
X024360D02*
X024634D01*
X024360Y053044D02*
X024646D01*
X023684D02*
X023990D01*
X026338Y048562D02*
X026340Y048560D01*
X026338Y048562D02*
Y048802D01*
X026337Y048804D02*
X026338Y048802D01*
X026337Y048804D02*
Y049039D01*
X026332Y049044D02*
X026337Y049039D01*
X026140Y048720D02*
Y049039D01*
X026135Y049044D02*
X026140Y049039D01*
X025325Y051471D02*
X025725D01*
X025125Y052325D02*
Y052595D01*
X025575Y052344D02*
Y052605D01*
X025566Y051972D02*
X025575Y051982D01*
X025135Y051972D02*
X025566D01*
X025125Y051963D02*
X025135Y051972D01*
X025112Y051117D02*
X025325D01*
X025725D01*
X025704Y051095D02*
X025725Y051117D01*
X025704Y050289D02*
Y051095D01*
X025698Y050284D02*
X025704Y050289D01*
X025682Y050284D02*
X025698D01*
X025475Y048271D02*
Y048575D01*
X025875Y048271D02*
X025933Y048329D01*
Y049039D01*
X025938Y049044D01*
X025475Y048271D02*
X025875D01*
X025147Y048627D02*
X025615Y049095D01*
Y049295D01*
X025620Y049300D01*
X025682D01*
X025147Y048343D02*
Y048627D01*
X025083Y048279D02*
X025147Y048343D01*
X025075Y048279D02*
X025083D01*
X023190Y049550D02*
X023193Y049547D01*
X023522D01*
X023525Y049544D01*
X023500Y050019D02*
X023525Y049994D01*
X022800Y050019D02*
X023500D01*
X022775Y050044D02*
X022800Y050019D01*
X031397Y024213D02*
X031518D01*
X031590Y024141D01*
X030220Y025390D02*
X031397Y024213D01*
X027600Y025390D02*
X030220D01*
X027240Y025750D02*
X027600Y025390D01*
X027240Y025750D02*
Y025760D01*
X041096Y019424D02*
X041100Y019420D01*
X040804Y019424D02*
X041096D01*
X040800Y019427D02*
X040804Y019424D01*
X040800Y019073D02*
X040926Y018947D01*
X041230D01*
X042850Y018910D02*
X042852Y018912D01*
Y019318D01*
X042855Y019320D01*
X043545Y019315D02*
X043550Y019310D01*
X043230Y019315D02*
X043545D01*
X043225Y019320D02*
X043230Y019315D01*
X033480Y020395D02*
X033490D01*
X033302Y020574D02*
X033480Y020395D01*
X033302Y020574D02*
Y021211D01*
X033310Y021219D01*
X033500Y020870D02*
Y021213D01*
X033507Y021219D01*
X034705Y020345D02*
X034710Y020350D01*
X034705Y020022D02*
Y020345D01*
X034700Y020017D02*
X034705Y020022D01*
X033704Y020817D02*
Y021219D01*
Y020817D02*
X034110Y020410D01*
X034130D01*
Y019780D02*
X034247Y019663D01*
X034700D01*
X034120Y023750D02*
X034125Y023745D01*
Y023440D02*
Y023745D01*
Y023440D02*
X034130Y023435D01*
X033745Y023745D02*
X033750Y023750D01*
X033745Y023440D02*
Y023745D01*
X033740Y023435D02*
X033745Y023440D01*
X033340Y023730D02*
X033345Y023725D01*
Y023432D02*
Y023725D01*
Y023432D02*
X033350Y023427D01*
X033110Y022404D02*
Y022740D01*
Y022404D02*
X033113Y022401D01*
X033310D02*
X033319Y022410D01*
Y023042D01*
X033350Y023073D01*
X033507Y022401D02*
Y022840D01*
X033732Y023065D01*
X033740D01*
X033704Y022401D02*
X033713Y022410D01*
Y022656D01*
X034122Y023065D01*
X034130D01*
X034165Y023100D02*
X034330D01*
X034130Y023065D02*
X034165Y023100D01*
X034330D02*
X034500Y023270D01*
X031985Y024135D02*
X031990Y024130D01*
X031595Y024135D02*
X031985D01*
X031590Y024141D02*
X031595Y024135D01*
X031590Y024495D02*
X031593Y024498D01*
X031987D01*
X031990Y024500D01*
X049730Y049909D02*
X050660D01*
X048575Y047910D02*
Y047930D01*
X049231Y043070D02*
X049550D01*
X048869D02*
X048900Y043101D01*
Y043580D01*
X048895Y043585D02*
X048900Y043580D01*
X048895Y043585D02*
Y044210D01*
X021120Y041510D02*
X021617D01*
X020908Y041298D02*
X021120Y041510D01*
X020573Y041298D02*
X020908D01*
X020566Y041094D02*
X021054D01*
X021060Y041100D01*
X020566Y041291D02*
X020573Y041298D01*
X021050Y042020D02*
X021055Y042015D01*
X021612D01*
X021617Y042010D01*
X019058Y041691D02*
X019339D01*
X018776D02*
X019058D01*
X019050Y041684D02*
X019058Y041691D01*
X019050Y041560D02*
Y041684D01*
Y041560D02*
X019113Y041497D01*
X019336D01*
X019345Y041488D01*
X019339Y041691D02*
X019345Y041685D01*
X018770Y041697D02*
X018776Y041691D01*
X018854Y042580D02*
X018856Y042579D01*
X018190Y040910D02*
X018195Y040905D01*
X018515D01*
X018520Y040900D01*
X018954Y041128D02*
X019109Y041282D01*
X018954Y040964D02*
Y041128D01*
X018890Y040900D02*
X018954Y040964D01*
X019109Y041282D02*
X019336D01*
X019345Y041291D01*
X019660Y040370D02*
Y040780D01*
X046975Y050884D02*
X047014Y050922D01*
X047070D01*
X046975Y050310D02*
Y050884D01*
X049470Y050560D02*
Y050874D01*
X049646Y051051D01*
X049730D01*
X049352Y050442D02*
X049470Y050560D01*
X049077Y050442D02*
X049352D01*
X048940Y050305D02*
X049077Y050442D01*
X048802Y051178D02*
X048820Y051160D01*
X049621D01*
X049730Y051051D01*
X046375Y051400D02*
X046392Y051417D01*
X047053D01*
X047070Y051434D01*
X048951Y052202D02*
X048990Y052240D01*
X048802Y052202D02*
X048951D01*
D16*
X033523Y044511D02*
Y045379D01*
X033434Y044422D02*
X033523Y044511D01*
X033740Y043929D02*
Y045359D01*
X033720Y045379D02*
X033740Y045359D01*
X033087Y042822D02*
Y044025D01*
X033434Y044372D01*
Y044422D01*
X034143Y042840D02*
Y043327D01*
X027415Y047211D02*
X027625Y047421D01*
X027090Y047211D02*
X027415D01*
X026789Y047562D02*
X027090Y047260D01*
Y047211D02*
Y047260D01*
X026789Y047562D02*
Y048501D01*
X026725Y048565D02*
X026789Y048501D01*
X026725Y048565D02*
Y049044D01*
X026093Y047566D02*
Y047661D01*
X026460Y048028D01*
Y048077D01*
X025925Y047398D02*
X026093Y047566D01*
X026460Y048077D02*
X026528Y048145D01*
Y049044D01*
X033740Y043929D02*
X034064Y043605D01*
Y043555D02*
Y043605D01*
D17*
X022414Y050480D02*
X023770D01*
X022071Y050824D02*
Y051064D01*
Y050824D02*
X022414Y050480D01*
X022460Y050590D02*
X023816D01*
X022181Y050869D02*
X022460Y050590D01*
X022181Y050869D02*
Y051018D01*
X023770Y050480D02*
X023901Y050349D01*
X023816Y050590D02*
X023947Y050459D01*
X024398D01*
X023901Y050349D02*
X024398D01*
X025558Y049540D02*
X025601Y049497D01*
X025682D01*
X025421Y049540D02*
X025558D01*
X025328Y049447D02*
X025421Y049540D01*
X025328Y049359D02*
Y049447D01*
X025183Y049214D02*
X025328Y049359D01*
X025052Y049214D02*
X025183D01*
X025017Y049179D02*
X025052Y049214D01*
X025017Y049163D02*
Y049179D01*
X024933Y049079D02*
X025017Y049163D01*
X024925Y049079D02*
X024933D01*
X024833Y049163D02*
X024917Y049079D01*
X024833Y049163D02*
Y049179D01*
X024917Y049079D02*
X024925D01*
X024434Y049214D02*
X024798D01*
X024833Y049179D01*
X023730Y048510D02*
X024434Y049214D01*
X022614Y048510D02*
X023730D01*
X025601Y049694D02*
X025682D01*
X025558Y049650D02*
X025601Y049694D01*
X025376Y049650D02*
X025558D01*
X025218Y049492D02*
X025376Y049650D01*
X024925Y049459D02*
X024933D01*
X025218Y049404D02*
Y049492D01*
X025137Y049324D02*
X025218Y049404D01*
X025052Y049324D02*
X025137D01*
X025017Y049359D02*
Y049375D01*
X024933Y049459D02*
X025017Y049375D01*
Y049359D02*
X025052Y049324D01*
X024917Y049459D02*
X024925D01*
X024833Y049375D02*
X024917Y049459D01*
X024833Y049359D02*
Y049375D01*
X024798Y049324D02*
X024833Y049359D01*
X024388Y049324D02*
X024798D01*
X023684Y048620D02*
X024388Y049324D01*
X022660Y048620D02*
X023684D01*
X022340Y049330D02*
X022489D01*
X022775Y049044D01*
X022262Y049408D02*
Y050057D01*
X021775Y050544D02*
X022262Y050057D01*
X022160Y049306D02*
X022262Y049408D01*
X022270Y049260D02*
X022340Y049330D01*
X022270Y049010D02*
Y049260D01*
Y049010D02*
X022660Y048620D01*
X022160Y048964D02*
Y049306D01*
Y048964D02*
X022614Y048510D01*
X024985Y050349D02*
X025401Y049934D01*
X025558D01*
X024652Y050349D02*
X024985D01*
X024617Y050298D02*
Y050314D01*
X025601Y049890D02*
X025682D01*
X025558Y049934D02*
X025601Y049890D01*
X024617Y050314D02*
X024652Y050349D01*
X024533Y050214D02*
X024617Y050298D01*
X024525Y050214D02*
X024533D01*
X025558Y050044D02*
X025601Y050087D01*
X025682D01*
X024617Y050494D02*
Y050510D01*
X024652Y050459D02*
X025031D01*
X025446Y050044D02*
X025558D01*
X025031Y050459D02*
X025446Y050044D01*
X024525Y050594D02*
X024533D01*
X024617Y050494D02*
X024652Y050459D01*
X024533Y050594D02*
X024617Y050510D01*
X022766Y051054D02*
X022775Y051044D01*
X022216Y051054D02*
X022766D01*
X022181Y051018D02*
X022216Y051054D01*
X024398Y050459D02*
X024433Y050494D01*
Y050510D01*
X024517Y050594D01*
X024525D01*
X021775Y051544D02*
X022138Y051181D01*
Y051131D02*
Y051181D01*
X022071Y051064D02*
X022138Y051131D01*
X024398Y050349D02*
X024433Y050314D01*
Y050298D02*
Y050314D01*
Y050298D02*
X024517Y050214D01*
X024525D01*
X018611Y044310D02*
X018802Y044119D01*
X017670Y043996D02*
X017984Y044310D01*
X018611D01*
X018565Y044200D02*
X018692Y044073D01*
X018030Y044200D02*
X018565D01*
X017780Y043950D02*
X018030Y044200D01*
X017670Y043250D02*
Y043996D01*
X017780Y043204D02*
Y043950D01*
X019703Y042182D02*
Y042908D01*
X019813Y042862D02*
X020183Y043231D01*
X019813Y042182D02*
Y042862D01*
X019703Y042908D02*
X020073Y043277D01*
X019660Y042000D02*
X019689Y042029D01*
Y042168D01*
X019703Y042182D01*
X019828Y042029D02*
X019857Y042000D01*
X019828Y042029D02*
Y042168D01*
X019813Y042182D02*
X019828Y042168D01*
X020073Y043277D02*
Y043585D01*
X020172Y043685D01*
X020302D01*
X020337Y043720D01*
Y043739D01*
X020386Y043787D01*
X020485D01*
X020183Y043231D02*
Y043540D01*
X020218Y043575D01*
X020302D01*
X020337Y043540D01*
Y043521D02*
Y043540D01*
Y043521D02*
X020386Y043473D01*
X020485D01*
X018692Y044023D02*
Y044073D01*
X018657Y043988D02*
X018692Y044023D01*
X018383Y043988D02*
X018657D01*
X018294Y043900D02*
X018383Y043988D01*
X017538Y042963D02*
X017780Y043204D01*
X017269Y042963D02*
X017538D01*
X017196Y042890D02*
X017269Y042963D01*
X017009Y042890D02*
X017196D01*
X018802Y044023D02*
Y044119D01*
X018837Y043988D02*
X019112D01*
X019200Y043900D01*
X018802Y044023D02*
X018837Y043988D01*
X017009Y043146D02*
X017196D01*
X017493Y043073D02*
X017670Y043250D01*
X017269Y043073D02*
X017493D01*
X017196Y043146D02*
X017269Y043073D01*
X019112Y043812D02*
X019200Y043900D01*
X018837Y043812D02*
X019112D01*
X018802Y043777D02*
X018837Y043812D01*
X018802Y043727D02*
Y043777D01*
Y043727D02*
X018844Y043685D01*
X019633D01*
X019668Y043720D01*
Y043739D01*
X019717Y043787D01*
X019815D01*
X018294Y043900D02*
X018383Y043812D01*
X018657D01*
X018692Y043777D01*
Y043681D02*
Y043777D01*
Y043681D02*
X018799Y043575D01*
X019633D01*
X019668Y043540D01*
Y043521D02*
Y043540D01*
Y043521D02*
X019717Y043473D01*
X019815D01*
D23*
X038340Y019035D02*
D03*
Y018405D02*
D03*
X039140Y019035D02*
D03*
Y018405D02*
D03*
X037620Y019035D02*
D03*
Y018405D02*
D03*
X036870Y019035D02*
D03*
Y018405D02*
D03*
D24*
X038320Y020165D02*
D03*
Y019795D02*
D03*
X039130Y020155D02*
D03*
Y019785D02*
D03*
X037630Y020155D02*
D03*
Y019785D02*
D03*
X036870Y020155D02*
D03*
Y019785D02*
D03*
X032190Y044285D02*
D03*
Y044655D02*
D03*
X051420Y039395D02*
D03*
Y039765D02*
D03*
X039150Y037790D02*
D03*
Y037420D02*
D03*
X037360Y042465D02*
D03*
Y042835D02*
D03*
X039160Y038630D02*
D03*
Y038260D02*
D03*
X052400Y047545D02*
D03*
Y047175D02*
D03*
X053040Y047205D02*
D03*
Y047575D02*
D03*
X049030Y046175D02*
D03*
Y045805D02*
D03*
X047010Y045765D02*
D03*
Y045395D02*
D03*
X049030Y046570D02*
D03*
Y046940D02*
D03*
X047010Y046595D02*
D03*
Y046225D02*
D03*
X048400Y044335D02*
D03*
Y043965D02*
D03*
X048010Y044340D02*
D03*
Y043970D02*
D03*
X039100Y042155D02*
D03*
Y041785D02*
D03*
X024525Y050964D02*
D03*
Y050594D02*
D03*
Y049844D02*
D03*
Y050214D02*
D03*
X024925Y049459D02*
D03*
Y049829D02*
D03*
Y049079D02*
D03*
Y048709D02*
D03*
X025075Y047909D02*
D03*
Y048279D02*
D03*
X024180Y046725D02*
D03*
Y046355D02*
D03*
X027525Y051359D02*
D03*
Y051729D02*
D03*
X027125Y051359D02*
D03*
Y051729D02*
D03*
X026725Y051359D02*
D03*
Y051729D02*
D03*
X039100Y040810D02*
D03*
Y041180D02*
D03*
X028200Y044970D02*
D03*
Y044600D02*
D03*
X033740Y023065D02*
D03*
Y023435D02*
D03*
X034130Y023065D02*
D03*
Y023435D02*
D03*
X031990Y024130D02*
D03*
Y024500D02*
D03*
X021390Y017955D02*
D03*
Y018325D02*
D03*
D25*
X024835Y040140D02*
D03*
X024465D02*
D03*
X024835Y039750D02*
D03*
X024465D02*
D03*
X024835Y039350D02*
D03*
X024465D02*
D03*
X047030Y043110D02*
D03*
X047400D02*
D03*
X037440Y048230D02*
D03*
X037810D02*
D03*
X029970Y050590D02*
D03*
X029600D02*
D03*
X029895Y046550D02*
D03*
X029525D02*
D03*
X036035Y044750D02*
D03*
X036405D02*
D03*
X029890Y047330D02*
D03*
X029520D02*
D03*
Y046940D02*
D03*
X029890D02*
D03*
X052025Y042090D02*
D03*
X051655D02*
D03*
X051285Y044550D02*
D03*
X050915D02*
D03*
X049195Y048470D02*
D03*
X048825D02*
D03*
X041440Y043850D02*
D03*
X041070D02*
D03*
X040670Y043870D02*
D03*
X040300D02*
D03*
X047193Y044344D02*
D03*
X047563D02*
D03*
X046375Y051400D02*
D03*
X046005D02*
D03*
X023990Y053044D02*
D03*
X024360D02*
D03*
X023990Y052644D02*
D03*
X024360D02*
D03*
X028040Y051094D02*
D03*
X028410D02*
D03*
Y050694D02*
D03*
X028040D02*
D03*
Y050294D02*
D03*
X028410D02*
D03*
X028040Y049494D02*
D03*
X028410D02*
D03*
Y049094D02*
D03*
X028040D02*
D03*
X028410Y048694D02*
D03*
X028040D02*
D03*
Y048294D02*
D03*
X028410D02*
D03*
X029520Y047720D02*
D03*
X029890D02*
D03*
X018890Y040900D02*
D03*
X018520D02*
D03*
X042855Y019320D02*
D03*
X043225D02*
D03*
X043220Y018910D02*
D03*
X042850D02*
D03*
D26*
X015580Y040727D02*
D03*
Y039136D02*
D03*
D27*
X015810Y040408D02*
D03*
Y040140D02*
D03*
Y039723D02*
D03*
Y039455D02*
D03*
D28*
X043030Y043620D02*
D03*
Y042478D02*
D03*
D29*
X042400Y043049D02*
D03*
D30*
X038225Y050110D02*
D03*
X037595D02*
D03*
X032555Y052440D02*
D03*
X031925D02*
D03*
X048895Y044210D02*
D03*
X049525D02*
D03*
X048900Y043580D02*
D03*
X049530D02*
D03*
X027255Y026530D02*
D03*
X027885D02*
D03*
X027240Y025760D02*
D03*
X027870D02*
D03*
D31*
X038886Y046402D02*
D03*
Y046776D02*
D03*
Y047150D02*
D03*
X039870D02*
D03*
Y046776D02*
D03*
Y046402D02*
D03*
D32*
X039617Y053150D02*
D03*
X039263D02*
D03*
X032457Y043870D02*
D03*
X032103D02*
D03*
X037774Y046240D02*
D03*
X037420D02*
D03*
X029523Y046090D02*
D03*
X029877D02*
D03*
X037777Y050800D02*
D03*
X037423D02*
D03*
X047340Y048260D02*
D03*
X046986D02*
D03*
X047317Y047850D02*
D03*
X046963D02*
D03*
X035633Y044320D02*
D03*
X035987D02*
D03*
X034143Y042840D02*
D03*
X034497D02*
D03*
X033087Y042822D02*
D03*
X033441D02*
D03*
X034873Y044330D02*
D03*
X035227D02*
D03*
X023525Y049994D02*
D03*
X023880D02*
D03*
X023525Y049544D02*
D03*
X023880D02*
D03*
X028048Y049894D02*
D03*
X028402D02*
D03*
X028048Y047894D02*
D03*
X028402D02*
D03*
X028048Y047494D02*
D03*
X028402D02*
D03*
X018854Y042580D02*
D03*
X018500D02*
D03*
X018857Y042180D02*
D03*
X018503D02*
D03*
X022817Y033830D02*
D03*
X022463D02*
D03*
X034873Y044720D02*
D03*
X035227D02*
D03*
D33*
X039650Y052517D02*
D03*
Y052163D02*
D03*
X040040D02*
D03*
Y052517D02*
D03*
X039260D02*
D03*
Y052163D02*
D03*
X039170Y039640D02*
D03*
Y039286D02*
D03*
X039100Y042663D02*
D03*
Y043017D02*
D03*
X038170Y042837D02*
D03*
Y042483D02*
D03*
X040460Y047137D02*
D03*
Y046783D02*
D03*
X032830Y044283D02*
D03*
Y044637D02*
D03*
X031380Y052517D02*
D03*
Y052163D02*
D03*
X036890Y038786D02*
D03*
Y039140D02*
D03*
X037690Y038793D02*
D03*
Y039147D02*
D03*
X038100Y038793D02*
D03*
Y039147D02*
D03*
X050090Y041567D02*
D03*
Y041213D02*
D03*
X051980Y041163D02*
D03*
Y041517D02*
D03*
X036490Y042977D02*
D03*
Y042623D02*
D03*
X053430Y047213D02*
D03*
Y047567D02*
D03*
X037290Y039140D02*
D03*
Y038786D02*
D03*
X025325Y051117D02*
D03*
Y051471D02*
D03*
X025725Y051117D02*
D03*
Y051471D02*
D03*
X025875Y048271D02*
D03*
Y047917D02*
D03*
X025475Y048271D02*
D03*
Y047917D02*
D03*
X025925Y047398D02*
D03*
Y047044D02*
D03*
X027625Y047421D02*
D03*
Y047067D02*
D03*
X028200Y045460D02*
D03*
Y045814D02*
D03*
X024800Y042543D02*
D03*
Y042897D02*
D03*
X024400Y042543D02*
D03*
Y042897D02*
D03*
X018770Y041343D02*
D03*
Y041697D02*
D03*
X018360Y041343D02*
D03*
Y041697D02*
D03*
X020540Y042550D02*
D03*
Y042904D02*
D03*
X020950Y042553D02*
D03*
Y042907D02*
D03*
X040800Y019073D02*
D03*
Y019427D02*
D03*
X033350Y023073D02*
D03*
Y023427D02*
D03*
X031590Y024141D02*
D03*
Y024495D02*
D03*
X034700Y019663D02*
D03*
Y020017D02*
D03*
X021390Y017003D02*
D03*
Y017357D02*
D03*
X023698Y018435D02*
D03*
Y018081D02*
D03*
D34*
X039056Y049653D02*
D03*
X039253D02*
D03*
X039450D02*
D03*
X039647D02*
D03*
X039844D02*
D03*
X039056Y051307D02*
D03*
X039253D02*
D03*
X039450D02*
D03*
X039647D02*
D03*
X039844D02*
D03*
X038124Y041657D02*
D03*
X037927D02*
D03*
X037730D02*
D03*
X037533D02*
D03*
X037336D02*
D03*
X038124Y040003D02*
D03*
X037927D02*
D03*
X037730D02*
D03*
X037533D02*
D03*
X037336D02*
D03*
D35*
X038694Y053123D02*
D03*
Y052297D02*
D03*
X037946Y053123D02*
D03*
X037946Y052297D02*
D03*
X034130Y020410D02*
D03*
Y019780D02*
D03*
D36*
X039700Y040752D02*
D03*
X040200D02*
D03*
X040700D02*
D03*
X041200D02*
D03*
Y042888D02*
D03*
X040700D02*
D03*
X040200D02*
D03*
X039700D02*
D03*
X039710Y039600D02*
D03*
X040210D02*
D03*
X040710D02*
D03*
X041210D02*
D03*
Y037465D02*
D03*
X040710D02*
D03*
X040210D02*
D03*
X039710D02*
D03*
D37*
X030669Y046068D02*
D03*
Y046265D02*
D03*
Y046462D02*
D03*
Y046658D02*
D03*
Y046855D02*
D03*
Y047052D02*
D03*
Y047249D02*
D03*
Y047446D02*
D03*
Y047643D02*
D03*
Y047839D02*
D03*
Y048036D02*
D03*
Y048233D02*
D03*
Y048430D02*
D03*
Y048627D02*
D03*
Y048824D02*
D03*
Y049021D02*
D03*
Y049217D02*
D03*
Y049414D02*
D03*
Y049611D02*
D03*
Y049808D02*
D03*
Y050005D02*
D03*
Y050202D02*
D03*
Y050399D02*
D03*
Y050595D02*
D03*
Y050792D02*
D03*
X036771D02*
D03*
Y050595D02*
D03*
Y050399D02*
D03*
Y050202D02*
D03*
Y050005D02*
D03*
Y049808D02*
D03*
Y049611D02*
D03*
Y049414D02*
D03*
Y049217D02*
D03*
Y049021D02*
D03*
Y048824D02*
D03*
Y048627D02*
D03*
Y048430D02*
D03*
Y048233D02*
D03*
Y048036D02*
D03*
Y047839D02*
D03*
Y047643D02*
D03*
Y047446D02*
D03*
Y047249D02*
D03*
Y047052D02*
D03*
Y046855D02*
D03*
Y046658D02*
D03*
Y046462D02*
D03*
Y046265D02*
D03*
Y046068D02*
D03*
D38*
X031358Y051481D02*
D03*
X031555D02*
D03*
X031751D02*
D03*
X031948D02*
D03*
X032145D02*
D03*
X032342D02*
D03*
X032539D02*
D03*
X032736D02*
D03*
X032933D02*
D03*
X033129D02*
D03*
X033326D02*
D03*
X033523D02*
D03*
X033720D02*
D03*
X033917D02*
D03*
X034114D02*
D03*
X034311D02*
D03*
X034507D02*
D03*
X034704D02*
D03*
X034901D02*
D03*
X035098D02*
D03*
X035295D02*
D03*
X035492D02*
D03*
X035689D02*
D03*
X035885D02*
D03*
X036082D02*
D03*
Y045379D02*
D03*
X035885D02*
D03*
X035689D02*
D03*
X035492D02*
D03*
X035295D02*
D03*
X035098D02*
D03*
X034901D02*
D03*
X034704D02*
D03*
X034507D02*
D03*
X034311D02*
D03*
X034114D02*
D03*
X033917D02*
D03*
X033720D02*
D03*
X033523D02*
D03*
X033326D02*
D03*
X033129D02*
D03*
X032933D02*
D03*
X032736D02*
D03*
X032539D02*
D03*
X032342D02*
D03*
X032145D02*
D03*
X031948D02*
D03*
X031751D02*
D03*
X031555D02*
D03*
X031358D02*
D03*
D39*
X050372Y042120D02*
D03*
X051120D02*
D03*
X050746Y043026D02*
D03*
D40*
X050666Y041442D02*
D03*
X051040D02*
D03*
X051414D02*
D03*
Y040418D02*
D03*
X051040D02*
D03*
X050666D02*
D03*
D41*
X035630Y042137D02*
D03*
X035256Y043003D02*
D03*
X036004D02*
D03*
D42*
X051294Y052010D02*
D03*
X050546D02*
D03*
X023384Y036770D02*
D03*
X022636D02*
D03*
D43*
X047626Y045125D02*
D03*
X047882D02*
D03*
X048138D02*
D03*
X048394D02*
D03*
X047626Y046955D02*
D03*
X047882D02*
D03*
X048138D02*
D03*
X048394D02*
D03*
D44*
X049231Y043070D02*
D03*
X048869D02*
D03*
X047771Y048660D02*
D03*
X047409D02*
D03*
X036351Y043480D02*
D03*
X035989D02*
D03*
X035219Y043490D02*
D03*
X035581D02*
D03*
D45*
X047559Y043894D02*
D03*
X047197D02*
D03*
D46*
X050358Y045220D02*
D03*
X051382D02*
D03*
D47*
X051510Y048543D02*
D03*
Y046957D02*
D03*
X050120Y048543D02*
D03*
Y046957D02*
D03*
D48*
X047945Y047930D02*
D03*
X048575D02*
D03*
X046975Y050310D02*
D03*
X047605D02*
D03*
X019145Y033880D02*
D03*
X019775D02*
D03*
D49*
X050660Y049909D02*
D03*
Y051051D02*
D03*
X049730D02*
D03*
Y049909D02*
D03*
X032010Y021929D02*
D03*
Y023111D02*
D03*
D50*
X048940Y049715D02*
D03*
Y050305D02*
D03*
X030030Y016845D02*
D03*
Y017435D02*
D03*
D51*
X047070Y052202D02*
D03*
Y051946D02*
D03*
Y051690D02*
D03*
Y051434D02*
D03*
Y051178D02*
D03*
Y050922D02*
D03*
X048802D02*
D03*
Y051178D02*
D03*
Y051434D02*
D03*
Y051690D02*
D03*
Y051946D02*
D03*
Y052202D02*
D03*
D52*
X047936Y051562D02*
D03*
D53*
X045000Y053371D02*
D03*
Y052269D02*
D03*
X049680Y053141D02*
D03*
Y052039D02*
D03*
X032000Y017108D02*
D03*
Y018210D02*
D03*
D54*
X045970Y052625D02*
D03*
Y053255D02*
D03*
X050550Y052705D02*
D03*
Y053335D02*
D03*
X051290Y052705D02*
D03*
Y053335D02*
D03*
X040690Y018405D02*
D03*
Y017775D02*
D03*
X033490Y020395D02*
D03*
Y019765D02*
D03*
X030840Y017445D02*
D03*
Y016815D02*
D03*
D55*
X033434Y044422D02*
D03*
Y043555D02*
D03*
X034064D02*
D03*
Y044422D02*
D03*
X026460Y048077D02*
D03*
Y047211D02*
D03*
X027090D02*
D03*
Y048077D02*
D03*
D56*
X032105Y043320D02*
D03*
X032695D02*
D03*
X027830Y044060D02*
D03*
X028421D02*
D03*
X027215D02*
D03*
X026625D02*
D03*
D57*
X025575Y051982D02*
D03*
Y052344D02*
D03*
X024675Y047913D02*
D03*
Y048275D02*
D03*
D58*
X025125Y052325D02*
D03*
Y051963D02*
D03*
D59*
X025682Y049497D02*
D03*
Y049694D02*
D03*
X027178Y049300D02*
D03*
Y049497D02*
D03*
Y049694D02*
D03*
Y049890D02*
D03*
Y050087D02*
D03*
Y050284D02*
D03*
X025682D02*
D03*
Y049300D02*
D03*
Y049890D02*
D03*
Y050087D02*
D03*
D60*
X025938Y049044D02*
D03*
X026135D02*
D03*
X026332D02*
D03*
X026528D02*
D03*
X026725D02*
D03*
X026922D02*
D03*
Y050540D02*
D03*
X026725D02*
D03*
X026528D02*
D03*
X026332D02*
D03*
X026135D02*
D03*
X025938D02*
D03*
D61*
X026430Y049792D02*
D03*
D62*
X027634Y045811D02*
D03*
X027260D02*
D03*
X026886D02*
D03*
Y044629D02*
D03*
X027260D02*
D03*
X027634D02*
D03*
D63*
X027260Y045220D02*
D03*
X033310Y021810D02*
D03*
D64*
X020251Y042000D02*
D03*
X020054D02*
D03*
X019857D02*
D03*
X019660D02*
D03*
Y040780D02*
D03*
X019857D02*
D03*
X020054D02*
D03*
X020251D02*
D03*
D65*
X019345Y041685D02*
D03*
Y041488D02*
D03*
Y041291D02*
D03*
Y041094D02*
D03*
X020566D02*
D03*
Y041291D02*
D03*
Y041488D02*
D03*
Y041685D02*
D03*
D66*
X020447Y041882D02*
D03*
Y040898D02*
D03*
X019463Y041882D02*
D03*
Y040898D02*
D03*
D67*
X021617Y042510D02*
D03*
Y042010D02*
D03*
Y041510D02*
D03*
Y041010D02*
D03*
X023743Y042510D02*
D03*
Y042010D02*
D03*
Y041510D02*
D03*
Y041010D02*
D03*
D68*
X020485Y043473D02*
D03*
Y043787D02*
D03*
X019815Y043473D02*
D03*
Y043787D02*
D03*
D69*
X018294Y043900D02*
D03*
X019200D02*
D03*
X018294Y043152D02*
D03*
D70*
X019200Y043231D02*
D03*
D71*
X016920Y044150D02*
D03*
Y041630D02*
D03*
D72*
X015955Y042417D02*
D03*
Y043362D02*
D03*
D73*
X017009Y042378D02*
D03*
Y042634D02*
D03*
Y043402D02*
D03*
Y043146D02*
D03*
Y042890D02*
D03*
D74*
X023358Y035190D02*
D03*
X021980D02*
D03*
D75*
X023126Y032467D02*
D03*
X019126D02*
D03*
X018126D02*
D03*
X023126Y019798D02*
D03*
X020130Y019800D02*
D03*
X018126Y019798D02*
D03*
D76*
X016732Y026133D02*
D03*
D77*
X043500Y018385D02*
D03*
Y017795D02*
D03*
X042840Y018375D02*
D03*
Y017785D02*
D03*
D78*
X041781Y018652D02*
D03*
D79*
X041230Y018947D02*
D03*
Y018750D02*
D03*
Y018553D02*
D03*
Y018356D02*
D03*
X042332Y018947D02*
D03*
Y018750D02*
D03*
Y018553D02*
D03*
Y018356D02*
D03*
D80*
X026495Y026518D02*
D03*
Y025770D02*
D03*
D81*
X027671Y024890D02*
D03*
X026569D02*
D03*
D82*
X026633Y022498D02*
D03*
Y021120D02*
D03*
X030550D02*
D03*
Y022498D02*
D03*
D83*
X032916Y022401D02*
D03*
X033113D02*
D03*
X033310D02*
D03*
X033507D02*
D03*
X033704D02*
D03*
Y021219D02*
D03*
X033507D02*
D03*
X033310D02*
D03*
X033113D02*
D03*
X032916D02*
D03*
D84*
X031970Y021310D02*
D03*
Y020050D02*
D03*
D85*
X033455Y018170D02*
D03*
X035385D02*
D03*
D86*
X030794Y018200D02*
D03*
X030086D02*
D03*
D87*
X024830Y018460D02*
D03*
Y017200D02*
D03*
D88*
X023118Y017661D02*
D03*
Y018370D02*
D03*
D126*
X019955Y041390D02*
D03*
D168*
X029083Y018240D02*
X030046D01*
X028120D02*
X029083D01*
X027210Y017940D02*
X027420D01*
X027620D01*
X027820D01*
X028120Y018240D01*
X026870Y017940D02*
X027210D01*
X032810Y020640D02*
X032890Y020720D01*
X032810Y019350D02*
Y020640D01*
X030871Y018185D02*
X032810D01*
Y017895D02*
Y019350D01*
X032890Y020720D02*
Y021070D01*
X030550Y021120D02*
X030740Y021310D01*
X031970D01*
X026224Y017294D02*
X026870Y017940D01*
X024924Y017294D02*
X026224D01*
X024830Y017200D02*
X024924Y017294D01*
X030046Y018240D02*
X030086Y018200D01*
X030031Y017857D02*
Y018146D01*
X030030Y017855D02*
X030031Y017857D01*
Y018146D02*
X030086Y018200D01*
X030030Y017435D02*
Y017855D01*
X031970Y021310D02*
Y021889D01*
X032010Y021929D01*
X027230Y025770D02*
X027240Y025760D01*
X026495Y025770D02*
X027230D01*
X026495D02*
X026554Y025711D01*
Y024905D02*
Y025711D01*
Y024905D02*
X026569Y024890D01*
X026583Y024875D01*
Y022547D02*
Y024875D01*
Y022547D02*
X026633Y022498D01*
X023126Y032467D02*
Y034958D01*
X023156Y034988D01*
Y035175D01*
X023171Y035190D01*
X023358D01*
X023369D01*
X023384Y035205D01*
Y036770D01*
X020172Y036720D02*
X022586D01*
X022636Y036770D01*
X031470Y023180D02*
X032420D01*
X031440Y023122D02*
Y023150D01*
X030816Y022498D02*
X031440Y023122D01*
X030550Y022498D02*
X030816D01*
X031440Y023150D02*
X031470Y023180D01*
X032420D02*
X032662Y022938D01*
Y022554D02*
Y022938D01*
Y022554D02*
X032704Y022512D01*
Y022475D02*
Y022512D01*
X030550Y022498D02*
X030742Y022690D01*
X030840Y018154D02*
X030871Y018185D01*
X029410Y019350D02*
X032810D01*
X027640Y021120D02*
X029410Y019350D01*
X026633Y021120D02*
X027640D01*
X030840Y017445D02*
Y018154D01*
D169*
X024830Y017200D02*
Y017348D01*
X024759Y017296D02*
X024830Y017348D01*
X024680Y017237D02*
X024759Y017296D01*
X044180Y018450D02*
X045369D01*
X043200D02*
X044180D01*
X048760Y036580D02*
X049380Y037200D01*
X048760Y024240D02*
Y036580D01*
X046225Y019306D02*
Y021705D01*
X048760Y024240D01*
X021390Y017003D02*
X024363D01*
X045369Y018450D02*
X046225Y019306D01*
X042380Y018450D02*
X043200D01*
X019136Y033871D02*
X019145Y033880D01*
X019136Y032477D02*
Y033871D01*
X019126Y032467D02*
X019136Y032477D01*
X026886Y044629D02*
X027260D01*
X027215Y044060D02*
X027252Y044097D01*
Y044622D01*
X027634Y044266D02*
X027830Y044070D01*
Y044060D02*
Y044070D01*
X027634Y044266D02*
Y044629D01*
D170*
X028421Y043721D02*
Y044060D01*
X028424Y049072D02*
X028640D01*
X028410Y047240D02*
Y047486D01*
X028402Y047494D02*
X028410Y047486D01*
X020130Y018830D02*
Y019800D01*
Y018830D02*
X020635Y018325D01*
X021390D01*
X033441Y042822D02*
X033463Y042800D01*
X033438Y042825D02*
X033441Y042822D01*
X033463Y042800D02*
X033740D01*
X032104Y043321D02*
Y043869D01*
X032103Y043870D02*
X032104Y043869D01*
Y043321D02*
X032105Y043320D01*
X032193Y044280D02*
X032198Y044285D01*
X032177Y044280D02*
X032193D01*
X032177D02*
X032182Y044285D01*
X032168Y044271D02*
X032177Y044280D01*
X032125Y044220D02*
X032168Y044263D01*
X032125Y043892D02*
Y044220D01*
X032182Y044285D02*
X032190D01*
X032168Y044263D02*
Y044271D01*
X032103Y043870D02*
X032125Y043892D01*
X037920Y051930D02*
Y052271D01*
X037946Y052297D01*
X039617Y053150D02*
X039620Y053153D01*
Y053410D01*
X039260Y052517D02*
X039280Y052537D01*
Y052770D01*
X040040Y052517D02*
Y052790D01*
X039660Y052527D02*
Y052790D01*
X039650Y052517D02*
X039660Y052527D01*
X032097Y043020D02*
Y043313D01*
X032695Y042995D02*
Y043320D01*
X037360Y042835D02*
Y043060D01*
X038920Y039620D02*
X039150D01*
X039170Y039640D01*
X038840Y042650D02*
X039087D01*
X039100Y042663D01*
X039097Y043020D02*
X039100Y043017D01*
X038870Y043020D02*
X039097D01*
X039100Y043017D02*
X039672D01*
X039700Y042989D01*
Y042888D02*
Y042989D01*
X038860Y040800D02*
X039090D01*
X039100Y040810D01*
X038920Y039290D02*
X039400D01*
X039510Y039400D02*
X039682D01*
X039710Y039428D02*
Y039600D01*
X039682Y039400D02*
X039710Y039428D01*
X039400Y039290D02*
X039510Y039400D01*
X039140Y037410D02*
X039150Y037420D01*
X039140Y037160D02*
Y037410D01*
X041200Y037455D02*
X041210Y037465D01*
X041200Y036980D02*
Y037455D01*
X041170Y040310D02*
X041172Y040312D01*
Y040724D02*
X041200Y040752D01*
X041172Y040312D02*
Y040724D01*
X038090Y038783D02*
X038100Y038793D01*
X038090Y038570D02*
Y038783D01*
X037690Y038580D02*
Y038793D01*
X037290Y038786D02*
X037310Y038766D01*
Y038560D02*
Y038766D01*
X036900Y038550D02*
Y038776D01*
X036890Y038786D02*
X036900Y038776D01*
X028409Y049900D02*
X028680D01*
X028402Y049894D02*
X028409Y049900D01*
X023759Y042526D02*
X024784D01*
X028410Y049086D02*
Y049094D01*
Y049086D02*
X028424Y049072D01*
X028410Y050694D02*
X028413Y050697D01*
X028710D01*
X032827Y044280D02*
X032830Y044283D01*
X032590Y044280D02*
X032827D01*
X023098Y017303D02*
Y017641D01*
X028402Y047494D02*
Y047894D01*
X050080Y040990D02*
Y041203D01*
X050090Y041213D01*
X050666Y039694D02*
X050670Y039690D01*
X050666Y039694D02*
Y040418D01*
X051030Y039670D02*
X051040Y039680D01*
Y040418D01*
X052000Y040890D02*
Y041143D01*
X051980Y041163D02*
X052000Y041143D01*
X050895Y044810D02*
X050901Y044804D01*
Y044564D02*
Y044804D01*
Y044564D02*
X050915Y044550D01*
X047317Y047673D02*
Y047850D01*
Y047673D02*
X047615Y047375D01*
Y046967D02*
Y047375D01*
X035993Y044314D02*
X036300D01*
X032097Y043313D02*
X032105Y043320D01*
X051290Y053335D02*
Y053650D01*
X050550Y053335D02*
Y053640D01*
X049500Y053225D02*
Y053580D01*
X049880Y053235D02*
Y053590D01*
X045980Y053225D02*
Y053580D01*
X027824Y026520D02*
X028210D01*
X027854Y025770D02*
X028240D01*
X047771Y048660D02*
X048070D01*
X046710Y048260D02*
X046986D01*
X046720Y047850D02*
X046963D01*
X047409Y048656D02*
Y048660D01*
X047362Y048609D02*
X047409Y048656D01*
X047362Y048282D02*
Y048609D01*
X047340Y048260D02*
X047362Y048282D01*
X047329Y048249D02*
X047340Y048260D01*
X047329Y047861D02*
Y048249D01*
X047317Y047850D02*
X047329Y047861D01*
X034497Y042840D02*
X034777D01*
X045170Y053485D02*
Y053840D01*
X044790Y053475D02*
Y053830D01*
X035730Y017660D02*
Y018015D01*
X035450Y017650D02*
Y018005D01*
X035190Y017660D02*
Y018015D01*
X034940Y017650D02*
Y018005D01*
X031780Y016640D02*
Y016995D01*
X032110Y016660D02*
Y017015D01*
X030505Y016815D02*
X030840D01*
X029675Y016845D02*
X030030D01*
X027260Y045811D02*
Y046150D01*
X028200Y045814D02*
Y046100D01*
X026250Y044060D02*
X026625D01*
X023880Y049544D02*
Y049770D01*
X023880Y049544D02*
X023880Y049544D01*
Y049770D02*
Y049994D01*
X023880Y049994D02*
X023880Y049994D01*
X027764Y025050D02*
X028150D01*
X027774Y024680D02*
X028160D01*
X024697Y048293D02*
Y048489D01*
X024679Y048275D02*
X024697Y048293D01*
X024675Y048275D02*
X024679D01*
X024520Y050969D02*
Y051230D01*
Y050969D02*
X024525Y050964D01*
X024260Y049850D02*
X024519D01*
X024525Y049844D01*
X024533Y049837D01*
X024918D01*
X024925Y049829D01*
X024917Y048709D02*
X024925D01*
X024697Y048489D02*
X024917Y048709D01*
X024680Y047660D02*
Y047908D01*
X024675Y047913D02*
X024680Y047908D01*
X025070Y047670D02*
Y047904D01*
X025075Y047909D01*
X025470Y047660D02*
Y047912D01*
X025475Y047917D01*
X025880Y047680D02*
Y047912D01*
X025875Y047917D02*
X025880Y047912D01*
X027632Y047060D02*
X027960D01*
X027625Y047067D02*
X027632Y047060D01*
X025670Y047040D02*
X025921D01*
X025925Y047044D01*
X025947Y047066D01*
X026334D01*
X026460Y047192D01*
Y047211D01*
X027123Y048110D02*
X027440D01*
X027090Y048077D02*
X027123Y048110D01*
X028424Y048710D02*
X028680D01*
X028410Y048696D02*
X028424Y048710D01*
X028410Y048694D02*
Y048696D01*
X028416Y050300D02*
X028690D01*
X028410Y050294D02*
X028416Y050300D01*
X033438Y042825D02*
Y043552D01*
X033434Y043555D02*
X033438Y043552D01*
X036352Y043479D02*
X036656D01*
X036351Y043480D02*
X036352Y043479D01*
X022210Y034660D02*
Y034983D01*
X021910Y034650D02*
Y034973D01*
X021620Y034670D02*
Y034993D01*
X022140Y033830D02*
X022463D01*
X023098Y017641D02*
X023118Y017661D01*
X021400Y017367D02*
Y017670D01*
X021390Y017357D02*
X021400Y017367D01*
X023708Y017805D02*
Y018071D01*
X023698Y018081D02*
X023708Y018071D01*
X021400Y017670D02*
Y017945D01*
X021390Y017955D02*
X021400Y017945D01*
X033490Y019440D02*
Y019765D01*
X031980Y020060D02*
Y020370D01*
X031970Y020050D02*
X031980Y020060D01*
X040725Y017810D02*
X041070D01*
X040690Y017775D02*
X040725Y017810D01*
X043510Y017450D02*
Y017785D01*
X043500Y017795D02*
X043510Y017785D01*
X042850Y017450D02*
Y017775D01*
X042840Y017785D02*
X042850Y017775D01*
X049980Y045220D02*
X050358D01*
X049570Y043620D02*
X049870D01*
X049530Y043580D02*
X049570Y043620D01*
X049535Y044220D02*
X049880D01*
X049525Y044210D02*
X049535Y044220D01*
X024400Y042897D02*
X024800D01*
X024810Y042907D02*
Y043210D01*
X024800Y042897D02*
X024810Y042907D01*
X024822Y042278D02*
X024830Y042270D01*
X024822Y042278D02*
Y042521D01*
X024800Y042543D02*
X024822Y042521D01*
X024784Y042526D02*
X024800Y042543D01*
X023743Y042510D02*
X023759Y042526D01*
X023810Y040680D02*
Y040992D01*
X023792Y041010D02*
X023810Y040992D01*
X023743Y041010D02*
X023792D01*
X021620Y040650D02*
Y041007D01*
X021617Y041010D02*
X021620Y041007D01*
X018010Y041720D02*
X018011Y041719D01*
X018338D01*
X018360Y041697D01*
X018060Y041330D02*
X018347D01*
X018240Y042910D02*
Y043134D01*
X018258Y043152D01*
X018294D01*
X017017Y043410D02*
X017390D01*
X016930Y044160D02*
X017410D01*
X016920Y044150D02*
X016930Y044160D01*
X016881Y041591D02*
X016920Y041630D01*
X015955Y041591D02*
X016881D01*
Y044189D02*
X016920Y044150D01*
X015955Y044189D02*
X016881D01*
X015955Y041591D02*
Y042417D01*
Y043362D02*
Y044189D01*
X016940Y041650D02*
X017400D01*
X016920Y041630D02*
X016940Y041650D01*
X017011Y042380D02*
X017430D01*
X017009Y042378D02*
X017011Y042380D01*
X018220Y042570D02*
X018490D01*
X018500Y042580D01*
X018501Y042181D02*
X018503Y042180D01*
X018501Y042181D02*
Y042579D01*
X018500Y042580D02*
X018501Y042579D01*
X018347Y041330D02*
X018360Y041343D01*
X018770D01*
X018360Y041697D02*
X018770D01*
X019230Y042930D02*
Y043201D01*
X019200Y043231D02*
X019230Y043201D01*
X020260Y042910D02*
X020534D01*
X020540Y042904D01*
X020541Y042906D01*
X020949D01*
X020950Y042907D01*
X020562Y042528D02*
X021599D01*
X020250Y042560D02*
X020530D01*
X020540Y042550D01*
X020562Y042528D01*
X021599D02*
X021617Y042510D01*
X018854Y042580D02*
X019150D01*
X018856Y042181D02*
Y042579D01*
X047615Y050300D02*
X047990D01*
X047605Y050310D02*
X047615Y050300D01*
X048570Y049710D02*
X048935D01*
X048940Y049715D01*
X049574Y051434D02*
X049620Y051480D01*
X048802Y051434D02*
X049574D01*
D171*
X026530Y026525D02*
Y027100D01*
X026523Y026518D02*
X026530Y026525D01*
X026495Y026518D02*
X026523D01*
X049634Y051992D02*
X049680Y052039D01*
X051323Y051100D02*
X051350D01*
X051300Y051077D02*
X051323Y051100D01*
X050686Y051077D02*
X051300D01*
X050660Y051051D02*
X050686Y051077D01*
X049675Y053146D02*
X049680Y053141D01*
X050550Y052014D02*
Y052705D01*
X050546Y052010D02*
X050550Y052014D01*
X049680Y052039D02*
X049694Y052024D01*
X050539D01*
X050546Y052018D01*
Y052010D02*
Y052018D01*
D172*
X024108Y018510D02*
X025070D01*
X023319Y018503D02*
X024115D01*
X023122Y018391D02*
Y019794D01*
Y018373D02*
Y018391D01*
X023144Y018413D01*
X023118Y018370D02*
X023122Y018373D01*
Y019794D02*
X023126Y019798D01*
X024108Y018510D02*
X024115Y018503D01*
X023229Y018413D02*
X023319Y018503D01*
X023144Y018413D02*
X023229D01*
X023101Y018386D02*
X023118Y018370D01*
D173*
X035237Y043022D02*
X035256Y043003D01*
X035237Y043022D02*
Y043472D01*
X035219Y043490D02*
X035237Y043472D01*
X035984Y043485D02*
X035989Y043480D01*
X035586Y043485D02*
X035984D01*
X035581Y043490D02*
X035586Y043485D01*
X035581Y043490D02*
X035607Y043516D01*
Y043904D01*
X035633Y043930D01*
Y044320D01*
X035629Y044324D02*
X035633Y044320D01*
X035629Y044324D02*
Y044717D01*
X035626Y044720D02*
X035629Y044717D01*
X035219Y043490D02*
X035223Y043494D01*
Y044326D01*
X035227Y044330D01*
Y044720D01*
X035165Y044782D02*
X035227Y044720D01*
X035165Y044782D02*
Y044955D01*
X035100Y045019D02*
X035165Y044955D01*
X035100Y045019D02*
Y045410D01*
X035297Y045063D02*
X035459Y044901D01*
Y044887D02*
Y044901D01*
Y044887D02*
X035626Y044720D01*
X035297Y045063D02*
Y045410D01*
D174*
X046670Y051180D02*
X047069D01*
X047070Y051178D01*
X048230Y051030D02*
X048336Y050924D01*
X048801D01*
X048802Y050922D01*
D175*
X043200Y018450D02*
X043220Y018470D01*
Y018910D01*
D176*
X018856Y042181D02*
X018857Y042180D01*
X019155Y041882D01*
X019463D01*
D177*
X018535Y019800D02*
D03*
D178*
X040235Y018385D02*
D03*
D179*
X051765Y052275D02*
D03*
D180*
X041050Y018410D02*
D03*
D181*
X027300Y017925D02*
D03*
D182*
X027835Y043550D02*
D03*
X027185Y043600D02*
D03*
D183*
X049215Y051985D02*
D03*
D184*
X046036Y041024D02*
D03*
X048044D02*
D03*
Y039016D02*
D03*
X046036D02*
D03*
X043174Y051304D02*
D03*
X041166D02*
D03*
Y049296D02*
D03*
X043174D02*
D03*
X044584Y038976D02*
D03*
X042576D02*
D03*
Y040984D02*
D03*
X044584D02*
D03*
D185*
X047040Y040020D02*
D03*
X042170Y050300D02*
D03*
X043580Y039980D02*
D03*
D186*
X052980Y043360D02*
D03*
D187*
Y042360D02*
D03*
Y041360D02*
D03*
X033620Y040600D02*
D03*
X032620D02*
D03*
X034620D02*
D03*
X035620D02*
D03*
X050600Y018480D02*
D03*
X030120Y038840D02*
D03*
X030090Y035840D02*
D03*
D188*
X049380Y039200D02*
D03*
X050380Y038200D02*
D03*
X049380Y037200D02*
D03*
D189*
X031620Y040600D02*
D03*
X051600Y018480D02*
D03*
X031120Y038840D02*
D03*
X031090Y035840D02*
D03*
D190*
X052830Y044913D02*
D03*
Y045760D02*
D03*
D191*
X053353Y044903D02*
D03*
X053530Y045336D02*
D03*
X052370Y045586D02*
D03*
X053353Y045769D02*
D03*
X052356Y045103D02*
D03*
D192*
X029560Y053400D02*
D03*
X026560D02*
D03*
X027560D02*
D03*
X028560D02*
D03*
X030560D02*
D03*
D193*
X015955Y044189D02*
D03*
Y041591D02*
D03*
D194*
X017790Y036720D02*
D03*
D195*
X019030Y034830D02*
D03*
D196*
X020172Y036720D02*
D03*
D197*
X052170Y023440D02*
D03*
Y033283D02*
D03*
X042327D02*
D03*
Y023440D02*
D03*
D198*
X046225Y019306D02*
D03*
X047225D02*
D03*
X048225D02*
D03*
D199*
X017346Y048268D02*
D03*
X017944Y051320D02*
D03*
Y047304D02*
D03*
X017346Y052284D02*
D03*
D200*
X021775Y049544D02*
D03*
X022775Y050044D02*
D03*
Y049044D02*
D03*
X021775Y050544D02*
D03*
Y048544D02*
D03*
X022775Y051044D02*
D03*
Y048044D02*
D03*
X021775Y051544D02*
D03*
D201*
X020476Y046694D02*
D03*
Y052894D02*
D03*
D202*
X019275Y047544D02*
D03*
Y052044D02*
D03*
D203*
X027630Y017740D02*
D03*
X027210Y017940D02*
D03*
X027420D02*
D03*
Y018150D02*
D03*
X027730Y043240D02*
D03*
Y043440D02*
D03*
X027950Y043240D02*
D03*
Y043650D02*
D03*
Y043440D02*
D03*
X027220Y017740D02*
D03*
X027430D02*
D03*
X036870Y020440D02*
D03*
X037620Y020450D02*
D03*
X039140Y018050D02*
D03*
X038340Y018060D02*
D03*
X039950Y018484D02*
D03*
X029160Y048810D02*
D03*
X029270Y046550D02*
D03*
X028421Y043721D02*
D03*
X028640Y049072D02*
D03*
X028410Y047240D02*
D03*
X023810Y039920D02*
D03*
X038570Y047660D02*
D03*
X038940Y048290D02*
D03*
X039250Y048640D02*
D03*
X039150Y047650D02*
D03*
X039590Y048270D02*
D03*
X040230Y048890D02*
D03*
X040200Y049530D02*
D03*
X039760Y050310D02*
D03*
X040490Y050020D02*
D03*
X040480Y050540D02*
D03*
X046520Y041880D02*
D03*
X047410Y041640D02*
D03*
X047390Y042400D02*
D03*
X046520Y042810D02*
D03*
X046020Y043180D02*
D03*
X045380Y043730D02*
D03*
X044030Y045040D02*
D03*
X043130Y045280D02*
D03*
X042350Y045300D02*
D03*
X041630Y045280D02*
D03*
X040670Y045270D02*
D03*
X039700Y045310D02*
D03*
X039100Y045890D02*
D03*
X038260Y046140D02*
D03*
X038340Y046710D02*
D03*
X037880Y046810D02*
D03*
X037360Y046800D02*
D03*
X046620Y043440D02*
D03*
X046090Y043930D02*
D03*
X045551Y044454D02*
D03*
X044920Y045100D02*
D03*
X044290Y045770D02*
D03*
X043540Y045920D02*
D03*
X042820Y045910D02*
D03*
X041950Y045920D02*
D03*
X041161Y045896D02*
D03*
X040230Y045880D02*
D03*
X040520Y052880D02*
D03*
X040060Y048440D02*
D03*
X030530Y052332D02*
D03*
X028460Y052175D02*
D03*
X029250Y046930D02*
D03*
X037090Y045830D02*
D03*
X034107Y045919D02*
D03*
X038430Y042500D02*
D03*
X031790Y041570D02*
D03*
X033740Y042800D02*
D03*
X037920Y042240D02*
D03*
X029486Y045858D02*
D03*
X037700Y042400D02*
D03*
X030260Y046260D02*
D03*
X030160Y047444D02*
D03*
X030185Y047691D02*
D03*
X038670Y038220D02*
D03*
X030180Y046950D02*
D03*
X040390Y046432D02*
D03*
X040460Y047400D02*
D03*
X039870Y047440D02*
D03*
X040750Y046810D02*
D03*
X051400Y039150D02*
D03*
X051702Y041780D02*
D03*
X038580Y050130D02*
D03*
X032990Y052440D02*
D03*
X032090Y051960D02*
D03*
X034620Y050510D02*
D03*
X035240Y050210D02*
D03*
X034150Y044860D02*
D03*
X039640Y049100D02*
D03*
X039010Y051940D02*
D03*
X037580Y053140D02*
D03*
X037920Y051930D02*
D03*
X039620Y053410D02*
D03*
X039250Y053400D02*
D03*
X039280Y052770D02*
D03*
X040040Y052790D02*
D03*
X039660D02*
D03*
X039670Y051890D02*
D03*
X034590Y041840D02*
D03*
X032097Y043020D02*
D03*
X032695Y042995D02*
D03*
X035641Y042441D02*
D03*
X037360Y043060D02*
D03*
X037930Y042830D02*
D03*
X038920Y039620D02*
D03*
X038840Y042650D02*
D03*
X038870Y043020D02*
D03*
X038860Y040800D02*
D03*
X038920Y039290D02*
D03*
X039140Y037160D02*
D03*
X041200Y036980D02*
D03*
X041170Y040310D02*
D03*
X040710Y038190D02*
D03*
X041180Y038990D02*
D03*
X040720Y041340D02*
D03*
X041200Y042090D02*
D03*
X038090Y038570D02*
D03*
X037690Y038580D02*
D03*
X037310Y038560D02*
D03*
X036900Y038550D02*
D03*
X037147Y039480D02*
D03*
X037450Y039390D02*
D03*
X037727Y039400D02*
D03*
X037960Y039481D02*
D03*
X030140Y049848D02*
D03*
X032737Y043840D02*
D03*
X033650Y048440D02*
D03*
X033990Y048670D02*
D03*
X034700Y049960D02*
D03*
X034330Y049630D02*
D03*
X035900Y049240D02*
D03*
X029900Y049270D02*
D03*
X035600Y049452D02*
D03*
X029640Y049500D02*
D03*
X027840Y049866D02*
D03*
X028680Y049900D02*
D03*
X037770Y048730D02*
D03*
X036069Y050981D02*
D03*
X031130Y052180D02*
D03*
X035160Y052110D02*
D03*
X035900Y052100D02*
D03*
X030180Y046550D02*
D03*
X029883Y045867D02*
D03*
X028710Y050697D02*
D03*
X028666Y051094D02*
D03*
X027900Y051390D02*
D03*
X031120Y052540D02*
D03*
X029270Y047320D02*
D03*
X029280Y047720D02*
D03*
X031566Y051907D02*
D03*
X037770Y051050D02*
D03*
X037440Y051040D02*
D03*
X037216Y050556D02*
D03*
X037770Y045950D02*
D03*
X037400Y045990D02*
D03*
X033130Y045820D02*
D03*
X032590Y044280D02*
D03*
X032600Y044630D02*
D03*
X023098Y017303D02*
D03*
X018510Y020260D02*
D03*
Y020020D02*
D03*
Y019800D02*
D03*
Y019580D02*
D03*
Y019340D02*
D03*
X018760Y019350D02*
D03*
Y019590D02*
D03*
Y019810D02*
D03*
Y020030D02*
D03*
Y020270D02*
D03*
X044760Y044340D02*
D03*
X047940Y045930D02*
D03*
X047820Y043190D02*
D03*
X050720Y041930D02*
D03*
X052120Y042730D02*
D03*
X053420Y046860D02*
D03*
X052270Y046230D02*
D03*
X051880Y045530D02*
D03*
X051740Y044690D02*
D03*
X053630Y044450D02*
D03*
X053800Y046620D02*
D03*
X054400Y044800D02*
D03*
X024590Y048950D02*
D03*
X023730Y049100D02*
D03*
X048650Y052660D02*
D03*
X049760Y050450D02*
D03*
X049500Y049490D02*
D03*
X048030Y049580D02*
D03*
X046140Y049570D02*
D03*
X045150Y048950D02*
D03*
X044220Y048020D02*
D03*
X047180Y043510D02*
D03*
X050080Y040990D02*
D03*
X050670Y039690D02*
D03*
X051030Y039670D02*
D03*
X052000Y040890D02*
D03*
X052020Y042380D02*
D03*
X050895Y044810D02*
D03*
X040370Y018490D02*
D03*
Y018290D02*
D03*
X040160Y018490D02*
D03*
Y018290D02*
D03*
X041600Y018550D02*
D03*
Y019010D02*
D03*
X041920D02*
D03*
X041600Y018300D02*
D03*
X041920Y018550D02*
D03*
X041600Y018780D02*
D03*
X041920Y018300D02*
D03*
X050070Y048040D02*
D03*
X054240Y046380D02*
D03*
X052400Y047800D02*
D03*
X042450Y042579D02*
D03*
X042430Y043629D02*
D03*
X040305Y043590D02*
D03*
X053430Y047860D02*
D03*
X053050Y047830D02*
D03*
X049030Y045530D02*
D03*
Y047170D02*
D03*
X048410Y043720D02*
D03*
X048010Y043710D02*
D03*
X052080Y048510D02*
D03*
X025700Y041520D02*
D03*
X025300Y042020D02*
D03*
X025450Y053010D02*
D03*
X025700Y053260D02*
D03*
X026700Y052030D02*
D03*
X025540Y051710D02*
D03*
X025053Y051680D02*
D03*
X026569Y051091D02*
D03*
X026150Y051060D02*
D03*
X036780Y042660D02*
D03*
X036770Y042990D02*
D03*
X034873Y044057D02*
D03*
X036306Y044309D02*
D03*
X020050Y042310D02*
D03*
X039950Y018290D02*
D03*
X040570Y018830D02*
D03*
X041920Y018780D02*
D03*
X027620Y018150D02*
D03*
X027210D02*
D03*
X027620Y017940D02*
D03*
X051290Y053650D02*
D03*
X050550Y053640D02*
D03*
X049500Y053580D02*
D03*
X049880Y053590D02*
D03*
X048070Y048660D02*
D03*
X046710Y048260D02*
D03*
X046720Y047850D02*
D03*
X034777Y042840D02*
D03*
X026930Y050890D02*
D03*
X026340Y050830D02*
D03*
X045170Y053840D02*
D03*
X044790Y053830D02*
D03*
X045980Y053580D02*
D03*
X047950Y051450D02*
D03*
Y051200D02*
D03*
X048170D02*
D03*
X045190Y051680D02*
D03*
Y051450D02*
D03*
Y051220D02*
D03*
Y050970D02*
D03*
X045510Y051680D02*
D03*
Y051450D02*
D03*
Y051220D02*
D03*
Y050970D02*
D03*
X044540Y051680D02*
D03*
Y051450D02*
D03*
Y051220D02*
D03*
X044860Y051680D02*
D03*
Y051450D02*
D03*
Y051220D02*
D03*
Y050970D02*
D03*
X028470Y027950D02*
D03*
Y027720D02*
D03*
Y027490D02*
D03*
Y027240D02*
D03*
X028790Y027950D02*
D03*
Y027720D02*
D03*
Y027490D02*
D03*
Y027240D02*
D03*
X029070Y027950D02*
D03*
Y027720D02*
D03*
Y027490D02*
D03*
Y027240D02*
D03*
X029390Y027950D02*
D03*
Y027720D02*
D03*
Y027490D02*
D03*
Y027240D02*
D03*
X051630Y052220D02*
D03*
Y051990D02*
D03*
X051860Y052220D02*
D03*
Y051990D02*
D03*
X051620Y052680D02*
D03*
Y052450D02*
D03*
X051850Y052680D02*
D03*
Y052450D02*
D03*
X052070Y052210D02*
D03*
Y051980D02*
D03*
X052300Y052210D02*
D03*
Y051980D02*
D03*
X052070Y052680D02*
D03*
Y052450D02*
D03*
X052300Y052680D02*
D03*
Y052450D02*
D03*
X035730Y017660D02*
D03*
X035450Y017650D02*
D03*
X035190Y017660D02*
D03*
X034940Y017650D02*
D03*
X031780Y016640D02*
D03*
X032110Y016660D02*
D03*
X030505Y016815D02*
D03*
X029675Y016845D02*
D03*
X048170Y051450D02*
D03*
Y051680D02*
D03*
Y051910D02*
D03*
X047950Y051680D02*
D03*
Y051910D02*
D03*
X047720Y051200D02*
D03*
Y051450D02*
D03*
Y051680D02*
D03*
Y051910D02*
D03*
X026900Y045030D02*
D03*
X027150D02*
D03*
X027380D02*
D03*
X027610D02*
D03*
X027620Y045390D02*
D03*
X027390D02*
D03*
X027160D02*
D03*
X026910D02*
D03*
X027260Y046150D02*
D03*
X028200Y046100D02*
D03*
X026250Y044060D02*
D03*
X027730Y043650D02*
D03*
X027525Y052015D02*
D03*
X027125Y052005D02*
D03*
X024180Y046050D02*
D03*
Y047030D02*
D03*
X023560Y052640D02*
D03*
X024634Y052644D02*
D03*
X024646Y053044D02*
D03*
X023684D02*
D03*
X026340Y048560D02*
D03*
X026140Y048720D02*
D03*
X025125Y052595D02*
D03*
X025575Y052605D02*
D03*
X025475Y048575D02*
D03*
X023880Y049770D02*
D03*
X023190Y049550D02*
D03*
X028210Y026520D02*
D03*
X028240Y025770D02*
D03*
X028150Y025050D02*
D03*
X028160Y024680D02*
D03*
X027300Y043290D02*
D03*
X027080D02*
D03*
X027300Y043490D02*
D03*
X027080D02*
D03*
Y043700D02*
D03*
X027300D02*
D03*
X024520Y051230D02*
D03*
X024697Y048489D02*
D03*
X024260Y049850D02*
D03*
X024680Y047660D02*
D03*
X025070Y047670D02*
D03*
X025470Y047660D02*
D03*
X025880Y047680D02*
D03*
X027960Y047060D02*
D03*
X025670Y047040D02*
D03*
X027440Y048110D02*
D03*
X028680Y048710D02*
D03*
X028690Y050300D02*
D03*
X036656Y043479D02*
D03*
X022210Y034660D02*
D03*
X021910Y034650D02*
D03*
X021620Y034670D02*
D03*
X022140Y033830D02*
D03*
X023708Y017805D02*
D03*
X021400Y017670D02*
D03*
X033640Y021660D02*
D03*
X033310Y021650D02*
D03*
X032950Y021660D02*
D03*
X033640Y021990D02*
D03*
X033310D02*
D03*
X032950D02*
D03*
X033490Y019440D02*
D03*
X031980Y020370D02*
D03*
X041070Y017810D02*
D03*
X043510Y017450D02*
D03*
X042850D02*
D03*
X041100Y019420D02*
D03*
X043550Y019310D02*
D03*
X033500Y020870D02*
D03*
X034710Y020350D02*
D03*
X034120Y023750D02*
D03*
X033750D02*
D03*
X033340Y023730D02*
D03*
X033110Y022740D02*
D03*
X049980Y045220D02*
D03*
X049550Y043070D02*
D03*
X049870Y043620D02*
D03*
X049880Y044220D02*
D03*
X017390Y043410D02*
D03*
X021060Y041100D02*
D03*
X021050Y042020D02*
D03*
X024810Y043210D02*
D03*
X024830Y042270D02*
D03*
X023810Y040680D02*
D03*
X021620Y040650D02*
D03*
X018060Y041330D02*
D03*
X018010Y041720D02*
D03*
X018240Y042910D02*
D03*
X017410Y044160D02*
D03*
X017400Y041650D02*
D03*
X017430Y042380D02*
D03*
X018220Y042570D02*
D03*
X019230Y042930D02*
D03*
X020260Y042910D02*
D03*
X020250Y042560D02*
D03*
X019150Y042580D02*
D03*
X018190Y040910D02*
D03*
X019790Y041550D02*
D03*
X020100Y041560D02*
D03*
X020110Y041220D02*
D03*
X019780Y041230D02*
D03*
X019660Y040370D02*
D03*
X047990Y050300D02*
D03*
X048570Y049710D02*
D03*
X049620Y051480D02*
D03*
D204*
X026194Y049556D02*
D03*
Y050028D02*
D03*
X026666Y049556D02*
D03*
X026666Y050028D02*
D03*
X026430Y049792D02*
D03*
D205*
X051350Y051100D02*
D03*
M02*
