G04*
G04 #@! TF.GenerationSoftware,Altium Limited,Altium Designer,22.2.1 (43)*
G04*
G04 Layer_Physical_Order=2*
G04 Layer_Color=16711680*
%FSAX24Y24*%
%MOIN*%
G70*
G04*
G04 #@! TF.SameCoordinates,E8211669-D0EB-40F5-9659-E9546459CE39*
G04*
G04*
G04 #@! TF.FilePolarity,Positive*
G04*
G01*
G75*
%ADD39C,0.0394*%
%ADD40C,0.0591*%
%ADD41R,0.0591X0.0591*%
G36*
X026969Y018307D02*
X019488D01*
Y025787D01*
X026969D01*
Y018307D01*
D02*
G37*
%LPC*%
G36*
X021325Y025178D02*
X021195D01*
X021070Y025145D01*
X020957Y025080D01*
X020865Y024988D01*
X020800Y024875D01*
X020767Y024750D01*
Y024620D01*
X020800Y024495D01*
X020865Y024382D01*
X020957Y024290D01*
X021070Y024226D01*
X021195Y024192D01*
X021325D01*
X021450Y024226D01*
X021563Y024290D01*
X021654Y024382D01*
X021719Y024495D01*
X021753Y024620D01*
Y024750D01*
X021719Y024875D01*
X021654Y024988D01*
X021563Y025080D01*
X021450Y025145D01*
X021325Y025178D01*
D02*
G37*
G36*
X026773Y024230D02*
X026428D01*
Y023885D01*
X026773D01*
Y024230D01*
D02*
G37*
G36*
X026328D02*
X025983D01*
Y023885D01*
X026328D01*
Y024230D01*
D02*
G37*
G36*
X026773Y023785D02*
X026428D01*
Y023439D01*
X026773D01*
Y023785D01*
D02*
G37*
G36*
X026328D02*
X025983D01*
Y023439D01*
X026328D01*
Y023785D01*
D02*
G37*
G36*
X026425Y023190D02*
X026331D01*
X026241Y023166D01*
X026160Y023119D01*
X026094Y023053D01*
X026047Y022972D01*
X026023Y022881D01*
Y022788D01*
X026047Y022698D01*
X026094Y022617D01*
X026160Y022550D01*
X026241Y022504D01*
X026331Y022479D01*
X026425D01*
X026515Y022504D01*
X026596Y022550D01*
X026662Y022617D01*
X026709Y022698D01*
X026733Y022788D01*
Y022881D01*
X026709Y022972D01*
X026662Y023053D01*
X026596Y023119D01*
X026515Y023166D01*
X026425Y023190D01*
D02*
G37*
G36*
X026430Y022230D02*
X026428D01*
Y021885D01*
X026773D01*
Y021887D01*
X026746Y021987D01*
X026694Y022077D01*
X026621Y022151D01*
X026531Y022203D01*
X026430Y022230D01*
D02*
G37*
G36*
X026328D02*
X026326D01*
X026225Y022203D01*
X026135Y022151D01*
X026062Y022077D01*
X026010Y021987D01*
X025983Y021887D01*
Y021885D01*
X026328D01*
Y022230D01*
D02*
G37*
G36*
X020802Y022304D02*
X020734D01*
X020669Y022287D01*
X020610Y022253D01*
X020562Y022205D01*
X020528Y022146D01*
X020511Y022081D01*
Y022013D01*
X020528Y021948D01*
X020562Y021890D01*
X020610Y021842D01*
X020669Y021808D01*
X020734Y021790D01*
X020802D01*
X020867Y021808D01*
X020925Y021842D01*
X020973Y021890D01*
X021007Y021948D01*
X021025Y022013D01*
Y022081D01*
X021007Y022146D01*
X020973Y022205D01*
X020925Y022253D01*
X020867Y022287D01*
X020802Y022304D01*
D02*
G37*
G36*
X024131Y024490D02*
X022514D01*
X022441Y024409D01*
X020866Y022835D01*
Y022441D01*
X021063Y022244D01*
X023228D01*
X023724Y021748D01*
X024913D01*
Y022113D01*
Y022244D01*
X024213D01*
X024131Y022326D01*
Y023280D01*
X024336Y023485D01*
Y024285D01*
X024131Y024490D01*
D02*
G37*
G36*
X021310Y021849D02*
Y021605D01*
X021554D01*
X021536Y021670D01*
X021497Y021737D01*
X021442Y021793D01*
X021374Y021832D01*
X021310Y021849D01*
D02*
G37*
G36*
X021210D02*
X021145Y021832D01*
X021078Y021793D01*
X021022Y021737D01*
X020983Y021670D01*
X020966Y021605D01*
X021210D01*
Y021849D01*
D02*
G37*
G36*
X026773Y021785D02*
X026428D01*
Y021439D01*
X026430D01*
X026531Y021466D01*
X026621Y021518D01*
X026694Y021592D01*
X026746Y021682D01*
X026773Y021783D01*
Y021785D01*
D02*
G37*
G36*
X026328D02*
X025983D01*
Y021783D01*
X026010Y021682D01*
X026062Y021592D01*
X026135Y021518D01*
X026225Y021466D01*
X026326Y021439D01*
X026328D01*
Y021785D01*
D02*
G37*
G36*
X021554Y021505D02*
X021310D01*
Y021261D01*
X021374Y021279D01*
X021442Y021318D01*
X021497Y021373D01*
X021536Y021441D01*
X021554Y021505D01*
D02*
G37*
G36*
X021210D02*
X020966D01*
X020983Y021441D01*
X021022Y021373D01*
X021078Y021318D01*
X021145Y021279D01*
X021210Y021261D01*
Y021505D01*
D02*
G37*
G36*
X026425Y021190D02*
X026331D01*
X026241Y021166D01*
X026160Y021119D01*
X026094Y021053D01*
X026047Y020972D01*
X026023Y020881D01*
Y020788D01*
X026047Y020698D01*
X026094Y020617D01*
X026160Y020550D01*
X026241Y020504D01*
X026331Y020479D01*
X026425D01*
X026515Y020504D01*
X026596Y020550D01*
X026662Y020617D01*
X026709Y020698D01*
X026733Y020788D01*
Y020881D01*
X026709Y020972D01*
X026662Y021053D01*
X026596Y021119D01*
X026515Y021166D01*
X026425Y021190D01*
D02*
G37*
G36*
X021325Y019903D02*
X021195D01*
X021070Y019869D01*
X020957Y019804D01*
X020865Y019712D01*
X020800Y019600D01*
X020767Y019474D01*
Y019345D01*
X020800Y019219D01*
X020865Y019107D01*
X020957Y019015D01*
X021070Y018950D01*
X021195Y018916D01*
X021325D01*
X021450Y018950D01*
X021563Y019015D01*
X021654Y019107D01*
X021719Y019219D01*
X021753Y019345D01*
Y019474D01*
X021719Y019600D01*
X021654Y019712D01*
X021563Y019804D01*
X021450Y019869D01*
X021325Y019903D01*
D02*
G37*
%LPD*%
D39*
X021260Y021555D02*
D03*
X020768Y022047D02*
D03*
X021260Y022539D02*
D03*
X023953Y019468D02*
D03*
X022560Y019450D02*
D03*
X021404Y020256D02*
D03*
X022434Y020489D02*
D03*
X021850Y021063D02*
D03*
X021693Y021961D02*
D03*
X020971Y023694D02*
D03*
X022718Y024980D02*
D03*
X023622Y025000D02*
D03*
X024606Y024606D02*
D03*
X025394Y024016D02*
D03*
X023827Y021476D02*
D03*
X026746Y019294D02*
D03*
X020216Y020330D02*
D03*
X020277Y022823D02*
D03*
X024871Y019072D02*
D03*
X024316Y020670D02*
D03*
D40*
X026378Y020835D02*
D03*
Y021835D02*
D03*
Y022835D02*
D03*
D41*
Y023835D02*
D03*
M02*
