G04*
G04 #@! TF.GenerationSoftware,Altium Limited,Altium Designer,22.2.1 (43)*
G04*
G04 Layer_Color=16711935*
%FSAX24Y24*%
%MOIN*%
G70*
G04*
G04 #@! TF.SameCoordinates,E8211669-D0EB-40F5-9659-E9546459CE39*
G04*
G04*
G04 #@! TF.FilePolarity,Positive*
G04*
G01*
G75*
%ADD42C,0.0039*%
%ADD43C,0.0005*%
%ADD44C,0.0005*%
%ADD45C,0.0003*%
G36*
X202677Y253641D02*
X201427Y253841D01*
X202677Y254041D01*
Y253641D01*
D02*
G37*
G36*
X192765Y253841D02*
X191515Y253641D01*
Y254041D01*
X192765Y253841D01*
D02*
G37*
G36*
X202677Y252056D02*
X201427Y252256D01*
X202677Y252456D01*
Y252056D01*
D02*
G37*
G36*
X172816Y249417D02*
X171997Y248451D01*
X172473Y249624D01*
X172816Y249417D01*
D02*
G37*
G36*
X173317Y243827D02*
X172273Y243112D01*
X173042Y244117D01*
X173317Y243827D01*
D02*
G37*
G36*
X174877Y239540D02*
X174601Y239250D01*
X173832Y240255D01*
X174877Y239540D01*
D02*
G37*
G36*
X209370Y232400D02*
X208120Y232600D01*
X209370Y232800D01*
Y232400D01*
D02*
G37*
G36*
X206545Y232600D02*
X205295Y232400D01*
Y232800D01*
X206545Y232600D01*
D02*
G37*
G36*
X207795Y228444D02*
X206545Y228644D01*
X207795Y228844D01*
Y228444D01*
D02*
G37*
G36*
X201427Y228644D02*
X200177Y228444D01*
Y228844D01*
X201427Y228644D01*
D02*
G37*
G36*
X212372Y252256D02*
X211122Y252056D01*
Y252456D01*
X212372Y252256D01*
D02*
G37*
G36*
X230100Y249090D02*
X229322Y250088D01*
X229672Y250281D01*
X230100Y249090D01*
D02*
G37*
G36*
X250446Y248654D02*
X250046D01*
X250246Y249904D01*
X250446Y248654D01*
D02*
G37*
G36*
X244380Y247718D02*
X243980D01*
X244180Y248968D01*
X244380Y247718D01*
D02*
G37*
G36*
X238635Y246461D02*
X238235D01*
X238435Y247711D01*
X238635Y246461D01*
D02*
G37*
G36*
X238435Y237136D02*
X238235Y238386D01*
X238635D01*
X238435Y237136D01*
D02*
G37*
G36*
X244180Y235878D02*
X243980Y237128D01*
X244380D01*
X244180Y235878D01*
D02*
G37*
G36*
X250246Y234943D02*
X250046Y236193D01*
X250446D01*
X250246Y234943D01*
D02*
G37*
G36*
X235733Y230806D02*
X234483Y231006D01*
X235733Y231206D01*
Y230806D01*
D02*
G37*
G36*
X227239Y231006D02*
X225989Y230806D01*
Y231206D01*
X227239Y231006D01*
D02*
G37*
D42*
X021693Y024685D02*
G03*
X021693Y024685I-000433J000000D01*
G01*
Y019409D02*
G03*
X021693Y019409I-000433J000000D01*
G01*
D43*
X248265Y262042D02*
G03*
X248730Y261268I001378J000301D01*
G01*
X247938Y262041D02*
G03*
X248825Y260920I001163J000009D01*
G01*
X247521Y261814D02*
G03*
X248822Y260307I002148J000539D01*
G01*
X243553Y264606D02*
G03*
X244120Y265964I-000598J001047D01*
G01*
X248257Y270723D02*
G03*
X248730Y269903I001381J000250D01*
G01*
X245004Y265729D02*
G03*
X244430Y264935I000108J-000682D01*
G01*
X245543Y263007D02*
G03*
X246517Y263107I000436J000544D01*
G01*
X248003Y270979D02*
G03*
X248825Y269555I001044J-000347D01*
G01*
X248707Y262794D02*
G03*
X248791Y263054I-001656J000680D01*
G01*
Y263054D02*
G03*
X248844Y263672I-002368J000514D01*
G01*
D02*
G03*
X248747Y264373I-003624J-000142D01*
G01*
D02*
G03*
X247666Y266493I-005069J-001249D01*
G01*
D02*
G03*
X247119Y267045I-003569J-002991D01*
G01*
Y267045D02*
G03*
X246535Y267452I-002327J-002717D01*
G01*
X246535Y267452D02*
G03*
X245952Y267685I-001181J-002104D01*
G01*
D02*
G03*
X244939Y267579I-000378J-001291D01*
G01*
X247470Y271283D02*
G03*
X248822Y268941I002197J-000293D01*
G01*
X248173Y262222D02*
G03*
X248240Y262259I-001294J002472D01*
G01*
Y262259D02*
G03*
X248305Y262299I-000455J000815D01*
G01*
D02*
G03*
X248367Y262345I-000501J000737D01*
G01*
X248367Y262345D02*
G03*
X248533Y262511I-000712J000875D01*
G01*
Y262511D02*
G03*
X248581Y262576I-001008J000813D01*
G01*
X248581Y262576D02*
G03*
X248627Y262644I-001014J000720D01*
G01*
X248627D02*
G03*
X248707Y262794I-001549J000925D01*
G01*
D02*
G03*
X248835Y263407I-001844J000705D01*
G01*
X248835D02*
G03*
X248789Y264137I-003175J000167D01*
G01*
D02*
G03*
X247702Y266440I-005037J-000969D01*
G01*
X247702D02*
G03*
X247113Y267042I-003634J-002967D01*
G01*
Y267042D02*
G03*
X246482Y267474I-002297J-002677D01*
G01*
X246482D02*
G03*
X245855Y267702I-001090J-002020D01*
G01*
D02*
G03*
X244803Y267489I-000298J-001230D01*
G01*
X244060Y265949D02*
G03*
X243876Y265865I000286J-000869D01*
G01*
X244303Y265906D02*
G03*
X244060Y265949I-000151J-000146D01*
G01*
X244363Y265773D02*
G03*
X244303Y265906I-000314J-000061D01*
G01*
X244382Y265572D02*
G03*
X244363Y265773I-000894J000014D01*
G01*
X244303Y265054D02*
G03*
X244382Y265572I-001823J000545D01*
G01*
X244203Y264795D02*
G03*
X244303Y265054I-001441J000708D01*
G01*
X243876Y264419D02*
G03*
X244203Y264795I-000465J000732D01*
G01*
X247948Y262045D02*
G03*
X248345Y262451I-000549J000933D01*
G01*
Y262451D02*
G03*
X248546Y263084I-001496J000825D01*
G01*
D02*
G03*
X248532Y263880I-002910J000345D01*
G01*
D02*
G03*
X247302Y266431I-005042J-000859D01*
G01*
Y266431D02*
G03*
X246625Y267055I-003294J-002899D01*
G01*
D02*
G03*
X245915Y267449I-001794J-002392D01*
G01*
D02*
G03*
X244660Y267419I-000596J-001321D01*
G01*
X247801Y261974D02*
G03*
X248265Y262334I-000369J000954D01*
G01*
D02*
G03*
X248521Y262958I-001255J000880D01*
G01*
D02*
G03*
X248539Y263778I-002685J000469D01*
G01*
X248539D02*
G03*
X247266Y266462I-005024J-000739D01*
G01*
X247266D02*
G03*
X246547Y267103I-003197J-002862D01*
G01*
D02*
G03*
X245799Y267484I-001633J-002280D01*
G01*
Y267484D02*
G03*
X244525Y267328I-000493J-001251D01*
G01*
X247670Y261884D02*
G03*
X248066Y262290I-000549J000933D01*
G01*
X248066Y262290D02*
G03*
X248268Y262923I-001496J000825D01*
G01*
X248268D02*
G03*
X248254Y263719I-002910J000345D01*
G01*
D02*
G03*
X247024Y266271I-005042J-000859D01*
G01*
X247024Y266271D02*
G03*
X246347Y266894I-003294J-002899D01*
G01*
X246347D02*
G03*
X245637Y267289I-001794J-002392D01*
G01*
D02*
G03*
X244382Y267258I-000596J-001321D01*
G01*
X247523Y261813D02*
G03*
X247987Y262173I-000369J000954D01*
G01*
X247987Y262173D02*
G03*
X248243Y262798I-001255J000880D01*
G01*
X248243Y262798D02*
G03*
X248261Y263617I-002685J000469D01*
G01*
X248261D02*
G03*
X246988Y266301I-005024J-000739D01*
G01*
X246988D02*
G03*
X246269Y266942I-003197J-002862D01*
G01*
X246269Y266942D02*
G03*
X245521Y267324I-001633J-002280D01*
G01*
X245521D02*
G03*
X244246Y267167I-000493J-001251D01*
G01*
X247392Y261723D02*
G03*
X247788Y262130I-000549J000933D01*
G01*
D02*
G03*
X247990Y262762I-001496J000825D01*
G01*
D02*
G03*
X247975Y263559I-002910J000345D01*
G01*
D02*
G03*
X246745Y266110I-005042J-000859D01*
G01*
Y266110D02*
G03*
X246068Y266733I-003294J-002899D01*
G01*
D02*
G03*
X245358Y267128I-001794J-002392D01*
G01*
D02*
G03*
X244104Y267097I-000596J-001321D01*
G01*
X247245Y261653D02*
G03*
X247708Y262012I-000369J000954D01*
G01*
D02*
G03*
X247965Y262637I-001255J000880D01*
G01*
D02*
G03*
X247983Y263456I-002685J000469D01*
G01*
X247983D02*
G03*
X246709Y266141I-005024J-000739D01*
G01*
X246709D02*
G03*
X245990Y266782I-003197J-002862D01*
G01*
D02*
G03*
X245242Y267163I-001633J-002280D01*
G01*
Y267163D02*
G03*
X243968Y267006I-000493J-001251D01*
G01*
X247113Y261563D02*
G03*
X247510Y261969I-000549J000933D01*
G01*
X247510Y261969D02*
G03*
X247711Y262602I-001496J000825D01*
G01*
X247711Y262602D02*
G03*
X247697Y263398I-002910J000345D01*
G01*
D02*
G03*
X246467Y265949I-005042J-000859D01*
G01*
X246467D02*
G03*
X245790Y266572I-003294J-002899D01*
G01*
X245790D02*
G03*
X245080Y266967I-001794J-002392D01*
G01*
Y266967D02*
G03*
X243825Y266937I-000596J-001321D01*
G01*
X246966Y261492D02*
G03*
X247430Y261852I-000369J000954D01*
G01*
D02*
G03*
X247686Y262476I-001255J000880D01*
G01*
X247686D02*
G03*
X247704Y263295I-002685J000469D01*
G01*
D02*
G03*
X246431Y265980I-005024J-000739D01*
G01*
D02*
G03*
X245712Y266621I-003197J-002862D01*
G01*
D02*
G03*
X244964Y267002I-001633J-002280D01*
G01*
Y267002D02*
G03*
X243689Y266846I-000493J-001251D01*
G01*
X246835Y261402D02*
G03*
X247231Y261808I-000549J000933D01*
G01*
Y261808D02*
G03*
X247433Y262441I-001496J000825D01*
G01*
D02*
G03*
X247418Y263237I-002910J000345D01*
G01*
D02*
G03*
X246188Y265789I-005042J-000859D01*
G01*
Y265789D02*
G03*
X245512Y266412I-003294J-002899D01*
G01*
D02*
G03*
X244802Y266806I-001794J-002392D01*
G01*
D02*
G03*
X243547Y266776I-000596J-001321D01*
G01*
X246600Y261305D02*
G03*
X247116Y261645I-000258J000952D01*
G01*
D02*
G03*
X247403Y262290I-001170J000906D01*
G01*
X247403D02*
G03*
X247423Y263157I-002672J000497D01*
G01*
D02*
G03*
X246686Y265117I-004827J-000697D01*
G01*
Y265117D02*
G03*
X246012Y265968I-004364J-002764D01*
G01*
D02*
G03*
X245236Y266588I-002843J-002762D01*
G01*
D02*
G03*
X244450Y266901I-001267J-002042D01*
G01*
X244450D02*
G03*
X243213Y266487I-000293J-001180D01*
G01*
X245166Y261334D02*
G03*
X246023Y261120I000855J001604D01*
G01*
D02*
G03*
X246702Y261381I-000015J001053D01*
G01*
X246702Y261381D02*
G03*
X247095Y262073I-000914J000976D01*
G01*
X247095Y262073D02*
G03*
X247127Y263080I-002597J000587D01*
G01*
D02*
G03*
X246145Y265328I-004868J-000788D01*
G01*
X246145D02*
G03*
X245292Y266179I-003506J-002665D01*
G01*
D02*
G03*
X244380Y266633I-001598J-002066D01*
G01*
D02*
G03*
X243006Y266095I-000366J-001090D01*
G01*
X244843Y261516D02*
G03*
X245217Y261339I001055J001742D01*
G01*
Y261339D02*
G03*
X245576Y261252I000565J001549D01*
G01*
D02*
G03*
X246447Y261534I000161J000989D01*
G01*
X246447Y261534D02*
G03*
X246636Y261798I-000804J000773D01*
G01*
Y261798D02*
G03*
X246759Y262135I-001318J000673D01*
G01*
Y262135D02*
G03*
X246812Y262532I-002010J000472D01*
G01*
X246812Y262532D02*
G03*
X246704Y263449I-003192J000088D01*
G01*
X246830Y262961D02*
G03*
X246704Y263449I-003698J-000698D01*
G01*
X246881Y262502D02*
G03*
X246830Y262961I-002929J-000092D01*
G01*
X246854Y262090D02*
G03*
X246881Y262502I-002080J000343D01*
G01*
X246750Y261740D02*
G03*
X246854Y262090I-001334J000585D01*
G01*
X246576Y261464D02*
G03*
X246750Y261740I-000839J000723D01*
G01*
X246343Y261272D02*
G03*
X246576Y261464I-000447J000780D01*
G01*
X246060Y261170D02*
G03*
X246343Y261272I-000158J000882D01*
G01*
X245735Y261161D02*
G03*
X246060Y261170I000131J001111D01*
G01*
X245007Y261420D02*
G03*
X245735Y261161I000985J001617D01*
G01*
X245014Y261415D02*
G03*
X245166Y261334I001419J002455D01*
G01*
X242920Y265796D02*
G03*
X242888Y265669I005077J-001330D01*
G01*
X242955Y265924D02*
G03*
X242920Y265796I005716J-001634D01*
G01*
X243006Y266095D02*
G03*
X242955Y265924I006484J-002041D01*
G01*
X245655Y261155D02*
G03*
X250304Y258739I005012J003964D01*
G01*
X248856Y260602D02*
G03*
X248295Y262042I-002414J-000111D01*
G01*
X249494Y262527D02*
G03*
X250220Y264132I-001016J001426D01*
G01*
X251417Y270071D02*
G03*
X246295Y273028I-005636J-003847D01*
G01*
X250304Y269428D02*
G03*
X245181Y272385I-005636J-003847D01*
G01*
X172389Y241883D02*
G03*
X172389Y242964I-000841J000540D01*
G01*
X171068Y241546D02*
G03*
X171548Y241423I000479J000878D01*
G01*
D02*
G03*
X172027Y241546I000000J001000D01*
G01*
X170670Y242903D02*
G03*
X170548Y242423I000878J-000479D01*
G01*
D02*
G03*
X170670Y241944I001000J000000D01*
G01*
X172027Y243301D02*
G03*
X171548Y243423I-000479J-000878D01*
G01*
D02*
G03*
X171068Y243301I000000J-001000D01*
G01*
X167926Y235878D02*
G03*
X175170Y235878I003622J006545D01*
G01*
Y248968D02*
G03*
X167926Y248968I-003622J-006545D01*
G01*
X172414Y247711D02*
G03*
X172414Y247711I-000866J000000D01*
G01*
Y237136D02*
G03*
X172414Y237136I-000866J000000D01*
G01*
X174697Y242423D02*
G03*
X174697Y242423I-003150J000000D01*
G01*
X171725Y243423D02*
G03*
X171725Y243423I-000177J000000D01*
G01*
Y241423D02*
G03*
X171725Y241423I-000177J000000D01*
G01*
X170725Y242423D02*
G03*
X170725Y242423I-000177J000000D01*
G01*
X231727Y237136D02*
G03*
X231727Y237136I-000866J000000D01*
G01*
Y247711D02*
G03*
X231727Y247711I-000866J000000D01*
G01*
X232436D02*
G03*
X232436Y247711I-001575J000000D01*
G01*
X227239Y235878D02*
G03*
X234483Y235878I003622J006545D01*
G01*
Y248968D02*
G03*
X227239Y248968I-003622J-006545D01*
G01*
X232436Y237136D02*
G03*
X232436Y237136I-001575J000000D01*
G01*
X234365Y242423D02*
G03*
X234365Y242423I-003504J000000D01*
G01*
X232436D02*
G03*
X232436Y242423I-001575J000000D01*
G01*
X232278D02*
G03*
X232278Y242423I-001417J000000D01*
G01*
X231817D02*
G03*
X231817Y242423I-000957J000000D01*
G01*
X231975D02*
G03*
X231975Y242423I-001114J000000D01*
G01*
X228641Y243309D02*
G03*
X228624Y243265I001448J-000587D01*
G01*
Y243265D02*
G03*
X228471Y242422I002239J-000842D01*
G01*
D02*
G03*
X228641Y241537I002390J000001D01*
G01*
X231266Y239303D02*
G03*
X228184Y244082I-000406J003122D01*
G01*
X228184Y240764D02*
G03*
X230647Y239281I002677J001659D01*
G01*
X228472Y241537D02*
G03*
X228472Y243309I002388J000886D01*
G01*
X228641Y241537D02*
G03*
X228641Y243309I002220J000886D01*
G01*
X228184Y241180D02*
G03*
X233565Y243274I002623J001221D01*
G01*
X230647Y239281D02*
G03*
X233565Y243274I000102J002988D01*
G01*
X230647Y239281D02*
G03*
X231075Y239281I000214J003142D01*
G01*
X231075D02*
G03*
X228184Y243748I-000162J003064D01*
G01*
X228251Y241537D02*
G03*
X228251Y243309I002610J000886D01*
G01*
X211368D02*
G03*
X211368Y241537I000000J-000886D01*
G01*
X212098Y241492D02*
G03*
X212159Y241242I006030J001341D01*
G01*
X212176Y241180D02*
G03*
X212232Y241321I-004017J001694D01*
G01*
Y241321D02*
G03*
X212308Y241537I-003603J001375D01*
G01*
X212210Y239600D02*
G03*
X212219Y239516I000454J000003D01*
G01*
X212293Y243354D02*
G03*
X212230Y243531I-003732J-001228D01*
G01*
X212230D02*
G03*
X212141Y243748I-004199J-001608D01*
G01*
X209739Y243583D02*
G03*
X209695Y243365I005388J-001212D01*
G01*
X209791Y243798D02*
G03*
X209739Y243583I005982J-001573D01*
G01*
X209873Y244082D02*
G03*
X209791Y243798I006868J-002114D01*
G01*
X209813Y245564D02*
G03*
X209807Y245569I-000002J000004D01*
G01*
X209819Y245523D02*
G03*
X209813Y245564I-000394J-000038D01*
G01*
X209826Y245447D02*
G03*
X209819Y245523I-002076J-000143D01*
G01*
X209833Y245339D02*
G03*
X209826Y245447I-006216J-000332D01*
G01*
X212053Y241271D02*
G03*
X212098Y241492I-005368J001200D01*
G01*
X212000Y241052D02*
G03*
X212053Y241271I-005965J001564D01*
G01*
X211918Y240764D02*
G03*
X212000Y241052I-006859J002111D01*
G01*
X211960Y239465D02*
G03*
X211967Y239375I004572J000267D01*
G01*
D02*
G03*
X211978Y239281I000680J000034D01*
G01*
X211987Y239282D02*
G03*
X211988Y239284I-000013J000010D01*
G01*
X211986Y239281D02*
G03*
X211987Y239282I-000007J000007D01*
G01*
X211985Y239280D02*
G03*
X211986Y239281I-000004J000006D01*
G01*
X211983Y239280D02*
G03*
X211985Y239280I-000001J000005D01*
G01*
X211982Y239280D02*
G03*
X211983Y239280I000000J000005D01*
G01*
X211981Y239280D02*
G03*
X211982Y239280I000001J000007D01*
G01*
X211980Y239280D02*
G03*
X211981Y239280I000003J000010D01*
G01*
X211978Y239281D02*
G03*
X211980Y239280I000011J000027D01*
G01*
X212150Y239806D02*
G03*
X212158Y239695I004900J000283D01*
G01*
X212158Y239695D02*
G03*
X212173Y239593I000361J000000D01*
G01*
X211840Y240980D02*
G03*
X211910Y240764I007794J002399D01*
G01*
X211777Y241198D02*
G03*
X211840Y240980I006910J001890D01*
G01*
X211704Y241492D02*
G03*
X211777Y241198I006121J001362D01*
G01*
X212086Y243513D02*
G03*
X212055Y243355I005317J-001125D01*
G01*
X212141Y243748D02*
G03*
X212086Y243513I005794J-001474D01*
G01*
X212102Y245431D02*
G03*
X212098Y245453I-000079J-000003D01*
G01*
X212106Y245371D02*
G03*
X212102Y245431I-001498J-000076D01*
G01*
X211954Y239440D02*
G03*
X211960Y239355I003464J000214D01*
G01*
D02*
G03*
X211972Y239278I000255J-000000D01*
G01*
X210872Y241271D02*
G03*
X210917Y241492I-005368J001200D01*
G01*
X210819Y241052D02*
G03*
X210872Y241271I-005965J001564D01*
G01*
X210737Y240764D02*
G03*
X210819Y241052I-006859J002111D01*
G01*
X210777Y239508D02*
G03*
X210784Y239399I006219J000332D01*
G01*
X210784D02*
G03*
X210790Y239324I002064J000142D01*
G01*
X210790Y239324D02*
G03*
X210803Y239278I000029J-000017D01*
G01*
X211003Y245558D02*
G03*
X210998Y245573I-000021J000001D01*
G01*
X211010Y245511D02*
G03*
X211003Y245558I-000559J-000050D01*
G01*
X211016Y245432D02*
G03*
X211010Y245511I-002587J-000170D01*
G01*
X211131Y243866D02*
G03*
X211062Y244082I-007794J-002399D01*
G01*
X211195Y243648D02*
G03*
X211131Y243866I-006910J-001890D01*
G01*
X211267Y243355D02*
G03*
X211195Y243648I-006121J-001362D01*
G01*
X211053Y240980D02*
G03*
X211123Y240764I007794J002399D01*
G01*
X210990Y241198D02*
G03*
X211053Y240980I006910J001890D01*
G01*
X210917Y241492D02*
G03*
X210990Y241198I006121J001362D01*
G01*
X210969Y239806D02*
G03*
X210977Y239695I004903J000284D01*
G01*
D02*
G03*
X210992Y239593I000361J000000D01*
G01*
X211200Y245225D02*
G03*
X211193Y245253I-000063J-000000D01*
G01*
X211207Y245152D02*
G03*
X211200Y245225I-001515J-000119D01*
G01*
X211215Y245040D02*
G03*
X211207Y245152I-004902J-000283D01*
G01*
X211312Y243575D02*
G03*
X211267Y243355I005368J-001200D01*
G01*
X211365Y243794D02*
G03*
X211312Y243575I005965J-001564D01*
G01*
X211447Y244082D02*
G03*
X211365Y243794I006859J-002111D01*
G01*
X211168Y239414D02*
G03*
X211175Y239335I002587J000170D01*
G01*
X211175D02*
G03*
X211187Y239274I000138J-000005D01*
G01*
X211388Y245564D02*
G03*
X211382Y245569I-000002J000004D01*
G01*
X211394Y245523D02*
G03*
X211388Y245564I-000393J-000038D01*
G01*
X211401Y245447D02*
G03*
X211394Y245523I-002072J-000142D01*
G01*
X211407Y245339D02*
G03*
X211401Y245447I-006209J-000332D01*
G01*
X211660Y241271D02*
G03*
X211704Y241492I-005368J001200D01*
G01*
X211607Y241052D02*
G03*
X211660Y241271I-005965J001564D01*
G01*
X211524Y240764D02*
G03*
X211607Y241052I-006859J002111D01*
G01*
X211564Y239508D02*
G03*
X211571Y239399I006219J000332D01*
G01*
X211571D02*
G03*
X211578Y239324I002064J000142D01*
G01*
Y239324D02*
G03*
X211590Y239278I000029J-000017D01*
G01*
X211791Y245558D02*
G03*
X211785Y245573I-000021J000001D01*
G01*
X211797Y245511D02*
G03*
X211791Y245558I-000559J-000050D01*
G01*
X211803Y245432D02*
G03*
X211797Y245511I-002587J-000170D01*
G01*
X211919Y243866D02*
G03*
X211849Y244082I-007794J-002400D01*
G01*
X211982Y243648D02*
G03*
X211919Y243866I-006910J-001890D01*
G01*
X212055Y243355D02*
G03*
X211982Y243648I-006121J-001362D01*
G01*
X211757Y239806D02*
G03*
X211765Y239695I004903J000284D01*
G01*
X211765D02*
G03*
X211779Y239593I000361J000000D01*
G01*
X211987Y245225D02*
G03*
X211980Y245253I-000063J-000000D01*
G01*
X211995Y245152D02*
G03*
X211987Y245225I-001515J-000119D01*
G01*
X212002Y245040D02*
G03*
X211995Y245152I-004902J-000283D01*
G01*
X210085Y241271D02*
G03*
X210130Y241492I-005368J001200D01*
G01*
X210032Y241052D02*
G03*
X210085Y241271I-005965J001564D01*
G01*
X209950Y240764D02*
G03*
X210032Y241052I-006859J002111D01*
G01*
X209990Y239508D02*
G03*
X209996Y239399I006219J000332D01*
G01*
X209996D02*
G03*
X210003Y239324I002064J000142D01*
G01*
Y239324D02*
G03*
X210015Y239278I000029J-000017D01*
G01*
X210216Y245558D02*
G03*
X210210Y245573I-000021J000001D01*
G01*
X210222Y245511D02*
G03*
X210216Y245558I-000559J-000050D01*
G01*
X210229Y245432D02*
G03*
X210222Y245511I-002587J-000170D01*
G01*
X210344Y243866D02*
G03*
X210274Y244082I-007794J-002399D01*
G01*
X210407Y243648D02*
G03*
X210344Y243866I-006910J-001890D01*
G01*
X210480Y243355D02*
G03*
X210407Y243648I-006121J-001362D01*
G01*
X210266Y240980D02*
G03*
X210335Y240764I007794J002399D01*
G01*
X210202Y241198D02*
G03*
X210266Y240980I006910J001890D01*
G01*
X210130Y241492D02*
G03*
X210202Y241198I006121J001362D01*
G01*
X210182Y239806D02*
G03*
X210190Y239695I004903J000284D01*
G01*
X210190D02*
G03*
X210204Y239593I000361J000000D01*
G01*
X210412Y245225D02*
G03*
X210405Y245253I-000063J-000000D01*
G01*
X210420Y245152D02*
G03*
X210412Y245225I-001515J-000119D01*
G01*
X210428Y245040D02*
G03*
X210420Y245152I-004902J-000283D01*
G01*
X210525Y243575D02*
G03*
X210480Y243355I005368J-001200D01*
G01*
X210578Y243794D02*
G03*
X210525Y243575I005965J-001564D01*
G01*
X210660Y244082D02*
G03*
X210578Y243794I006859J-002111D01*
G01*
X210381Y239414D02*
G03*
X210387Y239335I002587J000170D01*
G01*
X210387D02*
G03*
X210399Y239274I000138J-000005D01*
G01*
X210600Y245564D02*
G03*
X210594Y245569I-000002J000004D01*
G01*
X210607Y245523D02*
G03*
X210600Y245564I-000393J-000038D01*
G01*
X210613Y245447D02*
G03*
X210607Y245523I-002072J-000142D01*
G01*
X210620Y245339D02*
G03*
X210613Y245447I-006209J-000332D01*
G01*
X209872Y240980D02*
G03*
X209942Y240764I007794J002400D01*
G01*
X209809Y241198D02*
G03*
X209872Y240980I006910J001890D01*
G01*
X209736Y241492D02*
G03*
X209809Y241198I006121J001362D01*
G01*
X210131Y243575D02*
G03*
X210086Y243355I005368J-001200D01*
G01*
X210184Y243794D02*
G03*
X210131Y243575I005965J-001564D01*
G01*
X210266Y244082D02*
G03*
X210184Y243794I006859J-002111D01*
G01*
X209987Y239414D02*
G03*
X209994Y239335I002587J000170D01*
G01*
D02*
G03*
X210006Y239274I000138J-000005D01*
G01*
X210207Y245564D02*
G03*
X210201Y245569I-000002J000004D01*
G01*
X210213Y245523D02*
G03*
X210207Y245564I-000393J-000038D01*
G01*
X210220Y245447D02*
G03*
X210213Y245523I-002072J-000142D01*
G01*
X210226Y245339D02*
G03*
X210220Y245447I-006209J-000332D01*
G01*
X211266Y241271D02*
G03*
X211311Y241492I-005368J001200D01*
G01*
X211213Y241052D02*
G03*
X211266Y241271I-005965J001564D01*
G01*
X211131Y240764D02*
G03*
X211213Y241052I-006859J002111D01*
G01*
X211171Y239508D02*
G03*
X211177Y239399I006219J000332D01*
G01*
D02*
G03*
X211184Y239324I002064J000142D01*
G01*
Y239324D02*
G03*
X211196Y239278I000029J-000017D01*
G01*
X211397Y245558D02*
G03*
X211391Y245573I-000021J000001D01*
G01*
X211403Y245511D02*
G03*
X211397Y245558I-000559J-000050D01*
G01*
X211410Y245432D02*
G03*
X211403Y245511I-002587J-000170D01*
G01*
X211525Y243866D02*
G03*
X211455Y244082I-007794J-002399D01*
G01*
X211588Y243648D02*
G03*
X211525Y243866I-006910J-001890D01*
G01*
X211661Y243355D02*
G03*
X211588Y243648I-006121J-001362D01*
G01*
X209695Y241286D02*
G03*
X209736Y241492I-005365J001184D01*
G01*
X209822Y245558D02*
G03*
X209817Y245573I-000021J000001D01*
G01*
X209828Y245511D02*
G03*
X209822Y245558I-000559J-000050D01*
G01*
X209835Y245432D02*
G03*
X209828Y245511I-002587J-000170D01*
G01*
X209950Y243866D02*
G03*
X209880Y244082I-007794J-002399D01*
G01*
X210014Y243648D02*
G03*
X209950Y243866I-006910J-001890D01*
G01*
X210086Y243355D02*
G03*
X210014Y243648I-006121J-001362D01*
G01*
X209788Y239806D02*
G03*
X209796Y239695I004903J000284D01*
G01*
D02*
G03*
X209811Y239593I000361J000000D01*
G01*
X210019Y245225D02*
G03*
X210012Y245253I-000063J-000000D01*
G01*
X210026Y245152D02*
G03*
X210019Y245225I-001515J-000119D01*
G01*
X210034Y245040D02*
G03*
X210026Y245152I-004902J-000283D01*
G01*
X211447Y240980D02*
G03*
X211517Y240764I007794J002399D01*
G01*
X211383Y241198D02*
G03*
X211447Y240980I006910J001890D01*
G01*
X211311Y241492D02*
G03*
X211383Y241198I006121J001362D01*
G01*
X211363Y239806D02*
G03*
X211371Y239695I004903J000284D01*
G01*
D02*
G03*
X211385Y239593I000361J000000D01*
G01*
X211593Y245225D02*
G03*
X211586Y245253I-000063J-000000D01*
G01*
X211601Y245152D02*
G03*
X211593Y245225I-001515J-000119D01*
G01*
X211609Y245040D02*
G03*
X211601Y245152I-004902J-000283D01*
G01*
X211706Y243575D02*
G03*
X211661Y243355I005368J-001200D01*
G01*
X211759Y243794D02*
G03*
X211706Y243575I005965J-001564D01*
G01*
X211841Y244082D02*
G03*
X211759Y243794I006859J-002111D01*
G01*
X211562Y239414D02*
G03*
X211569Y239335I002587J000170D01*
G01*
D02*
G03*
X211580Y239274I000138J-000005D01*
G01*
X211782Y245564D02*
G03*
X211775Y245569I-000002J000004D01*
G01*
X211788Y245523D02*
G03*
X211782Y245564I-000393J-000038D01*
G01*
X211794Y245447D02*
G03*
X211788Y245523I-002072J-000142D01*
G01*
X211801Y245339D02*
G03*
X211794Y245447I-006209J-000332D01*
G01*
X210659Y240980D02*
G03*
X210729Y240764I007794J002399D01*
G01*
X210596Y241198D02*
G03*
X210659Y240980I006910J001890D01*
G01*
X210523Y241492D02*
G03*
X210596Y241198I006121J001362D01*
G01*
X210918Y243575D02*
G03*
X210874Y243355I005368J-001200D01*
G01*
X210971Y243794D02*
G03*
X210918Y243575I005965J-001564D01*
G01*
X211054Y244082D02*
G03*
X210971Y243794I006859J-002111D01*
G01*
X210775Y239414D02*
G03*
X210781Y239335I002587J000170D01*
G01*
X210781D02*
G03*
X210793Y239274I000138J-000005D01*
G01*
X210994Y245564D02*
G03*
X210988Y245569I-000002J000004D01*
G01*
X211000Y245523D02*
G03*
X210994Y245564I-000393J-000038D01*
G01*
X211007Y245447D02*
G03*
X211000Y245523I-002072J-000142D01*
G01*
X211014Y245339D02*
G03*
X211007Y245447I-006209J-000332D01*
G01*
X210479Y241271D02*
G03*
X210523Y241492I-005368J001200D01*
G01*
X210426Y241052D02*
G03*
X210479Y241271I-005965J001564D01*
G01*
X210343Y240764D02*
G03*
X210426Y241052I-006859J002111D01*
G01*
X210383Y239508D02*
G03*
X210390Y239399I006219J000332D01*
G01*
X210390D02*
G03*
X210397Y239324I002064J000142D01*
G01*
Y239324D02*
G03*
X210409Y239278I000029J-000017D01*
G01*
X210610Y245558D02*
G03*
X210604Y245573I-000021J000001D01*
G01*
X210616Y245511D02*
G03*
X210610Y245558I-000559J-000050D01*
G01*
X210622Y245432D02*
G03*
X210616Y245511I-002587J-000170D01*
G01*
X210738Y243866D02*
G03*
X210668Y244082I-007794J-002399D01*
G01*
X210801Y243648D02*
G03*
X210738Y243866I-006910J-001890D01*
G01*
X210874Y243355D02*
G03*
X210801Y243648I-006121J-001362D01*
G01*
X210576Y239806D02*
G03*
X210583Y239695I004903J000284D01*
G01*
X210583D02*
G03*
X210598Y239593I000361J000000D01*
G01*
X210806Y245225D02*
G03*
X210799Y245253I-000063J-000000D01*
G01*
X210814Y245152D02*
G03*
X210806Y245225I-001515J-000119D01*
G01*
X210821Y245040D02*
G03*
X210814Y245152I-004902J-000283D01*
G01*
X241486Y204866D02*
G03*
X241486Y204866I-001536J000000D01*
G01*
X240646D02*
G03*
X240646Y204866I-000696J000000D01*
G01*
X240676Y217599D02*
G03*
X240676Y217599I-000394J000000D01*
G01*
X244676Y227367D02*
G03*
X244676Y227367I-000394J000000D01*
G01*
Y211067D02*
G03*
X244676Y211067I-000394J000000D01*
G01*
X258688Y270860D02*
X258691Y270862D01*
X258688Y272493D02*
X258704Y272506D01*
X258717Y272529D01*
X258724Y272558D01*
Y272591D01*
X258717Y272628D02*
X258724Y272591D01*
X258704Y272665D02*
X258717Y272628D01*
X258686Y272702D02*
X258704Y272665D01*
X258662Y272735D02*
X258686Y272702D01*
X258636Y272764D02*
X258662Y272735D01*
X258607Y272786D02*
X258636Y272764D01*
X258578Y272801D02*
X258607Y272786D01*
X258550Y272808D02*
X258578Y272801D01*
X258525Y272805D02*
X258550Y272808D01*
X258511Y272800D02*
X258525Y272805D01*
X259395Y271268D02*
X259412Y271282D01*
X259425Y271304D01*
X259431Y271333D01*
Y271366D01*
X259425Y271403D02*
X259431Y271366D01*
X259412Y271441D02*
X259425Y271403D01*
X259393Y271477D02*
X259412Y271441D01*
X259370Y271511D02*
X259393Y271477D01*
X259343Y271539D02*
X259370Y271511D01*
X259314Y271562D02*
X259343Y271539D01*
X259285Y271577D02*
X259314Y271562D01*
X259257Y271583D02*
X259285Y271577D01*
X259232Y271581D02*
X259257Y271583D01*
X259218Y271575D02*
X259232Y271581D01*
X242888Y264222D02*
X243553Y264606D01*
X243876Y264419D01*
X254050Y265566D02*
X254092Y265592D01*
X254173Y265649D01*
X254248Y265714D01*
X254319Y265787D01*
X254384Y265867D01*
X254443Y265954D01*
X254496Y266047D01*
X254544Y266148D01*
X254586Y266255D01*
X254621Y266367D01*
X254650Y266486D01*
X254673Y266609D01*
X254689Y266738D01*
X254699Y266871D01*
X254702Y267008D01*
X254699Y267150D02*
X254702Y267008D01*
X254689Y267294D02*
X254699Y267150D01*
X254673Y267441D02*
X254689Y267294D01*
X254650Y267591D02*
X254673Y267441D01*
X254621Y267743D02*
X254650Y267591D01*
X254586Y267897D02*
X254621Y267743D01*
X254544Y268052D02*
X254586Y267897D01*
X254496Y268207D02*
X254544Y268052D01*
X254443Y268363D02*
X254496Y268207D01*
X254384Y268518D02*
X254443Y268363D01*
X254319Y268673D02*
X254384Y268518D01*
X254248Y268827D02*
X254319Y268673D01*
X254173Y268979D02*
X254248Y268827D01*
X254092Y269129D02*
X254173Y268979D01*
X254007Y269277D02*
X254092Y269129D01*
X253917Y269422D02*
X254007Y269277D01*
X253823Y269563D02*
X253917Y269422D01*
X253725Y269701D02*
X253823Y269563D01*
X253623Y269835D02*
X253725Y269701D01*
X253518Y269964D02*
X253623Y269835D01*
X253410Y270088D02*
X253518Y269964D01*
X253300Y270207D02*
X253410Y270088D01*
X253186Y270321D02*
X253300Y270207D01*
X253071Y270428D02*
X253186Y270321D01*
X252954Y270529D02*
X253071Y270428D01*
X252836Y270624D02*
X252954Y270529D01*
X252716Y270712D02*
X252836Y270624D01*
X252596Y270792D02*
X252716Y270712D01*
X252475Y270866D02*
X252596Y270792D01*
X252355Y270932D02*
X252475Y270866D01*
X252234Y270990D02*
X252355Y270932D01*
X252115Y271040D02*
X252234Y270990D01*
X251996Y271082D02*
X252115Y271040D01*
X251879Y271116D02*
X251996Y271082D01*
X251764Y271142D02*
X251879Y271116D01*
X251651Y271159D02*
X251764Y271142D01*
X251540Y271168D02*
X251651Y271159D01*
X251432Y271169D02*
X251540Y271168D01*
X251327Y271161D02*
X251432Y271169D01*
X251225Y271144D02*
X251327Y271161D01*
X251127Y271120D02*
X251225Y271144D01*
X251033Y271087D02*
X251127Y271120D01*
X250944Y271045D02*
X251033Y271087D01*
X250901Y271022D02*
X250944Y271045D01*
X246217Y263827D02*
X246218Y263841D01*
X246207Y263757D02*
X246217Y263827D01*
X246191Y263692D02*
X246207Y263757D01*
X246168Y263633D02*
X246191Y263692D01*
X246140Y263580D02*
X246168Y263633D01*
X246106Y263534D02*
X246140Y263580D01*
X246066Y263495D02*
X246106Y263534D01*
X246022Y263464D02*
X246066Y263495D01*
X245972Y263441D02*
X246022Y263464D01*
X245919Y263426D02*
X245972Y263441D01*
X245862Y263419D02*
X245919Y263426D01*
X245802Y263421D02*
X245862Y263419D01*
X245740Y263431D02*
X245802Y263421D01*
X245675Y263450D02*
X245740Y263431D01*
X245610Y263477D02*
X245675Y263450D01*
X245543Y263511D02*
X245610Y263477D01*
X245477Y263553D02*
X245543Y263511D01*
X245411Y263602D02*
X245477Y263553D01*
X245347Y263658D02*
X245411Y263602D01*
X245284Y263720D02*
X245347Y263658D01*
X245224Y263788D02*
X245284Y263720D01*
X245168Y263860D02*
X245224Y263788D01*
X245114Y263936D02*
X245168Y263860D01*
X245065Y264016D02*
X245114Y263936D01*
X245020Y264099D02*
X245065Y264016D01*
X244981Y264183D02*
X245020Y264099D01*
X244947Y264269D02*
X244981Y264183D01*
X244918Y264354D02*
X244947Y264269D01*
X244896Y264439D02*
X244918Y264354D01*
X244880Y264523D02*
X244896Y264439D01*
X244870Y264604D02*
X244880Y264523D01*
X244867Y264683D02*
X244870Y264604D01*
X244867Y264683D02*
X244870Y264758D01*
X244880Y264828D01*
X244896Y264893D01*
X244918Y264952D01*
X244947Y265005D01*
X244981Y265051D01*
X245020Y265090D01*
X245065Y265121D01*
X245114Y265144D01*
X245168Y265159D01*
X245224Y265165D01*
X245284Y265164D01*
X245347Y265153D01*
X245411Y265135D01*
X245477Y265108D01*
X245490Y265102D01*
X246217Y263858D02*
X246220Y263773D01*
X246207Y263946D02*
X246217Y263858D01*
X246191Y264036D02*
X246207Y263946D01*
X246168Y264127D02*
X246191Y264036D01*
X246140Y264220D02*
X246168Y264127D01*
X246105Y264312D02*
X246140Y264220D01*
X246065Y264404D02*
X246105Y264312D01*
X246020Y264494D02*
X246065Y264404D01*
X245970Y264583D02*
X246020Y264494D01*
X245915Y264668D02*
X245970Y264583D01*
X245857Y264749D02*
X245915Y264668D01*
X245794Y264827D02*
X245857Y264749D01*
X245729Y264899D02*
X245794Y264827D01*
X245662Y264966D02*
X245729Y264899D01*
X245592Y265026D02*
X245662Y264966D01*
X245521Y265080D02*
X245592Y265026D01*
X245450Y265127D02*
X245521Y265080D01*
X245378Y265167D02*
X245450Y265127D01*
X245307Y265199D02*
X245378Y265167D01*
X245237Y265222D02*
X245307Y265199D01*
X245168Y265238D02*
X245237Y265222D01*
X245102Y265245D02*
X245168Y265238D01*
X245038Y265243D02*
X245102Y265245D01*
X244978Y265234D02*
X245038Y265243D01*
X244921Y265216D02*
X244978Y265234D01*
X244869Y265189D02*
X244921Y265216D01*
X244821Y265155D02*
X244869Y265189D01*
X244778Y265113D02*
X244821Y265155D01*
X244741Y265064D02*
X244778Y265113D01*
X244709Y265008D02*
X244741Y265064D01*
X244684Y264945D02*
X244709Y265008D01*
X244664Y264877D02*
X244684Y264945D01*
X244651Y264803D02*
X244664Y264877D01*
X244645Y264724D02*
X244651Y264803D01*
X244645Y264641D02*
Y264724D01*
Y264641D02*
X244651Y264555D01*
X244664Y264466D01*
X244684Y264375D01*
X244709Y264283D01*
X244741Y264190D01*
X244778Y264098D01*
X244821Y264007D01*
X244869Y263917D01*
X244921Y263831D01*
X244978Y263747D01*
X245038Y263668D01*
X245102Y263593D01*
X245168Y263523D01*
X245237Y263459D01*
X245307Y263402D01*
X245378Y263352D01*
X245450Y263308D01*
X245521Y263273D01*
X245592Y263245D01*
X245662Y263225D01*
X245729Y263214D01*
X245794Y263211D01*
X245857Y263217D01*
X245915Y263231D01*
X245970Y263253D01*
X246020Y263283D01*
X246065Y263321D01*
X246105Y263367D01*
X246140Y263420D01*
X246168Y263479D01*
X246191Y263545D01*
X246207Y263616D01*
X246217Y263692D01*
X246220Y263773D01*
X246421Y263471D02*
X246431Y263553D01*
X246405Y263389D02*
X246421Y263471D01*
X246383Y263313D02*
X246405Y263389D01*
X246354Y263242D02*
X246383Y263313D01*
X246319Y263178D02*
X246354Y263242D01*
X246279Y263121D02*
X246319Y263178D01*
X246233Y263070D02*
X246279Y263121D01*
X246182Y263028D02*
X246233Y263070D01*
X246126Y262993D02*
X246182Y263028D01*
X246066Y262966D02*
X246126Y262993D01*
X246001Y262947D02*
X246066Y262966D01*
X245933Y262937D02*
X246001Y262947D01*
X245862Y262935D02*
X245933Y262937D01*
X245787Y262941D02*
X245862Y262935D01*
X245711Y262956D02*
X245787Y262941D01*
X245632Y262978D02*
X245711Y262956D01*
X245553Y263010D02*
X245632Y262978D01*
X245472Y263048D02*
X245553Y263010D01*
X245392Y263095D02*
X245472Y263048D01*
X245311Y263149D02*
X245392Y263095D01*
X245232Y263210D02*
X245311Y263149D01*
X245153Y263277D02*
X245232Y263210D01*
X245077Y263351D02*
X245153Y263277D01*
X245002Y263431D02*
X245077Y263351D01*
X244931Y263515D02*
X245002Y263431D01*
X244863Y263604D02*
X244931Y263515D01*
X244798Y263698D02*
X244863Y263604D01*
X244738Y263794D02*
X244798Y263698D01*
X244682Y263894D02*
X244738Y263794D01*
X244631Y263995D02*
X244682Y263894D01*
X244585Y264099D02*
X244631Y263995D01*
X244545Y264203D02*
X244585Y264099D01*
X244510Y264307D02*
X244545Y264203D01*
X244481Y264410D02*
X244510Y264307D01*
X244459Y264513D02*
X244481Y264410D01*
X244443Y264614D02*
X244459Y264513D01*
X244433Y264712D02*
X244443Y264614D01*
X244430Y264807D02*
X244433Y264712D01*
X244430Y264807D02*
X244433Y264898D01*
X244443Y264985D01*
X244459Y265067D01*
X244481Y265143D01*
X244510Y265214D01*
X244545Y265278D01*
X244585Y265336D01*
X244631Y265386D01*
X244682Y265429D01*
X244738Y265464D01*
X244798Y265490D01*
X244863Y265509D01*
X244931Y265520D01*
X245002Y265522D01*
X245077Y265515D01*
X245153Y265501D01*
X245232Y265478D01*
X245311Y265447D01*
X245347Y265430D01*
X245934Y267688D02*
X246020Y267717D01*
X246111Y267738D01*
X246206Y267751D01*
X246305Y267756D01*
X246406Y267753D01*
X246510Y267741D01*
X246616Y267722D01*
X246724Y267693D01*
X246833Y267657D01*
X246944Y267613D01*
X247055Y267561D01*
X247167Y267501D01*
X247279Y267434D01*
X247391Y267360D01*
X247502Y267279D01*
X247612Y267191D01*
X247720Y267096D01*
X247827Y266995D01*
X247932Y266889D01*
X248034Y266777D01*
X248133Y266660D01*
X248229Y266539D01*
X248322Y266413D01*
X248411Y266283D01*
X248496Y266150D01*
X248577Y266013D01*
X248653Y265875D01*
X248724Y265734D01*
X248790Y265591D01*
X248851Y265448D01*
X248907Y265303D01*
X248956Y265159D01*
X249000Y265014D01*
X249038Y264871D01*
X249070Y264728D01*
X249095Y264588D01*
X249114Y264449D01*
X249127Y264314D01*
X249134Y264181D01*
Y264051D02*
Y264181D01*
X249127Y263926D02*
X249134Y264051D01*
X249114Y263805D02*
X249127Y263926D01*
X249095Y263689D02*
X249114Y263805D01*
X249070Y263578D02*
X249095Y263689D01*
X249038Y263472D02*
X249070Y263578D01*
X249000Y263372D02*
X249038Y263472D01*
X248956Y263278D02*
X249000Y263372D01*
X248907Y263191D02*
X248956Y263278D01*
X248851Y263111D02*
X248907Y263191D01*
X248790Y263037D02*
X248851Y263111D01*
X248786Y263032D02*
X248790Y263037D01*
X249660Y263666D02*
X249663Y263810D01*
X249651Y263526D02*
X249660Y263666D01*
X249634Y263390D02*
X249651Y263526D01*
X249612Y263259D02*
X249634Y263390D01*
X249583Y263134D02*
X249612Y263259D01*
X249548Y263014D02*
X249583Y263134D01*
X249507Y262899D02*
X249548Y263014D01*
X249459Y262791D02*
X249507Y262899D01*
X249406Y262689D02*
X249459Y262791D01*
X249347Y262594D02*
X249406Y262689D01*
X249283Y262506D02*
X249347Y262594D01*
X249212Y262425D02*
X249283Y262506D01*
X249137Y262351D02*
X249212Y262425D01*
X249056Y262285D02*
X249137Y262351D01*
X248971Y262226D02*
X249056Y262285D01*
X248881Y262175D02*
X248971Y262226D01*
X248787Y262133D02*
X248881Y262175D01*
X248688Y262098D02*
X248787Y262133D01*
X248585Y262072D02*
X248688Y262098D01*
X248479Y262054D02*
X248585Y262072D01*
X248369Y262044D02*
X248479Y262054D01*
X248257Y262042D02*
X248369Y262044D01*
X248141Y262049D02*
X248257Y262042D01*
X248023Y262064D02*
X248141Y262049D01*
X247993Y262070D02*
X248023Y262064D01*
X244842Y267520D02*
X244844Y267525D01*
X244888Y267637D01*
X244938Y267742D01*
X244994Y267840D01*
X245056Y267932D01*
X245124Y268017D01*
X245196Y268094D01*
X245274Y268164D01*
X245357Y268227D01*
X245445Y268281D01*
X245537Y268328D01*
X245634Y268367D01*
X245735Y268397D01*
X245839Y268420D01*
X245947Y268434D01*
X246058Y268439D01*
X246172Y268436D01*
X246289Y268425D01*
X246408Y268406D01*
X246529Y268378D01*
X246652Y268343D01*
X246776Y268299D01*
X246902Y268247D01*
X247028Y268187D01*
X247154Y268120D01*
X247281Y268045D01*
X247407Y267963D01*
X247533Y267873D01*
X247658Y267777D01*
X247781Y267674D01*
X247903Y267565D01*
X248023Y267450D01*
X248141Y267329D01*
X248257Y267202D01*
X248369Y267071D01*
X248479Y266934D01*
X248585Y266794D01*
X248688Y266649D01*
X248787Y266500D01*
X248881Y266349D01*
X248971Y266194D01*
X249056Y266037D01*
X249137Y265878D01*
X249212Y265717D01*
X249283Y265555D01*
X249347Y265392D01*
X249406Y265228D01*
X249459Y265065D01*
X249507Y264902D01*
X249548Y264740D01*
X249583Y264580D01*
X249612Y264421D01*
X249634Y264264D01*
X249651Y264110D01*
X249660Y263958D01*
X249663Y263810D01*
X243278Y264073D02*
X243876Y264419D01*
X243278Y265520D02*
X243876Y265865D01*
X243047Y264078D02*
X243116Y264077D01*
X243278Y264073D01*
X243186Y265522D02*
X243278Y265520D01*
X243047Y265525D02*
X243186Y265522D01*
X243278Y265520D02*
X243320Y265607D01*
X243368Y265687D01*
X243421Y265760D01*
X243480Y265826D01*
X243544Y265885D01*
X243613Y265936D01*
X243687Y265979D01*
X243766Y266014D01*
X243848Y266041D01*
X243935Y266060D01*
X244025Y266070D01*
X244118Y266072D01*
X244214Y266065D01*
X244312Y266050D01*
X244413Y266027D01*
X244515Y265996D01*
X244618Y265956D01*
X244723Y265909D01*
X244795Y265871D01*
X246530Y262738D02*
X246536Y262852D01*
X246517Y262625D02*
X246530Y262738D01*
X246497Y262517D02*
X246517Y262625D01*
X246472Y262415D02*
X246497Y262517D01*
X246440Y262318D02*
X246472Y262415D01*
X246402Y262227D02*
X246440Y262318D01*
X246357Y262143D02*
X246402Y262227D01*
X246307Y262065D02*
X246357Y262143D01*
X246252Y261995D02*
X246307Y262065D01*
X246191Y261931D02*
X246252Y261995D01*
X246125Y261876D02*
X246191Y261931D01*
X246054Y261828D02*
X246125Y261876D01*
X245978Y261788D02*
X246054Y261828D01*
X245898Y261756D02*
X245978Y261788D01*
X245814Y261732D02*
X245898Y261756D01*
X245726Y261717D02*
X245814Y261732D01*
X245635Y261710D02*
X245726Y261717D01*
X245540Y261711D02*
X245635Y261710D01*
X245443Y261721D02*
X245540Y261711D01*
X245344Y261739D02*
X245443Y261721D01*
X245243Y261765D02*
X245344Y261739D01*
X245140Y261800D02*
X245243Y261765D01*
X245037Y261842D02*
X245140Y261800D01*
X244932Y261893D02*
X245037Y261842D01*
X244827Y261951D02*
X244932Y261893D01*
X244723Y262017D02*
X244827Y261951D01*
X244618Y262090D02*
X244723Y262017D01*
X244515Y262169D02*
X244618Y262090D01*
X244413Y262256D02*
X244515Y262169D01*
X244312Y262349D02*
X244413Y262256D01*
X244214Y262447D02*
X244312Y262349D01*
X244118Y262551D02*
X244214Y262447D01*
X244025Y262661D02*
X244118Y262551D01*
X243935Y262775D02*
X244025Y262661D01*
X243848Y262893D02*
X243935Y262775D01*
X243766Y263016D02*
X243848Y262893D01*
X243687Y263141D02*
X243766Y263016D01*
X243613Y263270D02*
X243687Y263141D01*
X243544Y263401D02*
X243613Y263270D01*
X243480Y263534D02*
X243544Y263401D01*
X243421Y263668D02*
X243480Y263534D01*
X243368Y263803D02*
X243421Y263668D01*
X243320Y263938D02*
X243368Y263803D01*
X243278Y264073D02*
X243320Y263938D01*
X243047Y264078D02*
X243088Y263939D01*
X243134Y263800D01*
X243186Y263661D01*
X243244Y263522D01*
X243307Y263384D01*
X243376Y263248D01*
X243449Y263115D01*
X243527Y262983D01*
X243609Y262855D01*
X243695Y262730D01*
X243785Y262609D01*
X243878Y262493D01*
X243974Y262381D01*
X244073Y262275D01*
X244175Y262174D01*
X244278Y262079D01*
X244384Y261990D01*
X244490Y261908D01*
X244597Y261833D01*
X244705Y261765D01*
X244813Y261704D01*
X244921Y261651D01*
X245028Y261606D01*
X245134Y261568D01*
X245238Y261539D01*
X245341Y261518D01*
X245441Y261505D01*
X245539Y261501D01*
X245634Y261505D01*
X245726Y261517D01*
X245815Y261538D01*
X245899Y261567D01*
X245979Y261604D01*
X246055Y261649D01*
X246126Y261701D01*
X246192Y261762D01*
X246253Y261829D01*
X246309Y261904D01*
X246358Y261986D01*
X246402Y262075D01*
X246440Y262169D01*
X246472Y262270D01*
X246498Y262376D01*
X246517Y262488D01*
X246530Y262604D01*
X246536Y262725D01*
Y262849D01*
X246530Y262977D02*
X246536Y262849D01*
X246517Y263109D02*
X246530Y262977D01*
X246498Y263242D02*
X246517Y263109D01*
X246472Y263378D02*
X246498Y263242D01*
X246440Y263516D02*
X246472Y263378D01*
X246402Y263654D02*
X246440Y263516D01*
X246358Y263793D02*
X246402Y263654D01*
X246309Y263933D02*
X246358Y263793D01*
X246253Y264072D02*
X246309Y263933D01*
X246192Y264210D02*
X246253Y264072D01*
X246126Y264346D02*
X246192Y264210D01*
X246055Y264481D02*
X246126Y264346D01*
X245979Y264614D02*
X246055Y264481D01*
X245899Y264743D02*
X245979Y264614D01*
X245815Y264870D02*
X245899Y264743D01*
X245726Y264992D02*
X245815Y264870D01*
X245634Y265111D02*
X245726Y264992D01*
X245539Y265224D02*
X245634Y265111D01*
X245441Y265333D02*
X245539Y265224D01*
X245341Y265436D02*
X245441Y265333D01*
X245238Y265534D02*
X245341Y265436D01*
X245134Y265625D02*
X245238Y265534D01*
X245028Y265711D02*
X245134Y265625D01*
X244921Y265789D02*
X245028Y265711D01*
X244813Y265860D02*
X244921Y265789D01*
X244705Y265924D02*
X244813Y265860D01*
X244597Y265980D02*
X244705Y265924D01*
X244490Y266029D02*
X244597Y265980D01*
X244384Y266070D02*
X244490Y266029D01*
X244278Y266102D02*
X244384Y266070D01*
X244175Y266127D02*
X244278Y266102D01*
X244073Y266143D02*
X244175Y266127D01*
X243974Y266151D02*
X244073Y266143D01*
X243878Y266150D02*
X243974Y266151D01*
X243785Y266142D02*
X243878Y266150D01*
X243695Y266125D02*
X243785Y266142D01*
X243609Y266099D02*
X243695Y266125D01*
X243527Y266066D02*
X243609Y266099D01*
X243449Y266024D02*
X243527Y266066D01*
X243376Y265975D02*
X243449Y266024D01*
X243307Y265918D02*
X243376Y265975D01*
X243244Y265853D02*
X243307Y265918D01*
X243186Y265781D02*
X243244Y265853D01*
X243134Y265702D02*
X243186Y265781D01*
X243088Y265617D02*
X243134Y265702D01*
X243047Y265525D02*
X243088Y265617D01*
X242891Y264168D02*
X243047Y264078D01*
X242891Y265615D02*
X243047Y265525D01*
X251417Y259382D02*
Y270071D01*
X250304Y258739D02*
X251417Y259382D01*
X243173Y266325D02*
X243213Y266487D01*
X242888Y264222D02*
X242891Y264168D01*
X242888Y265669D02*
X242891Y265615D01*
X242930Y265714D01*
X242975Y265806D01*
X243025Y265892D01*
X243082Y265971D01*
X243144Y266043D01*
X243211Y266108D01*
X243283Y266165D01*
X243360Y266214D01*
X243441Y266256D01*
X243527Y266289D01*
X243617Y266315D01*
X243710Y266332D01*
X243807Y266341D01*
X243907Y266341D01*
X244010Y266334D01*
X244115Y266318D01*
X244222Y266294D01*
X244330Y266262D01*
X244440Y266221D01*
X244551Y266173D01*
X244663Y266117D01*
X244775Y266054D01*
X244887Y265983D01*
X244998Y265905D01*
X245109Y265820D01*
X245218Y265729D01*
X245325Y265631D01*
X245431Y265528D01*
X245534Y265418D01*
X245635Y265304D01*
X245733Y265185D01*
X245827Y265061D01*
X245918Y264933D01*
X246005Y264801D01*
X246088Y264667D01*
X246166Y264529D01*
X246240Y264389D01*
X246309Y264248D01*
X246372Y264104D01*
X246430Y263960D01*
X246483Y263816D01*
X246529Y263672D01*
X246570Y263528D01*
X246605Y263385D01*
X246634Y263243D01*
X246656Y263104D01*
X246672Y262967D01*
X246682Y262832D01*
X246685Y262701D01*
X246682Y262574D02*
X246685Y262701D01*
X246672Y262451D02*
X246682Y262574D01*
X246656Y262332D02*
X246672Y262451D01*
X246634Y262218D02*
X246656Y262332D01*
X246605Y262110D02*
X246634Y262218D01*
X246570Y262007D02*
X246605Y262110D01*
X246529Y261911D02*
X246570Y262007D01*
X246483Y261820D02*
X246529Y261911D01*
X246430Y261736D02*
X246483Y261820D01*
X246372Y261659D02*
X246430Y261736D01*
X246309Y261590D02*
X246372Y261659D01*
X246240Y261527D02*
X246309Y261590D01*
X246166Y261472D02*
X246240Y261527D01*
X246088Y261425D02*
X246166Y261472D01*
X246005Y261386D02*
X246088Y261425D01*
X245918Y261355D02*
X246005Y261386D01*
X245827Y261332D02*
X245918Y261355D01*
X245733Y261317D02*
X245827Y261332D01*
X245635Y261311D02*
X245733Y261317D01*
X245534Y261313D02*
X245635Y261311D01*
X245431Y261323D02*
X245534Y261313D01*
X245325Y261341D02*
X245431Y261323D01*
X245218Y261368D02*
X245325Y261341D01*
X245109Y261402D02*
X245218Y261368D01*
X244998Y261445D02*
X245109Y261402D01*
X244887Y261496D02*
X244998Y261445D01*
X244775Y261554D02*
X244887Y261496D01*
X244663Y261620D02*
X244775Y261554D01*
X244551Y261693D02*
X244663Y261620D01*
X244440Y261773D02*
X244551Y261693D01*
X244330Y261860D02*
X244440Y261773D01*
X244222Y261953D02*
X244330Y261860D01*
X244115Y262052D02*
X244222Y261953D01*
X244010Y262158D02*
X244115Y262052D01*
X243907Y262268D02*
X244010Y262158D01*
X243807Y262384D02*
X243907Y262268D01*
X243710Y262505D02*
X243807Y262384D01*
X243617Y262630D02*
X243710Y262505D01*
X243527Y262759D02*
X243617Y262630D01*
X243441Y262892D02*
X243527Y262759D01*
X243360Y263027D02*
X243441Y262892D01*
X243283Y263166D02*
X243360Y263027D01*
X243211Y263306D02*
X243283Y263166D01*
X243144Y263448D02*
X243211Y263306D01*
X243082Y263592D02*
X243144Y263448D01*
X243025Y263736D02*
X243082Y263592D01*
X242975Y263880D02*
X243025Y263736D01*
X242930Y264025D02*
X242975Y263880D01*
X242891Y264168D02*
X242930Y264025D01*
X250304Y258739D02*
Y269428D01*
X245181Y268080D02*
Y272385D01*
X248853Y269140D02*
X248856Y269237D01*
X248843Y269048D02*
X248853Y269140D01*
X248827Y268960D02*
X248843Y269048D01*
X248804Y268879D02*
X248827Y268960D01*
X248775Y268802D02*
X248804Y268879D01*
X248741Y268733D02*
X248775Y268802D01*
X248700Y268670D02*
X248741Y268733D01*
X248653Y268614D02*
X248700Y268670D01*
X248602Y268565D02*
X248653Y268614D01*
X248545Y268525D02*
X248602Y268565D01*
X248483Y268492D02*
X248545Y268525D01*
X248418Y268467D02*
X248483Y268492D01*
X248348Y268451D02*
X248418Y268467D01*
X248275Y268443D02*
X248348Y268451D01*
X248198Y268443D02*
X248275Y268443D01*
X248119Y268452D02*
X248198Y268443D01*
X248038Y268469D02*
X248119Y268452D01*
X247955Y268495D02*
X248038Y268469D01*
X247870Y268528D02*
X247955Y268495D01*
X247785Y268570D02*
X247870Y268528D01*
X247700Y268619D02*
X247785Y268570D01*
X247615Y268676D02*
X247700Y268619D01*
X247531Y268739D02*
X247615Y268676D01*
X247448Y268810D02*
X247531Y268739D01*
X247366Y268886D02*
X247448Y268810D01*
X247287Y268969D02*
X247366Y268886D01*
X247211Y269057D02*
X247287Y268969D01*
X247137Y269149D02*
X247211Y269057D01*
X247068Y269246D02*
X247137Y269149D01*
X247002Y269347D02*
X247068Y269246D01*
X246940Y269451D02*
X247002Y269347D01*
X246884Y269557D02*
X246940Y269451D01*
X246832Y269665D02*
X246884Y269557D01*
X246785Y269775D02*
X246832Y269665D01*
X246745Y269885D02*
X246785Y269775D01*
X246710Y269995D02*
X246745Y269885D01*
X246681Y270104D02*
X246710Y269995D01*
X246658Y270212D02*
X246681Y270104D01*
X246642Y270318D02*
X246658Y270212D01*
X246632Y270422D02*
X246642Y270318D01*
X246629Y270522D02*
X246632Y270422D01*
X246629Y270522D02*
X246632Y270619D01*
X246642Y270711D01*
X246658Y270798D01*
X246681Y270880D01*
X246710Y270956D01*
X246745Y271026D01*
X246785Y271089D01*
X246832Y271145D01*
X246884Y271193D01*
X246940Y271234D01*
X247002Y271267D01*
X247068Y271292D01*
X247137Y271308D01*
X247211Y271316D01*
X247287Y271316D01*
X247366Y271307D01*
X247448Y271290D01*
X247531Y271264D01*
X247615Y271231D01*
X247700Y271189D01*
X247785Y271140D01*
X247870Y271083D01*
X247955Y271019D01*
X248038Y270949D01*
X248119Y270872D01*
X248198Y270790D01*
X248275Y270702D01*
X248348Y270609D01*
X248418Y270512D01*
X248483Y270412D01*
X248545Y270308D01*
X248602Y270202D01*
X248653Y270093D01*
X248700Y269984D01*
X248741Y269874D01*
X248775Y269764D01*
X248804Y269654D01*
X248827Y269546D01*
X248843Y269440D01*
X248853Y269337D01*
X248856Y269237D01*
X248853Y260505D02*
X248856Y260602D01*
X248843Y260413D02*
X248853Y260505D01*
X248827Y260326D02*
X248843Y260413D01*
X248804Y260244D02*
X248827Y260326D01*
X248775Y260168D02*
X248804Y260244D01*
X248741Y260098D02*
X248775Y260168D01*
X248700Y260035D02*
X248741Y260098D01*
X248653Y259979D02*
X248700Y260035D01*
X248602Y259931D02*
X248653Y259979D01*
X248545Y259890D02*
X248602Y259931D01*
X248483Y259857D02*
X248545Y259890D01*
X248418Y259832D02*
X248483Y259857D01*
X248348Y259816D02*
X248418Y259832D01*
X248275Y259808D02*
X248348Y259816D01*
X248198Y259808D02*
X248275Y259808D01*
X248119Y259817D02*
X248198Y259808D01*
X248038Y259834D02*
X248119Y259817D01*
X247955Y259860D02*
X248038Y259834D01*
X247870Y259893D02*
X247955Y259860D01*
X247785Y259935D02*
X247870Y259893D01*
X247700Y259984D02*
X247785Y259935D01*
X247615Y260041D02*
X247700Y259984D01*
X247531Y260105D02*
X247615Y260041D01*
X247448Y260175D02*
X247531Y260105D01*
X247366Y260252D02*
X247448Y260175D01*
X247287Y260334D02*
X247366Y260252D01*
X247211Y260422D02*
X247287Y260334D01*
X247137Y260515D02*
X247211Y260422D01*
X247068Y260612D02*
X247137Y260515D01*
X247002Y260712D02*
X247068Y260612D01*
X246940Y260816D02*
X247002Y260712D01*
X246884Y260922D02*
X246940Y260816D01*
X246832Y261031D02*
X246884Y260922D01*
X246785Y261140D02*
X246832Y261031D01*
X246745Y261250D02*
X246785Y261140D01*
X246714Y261344D02*
X246745Y261250D01*
X245991Y268597D02*
X246002Y268603D01*
X246094Y268650D01*
X246191Y268688D01*
X246291Y268719D01*
X246396Y268741D01*
X246504Y268755D01*
X246615Y268761D01*
X246729Y268758D01*
X246846Y268747D01*
X246965Y268727D01*
X247086Y268700D01*
X247209Y268664D01*
X247333Y268620D01*
X247458Y268568D01*
X247584Y268509D01*
X247711Y268441D01*
X247838Y268366D01*
X247964Y268284D01*
X248090Y268195D01*
X248214Y268098D01*
X248338Y267996D01*
X248460Y267886D01*
X248580Y267771D01*
X248698Y267650D01*
X248814Y267524D01*
X248926Y267392D01*
X249036Y267256D01*
X249142Y267115D01*
X249245Y266970D01*
X249343Y266822D01*
X249438Y266670D01*
X249528Y266515D01*
X249613Y266358D01*
X249694Y266199D01*
X249769Y266038D01*
X249839Y265876D01*
X249904Y265713D01*
X249963Y265550D01*
X250016Y265386D01*
X250064Y265224D01*
X250105Y265062D01*
X250140Y264901D01*
X250169Y264742D01*
X250191Y264585D01*
X250207Y264431D01*
X250217Y264280D01*
X250220Y264132D01*
X245181Y272385D02*
X246295Y273028D01*
X250304Y269428D02*
X251417Y270071D01*
X254429Y268401D02*
X258688Y270860D01*
X253545Y269933D02*
X258511Y272800D01*
X253763Y269649D02*
X258688Y272493D01*
X254293Y268731D02*
X259218Y271575D01*
X254429Y268401D02*
X259395Y271268D01*
X250674Y270891D02*
X250901Y271022D01*
X251417Y264047D02*
X254050Y265566D01*
X244756Y265656D02*
X244950Y265768D01*
X246331Y262929D02*
X246524Y263040D01*
X245432Y263071D02*
X245543Y263007D01*
X244430Y264807D02*
Y264935D01*
X248938Y262206D02*
X249494Y262527D01*
X245434Y268275D02*
X245991Y268597D01*
X244933Y267577D02*
X244938Y267580D01*
X247943Y262041D02*
X247949Y262044D01*
X244654Y267416D02*
X244660Y267419D01*
X247665Y261880D02*
X247670Y261883D01*
X244376Y267255D02*
X244382Y267259D01*
X247386Y261720D02*
X247392Y261723D01*
X244098Y267095D02*
X244103Y267098D01*
X247108Y261559D02*
X247113Y261562D01*
X243819Y266934D02*
X243825Y266937D01*
X246829Y261398D02*
X246835Y261401D01*
X243541Y266773D02*
X243547Y266776D01*
X244736Y261576D02*
X244842Y261515D01*
X245007Y261420D02*
X245014Y261415D01*
X171548Y241423D02*
Y241923D01*
Y240923D02*
Y241423D01*
X170548Y242423D02*
X171048D01*
X170048D02*
X170548D01*
X171548Y242923D02*
Y243423D01*
Y243923D01*
X164700Y237189D02*
X171385Y241354D01*
X164700Y242435D02*
X170385Y242492D01*
X164700Y248394D02*
X171396Y243514D01*
X178031Y258407D02*
X179531D01*
X171997Y248451D02*
X178031Y258407D01*
X183498Y257190D02*
X183752D01*
Y258514D01*
X183498D02*
X183752D01*
X180191Y257190D02*
X180444D01*
X180191D02*
Y258514D01*
X180444D01*
X177441Y236831D02*
X178941D01*
X173832Y240255D02*
X177441Y236831D01*
X183734Y236732D02*
X183903D01*
X183734Y235608D02*
X183903D01*
Y236732D01*
X180175D02*
X180343D01*
X180175Y235608D02*
X180343D01*
X180175D02*
Y236732D01*
X177441Y248015D02*
X178941D01*
X172273Y243112D02*
X177441Y248015D01*
X183734Y247916D02*
X183903D01*
X183734Y246791D02*
X183903D01*
Y247916D01*
X180175D02*
X180343D01*
X180175Y246791D02*
X180343D01*
X180175D02*
Y247916D01*
X175170Y235878D02*
Y248968D01*
X167926Y235878D02*
Y248968D01*
X230861Y237136D02*
X231861D01*
X230861Y236136D02*
Y237136D01*
X229861D02*
X230861D01*
Y238136D01*
Y247711D02*
X231861D01*
X230861Y246711D02*
Y247711D01*
X229861D02*
X230861D01*
Y248711D01*
X244180Y235878D02*
Y240930D01*
Y243916D02*
Y248968D01*
X234983Y235878D02*
X244880D01*
X234983Y248968D02*
X244880D01*
X245707Y241099D02*
X245961D01*
Y242423D01*
X245707D02*
X245961D01*
X242400Y241099D02*
X242653D01*
X242400D02*
Y242423D01*
X242653D01*
X224452Y256614D02*
X225952D01*
X230100Y249090D01*
X223539Y255396D02*
X223793D01*
Y256720D01*
X223539D02*
X223793D01*
X220232Y255396D02*
X220485D01*
X220232D02*
Y256720D01*
X220485D01*
X238435Y243746D02*
Y247711D01*
Y237136D02*
Y241100D01*
X233227Y247711D02*
X239135D01*
X233227Y237136D02*
X239135D01*
X240130Y242324D02*
X240299D01*
X240130Y241199D02*
X240299D01*
Y242324D01*
X236570D02*
X236739D01*
X236570Y241199D02*
X236739D01*
X236570D02*
Y242324D01*
X234483Y231006D02*
X236983D01*
X224739D02*
X227239D01*
X234483Y230306D02*
Y234443D01*
X227239Y230306D02*
Y235378D01*
X232556Y230907D02*
X232725D01*
X232556Y229782D02*
X232725D01*
Y230907D01*
X228997D02*
X229165D01*
X228997Y229782D02*
X229165D01*
X228997D02*
Y230907D01*
X250246Y243746D02*
Y249904D01*
Y234943D02*
Y241100D01*
X231361Y249904D02*
X250946D01*
X231361Y234943D02*
X250946D01*
X252009Y242324D02*
X252178D01*
X252009Y241199D02*
X252178D01*
Y242324D01*
X248449D02*
X248618D01*
X248449Y241199D02*
X248618D01*
X248449D02*
Y242324D01*
X227239Y235878D02*
Y248968D01*
X234483Y235878D02*
Y248968D01*
X233781Y241250D02*
X233799Y241289D01*
X228184Y241537D02*
Y243309D01*
Y243757D02*
Y244082D01*
Y240764D02*
Y241171D01*
X228251Y241537D02*
X228472D01*
X228251Y243309D02*
X228472D01*
Y241537D02*
X228641D01*
X228472Y243309D02*
X228641D01*
X228184Y241537D02*
X228251D01*
X228184Y241180D02*
Y241537D01*
Y243309D02*
Y243748D01*
Y243309D02*
X228251D01*
X208120Y232600D02*
X209991D01*
X204045D02*
X206545D01*
X208120Y231900D02*
Y234443D01*
X206545Y231900D02*
Y234443D01*
X214682Y232501D02*
X214851D01*
X214682Y231376D02*
X214851D01*
Y232501D01*
X211123D02*
X211292D01*
X211123Y231376D02*
X211292D01*
X211123D02*
Y232501D01*
X201427Y253841D02*
X203927D01*
X190265D02*
X192765D01*
X201427Y246073D02*
Y254541D01*
X192765Y244100D02*
Y254541D01*
X198791Y253741D02*
X198960D01*
X198791Y252617D02*
X198960D01*
Y253741D01*
X195232D02*
X195401D01*
X195232Y252617D02*
X195401D01*
X195232D02*
Y253741D01*
X209895Y252256D02*
X212372D01*
X201427D02*
X203903D01*
X212372Y245470D02*
Y252956D01*
X201427Y246073D02*
Y252956D01*
X208595Y252157D02*
X208764D01*
X208595Y251032D02*
X208764D01*
Y252157D01*
X205035D02*
X205204D01*
X205035Y251032D02*
X205204D01*
X205035D02*
Y252157D01*
X206545Y228644D02*
X209045D01*
X198927D02*
X201427D01*
X206545Y227944D02*
Y234443D01*
X201427Y227944D02*
Y238774D01*
X205681Y228544D02*
X205850D01*
X205681Y227420D02*
X205850D01*
Y228544D01*
X202122D02*
X202291D01*
X202122Y227420D02*
X202291D01*
X202122D02*
Y228544D01*
X192765Y242246D02*
Y242423D01*
Y242600D01*
Y241246D02*
Y241423D01*
Y241600D01*
Y243246D02*
Y243423D01*
Y243600D01*
X211230Y241548D02*
Y243298D01*
X211387Y241537D02*
Y243309D01*
X212372Y241537D02*
Y243309D01*
X212214Y241537D02*
Y243309D01*
X209695Y241286D02*
Y241769D01*
Y243077D02*
Y243365D01*
X211368Y241537D02*
X212308D01*
X211368Y243309D02*
X212308D01*
X208907Y243077D02*
X209695D01*
X208907Y241769D02*
X209695D01*
X210266Y244082D02*
X210274D01*
X209942Y240764D02*
X209950D01*
X211910D02*
X211918D01*
X211054Y244082D02*
X211062D01*
X210729Y240764D02*
X210737D01*
X210660Y244082D02*
X210668D01*
X210335Y240764D02*
X210343D01*
X209873Y244082D02*
X209880D01*
X211841D02*
X211849D01*
X211517Y240764D02*
X211524D01*
X211447Y244082D02*
X211455D01*
X211123Y240764D02*
X211131D01*
X212159Y241242D02*
X212176Y241180D01*
X212308Y241537D02*
X212372D01*
X212176Y241180D02*
X212180Y240896D01*
X212184Y240632D01*
X212188Y240390D01*
X212192Y240172D01*
X212197Y239982D01*
X212201Y239823D01*
X212206Y239695D01*
X212210Y239600D01*
X211978Y239274D02*
Y239281D01*
X212293Y243354D02*
X212308Y243309D01*
X212372D01*
Y245179D01*
Y239667D02*
Y241537D01*
X209833Y245339D02*
X209840Y245198D01*
X209846Y245027D01*
X209853Y244828D01*
X209860Y244602D01*
X209873Y244082D01*
X211918Y240764D02*
X211924Y240525D01*
X211929Y240299D01*
X211935Y240088D01*
X211942Y239896D01*
X211948Y239727D01*
X211954Y239582D01*
X211960Y239465D01*
X212098Y241492D02*
X212105Y241177D01*
X212112Y240881D01*
X212119Y240607D01*
X212127Y240359D01*
X212135Y240141D01*
X212143Y239956D01*
X212150Y239806D01*
X212106Y245371D02*
X212110Y245276D01*
X212115Y245146D01*
X212119Y244982D01*
X212124Y244787D01*
X212128Y244564D01*
X212132Y244314D01*
X212141Y243748D01*
X211910Y240764D02*
X211922Y240272D01*
X211928Y240056D01*
X211935Y239863D01*
X211941Y239695D01*
X211948Y239554D01*
X211954Y239440D01*
X210737Y240764D02*
X210743Y240493D01*
X210750Y240244D01*
X210756Y240018D01*
X210763Y239819D01*
X210770Y239648D01*
X210777Y239508D01*
X211016Y245432D02*
X211023Y245320D01*
X211029Y245177D01*
X211036Y245003D01*
X211043Y244803D01*
X211049Y244580D01*
X211062Y244082D01*
X210917Y241492D02*
X210924Y241177D01*
X210931Y240881D01*
X210938Y240607D01*
X210946Y240359D01*
X210954Y240141D01*
X210962Y239956D01*
X210969Y239806D01*
X211215Y245040D02*
X211223Y244890D01*
X211231Y244705D01*
X211238Y244487D01*
X211246Y244239D01*
X211253Y243965D01*
X211267Y243355D01*
X211123Y240764D02*
X211129Y240508D01*
X211135Y240266D01*
X211141Y240043D01*
X211148Y239843D01*
X211155Y239670D01*
X211162Y239526D01*
X211168Y239414D01*
X211407Y245339D02*
X211414Y245198D01*
X211421Y245027D01*
X211428Y244828D01*
X211435Y244602D01*
X211447Y244082D01*
X211524Y240764D02*
X211531Y240493D01*
X211537Y240244D01*
X211544Y240018D01*
X211551Y239819D01*
X211557Y239648D01*
X211564Y239508D01*
X211803Y245432D02*
X211810Y245320D01*
X211817Y245177D01*
X211824Y245003D01*
X211830Y244803D01*
X211837Y244580D01*
X211849Y244082D01*
X211704Y241492D02*
X211712Y241177D01*
X211719Y240881D01*
X211726Y240607D01*
X211733Y240359D01*
X211741Y240141D01*
X211749Y239956D01*
X211757Y239806D01*
X212002Y245040D02*
X212010Y244890D01*
X212018Y244705D01*
X212026Y244487D01*
X212033Y244239D01*
X212041Y243965D01*
X212055Y243355D01*
X209950Y240764D02*
X209956Y240493D01*
X209962Y240244D01*
X209969Y240018D01*
X209976Y239819D01*
X209983Y239648D01*
X209990Y239508D01*
X210229Y245432D02*
X210235Y245320D01*
X210242Y245177D01*
X210249Y245003D01*
X210256Y244803D01*
X210262Y244580D01*
X210274Y244082D01*
X210130Y241492D02*
X210137Y241177D01*
X210144Y240881D01*
X210151Y240607D01*
X210159Y240359D01*
X210166Y240141D01*
X210174Y239956D01*
X210182Y239806D01*
X210428Y245040D02*
X210435Y244890D01*
X210443Y244705D01*
X210451Y244487D01*
X210459Y244239D01*
X210466Y243965D01*
X210480Y243355D01*
X210335Y240764D02*
X210341Y240508D01*
X210348Y240266D01*
X210354Y240043D01*
X210361Y239843D01*
X210368Y239670D01*
X210374Y239526D01*
X210381Y239414D01*
X210620Y245339D02*
X210627Y245198D01*
X210634Y245027D01*
X210641Y244828D01*
X210647Y244602D01*
X210660Y244082D01*
X209942Y240764D02*
X209948Y240508D01*
X209954Y240266D01*
X209960Y240043D01*
X209967Y239843D01*
X209974Y239670D01*
X209981Y239526D01*
X209987Y239414D01*
X210226Y245339D02*
X210233Y245198D01*
X210240Y245027D01*
X210247Y244828D01*
X210254Y244602D01*
X210266Y244082D01*
X211131Y240764D02*
X211137Y240493D01*
X211143Y240244D01*
X211150Y240018D01*
X211157Y239819D01*
X211164Y239648D01*
X211171Y239508D01*
X211410Y245432D02*
X211416Y245320D01*
X211423Y245177D01*
X211430Y245003D01*
X211437Y244803D01*
X211443Y244580D01*
X211455Y244082D01*
X209695Y239396D02*
Y241286D01*
X209835Y245432D02*
X209842Y245320D01*
X209848Y245177D01*
X209855Y245003D01*
X209862Y244803D01*
X209868Y244580D01*
X209880Y244082D01*
X209736Y241492D02*
X209743Y241177D01*
X209750Y240881D01*
X209757Y240607D01*
X209765Y240359D01*
X209773Y240141D01*
X209780Y239956D01*
X209788Y239806D01*
X210034Y245040D02*
X210042Y244890D01*
X210050Y244705D01*
X210057Y244487D01*
X210065Y244239D01*
X210072Y243965D01*
X210086Y243355D01*
X211311Y241492D02*
X211318Y241177D01*
X211325Y240881D01*
X211332Y240607D01*
X211340Y240359D01*
X211347Y240141D01*
X211355Y239956D01*
X211363Y239806D01*
X211609Y245040D02*
X211617Y244890D01*
X211624Y244705D01*
X211632Y244487D01*
X211640Y244239D01*
X211647Y243965D01*
X211661Y243355D01*
X211517Y240764D02*
X211522Y240508D01*
X211529Y240266D01*
X211535Y240043D01*
X211542Y239843D01*
X211549Y239670D01*
X211555Y239526D01*
X211562Y239414D01*
X211801Y245339D02*
X211808Y245198D01*
X211815Y245027D01*
X211822Y244828D01*
X211828Y244602D01*
X211841Y244082D01*
X210729Y240764D02*
X210735Y240508D01*
X210741Y240266D01*
X210748Y240043D01*
X210754Y239843D01*
X210761Y239670D01*
X210768Y239526D01*
X210775Y239414D01*
X211014Y245339D02*
X211021Y245198D01*
X211027Y245027D01*
X211034Y244828D01*
X211041Y244602D01*
X211054Y244082D01*
X210343Y240764D02*
X210350Y240493D01*
X210356Y240244D01*
X210363Y240018D01*
X210370Y239819D01*
X210376Y239648D01*
X210383Y239508D01*
X210622Y245432D02*
X210629Y245320D01*
X210636Y245177D01*
X210643Y245003D01*
X210649Y244803D01*
X210656Y244580D01*
X210668Y244082D01*
X210523Y241492D02*
X210530Y241177D01*
X210537Y240881D01*
X210545Y240607D01*
X210552Y240359D01*
X210560Y240141D01*
X210568Y239956D01*
X210576Y239806D01*
X210821Y245040D02*
X210829Y244890D01*
X210837Y244705D01*
X210845Y244487D01*
X210852Y244239D01*
X210860Y243965D01*
X210874Y243355D01*
X201427Y239274D02*
Y242423D01*
Y245573D01*
X208907Y238919D02*
Y245927D01*
X206545Y235878D02*
Y248968D01*
X208120Y235878D02*
Y248968D01*
X206545Y234943D02*
Y235878D01*
X208120Y234943D02*
Y235878D01*
X206545D02*
X208120D01*
X206545Y248968D02*
Y249904D01*
Y248968D02*
X208120D01*
Y249904D01*
X192765Y242246D02*
X201427D01*
X192765Y242600D02*
X201427D01*
X192765Y241246D02*
X201427D01*
X192765Y241600D02*
X201427D01*
X192765Y243246D02*
X201427D01*
X192765Y243600D02*
X201427D01*
X208907Y239667D02*
X209695D01*
X208907Y245179D02*
X209695D01*
X210202Y245573D02*
X210210D01*
X210006Y239274D02*
X210013D01*
X210990Y245573D02*
X210998D01*
X210793Y239274D02*
X210801D01*
X210596Y245573D02*
X210604D01*
X210399Y239274D02*
X210407D01*
X209809Y245573D02*
X209817D01*
X211777D02*
X211785D01*
X211580Y239274D02*
X211588D01*
X211384Y245573D02*
X211391D01*
X211187Y239274D02*
X211195D01*
X212214Y239523D02*
X212218Y239516D01*
X212209Y239531D02*
X212214Y239523D01*
X212205Y239538D02*
X212209Y239531D01*
X212200Y239546D02*
X212205Y239538D01*
X212196Y239553D02*
X212200Y239546D01*
X212191Y239561D02*
X212196Y239553D01*
X212187Y239568D02*
X212191Y239561D01*
X212182Y239575D02*
X212187Y239568D01*
X212173Y239590D02*
X212182Y239575D01*
X212098Y245453D02*
X212372Y245179D01*
X211978Y239274D02*
X211988Y239284D01*
X212221Y239517D02*
X212372Y239667D01*
X209694Y245386D02*
X209705Y245405D01*
X209716Y245423D01*
X209728Y245442D01*
X209739Y245460D01*
X209750Y245479D01*
X209762Y245497D01*
X209773Y245516D01*
X209784Y245534D01*
X209807Y245571D01*
X212157Y239557D02*
X212175Y239587D01*
X212139Y239528D02*
X212157Y239557D01*
X212120Y239498D02*
X212139Y239528D01*
X212102Y239469D02*
X212120Y239498D01*
X212084Y239439D02*
X212102Y239469D01*
X212066Y239409D02*
X212084Y239439D01*
X212048Y239380D02*
X212066Y239409D01*
X212030Y239350D02*
X212048Y239380D01*
X211994Y239291D02*
X212030Y239350D01*
X211953Y239307D02*
X211972Y239275D01*
X211934Y239338D02*
X211953Y239307D01*
X211914Y239370D02*
X211934Y239338D01*
X211895Y239401D02*
X211914Y239370D01*
X211876Y239433D02*
X211895Y239401D01*
X211856Y239464D02*
X211876Y239433D01*
X211837Y239496D02*
X211856Y239464D01*
X211818Y239527D02*
X211837Y239496D01*
X211779Y239590D02*
X211818Y239527D01*
X211978Y245259D02*
X211990Y245279D01*
X212001Y245298D01*
X212013Y245317D01*
X212025Y245336D01*
X212037Y245355D01*
X212048Y245374D01*
X212060Y245393D01*
X212072Y245413D01*
X212095Y245451D01*
X210975Y239556D02*
X210994Y239587D01*
X210956Y239525D02*
X210975Y239556D01*
X210936Y239493D02*
X210956Y239525D01*
X210917Y239462D02*
X210936Y239493D01*
X210898Y239431D02*
X210917Y239462D01*
X210879Y239400D02*
X210898Y239431D01*
X210860Y239369D02*
X210879Y239400D01*
X210841Y239337D02*
X210860Y239369D01*
X210803Y239275D02*
X210841Y239337D01*
X210999Y245571D02*
X211019Y245540D01*
X211038Y245508D01*
X211057Y245477D01*
X211077Y245445D01*
X211096Y245414D01*
X211115Y245382D01*
X211135Y245351D01*
X211154Y245319D01*
X211193Y245256D01*
X211166Y239307D02*
X211185Y239275D01*
X211146Y239338D02*
X211166Y239307D01*
X211127Y239370D02*
X211146Y239338D01*
X211108Y239401D02*
X211127Y239370D01*
X211088Y239433D02*
X211108Y239401D01*
X211069Y239464D02*
X211088Y239433D01*
X211050Y239496D02*
X211069Y239464D01*
X211030Y239527D02*
X211050Y239496D01*
X210992Y239590D02*
X211030Y239527D01*
X211191Y245259D02*
X211210Y245291D01*
X211229Y245322D01*
X211248Y245353D01*
X211267Y245384D01*
X211286Y245415D01*
X211305Y245447D01*
X211324Y245478D01*
X211344Y245509D01*
X211382Y245571D01*
X211762Y239556D02*
X211781Y239587D01*
X211743Y239525D02*
X211762Y239556D01*
X211724Y239493D02*
X211743Y239525D01*
X211705Y239462D02*
X211724Y239493D01*
X211686Y239431D02*
X211705Y239462D01*
X211666Y239400D02*
X211686Y239431D01*
X211647Y239369D02*
X211666Y239400D01*
X211628Y239337D02*
X211647Y239369D01*
X211590Y239275D02*
X211628Y239337D01*
X211787Y245571D02*
X211806Y245540D01*
X211825Y245508D01*
X211845Y245477D01*
X211864Y245445D01*
X211883Y245414D01*
X211903Y245382D01*
X211922Y245351D01*
X211941Y245319D01*
X211980Y245256D01*
X210187Y239556D02*
X210206Y239587D01*
X210168Y239525D02*
X210187Y239556D01*
X210149Y239493D02*
X210168Y239525D01*
X210130Y239462D02*
X210149Y239493D01*
X210111Y239431D02*
X210130Y239462D01*
X210092Y239400D02*
X210111Y239431D01*
X210073Y239369D02*
X210092Y239400D01*
X210053Y239337D02*
X210073Y239369D01*
X210015Y239275D02*
X210053Y239337D01*
X210212Y245571D02*
X210231Y245540D01*
X210251Y245508D01*
X210270Y245477D01*
X210289Y245445D01*
X210309Y245414D01*
X210328Y245382D01*
X210347Y245351D01*
X210367Y245319D01*
X210405Y245256D01*
X210378Y239307D02*
X210398Y239275D01*
X210359Y239338D02*
X210378Y239307D01*
X210340Y239370D02*
X210359Y239338D01*
X210320Y239401D02*
X210340Y239370D01*
X210301Y239433D02*
X210320Y239401D01*
X210282Y239464D02*
X210301Y239433D01*
X210262Y239496D02*
X210282Y239464D01*
X210243Y239527D02*
X210262Y239496D01*
X210204Y239590D02*
X210243Y239527D01*
X210403Y245259D02*
X210422Y245291D01*
X210441Y245322D01*
X210461Y245353D01*
X210480Y245384D01*
X210499Y245415D01*
X210518Y245447D01*
X210537Y245478D01*
X210556Y245509D01*
X210594Y245571D01*
X209985Y239307D02*
X210004Y239275D01*
X209965Y239338D02*
X209985Y239307D01*
X209946Y239370D02*
X209965Y239338D01*
X209927Y239401D02*
X209946Y239370D01*
X209907Y239433D02*
X209927Y239401D01*
X209888Y239464D02*
X209907Y239433D01*
X209869Y239496D02*
X209888Y239464D01*
X209849Y239527D02*
X209869Y239496D01*
X209811Y239590D02*
X209849Y239527D01*
X210010Y245259D02*
X210029Y245291D01*
X210048Y245322D01*
X210067Y245353D01*
X210086Y245384D01*
X210105Y245415D01*
X210124Y245447D01*
X210143Y245478D01*
X210162Y245509D01*
X210201Y245571D01*
X211368Y239556D02*
X211387Y239587D01*
X211349Y239525D02*
X211368Y239556D01*
X211330Y239493D02*
X211349Y239525D01*
X211311Y239462D02*
X211330Y239493D01*
X211292Y239431D02*
X211311Y239462D01*
X211273Y239400D02*
X211292Y239431D01*
X211254Y239369D02*
X211273Y239400D01*
X211235Y239337D02*
X211254Y239369D01*
X211196Y239275D02*
X211235Y239337D01*
X211393Y245571D02*
X211412Y245540D01*
X211432Y245508D01*
X211451Y245477D01*
X211470Y245445D01*
X211490Y245414D01*
X211509Y245382D01*
X211528Y245351D01*
X211548Y245319D01*
X211586Y245256D01*
X209801Y239568D02*
X209813Y239587D01*
X209789Y239549D02*
X209801Y239568D01*
X209778Y239530D02*
X209789Y239549D01*
X209766Y239511D02*
X209778Y239530D01*
X209754Y239491D02*
X209766Y239511D01*
X209742Y239472D02*
X209754Y239491D01*
X209731Y239453D02*
X209742Y239472D01*
X209719Y239434D02*
X209731Y239453D01*
X209695Y239396D02*
X209719Y239434D01*
X209818Y245571D02*
X209838Y245540D01*
X209857Y245508D01*
X209876Y245477D01*
X209896Y245445D01*
X209915Y245414D01*
X209934Y245382D01*
X209954Y245351D01*
X209973Y245319D01*
X210011Y245256D01*
X211559Y239307D02*
X211579Y239275D01*
X211540Y239338D02*
X211559Y239307D01*
X211521Y239370D02*
X211540Y239338D01*
X211501Y239401D02*
X211521Y239370D01*
X211482Y239433D02*
X211501Y239401D01*
X211463Y239464D02*
X211482Y239433D01*
X211443Y239496D02*
X211463Y239464D01*
X211424Y239527D02*
X211443Y239496D01*
X211386Y239590D02*
X211424Y239527D01*
X211584Y245259D02*
X211603Y245291D01*
X211623Y245322D01*
X211642Y245353D01*
X211661Y245384D01*
X211680Y245415D01*
X211699Y245447D01*
X211718Y245478D01*
X211737Y245509D01*
X211775Y245571D01*
X210772Y239307D02*
X210791Y239275D01*
X210753Y239338D02*
X210772Y239307D01*
X210733Y239370D02*
X210753Y239338D01*
X210714Y239401D02*
X210733Y239370D01*
X210695Y239433D02*
X210714Y239401D01*
X210675Y239464D02*
X210695Y239433D01*
X210656Y239496D02*
X210675Y239464D01*
X210637Y239527D02*
X210656Y239496D01*
X210598Y239590D02*
X210637Y239527D01*
X210797Y245259D02*
X210816Y245291D01*
X210835Y245322D01*
X210854Y245353D01*
X210873Y245384D01*
X210893Y245415D01*
X210912Y245447D01*
X210931Y245478D01*
X210950Y245509D01*
X210988Y245571D01*
X210581Y239556D02*
X210600Y239587D01*
X210562Y239525D02*
X210581Y239556D01*
X210543Y239493D02*
X210562Y239525D01*
X210524Y239462D02*
X210543Y239493D01*
X210504Y239431D02*
X210524Y239462D01*
X210485Y239400D02*
X210504Y239431D01*
X210466Y239369D02*
X210485Y239400D01*
X210447Y239337D02*
X210466Y239369D01*
X210409Y239275D02*
X210447Y239337D01*
X210606Y245571D02*
X210625Y245540D01*
X210644Y245508D01*
X210664Y245477D01*
X210683Y245445D01*
X210702Y245414D01*
X210722Y245382D01*
X210741Y245351D01*
X210760Y245319D01*
X210799Y245256D01*
X201427Y239274D02*
X206545D01*
X201427Y245573D02*
X206545D01*
X208120Y245927D02*
X208907D01*
X208120Y238919D02*
X208907D01*
X206545Y234943D02*
X208120D01*
X206545Y249904D02*
X208120D01*
X239950Y202947D02*
Y206785D01*
X238031Y204866D02*
X241869D01*
X243700Y205562D02*
X246700Y206366D01*
Y203366D02*
Y206366D01*
X243700Y204169D02*
X246700Y203366D01*
X243700Y204169D02*
Y205562D01*
X243360Y204866D02*
X247028D01*
X238588Y201100D02*
X263095D01*
Y205174D02*
Y210998D01*
X238588Y205174D02*
X263095D01*
X260016Y194899D02*
Y198056D01*
X221222Y205174D02*
X238588D01*
X221222Y194277D02*
Y205174D01*
Y194277D02*
X238588D01*
X221222D02*
Y196141D01*
X253551Y191656D02*
Y194899D01*
X231687Y196141D02*
Y201602D01*
X226931Y196141D02*
Y201602D01*
X221222Y199760D02*
X238588D01*
X221222Y197962D02*
X238588D01*
Y194899D02*
X263095D01*
X221222Y201602D02*
X238588D01*
Y191656D02*
Y205174D01*
Y198056D02*
X263095D01*
X221222Y191656D02*
Y201602D01*
Y196141D02*
Y201602D01*
Y196141D02*
X238588D01*
X263095Y191656D02*
Y275806D01*
X154272Y191656D02*
X263095D01*
X154272D02*
Y275806D01*
X263095D01*
X244282Y211067D02*
Y227367D01*
X243053Y219820D02*
X244282D01*
X243053Y218614D02*
X245512D01*
X244282Y219820D02*
X245512D01*
X244282Y218614D02*
X245512Y219820D01*
X243053D02*
X244282Y218614D01*
X237920Y217599D02*
X240282D01*
X237920Y215237D02*
Y217599D01*
X236691Y215237D02*
X237920Y214030D01*
X239150Y215237D01*
X237920D02*
X239150D01*
X236691D02*
X237920D01*
X159360Y237660D02*
Y238493D01*
X159776D01*
X159915Y238355D01*
Y238077D01*
X159776Y237938D01*
X159360D01*
X160193Y238493D02*
X160471D01*
X160332D01*
Y237660D01*
X160193D01*
X160471D01*
X160887D02*
Y238493D01*
X161443Y237660D01*
Y238493D01*
X162553Y237660D02*
X162831D01*
X162692D01*
Y238493D01*
X162553Y238355D01*
X159398Y242906D02*
Y243739D01*
X159815D01*
X159954Y243600D01*
Y243322D01*
X159815Y243183D01*
X159398D01*
X160231Y243739D02*
X160509D01*
X160370D01*
Y242906D01*
X160231D01*
X160509D01*
X160926D02*
Y243739D01*
X161481Y242906D01*
Y243739D01*
X163147Y242906D02*
X162592D01*
X163147Y243461D01*
Y243600D01*
X163008Y243739D01*
X162731D01*
X162592Y243600D01*
X159360Y248844D02*
Y249677D01*
X159776D01*
X159915Y249538D01*
Y249260D01*
X159776Y249121D01*
X159360D01*
X160193Y249677D02*
X160471D01*
X160332D01*
Y248844D01*
X160193D01*
X160471D01*
X160887D02*
Y249677D01*
X161443Y248844D01*
Y249677D01*
X162553Y249538D02*
X162692Y249677D01*
X162970D01*
X163109Y249538D01*
Y249399D01*
X162970Y249260D01*
X162831D01*
X162970D01*
X163109Y249121D01*
Y248983D01*
X162970Y248844D01*
X162692D01*
X162553Y248983D01*
X180444Y258958D02*
X180583Y259097D01*
X180861D01*
X180999Y258958D01*
Y258403D01*
X180861Y258264D01*
X180583D01*
X180444Y258403D01*
Y258958D01*
X181277Y258264D02*
Y258403D01*
X181416D01*
Y258264D01*
X181277D01*
X181971Y258958D02*
X182110Y259097D01*
X182388D01*
X182527Y258958D01*
Y258403D01*
X182388Y258264D01*
X182110D01*
X181971Y258403D01*
Y258958D01*
X182804Y258403D02*
X182943Y258264D01*
X183221D01*
X183360Y258403D01*
Y258958D01*
X183221Y259097D01*
X182943D01*
X182804Y258958D01*
Y258819D01*
X182943Y258680D01*
X183360D01*
X183638Y258264D02*
X183915D01*
X183776D01*
Y258819D01*
X183638D01*
X184332Y258264D02*
Y258819D01*
X184748D01*
X184887Y258680D01*
Y258264D01*
X181344Y259757D02*
X180789D01*
X181344Y260312D01*
Y260451D01*
X181206Y260590D01*
X180928D01*
X180789Y260451D01*
X181622Y259757D02*
Y259896D01*
X181761D01*
Y259757D01*
X181622D01*
X182872D02*
X182316D01*
X182872Y260312D01*
Y260451D01*
X182733Y260590D01*
X182455D01*
X182316Y260451D01*
X183149Y259757D02*
Y260312D01*
X183288D01*
X183427Y260173D01*
Y259757D01*
Y260173D01*
X183566Y260312D01*
X183705Y260173D01*
Y259757D01*
X183982D02*
Y260312D01*
X184121D01*
X184260Y260173D01*
Y259757D01*
Y260173D01*
X184399Y260312D01*
X184538Y260173D01*
Y259757D01*
X180512Y237277D02*
X180651Y237416D01*
X180929D01*
X181068Y237277D01*
Y236721D01*
X180929Y236583D01*
X180651D01*
X180512Y236721D01*
Y237277D01*
X181345Y236583D02*
Y236721D01*
X181484D01*
Y236583D01*
X181345D01*
X182040Y237277D02*
X182178Y237416D01*
X182456D01*
X182595Y237277D01*
Y237138D01*
X182456Y236999D01*
X182317D01*
X182456D01*
X182595Y236860D01*
Y236721D01*
X182456Y236583D01*
X182178D01*
X182040Y236721D01*
X182873Y236583D02*
X183150D01*
X183012D01*
Y237416D01*
X182873Y237277D01*
X183567Y236583D02*
X183845D01*
X183706D01*
Y237138D01*
X183567D01*
X184261Y236583D02*
Y237138D01*
X184678D01*
X184817Y236999D01*
Y236583D01*
X180824Y238600D02*
X180963Y238739D01*
X181240D01*
X181379Y238600D01*
Y238461D01*
X181240Y238322D01*
X181379Y238183D01*
Y238045D01*
X181240Y237906D01*
X180963D01*
X180824Y238045D01*
Y238183D01*
X180963Y238322D01*
X180824Y238461D01*
Y238600D01*
X180963Y238322D02*
X181240D01*
X181657Y237906D02*
Y238045D01*
X181796D01*
Y237906D01*
X181657D01*
X182351Y238600D02*
X182490Y238739D01*
X182768D01*
X182906Y238600D01*
Y238045D01*
X182768Y237906D01*
X182490D01*
X182351Y238045D01*
Y238600D01*
X183184Y237906D02*
Y238461D01*
X183323D01*
X183462Y238322D01*
Y237906D01*
Y238322D01*
X183601Y238461D01*
X183739Y238322D01*
Y237906D01*
X184017D02*
Y238461D01*
X184156D01*
X184295Y238322D01*
Y237906D01*
Y238322D01*
X184434Y238461D01*
X184573Y238322D01*
Y237906D01*
X180512Y248460D02*
X180651Y248599D01*
X180929D01*
X181068Y248460D01*
Y247905D01*
X180929Y247766D01*
X180651D01*
X180512Y247905D01*
Y248460D01*
X181345Y247766D02*
Y247905D01*
X181484D01*
Y247766D01*
X181345D01*
X182040D02*
X182317D01*
X182178D01*
Y248599D01*
X182040Y248460D01*
X182734D02*
X182873Y248599D01*
X183150D01*
X183289Y248460D01*
Y247905D01*
X183150Y247766D01*
X182873D01*
X182734Y247905D01*
Y248460D01*
X183567Y247766D02*
X183845D01*
X183706D01*
Y248321D01*
X183567D01*
X184261Y247766D02*
Y248321D01*
X184678D01*
X184817Y248183D01*
Y247766D01*
X181379Y249089D02*
X180824D01*
X181379Y249644D01*
Y249783D01*
X181240Y249922D01*
X180963D01*
X180824Y249783D01*
X181657Y249089D02*
Y249228D01*
X181796D01*
Y249089D01*
X181657D01*
X182906Y249922D02*
X182351D01*
Y249506D01*
X182629Y249644D01*
X182768D01*
X182906Y249506D01*
Y249228D01*
X182768Y249089D01*
X182490D01*
X182351Y249228D01*
X183184Y249089D02*
Y249644D01*
X183323D01*
X183462Y249506D01*
Y249089D01*
Y249506D01*
X183601Y249644D01*
X183739Y249506D01*
Y249089D01*
X184017D02*
Y249644D01*
X184156D01*
X184295Y249506D01*
Y249089D01*
Y249506D01*
X184434Y249644D01*
X184573Y249506D01*
Y249089D01*
X242653Y242868D02*
X242792Y243006D01*
X243070D01*
X243208Y242868D01*
Y242312D01*
X243070Y242173D01*
X242792D01*
X242653Y242312D01*
Y242868D01*
X243486Y242173D02*
Y242312D01*
X243625D01*
Y242173D01*
X243486D01*
X244736Y243006D02*
X244458Y242868D01*
X244180Y242590D01*
Y242312D01*
X244319Y242173D01*
X244597D01*
X244736Y242312D01*
Y242451D01*
X244597Y242590D01*
X244180D01*
X245569Y243006D02*
X245013D01*
Y242590D01*
X245291Y242729D01*
X245430D01*
X245569Y242590D01*
Y242312D01*
X245430Y242173D01*
X245152D01*
X245013Y242312D01*
X245847Y242173D02*
X246124D01*
X245985D01*
Y242729D01*
X245847D01*
X246541Y242173D02*
Y242729D01*
X246957D01*
X247096Y242590D01*
Y242173D01*
X242061Y243666D02*
X242339D01*
X242200D01*
Y244499D01*
X242061Y244361D01*
X243311Y244499D02*
X243033Y244361D01*
X242756Y244083D01*
Y243805D01*
X242894Y243666D01*
X243172D01*
X243311Y243805D01*
Y243944D01*
X243172Y244083D01*
X242756D01*
X243589Y243666D02*
Y243805D01*
X243727D01*
Y243666D01*
X243589D01*
X244838Y244499D02*
X244560Y244361D01*
X244283Y244083D01*
Y243805D01*
X244422Y243666D01*
X244699D01*
X244838Y243805D01*
Y243944D01*
X244699Y244083D01*
X244283D01*
X245116Y243666D02*
Y244222D01*
X245255D01*
X245394Y244083D01*
Y243666D01*
Y244083D01*
X245532Y244222D01*
X245671Y244083D01*
Y243666D01*
X245949D02*
Y244222D01*
X246088D01*
X246227Y244083D01*
Y243666D01*
Y244083D01*
X246365Y244222D01*
X246504Y244083D01*
Y243666D01*
X220485Y257165D02*
X220624Y257304D01*
X220902D01*
X221041Y257165D01*
Y256609D01*
X220902Y256471D01*
X220624D01*
X220485Y256609D01*
Y257165D01*
X221318Y256471D02*
Y256609D01*
X221457D01*
Y256471D01*
X221318D01*
X222012D02*
X222290D01*
X222151D01*
Y257304D01*
X222012Y257165D01*
X223262Y257304D02*
X222984Y257165D01*
X222707Y256887D01*
Y256609D01*
X222845Y256471D01*
X223123D01*
X223262Y256609D01*
Y256748D01*
X223123Y256887D01*
X222707D01*
X223540Y256471D02*
X223817D01*
X223679D01*
Y257026D01*
X223540D01*
X224234Y256471D02*
Y257026D01*
X224650D01*
X224789Y256887D01*
Y256471D01*
X221247Y257964D02*
Y258797D01*
X220830Y258380D01*
X221385D01*
X221663Y257964D02*
Y258102D01*
X221802D01*
Y257964D01*
X221663D01*
X222357Y258658D02*
X222496Y258797D01*
X222774D01*
X222913Y258658D01*
Y258102D01*
X222774Y257964D01*
X222496D01*
X222357Y258102D01*
Y258658D01*
X223190Y257964D02*
Y258519D01*
X223329D01*
X223468Y258380D01*
Y257964D01*
Y258380D01*
X223607Y258519D01*
X223746Y258380D01*
Y257964D01*
X224024D02*
Y258519D01*
X224162D01*
X224301Y258380D01*
Y257964D01*
Y258380D01*
X224440Y258519D01*
X224579Y258380D01*
Y257964D01*
X236908Y242869D02*
X237047Y243007D01*
X237325D01*
X237464Y242869D01*
Y242313D01*
X237325Y242174D01*
X237047D01*
X236908Y242313D01*
Y242869D01*
X237741Y242174D02*
Y242313D01*
X237880D01*
Y242174D01*
X237741D01*
X238991Y243007D02*
X238435D01*
Y242591D01*
X238713Y242730D01*
X238852D01*
X238991Y242591D01*
Y242313D01*
X238852Y242174D01*
X238574D01*
X238435Y242313D01*
X239268Y242869D02*
X239407Y243007D01*
X239685D01*
X239824Y242869D01*
Y242730D01*
X239685Y242591D01*
X239546D01*
X239685D01*
X239824Y242452D01*
Y242313D01*
X239685Y242174D01*
X239407D01*
X239268Y242313D01*
X240102Y242174D02*
X240379D01*
X240240D01*
Y242730D01*
X240102D01*
X240796Y242174D02*
Y242730D01*
X241212D01*
X241351Y242591D01*
Y242174D01*
X236316Y243497D02*
X236594D01*
X236455D01*
Y244330D01*
X236316Y244192D01*
X237010D02*
X237149Y244330D01*
X237427D01*
X237566Y244192D01*
Y244053D01*
X237427Y243914D01*
X237288D01*
X237427D01*
X237566Y243775D01*
Y243636D01*
X237427Y243497D01*
X237149D01*
X237010Y243636D01*
X237843Y243497D02*
Y243636D01*
X237982D01*
Y243497D01*
X237843D01*
X238954D02*
Y244330D01*
X238538Y243914D01*
X239093D01*
X239371Y243497D02*
Y244053D01*
X239509D01*
X239648Y243914D01*
Y243497D01*
Y243914D01*
X239787Y244053D01*
X239926Y243914D01*
Y243497D01*
X240204D02*
Y244053D01*
X240343D01*
X240481Y243914D01*
Y243497D01*
Y243914D01*
X240620Y244053D01*
X240759Y243914D01*
Y243497D01*
X229334Y231451D02*
X229473Y231590D01*
X229751D01*
X229890Y231451D01*
Y230896D01*
X229751Y230757D01*
X229473D01*
X229334Y230896D01*
Y231451D01*
X230167Y230757D02*
Y230896D01*
X230306D01*
Y230757D01*
X230167D01*
X230862Y231451D02*
X231000Y231590D01*
X231278D01*
X231417Y231451D01*
Y231312D01*
X231278Y231174D01*
X231139D01*
X231278D01*
X231417Y231035D01*
Y230896D01*
X231278Y230757D01*
X231000D01*
X230862Y230896D01*
X232250Y231590D02*
X231972Y231451D01*
X231695Y231174D01*
Y230896D01*
X231833Y230757D01*
X232111D01*
X232250Y230896D01*
Y231035D01*
X232111Y231174D01*
X231695D01*
X232528Y230757D02*
X232805D01*
X232667D01*
Y231312D01*
X232528D01*
X233222Y230757D02*
Y231312D01*
X233638D01*
X233777Y231174D01*
Y230757D01*
X229050Y232219D02*
X229189Y232080D01*
X229467D01*
X229606Y232219D01*
Y232774D01*
X229467Y232913D01*
X229189D01*
X229050Y232774D01*
Y232635D01*
X229189Y232497D01*
X229606D01*
X229883Y232080D02*
Y232219D01*
X230022D01*
Y232080D01*
X229883D01*
X231133D02*
X230578D01*
X231133Y232635D01*
Y232774D01*
X230994Y232913D01*
X230716D01*
X230578Y232774D01*
X231411Y232080D02*
Y232635D01*
X231549D01*
X231688Y232497D01*
Y232080D01*
Y232497D01*
X231827Y232635D01*
X231966Y232497D01*
Y232080D01*
X232244D02*
Y232635D01*
X232383D01*
X232521Y232497D01*
Y232080D01*
Y232497D01*
X232660Y232635D01*
X232799Y232497D01*
Y232080D01*
X248787Y242869D02*
X248926Y243007D01*
X249203D01*
X249342Y242869D01*
Y242313D01*
X249203Y242174D01*
X248926D01*
X248787Y242313D01*
Y242869D01*
X249620Y242174D02*
Y242313D01*
X249759D01*
Y242174D01*
X249620D01*
X250314Y243007D02*
X250870D01*
Y242869D01*
X250314Y242313D01*
Y242174D01*
X251703Y243007D02*
X251147D01*
Y242591D01*
X251425Y242730D01*
X251564D01*
X251703Y242591D01*
Y242313D01*
X251564Y242174D01*
X251286D01*
X251147Y242313D01*
X251980Y242174D02*
X252258D01*
X252119D01*
Y242730D01*
X251980D01*
X252675Y242174D02*
Y242730D01*
X253091D01*
X253230Y242591D01*
Y242174D01*
X248790Y243497D02*
X249068D01*
X248929D01*
Y244330D01*
X248790Y244192D01*
X249484Y243636D02*
X249623Y243497D01*
X249901D01*
X250040Y243636D01*
Y244192D01*
X249901Y244330D01*
X249623D01*
X249484Y244192D01*
Y244053D01*
X249623Y243914D01*
X250040D01*
X250317Y243497D02*
Y243636D01*
X250456D01*
Y243497D01*
X250317D01*
X251012Y244192D02*
X251151Y244330D01*
X251428D01*
X251567Y244192D01*
Y243636D01*
X251428Y243497D01*
X251151D01*
X251012Y243636D01*
Y244192D01*
X251845Y243497D02*
Y244053D01*
X251984D01*
X252122Y243914D01*
Y243497D01*
Y243914D01*
X252261Y244053D01*
X252400Y243914D01*
Y243497D01*
X252678D02*
Y244053D01*
X252817D01*
X252956Y243914D01*
Y243497D01*
Y243914D01*
X253094Y244053D01*
X253233Y243914D01*
Y243497D01*
X211460Y233045D02*
X211599Y233184D01*
X211877D01*
X212016Y233045D01*
Y232490D01*
X211877Y232351D01*
X211599D01*
X211460Y232490D01*
Y233045D01*
X212294Y232351D02*
Y232490D01*
X212432D01*
Y232351D01*
X212294D01*
X212988Y233045D02*
X213127Y233184D01*
X213404D01*
X213543Y233045D01*
Y232490D01*
X213404Y232351D01*
X213127D01*
X212988Y232490D01*
Y233045D01*
X213821D02*
X213960Y233184D01*
X214237D01*
X214376Y233045D01*
Y232907D01*
X214237Y232768D01*
X214376Y232629D01*
Y232490D01*
X214237Y232351D01*
X213960D01*
X213821Y232490D01*
Y232629D01*
X213960Y232768D01*
X213821Y232907D01*
Y233045D01*
X213960Y232768D02*
X214237D01*
X214654Y232351D02*
X214932D01*
X214793D01*
Y232907D01*
X214654D01*
X215348Y232351D02*
Y232907D01*
X215765D01*
X215903Y232768D01*
Y232351D01*
X211732Y233674D02*
X211176D01*
X211732Y234230D01*
Y234368D01*
X211593Y234507D01*
X211315D01*
X211176Y234368D01*
X212010Y233674D02*
Y233813D01*
X212148D01*
Y233674D01*
X212010D01*
X212704Y234368D02*
X212843Y234507D01*
X213120D01*
X213259Y234368D01*
Y233813D01*
X213120Y233674D01*
X212843D01*
X212704Y233813D01*
Y234368D01*
X213537Y233674D02*
Y234230D01*
X213676D01*
X213814Y234091D01*
Y233674D01*
Y234091D01*
X213953Y234230D01*
X214092Y234091D01*
Y233674D01*
X214370D02*
Y234230D01*
X214509D01*
X214648Y234091D01*
Y233674D01*
Y234091D01*
X214786Y234230D01*
X214925Y234091D01*
Y233674D01*
X195570Y254286D02*
X195709Y254425D01*
X195986D01*
X196125Y254286D01*
Y253730D01*
X195986Y253592D01*
X195709D01*
X195570Y253730D01*
Y254286D01*
X196403Y253592D02*
Y253730D01*
X196542D01*
Y253592D01*
X196403D01*
X197513D02*
Y254425D01*
X197097Y254008D01*
X197652D01*
X197930Y254286D02*
X198069Y254425D01*
X198347D01*
X198485Y254286D01*
Y254147D01*
X198347Y254008D01*
X198208D01*
X198347D01*
X198485Y253869D01*
Y253730D01*
X198347Y253592D01*
X198069D01*
X197930Y253730D01*
X198763Y253592D02*
X199041D01*
X198902D01*
Y254147D01*
X198763D01*
X199457Y253592D02*
Y254147D01*
X199874D01*
X200013Y254008D01*
Y253592D01*
X194978Y254915D02*
X195255D01*
X195116D01*
Y255748D01*
X194978Y255609D01*
X195672Y254915D02*
X195949D01*
X195811D01*
Y255748D01*
X195672Y255609D01*
X196366Y254915D02*
Y255054D01*
X196505D01*
Y254915D01*
X196366D01*
X197060Y255609D02*
X197199Y255748D01*
X197477D01*
X197616Y255609D01*
Y255054D01*
X197477Y254915D01*
X197199D01*
X197060Y255054D01*
Y255609D01*
X197893Y254915D02*
Y255470D01*
X198032D01*
X198171Y255331D01*
Y254915D01*
Y255331D01*
X198310Y255470D01*
X198449Y255331D01*
Y254915D01*
X198726D02*
Y255470D01*
X198865D01*
X199004Y255331D01*
Y254915D01*
Y255331D01*
X199143Y255470D01*
X199282Y255331D01*
Y254915D01*
X205373Y252702D02*
X205512Y252840D01*
X205789D01*
X205928Y252702D01*
Y252146D01*
X205789Y252007D01*
X205512D01*
X205373Y252146D01*
Y252702D01*
X206206Y252007D02*
Y252146D01*
X206345D01*
Y252007D01*
X206206D01*
X207455Y252840D02*
X206900D01*
Y252424D01*
X207178Y252563D01*
X207317D01*
X207455Y252424D01*
Y252146D01*
X207317Y252007D01*
X207039D01*
X206900Y252146D01*
X208289Y252840D02*
X207733D01*
Y252424D01*
X208011Y252563D01*
X208150D01*
X208289Y252424D01*
Y252146D01*
X208150Y252007D01*
X207872D01*
X207733Y252146D01*
X208566Y252007D02*
X208844D01*
X208705D01*
Y252563D01*
X208566D01*
X209260Y252007D02*
Y252563D01*
X209677D01*
X209816Y252424D01*
Y252007D01*
X204781Y253330D02*
X205058D01*
X204920D01*
Y254164D01*
X204781Y254025D01*
X205475D02*
X205614Y254164D01*
X205891D01*
X206030Y254025D01*
Y253886D01*
X205891Y253747D01*
X205753D01*
X205891D01*
X206030Y253608D01*
Y253469D01*
X205891Y253330D01*
X205614D01*
X205475Y253469D01*
X206308Y253330D02*
Y253469D01*
X206447D01*
Y253330D01*
X206308D01*
X207002Y253469D02*
X207141Y253330D01*
X207419D01*
X207558Y253469D01*
Y254025D01*
X207419Y254164D01*
X207141D01*
X207002Y254025D01*
Y253886D01*
X207141Y253747D01*
X207558D01*
X207835Y253330D02*
Y253886D01*
X207974D01*
X208113Y253747D01*
Y253330D01*
Y253747D01*
X208252Y253886D01*
X208391Y253747D01*
Y253330D01*
X208668D02*
Y253886D01*
X208807D01*
X208946Y253747D01*
Y253330D01*
Y253747D01*
X209085Y253886D01*
X209224Y253747D01*
Y253330D01*
X202459Y229089D02*
X202598Y229228D01*
X202876D01*
X203015Y229089D01*
Y228534D01*
X202876Y228395D01*
X202598D01*
X202459Y228534D01*
Y229089D01*
X203293Y228395D02*
Y228534D01*
X203431D01*
Y228395D01*
X203293D01*
X204542D02*
X203987D01*
X204542Y228950D01*
Y229089D01*
X204403Y229228D01*
X204126D01*
X203987Y229089D01*
X205375Y229228D02*
X205097Y229089D01*
X204820Y228811D01*
Y228534D01*
X204959Y228395D01*
X205236D01*
X205375Y228534D01*
Y228672D01*
X205236Y228811D01*
X204820D01*
X205653Y228395D02*
X205931D01*
X205792D01*
Y228950D01*
X205653D01*
X206347Y228395D02*
Y228950D01*
X206764D01*
X206902Y228811D01*
Y228395D01*
X202731Y230551D02*
X202453Y230412D01*
X202175Y230134D01*
Y229857D01*
X202314Y229718D01*
X202592D01*
X202731Y229857D01*
Y229996D01*
X202592Y230134D01*
X202175D01*
X203008Y229718D02*
Y229857D01*
X203147D01*
Y229718D01*
X203008D01*
X204258Y230551D02*
X203703D01*
Y230134D01*
X203980Y230273D01*
X204119D01*
X204258Y230134D01*
Y229857D01*
X204119Y229718D01*
X203842D01*
X203703Y229857D01*
X204536Y229718D02*
Y230273D01*
X204675D01*
X204813Y230134D01*
Y229718D01*
Y230134D01*
X204952Y230273D01*
X205091Y230134D01*
Y229718D01*
X205369D02*
Y230273D01*
X205508D01*
X205647Y230134D01*
Y229718D01*
Y230134D01*
X205785Y230273D01*
X205924Y230134D01*
Y229718D01*
X251405Y200936D02*
X250780D01*
Y200468D01*
X251093D01*
X250780D01*
Y199999D01*
X252342Y200780D02*
X252186Y200936D01*
X251874D01*
X251717Y200780D01*
Y200155D01*
X251874Y199999D01*
X252186D01*
X252342Y200155D01*
Y200468D01*
X252030D01*
X252655Y199999D02*
Y200624D01*
X252967Y200936D01*
X253279Y200624D01*
Y199999D01*
Y200468D01*
X252655D01*
X253592Y200780D02*
X253748Y200936D01*
X254060D01*
X254217Y200780D01*
Y200155D01*
X254060Y199999D01*
X253748D01*
X253592Y200155D01*
Y200780D01*
X254529Y199999D02*
X254841D01*
X254685D01*
Y200936D01*
X254529Y200780D01*
X255935Y200936D02*
X255310D01*
Y200468D01*
X255622D01*
X255310D01*
Y199999D01*
X256872Y200780D02*
X256716Y200936D01*
X256403D01*
X256247Y200780D01*
Y200155D01*
X256403Y199999D01*
X256716D01*
X256872Y200155D01*
X257341Y199843D02*
X257497Y199999D01*
Y200155D01*
X257341D01*
Y199999D01*
X257497D01*
X257341Y199843D01*
X257184Y199687D01*
X259059Y200936D02*
X259371D01*
X259215D01*
Y199999D01*
X259059D01*
X259371D01*
X259840D02*
Y200624D01*
X260308D01*
X260465Y200468D01*
Y199999D01*
X261402Y200780D02*
X261246Y200936D01*
X260933D01*
X260777Y200780D01*
Y200155D01*
X260933Y199999D01*
X261246D01*
X261402Y200155D01*
Y200468D01*
X261089D01*
X261870Y200624D02*
X262183D01*
X262339Y200468D01*
Y199999D01*
X261870D01*
X261714Y200155D01*
X261870Y200311D01*
X262339D01*
X262651Y199999D02*
Y200624D01*
X262964Y200936D01*
X263276Y200624D01*
Y199999D01*
Y200468D01*
X262651D01*
X263589Y199999D02*
X264057D01*
X264213Y200155D01*
X264057Y200311D01*
X263745D01*
X263589Y200468D01*
X263745Y200624D01*
X264213D01*
X265463Y199999D02*
Y200936D01*
X265932D01*
X266088Y200780D01*
Y200468D01*
X265932Y200311D01*
X265463D01*
X266400Y200936D02*
Y199999D01*
Y200468D01*
X267025D01*
Y200936D01*
Y199999D01*
X267806Y200936D02*
X267494D01*
X267337Y200780D01*
Y200155D01*
X267494Y199999D01*
X267806D01*
X267962Y200155D01*
Y200780D01*
X267806Y200936D01*
X268275D02*
X268899D01*
X268587D01*
Y199999D01*
X269680Y200936D02*
X269368D01*
X269212Y200780D01*
Y200155D01*
X269368Y199999D01*
X269680D01*
X269837Y200155D01*
Y200780D01*
X269680Y200936D01*
X270149D02*
Y199999D01*
X270618D01*
X270774Y200155D01*
Y200780D01*
X270618Y200936D01*
X270149D01*
X271086D02*
X271399D01*
X271242D01*
Y199999D01*
X271086D01*
X271399D01*
X272336Y200936D02*
X272023D01*
X271867Y200780D01*
Y200155D01*
X272023Y199999D01*
X272336D01*
X272492Y200155D01*
Y200780D01*
X272336Y200936D01*
X272804D02*
Y199999D01*
X273273D01*
X273429Y200155D01*
Y200780D01*
X273273Y200936D01*
X272804D01*
X274366D02*
X273742D01*
Y199999D01*
X274366D01*
X273742Y200468D02*
X274054D01*
X274835Y199843D02*
X274991Y199999D01*
Y200155D01*
X274835D01*
Y199999D01*
X274991D01*
X274835Y199843D01*
X274679Y199687D01*
X277178Y200936D02*
X276553D01*
Y200468D01*
X276866D01*
X276553D01*
Y199999D01*
X278115Y200780D02*
X277959Y200936D01*
X277647D01*
X277490Y200780D01*
Y200155D01*
X277647Y199999D01*
X277959D01*
X278115Y200155D01*
X278428Y199999D02*
X279052Y200624D01*
X279365Y199999D02*
Y200936D01*
X279833D01*
X279990Y200780D01*
Y200468D01*
X279833Y200311D01*
X279365D01*
X280927Y200780D02*
X280771Y200936D01*
X280458D01*
X280302Y200780D01*
Y200155D01*
X280458Y199999D01*
X280771D01*
X280927Y200155D01*
X224585Y196021D02*
X224481Y196125D01*
X224273D01*
X224169Y196021D01*
Y195604D01*
X224273Y195500D01*
X224481D01*
X224585Y195604D01*
X225106Y196125D02*
X224898D01*
X224793Y196021D01*
Y195604D01*
X224898Y195500D01*
X225106D01*
X225210Y195604D01*
Y196021D01*
X225106Y196125D01*
X225418Y195500D02*
Y196125D01*
X225731D01*
X225835Y196021D01*
Y195812D01*
X225731Y195708D01*
X225418D01*
X226043Y196125D02*
Y196021D01*
X226251Y195812D01*
X226460Y196021D01*
Y196125D01*
X226251Y195812D02*
Y195500D01*
X226668D02*
Y196125D01*
X226980D01*
X227084Y196021D01*
Y195812D01*
X226980Y195708D01*
X226668D01*
X226876D02*
X227084Y195500D01*
X227293Y196125D02*
X227501D01*
X227397D01*
Y195500D01*
X227293D01*
X227501D01*
X228230Y196021D02*
X228126Y196125D01*
X227917D01*
X227813Y196021D01*
Y195604D01*
X227917Y195500D01*
X228126D01*
X228230Y195604D01*
Y195812D01*
X228022D01*
X228438Y196125D02*
Y195500D01*
Y195812D01*
X228855D01*
Y196125D01*
Y195500D01*
X229063Y196125D02*
X229479D01*
X229271D01*
Y195500D01*
X230313D02*
Y195708D01*
X230729D01*
X231979Y195500D02*
X231562D01*
X231979Y195917D01*
Y196021D01*
X231875Y196125D01*
X231666D01*
X231562Y196021D01*
X232187D02*
X232291Y196125D01*
X232499D01*
X232603Y196021D01*
Y195604D01*
X232499Y195500D01*
X232291D01*
X232187Y195604D01*
Y196021D01*
X232812Y195500D02*
X233020D01*
X232916D01*
Y196125D01*
X232812Y196021D01*
X233332D02*
X233437Y196125D01*
X233645D01*
X233749Y196021D01*
Y195604D01*
X233645Y195500D01*
X233437D01*
X233332Y195604D01*
Y196021D01*
X234582Y196125D02*
Y195500D01*
X234894D01*
X234999Y195604D01*
Y195708D01*
X234894Y195812D01*
X234582D01*
X234894D01*
X234999Y195917D01*
Y196021D01*
X234894Y196125D01*
X234582D01*
X235207D02*
Y196021D01*
X235415Y195812D01*
X235623Y196021D01*
Y196125D01*
X235415Y195812D02*
Y195500D01*
X236456Y196125D02*
X236873D01*
X236665D01*
Y195500D01*
X237081Y196125D02*
Y195500D01*
Y195812D01*
X237498D01*
Y196125D01*
Y195500D01*
X238018Y196125D02*
X237810D01*
X237706Y196021D01*
Y195604D01*
X237810Y195500D01*
X238018D01*
X238123Y195604D01*
Y196021D01*
X238018Y196125D01*
X238331Y195500D02*
Y196125D01*
X238643D01*
X238747Y196021D01*
Y195812D01*
X238643Y195708D01*
X238331D01*
X238539D02*
X238747Y195500D01*
X238956Y196125D02*
Y195500D01*
X239372D01*
X239580D02*
Y195917D01*
X239789Y196125D01*
X239997Y195917D01*
Y195500D01*
Y195812D01*
X239580D01*
X240205Y196125D02*
Y195500D01*
X240518D01*
X240622Y195604D01*
Y195708D01*
X240518Y195812D01*
X240205D01*
X240518D01*
X240622Y195917D01*
Y196021D01*
X240518Y196125D01*
X240205D01*
X241246Y196021D02*
X241142Y196125D01*
X240934D01*
X240830Y196021D01*
Y195917D01*
X240934Y195812D01*
X241142D01*
X241246Y195708D01*
Y195604D01*
X241142Y195500D01*
X240934D01*
X240830Y195604D01*
X186720Y194464D02*
Y195714D01*
X187553Y194464D01*
Y195714D01*
X188594D02*
X188178D01*
X187969Y195506D01*
Y194672D01*
X188178Y194464D01*
X188594D01*
X188802Y194672D01*
Y195506D01*
X188594Y195714D01*
X189219D02*
X190052D01*
X189636D01*
Y194464D01*
X192551Y195714D02*
X191718D01*
Y195089D01*
X192135D01*
X191718D01*
Y194464D01*
X193593Y195714D02*
X193176D01*
X192968Y195506D01*
Y194672D01*
X193176Y194464D01*
X193593D01*
X193801Y194672D01*
Y195506D01*
X193593Y195714D01*
X194217Y194464D02*
Y195714D01*
X194842D01*
X195050Y195506D01*
Y195089D01*
X194842Y194881D01*
X194217D01*
X194634D02*
X195050Y194464D01*
X196717D02*
Y195714D01*
X197133Y195297D01*
X197550Y195714D01*
Y194464D01*
X197966D02*
Y195297D01*
X198383Y195714D01*
X198799Y195297D01*
Y194464D01*
Y195089D01*
X197966D01*
X199216Y194464D02*
Y195714D01*
X200049Y194464D01*
Y195714D01*
X200465D02*
Y194672D01*
X200674Y194464D01*
X201090D01*
X201298Y194672D01*
Y195714D01*
X202548D02*
X201715D01*
Y195089D01*
X202131D01*
X201715D01*
Y194464D01*
X202965D02*
Y195297D01*
X203381Y195714D01*
X203798Y195297D01*
Y194464D01*
Y195089D01*
X202965D01*
X205047Y195506D02*
X204839Y195714D01*
X204422D01*
X204214Y195506D01*
Y194672D01*
X204422Y194464D01*
X204839D01*
X205047Y194672D01*
X205464Y195714D02*
X206297D01*
X205880D01*
Y194464D01*
X206713Y195714D02*
Y194672D01*
X206922Y194464D01*
X207338D01*
X207546Y194672D01*
Y195714D01*
X207963Y194464D02*
Y195714D01*
X208588D01*
X208796Y195506D01*
Y195089D01*
X208588Y194881D01*
X207963D01*
X208379D02*
X208796Y194464D01*
X209213Y195714D02*
X209629D01*
X209421D01*
Y194464D01*
X209213D01*
X209629D01*
X210254D02*
Y195714D01*
X211087Y194464D01*
Y195714D01*
X212337Y195506D02*
X212128Y195714D01*
X211712D01*
X211503Y195506D01*
Y194672D01*
X211712Y194464D01*
X212128D01*
X212337Y194672D01*
Y195089D01*
X211920D01*
X214003Y194464D02*
Y195714D01*
X214627D01*
X214836Y195506D01*
Y195089D01*
X214627Y194881D01*
X214003D01*
X215252Y195714D02*
Y194672D01*
X215461Y194464D01*
X215877D01*
X216085Y194672D01*
Y195714D01*
X216502Y194464D02*
Y195714D01*
X217127D01*
X217335Y195506D01*
Y195089D01*
X217127Y194881D01*
X216502D01*
X216918D02*
X217335Y194464D01*
X217751D02*
Y195714D01*
X218376D01*
X218585Y195506D01*
Y195089D01*
X218376Y194881D01*
X217751D01*
X219626Y195714D02*
X219209D01*
X219001Y195506D01*
Y194672D01*
X219209Y194464D01*
X219626D01*
X219834Y194672D01*
Y195506D01*
X219626Y195714D01*
X221084Y195506D02*
X220875Y195714D01*
X220459D01*
X220251Y195506D01*
Y195297D01*
X220459Y195089D01*
X220875D01*
X221084Y194881D01*
Y194672D01*
X220875Y194464D01*
X220459D01*
X220251Y194672D01*
X222333Y195714D02*
X221500D01*
Y194464D01*
X222333D01*
X221500Y195089D02*
X221917D01*
X223583Y195506D02*
X223375Y195714D01*
X222958D01*
X222750Y195506D01*
Y195297D01*
X222958Y195089D01*
X223375D01*
X223583Y194881D01*
Y194672D01*
X223375Y194464D01*
X222958D01*
X222750Y194672D01*
X187425Y197380D02*
X186592D01*
Y196756D01*
X187009D01*
X186592D01*
Y196131D01*
X188467Y197380D02*
X188050D01*
X187842Y197172D01*
Y196339D01*
X188050Y196131D01*
X188467D01*
X188675Y196339D01*
Y197172D01*
X188467Y197380D01*
X189091Y196131D02*
Y197380D01*
X189716D01*
X189924Y197172D01*
Y196756D01*
X189716Y196547D01*
X189091D01*
X189508D02*
X189924Y196131D01*
X191591Y197380D02*
X192007D01*
X191799D01*
Y196131D01*
X191591D01*
X192007D01*
X192632D02*
Y197380D01*
X193465Y196131D01*
Y197380D01*
X194715D02*
X193882D01*
Y196756D01*
X194298D01*
X193882D01*
Y196131D01*
X195756Y197380D02*
X195339D01*
X195131Y197172D01*
Y196339D01*
X195339Y196131D01*
X195756D01*
X195964Y196339D01*
Y197172D01*
X195756Y197380D01*
X196381Y196131D02*
Y197380D01*
X197006D01*
X197214Y197172D01*
Y196756D01*
X197006Y196547D01*
X196381D01*
X196797D02*
X197214Y196131D01*
X197630D02*
Y197380D01*
X198047Y196964D01*
X198463Y197380D01*
Y196131D01*
X198880D02*
Y196964D01*
X199296Y197380D01*
X199713Y196964D01*
Y196131D01*
Y196756D01*
X198880D01*
X200129Y197380D02*
X200963D01*
X200546D01*
Y196131D01*
X201379Y197380D02*
X201796D01*
X201587D01*
Y196131D01*
X201379D01*
X201796D01*
X203045Y197380D02*
X202629D01*
X202420Y197172D01*
Y196339D01*
X202629Y196131D01*
X203045D01*
X203253Y196339D01*
Y197172D01*
X203045Y197380D01*
X203670Y196131D02*
Y197380D01*
X204503Y196131D01*
Y197380D01*
X206794D02*
X206377D01*
X206169Y197172D01*
Y196339D01*
X206377Y196131D01*
X206794D01*
X207002Y196339D01*
Y197172D01*
X206794Y197380D01*
X207419Y196131D02*
Y197380D01*
X208252Y196131D01*
Y197380D01*
X208668D02*
Y196131D01*
X209501D01*
X209918Y197380D02*
Y197172D01*
X210335Y196756D01*
X210751Y197172D01*
Y197380D01*
X210335Y196756D02*
Y196131D01*
X227637Y201073D02*
Y201906D01*
X228193Y201073D01*
Y201906D01*
X228470Y201073D02*
Y201628D01*
X228748Y201906D01*
X229026Y201628D01*
Y201073D01*
Y201489D01*
X228470D01*
X229303Y201073D02*
Y201906D01*
X229581Y201628D01*
X229859Y201906D01*
Y201073D01*
X230692Y201906D02*
X230136D01*
Y201073D01*
X230692D01*
X230136Y201489D02*
X230414D01*
X222370Y203265D02*
Y204098D01*
X222786D01*
X222925Y203959D01*
Y203681D01*
X222786Y203542D01*
X222370D01*
X223203Y203265D02*
Y204098D01*
X223619D01*
X223758Y203959D01*
Y203681D01*
X223619Y203542D01*
X223203D01*
X223481D02*
X223758Y203265D01*
X224452Y204098D02*
X224175D01*
X224036Y203959D01*
Y203403D01*
X224175Y203265D01*
X224452D01*
X224591Y203403D01*
Y203959D01*
X224452Y204098D01*
X225424D02*
X225147D01*
X225286D01*
Y203403D01*
X225147Y203265D01*
X225008D01*
X224869Y203403D01*
X226257Y204098D02*
X225702D01*
Y203265D01*
X226257D01*
X225702Y203681D02*
X225980D01*
X227091Y203959D02*
X226952Y204098D01*
X226674D01*
X226535Y203959D01*
Y203403D01*
X226674Y203265D01*
X226952D01*
X227091Y203403D01*
X227368Y204098D02*
X227924D01*
X227646D01*
Y203265D01*
X228201Y204098D02*
X228479D01*
X228340D01*
Y203265D01*
X228201D01*
X228479D01*
X229312Y204098D02*
X229034D01*
X228895Y203959D01*
Y203403D01*
X229034Y203265D01*
X229312D01*
X229451Y203403D01*
Y203959D01*
X229312Y204098D01*
X229729Y203265D02*
Y204098D01*
X230284Y203265D01*
Y204098D01*
X222370Y205209D02*
Y204376D01*
X222786D01*
X222925Y204514D01*
Y205070D01*
X222786Y205209D01*
X222370D01*
X223203Y204376D02*
Y205209D01*
X223619D01*
X223758Y205070D01*
Y204792D01*
X223619Y204653D01*
X223203D01*
X223481D02*
X223758Y204376D01*
X224036D02*
Y204931D01*
X224314Y205209D01*
X224591Y204931D01*
Y204376D01*
Y204792D01*
X224036D01*
X224869Y205209D02*
Y204376D01*
X225147Y204653D01*
X225424Y204376D01*
Y205209D01*
X225702D02*
X225980D01*
X225841D01*
Y204376D01*
X225702D01*
X225980D01*
X226396D02*
Y205209D01*
X226952Y204376D01*
Y205209D01*
X227785Y205070D02*
X227646Y205209D01*
X227368D01*
X227229Y205070D01*
Y204514D01*
X227368Y204376D01*
X227646D01*
X227785Y204514D01*
Y204792D01*
X227507D01*
X230312Y192834D02*
Y193234D01*
X230512Y193434D01*
X230712Y193234D01*
Y192834D01*
Y193134D01*
X230312D01*
X230912Y192834D02*
Y193434D01*
X231311Y192834D01*
Y193434D01*
X231511D02*
Y192834D01*
X231811D01*
X231911Y192934D01*
Y193334D01*
X231811Y193434D01*
X231511D01*
X232711Y192834D02*
Y193434D01*
X232911Y193234D01*
X233111Y193434D01*
Y192834D01*
X233311D02*
Y193234D01*
X233511Y193434D01*
X233711Y193234D01*
Y192834D01*
Y193134D01*
X233311D01*
X233911Y193434D02*
Y193334D01*
X234111Y193134D01*
X234310Y193334D01*
Y193434D01*
X234111Y193134D02*
Y192834D01*
X235510Y193334D02*
X235410Y193434D01*
X235210D01*
X235110Y193334D01*
Y192934D01*
X235210Y192834D01*
X235410D01*
X235510Y192934D01*
X236010Y193434D02*
X235810D01*
X235710Y193334D01*
Y192934D01*
X235810Y192834D01*
X236010D01*
X236110Y192934D01*
Y193334D01*
X236010Y193434D01*
X236310Y192834D02*
Y193434D01*
X236710Y192834D01*
Y193434D01*
X236910D02*
X237310D01*
X237110D01*
Y192834D01*
X237509D02*
Y193234D01*
X237709Y193434D01*
X237909Y193234D01*
Y192834D01*
Y193134D01*
X237509D01*
X238109Y193434D02*
X238309D01*
X238209D01*
Y192834D01*
X238109D01*
X238309D01*
X238609D02*
Y193434D01*
X239009Y192834D01*
Y193434D01*
X239809Y192834D02*
Y193434D01*
X240109D01*
X240209Y193334D01*
Y193134D01*
X240109Y193034D01*
X239809D01*
X240009D02*
X240209Y192834D01*
X240708Y193434D02*
X240508D01*
X240408Y193334D01*
Y192934D01*
X240508Y192834D01*
X240708D01*
X240808Y192934D01*
Y193334D01*
X240708Y193434D01*
X241008D02*
Y192934D01*
X241108Y192834D01*
X241308D01*
X241408Y192934D01*
Y193434D01*
X241608Y192834D02*
Y193434D01*
X242008Y192834D01*
Y193434D01*
X242208D02*
Y192834D01*
X242508D01*
X242608Y192934D01*
Y193334D01*
X242508Y193434D01*
X242208D01*
X243108D02*
X242908D01*
X242808Y193334D01*
Y192934D01*
X242908Y192834D01*
X243108D01*
X243208Y192934D01*
Y193334D01*
X243108Y193434D01*
X243807D02*
X243408D01*
Y193134D01*
X243607D01*
X243408D01*
Y192834D01*
X244407Y193434D02*
X244007D01*
Y193134D01*
X244207D01*
X244007D01*
Y192834D01*
X245607Y193434D02*
X245207D01*
Y192834D01*
X245607D01*
X245207Y193134D02*
X245407D01*
X245807Y192834D02*
Y193434D01*
X246107D01*
X246207Y193334D01*
Y193134D01*
X246107Y193034D01*
X245807D01*
X246007D02*
X246207Y192834D01*
X246407D02*
Y193434D01*
X246706D01*
X246806Y193334D01*
Y193134D01*
X246706Y193034D01*
X246407D01*
X246607D02*
X246806Y192834D01*
X247306Y193434D02*
X247106D01*
X247006Y193334D01*
Y192934D01*
X247106Y192834D01*
X247306D01*
X247406Y192934D01*
Y193334D01*
X247306Y193434D01*
X247606Y192834D02*
Y193434D01*
X247906D01*
X248006Y193334D01*
Y193134D01*
X247906Y193034D01*
X247606D01*
X247806D02*
X248006Y192834D01*
X248606Y193334D02*
X248506Y193434D01*
X248306D01*
X248206Y193334D01*
Y193234D01*
X248306Y193134D01*
X248506D01*
X248606Y193034D01*
Y192934D01*
X248506Y192834D01*
X248306D01*
X248206Y192934D01*
X230323Y194428D02*
Y194028D01*
X230523Y193828D01*
X230723Y194028D01*
Y194428D01*
X230923Y193828D02*
Y194228D01*
X231123Y194428D01*
X231323Y194228D01*
Y193828D01*
Y194128D01*
X230923D01*
X231523Y194428D02*
Y193828D01*
X231923D01*
X232123Y194428D02*
Y193928D01*
X232223Y193828D01*
X232423D01*
X232523Y193928D01*
Y194428D01*
X233122D02*
X232723D01*
Y193828D01*
X233122D01*
X232723Y194128D02*
X232922D01*
X233722Y194328D02*
X233622Y194428D01*
X233422D01*
X233322Y194328D01*
Y194228D01*
X233422Y194128D01*
X233622D01*
X233722Y194028D01*
Y193928D01*
X233622Y193828D01*
X233422D01*
X233322Y193928D01*
X234522Y194428D02*
X234722D01*
X234622D01*
Y193828D01*
X234522D01*
X234722D01*
X235022D02*
Y194428D01*
X235422Y193828D01*
Y194428D01*
X236221Y193828D02*
Y194428D01*
X236521D01*
X236621Y194328D01*
Y194128D01*
X236521Y194028D01*
X236221D01*
X236821Y193828D02*
Y194228D01*
X237021Y194428D01*
X237221Y194228D01*
Y193828D01*
Y194128D01*
X236821D01*
X237421Y193828D02*
Y194428D01*
X237721D01*
X237821Y194328D01*
Y194128D01*
X237721Y194028D01*
X237421D01*
X237621D02*
X237821Y193828D01*
X238421Y194428D02*
X238021D01*
Y193828D01*
X238421D01*
X238021Y194128D02*
X238221D01*
X238621Y193828D02*
Y194428D01*
X239021Y193828D01*
Y194428D01*
X239220D02*
X239620D01*
X239420D01*
Y193828D01*
X239820Y194428D02*
Y193828D01*
Y194128D01*
X240220D01*
Y194428D01*
Y193828D01*
X240820Y194428D02*
X240420D01*
Y193828D01*
X240820D01*
X240420Y194128D02*
X240620D01*
X241420Y194328D02*
X241320Y194428D01*
X241120D01*
X241020Y194328D01*
Y194228D01*
X241120Y194128D01*
X241320D01*
X241420Y194028D01*
Y193928D01*
X241320Y193828D01*
X241120D01*
X241020Y193928D01*
X241620Y194428D02*
X241820D01*
X241720D01*
Y193828D01*
X241620D01*
X241820D01*
X242519Y194328D02*
X242419Y194428D01*
X242219D01*
X242120Y194328D01*
Y194228D01*
X242219Y194128D01*
X242419D01*
X242519Y194028D01*
Y193928D01*
X242419Y193828D01*
X242219D01*
X242120Y193928D01*
X243319Y193828D02*
Y194228D01*
X243519Y194428D01*
X243719Y194228D01*
Y193828D01*
Y194128D01*
X243319D01*
X243919Y193828D02*
Y194428D01*
X244219D01*
X244319Y194328D01*
Y194128D01*
X244219Y194028D01*
X243919D01*
X244119D02*
X244319Y193828D01*
X244919Y194428D02*
X244519D01*
Y193828D01*
X244919D01*
X244519Y194128D02*
X244719D01*
X246118Y194328D02*
X246018Y194428D01*
X245818D01*
X245718Y194328D01*
Y193928D01*
X245818Y193828D01*
X246018D01*
X246118Y193928D01*
X246318Y193828D02*
Y194228D01*
X246518Y194428D01*
X246718Y194228D01*
Y193828D01*
Y194128D01*
X246318D01*
X246918Y194428D02*
Y193828D01*
X247318D01*
X247918Y194328D02*
X247818Y194428D01*
X247618D01*
X247518Y194328D01*
Y193928D01*
X247618Y193828D01*
X247818D01*
X247918Y193928D01*
X248118Y194428D02*
Y193928D01*
X248218Y193828D01*
X248417D01*
X248517Y193928D01*
Y194428D01*
X248717D02*
Y193828D01*
X249117D01*
X249317D02*
Y194228D01*
X249517Y194428D01*
X249717Y194228D01*
Y193828D01*
Y194128D01*
X249317D01*
X249917Y194428D02*
X250317D01*
X250117D01*
Y193828D01*
X250917Y194428D02*
X250517D01*
Y193828D01*
X250917D01*
X250517Y194128D02*
X250717D01*
X251117Y194428D02*
Y193828D01*
X251417D01*
X251516Y193928D01*
Y194328D01*
X251417Y194428D01*
X251117D01*
X258453Y193320D02*
Y193528D01*
X258661D01*
Y193320D01*
X258453D01*
X259494Y194361D02*
X259703Y194570D01*
X260119D01*
X260327Y194361D01*
Y193528D01*
X260119Y193320D01*
X259703D01*
X259494Y193528D01*
Y194361D01*
X260744Y193320D02*
X261161D01*
X260952D01*
Y194570D01*
X260744Y194361D01*
X263035Y193320D02*
Y194570D01*
Y193736D02*
X263660Y194153D01*
X263035Y193736D02*
X263660Y193320D01*
X264701Y192903D02*
X264909D01*
X265118Y193112D01*
Y194153D01*
X264493D01*
X264285Y193945D01*
Y193528D01*
X264493Y193320D01*
X265118D01*
X249562Y196462D02*
Y197712D01*
X250395Y196462D01*
Y197712D01*
X250812Y196462D02*
X251645Y197295D01*
X252062Y196462D02*
Y197295D01*
X252478Y197712D01*
X252895Y197295D01*
Y196462D01*
Y197087D01*
X252062D01*
X253859Y194587D02*
Y195143D01*
X254137Y195420D01*
X254415Y195143D01*
Y194587D01*
Y195004D01*
X253859D01*
X254692Y194587D02*
Y195420D01*
X255109D01*
X255248Y195281D01*
Y195004D01*
X255109Y194865D01*
X254692D01*
X255525Y194587D02*
Y195420D01*
X255942D01*
X256081Y195281D01*
Y195004D01*
X255942Y194865D01*
X255525D01*
X256359Y194587D02*
Y195420D01*
X256775D01*
X256914Y195281D01*
Y195004D01*
X256775Y194865D01*
X256359D01*
X256636D02*
X256914Y194587D01*
X257608Y195420D02*
X257330D01*
X257192Y195281D01*
Y194726D01*
X257330Y194587D01*
X257608D01*
X257747Y194726D01*
Y195281D01*
X257608Y195420D01*
X258025D02*
X258580Y194587D01*
Y195420D02*
X258025Y194587D01*
X259691Y195420D02*
Y194587D01*
X259969Y194865D01*
X260246Y194587D01*
Y195420D01*
X261079D02*
X260524D01*
Y194587D01*
X261079D01*
X260524Y195004D02*
X260802D01*
X261357Y195420D02*
X261635D01*
X261496D01*
Y194587D01*
X261357D01*
X261635D01*
X262607Y195281D02*
X262468Y195420D01*
X262190D01*
X262051Y195281D01*
Y194726D01*
X262190Y194587D01*
X262468D01*
X262607Y194726D01*
Y195004D01*
X262329D01*
X262884Y195420D02*
Y194587D01*
Y195004D01*
X263440D01*
Y195420D01*
Y194587D01*
X263717Y195420D02*
X264273D01*
X263995D01*
Y194587D01*
X238965Y195420D02*
X239243D01*
X239104D01*
Y194587D01*
X238965D01*
X239243D01*
X239659Y195420D02*
X240215D01*
X239937D01*
Y194587D01*
X241048Y195420D02*
X240492D01*
Y194587D01*
X241048D01*
X240492Y195004D02*
X240770D01*
X241325Y194587D02*
Y195420D01*
X241603Y195143D01*
X241881Y195420D01*
Y194587D01*
X243130D02*
Y195420D01*
X243408D02*
Y194587D01*
X242992Y195143D02*
X243408D01*
X243547D01*
X242992Y194865D02*
X243547D01*
X243966Y202799D02*
Y202382D01*
X244105Y202243D01*
X244244Y202382D01*
X244383Y202243D01*
X244521Y202382D01*
Y202799D01*
X245632D02*
Y202382D01*
X245771Y202243D01*
X245910Y202382D01*
X246049Y202243D01*
X246188Y202382D01*
Y202799D01*
X247298D02*
Y202382D01*
X247437Y202243D01*
X247576Y202382D01*
X247715Y202243D01*
X247854Y202382D01*
Y202799D01*
X248964Y202243D02*
Y202382D01*
X249103D01*
Y202243D01*
X248964D01*
X250631Y202937D02*
Y202799D01*
X250492D01*
X250769D01*
X250631D01*
Y202382D01*
X250769Y202243D01*
X252019Y203076D02*
Y202243D01*
Y202660D01*
X252158Y202799D01*
X252436D01*
X252574Y202660D01*
Y202243D01*
X253824D02*
X254102D01*
X254241Y202382D01*
Y202660D01*
X254102Y202799D01*
X253824D01*
X253685Y202660D01*
Y202382D01*
X253824Y202243D01*
X255351Y202799D02*
Y202243D01*
Y202521D01*
X255490Y202660D01*
X255629Y202799D01*
X255768D01*
X257851Y202243D02*
X258128D01*
X257989D01*
Y203076D01*
X257851D01*
X259517Y202799D02*
X259794D01*
X259933Y202660D01*
Y202243D01*
X259517D01*
X259378Y202382D01*
X259517Y202521D01*
X259933D01*
X261044Y203076D02*
Y202243D01*
X261460D01*
X261599Y202382D01*
Y202521D01*
Y202660D01*
X261460Y202799D01*
X261044D01*
X262710Y202243D02*
X263127D01*
X263265Y202382D01*
X263127Y202521D01*
X262849D01*
X262710Y202660D01*
X262849Y202799D01*
X263265D01*
X264376Y202243D02*
Y202382D01*
X264515D01*
Y202243D01*
X264376D01*
X266459Y202799D02*
X266042D01*
X265903Y202660D01*
Y202382D01*
X266042Y202243D01*
X266459D01*
X267708D02*
X267986D01*
X268125Y202382D01*
Y202660D01*
X267986Y202799D01*
X267708D01*
X267570Y202660D01*
Y202382D01*
X267708Y202243D01*
X269236D02*
Y202799D01*
X269375D01*
X269513Y202660D01*
Y202243D01*
Y202660D01*
X269652Y202799D01*
X269791Y202660D01*
Y202243D01*
X232337Y197537D02*
X232615D01*
X232476D01*
Y198370D01*
X232337Y198231D01*
X233587Y197537D02*
X233032D01*
X233587Y198092D01*
Y198231D01*
X233448Y198370D01*
X233171D01*
X233032Y198231D01*
X233865Y197537D02*
X234420Y198092D01*
X235253Y197537D02*
X234698D01*
X235253Y198092D01*
Y198231D01*
X235114Y198370D01*
X234837D01*
X234698Y198231D01*
X235531D02*
X235670Y198370D01*
X235947D01*
X236086Y198231D01*
Y197676D01*
X235947Y197537D01*
X235670D01*
X235531Y197676D01*
Y198231D01*
X236364Y197537D02*
X236919Y198092D01*
X237197Y197537D02*
X237475D01*
X237336D01*
Y198370D01*
X237197Y198231D01*
X238447Y198370D02*
X238169Y198231D01*
X237891Y197953D01*
Y197676D01*
X238030Y197537D01*
X238308D01*
X238447Y197676D01*
Y197815D01*
X238308Y197953D01*
X237891D01*
X233813Y201906D02*
Y201073D01*
X234230D01*
X234369Y201211D01*
Y201767D01*
X234230Y201906D01*
X233813D01*
X234646Y201073D02*
Y201628D01*
X234924Y201906D01*
X235202Y201628D01*
Y201073D01*
Y201489D01*
X234646D01*
X235479Y201906D02*
X236035D01*
X235757D01*
Y201073D01*
X236868Y201906D02*
X236312D01*
Y201073D01*
X236868D01*
X236312Y201489D02*
X236590D01*
X232337Y199299D02*
X232615D01*
X232476D01*
Y200132D01*
X232337Y199993D01*
X233587Y199299D02*
X233032D01*
X233587Y199854D01*
Y199993D01*
X233448Y200132D01*
X233171D01*
X233032Y199993D01*
X233865Y199299D02*
X234420Y199854D01*
X235253Y199299D02*
X234698D01*
X235253Y199854D01*
Y199993D01*
X235114Y200132D01*
X234837D01*
X234698Y199993D01*
X235531D02*
X235670Y200132D01*
X235947D01*
X236086Y199993D01*
Y199438D01*
X235947Y199299D01*
X235670D01*
X235531Y199438D01*
Y199993D01*
X236364Y199299D02*
X236919Y199854D01*
X237197Y199299D02*
X237475D01*
X237336D01*
Y200132D01*
X237197Y199993D01*
X238447Y200132D02*
X238169Y199993D01*
X237891Y199716D01*
Y199438D01*
X238030Y199299D01*
X238308D01*
X238447Y199438D01*
Y199577D01*
X238308Y199716D01*
X237891D01*
X228570Y197537D02*
Y198370D01*
X228986D01*
X229125Y198231D01*
Y197953D01*
X228986Y197815D01*
X228570D01*
X228847D02*
X229125Y197537D01*
X229403Y198370D02*
Y197537D01*
Y197953D01*
X229958D01*
Y198370D01*
Y197537D01*
X229125Y200132D02*
X228847D01*
X228986D01*
Y199438D01*
X228847Y199299D01*
X228708D01*
X228570Y199438D01*
X229403Y200132D02*
Y199577D01*
X229680Y199299D01*
X229958Y199577D01*
Y200132D01*
X260470Y197609D02*
Y198442D01*
X260886D01*
X261025Y198303D01*
Y198025D01*
X260886Y197886D01*
X260470D01*
X260747D02*
X261025Y197609D01*
X261858Y198442D02*
X261303D01*
Y197609D01*
X261858D01*
X261303Y198025D02*
X261580D01*
X262136Y198442D02*
Y197886D01*
X262413Y197609D01*
X262691Y197886D01*
Y198442D01*
X221522Y197433D02*
Y197919D01*
X221765Y198162D01*
X222008Y197919D01*
Y197433D01*
Y197798D01*
X221522D01*
X222251Y197433D02*
Y198162D01*
X222616D01*
X222737Y198041D01*
Y197798D01*
X222616Y197676D01*
X222251D01*
X222980Y197433D02*
Y198162D01*
X223345D01*
X223466Y198041D01*
Y197798D01*
X223345Y197676D01*
X222980D01*
X223709Y197433D02*
Y198162D01*
X224074D01*
X224195Y198041D01*
Y197798D01*
X224074Y197676D01*
X223709D01*
X223952D02*
X224195Y197433D01*
X224803Y198162D02*
X224560D01*
X224438Y198041D01*
Y197555D01*
X224560Y197433D01*
X224803D01*
X224924Y197555D01*
Y198041D01*
X224803Y198162D01*
X225167D02*
Y197676D01*
X225410Y197433D01*
X225653Y197676D01*
Y198162D01*
X225896Y197433D02*
Y197919D01*
X226139Y198162D01*
X226382Y197919D01*
Y197433D01*
Y197798D01*
X225896D01*
X226625Y198162D02*
Y197433D01*
X227111D01*
X222245Y199924D02*
Y199195D01*
X222609D01*
X222731Y199317D01*
Y199803D01*
X222609Y199924D01*
X222245D01*
X222974Y199195D02*
Y199924D01*
X223338D01*
X223460Y199803D01*
Y199560D01*
X223338Y199438D01*
X222974D01*
X223217D02*
X223460Y199195D01*
X223703D02*
Y199681D01*
X223946Y199924D01*
X224189Y199681D01*
Y199195D01*
Y199560D01*
X223703D01*
X224432Y199924D02*
Y199195D01*
X224675Y199438D01*
X224918Y199195D01*
Y199924D01*
X225161Y199195D02*
Y199924D01*
X225647Y199195D01*
Y199924D01*
X238855Y197924D02*
Y198757D01*
X239132Y198479D01*
X239410Y198757D01*
Y197924D01*
X239688D02*
Y198479D01*
X239965Y198757D01*
X240243Y198479D01*
Y197924D01*
Y198340D01*
X239688D01*
X240521Y198757D02*
X241076D01*
X240799D01*
Y197924D01*
X241909Y198757D02*
X241354D01*
Y197924D01*
X241909D01*
X241354Y198340D02*
X241632D01*
X242187Y197924D02*
Y198757D01*
X242603D01*
X242742Y198618D01*
Y198340D01*
X242603Y198201D01*
X242187D01*
X242465D02*
X242742Y197924D01*
X243020Y198757D02*
X243298D01*
X243159D01*
Y197924D01*
X243020D01*
X243298D01*
X243714D02*
Y198479D01*
X243992Y198757D01*
X244270Y198479D01*
Y197924D01*
Y198340D01*
X243714D01*
X244547Y198757D02*
Y197924D01*
X245103D01*
X246846Y194570D02*
X246013D01*
Y193945D01*
X246430D01*
X246013D01*
Y193320D01*
X248096Y194361D02*
X247887Y194570D01*
X247471D01*
X247263Y194361D01*
Y193528D01*
X247471Y193320D01*
X247887D01*
X248096Y193528D01*
Y193945D01*
X247679D01*
X248512Y193320D02*
Y194153D01*
X248929Y194570D01*
X249345Y194153D01*
Y193320D01*
Y193945D01*
X248512D01*
X249762Y194361D02*
X249970Y194570D01*
X250387D01*
X250595Y194361D01*
Y193528D01*
X250387Y193320D01*
X249970D01*
X249762Y193528D01*
Y194361D01*
X251011Y193320D02*
X251428D01*
X251220D01*
Y194570D01*
X251011Y194361D01*
X252886Y194570D02*
X252053D01*
Y193945D01*
X252469D01*
X252053D01*
Y193320D01*
X254135Y194361D02*
X253927Y194570D01*
X253511D01*
X253302Y194361D01*
Y193528D01*
X253511Y193320D01*
X253927D01*
X254135Y193528D01*
X262247Y197504D02*
X262039Y197712D01*
X261623D01*
X261414Y197504D01*
Y196671D01*
X261623Y196462D01*
X262039D01*
X262247Y196671D01*
X239248Y219693D02*
Y220526D01*
X239664D01*
X239803Y220387D01*
Y220109D01*
X239664Y219970D01*
X239248D01*
X240081Y220526D02*
X240358D01*
X240220D01*
Y219693D01*
X240081D01*
X240358D01*
X240775D02*
Y220526D01*
X241330Y219693D01*
Y220526D01*
X242996Y219693D02*
X242441D01*
X242996Y220248D01*
Y220387D01*
X242858Y220526D01*
X242580D01*
X242441Y220387D01*
X237054Y213371D02*
X236915Y213510D01*
X236638D01*
X236499Y213371D01*
Y212816D01*
X236638Y212677D01*
X236915D01*
X237054Y212816D01*
X237332Y212677D02*
Y213232D01*
X237610Y213510D01*
X237887Y213232D01*
Y212677D01*
Y213093D01*
X237332D01*
X238720Y213371D02*
X238582Y213510D01*
X238304D01*
X238165Y213371D01*
Y213232D01*
X238304Y213093D01*
X238582D01*
X238720Y212954D01*
Y212816D01*
X238582Y212677D01*
X238304D01*
X238165Y212816D01*
X239553Y213510D02*
X238998D01*
Y212677D01*
X239553D01*
X238998Y213093D02*
X239276D01*
X243393Y209681D02*
Y210514D01*
X243809D01*
X243948Y210375D01*
Y210097D01*
X243809Y209958D01*
X243393D01*
X244226Y210514D02*
X244503D01*
X244364D01*
Y209681D01*
X244226D01*
X244503D01*
X244920D02*
Y210514D01*
X245475Y209681D01*
Y210514D01*
X246586Y209681D02*
X246864D01*
X246725D01*
Y210514D01*
X246586Y210375D01*
X243393Y229469D02*
Y230302D01*
X243809D01*
X243948Y230163D01*
Y229885D01*
X243809Y229747D01*
X243393D01*
X244226Y230302D02*
X244503D01*
X244364D01*
Y229469D01*
X244226D01*
X244503D01*
X244920D02*
Y230302D01*
X245475Y229469D01*
Y230302D01*
X246586Y230163D02*
X246725Y230302D01*
X247003D01*
X247141Y230163D01*
Y230024D01*
X247003Y229885D01*
X246864D01*
X247003D01*
X247141Y229747D01*
Y229608D01*
X247003Y229469D01*
X246725D01*
X246586Y229608D01*
X166132Y233084D02*
Y231834D01*
X166757D01*
X166965Y232043D01*
Y232251D01*
X166757Y232459D01*
X166132D01*
X166757D01*
X166965Y232667D01*
Y232876D01*
X166757Y233084D01*
X166132D01*
X168006D02*
X167590D01*
X167381Y232876D01*
Y232043D01*
X167590Y231834D01*
X168006D01*
X168215Y232043D01*
Y232876D01*
X168006Y233084D01*
X168631D02*
X169464D01*
X169048D01*
Y231834D01*
X169881Y233084D02*
X170714D01*
X170297D01*
Y231834D01*
X171755Y233084D02*
X171339D01*
X171130Y232876D01*
Y232043D01*
X171339Y231834D01*
X171755D01*
X171963Y232043D01*
Y232876D01*
X171755Y233084D01*
X172380Y231834D02*
Y233084D01*
X172796Y232667D01*
X173213Y233084D01*
Y231834D01*
X174879Y233084D02*
Y232251D01*
X175296Y231834D01*
X175712Y232251D01*
Y233084D01*
X176129D02*
X176545D01*
X176337D01*
Y231834D01*
X176129D01*
X176545D01*
X178003Y233084D02*
X177170D01*
Y231834D01*
X178003D01*
X177170Y232459D02*
X177587D01*
X178420Y233084D02*
Y231834D01*
X178836Y232251D01*
X179253Y231834D01*
Y233084D01*
D44*
X209695Y245108D02*
D03*
D45*
X239952Y204866D02*
G03*
X239952Y204866I-000001J000000D01*
G01*
M02*
