G04*
G04 #@! TF.GenerationSoftware,Altium Limited,Altium Designer,22.2.1 (43)*
G04*
G04 Layer_Color=128*
%FSAX24Y24*%
%MOIN*%
G70*
G04*
G04 #@! TF.SameCoordinates,E8211669-D0EB-40F5-9659-E9546459CE39*
G04*
G04*
G04 #@! TF.FilePolarity,Positive*
G04*
G01*
G75*
%ADD46C,0.0020*%
D46*
X020827Y024685D02*
X021693D01*
X021260Y024252D02*
Y025118D01*
X020827Y019409D02*
X021693D01*
X021260Y018976D02*
Y019843D01*
X021142Y021555D02*
X021378D01*
X021260Y021437D02*
Y021673D01*
X020650Y022047D02*
X020886D01*
X020768Y021929D02*
Y022165D01*
X021142Y022539D02*
X021378D01*
X021260Y022421D02*
Y022657D01*
X026201Y020835D02*
X026555D01*
X026378Y020657D02*
Y021012D01*
X026201Y021835D02*
X026555D01*
X026378Y021657D02*
Y022012D01*
X026201Y022835D02*
X026555D01*
X026378Y022657D02*
Y023012D01*
X026201Y023835D02*
X026555D01*
X026378Y023657D02*
Y024012D01*
X023835Y019468D02*
X024071D01*
X023953Y019350D02*
Y019586D01*
X022442Y019450D02*
X022678D01*
X022560Y019332D02*
Y019568D01*
X021286Y020256D02*
X021522D01*
X021404Y020138D02*
Y020374D01*
X022316Y020489D02*
X022552D01*
X022434Y020371D02*
Y020607D01*
X021732Y021063D02*
X021969D01*
X021850Y020945D02*
Y021181D01*
X021575Y021961D02*
X021811D01*
X021693Y021843D02*
Y022079D01*
X020853Y023694D02*
X021089D01*
X020971Y023576D02*
Y023812D01*
X022600Y024980D02*
X022836D01*
X022718Y024862D02*
Y025098D01*
X023504Y025000D02*
X023740D01*
X023622Y024882D02*
Y025118D01*
X024488Y024606D02*
X024724D01*
X024606Y024488D02*
Y024724D01*
X025276Y024016D02*
X025512D01*
X025394Y023898D02*
Y024134D01*
X023709Y021476D02*
X023945D01*
X023827Y021358D02*
Y021595D01*
X026628Y019294D02*
X026864D01*
X026746Y019176D02*
Y019412D01*
X020098Y020330D02*
X020334D01*
X020216Y020212D02*
Y020448D01*
X020159Y022823D02*
X020395D01*
X020277Y022705D02*
Y022941D01*
X024753Y019072D02*
X024989D01*
X024871Y018954D02*
Y019190D01*
X024198Y020670D02*
X024434D01*
X024316Y020552D02*
Y020789D01*
M02*
