G04*
G04 #@! TF.GenerationSoftware,Altium Limited,Altium Designer,22.2.1 (43)*
G04*
G04 Layer_Color=8421504*
%FSAX24Y24*%
%MOIN*%
G70*
G04*
G04 #@! TF.SameCoordinates,E8211669-D0EB-40F5-9659-E9546459CE39*
G04*
G04*
G04 #@! TF.FilePolarity,Positive*
G04*
G01*
G75*
%ADD13R,0.0228X0.0244*%
%ADD14R,0.0244X0.0228*%
%ADD15R,0.0244X0.0244*%
%ADD16R,0.0374X0.0394*%
%ADD17R,0.0394X0.0374*%
%ADD18R,0.0244X0.0244*%
%ADD19R,0.0242X0.0225*%
%ADD20R,0.0225X0.0242*%
%ADD21R,0.0374X0.0374*%
%ADD22R,0.0354X0.0394*%
%ADD23R,0.0610X0.0236*%
D13*
X024004Y023622D02*
D03*
X023634D02*
D03*
X024092Y024030D02*
D03*
X024462D02*
D03*
D14*
X023715Y024187D02*
D03*
Y024557D02*
D03*
X020700Y021378D02*
D03*
Y021008D02*
D03*
X023314Y020567D02*
D03*
Y020937D02*
D03*
X022930Y020565D02*
D03*
Y020935D02*
D03*
D15*
X025551Y022441D02*
D03*
X025197D02*
D03*
X025571Y022047D02*
D03*
X025217D02*
D03*
D16*
X024803Y020571D02*
D03*
X025394D02*
D03*
D17*
X020186Y020852D02*
D03*
Y021443D02*
D03*
D18*
X020276Y022323D02*
D03*
Y021969D02*
D03*
X024927Y019535D02*
D03*
Y019890D02*
D03*
D19*
X025696Y019913D02*
D03*
X025358D02*
D03*
X022711Y024197D02*
D03*
X023048D02*
D03*
D20*
X025394Y021527D02*
D03*
Y021190D02*
D03*
D21*
X026227Y019908D02*
D03*
Y019317D02*
D03*
D22*
X022538Y023692D02*
D03*
X023167D02*
D03*
D23*
X024488Y021494D02*
D03*
Y021994D02*
D03*
Y022494D02*
D03*
Y022994D02*
D03*
X022362Y021494D02*
D03*
Y021994D02*
D03*
Y022494D02*
D03*
Y022994D02*
D03*
M02*
