G04*
G04 #@! TF.GenerationSoftware,Altium Limited,Altium Designer,22.2.1 (43)*
G04*
G04 Layer_Physical_Order=2*
G04 Layer_Color=16711680*
%FSAX24Y24*%
%MOIN*%
G70*
G04*
G04 #@! TF.SameCoordinates,0A7D3E4C-9769-4D31-AB1C-A6483D793648*
G04*
G04*
G04 #@! TF.FilePolarity,Positive*
G04*
G01*
G75*
%ADD57C,0.0200*%
%ADD58C,0.0300*%
%ADD59C,0.0100*%
%ADD61C,0.0551*%
%ADD62C,0.0650*%
%ADD63R,0.0650X0.0650*%
%ADD64C,0.0276*%
%ADD65C,0.0315*%
%ADD66C,0.0630*%
%ADD67R,0.0630X0.0630*%
%ADD68C,0.0197*%
%ADD69C,0.0394*%
G36*
X022638Y017520D02*
X019054D01*
X019035Y017566D01*
X019502Y018032D01*
X019518Y018016D01*
X019584Y017972D01*
X019662Y017956D01*
X021279D01*
X021358Y017972D01*
X021424Y018016D01*
X021735Y018328D01*
X021801Y018310D01*
X021900D01*
X021995Y018336D01*
X022081Y018385D01*
X022150Y018455D01*
X022200Y018540D01*
X022225Y018636D01*
Y018734D01*
X022200Y018830D01*
X022150Y018915D01*
X022081Y018985D01*
X021995Y019034D01*
X021900Y019060D01*
X021801D01*
X021706Y019034D01*
X021620Y018985D01*
X021550Y018915D01*
X021501Y018830D01*
X021476Y018734D01*
Y018645D01*
X021195Y018364D01*
X021130D01*
X021110Y018414D01*
X021150Y018455D01*
X021200Y018540D01*
X021225Y018636D01*
Y018734D01*
X021200Y018830D01*
X021150Y018915D01*
X021081Y018985D01*
X020995Y019034D01*
X020900Y019060D01*
X020801D01*
X020706Y019034D01*
X020620Y018985D01*
X020550Y018915D01*
X020501Y018830D01*
X020476Y018734D01*
Y018636D01*
X020501Y018540D01*
X020550Y018455D01*
X020591Y018414D01*
X020571Y018364D01*
X019747D01*
X019691Y018420D01*
Y018699D01*
X019685Y018726D01*
X019691Y018753D01*
Y019611D01*
X020009Y019929D01*
X020053Y019995D01*
X020069Y020073D01*
X020053Y020152D01*
X020009Y020218D01*
X019943Y020262D01*
X019865Y020277D01*
X019787Y020262D01*
X019721Y020218D01*
X019342Y019839D01*
X019298Y019773D01*
X019283Y019695D01*
Y018753D01*
X019288Y018726D01*
X019283Y018699D01*
Y018390D01*
X018677Y017784D01*
X018035D01*
X017785Y018033D01*
Y018456D01*
X017770Y018534D01*
X017725Y018600D01*
X017301Y019024D01*
X017235Y019069D01*
X017157Y019084D01*
X017079Y019069D01*
X017013Y019024D01*
X016969Y018958D01*
X016953Y018880D01*
Y018816D01*
X016623Y018486D01*
X016611Y018468D01*
X016561Y018463D01*
X015967Y019057D01*
Y019137D01*
X015945Y019220D01*
X015902Y019294D01*
X015842Y019355D01*
X015767Y019398D01*
X015685Y019420D01*
X015599D01*
X015516Y019398D01*
X015442Y019355D01*
X015381Y019294D01*
X015338Y019220D01*
X015316Y019137D01*
Y019052D01*
X015338Y018969D01*
X015381Y018895D01*
X015442Y018834D01*
X015516Y018791D01*
X015599Y018769D01*
X015679D01*
X016316Y018132D01*
Y018052D01*
X016338Y017969D01*
X016381Y017895D01*
X016442Y017834D01*
X016516Y017791D01*
X016599Y017769D01*
X016685D01*
X016767Y017791D01*
X016842Y017834D01*
X016902Y017895D01*
X016945Y017969D01*
X016967Y018052D01*
Y018137D01*
X016950Y018202D01*
X016956Y018210D01*
X016964Y018250D01*
X017231Y018518D01*
X017377Y018371D01*
Y017949D01*
X017393Y017871D01*
X017437Y017805D01*
X017676Y017566D01*
X017657Y017520D01*
X014764D01*
Y025537D01*
X014810Y025556D01*
X015364Y025002D01*
X015446Y024947D01*
X015542Y024928D01*
X016770D01*
X016866Y024947D01*
X016948Y025002D01*
X016998Y025052D01*
X017053Y025134D01*
X017072Y025230D01*
X017053Y025326D01*
X016998Y025408D01*
X016916Y025463D01*
X016820Y025482D01*
X016724Y025463D01*
X016678Y025432D01*
X015646D01*
X015132Y025946D01*
Y027165D01*
X015130Y027173D01*
Y027453D01*
X015141Y027464D01*
X015180Y027486D01*
X015189Y027484D01*
X015196Y027482D01*
X015203D01*
X015225Y027477D01*
X015327D01*
X015385Y027489D01*
X015435Y027522D01*
X015713Y027800D01*
X017387D01*
X017608Y027578D01*
X017628Y027565D01*
X017632Y027560D01*
X017639Y027558D01*
X017658Y027545D01*
X017681Y027540D01*
X017687Y027538D01*
X017694D01*
X017717Y027533D01*
X017739Y027538D01*
X017746D01*
X017752Y027540D01*
X017775Y027545D01*
X017794Y027558D01*
X017801Y027560D01*
X017805Y027565D01*
X017825Y027578D01*
X017840Y027593D01*
X019140D01*
X019163Y027597D01*
X019170D01*
X019176Y027600D01*
X019199Y027605D01*
X019218Y027617D01*
X019224Y027620D01*
X019229Y027625D01*
X019248Y027638D01*
X019261Y027657D01*
X019266Y027662D01*
X019269Y027668D01*
X019282Y027687D01*
X019286Y027710D01*
X019289Y027716D01*
Y027723D01*
X019293Y027746D01*
X019289Y027769D01*
Y027775D01*
X019286Y027782D01*
X019282Y027804D01*
X019269Y027824D01*
X019266Y027830D01*
X019261Y027835D01*
X019248Y027854D01*
X019229Y027867D01*
X019224Y027872D01*
X019218Y027874D01*
X019199Y027887D01*
X019176Y027892D01*
X019170Y027894D01*
X019163D01*
X019140Y027899D01*
X017776D01*
X017730Y027890D01*
X017558Y028061D01*
X017509Y028094D01*
X017450Y028106D01*
X016767D01*
Y028276D01*
X016775Y028288D01*
X016780Y028311D01*
X016782Y028317D01*
Y028324D01*
X016787Y028346D01*
X016782Y028369D01*
Y028376D01*
X016780Y028382D01*
X016775Y028405D01*
X016762Y028424D01*
X016760Y028431D01*
X016755Y028435D01*
X016742Y028455D01*
X016723Y028467D01*
X016718Y028472D01*
X016712Y028475D01*
X016692Y028488D01*
X016670Y028492D01*
X016663Y028495D01*
X016657D01*
X016634Y028499D01*
X016611Y028495D01*
X016604D01*
X016598Y028492D01*
X016575Y028488D01*
X016556Y028475D01*
X016550Y028472D01*
X016545Y028467D01*
X016526Y028455D01*
X016506Y028435D01*
X016473Y028385D01*
X016461Y028327D01*
Y028106D01*
X015989D01*
X015973Y028156D01*
X016012Y028182D01*
X016382Y028552D01*
X020171D01*
X020382Y028341D01*
Y027594D01*
X020402Y027498D01*
X020456Y027416D01*
X020476Y027397D01*
Y027329D01*
X020501Y027233D01*
X020550Y027148D01*
X020620Y027078D01*
X020706Y027029D01*
X020801Y027003D01*
X020900D01*
X020995Y027029D01*
X021081Y027078D01*
X021150Y027148D01*
X021200Y027233D01*
X021225Y027329D01*
Y027427D01*
X021200Y027523D01*
X021150Y027608D01*
X021081Y027678D01*
X020995Y027727D01*
X020900Y027753D01*
X020886D01*
Y028445D01*
X020867Y028541D01*
X020812Y028623D01*
X020544Y028891D01*
X020563Y028937D01*
X022638D01*
Y017520D01*
D02*
G37*
%LPC*%
G36*
X022225Y027753D02*
X021476D01*
Y027003D01*
X022225D01*
Y027753D01*
D02*
G37*
G36*
X017507Y027469D02*
X017448D01*
X017394Y027446D01*
X017352Y027404D01*
X017329Y027350D01*
Y027291D01*
X017352Y027236D01*
X017394Y027194D01*
X017448Y027172D01*
X017482D01*
X017706Y026948D01*
X017739Y026926D01*
X017778Y026918D01*
X018638D01*
X018657Y026872D01*
X018113Y026328D01*
X017793D01*
X017769Y026352D01*
X017715Y026375D01*
X017656D01*
X017601Y026352D01*
X017560Y026310D01*
X017537Y026256D01*
Y026197D01*
X017560Y026142D01*
X017601Y026100D01*
X017656Y026078D01*
X017715D01*
X017769Y026100D01*
X017793Y026124D01*
X018155D01*
X018194Y026132D01*
X018227Y026154D01*
X018826Y026753D01*
X018865Y026749D01*
X018892Y026702D01*
X018885Y026685D01*
Y026626D01*
X018908Y026571D01*
X018948Y026531D01*
Y026190D01*
X018956Y026151D01*
X018978Y026118D01*
X019558Y025538D01*
Y025031D01*
X019566Y024992D01*
X019588Y024959D01*
X019596Y024951D01*
Y024840D01*
X019572Y024816D01*
X019549Y024762D01*
Y024703D01*
X019572Y024648D01*
X019614Y024606D01*
X019668Y024584D01*
X019727D01*
X019782Y024606D01*
X019824Y024648D01*
X019846Y024703D01*
Y024762D01*
X019824Y024816D01*
X019800Y024840D01*
Y024993D01*
X019792Y025032D01*
X019770Y025065D01*
X019762Y025073D01*
Y025580D01*
X019754Y025619D01*
X019732Y025652D01*
X019152Y026232D01*
Y026564D01*
X019160Y026571D01*
X019167Y026588D01*
X019226Y026600D01*
X019772Y026054D01*
Y026020D01*
X019794Y025966D01*
X019836Y025924D01*
X019890Y025902D01*
X019950D01*
X020004Y025924D01*
X020046Y025966D01*
X020068Y026020D01*
Y026080D01*
X020046Y026134D01*
X020004Y026176D01*
X019950Y026198D01*
X019916D01*
X019374Y026740D01*
X019393Y026786D01*
X019579D01*
X019603Y026763D01*
X019658Y026740D01*
X019717D01*
X019771Y026763D01*
X019813Y026804D01*
X019836Y026859D01*
Y026918D01*
X019813Y026973D01*
X019771Y027014D01*
X019717Y027037D01*
X019658D01*
X019603Y027014D01*
X019579Y026990D01*
X019336D01*
X019234Y027092D01*
X019201Y027114D01*
X019162Y027122D01*
X017820D01*
X017626Y027316D01*
Y027350D01*
X017604Y027404D01*
X017562Y027446D01*
X017507Y027469D01*
D02*
G37*
G36*
X021906Y026803D02*
X021900D01*
Y026428D01*
X022275D01*
Y026434D01*
X022246Y026542D01*
X022190Y026639D01*
X022111Y026718D01*
X022014Y026774D01*
X021906Y026803D01*
D02*
G37*
G36*
X020906D02*
X020900D01*
Y026428D01*
X021275D01*
Y026434D01*
X021246Y026542D01*
X021190Y026639D01*
X021111Y026718D01*
X021014Y026774D01*
X020906Y026803D01*
D02*
G37*
G36*
X020800D02*
X020794D01*
X020686Y026774D01*
X020590Y026718D01*
X020510Y026639D01*
X020455Y026542D01*
X020426Y026434D01*
Y026428D01*
X020800D01*
Y026803D01*
D02*
G37*
G36*
X021800D02*
X021794D01*
X021686Y026774D01*
X021590Y026718D01*
X021510Y026639D01*
X021455Y026542D01*
X021426Y026434D01*
Y026428D01*
X021800D01*
Y026803D01*
D02*
G37*
G36*
X022275Y026328D02*
X021900D01*
Y025953D01*
X021906D01*
X022014Y025982D01*
X022111Y026038D01*
X022190Y026117D01*
X022246Y026214D01*
X022275Y026322D01*
Y026328D01*
D02*
G37*
G36*
X021800D02*
X021426D01*
Y026322D01*
X021455Y026214D01*
X021510Y026117D01*
X021590Y026038D01*
X021686Y025982D01*
X021794Y025953D01*
X021800D01*
Y026328D01*
D02*
G37*
G36*
X021275D02*
X020900D01*
Y025953D01*
X020906D01*
X021014Y025982D01*
X021111Y026038D01*
X021190Y026117D01*
X021246Y026214D01*
X021275Y026322D01*
Y026328D01*
D02*
G37*
G36*
X020800D02*
X020426D01*
Y026322D01*
X020455Y026214D01*
X020510Y026117D01*
X020590Y026038D01*
X020686Y025982D01*
X020794Y025953D01*
X020800D01*
Y026328D01*
D02*
G37*
G36*
X021900Y025753D02*
X021801D01*
X021706Y025727D01*
X021620Y025678D01*
X021550Y025608D01*
X021501Y025523D01*
X021476Y025427D01*
Y025329D01*
X021501Y025233D01*
X021550Y025148D01*
X021620Y025078D01*
X021706Y025029D01*
X021801Y025003D01*
X021900D01*
X021995Y025029D01*
X022081Y025078D01*
X022150Y025148D01*
X022200Y025233D01*
X022225Y025329D01*
Y025427D01*
X022200Y025523D01*
X022150Y025608D01*
X022081Y025678D01*
X021995Y025727D01*
X021900Y025753D01*
D02*
G37*
G36*
X020900D02*
X020801D01*
X020706Y025727D01*
X020620Y025678D01*
X020550Y025608D01*
X020501Y025523D01*
X020476Y025427D01*
Y025329D01*
X020501Y025233D01*
X020550Y025148D01*
X020620Y025078D01*
X020706Y025029D01*
X020801Y025003D01*
X020900D01*
X020995Y025029D01*
X021081Y025078D01*
X021150Y025148D01*
X021200Y025233D01*
X021225Y025329D01*
Y025427D01*
X021200Y025523D01*
X021150Y025608D01*
X021081Y025678D01*
X020995Y025727D01*
X020900Y025753D01*
D02*
G37*
G36*
X015681Y026408D02*
X015622D01*
X015567Y026385D01*
X015526Y026344D01*
X015503Y026289D01*
Y026230D01*
X015526Y026175D01*
X015550Y026152D01*
Y025691D01*
X015557Y025652D01*
X015579Y025619D01*
X015680Y025518D01*
X015713Y025496D01*
X015752Y025489D01*
X016142D01*
X016181Y025496D01*
X016214Y025518D01*
X016282Y025587D01*
X017084D01*
X017811Y024859D01*
Y024714D01*
X017788Y024690D01*
X017765Y024636D01*
Y024577D01*
X017788Y024522D01*
X017829Y024480D01*
X017884Y024458D01*
X017943D01*
X017997Y024480D01*
X018039Y024522D01*
X018062Y024577D01*
Y024636D01*
X018039Y024690D01*
X018015Y024714D01*
Y024902D01*
X018008Y024941D01*
X017985Y024974D01*
X017198Y025761D01*
X017165Y025783D01*
X017126Y025791D01*
X016240D01*
X016201Y025783D01*
X016168Y025761D01*
X016099Y025693D01*
X015794D01*
X015753Y025733D01*
Y026152D01*
X015777Y026175D01*
X015800Y026230D01*
Y026289D01*
X015777Y026344D01*
X015736Y026385D01*
X015681Y026408D01*
D02*
G37*
G36*
X021380Y024252D02*
X019490D01*
X019451Y024244D01*
X019418Y024222D01*
X017606Y022410D01*
X017548Y022434D01*
X017465D01*
X017389Y022403D01*
X017331Y022344D01*
X017299Y022268D01*
Y022259D01*
X017249Y022238D01*
X017232Y022256D01*
X017173Y022290D01*
X017124Y022303D01*
Y022050D01*
Y021797D01*
X017173Y021810D01*
X017232Y021844D01*
X017280Y021892D01*
X017314Y021950D01*
X017331Y022016D01*
Y022038D01*
X017381Y022059D01*
X017389Y022051D01*
X017465Y022019D01*
X017548D01*
X017624Y022051D01*
X017683Y022109D01*
X017714Y022186D01*
Y022230D01*
X019532Y024048D01*
X020639D01*
X020652Y023998D01*
X020590Y023962D01*
X020510Y023883D01*
X020455Y023786D01*
X020426Y023678D01*
Y023672D01*
X020850D01*
X021275D01*
Y023678D01*
X021246Y023786D01*
X021190Y023883D01*
X021111Y023962D01*
X021049Y023998D01*
X021062Y024048D01*
X021338D01*
X021476Y023910D01*
Y023247D01*
X022225D01*
Y023997D01*
X021677D01*
X021452Y024222D01*
X021419Y024244D01*
X021380Y024252D01*
D02*
G37*
G36*
X021275Y023572D02*
X020900D01*
Y023197D01*
X020906D01*
X021014Y023226D01*
X021111Y023282D01*
X021190Y023361D01*
X021246Y023458D01*
X021275Y023566D01*
Y023572D01*
D02*
G37*
G36*
X020800D02*
X020426D01*
Y023566D01*
X020455Y023458D01*
X020510Y023361D01*
X020590Y023282D01*
X020686Y023226D01*
X020794Y023197D01*
X020800D01*
Y023572D01*
D02*
G37*
G36*
X017348Y023431D02*
X017266D01*
X017190Y023400D01*
X017131Y023341D01*
X017100Y023265D01*
Y023182D01*
X017131Y023106D01*
X017190Y023048D01*
X017266Y023016D01*
X017348D01*
X017425Y023048D01*
X017483Y023106D01*
X017515Y023182D01*
Y023265D01*
X017483Y023341D01*
X017425Y023400D01*
X017348Y023431D01*
D02*
G37*
G36*
X016865Y023417D02*
X016782D01*
X016706Y023386D01*
X016648Y023327D01*
X016616Y023251D01*
Y023169D01*
X016648Y023092D01*
X016706Y023034D01*
X016706Y023033D01*
X016700Y023019D01*
Y022800D01*
X016887D01*
X016852Y022885D01*
X016785Y022952D01*
X016783Y022952D01*
X016793Y023002D01*
X016865D01*
X016941Y023034D01*
X016999Y023092D01*
X017031Y023169D01*
Y023251D01*
X016999Y023327D01*
X016941Y023386D01*
X016865Y023417D01*
D02*
G37*
G36*
X016600Y022987D02*
X016515Y022952D01*
X016448Y022885D01*
X016413Y022800D01*
X016600D01*
Y022987D01*
D02*
G37*
G36*
X021906Y023047D02*
X021900D01*
Y022672D01*
X022275D01*
Y022678D01*
X022246Y022786D01*
X022190Y022883D01*
X022111Y022962D01*
X022014Y023018D01*
X021906Y023047D01*
D02*
G37*
G36*
X021800D02*
X021794D01*
X021686Y023018D01*
X021590Y022962D01*
X021510Y022883D01*
X021455Y022786D01*
X021426Y022678D01*
Y022672D01*
X021800D01*
Y023047D01*
D02*
G37*
G36*
X017535Y022938D02*
X017460D01*
X017391Y022909D01*
X017338Y022856D01*
X017309Y022787D01*
Y022713D01*
X017338Y022644D01*
X017391Y022591D01*
X017460Y022562D01*
X017535D01*
X017604Y022591D01*
X017656Y022644D01*
X017685Y022713D01*
Y022787D01*
X017656Y022856D01*
X017604Y022909D01*
X017535Y022938D01*
D02*
G37*
G36*
X016887Y022700D02*
X016700D01*
Y022513D01*
X016785Y022548D01*
X016852Y022615D01*
X016887Y022700D01*
D02*
G37*
G36*
X016600D02*
X016413D01*
X016448Y022615D01*
X016515Y022548D01*
X016600Y022513D01*
Y022700D01*
D02*
G37*
G36*
X019605Y023225D02*
X018875D01*
Y022495D01*
X019605D01*
Y023225D01*
D02*
G37*
G36*
X020900Y022997D02*
X020801D01*
X020706Y022971D01*
X020620Y022922D01*
X020550Y022852D01*
X020501Y022767D01*
X020476Y022671D01*
Y022573D01*
X020501Y022477D01*
X020550Y022392D01*
X020620Y022322D01*
X020706Y022273D01*
X020801Y022247D01*
X020900D01*
X020995Y022273D01*
X021081Y022322D01*
X021150Y022392D01*
X021200Y022477D01*
X021225Y022573D01*
Y022671D01*
X021200Y022767D01*
X021150Y022852D01*
X021081Y022922D01*
X020995Y022971D01*
X020900Y022997D01*
D02*
G37*
G36*
X022275Y022572D02*
X021900D01*
Y022197D01*
X021906D01*
X022014Y022226D01*
X022111Y022282D01*
X022190Y022361D01*
X022246Y022458D01*
X022275Y022566D01*
Y022572D01*
D02*
G37*
G36*
X021800D02*
X021426D01*
Y022566D01*
X021455Y022458D01*
X021510Y022361D01*
X021590Y022282D01*
X021686Y022226D01*
X021794Y022197D01*
X021800D01*
Y022572D01*
D02*
G37*
G36*
X016682Y022434D02*
X016599D01*
X016523Y022403D01*
X016465Y022344D01*
X016433Y022268D01*
Y022186D01*
X016465Y022109D01*
X016523Y022051D01*
X016599Y022019D01*
X016682D01*
X016758Y022051D01*
X016766Y022059D01*
X016816Y022038D01*
Y022016D01*
X016834Y021950D01*
X016868Y021892D01*
X016916Y021844D01*
X016974Y021810D01*
X017024Y021797D01*
Y022050D01*
Y022303D01*
X016974Y022290D01*
X016916Y022256D01*
X016898Y022238D01*
X016848Y022259D01*
Y022268D01*
X016816Y022344D01*
X016758Y022403D01*
X016682Y022434D01*
D02*
G37*
G36*
X019288Y022225D02*
X019192D01*
X019099Y022200D01*
X019016Y022152D01*
X018948Y022084D01*
X018900Y022001D01*
X018875Y021908D01*
Y021812D01*
X018900Y021719D01*
X018948Y021636D01*
X019016Y021568D01*
X019099Y021520D01*
X019192Y021495D01*
X019288D01*
X019381Y021520D01*
X019464Y021568D01*
X019532Y021636D01*
X019580Y021719D01*
X019605Y021812D01*
Y021908D01*
X019580Y022001D01*
X019532Y022084D01*
X019464Y022152D01*
X019381Y022200D01*
X019288Y022225D01*
D02*
G37*
G36*
X019295Y021275D02*
X019290D01*
Y020910D01*
X019655D01*
Y020915D01*
X019627Y021020D01*
X019572Y021115D01*
X019495Y021192D01*
X019400Y021247D01*
X019295Y021275D01*
D02*
G37*
G36*
X019190D02*
X019185D01*
X019080Y021247D01*
X018985Y021192D01*
X018908Y021115D01*
X018853Y021020D01*
X018825Y020915D01*
Y020910D01*
X019190D01*
Y021275D01*
D02*
G37*
G36*
X019655Y020810D02*
X019290D01*
Y020445D01*
X019295D01*
X019400Y020473D01*
X019495Y020528D01*
X019572Y020605D01*
X019627Y020700D01*
X019655Y020805D01*
Y020810D01*
D02*
G37*
G36*
X019190D02*
X018825D01*
Y020805D01*
X018853Y020700D01*
X018908Y020605D01*
X018985Y020528D01*
X019080Y020473D01*
X019185Y020445D01*
X019190D01*
Y020810D01*
D02*
G37*
G36*
X016685Y020420D02*
X016599D01*
X016516Y020398D01*
X016442Y020355D01*
X016381Y020294D01*
X016338Y020220D01*
X016316Y020137D01*
Y020052D01*
X016338Y019969D01*
X016381Y019895D01*
X016442Y019834D01*
X016516Y019791D01*
X016599Y019769D01*
X016685D01*
X016767Y019791D01*
X016842Y019834D01*
X016902Y019895D01*
X016945Y019969D01*
X016967Y020052D01*
Y020137D01*
X016945Y020220D01*
X016902Y020294D01*
X016842Y020355D01*
X016767Y020398D01*
X016685Y020420D01*
D02*
G37*
G36*
X020906Y020110D02*
X020900D01*
Y019735D01*
X021275D01*
Y019741D01*
X021246Y019849D01*
X021190Y019946D01*
X021111Y020025D01*
X021014Y020081D01*
X020906Y020110D01*
D02*
G37*
G36*
X020800D02*
X020794D01*
X020686Y020081D01*
X020590Y020025D01*
X020510Y019946D01*
X020455Y019849D01*
X020426Y019741D01*
Y019735D01*
X020800D01*
Y020110D01*
D02*
G37*
G36*
X018010Y019678D02*
X017950D01*
X017896Y019656D01*
X017854Y019614D01*
X017832Y019560D01*
Y019500D01*
X017854Y019446D01*
X017896Y019404D01*
X017950Y019382D01*
X018010D01*
X018064Y019404D01*
X018106Y019446D01*
X018128Y019500D01*
Y019560D01*
X018106Y019614D01*
X018064Y019656D01*
X018010Y019678D01*
D02*
G37*
G36*
X022225Y020060D02*
X021476D01*
Y019310D01*
X022225D01*
Y020060D01*
D02*
G37*
G36*
X021275Y019635D02*
X020900D01*
Y019260D01*
X020906D01*
X021014Y019289D01*
X021111Y019345D01*
X021190Y019424D01*
X021246Y019521D01*
X021275Y019629D01*
Y019635D01*
D02*
G37*
G36*
X020800D02*
X020426D01*
Y019629D01*
X020455Y019521D01*
X020510Y019424D01*
X020590Y019345D01*
X020686Y019289D01*
X020794Y019260D01*
X020800D01*
Y019635D01*
D02*
G37*
%LPD*%
D57*
X016614Y028017D02*
Y028327D01*
X016634Y028346D01*
X017776Y027746D02*
X019140D01*
X017717Y027686D02*
X017776Y027746D01*
X016550Y027953D02*
X017450D01*
X015650D02*
X016550D01*
X017450D02*
X017717Y027686D01*
X015327Y027630D02*
X015650Y027953D01*
X015225Y027630D02*
X015327D01*
D58*
X019487Y018753D02*
Y019695D01*
X019865Y020073D01*
X019662Y018160D02*
X021279D01*
X017581Y017949D02*
X017950Y017580D01*
X018761D01*
X019487Y018336D02*
X019662Y018160D01*
X021279D02*
X021804Y018685D01*
X016767Y018342D02*
X017157Y018732D01*
Y018880D01*
X016642Y018094D02*
Y018162D01*
X016767Y018288D01*
Y018342D01*
X018761Y017580D02*
X019487Y018305D01*
Y018336D02*
Y018699D01*
X017157Y018880D02*
X017581Y018456D01*
Y017949D02*
Y018456D01*
X021804Y018685D02*
X021850D01*
X015642Y019094D02*
Y019094D01*
Y019094D02*
X016642Y018094D01*
D59*
X015752Y025591D02*
X016142D01*
X016240Y025689D02*
X017126D01*
X016142Y025591D02*
X016240Y025689D01*
X017126D02*
X017913Y024902D01*
Y024606D02*
Y024902D01*
X019660Y025031D02*
X019698Y024993D01*
Y024732D02*
Y024993D01*
X019660Y025031D02*
Y025580D01*
X019034Y026656D02*
X019050Y026639D01*
X017778Y027020D02*
X019162D01*
X019294Y026888D02*
X019687D01*
X019162Y027020D02*
X019294Y026888D01*
X019050Y026190D02*
Y026639D01*
X019100Y026870D02*
X019920Y026050D01*
X018799Y026870D02*
X019100D01*
X019050Y026190D02*
X019660Y025580D01*
X017478Y027320D02*
X017778Y027020D01*
X018155Y026226D02*
X018799Y026870D01*
X017685Y026226D02*
X018155D01*
X016550Y027953D02*
X016614Y028017D01*
X017507Y022227D02*
X017567D01*
X019490Y024150D01*
X021380D01*
X021850Y023680D01*
Y023622D02*
Y023680D01*
X015651Y025691D02*
X015752Y025591D01*
X015651Y025691D02*
Y026260D01*
D61*
X016642Y018094D02*
D03*
X015642Y019094D02*
D03*
X016642Y020094D02*
D03*
D62*
X020850Y027378D02*
D03*
X021850Y026378D02*
D03*
Y025378D02*
D03*
X020850Y026378D02*
D03*
Y025378D02*
D03*
Y023622D02*
D03*
X021850Y022622D02*
D03*
X020850D02*
D03*
Y019685D02*
D03*
X021850Y018685D02*
D03*
X020850D02*
D03*
D63*
X021850Y027378D02*
D03*
Y023622D02*
D03*
Y019685D02*
D03*
D64*
X017497Y022750D02*
D03*
X016650D02*
D03*
D65*
X017507Y022227D02*
D03*
X017074Y022050D02*
D03*
X016824Y023210D02*
D03*
X016641Y022227D02*
D03*
X017307Y023224D02*
D03*
D66*
X019240Y020860D02*
D03*
Y021860D02*
D03*
D67*
Y022860D02*
D03*
D68*
X016634Y028346D02*
D03*
X019865Y020073D02*
D03*
X019698Y024732D02*
D03*
X019034Y026656D02*
D03*
X018570Y027497D02*
D03*
X015895Y027628D02*
D03*
X017478Y027320D02*
D03*
X017717Y027686D02*
D03*
X019687Y026888D02*
D03*
X017913Y024606D02*
D03*
X016820Y025230D02*
D03*
X015855Y025789D02*
D03*
X020079Y018504D02*
D03*
X017525Y028348D02*
D03*
X018954Y028269D02*
D03*
X015834Y028360D02*
D03*
X015925Y020846D02*
D03*
X015945Y019882D02*
D03*
X014961Y027165D02*
D03*
X015225Y027300D02*
D03*
Y027630D02*
D03*
X017157Y018880D02*
D03*
X019487Y018753D02*
D03*
X015771Y023919D02*
D03*
X020090Y028151D02*
D03*
X015651Y026260D02*
D03*
X018300Y017580D02*
D03*
X017910Y017620D02*
D03*
X016653Y026581D02*
D03*
X019140Y027746D02*
D03*
X016280Y026970D02*
D03*
X017050Y026960D02*
D03*
X017980Y019530D02*
D03*
X018962Y019380D02*
D03*
X017425Y025778D02*
D03*
X016885Y024808D02*
D03*
X017685Y026226D02*
D03*
X016450Y025260D02*
D03*
X019920Y026050D02*
D03*
X017020Y026180D02*
D03*
X016230Y026170D02*
D03*
D69*
X016278Y028803D02*
X020276D01*
X020634Y027594D02*
X020850Y027378D01*
X020634Y027594D02*
Y028445D01*
X020276Y028803D02*
X020634Y028445D01*
X014878Y027774D02*
X015464Y028360D01*
X014878Y027167D02*
Y027774D01*
X015464Y028360D02*
X015834D01*
X014878Y027167D02*
X014880Y027165D01*
X016770Y025180D02*
X016820Y025230D01*
X015542Y025180D02*
X016770D01*
X014880Y025842D02*
X015542Y025180D01*
X014880Y025842D02*
Y027165D01*
X015834Y028360D02*
X016278Y028803D01*
M02*
