G04*
G04 #@! TF.GenerationSoftware,Altium Limited,Altium Designer,22.2.1 (43)*
G04*
G04 Layer_Color=8388736*
%FSAX24Y24*%
%MOIN*%
G70*
G04*
G04 #@! TF.SameCoordinates,0A7D3E4C-9769-4D31-AB1C-A6483D793648*
G04*
G04*
G04 #@! TF.FilePolarity,Negative*
G04*
G01*
G75*
%ADD16R,0.0551X0.0646*%
G04:AMPARAMS|DCode=22|XSize=43.3mil|YSize=23.6mil|CornerRadius=2mil|HoleSize=0mil|Usage=FLASHONLY|Rotation=90.000|XOffset=0mil|YOffset=0mil|HoleType=Round|Shape=RoundedRectangle|*
%AMROUNDEDRECTD22*
21,1,0.0433,0.0196,0,0,90.0*
21,1,0.0393,0.0236,0,0,90.0*
1,1,0.0040,0.0098,0.0196*
1,1,0.0040,0.0098,-0.0196*
1,1,0.0040,-0.0098,-0.0196*
1,1,0.0040,-0.0098,0.0196*
%
%ADD22ROUNDEDRECTD22*%
%ADD29R,0.0376X0.0359*%
%ADD34R,0.0434X0.0277*%
%ADD35R,0.0308X0.0324*%
%ADD36R,0.0324X0.0324*%
%ADD37R,0.0324X0.0308*%
%ADD38R,0.0336X0.0493*%
%ADD39R,0.0316X0.0474*%
%ADD40R,0.0316X0.0789*%
G04:AMPARAMS|DCode=41|XSize=17.8mil|YSize=33.6mil|CornerRadius=6.5mil|HoleSize=0mil|Usage=FLASHONLY|Rotation=0.000|XOffset=0mil|YOffset=0mil|HoleType=Round|Shape=RoundedRectangle|*
%AMROUNDEDRECTD41*
21,1,0.0178,0.0207,0,0,0.0*
21,1,0.0049,0.0336,0,0,0.0*
1,1,0.0129,0.0025,-0.0103*
1,1,0.0129,-0.0025,-0.0103*
1,1,0.0129,-0.0025,0.0103*
1,1,0.0129,0.0025,0.0103*
%
%ADD41ROUNDEDRECTD41*%
G04:AMPARAMS|DCode=42|XSize=17.8mil|YSize=33.6mil|CornerRadius=6.5mil|HoleSize=0mil|Usage=FLASHONLY|Rotation=270.000|XOffset=0mil|YOffset=0mil|HoleType=Round|Shape=RoundedRectangle|*
%AMROUNDEDRECTD42*
21,1,0.0178,0.0207,0,0,270.0*
21,1,0.0049,0.0336,0,0,270.0*
1,1,0.0129,-0.0103,-0.0025*
1,1,0.0129,-0.0103,0.0025*
1,1,0.0129,0.0103,0.0025*
1,1,0.0129,0.0103,-0.0025*
%
%ADD42ROUNDEDRECTD42*%
%ADD43R,0.1182X0.1182*%
%ADD44R,0.0324X0.0324*%
%ADD45R,0.0363X0.0360*%
%ADD46R,0.0434X0.0474*%
%ADD47R,0.0297X0.0297*%
%ADD48R,0.0474X0.0474*%
%ADD49R,0.0395X0.0395*%
%ADD50C,0.0631*%
%ADD51C,0.0730*%
%ADD52R,0.0730X0.0730*%
%ADD53C,0.0356*%
%ADD54C,0.0395*%
%ADD55C,0.0710*%
%ADD56R,0.0710X0.0710*%
D16*
X022250Y021161D02*
D03*
X020663D02*
D03*
D22*
X017926Y018018D02*
D03*
X018300D02*
D03*
X018674D02*
D03*
Y019042D02*
D03*
X018300D02*
D03*
X017926D02*
D03*
D29*
X018040Y025208D02*
D03*
X018651D02*
D03*
D34*
X018917Y024016D02*
D03*
X017894D02*
D03*
D35*
X019870Y019783D02*
D03*
X019500D02*
D03*
X019181D02*
D03*
X018811D02*
D03*
X015736Y019882D02*
D03*
X015366D02*
D03*
X019673Y017717D02*
D03*
X019303D02*
D03*
X019093Y026350D02*
D03*
X019463D02*
D03*
X016203Y028268D02*
D03*
X015833D02*
D03*
X016930Y028708D02*
D03*
X017300D02*
D03*
Y028318D02*
D03*
X016930D02*
D03*
D36*
X017145Y024821D02*
D03*
Y025175D02*
D03*
X019250Y018773D02*
D03*
Y019127D02*
D03*
X019150Y028277D02*
D03*
Y027923D02*
D03*
X015418Y027273D02*
D03*
Y027627D02*
D03*
X017380Y019236D02*
D03*
Y018882D02*
D03*
D37*
X014996Y026559D02*
D03*
Y026929D02*
D03*
X019720Y027619D02*
D03*
Y027249D02*
D03*
X015035Y028003D02*
D03*
Y028373D02*
D03*
X015415Y028003D02*
D03*
Y028373D02*
D03*
X020112Y027520D02*
D03*
Y027890D02*
D03*
X017975Y026343D02*
D03*
Y026713D02*
D03*
X018005Y027163D02*
D03*
Y027533D02*
D03*
X019145Y027158D02*
D03*
Y027528D02*
D03*
X018375Y027533D02*
D03*
Y027163D02*
D03*
X018755Y027533D02*
D03*
Y027163D02*
D03*
D38*
X015177Y020413D02*
D03*
X015925D02*
D03*
X015551Y021319D02*
D03*
D39*
X018006Y020626D02*
D03*
X018380Y019720D02*
D03*
X017632D02*
D03*
D40*
X016140Y024968D02*
D03*
X015510D02*
D03*
D41*
X017145Y027378D02*
D03*
X016948D02*
D03*
X016752D02*
D03*
X016555D02*
D03*
X016358D02*
D03*
X016161D02*
D03*
Y025784D02*
D03*
X016358D02*
D03*
X016555D02*
D03*
X016752D02*
D03*
X016948D02*
D03*
X017145D02*
D03*
D42*
X015856Y027073D02*
D03*
Y026876D02*
D03*
Y026679D02*
D03*
Y026482D02*
D03*
Y026286D02*
D03*
Y026089D02*
D03*
X017450D02*
D03*
Y026286D02*
D03*
Y026482D02*
D03*
Y026679D02*
D03*
Y026876D02*
D03*
Y027073D02*
D03*
D43*
X016653Y026581D02*
D03*
D44*
X019473Y025938D02*
D03*
X019118D02*
D03*
X017088Y027818D02*
D03*
X017443D02*
D03*
X016200Y027887D02*
D03*
X015846D02*
D03*
D45*
X015513Y024309D02*
D03*
Y023947D02*
D03*
X016633Y025175D02*
D03*
Y024813D02*
D03*
D46*
X018640Y025818D02*
D03*
X018010D02*
D03*
D47*
X018368Y026718D02*
D03*
X018723D02*
D03*
X018723Y026348D02*
D03*
X018368D02*
D03*
D48*
X017945Y028028D02*
D03*
X018536D02*
D03*
X017940Y028618D02*
D03*
X018531D02*
D03*
D49*
X020112Y026370D02*
D03*
Y027000D02*
D03*
D50*
X016642Y018094D02*
D03*
X015642Y019094D02*
D03*
X016642Y020094D02*
D03*
D51*
X020850Y027378D02*
D03*
X021850Y026378D02*
D03*
Y025378D02*
D03*
X020850Y026378D02*
D03*
Y025378D02*
D03*
Y023622D02*
D03*
X021850Y022622D02*
D03*
X020850D02*
D03*
Y019685D02*
D03*
X021850Y018685D02*
D03*
X020850D02*
D03*
D52*
X021850Y027378D02*
D03*
Y023622D02*
D03*
Y019685D02*
D03*
D53*
X017497Y022750D02*
D03*
X016650D02*
D03*
D54*
X017507Y022227D02*
D03*
X017074Y022050D02*
D03*
X016824Y023210D02*
D03*
X016641Y022227D02*
D03*
X017307Y023224D02*
D03*
D55*
X019240Y020860D02*
D03*
Y021860D02*
D03*
D56*
Y022860D02*
D03*
M02*
