G04*
G04 #@! TF.GenerationSoftware,Altium Limited,Altium Designer,22.2.1 (43)*
G04*
G04 Layer_Color=128*
%FSAX24Y24*%
%MOIN*%
G70*
G04*
G04 #@! TF.SameCoordinates,0A7D3E4C-9769-4D31-AB1C-A6483D793648*
G04*
G04*
G04 #@! TF.FilePolarity,Positive*
G04*
G01*
G75*
%ADD71C,0.0020*%
D71*
X016504Y018094D02*
X016780D01*
X016642Y017957D02*
Y018232D01*
X015504Y019094D02*
X015780D01*
X015642Y018957D02*
Y019232D01*
X016504Y020094D02*
X016780D01*
X016642Y019957D02*
Y020232D01*
X020634Y027378D02*
X021067D01*
X020850Y027161D02*
Y027594D01*
X021634Y027378D02*
X022067D01*
X021850Y027161D02*
Y027594D01*
X021634Y026378D02*
X022067D01*
X021850Y026161D02*
Y026594D01*
X021634Y025378D02*
X022067D01*
X021850Y025161D02*
Y025594D01*
X020634Y026378D02*
X021067D01*
X020850Y026161D02*
Y026594D01*
X020634Y025378D02*
X021067D01*
X020850Y025161D02*
Y025594D01*
X021634Y023622D02*
X022067D01*
X021850Y023406D02*
Y023839D01*
X020634Y023622D02*
X021067D01*
X020850Y023406D02*
Y023839D01*
X021634Y022622D02*
X022067D01*
X021850Y022406D02*
Y022839D01*
X020634Y022622D02*
X021067D01*
X020850Y022406D02*
Y022839D01*
X021634Y019685D02*
X022067D01*
X021850Y019468D02*
Y019902D01*
X020634Y019685D02*
X021067D01*
X020850Y019468D02*
Y019902D01*
X021634Y018685D02*
X022067D01*
X021850Y018469D02*
Y018902D01*
X020634Y018685D02*
X021067D01*
X020850Y018469D02*
Y018902D01*
X017409Y022750D02*
X017586D01*
X017497Y022661D02*
Y022839D01*
X016561Y022750D02*
X016739D01*
X016650Y022661D02*
Y022839D01*
X017398Y022227D02*
X017615D01*
X017507Y022119D02*
Y022335D01*
X016965Y022050D02*
X017182D01*
X017074Y021941D02*
Y022158D01*
X016715Y023210D02*
X016932D01*
X016824Y023102D02*
Y023318D01*
X016532Y022227D02*
X016749D01*
X016641Y022119D02*
Y022335D01*
X017199Y023224D02*
X017415D01*
X017307Y023115D02*
Y023332D01*
X019023Y020860D02*
X019457D01*
X019240Y020643D02*
Y021077D01*
X019023Y021860D02*
X019457D01*
X019240Y021643D02*
Y022077D01*
X019023Y022860D02*
X019457D01*
X019240Y022643D02*
Y023077D01*
X016575Y028346D02*
X016693D01*
X016634Y028287D02*
Y028406D01*
X019806Y020073D02*
X019924D01*
X019865Y020014D02*
Y020133D01*
X019639Y024732D02*
X019757D01*
X019698Y024673D02*
Y024791D01*
X018975Y026656D02*
X019093D01*
X019034Y026596D02*
Y026715D01*
X018511Y027497D02*
X018629D01*
X018570Y027438D02*
Y027557D01*
X015836Y027628D02*
X015954D01*
X015895Y027569D02*
Y027687D01*
X017419Y027320D02*
X017537D01*
X017478Y027261D02*
Y027379D01*
X017657Y027686D02*
X017776D01*
X017717Y027627D02*
Y027745D01*
X019628Y026888D02*
X019746D01*
X019687Y026829D02*
Y026947D01*
X017854Y024606D02*
X017972D01*
X017913Y024547D02*
Y024665D01*
X016761Y025230D02*
X016879D01*
X016820Y025171D02*
Y025289D01*
X015796Y025789D02*
X015914D01*
X015855Y025730D02*
Y025848D01*
X020020Y018504D02*
X020138D01*
X020079Y018445D02*
Y018563D01*
X017466Y028348D02*
X017584D01*
X017525Y028289D02*
Y028407D01*
X018895Y028269D02*
X019013D01*
X018954Y028210D02*
Y028328D01*
X015775Y028360D02*
X015893D01*
X015834Y028301D02*
Y028419D01*
X015866Y020846D02*
X015984D01*
X015925Y020787D02*
Y020906D01*
X015886Y019882D02*
X016004D01*
X015945Y019823D02*
Y019941D01*
X014902Y027165D02*
X015020D01*
X014961Y027106D02*
Y027224D01*
X015166Y027300D02*
X015284D01*
X015225Y027241D02*
Y027359D01*
X015166Y027630D02*
X015284D01*
X015225Y027571D02*
Y027689D01*
X017098Y018880D02*
X017216D01*
X017157Y018821D02*
Y018939D01*
X019428Y018753D02*
X019546D01*
X019487Y018694D02*
Y018812D01*
X015711Y023919D02*
X015830D01*
X015771Y023860D02*
Y023978D01*
X020031Y028151D02*
X020149D01*
X020090Y028092D02*
Y028210D01*
X015592Y026260D02*
X015711D01*
X015651Y026200D02*
Y026319D01*
X018241Y017580D02*
X018359D01*
X018300Y017521D02*
Y017639D01*
X017851Y017620D02*
X017969D01*
X017910Y017561D02*
Y017679D01*
X016594Y026581D02*
X016712D01*
X016653Y026522D02*
Y026640D01*
X019081Y027746D02*
X019199D01*
X019140Y027687D02*
Y027805D01*
X016221Y026970D02*
X016339D01*
X016280Y026911D02*
Y027029D01*
X016991Y026960D02*
X017109D01*
X017050Y026901D02*
Y027019D01*
X017921Y019530D02*
X018039D01*
X017980Y019471D02*
Y019589D01*
X018903Y019380D02*
X019021D01*
X018962Y019321D02*
Y019439D01*
X017366Y025778D02*
X017484D01*
X017425Y025719D02*
Y025837D01*
X016826Y024808D02*
X016944D01*
X016885Y024749D02*
Y024867D01*
X017626Y026226D02*
X017744D01*
X017685Y026167D02*
Y026285D01*
X016391Y025260D02*
X016509D01*
X016450Y025201D02*
Y025319D01*
X019861Y026050D02*
X019979D01*
X019920Y025991D02*
Y026109D01*
X016961Y026180D02*
X017079D01*
X017020Y026121D02*
Y026239D01*
X016171Y026170D02*
X016289D01*
X016230Y026111D02*
Y026229D01*
M02*
