G04*
G04 #@! TF.GenerationSoftware,Altium Limited,Altium Designer,22.2.1 (43)*
G04*
G04 Layer_Physical_Order=1*
G04 Layer_Color=255*
%FSAX24Y24*%
%MOIN*%
G70*
G04*
G04 #@! TF.SameCoordinates,0A7D3E4C-9769-4D31-AB1C-A6483D793648*
G04*
G04*
G04 #@! TF.FilePolarity,Positive*
G04*
G01*
G75*
%ADD15R,0.0354X0.0197*%
%ADD16R,0.0551X0.0646*%
%ADD17R,0.0228X0.0244*%
%ADD18R,0.0244X0.0244*%
%ADD19R,0.0244X0.0228*%
%ADD20R,0.0256X0.0413*%
%ADD21R,0.0236X0.0394*%
G04:AMPARAMS|DCode=22|XSize=43.3mil|YSize=23.6mil|CornerRadius=2mil|HoleSize=0mil|Usage=FLASHONLY|Rotation=90.000|XOffset=0mil|YOffset=0mil|HoleType=Round|Shape=RoundedRectangle|*
%AMROUNDEDRECTD22*
21,1,0.0433,0.0196,0,0,90.0*
21,1,0.0393,0.0236,0,0,90.0*
1,1,0.0040,0.0098,0.0196*
1,1,0.0040,0.0098,-0.0196*
1,1,0.0040,-0.0098,-0.0196*
1,1,0.0040,-0.0098,0.0196*
%
%ADD22ROUNDEDRECTD22*%
%ADD23R,0.0236X0.0709*%
G04:AMPARAMS|DCode=24|XSize=9.8mil|YSize=25.6mil|CornerRadius=2.5mil|HoleSize=0mil|Usage=FLASHONLY|Rotation=0.000|XOffset=0mil|YOffset=0mil|HoleType=Round|Shape=RoundedRectangle|*
%AMROUNDEDRECTD24*
21,1,0.0098,0.0207,0,0,0.0*
21,1,0.0049,0.0256,0,0,0.0*
1,1,0.0049,0.0025,-0.0103*
1,1,0.0049,-0.0025,-0.0103*
1,1,0.0049,-0.0025,0.0103*
1,1,0.0049,0.0025,0.0103*
%
%ADD24ROUNDEDRECTD24*%
G04:AMPARAMS|DCode=25|XSize=9.8mil|YSize=25.6mil|CornerRadius=2.5mil|HoleSize=0mil|Usage=FLASHONLY|Rotation=270.000|XOffset=0mil|YOffset=0mil|HoleType=Round|Shape=RoundedRectangle|*
%AMROUNDEDRECTD25*
21,1,0.0098,0.0207,0,0,270.0*
21,1,0.0049,0.0256,0,0,270.0*
1,1,0.0049,-0.0103,-0.0025*
1,1,0.0049,-0.0103,0.0025*
1,1,0.0049,0.0103,0.0025*
1,1,0.0049,0.0103,-0.0025*
%
%ADD25ROUNDEDRECTD25*%
%ADD26R,0.1102X0.1102*%
%ADD27R,0.0244X0.0244*%
%ADD28R,0.0283X0.0280*%
%ADD29R,0.0376X0.0359*%
%ADD30R,0.0354X0.0394*%
%ADD31R,0.0217X0.0217*%
%ADD32R,0.0394X0.0394*%
%ADD33R,0.0315X0.0315*%
%ADD57C,0.0200*%
%ADD58C,0.0300*%
%ADD59C,0.0100*%
%ADD60C,0.0150*%
%ADD61C,0.0551*%
%ADD62C,0.0650*%
%ADD63R,0.0650X0.0650*%
%ADD64C,0.0276*%
%ADD65C,0.0315*%
%ADD66C,0.0630*%
%ADD67R,0.0630X0.0630*%
%ADD68C,0.0197*%
G36*
X022638Y023385D02*
X022588Y023369D01*
X022585Y023373D01*
X022367Y023591D01*
X022301Y023636D01*
X022225Y023651D01*
Y023997D01*
X021476D01*
Y023247D01*
X022006D01*
X022025Y023243D01*
X022139D01*
X022237Y023145D01*
Y022895D01*
X022211Y022888D01*
X022187Y022886D01*
X022111Y022962D01*
X022014Y023018D01*
X021906Y023047D01*
X021900D01*
Y022622D01*
Y022197D01*
X021906D01*
X022014Y022226D01*
X022111Y022282D01*
X022187Y022358D01*
X022211Y022356D01*
X022237Y022349D01*
Y021836D01*
X022231Y021831D01*
X022187Y021765D01*
X022172Y021687D01*
Y021534D01*
X021924D01*
Y020789D01*
X022576D01*
Y021267D01*
X022580Y021287D01*
Y021562D01*
X022588Y021568D01*
X022638Y021543D01*
Y017520D01*
X019887D01*
Y017667D01*
X019673D01*
Y017717D01*
X019623D01*
Y017939D01*
X019459D01*
Y017889D01*
X019139D01*
Y017818D01*
X018919D01*
X018843Y017894D01*
Y018215D01*
X018838Y018242D01*
X018823Y018265D01*
X018799Y018281D01*
X018772Y018286D01*
X018576D01*
X018549Y018281D01*
X018525Y018265D01*
X018514Y018248D01*
X018487Y018245D01*
X018460Y018248D01*
X018449Y018265D01*
X018425Y018281D01*
X018398Y018286D01*
X018202D01*
X018175Y018281D01*
X018151Y018265D01*
X018140Y018248D01*
X018113Y018245D01*
X018086Y018248D01*
X018075Y018265D01*
X018051Y018281D01*
X018024Y018286D01*
X017828D01*
X017801Y018281D01*
X017777Y018265D01*
X017762Y018242D01*
X017757Y018215D01*
Y017822D01*
X017757Y017819D01*
Y017620D01*
X017762Y017597D01*
Y017590D01*
X017764Y017584D01*
X017767Y017570D01*
X017752Y017540D01*
X017736Y017520D01*
X014764D01*
Y027097D01*
X014814Y027111D01*
X014820Y027101D01*
X014824Y027090D01*
Y026765D01*
X014824Y026765D01*
Y026723D01*
X014824D01*
X014824Y026715D01*
Y026395D01*
X014859D01*
Y022408D01*
X014866Y022369D01*
X014889Y022336D01*
X015449Y021775D01*
Y021576D01*
X015373D01*
Y021062D01*
X015729D01*
Y021576D01*
X015653D01*
Y021817D01*
X015645Y021856D01*
X015623Y021890D01*
X015063Y022450D01*
Y022526D01*
X015113Y022541D01*
X015118Y022533D01*
X017420Y020231D01*
X017400Y020181D01*
X016956D01*
X016945Y020220D01*
X016902Y020294D01*
X016842Y020355D01*
X016767Y020398D01*
X016685Y020420D01*
X016599D01*
X016516Y020398D01*
X016442Y020355D01*
X016381Y020294D01*
X016338Y020220D01*
X016316Y020137D01*
Y020052D01*
X016338Y019969D01*
X016381Y019895D01*
X016442Y019834D01*
X016516Y019791D01*
X016599Y019769D01*
X016685D01*
X016767Y019791D01*
X016842Y019834D01*
X016902Y019895D01*
X016945Y019969D01*
X016947Y019977D01*
X017418D01*
X017464Y019967D01*
X017464Y019927D01*
Y019617D01*
X017350Y019503D01*
X017328Y019470D01*
X017320Y019431D01*
Y019408D01*
X017208D01*
Y019104D01*
X017208Y019064D01*
X017170Y019033D01*
X017157D01*
X017134Y019029D01*
X017127D01*
X017121Y019026D01*
X017098Y019022D01*
X017079Y019009D01*
X017073Y019006D01*
X017068Y019001D01*
X017049Y018988D01*
X017036Y018969D01*
X017031Y018964D01*
X017028Y018958D01*
X017016Y018939D01*
X017011Y018916D01*
X017009Y018910D01*
Y018903D01*
X017004Y018880D01*
X017009Y018858D01*
Y018851D01*
X017011Y018844D01*
X017016Y018822D01*
X017028Y018802D01*
X017031Y018796D01*
X017036Y018791D01*
X017049Y018772D01*
X017068Y018759D01*
X017073Y018754D01*
X017079Y018752D01*
X017098Y018739D01*
X017121Y018734D01*
X017127Y018732D01*
X017134D01*
X017157Y018727D01*
X017208D01*
Y018710D01*
X017552D01*
Y019014D01*
X017552Y019054D01*
X017597Y019065D01*
X017757D01*
Y018845D01*
X017762Y018818D01*
X017777Y018795D01*
X017801Y018779D01*
X017828Y018774D01*
X018024D01*
X018051Y018779D01*
X018075Y018795D01*
X018086Y018812D01*
X018113Y018815D01*
X018140Y018812D01*
X018151Y018795D01*
X018175Y018779D01*
X018202Y018774D01*
X018398D01*
X018425Y018779D01*
X018483Y018766D01*
X018486Y018764D01*
X018489Y018759D01*
X018529Y018732D01*
X018576Y018723D01*
X018624D01*
Y019042D01*
Y019361D01*
X018576D01*
X018529Y019351D01*
X018492Y019327D01*
X018478Y019330D01*
X018442Y019344D01*
Y019473D01*
X018548D01*
Y019682D01*
X018647D01*
Y019611D01*
X018967D01*
X018975Y019611D01*
X019017D01*
X019025Y019611D01*
X019656D01*
X019664Y019611D01*
X019706D01*
X019714Y019611D01*
X020034D01*
Y019956D01*
X020027D01*
X020018Y019963D01*
X019998Y020006D01*
X020013Y020044D01*
Y020103D01*
X019991Y020158D01*
X019949Y020199D01*
X019895Y020222D01*
X019836D01*
X019781Y020199D01*
X019739Y020158D01*
X019717Y020103D01*
Y020044D01*
X019733Y020006D01*
X019710Y019959D01*
X019706Y019956D01*
X019664D01*
X019656Y019956D01*
X019220D01*
Y020020D01*
X019212Y020059D01*
X019190Y020092D01*
X019158Y020124D01*
X019179Y020174D01*
X019587D01*
X019626Y020181D01*
X019659Y020203D01*
X020238Y020783D01*
X020283Y020768D01*
X020288Y020764D01*
Y020739D01*
X020613D01*
Y021161D01*
Y021584D01*
X020288Y021584D01*
X020279Y021631D01*
Y023974D01*
X020712Y024406D01*
X021161D01*
X021200Y024414D01*
X021234Y024436D01*
X021801Y025003D01*
X021801Y025003D01*
X021900D01*
X021995Y025029D01*
X022081Y025078D01*
X022150Y025148D01*
X022200Y025233D01*
X022225Y025329D01*
Y025427D01*
X022200Y025523D01*
X022150Y025608D01*
X022081Y025678D01*
X021995Y025727D01*
X021900Y025753D01*
X021801D01*
X021706Y025727D01*
X021620Y025678D01*
X021550Y025608D01*
X021501Y025523D01*
X021452Y025532D01*
Y026118D01*
X021502Y026132D01*
X021510Y026117D01*
X021590Y026038D01*
X021686Y025982D01*
X021794Y025953D01*
X021800D01*
Y026378D01*
Y026803D01*
X021794D01*
X021686Y026774D01*
X021590Y026718D01*
X021510Y026639D01*
X021502Y026624D01*
X021452Y026637D01*
Y026835D01*
X021620Y027003D01*
X022225D01*
Y027753D01*
X021476D01*
Y027147D01*
X021278Y026950D01*
X021256Y026917D01*
X021248Y026878D01*
Y026639D01*
X021198Y026625D01*
X021190Y026639D01*
X021111Y026718D01*
X021014Y026774D01*
X020906Y026803D01*
X020900D01*
Y026378D01*
Y025953D01*
X020906D01*
X021014Y025982D01*
X021111Y026038D01*
X021190Y026117D01*
X021198Y026130D01*
X021248Y026117D01*
Y025535D01*
X021200Y025523D01*
X021150Y025608D01*
X021081Y025678D01*
X020995Y025727D01*
X020900Y025753D01*
X020801D01*
X020706Y025727D01*
X020620Y025678D01*
X020550Y025608D01*
X020501Y025523D01*
X020490Y025480D01*
X019398D01*
X019359Y025472D01*
X019326Y025450D01*
X018935Y025059D01*
X018889Y025078D01*
Y025236D01*
X018965D01*
X019004Y025243D01*
X019037Y025266D01*
X019473Y025701D01*
X019495Y025734D01*
X019501Y025766D01*
X019645D01*
Y025966D01*
X019722Y026043D01*
X019772Y026022D01*
Y026020D01*
X019794Y025966D01*
X019836Y025924D01*
X019890Y025902D01*
X019950D01*
X020004Y025924D01*
X020046Y025966D01*
X020068Y026020D01*
Y026080D01*
X020068Y026080D01*
X020077Y026089D01*
X020099Y026122D01*
X020106Y026161D01*
Y026163D01*
X020319D01*
Y026578D01*
X019904D01*
Y026273D01*
X019903Y026263D01*
Y026203D01*
X019898Y026198D01*
X019890D01*
X019847Y026180D01*
X019811Y026195D01*
X019797Y026207D01*
Y026788D01*
X019813Y026804D01*
X019836Y026859D01*
Y026918D01*
X019814Y026971D01*
Y027085D01*
X019892D01*
X019904Y027040D01*
Y026793D01*
X020319D01*
Y027208D01*
X020214D01*
Y027356D01*
X020284D01*
Y027676D01*
X020334D01*
Y027840D01*
X020112D01*
X019890D01*
Y027784D01*
X019700D01*
X019657Y027826D01*
Y028388D01*
X019650Y028427D01*
X019627Y028460D01*
X019427Y028660D01*
X019394Y028682D01*
X019355Y028690D01*
X018777D01*
Y028865D01*
X018284D01*
Y028371D01*
X018434D01*
Y028275D01*
X018289D01*
Y027781D01*
X018253Y027747D01*
X018228D01*
X018192Y027781D01*
Y028275D01*
X018047D01*
Y028371D01*
X018187D01*
Y028865D01*
X017693D01*
Y028371D01*
X017843D01*
Y028275D01*
X017699D01*
Y028142D01*
X017515D01*
Y028268D01*
X017300D01*
Y028368D01*
X017515D01*
Y028540D01*
X017465D01*
Y028880D01*
X017317D01*
X017312Y028887D01*
X017339Y028937D01*
X022638D01*
Y023385D01*
D02*
G37*
G36*
X017783Y026052D02*
Y025571D01*
X017908D01*
Y025438D01*
X017802D01*
Y024978D01*
X017938D01*
Y024900D01*
X017946Y024861D01*
X017968Y024828D01*
X018025Y024771D01*
X017997Y024732D01*
X017943Y024755D01*
X017884D01*
X017829Y024732D01*
X017788Y024690D01*
X017765Y024636D01*
Y024577D01*
X017788Y024522D01*
X017829Y024480D01*
X017884Y024458D01*
X017943D01*
X017997Y024480D01*
X018021Y024504D01*
X019079D01*
X019118Y024512D01*
X019151Y024534D01*
X019665Y025048D01*
X020083D01*
X020400Y024731D01*
X020433Y024709D01*
X020472Y024701D01*
X021063D01*
X021102Y024709D01*
X021135Y024731D01*
X021422Y025018D01*
X021444Y025051D01*
X021452Y025090D01*
Y025224D01*
X021501Y025233D01*
X021550Y025148D01*
X021604Y025094D01*
X021119Y024610D01*
X020669D01*
X020630Y024602D01*
X020597Y024580D01*
X020105Y024088D01*
X020083Y024055D01*
X020075Y024016D01*
Y020908D01*
X019544Y020378D01*
X018224D01*
X018174Y020379D01*
X018174Y020428D01*
Y020872D01*
X018159D01*
Y021413D01*
X018453Y021707D01*
X018907D01*
X018948Y021636D01*
X019016Y021568D01*
X019099Y021520D01*
X019192Y021495D01*
X019288D01*
X019381Y021520D01*
X019464Y021568D01*
X019532Y021636D01*
X019580Y021719D01*
X019605Y021812D01*
Y021908D01*
X019580Y022001D01*
X019532Y022084D01*
X019464Y022152D01*
X019436Y022168D01*
X019450Y022218D01*
X019720D01*
X019759Y022226D01*
X019792Y022248D01*
X019982Y022438D01*
X020004Y022471D01*
X020012Y022510D01*
Y024400D01*
X020004Y024439D01*
X019982Y024472D01*
X019951Y024503D01*
Y024555D01*
X019943Y024594D01*
X019921Y024627D01*
X019846Y024702D01*
X019846Y024703D01*
Y024762D01*
X019824Y024816D01*
X019782Y024858D01*
X019727Y024881D01*
X019668D01*
X019614Y024858D01*
X019572Y024816D01*
X019549Y024762D01*
Y024703D01*
X019572Y024648D01*
X019614Y024606D01*
X019668Y024584D01*
X019676D01*
X019747Y024513D01*
Y024461D01*
X019755Y024422D01*
X019777Y024389D01*
X019808Y024358D01*
Y022552D01*
X019678Y022422D01*
X018240D01*
X018201Y022414D01*
X018168Y022392D01*
X017548Y021772D01*
X017207D01*
X017194Y021822D01*
X017232Y021844D01*
X017280Y021892D01*
X017314Y021950D01*
X017331Y022016D01*
Y022038D01*
X017381Y022059D01*
X017389Y022051D01*
X017465Y022019D01*
X017548D01*
X017624Y022051D01*
X017683Y022109D01*
X017714Y022186D01*
Y022268D01*
X017683Y022344D01*
X017624Y022403D01*
X017548Y022434D01*
X017465D01*
X017389Y022403D01*
X017331Y022344D01*
X017299Y022268D01*
Y022259D01*
X017249Y022238D01*
X017232Y022256D01*
X017173Y022290D01*
X017124Y022303D01*
Y022050D01*
X017024D01*
Y022303D01*
X016974Y022290D01*
X016916Y022256D01*
X016898Y022238D01*
X016848Y022259D01*
Y022268D01*
X016816Y022344D01*
X016758Y022403D01*
X016682Y022434D01*
X016599D01*
X016523Y022403D01*
X016465Y022344D01*
X016433Y022268D01*
Y022186D01*
X016465Y022109D01*
X016523Y022051D01*
X016539Y022045D01*
Y021729D01*
X016546Y021690D01*
X016568Y021657D01*
X016628Y021598D01*
X016661Y021576D01*
X016700Y021568D01*
X017590D01*
X017629Y021576D01*
X017662Y021598D01*
X018282Y022218D01*
X019030D01*
X019044Y022168D01*
X019016Y022152D01*
X018948Y022084D01*
X018907Y022013D01*
X018390D01*
X018331Y022001D01*
X018282Y021968D01*
X017898Y021584D01*
X017865Y021535D01*
X017853Y021476D01*
Y020872D01*
X017838D01*
X017838Y020379D01*
X017788Y020378D01*
X017562D01*
X015292Y022648D01*
Y023707D01*
X015463D01*
Y023947D01*
X015513D01*
Y023997D01*
X015754D01*
Y024163D01*
X016517D01*
X016696Y023984D01*
Y023376D01*
X016648Y023327D01*
X016616Y023251D01*
Y023169D01*
X016648Y023092D01*
X016706Y023034D01*
X016706Y023033D01*
X016700Y023019D01*
Y022800D01*
X016887D01*
X016852Y022885D01*
X016785Y022952D01*
X016783Y022952D01*
X016793Y023002D01*
X016865D01*
X016941Y023034D01*
X016999Y023092D01*
X017031Y023169D01*
Y023251D01*
X016999Y023327D01*
X016951Y023376D01*
Y024036D01*
X016941Y024085D01*
X016914Y024127D01*
X016660Y024380D01*
X016619Y024408D01*
X016570Y024417D01*
X015704D01*
Y024499D01*
X015638D01*
Y024564D01*
X015678D01*
Y025372D01*
X015638D01*
Y025759D01*
X015628Y025807D01*
X015601Y025849D01*
X015556Y025894D01*
Y026052D01*
X015606Y026082D01*
X015626Y026071D01*
Y026064D01*
X015635Y026015D01*
X015663Y025974D01*
X015704Y025947D01*
X015753Y025937D01*
X015806D01*
Y026089D01*
X015906D01*
Y025937D01*
X015959D01*
X015969Y025939D01*
X016011Y025896D01*
X016009Y025887D01*
Y025834D01*
X016161D01*
Y025784D01*
X016211D01*
Y025518D01*
X016216Y025508D01*
X016136Y025428D01*
X016114Y025395D01*
X016110Y025372D01*
X015972D01*
Y024564D01*
X016308D01*
Y025026D01*
X016310Y025036D01*
Y025119D01*
X016360Y025140D01*
X016366Y025134D01*
X016420Y025112D01*
X016441D01*
Y025052D01*
X016391D01*
Y024863D01*
X016633D01*
Y024813D01*
X016683D01*
Y024573D01*
X016874D01*
Y024596D01*
X016923Y024599D01*
Y024599D01*
X017095D01*
Y024821D01*
X017195D01*
Y024599D01*
X017366D01*
Y024246D01*
X017217Y024097D01*
X017189Y024056D01*
X017180Y024007D01*
Y023390D01*
X017131Y023341D01*
X017100Y023265D01*
Y023182D01*
X017131Y023106D01*
X017190Y023048D01*
X017266Y023016D01*
X017348D01*
X017425Y023048D01*
X017483Y023106D01*
X017515Y023182D01*
Y023265D01*
X017483Y023341D01*
X017435Y023390D01*
Y023954D01*
X017567Y024086D01*
X017616Y024066D01*
X017844D01*
Y024214D01*
X017638D01*
Y024214D01*
X017621Y024260D01*
Y024849D01*
X017636Y024873D01*
X017646Y024921D01*
Y025091D01*
X017636Y025140D01*
X017609Y025181D01*
X017521Y025269D01*
X017480Y025297D01*
X017431Y025307D01*
X017317D01*
Y025347D01*
X017197D01*
X017196Y025349D01*
X017169Y025391D01*
X017083Y025476D01*
X017084Y025519D01*
X017095Y025529D01*
Y025784D01*
X017145D01*
Y025834D01*
X017297D01*
Y025887D01*
X017295Y025896D01*
X017338Y025939D01*
X017347Y025937D01*
X017400D01*
Y026089D01*
X017500D01*
Y025937D01*
X017554D01*
X017602Y025947D01*
X017644Y025974D01*
X017671Y026015D01*
X017681Y026064D01*
Y026078D01*
X017715D01*
X017743Y026090D01*
X017783Y026052D01*
D02*
G37*
%LPC*%
G36*
X020334Y028105D02*
X020162D01*
Y027940D01*
X020334D01*
Y028105D01*
D02*
G37*
G36*
X020062D02*
X019890D01*
Y027940D01*
X020062D01*
Y028105D01*
D02*
G37*
G36*
X020900Y027753D02*
X020801D01*
X020706Y027727D01*
X020620Y027678D01*
X020550Y027608D01*
X020501Y027523D01*
X020476Y027427D01*
Y027329D01*
X020501Y027233D01*
X020550Y027148D01*
X020620Y027078D01*
X020706Y027029D01*
X020801Y027003D01*
X020900D01*
X020995Y027029D01*
X021081Y027078D01*
X021150Y027148D01*
X021200Y027233D01*
X021225Y027329D01*
Y027427D01*
X021200Y027523D01*
X021150Y027608D01*
X021081Y027678D01*
X020995Y027727D01*
X020900Y027753D01*
D02*
G37*
G36*
X021906Y026803D02*
X021900D01*
Y026428D01*
X022275D01*
Y026434D01*
X022246Y026542D01*
X022190Y026639D01*
X022111Y026718D01*
X022014Y026774D01*
X021906Y026803D01*
D02*
G37*
G36*
X020800D02*
X020794D01*
X020686Y026774D01*
X020590Y026718D01*
X020510Y026639D01*
X020455Y026542D01*
X020426Y026434D01*
Y026428D01*
X020800D01*
Y026803D01*
D02*
G37*
G36*
X022275Y026328D02*
X021900D01*
Y025953D01*
X021906D01*
X022014Y025982D01*
X022111Y026038D01*
X022190Y026117D01*
X022246Y026214D01*
X022275Y026322D01*
Y026328D01*
D02*
G37*
G36*
X020800D02*
X020426D01*
Y026322D01*
X020455Y026214D01*
X020510Y026117D01*
X020590Y026038D01*
X020686Y025982D01*
X020794Y025953D01*
X020800D01*
Y026328D01*
D02*
G37*
G36*
X020906Y024047D02*
X020900D01*
Y023672D01*
X021275D01*
Y023678D01*
X021246Y023786D01*
X021190Y023883D01*
X021111Y023962D01*
X021014Y024018D01*
X020906Y024047D01*
D02*
G37*
G36*
X020800D02*
X020794D01*
X020686Y024018D01*
X020590Y023962D01*
X020510Y023883D01*
X020455Y023786D01*
X020426Y023678D01*
Y023672D01*
X020800D01*
Y024047D01*
D02*
G37*
G36*
X021275Y023572D02*
X020900D01*
Y023197D01*
X020906D01*
X021014Y023226D01*
X021111Y023282D01*
X021190Y023361D01*
X021246Y023458D01*
X021275Y023566D01*
Y023572D01*
D02*
G37*
G36*
X020800D02*
X020426D01*
Y023566D01*
X020455Y023458D01*
X020510Y023361D01*
X020590Y023282D01*
X020686Y023226D01*
X020794Y023197D01*
X020800D01*
Y023572D01*
D02*
G37*
G36*
X021800Y023047D02*
X021794D01*
X021686Y023018D01*
X021590Y022962D01*
X021510Y022883D01*
X021455Y022786D01*
X021426Y022678D01*
Y022672D01*
X021800D01*
Y023047D01*
D02*
G37*
G36*
X020900Y022997D02*
X020801D01*
X020706Y022971D01*
X020620Y022922D01*
X020550Y022852D01*
X020501Y022767D01*
X020476Y022671D01*
Y022573D01*
X020501Y022477D01*
X020550Y022392D01*
X020620Y022322D01*
X020706Y022273D01*
X020801Y022247D01*
X020900D01*
X020995Y022273D01*
X021081Y022322D01*
X021150Y022392D01*
X021200Y022477D01*
X021225Y022573D01*
Y022671D01*
X021200Y022767D01*
X021150Y022852D01*
X021081Y022922D01*
X020995Y022971D01*
X020900Y022997D01*
D02*
G37*
G36*
X021800Y022572D02*
X021426D01*
Y022566D01*
X021455Y022458D01*
X021510Y022361D01*
X021590Y022282D01*
X021686Y022226D01*
X021794Y022197D01*
X021800D01*
Y022572D01*
D02*
G37*
G36*
X020713Y021584D02*
Y021211D01*
X021039D01*
Y021584D01*
X020713D01*
D02*
G37*
G36*
X021039Y021111D02*
X020713D01*
Y020739D01*
X021039D01*
Y021111D01*
D02*
G37*
G36*
X016153Y020720D02*
X015975D01*
Y020463D01*
X016153D01*
Y020720D01*
D02*
G37*
G36*
X015875D02*
X015697D01*
Y020463D01*
X015875D01*
Y020720D01*
D02*
G37*
G36*
X020906Y020110D02*
X020900D01*
Y019735D01*
X021275D01*
Y019741D01*
X021246Y019849D01*
X021190Y019946D01*
X021111Y020025D01*
X021014Y020081D01*
X020906Y020110D01*
D02*
G37*
G36*
X020800D02*
X020794D01*
X020686Y020081D01*
X020590Y020025D01*
X020510Y019946D01*
X020455Y019849D01*
X020426Y019741D01*
Y019735D01*
X020800D01*
Y020110D01*
D02*
G37*
G36*
X022225Y020060D02*
X021476D01*
Y019310D01*
X022225D01*
Y020060D01*
D02*
G37*
G36*
X021275Y019635D02*
X020900D01*
Y019260D01*
X020906D01*
X021014Y019289D01*
X021111Y019345D01*
X021190Y019424D01*
X021246Y019521D01*
X021275Y019629D01*
Y019635D01*
D02*
G37*
G36*
X020800D02*
X020426D01*
Y019629D01*
X020455Y019521D01*
X020510Y019424D01*
X020590Y019345D01*
X020686Y019289D01*
X020794Y019260D01*
X020800D01*
Y019635D01*
D02*
G37*
G36*
X019472Y019349D02*
X019300D01*
Y019177D01*
X019472D01*
Y019349D01*
D02*
G37*
G36*
X019200D02*
X019028D01*
Y019177D01*
X019200D01*
Y019349D01*
D02*
G37*
G36*
X018772Y019361D02*
X018724D01*
Y019092D01*
X018894D01*
Y019238D01*
X018885Y019285D01*
X018859Y019325D01*
X018819Y019351D01*
X018772Y019361D01*
D02*
G37*
G36*
X018894Y018992D02*
X018724D01*
Y018723D01*
X018772D01*
X018819Y018732D01*
X018859Y018759D01*
X018885Y018799D01*
X018894Y018845D01*
Y018992D01*
D02*
G37*
G36*
X021900Y019060D02*
X021801D01*
X021706Y019034D01*
X021620Y018985D01*
X021550Y018915D01*
X021501Y018830D01*
X021476Y018734D01*
Y018636D01*
X021501Y018540D01*
X021550Y018455D01*
X021620Y018385D01*
X021706Y018336D01*
X021801Y018310D01*
X021900D01*
X021995Y018336D01*
X022081Y018385D01*
X022150Y018455D01*
X022200Y018540D01*
X022225Y018636D01*
Y018734D01*
X022200Y018830D01*
X022150Y018915D01*
X022081Y018985D01*
X021995Y019034D01*
X021900Y019060D01*
D02*
G37*
G36*
X015355Y020670D02*
X014999D01*
Y020157D01*
X015075D01*
Y020071D01*
X015083Y020032D01*
X015105Y019999D01*
X015164Y019940D01*
X015187Y019924D01*
X015202Y019910D01*
Y019710D01*
X015328D01*
Y019610D01*
X015335Y019571D01*
X015357Y019538D01*
X015430Y019465D01*
X015463Y019443D01*
X015486Y019439D01*
X015498Y019389D01*
X015498Y019387D01*
X015442Y019355D01*
X015381Y019294D01*
X015338Y019220D01*
X015316Y019137D01*
Y019052D01*
X015338Y018969D01*
X015381Y018895D01*
X015442Y018834D01*
X015516Y018791D01*
X015599Y018769D01*
X015685D01*
X015767Y018791D01*
X015842Y018834D01*
X015902Y018895D01*
X015945Y018969D01*
X015967Y019052D01*
Y019137D01*
X015945Y019220D01*
X015902Y019294D01*
X015842Y019355D01*
X015789Y019385D01*
X015802Y019435D01*
X015853D01*
X016810Y018479D01*
X016843Y018457D01*
X016882Y018449D01*
X019568D01*
X019607Y018457D01*
X019640Y018479D01*
X019761Y018600D01*
X020485D01*
X020501Y018540D01*
X020550Y018455D01*
X020620Y018385D01*
X020706Y018336D01*
X020801Y018310D01*
X020900D01*
X020995Y018336D01*
X021081Y018385D01*
X021150Y018455D01*
X021200Y018540D01*
X021225Y018636D01*
Y018734D01*
X021200Y018830D01*
X021150Y018915D01*
X021081Y018985D01*
X020995Y019034D01*
X020900Y019060D01*
X020801D01*
X020706Y019034D01*
X020620Y018985D01*
X020550Y018915D01*
X020501Y018830D01*
X020494Y018804D01*
X019719D01*
X019680Y018797D01*
X019628Y018811D01*
X019615Y018830D01*
X019612Y018837D01*
X019608Y018842D01*
X019595Y018861D01*
X019576Y018874D01*
X019571Y018878D01*
X019564Y018881D01*
X019545Y018894D01*
X019522Y018898D01*
X019516Y018901D01*
X019509D01*
X019487Y018906D01*
X019472D01*
Y019077D01*
X019250D01*
X019028D01*
Y018905D01*
X019078D01*
Y018653D01*
X016925D01*
X015968Y019610D01*
X015964Y019612D01*
X015950Y019660D01*
X015950D01*
X015950Y019660D01*
Y019832D01*
X015736D01*
Y019932D01*
X015950D01*
X015950Y020104D01*
X015999Y020107D01*
X016153D01*
Y020363D01*
X015925D01*
X015697D01*
X015697Y020107D01*
X015648Y020104D01*
X015522D01*
Y020054D01*
X015346D01*
X015316Y020084D01*
X015292Y020100D01*
X015286Y020107D01*
X015295Y020157D01*
X015355D01*
Y020670D01*
D02*
G37*
G36*
X016685Y018420D02*
X016599D01*
X016516Y018398D01*
X016442Y018355D01*
X016381Y018294D01*
X016338Y018220D01*
X016316Y018137D01*
Y018052D01*
X016338Y017969D01*
X016381Y017895D01*
X016442Y017834D01*
X016516Y017791D01*
X016599Y017769D01*
X016685D01*
X016767Y017791D01*
X016842Y017834D01*
X016902Y017895D01*
X016945Y017969D01*
X016967Y018052D01*
Y018137D01*
X016945Y018220D01*
X016902Y018294D01*
X016842Y018355D01*
X016767Y018398D01*
X016685Y018420D01*
D02*
G37*
G36*
X019887Y017939D02*
X019723D01*
Y017767D01*
X019887D01*
Y017939D01*
D02*
G37*
G36*
X017297Y025734D02*
X017195D01*
Y025558D01*
X017219Y025563D01*
X017260Y025590D01*
X017287Y025632D01*
X017297Y025680D01*
Y025734D01*
D02*
G37*
G36*
X016111D02*
X016009D01*
Y025680D01*
X016019Y025632D01*
X016047Y025590D01*
X016088Y025563D01*
X016111Y025558D01*
Y025734D01*
D02*
G37*
G36*
X016583Y024763D02*
X016391D01*
Y024573D01*
X016583D01*
Y024763D01*
D02*
G37*
G36*
X018171Y024214D02*
X017944D01*
Y024066D01*
X018171D01*
Y024214D01*
D02*
G37*
G36*
Y023966D02*
X017944D01*
Y023817D01*
X018171D01*
Y023966D01*
D02*
G37*
G36*
X017844D02*
X017617D01*
Y023817D01*
X017844D01*
Y023966D01*
D02*
G37*
G36*
X015754Y023897D02*
X015563D01*
Y023707D01*
X015754D01*
Y023897D01*
D02*
G37*
G36*
X018993Y024169D02*
X018917D01*
X018895Y024164D01*
X018690D01*
Y023867D01*
X018895D01*
X018917Y023863D01*
X018930D01*
X019087Y023705D01*
Y023225D01*
X018875D01*
Y022903D01*
X017610D01*
X017604Y022909D01*
X017535Y022938D01*
X017460D01*
X017391Y022909D01*
X017338Y022856D01*
X017309Y022787D01*
Y022713D01*
X017338Y022644D01*
X017391Y022591D01*
X017460Y022562D01*
X017535D01*
X017604Y022591D01*
X017610Y022597D01*
X018875D01*
Y022495D01*
X019605D01*
Y023225D01*
X019393D01*
Y023769D01*
X019381Y023827D01*
X019348Y023877D01*
X019144Y024080D01*
Y024164D01*
X019016D01*
X018993Y024169D01*
D02*
G37*
G36*
X016600Y022987D02*
X016515Y022952D01*
X016448Y022885D01*
X016413Y022800D01*
X016600D01*
Y022987D01*
D02*
G37*
G36*
X016887Y022700D02*
X016700D01*
Y022513D01*
X016785Y022548D01*
X016852Y022615D01*
X016887Y022700D01*
D02*
G37*
G36*
X016600D02*
X016413D01*
X016448Y022615D01*
X016515Y022548D01*
X016600Y022513D01*
Y022700D01*
D02*
G37*
G36*
X019295Y021275D02*
X019290D01*
Y020910D01*
X019655D01*
Y020915D01*
X019627Y021020D01*
X019572Y021115D01*
X019495Y021192D01*
X019400Y021247D01*
X019295Y021275D01*
D02*
G37*
G36*
X019190D02*
X019185D01*
X019080Y021247D01*
X018985Y021192D01*
X018908Y021115D01*
X018853Y021020D01*
X018825Y020915D01*
Y020910D01*
X019190D01*
Y021275D01*
D02*
G37*
G36*
X019655Y020810D02*
X019290D01*
Y020445D01*
X019295D01*
X019400Y020473D01*
X019495Y020528D01*
X019572Y020605D01*
X019627Y020700D01*
X019655Y020805D01*
Y020810D01*
D02*
G37*
G36*
X019190D02*
X018825D01*
Y020805D01*
X018853Y020700D01*
X018908Y020605D01*
X018985Y020528D01*
X019080Y020473D01*
X019185Y020445D01*
X019190D01*
Y020810D01*
D02*
G37*
%LPD*%
D15*
X018917Y024016D02*
D03*
X017894D02*
D03*
D16*
X022250Y021161D02*
D03*
X020663D02*
D03*
D17*
X019870Y019783D02*
D03*
X019500D02*
D03*
X019181D02*
D03*
X018811D02*
D03*
X015736Y019882D02*
D03*
X015366D02*
D03*
X019673Y017717D02*
D03*
X019303D02*
D03*
X019093Y026350D02*
D03*
X019463D02*
D03*
X016203Y028268D02*
D03*
X015833D02*
D03*
X016930Y028708D02*
D03*
X017300D02*
D03*
Y028318D02*
D03*
X016930D02*
D03*
D18*
X017145Y024821D02*
D03*
Y025175D02*
D03*
X019250Y018773D02*
D03*
Y019127D02*
D03*
X019150Y028277D02*
D03*
Y027923D02*
D03*
X015418Y027273D02*
D03*
Y027627D02*
D03*
X017380Y019236D02*
D03*
Y018882D02*
D03*
D19*
X014996Y026559D02*
D03*
Y026929D02*
D03*
X019720Y027619D02*
D03*
Y027249D02*
D03*
X015035Y028003D02*
D03*
Y028373D02*
D03*
X015415Y028003D02*
D03*
Y028373D02*
D03*
X020112Y027520D02*
D03*
Y027890D02*
D03*
X017975Y026343D02*
D03*
Y026713D02*
D03*
X018005Y027163D02*
D03*
Y027533D02*
D03*
X019145Y027158D02*
D03*
Y027528D02*
D03*
X018375Y027533D02*
D03*
Y027163D02*
D03*
X018755Y027533D02*
D03*
Y027163D02*
D03*
D20*
X015177Y020413D02*
D03*
X015925D02*
D03*
X015551Y021319D02*
D03*
D21*
X018006Y020626D02*
D03*
X018380Y019720D02*
D03*
X017632D02*
D03*
D22*
X017926Y018018D02*
D03*
X018300D02*
D03*
X018674D02*
D03*
Y019042D02*
D03*
X018300D02*
D03*
X017926D02*
D03*
D23*
X016140Y024968D02*
D03*
X015510D02*
D03*
D24*
X017145Y027378D02*
D03*
X016948D02*
D03*
X016752D02*
D03*
X016555D02*
D03*
X016358D02*
D03*
X016161D02*
D03*
Y025784D02*
D03*
X016358D02*
D03*
X016555D02*
D03*
X016752D02*
D03*
X016948D02*
D03*
X017145D02*
D03*
D25*
X015856Y027073D02*
D03*
Y026876D02*
D03*
Y026679D02*
D03*
Y026482D02*
D03*
Y026286D02*
D03*
Y026089D02*
D03*
X017450D02*
D03*
Y026286D02*
D03*
Y026482D02*
D03*
Y026679D02*
D03*
Y026876D02*
D03*
Y027073D02*
D03*
D26*
X016653Y026581D02*
D03*
D27*
X019473Y025938D02*
D03*
X019118D02*
D03*
X017088Y027818D02*
D03*
X017443D02*
D03*
X016200Y027887D02*
D03*
X015846D02*
D03*
D28*
X015513Y024309D02*
D03*
Y023947D02*
D03*
X016633Y025175D02*
D03*
Y024813D02*
D03*
D29*
X018040Y025208D02*
D03*
X018651D02*
D03*
D30*
X018640Y025818D02*
D03*
X018010D02*
D03*
D31*
X018368Y026718D02*
D03*
X018723D02*
D03*
X018723Y026348D02*
D03*
X018368D02*
D03*
D32*
X017945Y028028D02*
D03*
X018536D02*
D03*
X017940Y028618D02*
D03*
X018531D02*
D03*
D33*
X020112Y026370D02*
D03*
Y027000D02*
D03*
D57*
X018993Y024016D02*
X019240Y023769D01*
Y022860D02*
Y023769D01*
X018917Y024016D02*
X018993D01*
X017497Y022750D02*
X019130D01*
X019240Y022860D01*
X019140Y027533D02*
X019150Y027543D01*
Y027736D02*
Y027923D01*
Y027543D02*
Y027736D01*
X018390Y021860D02*
X019240D01*
X018006Y021476D02*
X018390Y021860D01*
X018006Y020626D02*
Y021476D01*
X017157Y018880D02*
X017360D01*
X019240Y018763D02*
X019250Y018753D01*
X019487D01*
X017910Y017620D02*
Y018002D01*
X017926Y018018D01*
X018300Y017580D02*
Y018018D01*
D58*
X022025Y023447D02*
X022223D01*
X022441Y023229D01*
Y021752D02*
Y023229D01*
X021850Y023622D02*
X022025Y023447D01*
X022376Y021287D02*
Y021687D01*
X022250Y021161D02*
X022376Y021287D01*
Y021687D02*
X022441Y021752D01*
D59*
X016417Y028282D02*
Y028432D01*
Y028282D02*
X016555Y028145D01*
X016291Y028558D02*
X016417Y028432D01*
X016634Y028346D02*
Y028789D01*
X016775Y028930D01*
X016555Y027378D02*
Y028145D01*
X015608Y028558D02*
X016291D01*
X019059Y020079D02*
X019118Y020020D01*
Y019847D02*
Y020020D01*
X016642Y020094D02*
X016657Y020079D01*
X019059D01*
X017520Y020276D02*
X019587D01*
X015855Y026680D02*
X015856Y026679D01*
X015653Y026680D02*
X015855D01*
X019587Y020276D02*
X020177Y020866D01*
X015190Y022605D02*
X017520Y020276D01*
X019118Y019847D02*
X019181Y019783D01*
X019500D01*
X018443D02*
X018811D01*
X018380Y019720D02*
X018443Y019783D01*
X019865Y019789D02*
X019870Y019783D01*
X019865Y019789D02*
Y020073D01*
X015896Y019537D02*
X016882Y018551D01*
X015430Y019610D02*
Y019819D01*
Y019610D02*
X015502Y019537D01*
X015896D01*
X015551Y021319D02*
Y021817D01*
X014961Y022408D02*
Y026559D01*
Y022408D02*
X015551Y021817D01*
X020669Y024508D02*
X021161D01*
X020177Y024016D02*
X020669Y024508D01*
X020177Y020866D02*
Y024016D01*
X017590Y021670D02*
X018240Y022320D01*
X019720D02*
X019910Y022510D01*
X018240Y022320D02*
X019720D01*
X017913Y024606D02*
X019079D01*
X019623Y025150D01*
X020126D01*
X019698Y024706D02*
X019849Y024555D01*
Y024461D02*
X019910Y024400D01*
X019698Y024706D02*
Y024732D01*
X019849Y024461D02*
Y024555D01*
X020126Y025150D02*
X020472Y024803D01*
X021161Y024508D02*
X021850Y025197D01*
Y025378D01*
X019015Y026674D02*
X019034Y026656D01*
X018723Y026718D02*
X018766Y026674D01*
X019015D01*
X019150Y027736D02*
X019489Y027397D01*
X018393Y027515D02*
X018552D01*
X018570Y027497D01*
X018375Y027533D02*
X018393Y027515D01*
X015415Y027622D02*
X015638D01*
X015415D02*
Y028003D01*
X015409Y027628D02*
X015415Y027622D01*
X015697Y027546D02*
Y027564D01*
Y027546D02*
X015865Y027378D01*
X015913Y027646D02*
Y027796D01*
X015895Y027628D02*
X015913Y027646D01*
X015865Y027378D02*
X016161D01*
X017318Y027506D02*
X017478Y027347D01*
Y027320D02*
Y027347D01*
X017318Y027506D02*
Y027536D01*
X017286Y027568D02*
X017318Y027536D01*
X017852Y027686D02*
X018003Y027536D01*
X017717Y027686D02*
X017852D01*
X017450Y027073D02*
X017728D01*
X017754Y027099D02*
X017941D01*
X017728Y027073D02*
X017754Y027099D01*
X019489Y026346D02*
Y027397D01*
X019687Y026888D02*
Y026915D01*
X019712Y026939D02*
Y027249D01*
X019687Y026915D02*
X019712Y026939D01*
X019555Y027784D02*
X019720Y027619D01*
X019555Y027784D02*
Y028388D01*
X018536Y028563D02*
X018561Y028588D01*
X019695Y026160D02*
Y026859D01*
X019486Y026343D02*
X019489Y026346D01*
X019473Y025938D02*
X019695Y026160D01*
X019400Y025866D02*
X019473Y025938D01*
X019910Y022510D02*
Y024400D01*
X016700Y021670D02*
X017590D01*
X016641Y021729D02*
X016700Y021670D01*
X016641Y021729D02*
Y022227D01*
X015449Y026679D02*
X015856D01*
X015219Y026449D02*
X015449Y026679D01*
X015190Y026375D02*
X015219Y026403D01*
X015190Y022605D02*
Y026375D01*
X015219Y026403D02*
Y026449D01*
X015004Y026559D02*
X015350Y026905D01*
X014996Y026559D02*
X015004D01*
X015350Y026905D02*
X015682D01*
X019398Y025378D02*
X020957D01*
X018099Y024841D02*
X018861D01*
X019398Y025378D01*
X021350Y026878D02*
X021850Y027378D01*
X021350Y025090D02*
Y026878D01*
X021063Y024803D02*
X021350Y025090D01*
X020472Y024803D02*
X021063D01*
X018040Y024900D02*
X018099Y024841D01*
X015858Y025786D02*
X016160D01*
X016161Y025784D02*
Y025785D01*
X016160Y025786D02*
X016161Y025785D01*
X015855Y025789D02*
X015858Y025786D01*
X019673Y017717D02*
Y018098D01*
X020833Y018702D02*
X020850Y018685D01*
X019568Y018551D02*
X019719Y018702D01*
X019673Y018098D02*
X020079Y018504D01*
X019719Y018702D02*
X020833D01*
X016882Y018551D02*
X019568D01*
X016775Y028930D02*
X017086D01*
X017144Y028872D01*
X016948Y027678D02*
X017088Y027818D01*
X017315Y028333D02*
X017510D01*
X017279Y028040D02*
X017933D01*
X017510Y028333D02*
X017525Y028348D01*
X017300Y028318D02*
X017315Y028333D01*
X017088Y027818D02*
X017220Y027950D01*
X017144Y028864D02*
Y028872D01*
Y028864D02*
X017300Y028708D01*
X015833Y028359D02*
X015834Y028360D01*
X015423Y028373D02*
X015608Y028558D01*
X015035Y028373D02*
X015423D01*
X015833Y028268D02*
Y028359D01*
X015925Y020413D02*
Y020846D01*
X015736Y019882D02*
X015945D01*
X014961Y026965D02*
X014979Y026983D01*
Y027147D01*
X014961Y027165D02*
X014979Y027147D01*
X014961Y026965D02*
X014996Y026929D01*
X015183Y027300D02*
X015197Y027286D01*
X015027Y027498D02*
Y027712D01*
X015197Y027286D02*
X015396D01*
X015027Y027498D02*
X015225Y027300D01*
X015396Y027286D02*
X015457Y027225D01*
X015225Y027630D02*
X015227Y027628D01*
X015409D01*
X015244Y020012D02*
X015366Y019890D01*
X015177Y020071D02*
Y020413D01*
X015366Y019882D02*
Y019890D01*
X015236Y020012D02*
X015244D01*
X015177Y020071D02*
X015236Y020012D01*
X015366Y019882D02*
X015430Y019819D01*
X015682Y026905D02*
X015710Y026877D01*
X015855D02*
X015856Y026876D01*
X015710Y026877D02*
X015855D01*
X015521Y023919D02*
X015535Y023933D01*
X015757D02*
X015771Y023919D01*
X015535Y023933D02*
X015757D01*
X020101Y027901D02*
Y028140D01*
X020090Y028151D02*
X020101Y028140D01*
X015627Y027225D02*
X015778Y027074D01*
X015457Y027225D02*
X015627D01*
X015027Y027712D02*
X015035Y027721D01*
Y028003D01*
X018674Y017920D02*
X018877Y017717D01*
X018674Y017920D02*
Y018018D01*
X018877Y017717D02*
X019303D01*
X018724Y026349D02*
X019092D01*
X019093Y026350D01*
X018723Y026348D02*
X018724Y026349D01*
X018040Y024900D02*
Y025208D01*
X015620Y026260D02*
X015651D01*
X015703Y026285D02*
X015855D01*
X015678Y026260D02*
X015703Y026285D01*
X015651Y026260D02*
X015678D01*
X015855Y026285D02*
X015856Y026286D01*
X015856Y025778D02*
Y026088D01*
X015841Y027868D02*
X015913Y027796D01*
X017632Y019641D02*
Y019720D01*
X017422Y019431D02*
X017632Y019641D01*
X017422Y019239D02*
Y019431D01*
X017350Y019167D02*
X017422Y019239D01*
X017350Y019167D02*
X017858D01*
X017926Y019099D01*
Y019042D02*
Y019099D01*
X018300Y019042D02*
X018340Y019082D01*
Y019680D01*
X018380Y019720D01*
X018674Y019042D02*
Y019049D01*
X018742Y019117D01*
X018962D01*
Y019380D01*
Y019117D02*
X019240D01*
X017945Y028028D02*
Y028613D01*
X016752Y027378D02*
Y027954D01*
X018758Y027161D02*
X019143D01*
X018755Y027163D02*
X018758Y027161D01*
X016948Y027378D02*
Y027678D01*
X018536Y028028D02*
Y028563D01*
X017941Y027099D02*
X018005Y027163D01*
X017220Y027950D02*
Y027982D01*
X017370Y027746D02*
X017443Y027818D01*
X017145Y027378D02*
Y027455D01*
X017370Y027680D02*
Y027746D01*
X017220Y027982D02*
X017279Y028040D01*
X017933D02*
X017945Y028028D01*
X016752Y027954D02*
X016866Y028069D01*
Y028254D01*
X016199Y028264D02*
X016203Y028268D01*
X016195Y027868D02*
X016199Y027872D01*
Y028264D01*
X015638Y027622D02*
X015697Y027564D01*
X016195Y027868D02*
X016358Y027705D01*
Y027378D02*
Y027705D01*
X016930Y028318D02*
Y028708D01*
X016866Y028254D02*
X016930Y028318D01*
X017828Y026482D02*
X017967Y026343D01*
X017450Y026482D02*
X017828D01*
X017967Y026343D02*
X017975D01*
X017451Y026680D02*
X018330D01*
X018368Y026718D02*
X018368Y026718D01*
X018368Y026348D02*
Y026718D01*
X017940Y028618D02*
X017945Y028613D01*
X019143Y027161D02*
X019145Y027158D01*
X018005Y027163D02*
X018375D01*
X017728Y026876D02*
X017775Y026923D01*
X017450Y026876D02*
X017728D01*
X017450Y026679D02*
X017451Y026680D01*
X015856Y026088D02*
X015856Y026089D01*
X016885Y024808D02*
X016890Y024812D01*
X017141D02*
X017145Y024817D01*
X016890Y024812D02*
X017141D01*
X016660D02*
X016881D01*
X016655Y024817D02*
X016660Y024812D01*
X016555Y025278D02*
Y025784D01*
X016881Y024812D02*
X016885Y024808D01*
X016752Y025273D02*
Y025784D01*
X017975Y025853D02*
X018010Y025818D01*
X017439Y026089D02*
X017450D01*
X017438Y026088D02*
X017439Y026089D01*
X017438Y025791D02*
Y026088D01*
X017425Y025778D02*
X017438Y025791D01*
X017145Y025782D02*
X017146Y025781D01*
X017423D01*
X017425Y025778D01*
X017145Y025782D02*
Y025784D01*
X017975Y025853D02*
Y026343D01*
X018780Y025338D02*
X018965D01*
X018651Y025208D02*
X018780Y025338D01*
X018640Y025818D02*
X018760Y025938D01*
X017451Y026285D02*
X017627D01*
X017685Y026226D01*
X017450Y026286D02*
X017451Y026285D01*
X018965Y025338D02*
X019400Y025773D01*
Y025866D01*
X018760Y025938D02*
X019118D01*
X016140Y024968D02*
X016208Y025036D01*
Y025356D02*
X016358Y025506D01*
X016208Y025036D02*
Y025356D01*
X016358Y025506D02*
Y025784D01*
X018010Y025238D02*
X018040Y025208D01*
X018010Y025238D02*
Y025818D01*
X020112Y027000D02*
Y027520D01*
X020101Y027901D02*
X020112Y027890D01*
X020004Y026161D02*
Y026263D01*
X020112Y026370D01*
X019920Y026050D02*
Y026076D01*
X020004Y026161D01*
X017811Y026923D02*
X017815Y026927D01*
X018685Y027099D02*
X018749Y027163D01*
X018755D01*
X017775Y026923D02*
X017811D01*
X018685Y026985D02*
Y027099D01*
X017815Y026927D02*
X018517D01*
X018518Y026926D01*
X018627D02*
X018685Y026985D01*
X018518Y026926D02*
X018627D01*
X017258Y027568D02*
X017370Y027680D01*
X017145Y027455D02*
X017258Y027568D01*
X017286D01*
X019355Y028588D02*
X019555Y028388D01*
X018561Y028588D02*
X019355D01*
X018578Y027542D02*
X018747D01*
X018755Y027533D01*
D60*
X017307Y023224D02*
Y024007D01*
X015510Y024290D02*
Y025759D01*
X017519Y024921D02*
Y025091D01*
X016824Y023210D02*
Y024036D01*
X017307Y024007D02*
X017493Y024193D01*
Y024896D02*
X017519Y024921D01*
X017493Y024193D02*
Y024896D01*
X015513Y024290D02*
X016570D01*
X016824Y024036D01*
X015428Y025841D02*
Y026352D01*
Y025841D02*
X015510Y025759D01*
X015559Y026483D02*
X015803D01*
X015428Y026352D02*
X015559Y026483D01*
X017431Y025179D02*
X017519Y025091D01*
X017143Y025179D02*
X017431D01*
X017079Y025244D02*
Y025300D01*
Y025244D02*
X017143Y025179D01*
X016948Y025431D02*
Y025784D01*
Y025431D02*
X017079Y025300D01*
D61*
X016642Y018094D02*
D03*
X015642Y019094D02*
D03*
X016642Y020094D02*
D03*
D62*
X020850Y027378D02*
D03*
X021850Y026378D02*
D03*
Y025378D02*
D03*
X020850Y026378D02*
D03*
Y025378D02*
D03*
Y023622D02*
D03*
X021850Y022622D02*
D03*
X020850D02*
D03*
Y019685D02*
D03*
X021850Y018685D02*
D03*
X020850D02*
D03*
D63*
X021850Y027378D02*
D03*
Y023622D02*
D03*
Y019685D02*
D03*
D64*
X017497Y022750D02*
D03*
X016650D02*
D03*
D65*
X017507Y022227D02*
D03*
X017074Y022050D02*
D03*
X016824Y023210D02*
D03*
X016641Y022227D02*
D03*
X017307Y023224D02*
D03*
D66*
X019240Y020860D02*
D03*
Y021860D02*
D03*
D67*
Y022860D02*
D03*
D68*
X016634Y028346D02*
D03*
X019865Y020073D02*
D03*
X019698Y024732D02*
D03*
X019034Y026656D02*
D03*
X018570Y027497D02*
D03*
X015895Y027628D02*
D03*
X017478Y027320D02*
D03*
X017717Y027686D02*
D03*
X019687Y026888D02*
D03*
X017913Y024606D02*
D03*
X016820Y025230D02*
D03*
X015855Y025789D02*
D03*
X020079Y018504D02*
D03*
X017525Y028348D02*
D03*
X018954Y028269D02*
D03*
X015834Y028360D02*
D03*
X015925Y020846D02*
D03*
X015945Y019882D02*
D03*
X014961Y027165D02*
D03*
X015225Y027300D02*
D03*
Y027630D02*
D03*
X017157Y018880D02*
D03*
X019487Y018753D02*
D03*
X015771Y023919D02*
D03*
X020090Y028151D02*
D03*
X015651Y026260D02*
D03*
X018300Y017580D02*
D03*
X017910Y017620D02*
D03*
X016653Y026581D02*
D03*
X019140Y027746D02*
D03*
X016280Y026970D02*
D03*
X017050Y026960D02*
D03*
X017980Y019530D02*
D03*
X018962Y019380D02*
D03*
X017425Y025778D02*
D03*
X016885Y024808D02*
D03*
X017685Y026226D02*
D03*
X016450Y025260D02*
D03*
X019920Y026050D02*
D03*
X017020Y026180D02*
D03*
X016230Y026170D02*
D03*
M02*
