G04*
G04 #@! TF.GenerationSoftware,Altium Limited,Altium Designer,22.2.1 (43)*
G04*
G04 Layer_Color=16711935*
%FSAX24Y24*%
%MOIN*%
G70*
G04*
G04 #@! TF.SameCoordinates,0A7D3E4C-9769-4D31-AB1C-A6483D793648*
G04*
G04*
G04 #@! TF.FilePolarity,Negative*
G04*
G01*
G75*
%ADD50C,0.0631*%
%ADD51C,0.0730*%
%ADD52R,0.0730X0.0730*%
%ADD53C,0.0356*%
%ADD54C,0.0395*%
%ADD55C,0.0710*%
%ADD56R,0.0710X0.0710*%
D50*
X016642Y018094D02*
D03*
X015642Y019094D02*
D03*
X016642Y020094D02*
D03*
D51*
X020850Y027378D02*
D03*
X021850Y026378D02*
D03*
Y025378D02*
D03*
X020850Y026378D02*
D03*
Y025378D02*
D03*
Y023622D02*
D03*
X021850Y022622D02*
D03*
X020850D02*
D03*
Y019685D02*
D03*
X021850Y018685D02*
D03*
X020850D02*
D03*
D52*
X021850Y027378D02*
D03*
Y023622D02*
D03*
Y019685D02*
D03*
D53*
X017497Y022750D02*
D03*
X016650D02*
D03*
D54*
X017507Y022227D02*
D03*
X017074Y022050D02*
D03*
X016824Y023210D02*
D03*
X016641Y022227D02*
D03*
X017307Y023224D02*
D03*
D55*
X019240Y020860D02*
D03*
Y021860D02*
D03*
D56*
Y022860D02*
D03*
M02*
