G04*
G04 #@! TF.GenerationSoftware,Altium Limited,Altium Designer,22.2.1 (43)*
G04*
G04 Layer_Color=2752767*
%FSAX24Y24*%
%MOIN*%
G70*
G04*
G04 #@! TF.SameCoordinates,0A7D3E4C-9769-4D31-AB1C-A6483D793648*
G04*
G04*
G04 #@! TF.FilePolarity,Positive*
G04*
G01*
G75*
%ADD71C,0.0020*%
%ADD72C,0.0027*%
D71*
X016562Y018014D02*
Y018174D01*
X016722D01*
Y018014D01*
X016562D01*
X015562Y019014D02*
Y019174D01*
X015722D01*
Y019014D01*
X015562D01*
X016562Y020014D02*
Y020174D01*
X016722D01*
Y020014D01*
X016562D01*
X017497Y022670D02*
X017417Y022830D01*
X017577D01*
X017497Y022670D01*
X016650D02*
X016570Y022830D01*
X016730D01*
X016650Y022670D01*
X017507Y022147D02*
X017547Y022187D01*
X017587D01*
X017547Y022227D01*
X017587Y022267D01*
X017547D01*
X017507Y022307D01*
X017467Y022267D01*
X017427D01*
X017467Y022227D01*
X017427Y022187D01*
X017467D01*
X017507Y022147D01*
X017074Y021970D02*
X017114Y022010D01*
X017154D01*
X017114Y022050D01*
X017154Y022090D01*
X017114D01*
X017074Y022130D01*
X017034Y022090D01*
X016994D01*
X017034Y022050D01*
X016994Y022010D01*
X017034D01*
X017074Y021970D01*
X016824Y023130D02*
X016864Y023170D01*
X016904D01*
X016864Y023210D01*
X016904Y023250D01*
X016864D01*
X016824Y023290D01*
X016784Y023250D01*
X016744D01*
X016784Y023210D01*
X016744Y023170D01*
X016784D01*
X016824Y023130D01*
X016641Y022147D02*
X016681Y022187D01*
X016721D01*
X016681Y022227D01*
X016721Y022267D01*
X016681D01*
X016641Y022307D01*
X016601Y022267D01*
X016561D01*
X016601Y022227D01*
X016561Y022187D01*
X016601D01*
X016641Y022147D01*
X017307Y023144D02*
X017347Y023184D01*
X017387D01*
X017347Y023224D01*
X017387Y023264D01*
X017347D01*
X017307Y023304D01*
X017267Y023264D01*
X017227D01*
X017267Y023224D01*
X017227Y023184D01*
X017267D01*
X017307Y023144D01*
X016554Y028266D02*
X016594Y028346D01*
X016554Y028426D01*
X016634Y028386D01*
X016714Y028426D01*
X016674Y028346D01*
X016714Y028266D01*
X016634Y028306D01*
X016554Y028266D01*
X019785Y019993D02*
X019825Y020073D01*
X019785Y020153D01*
X019865Y020113D01*
X019945Y020153D01*
X019905Y020073D01*
X019945Y019993D01*
X019865Y020033D01*
X019785Y019993D01*
X019618Y024652D02*
X019658Y024732D01*
X019618Y024812D01*
X019698Y024772D01*
X019778Y024812D01*
X019738Y024732D01*
X019778Y024652D01*
X019698Y024692D01*
X019618Y024652D01*
X018954Y026576D02*
X018994Y026656D01*
X018954Y026736D01*
X019034Y026696D01*
X019114Y026736D01*
X019074Y026656D01*
X019114Y026576D01*
X019034Y026616D01*
X018954Y026576D01*
X018490Y027417D02*
X018530Y027497D01*
X018490Y027577D01*
X018570Y027537D01*
X018650Y027577D01*
X018610Y027497D01*
X018650Y027417D01*
X018570Y027457D01*
X018490Y027417D01*
X015815Y027548D02*
X015855Y027628D01*
X015815Y027708D01*
X015895Y027668D01*
X015975Y027708D01*
X015935Y027628D01*
X015975Y027548D01*
X015895Y027588D01*
X015815Y027548D01*
X017398Y027240D02*
X017438Y027320D01*
X017398Y027400D01*
X017478Y027360D01*
X017558Y027400D01*
X017518Y027320D01*
X017558Y027240D01*
X017478Y027280D01*
X017398Y027240D01*
X017637Y027606D02*
X017677Y027686D01*
X017637Y027766D01*
X017717Y027726D01*
X017797Y027766D01*
X017757Y027686D01*
X017797Y027606D01*
X017717Y027646D01*
X017637Y027606D01*
X019607Y026808D02*
X019647Y026888D01*
X019607Y026968D01*
X019687Y026928D01*
X019767Y026968D01*
X019727Y026888D01*
X019767Y026808D01*
X019687Y026848D01*
X019607Y026808D01*
X017833Y024526D02*
X017873Y024606D01*
X017833Y024686D01*
X017913Y024646D01*
X017993Y024686D01*
X017953Y024606D01*
X017993Y024526D01*
X017913Y024566D01*
X017833Y024526D01*
X016740Y025150D02*
X016780Y025230D01*
X016740Y025310D01*
X016820Y025270D01*
X016900Y025310D01*
X016860Y025230D01*
X016900Y025150D01*
X016820Y025190D01*
X016740Y025150D01*
X015775Y025709D02*
X015815Y025789D01*
X015775Y025869D01*
X015855Y025829D01*
X015935Y025869D01*
X015895Y025789D01*
X015935Y025709D01*
X015855Y025749D01*
X015775Y025709D01*
X019999Y018424D02*
X020039Y018504D01*
X019999Y018584D01*
X020079Y018544D01*
X020159Y018584D01*
X020119Y018504D01*
X020159Y018424D01*
X020079Y018464D01*
X019999Y018424D01*
X017445Y028268D02*
X017485Y028348D01*
X017445Y028428D01*
X017525Y028388D01*
X017605Y028428D01*
X017565Y028348D01*
X017605Y028268D01*
X017525Y028308D01*
X017445Y028268D01*
X018874Y028189D02*
X018914Y028269D01*
X018874Y028349D01*
X018954Y028309D01*
X019034Y028349D01*
X018994Y028269D01*
X019034Y028189D01*
X018954Y028229D01*
X018874Y028189D01*
X015754Y028280D02*
X015794Y028360D01*
X015754Y028440D01*
X015834Y028400D01*
X015914Y028440D01*
X015874Y028360D01*
X015914Y028280D01*
X015834Y028320D01*
X015754Y028280D01*
X015845Y020766D02*
X015885Y020846D01*
X015845Y020926D01*
X015925Y020886D01*
X016005Y020926D01*
X015965Y020846D01*
X016005Y020766D01*
X015925Y020806D01*
X015845Y020766D01*
X015865Y019802D02*
X015905Y019882D01*
X015865Y019962D01*
X015945Y019922D01*
X016025Y019962D01*
X015985Y019882D01*
X016025Y019802D01*
X015945Y019842D01*
X015865Y019802D01*
X014881Y027085D02*
X014921Y027165D01*
X014881Y027245D01*
X014961Y027205D01*
X015041Y027245D01*
X015001Y027165D01*
X015041Y027085D01*
X014961Y027125D01*
X014881Y027085D01*
X015145Y027220D02*
X015185Y027300D01*
X015145Y027380D01*
X015225Y027340D01*
X015305Y027380D01*
X015265Y027300D01*
X015305Y027220D01*
X015225Y027260D01*
X015145Y027220D01*
Y027550D02*
X015185Y027630D01*
X015145Y027710D01*
X015225Y027670D01*
X015305Y027710D01*
X015265Y027630D01*
X015305Y027550D01*
X015225Y027590D01*
X015145Y027550D01*
X017077Y018800D02*
X017117Y018880D01*
X017077Y018960D01*
X017157Y018920D01*
X017237Y018960D01*
X017197Y018880D01*
X017237Y018800D01*
X017157Y018840D01*
X017077Y018800D01*
X019407Y018673D02*
X019447Y018753D01*
X019407Y018833D01*
X019487Y018793D01*
X019567Y018833D01*
X019527Y018753D01*
X019567Y018673D01*
X019487Y018713D01*
X019407Y018673D01*
X015691Y023839D02*
X015731Y023919D01*
X015691Y023999D01*
X015771Y023959D01*
X015851Y023999D01*
X015811Y023919D01*
X015851Y023839D01*
X015771Y023879D01*
X015691Y023839D01*
X020010Y028071D02*
X020050Y028151D01*
X020010Y028231D01*
X020090Y028191D01*
X020170Y028231D01*
X020130Y028151D01*
X020170Y028071D01*
X020090Y028111D01*
X020010Y028071D01*
X015571Y026180D02*
X015611Y026260D01*
X015571Y026340D01*
X015651Y026300D01*
X015731Y026340D01*
X015691Y026260D01*
X015731Y026180D01*
X015651Y026220D01*
X015571Y026180D01*
X018220Y017500D02*
X018260Y017580D01*
X018220Y017660D01*
X018300Y017620D01*
X018380Y017660D01*
X018340Y017580D01*
X018380Y017500D01*
X018300Y017540D01*
X018220Y017500D01*
X017830Y017540D02*
X017870Y017620D01*
X017830Y017700D01*
X017910Y017660D01*
X017990Y017700D01*
X017950Y017620D01*
X017990Y017540D01*
X017910Y017580D01*
X017830Y017540D01*
X016573Y026501D02*
X016613Y026581D01*
X016573Y026661D01*
X016653Y026621D01*
X016733Y026661D01*
X016693Y026581D01*
X016733Y026501D01*
X016653Y026541D01*
X016573Y026501D01*
X019060Y027666D02*
X019100Y027746D01*
X019060Y027826D01*
X019140Y027786D01*
X019220Y027826D01*
X019180Y027746D01*
X019220Y027666D01*
X019140Y027706D01*
X019060Y027666D01*
X016200Y026890D02*
X016240Y026970D01*
X016200Y027050D01*
X016280Y027010D01*
X016360Y027050D01*
X016320Y026970D01*
X016360Y026890D01*
X016280Y026930D01*
X016200Y026890D01*
X016970Y026880D02*
X017010Y026960D01*
X016970Y027040D01*
X017050Y027000D01*
X017130Y027040D01*
X017090Y026960D01*
X017130Y026880D01*
X017050Y026920D01*
X016970Y026880D01*
X017900Y019450D02*
X017940Y019530D01*
X017900Y019610D01*
X017980Y019570D01*
X018060Y019610D01*
X018020Y019530D01*
X018060Y019450D01*
X017980Y019490D01*
X017900Y019450D01*
X018882Y019300D02*
X018922Y019380D01*
X018882Y019460D01*
X018962Y019420D01*
X019042Y019460D01*
X019002Y019380D01*
X019042Y019300D01*
X018962Y019340D01*
X018882Y019300D01*
X017345Y025698D02*
X017385Y025778D01*
X017345Y025858D01*
X017425Y025818D01*
X017505Y025858D01*
X017465Y025778D01*
X017505Y025698D01*
X017425Y025738D01*
X017345Y025698D01*
X016805Y024728D02*
X016845Y024808D01*
X016805Y024888D01*
X016885Y024848D01*
X016965Y024888D01*
X016925Y024808D01*
X016965Y024728D01*
X016885Y024768D01*
X016805Y024728D01*
X017605Y026146D02*
X017645Y026226D01*
X017605Y026306D01*
X017685Y026266D01*
X017765Y026306D01*
X017725Y026226D01*
X017765Y026146D01*
X017685Y026186D01*
X017605Y026146D01*
X016370Y025180D02*
X016410Y025260D01*
X016370Y025340D01*
X016450Y025300D01*
X016530Y025340D01*
X016490Y025260D01*
X016530Y025180D01*
X016450Y025220D01*
X016370Y025180D01*
X019840Y025970D02*
X019880Y026050D01*
X019840Y026130D01*
X019920Y026090D01*
X020000Y026130D01*
X019960Y026050D01*
X020000Y025970D01*
X019920Y026010D01*
X019840Y025970D01*
X016940Y026100D02*
X016980Y026180D01*
X016940Y026260D01*
X017020Y026220D01*
X017100Y026260D01*
X017060Y026180D01*
X017100Y026100D01*
X017020Y026140D01*
X016940Y026100D01*
X016150Y026090D02*
X016190Y026170D01*
X016150Y026250D01*
X016230Y026210D01*
X016310Y026250D01*
X016270Y026170D01*
X016310Y026090D01*
X016230Y026130D01*
X016150Y026090D01*
D72*
X020930Y027378D02*
G03*
X020930Y027378I-000080J000000D01*
G01*
X021930D02*
G03*
X021930Y027378I-000080J000000D01*
G01*
Y026378D02*
G03*
X021930Y026378I-000080J000000D01*
G01*
Y025378D02*
G03*
X021930Y025378I-000080J000000D01*
G01*
X020930Y026378D02*
G03*
X020930Y026378I-000080J000000D01*
G01*
Y025378D02*
G03*
X020930Y025378I-000080J000000D01*
G01*
X021930Y023622D02*
G03*
X021930Y023622I-000080J000000D01*
G01*
X020930D02*
G03*
X020930Y023622I-000080J000000D01*
G01*
X021930Y022622D02*
G03*
X021930Y022622I-000080J000000D01*
G01*
X020930D02*
G03*
X020930Y022622I-000080J000000D01*
G01*
X021930Y019685D02*
G03*
X021930Y019685I-000080J000000D01*
G01*
X020930D02*
G03*
X020930Y019685I-000080J000000D01*
G01*
X021930Y018685D02*
G03*
X021930Y018685I-000080J000000D01*
G01*
X020930D02*
G03*
X020930Y018685I-000080J000000D01*
G01*
X019320Y020860D02*
G03*
X019320Y020860I-000080J000000D01*
G01*
Y021860D02*
G03*
X019320Y021860I-000080J000000D01*
G01*
Y022860D02*
G03*
X019320Y022860I-000080J000000D01*
G01*
M02*
